%TF.GenerationSoftware,KiCad,Pcbnew,(5.1.8)-1*%
%TF.CreationDate,2020-12-16T18:45:53+03:00*%
%TF.ProjectId,ledboard,6c656462-6f61-4726-942e-6b696361645f,v0.4.0*%
%TF.SameCoordinates,Original*%
%TF.FileFunction,Legend,Top*%
%TF.FilePolarity,Positive*%
%FSLAX46Y46*%
G04 Gerber Fmt 4.6, Leading zero omitted, Abs format (unit mm)*
G04 Created by KiCad (PCBNEW (5.1.8)-1) date 2020-12-16 18:45:53*
%MOMM*%
%LPD*%
G01*
G04 APERTURE LIST*
%TA.AperFunction,Profile*%
%ADD10C,0.050000*%
%TD*%
%ADD11C,0.010000*%
%ADD12C,0.120000*%
%ADD13C,0.127000*%
%ADD14C,0.150000*%
%ADD15C,0.100000*%
%ADD16C,0.015000*%
G04 APERTURE END LIST*
D10*
X113920000Y-32340000D02*
G75*
G02*
X116920000Y-35340000I0J-3000000D01*
G01*
X30960000Y-35330000D02*
G75*
G02*
X33960000Y-32330000I3000000J0D01*
G01*
X113920000Y-32340000D02*
X33960000Y-32330000D01*
X81000000Y-45140000D02*
X59000000Y-45130000D01*
X81000000Y-45140000D02*
X81000000Y-88300000D01*
X59000000Y-45130000D02*
X59000000Y-88340000D01*
X33960000Y-88340000D02*
G75*
G02*
X30960000Y-85340000I0J3000000D01*
G01*
X116920066Y-85310001D02*
G75*
G02*
X113939999Y-88309999I-3000066J1D01*
G01*
X81000000Y-88300000D02*
X113939999Y-88309999D01*
X116920066Y-85310001D02*
X116920000Y-35340000D01*
X30960000Y-35330000D02*
X30960000Y-85340000D01*
X33960000Y-88340000D02*
X59000000Y-88340000D01*
D11*
%TO.C,G\u002A\u002A\u002A*%
G36*
X107538203Y-51146403D02*
G01*
X107595397Y-51195301D01*
X107619562Y-51258626D01*
X107619600Y-51261160D01*
X107598960Y-51313237D01*
X107549686Y-51365552D01*
X107490746Y-51400604D01*
X107462410Y-51406200D01*
X107410993Y-51389121D01*
X107365600Y-51355400D01*
X107322612Y-51284869D01*
X107323614Y-51215247D01*
X107363144Y-51159078D01*
X107435742Y-51128912D01*
X107465077Y-51126800D01*
X107538203Y-51146403D01*
G37*
X107538203Y-51146403D02*
X107595397Y-51195301D01*
X107619562Y-51258626D01*
X107619600Y-51261160D01*
X107598960Y-51313237D01*
X107549686Y-51365552D01*
X107490746Y-51400604D01*
X107462410Y-51406200D01*
X107410993Y-51389121D01*
X107365600Y-51355400D01*
X107322612Y-51284869D01*
X107323614Y-51215247D01*
X107363144Y-51159078D01*
X107435742Y-51128912D01*
X107465077Y-51126800D01*
X107538203Y-51146403D01*
G36*
X105998736Y-49207928D02*
G01*
X106092857Y-49217026D01*
X106126398Y-49221053D01*
X106316119Y-49242829D01*
X106545513Y-49265725D01*
X106803496Y-49288800D01*
X107078982Y-49311114D01*
X107360889Y-49331727D01*
X107638130Y-49349699D01*
X107654280Y-49350667D01*
X107834726Y-49359001D01*
X108048188Y-49364828D01*
X108286837Y-49368260D01*
X108542846Y-49369408D01*
X108808387Y-49368384D01*
X109075635Y-49365299D01*
X109336760Y-49360264D01*
X109583937Y-49353391D01*
X109809337Y-49344792D01*
X110005134Y-49334577D01*
X110163500Y-49322858D01*
X110248500Y-49313742D01*
X110362461Y-49300557D01*
X110457339Y-49292599D01*
X110522176Y-49290594D01*
X110545457Y-49294087D01*
X110551312Y-49323541D01*
X110557172Y-49395669D01*
X110562627Y-49502349D01*
X110567266Y-49635455D01*
X110570680Y-49786864D01*
X110570857Y-49797594D01*
X110574005Y-49949747D01*
X110578109Y-50083955D01*
X110582814Y-50192147D01*
X110587763Y-50266254D01*
X110592601Y-50298205D01*
X110592929Y-50298657D01*
X110622476Y-50304737D01*
X110692312Y-50310759D01*
X110791933Y-50316021D01*
X110908341Y-50319763D01*
X111054988Y-50325322D01*
X111153789Y-50334331D01*
X111207603Y-50347136D01*
X111219766Y-50357513D01*
X111206894Y-50384465D01*
X111148640Y-50407916D01*
X111044197Y-50427942D01*
X110892760Y-50444619D01*
X110693520Y-50458023D01*
X110445672Y-50468230D01*
X110148409Y-50475317D01*
X109943700Y-50478128D01*
X109743572Y-50479901D01*
X109555520Y-50480929D01*
X109386746Y-50481224D01*
X109244452Y-50480793D01*
X109135840Y-50479648D01*
X109068114Y-50477798D01*
X109054700Y-50476922D01*
X108991723Y-50471448D01*
X108890930Y-50463164D01*
X108765158Y-50453107D01*
X108627246Y-50442312D01*
X108597500Y-50440015D01*
X108407614Y-50423434D01*
X108196213Y-50401585D01*
X107969046Y-50375346D01*
X107731862Y-50345594D01*
X107490410Y-50313208D01*
X107250441Y-50279066D01*
X107017704Y-50244045D01*
X106797947Y-50209023D01*
X106596921Y-50174879D01*
X106420374Y-50142489D01*
X106274056Y-50112733D01*
X106163717Y-50086488D01*
X106095106Y-50064632D01*
X106077794Y-50055265D01*
X106056205Y-50016675D01*
X106036883Y-49947804D01*
X106030642Y-49911873D01*
X106017702Y-49838092D01*
X105995663Y-49730846D01*
X105967881Y-49605917D01*
X105944446Y-49506608D01*
X105918778Y-49392936D01*
X105901008Y-49298311D01*
X105892808Y-49232943D01*
X105895398Y-49207247D01*
X105928518Y-49204405D01*
X105998736Y-49207928D01*
G37*
X105998736Y-49207928D02*
X106092857Y-49217026D01*
X106126398Y-49221053D01*
X106316119Y-49242829D01*
X106545513Y-49265725D01*
X106803496Y-49288800D01*
X107078982Y-49311114D01*
X107360889Y-49331727D01*
X107638130Y-49349699D01*
X107654280Y-49350667D01*
X107834726Y-49359001D01*
X108048188Y-49364828D01*
X108286837Y-49368260D01*
X108542846Y-49369408D01*
X108808387Y-49368384D01*
X109075635Y-49365299D01*
X109336760Y-49360264D01*
X109583937Y-49353391D01*
X109809337Y-49344792D01*
X110005134Y-49334577D01*
X110163500Y-49322858D01*
X110248500Y-49313742D01*
X110362461Y-49300557D01*
X110457339Y-49292599D01*
X110522176Y-49290594D01*
X110545457Y-49294087D01*
X110551312Y-49323541D01*
X110557172Y-49395669D01*
X110562627Y-49502349D01*
X110567266Y-49635455D01*
X110570680Y-49786864D01*
X110570857Y-49797594D01*
X110574005Y-49949747D01*
X110578109Y-50083955D01*
X110582814Y-50192147D01*
X110587763Y-50266254D01*
X110592601Y-50298205D01*
X110592929Y-50298657D01*
X110622476Y-50304737D01*
X110692312Y-50310759D01*
X110791933Y-50316021D01*
X110908341Y-50319763D01*
X111054988Y-50325322D01*
X111153789Y-50334331D01*
X111207603Y-50347136D01*
X111219766Y-50357513D01*
X111206894Y-50384465D01*
X111148640Y-50407916D01*
X111044197Y-50427942D01*
X110892760Y-50444619D01*
X110693520Y-50458023D01*
X110445672Y-50468230D01*
X110148409Y-50475317D01*
X109943700Y-50478128D01*
X109743572Y-50479901D01*
X109555520Y-50480929D01*
X109386746Y-50481224D01*
X109244452Y-50480793D01*
X109135840Y-50479648D01*
X109068114Y-50477798D01*
X109054700Y-50476922D01*
X108991723Y-50471448D01*
X108890930Y-50463164D01*
X108765158Y-50453107D01*
X108627246Y-50442312D01*
X108597500Y-50440015D01*
X108407614Y-50423434D01*
X108196213Y-50401585D01*
X107969046Y-50375346D01*
X107731862Y-50345594D01*
X107490410Y-50313208D01*
X107250441Y-50279066D01*
X107017704Y-50244045D01*
X106797947Y-50209023D01*
X106596921Y-50174879D01*
X106420374Y-50142489D01*
X106274056Y-50112733D01*
X106163717Y-50086488D01*
X106095106Y-50064632D01*
X106077794Y-50055265D01*
X106056205Y-50016675D01*
X106036883Y-49947804D01*
X106030642Y-49911873D01*
X106017702Y-49838092D01*
X105995663Y-49730846D01*
X105967881Y-49605917D01*
X105944446Y-49506608D01*
X105918778Y-49392936D01*
X105901008Y-49298311D01*
X105892808Y-49232943D01*
X105895398Y-49207247D01*
X105928518Y-49204405D01*
X105998736Y-49207928D01*
G36*
X110155634Y-53664825D02*
G01*
X110179779Y-53728286D01*
X110206843Y-53821560D01*
X110234586Y-53934424D01*
X110260769Y-54056656D01*
X110283151Y-54178033D01*
X110299492Y-54288333D01*
X110307554Y-54377332D01*
X110307214Y-54419869D01*
X110299300Y-54513595D01*
X109791300Y-54609782D01*
X109634911Y-54639072D01*
X109493885Y-54664879D01*
X109376448Y-54685747D01*
X109290831Y-54700217D01*
X109245260Y-54706833D01*
X109241732Y-54707084D01*
X109205662Y-54684477D01*
X109187796Y-54625650D01*
X109184592Y-54553388D01*
X109186077Y-54527435D01*
X109321236Y-54527435D01*
X109329374Y-54552496D01*
X109362753Y-54551440D01*
X109387324Y-54545861D01*
X109439617Y-54535038D01*
X109529985Y-54517827D01*
X109646438Y-54496459D01*
X109776989Y-54473163D01*
X109798435Y-54469396D01*
X109923690Y-54446495D01*
X110030409Y-54425178D01*
X110108849Y-54407525D01*
X110149261Y-54395618D01*
X110152219Y-54393846D01*
X110155521Y-54364007D01*
X110152395Y-54297758D01*
X110144450Y-54208851D01*
X110133293Y-54111037D01*
X110120533Y-54018066D01*
X110107776Y-53943691D01*
X110096632Y-53901662D01*
X110094214Y-53897747D01*
X110072784Y-53908428D01*
X110031209Y-53949078D01*
X110000147Y-53984855D01*
X109909798Y-54094007D01*
X109842694Y-54170126D01*
X109789316Y-54218998D01*
X109740142Y-54246411D01*
X109685653Y-54258152D01*
X109616330Y-54260008D01*
X109550120Y-54258427D01*
X109449216Y-54256626D01*
X109388739Y-54259404D01*
X109358355Y-54269338D01*
X109347731Y-54289007D01*
X109346520Y-54309227D01*
X109342183Y-54371601D01*
X109331898Y-54451723D01*
X109329894Y-54464261D01*
X109321236Y-54527435D01*
X109186077Y-54527435D01*
X109190087Y-54457376D01*
X109202150Y-54353336D01*
X109218652Y-54256987D01*
X109237463Y-54184051D01*
X109251636Y-54154375D01*
X109281739Y-54137350D01*
X109340604Y-54131209D01*
X109437520Y-54135269D01*
X109472709Y-54138139D01*
X109666317Y-54155027D01*
X109811105Y-53998639D01*
X109891490Y-53910141D01*
X109969820Y-53821120D01*
X110030683Y-53749128D01*
X110036597Y-53741825D01*
X110086284Y-53684357D01*
X110124443Y-53648015D01*
X110136648Y-53641400D01*
X110155634Y-53664825D01*
G37*
X110155634Y-53664825D02*
X110179779Y-53728286D01*
X110206843Y-53821560D01*
X110234586Y-53934424D01*
X110260769Y-54056656D01*
X110283151Y-54178033D01*
X110299492Y-54288333D01*
X110307554Y-54377332D01*
X110307214Y-54419869D01*
X110299300Y-54513595D01*
X109791300Y-54609782D01*
X109634911Y-54639072D01*
X109493885Y-54664879D01*
X109376448Y-54685747D01*
X109290831Y-54700217D01*
X109245260Y-54706833D01*
X109241732Y-54707084D01*
X109205662Y-54684477D01*
X109187796Y-54625650D01*
X109184592Y-54553388D01*
X109186077Y-54527435D01*
X109321236Y-54527435D01*
X109329374Y-54552496D01*
X109362753Y-54551440D01*
X109387324Y-54545861D01*
X109439617Y-54535038D01*
X109529985Y-54517827D01*
X109646438Y-54496459D01*
X109776989Y-54473163D01*
X109798435Y-54469396D01*
X109923690Y-54446495D01*
X110030409Y-54425178D01*
X110108849Y-54407525D01*
X110149261Y-54395618D01*
X110152219Y-54393846D01*
X110155521Y-54364007D01*
X110152395Y-54297758D01*
X110144450Y-54208851D01*
X110133293Y-54111037D01*
X110120533Y-54018066D01*
X110107776Y-53943691D01*
X110096632Y-53901662D01*
X110094214Y-53897747D01*
X110072784Y-53908428D01*
X110031209Y-53949078D01*
X110000147Y-53984855D01*
X109909798Y-54094007D01*
X109842694Y-54170126D01*
X109789316Y-54218998D01*
X109740142Y-54246411D01*
X109685653Y-54258152D01*
X109616330Y-54260008D01*
X109550120Y-54258427D01*
X109449216Y-54256626D01*
X109388739Y-54259404D01*
X109358355Y-54269338D01*
X109347731Y-54289007D01*
X109346520Y-54309227D01*
X109342183Y-54371601D01*
X109331898Y-54451723D01*
X109329894Y-54464261D01*
X109321236Y-54527435D01*
X109186077Y-54527435D01*
X109190087Y-54457376D01*
X109202150Y-54353336D01*
X109218652Y-54256987D01*
X109237463Y-54184051D01*
X109251636Y-54154375D01*
X109281739Y-54137350D01*
X109340604Y-54131209D01*
X109437520Y-54135269D01*
X109472709Y-54138139D01*
X109666317Y-54155027D01*
X109811105Y-53998639D01*
X109891490Y-53910141D01*
X109969820Y-53821120D01*
X110030683Y-53749128D01*
X110036597Y-53741825D01*
X110086284Y-53684357D01*
X110124443Y-53648015D01*
X110136648Y-53641400D01*
X110155634Y-53664825D01*
G36*
X111906537Y-54306970D02*
G01*
X111912200Y-54313289D01*
X111895913Y-54339376D01*
X111853046Y-54390962D01*
X111792592Y-54457277D01*
X111787467Y-54462684D01*
X111709896Y-54546863D01*
X111617886Y-54650475D01*
X111529095Y-54753577D01*
X111513848Y-54771700D01*
X111411493Y-54893637D01*
X111336616Y-54981404D01*
X111284180Y-55039863D01*
X111249151Y-55073878D01*
X111226493Y-55088310D01*
X111211170Y-55088023D01*
X111198148Y-55077879D01*
X111197479Y-55077212D01*
X111194922Y-55048342D01*
X111197797Y-54981069D01*
X111204878Y-54887352D01*
X111214938Y-54779149D01*
X111226749Y-54668418D01*
X111239085Y-54567120D01*
X111250718Y-54487211D01*
X111260422Y-54440651D01*
X111263466Y-54434066D01*
X111300367Y-54415044D01*
X111309685Y-54412702D01*
X111348269Y-54404713D01*
X111421779Y-54389252D01*
X111515456Y-54369426D01*
X111531200Y-54366084D01*
X111687938Y-54333923D01*
X111799830Y-54313754D01*
X111871240Y-54304971D01*
X111906537Y-54306970D01*
G37*
X111906537Y-54306970D02*
X111912200Y-54313289D01*
X111895913Y-54339376D01*
X111853046Y-54390962D01*
X111792592Y-54457277D01*
X111787467Y-54462684D01*
X111709896Y-54546863D01*
X111617886Y-54650475D01*
X111529095Y-54753577D01*
X111513848Y-54771700D01*
X111411493Y-54893637D01*
X111336616Y-54981404D01*
X111284180Y-55039863D01*
X111249151Y-55073878D01*
X111226493Y-55088310D01*
X111211170Y-55088023D01*
X111198148Y-55077879D01*
X111197479Y-55077212D01*
X111194922Y-55048342D01*
X111197797Y-54981069D01*
X111204878Y-54887352D01*
X111214938Y-54779149D01*
X111226749Y-54668418D01*
X111239085Y-54567120D01*
X111250718Y-54487211D01*
X111260422Y-54440651D01*
X111263466Y-54434066D01*
X111300367Y-54415044D01*
X111309685Y-54412702D01*
X111348269Y-54404713D01*
X111421779Y-54389252D01*
X111515456Y-54369426D01*
X111531200Y-54366084D01*
X111687938Y-54333923D01*
X111799830Y-54313754D01*
X111871240Y-54304971D01*
X111906537Y-54306970D01*
G36*
X110272652Y-54584185D02*
G01*
X110276455Y-54612094D01*
X110280077Y-54682948D01*
X110283289Y-54788894D01*
X110285863Y-54922078D01*
X110287569Y-55074646D01*
X110287763Y-55103031D01*
X110288227Y-55282199D01*
X110286872Y-55416313D01*
X110283354Y-55511099D01*
X110277332Y-55572280D01*
X110268461Y-55605582D01*
X110256999Y-55616627D01*
X110222508Y-55606252D01*
X110156878Y-55572891D01*
X110070839Y-55522325D01*
X110009519Y-55483277D01*
X109916657Y-55424150D01*
X109838238Y-55377506D01*
X109784703Y-55349376D01*
X109768219Y-55343876D01*
X109735630Y-55358621D01*
X109675427Y-55396874D01*
X109599928Y-55450740D01*
X109590717Y-55457657D01*
X109440935Y-55570761D01*
X109379556Y-55438280D01*
X109335039Y-55322557D01*
X109294856Y-55183503D01*
X109263870Y-55041502D01*
X109246945Y-54916937D01*
X109245200Y-54875177D01*
X109248322Y-54824407D01*
X109266583Y-54797662D01*
X109313322Y-54784113D01*
X109365928Y-54777177D01*
X109433324Y-54766010D01*
X109537797Y-54744872D01*
X109667206Y-54716385D01*
X109809414Y-54683167D01*
X109873666Y-54667544D01*
X110006560Y-54635709D01*
X110121317Y-54609930D01*
X110209280Y-54592015D01*
X110261795Y-54583773D01*
X110272652Y-54584185D01*
G37*
X110272652Y-54584185D02*
X110276455Y-54612094D01*
X110280077Y-54682948D01*
X110283289Y-54788894D01*
X110285863Y-54922078D01*
X110287569Y-55074646D01*
X110287763Y-55103031D01*
X110288227Y-55282199D01*
X110286872Y-55416313D01*
X110283354Y-55511099D01*
X110277332Y-55572280D01*
X110268461Y-55605582D01*
X110256999Y-55616627D01*
X110222508Y-55606252D01*
X110156878Y-55572891D01*
X110070839Y-55522325D01*
X110009519Y-55483277D01*
X109916657Y-55424150D01*
X109838238Y-55377506D01*
X109784703Y-55349376D01*
X109768219Y-55343876D01*
X109735630Y-55358621D01*
X109675427Y-55396874D01*
X109599928Y-55450740D01*
X109590717Y-55457657D01*
X109440935Y-55570761D01*
X109379556Y-55438280D01*
X109335039Y-55322557D01*
X109294856Y-55183503D01*
X109263870Y-55041502D01*
X109246945Y-54916937D01*
X109245200Y-54875177D01*
X109248322Y-54824407D01*
X109266583Y-54797662D01*
X109313322Y-54784113D01*
X109365928Y-54777177D01*
X109433324Y-54766010D01*
X109537797Y-54744872D01*
X109667206Y-54716385D01*
X109809414Y-54683167D01*
X109873666Y-54667544D01*
X110006560Y-54635709D01*
X110121317Y-54609930D01*
X110209280Y-54592015D01*
X110261795Y-54583773D01*
X110272652Y-54584185D01*
G36*
X109765353Y-55709548D02*
G01*
X109793890Y-55745590D01*
X109822973Y-55793988D01*
X109815576Y-55811640D01*
X109770384Y-55806203D01*
X109737095Y-55782024D01*
X109738634Y-55758000D01*
X109751672Y-55714983D01*
X109753200Y-55703770D01*
X109765353Y-55709548D01*
G37*
X109765353Y-55709548D02*
X109793890Y-55745590D01*
X109822973Y-55793988D01*
X109815576Y-55811640D01*
X109770384Y-55806203D01*
X109737095Y-55782024D01*
X109738634Y-55758000D01*
X109751672Y-55714983D01*
X109753200Y-55703770D01*
X109765353Y-55709548D01*
G36*
X110221241Y-53034320D02*
G01*
X110366562Y-53036746D01*
X110852924Y-53047897D01*
X110912783Y-53122398D01*
X110952343Y-53179639D01*
X111004948Y-53266400D01*
X111061042Y-53366705D01*
X111077562Y-53397892D01*
X111127691Y-53496636D01*
X111158496Y-53570692D01*
X111174521Y-53639131D01*
X111180309Y-53721020D01*
X111180454Y-53829692D01*
X111177981Y-53923012D01*
X111172182Y-54056111D01*
X111163648Y-54218121D01*
X111152968Y-54398170D01*
X111140734Y-54585392D01*
X111134806Y-54670100D01*
X111120546Y-54878818D01*
X111110966Y-55045248D01*
X111105922Y-55177672D01*
X111105275Y-55284373D01*
X111108883Y-55373632D01*
X111116606Y-55453733D01*
X111120908Y-55485713D01*
X111191486Y-55804308D01*
X111310597Y-56123596D01*
X111476313Y-56438419D01*
X111478334Y-56441750D01*
X111509401Y-56498737D01*
X111521072Y-56532768D01*
X111518403Y-56537000D01*
X111493001Y-56521637D01*
X111437230Y-56479860D01*
X111359443Y-56418135D01*
X111272272Y-56346500D01*
X111180861Y-56271683D01*
X111103002Y-56210677D01*
X111047206Y-56169966D01*
X111022377Y-56156000D01*
X110994414Y-56166811D01*
X110988376Y-56201664D01*
X111005617Y-56264189D01*
X111047492Y-56358015D01*
X111115355Y-56486770D01*
X111204134Y-56643031D01*
X111260762Y-56743881D01*
X111292373Y-56810142D01*
X111297239Y-56841510D01*
X111273634Y-56837681D01*
X111219829Y-56798353D01*
X111134098Y-56723221D01*
X111014713Y-56611982D01*
X111011799Y-56609226D01*
X110906804Y-56506658D01*
X110803742Y-56400411D01*
X110714610Y-56303180D01*
X110652492Y-56229070D01*
X110538930Y-56081489D01*
X110654338Y-55849598D01*
X110707278Y-55745346D01*
X110755880Y-55653393D01*
X110793279Y-55586551D01*
X110807572Y-55563702D01*
X110839505Y-55493152D01*
X110840252Y-55429778D01*
X110815214Y-55384719D01*
X110769794Y-55369117D01*
X110721385Y-55385959D01*
X110628877Y-55440670D01*
X110538660Y-55489934D01*
X110461087Y-55528588D01*
X110406509Y-55551474D01*
X110385289Y-55553513D01*
X110384414Y-55523963D01*
X110383368Y-55450157D01*
X110382210Y-55338637D01*
X110381000Y-55195947D01*
X110379797Y-55028630D01*
X110378661Y-54843229D01*
X110378407Y-54797100D01*
X110374435Y-54060500D01*
X110290920Y-53770803D01*
X110241675Y-53607186D01*
X110198005Y-53482578D01*
X110154579Y-53386373D01*
X110106067Y-53307963D01*
X110047135Y-53236744D01*
X109996596Y-53185261D01*
X109936293Y-53123214D01*
X109894229Y-53073473D01*
X109880200Y-53048809D01*
X109904561Y-53041559D01*
X109973584Y-53036626D01*
X110081175Y-53034163D01*
X110221241Y-53034320D01*
G37*
X110221241Y-53034320D02*
X110366562Y-53036746D01*
X110852924Y-53047897D01*
X110912783Y-53122398D01*
X110952343Y-53179639D01*
X111004948Y-53266400D01*
X111061042Y-53366705D01*
X111077562Y-53397892D01*
X111127691Y-53496636D01*
X111158496Y-53570692D01*
X111174521Y-53639131D01*
X111180309Y-53721020D01*
X111180454Y-53829692D01*
X111177981Y-53923012D01*
X111172182Y-54056111D01*
X111163648Y-54218121D01*
X111152968Y-54398170D01*
X111140734Y-54585392D01*
X111134806Y-54670100D01*
X111120546Y-54878818D01*
X111110966Y-55045248D01*
X111105922Y-55177672D01*
X111105275Y-55284373D01*
X111108883Y-55373632D01*
X111116606Y-55453733D01*
X111120908Y-55485713D01*
X111191486Y-55804308D01*
X111310597Y-56123596D01*
X111476313Y-56438419D01*
X111478334Y-56441750D01*
X111509401Y-56498737D01*
X111521072Y-56532768D01*
X111518403Y-56537000D01*
X111493001Y-56521637D01*
X111437230Y-56479860D01*
X111359443Y-56418135D01*
X111272272Y-56346500D01*
X111180861Y-56271683D01*
X111103002Y-56210677D01*
X111047206Y-56169966D01*
X111022377Y-56156000D01*
X110994414Y-56166811D01*
X110988376Y-56201664D01*
X111005617Y-56264189D01*
X111047492Y-56358015D01*
X111115355Y-56486770D01*
X111204134Y-56643031D01*
X111260762Y-56743881D01*
X111292373Y-56810142D01*
X111297239Y-56841510D01*
X111273634Y-56837681D01*
X111219829Y-56798353D01*
X111134098Y-56723221D01*
X111014713Y-56611982D01*
X111011799Y-56609226D01*
X110906804Y-56506658D01*
X110803742Y-56400411D01*
X110714610Y-56303180D01*
X110652492Y-56229070D01*
X110538930Y-56081489D01*
X110654338Y-55849598D01*
X110707278Y-55745346D01*
X110755880Y-55653393D01*
X110793279Y-55586551D01*
X110807572Y-55563702D01*
X110839505Y-55493152D01*
X110840252Y-55429778D01*
X110815214Y-55384719D01*
X110769794Y-55369117D01*
X110721385Y-55385959D01*
X110628877Y-55440670D01*
X110538660Y-55489934D01*
X110461087Y-55528588D01*
X110406509Y-55551474D01*
X110385289Y-55553513D01*
X110384414Y-55523963D01*
X110383368Y-55450157D01*
X110382210Y-55338637D01*
X110381000Y-55195947D01*
X110379797Y-55028630D01*
X110378661Y-54843229D01*
X110378407Y-54797100D01*
X110374435Y-54060500D01*
X110290920Y-53770803D01*
X110241675Y-53607186D01*
X110198005Y-53482578D01*
X110154579Y-53386373D01*
X110106067Y-53307963D01*
X110047135Y-53236744D01*
X109996596Y-53185261D01*
X109936293Y-53123214D01*
X109894229Y-53073473D01*
X109880200Y-53048809D01*
X109904561Y-53041559D01*
X109973584Y-53036626D01*
X110081175Y-53034163D01*
X110221241Y-53034320D01*
G36*
X109794280Y-55452932D02*
G01*
X109853456Y-55482825D01*
X109945345Y-55538674D01*
X110018842Y-55585980D01*
X110235433Y-55727161D01*
X110502316Y-55584007D01*
X110616308Y-55523900D01*
X110693119Y-55486631D01*
X110739620Y-55469743D01*
X110762685Y-55470776D01*
X110769186Y-55487274D01*
X110769200Y-55488546D01*
X110757325Y-55541496D01*
X110745104Y-55560370D01*
X110728036Y-55588530D01*
X110691563Y-55656348D01*
X110638726Y-55757908D01*
X110572566Y-55887295D01*
X110496124Y-56038596D01*
X110412440Y-56205894D01*
X110389888Y-56251250D01*
X110305509Y-56420293D01*
X110228178Y-56573569D01*
X110160805Y-56705435D01*
X110106304Y-56810251D01*
X110067585Y-56882377D01*
X110047561Y-56916173D01*
X110045684Y-56918000D01*
X110032903Y-56898440D01*
X110032600Y-56893118D01*
X110034366Y-56860170D01*
X110039230Y-56786122D01*
X110046536Y-56680539D01*
X110055629Y-56552982D01*
X110060199Y-56490008D01*
X110087799Y-56111778D01*
X109920499Y-55794697D01*
X109860347Y-55679588D01*
X109809791Y-55580741D01*
X109773115Y-55506693D01*
X109754598Y-55465977D01*
X109753200Y-55461208D01*
X109762600Y-55446543D01*
X109794280Y-55452932D01*
G37*
X109794280Y-55452932D02*
X109853456Y-55482825D01*
X109945345Y-55538674D01*
X110018842Y-55585980D01*
X110235433Y-55727161D01*
X110502316Y-55584007D01*
X110616308Y-55523900D01*
X110693119Y-55486631D01*
X110739620Y-55469743D01*
X110762685Y-55470776D01*
X110769186Y-55487274D01*
X110769200Y-55488546D01*
X110757325Y-55541496D01*
X110745104Y-55560370D01*
X110728036Y-55588530D01*
X110691563Y-55656348D01*
X110638726Y-55757908D01*
X110572566Y-55887295D01*
X110496124Y-56038596D01*
X110412440Y-56205894D01*
X110389888Y-56251250D01*
X110305509Y-56420293D01*
X110228178Y-56573569D01*
X110160805Y-56705435D01*
X110106304Y-56810251D01*
X110067585Y-56882377D01*
X110047561Y-56916173D01*
X110045684Y-56918000D01*
X110032903Y-56898440D01*
X110032600Y-56893118D01*
X110034366Y-56860170D01*
X110039230Y-56786122D01*
X110046536Y-56680539D01*
X110055629Y-56552982D01*
X110060199Y-56490008D01*
X110087799Y-56111778D01*
X109920499Y-55794697D01*
X109860347Y-55679588D01*
X109809791Y-55580741D01*
X109773115Y-55506693D01*
X109754598Y-55465977D01*
X109753200Y-55461208D01*
X109762600Y-55446543D01*
X109794280Y-55452932D01*
G36*
X109000247Y-55470421D02*
G01*
X109004396Y-55487445D01*
X109034880Y-55625248D01*
X109066450Y-55756007D01*
X109094197Y-55859498D01*
X109097055Y-55869186D01*
X109121437Y-55950673D01*
X109418268Y-55706523D01*
X109548890Y-55601831D01*
X109643146Y-55532544D01*
X109701023Y-55498670D01*
X109722468Y-55500005D01*
X109716817Y-55536917D01*
X109696118Y-55611086D01*
X109663501Y-55712332D01*
X109622095Y-55830477D01*
X109614403Y-55851521D01*
X109498970Y-56165405D01*
X109632037Y-56370252D01*
X109699583Y-56473254D01*
X109765761Y-56572513D01*
X109819694Y-56651771D01*
X109835352Y-56674160D01*
X109877096Y-56739659D01*
X109902260Y-56791940D01*
X109905600Y-56806882D01*
X109903106Y-56821656D01*
X109891341Y-56827526D01*
X109863873Y-56822155D01*
X109814275Y-56803206D01*
X109736115Y-56768340D01*
X109622966Y-56715222D01*
X109524673Y-56668397D01*
X109419762Y-56618899D01*
X109333383Y-56579274D01*
X109274729Y-56553662D01*
X109253037Y-56546096D01*
X109256157Y-56571233D01*
X109269212Y-56632038D01*
X109288062Y-56710037D01*
X109306356Y-56794112D01*
X109314788Y-56857493D01*
X109312036Y-56885030D01*
X109289739Y-56897144D01*
X109245870Y-56905633D01*
X109172482Y-56911197D01*
X109061630Y-56914534D01*
X108961312Y-56915883D01*
X108851753Y-56918528D01*
X108783500Y-56925085D01*
X108747107Y-56937334D01*
X108733125Y-56957053D01*
X108732712Y-56958904D01*
X108722331Y-56984282D01*
X108700387Y-56971033D01*
X108683787Y-56952554D01*
X108655366Y-56912946D01*
X108607900Y-56839821D01*
X108547955Y-56743537D01*
X108482094Y-56634449D01*
X108480786Y-56632250D01*
X108418030Y-56528572D01*
X108364062Y-56442984D01*
X108324295Y-56383818D01*
X108304142Y-56359408D01*
X108303427Y-56359200D01*
X108282473Y-56377767D01*
X108236676Y-56428283D01*
X108172854Y-56502967D01*
X108100028Y-56591322D01*
X107995842Y-56719601D01*
X107919053Y-56813400D01*
X107865073Y-56877708D01*
X107829315Y-56917510D01*
X107807190Y-56937795D01*
X107794113Y-56943549D01*
X107785494Y-56939760D01*
X107782308Y-56936731D01*
X107779935Y-56903777D01*
X107797849Y-56845416D01*
X107806636Y-56825636D01*
X107832027Y-56765822D01*
X107841921Y-56728688D01*
X107840912Y-56724445D01*
X107814671Y-56728032D01*
X107747546Y-56743769D01*
X107647432Y-56769621D01*
X107522222Y-56803555D01*
X107389871Y-56840671D01*
X107248241Y-56880219D01*
X107124188Y-56913405D01*
X107025646Y-56938223D01*
X106960548Y-56952672D01*
X106936976Y-56955043D01*
X106931664Y-56927193D01*
X106923870Y-56856654D01*
X106914154Y-56751283D01*
X106903076Y-56618939D01*
X106891197Y-56467479D01*
X106879076Y-56304763D01*
X106867274Y-56138648D01*
X106856349Y-55976994D01*
X106846863Y-55827657D01*
X106839375Y-55698497D01*
X106834446Y-55597372D01*
X106832634Y-55532141D01*
X106834048Y-55510684D01*
X106862254Y-55511819D01*
X106929354Y-55525156D01*
X107026446Y-55548214D01*
X107144633Y-55578512D01*
X107275015Y-55613568D01*
X107408692Y-55650902D01*
X107536766Y-55688033D01*
X107650336Y-55722478D01*
X107740504Y-55751757D01*
X107798370Y-55773389D01*
X107815462Y-55784312D01*
X107789444Y-55799522D01*
X107723719Y-55824690D01*
X107627634Y-55856567D01*
X107510534Y-55891902D01*
X107485047Y-55899202D01*
X107365733Y-55934184D01*
X107266349Y-55965439D01*
X107195934Y-55989966D01*
X107163530Y-56004761D01*
X107162400Y-56006389D01*
X107184946Y-56019899D01*
X107242951Y-56038062D01*
X107295750Y-56050720D01*
X107435887Y-56082976D01*
X107568320Y-56117178D01*
X107684588Y-56150735D01*
X107776229Y-56181054D01*
X107834782Y-56205546D01*
X107852037Y-56221096D01*
X107825625Y-56236420D01*
X107759431Y-56261792D01*
X107662714Y-56293995D01*
X107544729Y-56329813D01*
X107512230Y-56339173D01*
X107390327Y-56374388D01*
X107287165Y-56405118D01*
X107212000Y-56428536D01*
X107174090Y-56441813D01*
X107171478Y-56443254D01*
X107188978Y-56453875D01*
X107244244Y-56472649D01*
X107325694Y-56495684D01*
X107333485Y-56497722D01*
X107455150Y-56530112D01*
X107590520Y-56567279D01*
X107679835Y-56592485D01*
X107768324Y-56614391D01*
X107837554Y-56625061D01*
X107873547Y-56622410D01*
X107874588Y-56621544D01*
X107889277Y-56592847D01*
X107919582Y-56523673D01*
X107962657Y-56420875D01*
X108015656Y-56291301D01*
X108075734Y-56141804D01*
X108115452Y-56041700D01*
X108178505Y-55883221D01*
X108236251Y-55740364D01*
X108285843Y-55619988D01*
X108324433Y-55528952D01*
X108349176Y-55474116D01*
X108356326Y-55461293D01*
X108366675Y-55453288D01*
X108376300Y-55458801D01*
X108387684Y-55485147D01*
X108403310Y-55539637D01*
X108425662Y-55629587D01*
X108454218Y-55749600D01*
X108524388Y-56045031D01*
X108583753Y-56291917D01*
X108632574Y-56491291D01*
X108671111Y-56644188D01*
X108699626Y-56751640D01*
X108718379Y-56814684D01*
X108727632Y-56834351D01*
X108727877Y-56834189D01*
X108735516Y-56806071D01*
X108747802Y-56738292D01*
X108762927Y-56641577D01*
X108776373Y-56546773D01*
X108796862Y-56396524D01*
X108820598Y-56223378D01*
X108843818Y-56054753D01*
X108854405Y-55978200D01*
X108872471Y-55847254D01*
X108889712Y-55721277D01*
X108903892Y-55616662D01*
X108911292Y-55561178D01*
X108929140Y-55478611D01*
X108953172Y-55433383D01*
X108978502Y-55429364D01*
X109000247Y-55470421D01*
G37*
X109000247Y-55470421D02*
X109004396Y-55487445D01*
X109034880Y-55625248D01*
X109066450Y-55756007D01*
X109094197Y-55859498D01*
X109097055Y-55869186D01*
X109121437Y-55950673D01*
X109418268Y-55706523D01*
X109548890Y-55601831D01*
X109643146Y-55532544D01*
X109701023Y-55498670D01*
X109722468Y-55500005D01*
X109716817Y-55536917D01*
X109696118Y-55611086D01*
X109663501Y-55712332D01*
X109622095Y-55830477D01*
X109614403Y-55851521D01*
X109498970Y-56165405D01*
X109632037Y-56370252D01*
X109699583Y-56473254D01*
X109765761Y-56572513D01*
X109819694Y-56651771D01*
X109835352Y-56674160D01*
X109877096Y-56739659D01*
X109902260Y-56791940D01*
X109905600Y-56806882D01*
X109903106Y-56821656D01*
X109891341Y-56827526D01*
X109863873Y-56822155D01*
X109814275Y-56803206D01*
X109736115Y-56768340D01*
X109622966Y-56715222D01*
X109524673Y-56668397D01*
X109419762Y-56618899D01*
X109333383Y-56579274D01*
X109274729Y-56553662D01*
X109253037Y-56546096D01*
X109256157Y-56571233D01*
X109269212Y-56632038D01*
X109288062Y-56710037D01*
X109306356Y-56794112D01*
X109314788Y-56857493D01*
X109312036Y-56885030D01*
X109289739Y-56897144D01*
X109245870Y-56905633D01*
X109172482Y-56911197D01*
X109061630Y-56914534D01*
X108961312Y-56915883D01*
X108851753Y-56918528D01*
X108783500Y-56925085D01*
X108747107Y-56937334D01*
X108733125Y-56957053D01*
X108732712Y-56958904D01*
X108722331Y-56984282D01*
X108700387Y-56971033D01*
X108683787Y-56952554D01*
X108655366Y-56912946D01*
X108607900Y-56839821D01*
X108547955Y-56743537D01*
X108482094Y-56634449D01*
X108480786Y-56632250D01*
X108418030Y-56528572D01*
X108364062Y-56442984D01*
X108324295Y-56383818D01*
X108304142Y-56359408D01*
X108303427Y-56359200D01*
X108282473Y-56377767D01*
X108236676Y-56428283D01*
X108172854Y-56502967D01*
X108100028Y-56591322D01*
X107995842Y-56719601D01*
X107919053Y-56813400D01*
X107865073Y-56877708D01*
X107829315Y-56917510D01*
X107807190Y-56937795D01*
X107794113Y-56943549D01*
X107785494Y-56939760D01*
X107782308Y-56936731D01*
X107779935Y-56903777D01*
X107797849Y-56845416D01*
X107806636Y-56825636D01*
X107832027Y-56765822D01*
X107841921Y-56728688D01*
X107840912Y-56724445D01*
X107814671Y-56728032D01*
X107747546Y-56743769D01*
X107647432Y-56769621D01*
X107522222Y-56803555D01*
X107389871Y-56840671D01*
X107248241Y-56880219D01*
X107124188Y-56913405D01*
X107025646Y-56938223D01*
X106960548Y-56952672D01*
X106936976Y-56955043D01*
X106931664Y-56927193D01*
X106923870Y-56856654D01*
X106914154Y-56751283D01*
X106903076Y-56618939D01*
X106891197Y-56467479D01*
X106879076Y-56304763D01*
X106867274Y-56138648D01*
X106856349Y-55976994D01*
X106846863Y-55827657D01*
X106839375Y-55698497D01*
X106834446Y-55597372D01*
X106832634Y-55532141D01*
X106834048Y-55510684D01*
X106862254Y-55511819D01*
X106929354Y-55525156D01*
X107026446Y-55548214D01*
X107144633Y-55578512D01*
X107275015Y-55613568D01*
X107408692Y-55650902D01*
X107536766Y-55688033D01*
X107650336Y-55722478D01*
X107740504Y-55751757D01*
X107798370Y-55773389D01*
X107815462Y-55784312D01*
X107789444Y-55799522D01*
X107723719Y-55824690D01*
X107627634Y-55856567D01*
X107510534Y-55891902D01*
X107485047Y-55899202D01*
X107365733Y-55934184D01*
X107266349Y-55965439D01*
X107195934Y-55989966D01*
X107163530Y-56004761D01*
X107162400Y-56006389D01*
X107184946Y-56019899D01*
X107242951Y-56038062D01*
X107295750Y-56050720D01*
X107435887Y-56082976D01*
X107568320Y-56117178D01*
X107684588Y-56150735D01*
X107776229Y-56181054D01*
X107834782Y-56205546D01*
X107852037Y-56221096D01*
X107825625Y-56236420D01*
X107759431Y-56261792D01*
X107662714Y-56293995D01*
X107544729Y-56329813D01*
X107512230Y-56339173D01*
X107390327Y-56374388D01*
X107287165Y-56405118D01*
X107212000Y-56428536D01*
X107174090Y-56441813D01*
X107171478Y-56443254D01*
X107188978Y-56453875D01*
X107244244Y-56472649D01*
X107325694Y-56495684D01*
X107333485Y-56497722D01*
X107455150Y-56530112D01*
X107590520Y-56567279D01*
X107679835Y-56592485D01*
X107768324Y-56614391D01*
X107837554Y-56625061D01*
X107873547Y-56622410D01*
X107874588Y-56621544D01*
X107889277Y-56592847D01*
X107919582Y-56523673D01*
X107962657Y-56420875D01*
X108015656Y-56291301D01*
X108075734Y-56141804D01*
X108115452Y-56041700D01*
X108178505Y-55883221D01*
X108236251Y-55740364D01*
X108285843Y-55619988D01*
X108324433Y-55528952D01*
X108349176Y-55474116D01*
X108356326Y-55461293D01*
X108366675Y-55453288D01*
X108376300Y-55458801D01*
X108387684Y-55485147D01*
X108403310Y-55539637D01*
X108425662Y-55629587D01*
X108454218Y-55749600D01*
X108524388Y-56045031D01*
X108583753Y-56291917D01*
X108632574Y-56491291D01*
X108671111Y-56644188D01*
X108699626Y-56751640D01*
X108718379Y-56814684D01*
X108727632Y-56834351D01*
X108727877Y-56834189D01*
X108735516Y-56806071D01*
X108747802Y-56738292D01*
X108762927Y-56641577D01*
X108776373Y-56546773D01*
X108796862Y-56396524D01*
X108820598Y-56223378D01*
X108843818Y-56054753D01*
X108854405Y-55978200D01*
X108872471Y-55847254D01*
X108889712Y-55721277D01*
X108903892Y-55616662D01*
X108911292Y-55561178D01*
X108929140Y-55478611D01*
X108953172Y-55433383D01*
X108978502Y-55429364D01*
X109000247Y-55470421D01*
G36*
X105359349Y-55511189D02*
G01*
X105365321Y-55546571D01*
X105349898Y-55621504D01*
X105312488Y-55738584D01*
X105298884Y-55776814D01*
X105212278Y-56016300D01*
X105312448Y-56130600D01*
X105376938Y-56206096D01*
X105435174Y-56277450D01*
X105462187Y-56312570D01*
X105511755Y-56380241D01*
X105155559Y-56693570D01*
X105040952Y-56793099D01*
X104937548Y-56880484D01*
X104852037Y-56950263D01*
X104791110Y-56996974D01*
X104761681Y-57015112D01*
X104730111Y-57002537D01*
X104724461Y-56977012D01*
X104736618Y-56936222D01*
X104769019Y-56863328D01*
X104816184Y-56770029D01*
X104853160Y-56702210D01*
X104981397Y-56473721D01*
X104909332Y-56410110D01*
X104844214Y-56354312D01*
X104765523Y-56289079D01*
X104736183Y-56265308D01*
X104635100Y-56184117D01*
X104984154Y-55834583D01*
X105121712Y-55699140D01*
X105226982Y-55600754D01*
X105301227Y-55538339D01*
X105345708Y-55510805D01*
X105359349Y-55511189D01*
G37*
X105359349Y-55511189D02*
X105365321Y-55546571D01*
X105349898Y-55621504D01*
X105312488Y-55738584D01*
X105298884Y-55776814D01*
X105212278Y-56016300D01*
X105312448Y-56130600D01*
X105376938Y-56206096D01*
X105435174Y-56277450D01*
X105462187Y-56312570D01*
X105511755Y-56380241D01*
X105155559Y-56693570D01*
X105040952Y-56793099D01*
X104937548Y-56880484D01*
X104852037Y-56950263D01*
X104791110Y-56996974D01*
X104761681Y-57015112D01*
X104730111Y-57002537D01*
X104724461Y-56977012D01*
X104736618Y-56936222D01*
X104769019Y-56863328D01*
X104816184Y-56770029D01*
X104853160Y-56702210D01*
X104981397Y-56473721D01*
X104909332Y-56410110D01*
X104844214Y-56354312D01*
X104765523Y-56289079D01*
X104736183Y-56265308D01*
X104635100Y-56184117D01*
X104984154Y-55834583D01*
X105121712Y-55699140D01*
X105226982Y-55600754D01*
X105301227Y-55538339D01*
X105345708Y-55510805D01*
X105359349Y-55511189D01*
G36*
X106566393Y-55457941D02*
G01*
X106576990Y-55500839D01*
X106588320Y-55578707D01*
X106601138Y-55696758D01*
X106616200Y-55860205D01*
X106616523Y-55863900D01*
X106623701Y-55941662D01*
X106634204Y-56048085D01*
X106648480Y-56187491D01*
X106666978Y-56364207D01*
X106690146Y-56582555D01*
X106718434Y-56846863D01*
X106719935Y-56860850D01*
X106725708Y-56940822D01*
X106719664Y-56981678D01*
X106699969Y-56994108D01*
X106697072Y-56994200D01*
X106661516Y-56989683D01*
X106591163Y-56977732D01*
X106498370Y-56960739D01*
X106395495Y-56941101D01*
X106294896Y-56921211D01*
X106208930Y-56903466D01*
X106149955Y-56890259D01*
X106130241Y-56884351D01*
X106124068Y-56859228D01*
X106110278Y-56794437D01*
X106090993Y-56700168D01*
X106071162Y-56600904D01*
X106048465Y-56488716D01*
X106028887Y-56396672D01*
X106014692Y-56335117D01*
X106008468Y-56314401D01*
X105999212Y-56334787D01*
X105978533Y-56395957D01*
X105948990Y-56489857D01*
X105913144Y-56608434D01*
X105889530Y-56688577D01*
X105849716Y-56819051D01*
X105812471Y-56930344D01*
X105780838Y-57014148D01*
X105757862Y-57062157D01*
X105749629Y-57070330D01*
X105732981Y-57046206D01*
X105717386Y-56978683D01*
X105704484Y-56875162D01*
X105703210Y-56860850D01*
X105693378Y-56749769D01*
X105683722Y-56646859D01*
X105676080Y-56571582D01*
X105675052Y-56562400D01*
X105668857Y-56505678D01*
X105658753Y-56410056D01*
X105645957Y-56287173D01*
X105631684Y-56148668D01*
X105625936Y-56092500D01*
X105611384Y-55951577D01*
X105597729Y-55822229D01*
X105586205Y-55715917D01*
X105578042Y-55644106D01*
X105575996Y-55627622D01*
X105577609Y-55557214D01*
X105599386Y-55530535D01*
X105637077Y-55530295D01*
X105712548Y-55539851D01*
X105814106Y-55557460D01*
X105907606Y-55576461D01*
X106181403Y-55635597D01*
X106211696Y-55762448D01*
X106233828Y-55859177D01*
X106259089Y-55975394D01*
X106275547Y-56054400D01*
X106309107Y-56219500D01*
X106344056Y-56092500D01*
X106388064Y-55936944D01*
X106431736Y-55790381D01*
X106472583Y-55660426D01*
X106508116Y-55554693D01*
X106535846Y-55480798D01*
X106553284Y-55446354D01*
X106555773Y-55444800D01*
X106566393Y-55457941D01*
G37*
X106566393Y-55457941D02*
X106576990Y-55500839D01*
X106588320Y-55578707D01*
X106601138Y-55696758D01*
X106616200Y-55860205D01*
X106616523Y-55863900D01*
X106623701Y-55941662D01*
X106634204Y-56048085D01*
X106648480Y-56187491D01*
X106666978Y-56364207D01*
X106690146Y-56582555D01*
X106718434Y-56846863D01*
X106719935Y-56860850D01*
X106725708Y-56940822D01*
X106719664Y-56981678D01*
X106699969Y-56994108D01*
X106697072Y-56994200D01*
X106661516Y-56989683D01*
X106591163Y-56977732D01*
X106498370Y-56960739D01*
X106395495Y-56941101D01*
X106294896Y-56921211D01*
X106208930Y-56903466D01*
X106149955Y-56890259D01*
X106130241Y-56884351D01*
X106124068Y-56859228D01*
X106110278Y-56794437D01*
X106090993Y-56700168D01*
X106071162Y-56600904D01*
X106048465Y-56488716D01*
X106028887Y-56396672D01*
X106014692Y-56335117D01*
X106008468Y-56314401D01*
X105999212Y-56334787D01*
X105978533Y-56395957D01*
X105948990Y-56489857D01*
X105913144Y-56608434D01*
X105889530Y-56688577D01*
X105849716Y-56819051D01*
X105812471Y-56930344D01*
X105780838Y-57014148D01*
X105757862Y-57062157D01*
X105749629Y-57070330D01*
X105732981Y-57046206D01*
X105717386Y-56978683D01*
X105704484Y-56875162D01*
X105703210Y-56860850D01*
X105693378Y-56749769D01*
X105683722Y-56646859D01*
X105676080Y-56571582D01*
X105675052Y-56562400D01*
X105668857Y-56505678D01*
X105658753Y-56410056D01*
X105645957Y-56287173D01*
X105631684Y-56148668D01*
X105625936Y-56092500D01*
X105611384Y-55951577D01*
X105597729Y-55822229D01*
X105586205Y-55715917D01*
X105578042Y-55644106D01*
X105575996Y-55627622D01*
X105577609Y-55557214D01*
X105599386Y-55530535D01*
X105637077Y-55530295D01*
X105712548Y-55539851D01*
X105814106Y-55557460D01*
X105907606Y-55576461D01*
X106181403Y-55635597D01*
X106211696Y-55762448D01*
X106233828Y-55859177D01*
X106259089Y-55975394D01*
X106275547Y-56054400D01*
X106309107Y-56219500D01*
X106344056Y-56092500D01*
X106388064Y-55936944D01*
X106431736Y-55790381D01*
X106472583Y-55660426D01*
X106508116Y-55554693D01*
X106535846Y-55480798D01*
X106553284Y-55446354D01*
X106555773Y-55444800D01*
X106566393Y-55457941D01*
G36*
X108425175Y-45771218D02*
G01*
X108573405Y-45779211D01*
X108737944Y-45791224D01*
X108910302Y-45806350D01*
X109081992Y-45823680D01*
X109244525Y-45842309D01*
X109389414Y-45861328D01*
X109508168Y-45879832D01*
X109592302Y-45896912D01*
X109631284Y-45910242D01*
X109661975Y-45913917D01*
X109737032Y-45917017D01*
X109850028Y-45919451D01*
X109994530Y-45921127D01*
X110164110Y-45921955D01*
X110352337Y-45921844D01*
X110428509Y-45921530D01*
X111201109Y-45917599D01*
X111266909Y-45983400D01*
X111302742Y-46023444D01*
X111320119Y-46062430D01*
X111322591Y-46117368D01*
X111313710Y-46205271D01*
X111313530Y-46206750D01*
X111302952Y-46297965D01*
X111295098Y-46373683D01*
X111292125Y-46410390D01*
X111310418Y-46447605D01*
X111370618Y-46495745D01*
X111467700Y-46552981D01*
X111622296Y-46637309D01*
X111743860Y-46705021D01*
X111844260Y-46763258D01*
X111935366Y-46819162D01*
X112029045Y-46879876D01*
X112137168Y-46952541D01*
X112178900Y-46980947D01*
X112357645Y-47106264D01*
X112518716Y-47227547D01*
X112672043Y-47353319D01*
X112827553Y-47492106D01*
X112995175Y-47652431D01*
X113184838Y-47842818D01*
X113195788Y-47854006D01*
X113585508Y-48286349D01*
X113930432Y-48741034D01*
X114231158Y-49219270D01*
X114488283Y-49722265D01*
X114702407Y-50251226D01*
X114874125Y-50807362D01*
X115004035Y-51391880D01*
X115034682Y-51571300D01*
X115093363Y-52058281D01*
X115114263Y-52552254D01*
X115097302Y-53061149D01*
X115042406Y-53592894D01*
X115012970Y-53793800D01*
X114994097Y-53893461D01*
X114963961Y-54029327D01*
X114925749Y-54188899D01*
X114882647Y-54359681D01*
X114837844Y-54529175D01*
X114794524Y-54684883D01*
X114755876Y-54814308D01*
X114741148Y-54859780D01*
X114686716Y-55009697D01*
X114618308Y-55178955D01*
X114539476Y-55360420D01*
X114453774Y-55546958D01*
X114364753Y-55731435D01*
X114275966Y-55906719D01*
X114190966Y-56065674D01*
X114113304Y-56201169D01*
X114046534Y-56306068D01*
X113994207Y-56373238D01*
X113981476Y-56385283D01*
X113949765Y-56426381D01*
X113944200Y-56447273D01*
X113926894Y-56486232D01*
X113893399Y-56524300D01*
X113855517Y-56566393D01*
X113842600Y-56593550D01*
X113826903Y-56630149D01*
X113810850Y-56650277D01*
X113779559Y-56687273D01*
X113729419Y-56750605D01*
X113677500Y-56818381D01*
X113590425Y-56929134D01*
X113492394Y-57044086D01*
X113377054Y-57170119D01*
X113238052Y-57314120D01*
X113069035Y-57482973D01*
X113017100Y-57534041D01*
X112900486Y-57647006D01*
X112796712Y-57743675D01*
X112695673Y-57832565D01*
X112587263Y-57922193D01*
X112461376Y-58021074D01*
X112307907Y-58137724D01*
X112242400Y-58186876D01*
X112130143Y-58266539D01*
X112006553Y-58347290D01*
X111887967Y-58418910D01*
X111790721Y-58471183D01*
X111778850Y-58476786D01*
X111719715Y-58506203D01*
X111686342Y-58527122D01*
X111683600Y-58530819D01*
X111695722Y-58556068D01*
X111727512Y-58612465D01*
X111772108Y-58687837D01*
X111772434Y-58688377D01*
X111837154Y-58819210D01*
X111859234Y-58925734D01*
X111838537Y-59006820D01*
X111814949Y-59034963D01*
X111743414Y-59069837D01*
X111655746Y-59073716D01*
X111588005Y-59051503D01*
X111545881Y-59031855D01*
X111468959Y-59000018D01*
X111370149Y-58961245D01*
X111309637Y-58938297D01*
X111075374Y-58850587D01*
X110941337Y-58909763D01*
X110786541Y-58971844D01*
X110594596Y-59039123D01*
X110378367Y-59107891D01*
X110150718Y-59174441D01*
X109924513Y-59235063D01*
X109712617Y-59286051D01*
X109527895Y-59323697D01*
X109473800Y-59332761D01*
X109121602Y-59379207D01*
X108761090Y-59411135D01*
X108403985Y-59428185D01*
X108062009Y-59429994D01*
X107746883Y-59416200D01*
X107518000Y-59393160D01*
X107038986Y-59317408D01*
X106585448Y-59221329D01*
X106167180Y-59107096D01*
X106032100Y-59063620D01*
X105766734Y-58964701D01*
X105477906Y-58839653D01*
X105180609Y-58695540D01*
X104889835Y-58539425D01*
X104762100Y-58465348D01*
X104682796Y-58419644D01*
X104614085Y-58382594D01*
X104583256Y-58367726D01*
X104524194Y-58330521D01*
X104497596Y-58304946D01*
X104460509Y-58271589D01*
X104441780Y-58264200D01*
X104406525Y-58249589D01*
X104375040Y-58227356D01*
X104336890Y-58197431D01*
X104268512Y-58145156D01*
X104180413Y-58078526D01*
X104104803Y-58021759D01*
X104005130Y-57948060D01*
X103935134Y-57900440D01*
X103884177Y-57874064D01*
X103841622Y-57864101D01*
X103796831Y-57865716D01*
X103769608Y-57869455D01*
X103654173Y-57871405D01*
X103567963Y-57840994D01*
X103549645Y-57819700D01*
X104154525Y-57819700D01*
X104176238Y-57849031D01*
X104234638Y-57899580D01*
X104322746Y-57966612D01*
X104433581Y-58045391D01*
X104560160Y-58131182D01*
X104695503Y-58219248D01*
X104832629Y-58304854D01*
X104964557Y-58383265D01*
X105079850Y-58447381D01*
X105570669Y-58686519D01*
X106067527Y-58886091D01*
X106564044Y-59044009D01*
X107053839Y-59158187D01*
X107429100Y-59215771D01*
X107565016Y-59231390D01*
X107693539Y-59245759D01*
X107800503Y-59257317D01*
X107871739Y-59264507D01*
X107873600Y-59264678D01*
X107963378Y-59269080D01*
X108092081Y-59270421D01*
X108247946Y-59269047D01*
X108419213Y-59265304D01*
X108594119Y-59259539D01*
X108760904Y-59252098D01*
X108907806Y-59243329D01*
X109023064Y-59233577D01*
X109054700Y-59229873D01*
X109247678Y-59203245D01*
X109413000Y-59177623D01*
X109543761Y-59154179D01*
X109633055Y-59134085D01*
X109651600Y-59128601D01*
X109711106Y-59112045D01*
X109798338Y-59091012D01*
X109867500Y-59075796D01*
X109954692Y-59054394D01*
X110066608Y-59022426D01*
X110194586Y-58982879D01*
X110329964Y-58938738D01*
X110464079Y-58892990D01*
X110588270Y-58848619D01*
X110693873Y-58808611D01*
X110772227Y-58775953D01*
X110814670Y-58753629D01*
X110819750Y-58747581D01*
X110797878Y-58732199D01*
X110742249Y-58707691D01*
X110699100Y-58691548D01*
X110603089Y-58657235D01*
X110507295Y-58622425D01*
X110480022Y-58612364D01*
X110419930Y-58593540D01*
X110366910Y-58589719D01*
X110301464Y-58601775D01*
X110226022Y-58623760D01*
X109989155Y-58691511D01*
X109729154Y-58756567D01*
X109467914Y-58813859D01*
X109227332Y-58858319D01*
X109181700Y-58865517D01*
X108983787Y-58888508D01*
X108749087Y-58904186D01*
X108490294Y-58912635D01*
X108220104Y-58913936D01*
X107951209Y-58908173D01*
X107696304Y-58895427D01*
X107468084Y-58875782D01*
X107302100Y-58853307D01*
X106748951Y-58738750D01*
X106224652Y-58585097D01*
X105722631Y-58389668D01*
X105236319Y-58149782D01*
X104759145Y-57862762D01*
X104584972Y-57745041D01*
X104546099Y-57737852D01*
X104476391Y-57740801D01*
X104389853Y-57751459D01*
X104300495Y-57767397D01*
X104222323Y-57786184D01*
X104169346Y-57805391D01*
X104154525Y-57819700D01*
X103549645Y-57819700D01*
X103516758Y-57781471D01*
X103504800Y-57720557D01*
X103515732Y-57652321D01*
X103542172Y-57604452D01*
X103543489Y-57603311D01*
X103554114Y-57586661D01*
X103548731Y-57561542D01*
X103523109Y-57522329D01*
X103473016Y-57463398D01*
X103394220Y-57379124D01*
X103307062Y-57289051D01*
X103036104Y-56993335D01*
X102791040Y-56686575D01*
X102564968Y-56358781D01*
X102350986Y-55999962D01*
X102147007Y-55609900D01*
X101941313Y-55149744D01*
X101772839Y-54676315D01*
X101639472Y-54182077D01*
X101539098Y-53659491D01*
X101484557Y-53247700D01*
X101452330Y-52740566D01*
X101455419Y-52600000D01*
X101614787Y-52600000D01*
X101620396Y-52957163D01*
X101636591Y-53272067D01*
X101664101Y-53552287D01*
X101703655Y-53805396D01*
X101751711Y-54022400D01*
X101771827Y-54102332D01*
X101795974Y-54199714D01*
X101805446Y-54238300D01*
X101840129Y-54366221D01*
X101887810Y-54523532D01*
X101942645Y-54692449D01*
X101998791Y-54855184D01*
X102050403Y-54993952D01*
X102068318Y-55038400D01*
X102139031Y-55205462D01*
X102205270Y-55354527D01*
X102271774Y-55494671D01*
X102343279Y-55634973D01*
X102424525Y-55784509D01*
X102520249Y-55952355D01*
X102635191Y-56147590D01*
X102730100Y-56306208D01*
X102779500Y-56380829D01*
X102851354Y-56479276D01*
X102940497Y-56595376D01*
X103041762Y-56722955D01*
X103149984Y-56855841D01*
X103259999Y-56987861D01*
X103366639Y-57112843D01*
X103464740Y-57224612D01*
X103549135Y-57316996D01*
X103614661Y-57383823D01*
X103656150Y-57418919D01*
X103664326Y-57422619D01*
X103691287Y-57407198D01*
X103737648Y-57364166D01*
X103765926Y-57333725D01*
X103826402Y-57263819D01*
X103858954Y-57212803D01*
X103862096Y-57168407D01*
X103834344Y-57118364D01*
X103774212Y-57050407D01*
X103725472Y-56999570D01*
X103346682Y-56569883D01*
X103010905Y-56113902D01*
X102719057Y-55633536D01*
X102472058Y-55130697D01*
X102270825Y-54607294D01*
X102116276Y-54065239D01*
X102009330Y-53506442D01*
X101994179Y-53396305D01*
X101977538Y-53229262D01*
X101965251Y-53028105D01*
X101957436Y-52805916D01*
X101954288Y-52580985D01*
X102514200Y-52580985D01*
X102526450Y-52991766D01*
X102564891Y-53379195D01*
X102632053Y-53755857D01*
X102730469Y-54134334D01*
X102862670Y-54527210D01*
X102952202Y-54757701D01*
X103009513Y-54896410D01*
X103063521Y-55019669D01*
X103119700Y-55138466D01*
X103183526Y-55263792D01*
X103260477Y-55406637D01*
X103356026Y-55577991D01*
X103397327Y-55651061D01*
X103498679Y-55813575D01*
X103628918Y-55997383D01*
X103778642Y-56190395D01*
X103938446Y-56380525D01*
X104098927Y-56555683D01*
X104109843Y-56566968D01*
X104274601Y-56736636D01*
X104447286Y-56554268D01*
X104525583Y-56470733D01*
X104573250Y-56415507D01*
X104594841Y-56380259D01*
X104594913Y-56356658D01*
X104578022Y-56336373D01*
X104570171Y-56329555D01*
X104528079Y-56273034D01*
X104505444Y-56212570D01*
X104503589Y-56154453D01*
X104529212Y-56098465D01*
X104569158Y-56048361D01*
X104615937Y-55990227D01*
X104644098Y-55945862D01*
X104647800Y-55934207D01*
X104634041Y-55900511D01*
X104599136Y-55842983D01*
X104576796Y-55810560D01*
X104514452Y-55716714D01*
X104429646Y-55577843D01*
X104322627Y-55394361D01*
X104221445Y-55216200D01*
X104169896Y-55126816D01*
X104116710Y-55037890D01*
X104099712Y-55010400D01*
X104057756Y-54940525D01*
X103997495Y-54836168D01*
X103924692Y-54707584D01*
X103845109Y-54565029D01*
X103764509Y-54418758D01*
X103688655Y-54279025D01*
X103687243Y-54276400D01*
X103636114Y-54184000D01*
X103587397Y-54100465D01*
X103551640Y-54043880D01*
X103551639Y-54043878D01*
X103519296Y-53993746D01*
X103504851Y-53964281D01*
X103504800Y-53963603D01*
X103492790Y-53934890D01*
X103460999Y-53873844D01*
X103415785Y-53791690D01*
X103363506Y-53699654D01*
X103310519Y-53608962D01*
X103263183Y-53530840D01*
X103233927Y-53485337D01*
X103189077Y-53397825D01*
X103179251Y-53314516D01*
X103301600Y-53314516D01*
X103308289Y-53335282D01*
X103324271Y-53369710D01*
X103351838Y-53422171D01*
X103393285Y-53497034D01*
X103450903Y-53598673D01*
X103526987Y-53731456D01*
X103623830Y-53899756D01*
X103738346Y-54098600D01*
X103848158Y-54289475D01*
X103966805Y-54495972D01*
X104086705Y-54704879D01*
X104200277Y-54902980D01*
X104299938Y-55077062D01*
X104343172Y-55152700D01*
X104426670Y-55297883D01*
X104506374Y-55434636D01*
X104577173Y-55554329D01*
X104633958Y-55648334D01*
X104671617Y-55708023D01*
X104675267Y-55713435D01*
X104736562Y-55812203D01*
X104763222Y-55887217D01*
X104755741Y-55951420D01*
X104714611Y-56017758D01*
X104688040Y-56048686D01*
X104624933Y-56127644D01*
X104602005Y-56186827D01*
X104618606Y-56236685D01*
X104673200Y-56287016D01*
X104723273Y-56333999D01*
X104748292Y-56377021D01*
X104748958Y-56383026D01*
X104732863Y-56418711D01*
X104690113Y-56481102D01*
X104628383Y-56559464D01*
X104593479Y-56600500D01*
X104531276Y-56671798D01*
X104442810Y-56773147D01*
X104335246Y-56896344D01*
X104215744Y-57033184D01*
X104091470Y-57175466D01*
X104032270Y-57243233D01*
X103920334Y-57372687D01*
X103821485Y-57489553D01*
X103740092Y-57588456D01*
X103680519Y-57664024D01*
X103647132Y-57710882D01*
X103641790Y-57723856D01*
X103676169Y-57728225D01*
X103757719Y-57721526D01*
X103884107Y-57704110D01*
X104053003Y-57676326D01*
X104262076Y-57638521D01*
X104443514Y-57603867D01*
X104577868Y-57578015D01*
X104634054Y-57567354D01*
X105371700Y-57567354D01*
X105663800Y-57710690D01*
X106143180Y-57926352D01*
X106610055Y-58095975D01*
X107069797Y-58221070D01*
X107527780Y-58303147D01*
X107899000Y-58339003D01*
X108020274Y-58345896D01*
X108122983Y-58350147D01*
X108218837Y-58351594D01*
X108319544Y-58350073D01*
X108436812Y-58345425D01*
X108582351Y-58337485D01*
X108749900Y-58327221D01*
X108870995Y-58317172D01*
X109001156Y-58302321D01*
X109130668Y-58284285D01*
X109249816Y-58264681D01*
X109348887Y-58245126D01*
X109418165Y-58227236D01*
X109447937Y-58212627D01*
X109448400Y-58210984D01*
X109427248Y-58189514D01*
X109391250Y-58174385D01*
X109336570Y-58155326D01*
X109255970Y-58124194D01*
X109194400Y-58099115D01*
X109085201Y-58054260D01*
X108966581Y-58006494D01*
X108915000Y-57986081D01*
X108829553Y-57952307D01*
X108757004Y-57923194D01*
X108724500Y-57909828D01*
X108666660Y-57885389D01*
X108592984Y-57854237D01*
X108584800Y-57850775D01*
X108515678Y-57822333D01*
X108419895Y-57783904D01*
X108318178Y-57743802D01*
X108318100Y-57743772D01*
X108213647Y-57702363D01*
X108112560Y-57661235D01*
X108038700Y-57630136D01*
X107957489Y-57597400D01*
X107838416Y-57552856D01*
X107691985Y-57500232D01*
X107528700Y-57443252D01*
X107359066Y-57385643D01*
X107218629Y-57339256D01*
X107118173Y-57309634D01*
X107032477Y-57289930D01*
X106975527Y-57283160D01*
X106964629Y-57284510D01*
X106923755Y-57293654D01*
X106843939Y-57308593D01*
X106736432Y-57327310D01*
X106612488Y-57347787D01*
X106603600Y-57349216D01*
X106468433Y-57371391D01*
X106338679Y-57393526D01*
X106229546Y-57412975D01*
X106159100Y-57426499D01*
X106061838Y-57445343D01*
X105945083Y-57466149D01*
X105867000Y-57479109D01*
X105773172Y-57494293D01*
X105693787Y-57507571D01*
X105651100Y-57515137D01*
X105595000Y-57525748D01*
X105515338Y-57540656D01*
X105486000Y-57546117D01*
X105371700Y-57567354D01*
X104634054Y-57567354D01*
X104749280Y-57545491D01*
X104944831Y-57508717D01*
X105151600Y-57470121D01*
X105356668Y-57432126D01*
X105447900Y-57415330D01*
X105782986Y-57353592D01*
X106072972Y-57299751D01*
X106322782Y-57252879D01*
X106537342Y-57212051D01*
X106721581Y-57176342D01*
X106767123Y-57167387D01*
X106847581Y-57150188D01*
X106884373Y-57137238D01*
X106883987Y-57124685D01*
X106860451Y-57111977D01*
X106809091Y-57099691D01*
X106782649Y-57119178D01*
X106743522Y-57139916D01*
X106711188Y-57135800D01*
X106673705Y-57132773D01*
X106603919Y-57138081D01*
X106499210Y-57152169D01*
X106356964Y-57175481D01*
X106174561Y-57208462D01*
X105949386Y-57251554D01*
X105678821Y-57305204D01*
X105498700Y-57341610D01*
X105360850Y-57368822D01*
X105222703Y-57394714D01*
X105102016Y-57416030D01*
X105028800Y-57427772D01*
X104938535Y-57442065D01*
X104866318Y-57455415D01*
X104830567Y-57464122D01*
X104789736Y-57474259D01*
X104715192Y-57488952D01*
X104627367Y-57504293D01*
X104496975Y-57525857D01*
X104399419Y-57542324D01*
X104317401Y-57556783D01*
X104233621Y-57572326D01*
X104130781Y-57592042D01*
X104066536Y-57604484D01*
X103960309Y-57622676D01*
X103872815Y-57633169D01*
X103815899Y-57634785D01*
X103801259Y-57630910D01*
X103806995Y-57602690D01*
X103844366Y-57545654D01*
X103908279Y-57466078D01*
X103993640Y-57370240D01*
X104095355Y-57264418D01*
X104112709Y-57247077D01*
X104175756Y-57180911D01*
X104253841Y-57094106D01*
X104329785Y-57005777D01*
X104490720Y-56815983D01*
X104622012Y-56667105D01*
X104723913Y-56558984D01*
X104796673Y-56491461D01*
X104840544Y-56464378D01*
X104855776Y-56477577D01*
X104842620Y-56530899D01*
X104801327Y-56624186D01*
X104736699Y-56748879D01*
X104676359Y-56864209D01*
X104640422Y-56945440D01*
X104626787Y-57001811D01*
X104633354Y-57042563D01*
X104658024Y-57076935D01*
X104661359Y-57080330D01*
X104705459Y-57105598D01*
X104764572Y-57094853D01*
X104766615Y-57094083D01*
X104854450Y-57046877D01*
X104970989Y-56961931D01*
X105113557Y-56841452D01*
X105279479Y-56687651D01*
X105390264Y-56579164D01*
X105479917Y-56495769D01*
X105543034Y-56453249D01*
X105583273Y-56451628D01*
X105604291Y-56490925D01*
X105609744Y-56571165D01*
X105609594Y-56580485D01*
X105611065Y-56705998D01*
X105619454Y-56834394D01*
X105633225Y-56953785D01*
X105650836Y-57052283D01*
X105670750Y-57118002D01*
X105681419Y-57135190D01*
X105739618Y-57169921D01*
X105794224Y-57154077D01*
X105845276Y-57087627D01*
X105892807Y-56970537D01*
X105904908Y-56930700D01*
X105929440Y-56837098D01*
X105947425Y-56753091D01*
X105953727Y-56709160D01*
X105966087Y-56644596D01*
X105988011Y-56613505D01*
X106008184Y-56618917D01*
X106018227Y-56650261D01*
X106028803Y-56715542D01*
X106034654Y-56769200D01*
X106041233Y-56836768D01*
X106051540Y-56887832D01*
X106072304Y-56926224D01*
X106110257Y-56955772D01*
X106172127Y-56980308D01*
X106264647Y-57003661D01*
X106394545Y-57029662D01*
X106540100Y-57056839D01*
X106641885Y-57074760D01*
X106705623Y-57082011D01*
X106742967Y-57078427D01*
X106765572Y-57063842D01*
X106774133Y-57053521D01*
X106803571Y-57008337D01*
X106812722Y-56989132D01*
X106837260Y-56989626D01*
X106897835Y-57007323D01*
X106984351Y-57038157D01*
X107086712Y-57078062D01*
X107194821Y-57122972D01*
X107298582Y-57168821D01*
X107387898Y-57211544D01*
X107451660Y-57246445D01*
X107494179Y-57267512D01*
X107577885Y-57304449D01*
X107696623Y-57354704D01*
X107844237Y-57415725D01*
X108014571Y-57484960D01*
X108201470Y-57559860D01*
X108344500Y-57616517D01*
X108734269Y-57770159D01*
X109080311Y-57906585D01*
X109386166Y-58027194D01*
X109655372Y-58133386D01*
X109891468Y-58226563D01*
X110097993Y-58308123D01*
X110278486Y-58379468D01*
X110436486Y-58441997D01*
X110575533Y-58497111D01*
X110699164Y-58546210D01*
X110810919Y-58590695D01*
X110914338Y-58631964D01*
X111012958Y-58671420D01*
X111110319Y-58710461D01*
X111175229Y-58736530D01*
X111327360Y-58796800D01*
X111463707Y-58849181D01*
X111577247Y-58891110D01*
X111660957Y-58920021D01*
X111707816Y-58933352D01*
X111714979Y-58933604D01*
X111734344Y-58901413D01*
X111734400Y-58899716D01*
X111722031Y-58874197D01*
X111686477Y-58808852D01*
X111630067Y-58707781D01*
X111555132Y-58575087D01*
X111464000Y-58414871D01*
X111359001Y-58231234D01*
X111242464Y-58028278D01*
X111116719Y-57810103D01*
X111048600Y-57692231D01*
X110918743Y-57466829D01*
X110796921Y-57253617D01*
X110685480Y-57056818D01*
X110586760Y-56880655D01*
X110503107Y-56729351D01*
X110436864Y-56607127D01*
X110390373Y-56518207D01*
X110365978Y-56466813D01*
X110362800Y-56456488D01*
X110374077Y-56411434D01*
X110379112Y-56399786D01*
X110464400Y-56399786D01*
X110476876Y-56426368D01*
X110510602Y-56486422D01*
X110560017Y-56570270D01*
X110604100Y-56643059D01*
X110661571Y-56737944D01*
X110707568Y-56815775D01*
X110736553Y-56867068D01*
X110743800Y-56882447D01*
X110756043Y-56908819D01*
X110786880Y-56962134D01*
X110802999Y-56988354D01*
X110846101Y-57060221D01*
X110900950Y-57155544D01*
X110952641Y-57248200D01*
X111022268Y-57375076D01*
X111072102Y-57463602D01*
X111106939Y-57519876D01*
X111131577Y-57549999D01*
X111150812Y-57560072D01*
X111169443Y-57556194D01*
X111187555Y-57546925D01*
X111234288Y-57520085D01*
X111308250Y-57475391D01*
X111393824Y-57422285D01*
X111397850Y-57419754D01*
X111474620Y-57369331D01*
X111530972Y-57328301D01*
X111556149Y-57304572D01*
X111556574Y-57303073D01*
X111536506Y-57282018D01*
X111484821Y-57245462D01*
X111435924Y-57215190D01*
X111262239Y-57105983D01*
X111102545Y-56989513D01*
X110943288Y-56854972D01*
X110770913Y-56691552D01*
X110737450Y-56658237D01*
X110643327Y-56564887D01*
X110563234Y-56487219D01*
X110503275Y-56431011D01*
X110469553Y-56402040D01*
X110464400Y-56399786D01*
X110379112Y-56399786D01*
X110402318Y-56346114D01*
X110439140Y-56276060D01*
X110476158Y-56216806D01*
X110504988Y-56183883D01*
X110511263Y-56181445D01*
X110533080Y-56201115D01*
X110570905Y-56251458D01*
X110598256Y-56292858D01*
X110669985Y-56387493D01*
X110775464Y-56501902D01*
X110905798Y-56628255D01*
X111052094Y-56758720D01*
X111205457Y-56885466D01*
X111356992Y-57000661D01*
X111497806Y-57096473D01*
X111540707Y-57122681D01*
X111609306Y-57153022D01*
X111644498Y-57148063D01*
X111643394Y-57113118D01*
X111603102Y-57053500D01*
X111587608Y-57036455D01*
X111537870Y-56976892D01*
X111471136Y-56887539D01*
X111396806Y-56782007D01*
X111324281Y-56673910D01*
X111262963Y-56576858D01*
X111228009Y-56515774D01*
X111209274Y-56462071D01*
X111219598Y-56437991D01*
X111255162Y-56451595D01*
X111257536Y-56453409D01*
X111290714Y-56479664D01*
X111352938Y-56529201D01*
X111433590Y-56593562D01*
X111480400Y-56630969D01*
X111569695Y-56700822D01*
X111649824Y-56760754D01*
X111708717Y-56801858D01*
X111726380Y-56812540D01*
X111796110Y-56840447D01*
X111830789Y-56833725D01*
X111830248Y-56794678D01*
X111794320Y-56725606D01*
X111738404Y-56648267D01*
X111533468Y-56349914D01*
X111371239Y-56031619D01*
X111254491Y-55699745D01*
X111190189Y-55391809D01*
X111184921Y-55357468D01*
X111182149Y-55328383D01*
X111185105Y-55299951D01*
X111197019Y-55267567D01*
X111221123Y-55226626D01*
X111260648Y-55172524D01*
X111318825Y-55100657D01*
X111398884Y-55006421D01*
X111504059Y-54885211D01*
X111637578Y-54732422D01*
X111715350Y-54643466D01*
X111819656Y-54523101D01*
X111911538Y-54415163D01*
X111986049Y-54325621D01*
X112038243Y-54260443D01*
X112063175Y-54225597D01*
X112064600Y-54221997D01*
X112061526Y-54210219D01*
X112047660Y-54203810D01*
X112016029Y-54203460D01*
X111959664Y-54209859D01*
X111871594Y-54223696D01*
X111744849Y-54245661D01*
X111644189Y-54263592D01*
X111515645Y-54286375D01*
X111405205Y-54305541D01*
X111322387Y-54319470D01*
X111276715Y-54326538D01*
X111271275Y-54327092D01*
X111265122Y-54303215D01*
X111260633Y-54237403D01*
X111258107Y-54138501D01*
X111257846Y-54015357D01*
X111258575Y-53952550D01*
X111260427Y-53805419D01*
X111259734Y-53698269D01*
X111255223Y-53620295D01*
X111245621Y-53560693D01*
X111229654Y-53508658D01*
X111206050Y-53453388D01*
X111197606Y-53435237D01*
X111143546Y-53330435D01*
X111077826Y-53217140D01*
X111039147Y-53156609D01*
X110947583Y-53020644D01*
X111032654Y-52930972D01*
X111199343Y-52737777D01*
X111332967Y-52546083D01*
X111430022Y-52362023D01*
X111487005Y-52191730D01*
X111499341Y-52114037D01*
X111512570Y-51968141D01*
X111248020Y-51706220D01*
X111089897Y-51540897D01*
X110967000Y-51393444D01*
X110885687Y-51272850D01*
X110824376Y-51174377D01*
X110776302Y-51118828D01*
X110737342Y-51101400D01*
X110702908Y-51106505D01*
X110710956Y-51130344D01*
X110721639Y-51143904D01*
X110741500Y-51172936D01*
X110724529Y-51175789D01*
X110693000Y-51166930D01*
X110618264Y-51148613D01*
X110553300Y-51137272D01*
X110524397Y-51137239D01*
X110536488Y-51151441D01*
X110592028Y-51181862D01*
X110633845Y-51202328D01*
X110732555Y-51253551D01*
X110793459Y-51293595D01*
X110813507Y-51319916D01*
X110789647Y-51329969D01*
X110786915Y-51329999D01*
X110749169Y-51319706D01*
X110677994Y-51292105D01*
X110585639Y-51252119D01*
X110534023Y-51228399D01*
X110432172Y-51183668D01*
X110341543Y-51149223D01*
X110275942Y-51130086D01*
X110257457Y-51127812D01*
X110225022Y-51131155D01*
X110231434Y-51143235D01*
X110280351Y-51169698D01*
X110286600Y-51172798D01*
X110356952Y-51206113D01*
X110452123Y-51249319D01*
X110540600Y-51288302D01*
X110669633Y-51344486D01*
X110760043Y-51384904D01*
X110819944Y-51413690D01*
X110857453Y-51434979D01*
X110880687Y-51452905D01*
X110895810Y-51469231D01*
X110911649Y-51492383D01*
X110908115Y-51502870D01*
X110880757Y-51499144D01*
X110825127Y-51479659D01*
X110736776Y-51442868D01*
X110611255Y-51387225D01*
X110453321Y-51315397D01*
X110316253Y-51254190D01*
X110192877Y-51201983D01*
X110091428Y-51162033D01*
X110020142Y-51137595D01*
X109988388Y-51131589D01*
X109996435Y-51143812D01*
X110044972Y-51172871D01*
X110127796Y-51215588D01*
X110238703Y-51268789D01*
X110371491Y-51329298D01*
X110394581Y-51339546D01*
X110533946Y-51402747D01*
X110655806Y-51461012D01*
X110753041Y-51510686D01*
X110818529Y-51548118D01*
X110845149Y-51569653D01*
X110845400Y-51570831D01*
X110836971Y-51588488D01*
X110808349Y-51603057D01*
X110754535Y-51615121D01*
X110670526Y-51625265D01*
X110551320Y-51634074D01*
X110391918Y-51642132D01*
X110187317Y-51650024D01*
X110159600Y-51650984D01*
X110000441Y-51657709D01*
X109853801Y-51666260D01*
X109729159Y-51675901D01*
X109635995Y-51685893D01*
X109583790Y-51695501D01*
X109582775Y-51695837D01*
X109568921Y-51704276D01*
X109584603Y-51710959D01*
X109633434Y-51716047D01*
X109719025Y-51719704D01*
X109844988Y-51722089D01*
X110014934Y-51723365D01*
X110205075Y-51723700D01*
X110422514Y-51724137D01*
X110596114Y-51725693D01*
X110732826Y-51728727D01*
X110839606Y-51733603D01*
X110923407Y-51740683D01*
X110991183Y-51750329D01*
X111049888Y-51762904D01*
X111072563Y-51768883D01*
X111216864Y-51821048D01*
X111328180Y-51886876D01*
X111399673Y-51961648D01*
X111420673Y-52009092D01*
X111422920Y-52102364D01*
X111394199Y-52221987D01*
X111339147Y-52358077D01*
X111262401Y-52500749D01*
X111168595Y-52640118D01*
X111068597Y-52759719D01*
X110959700Y-52875645D01*
X110362800Y-52904569D01*
X110186477Y-52913817D01*
X110020692Y-52923823D01*
X109874357Y-52933947D01*
X109756380Y-52943549D01*
X109675671Y-52951989D01*
X109651600Y-52955665D01*
X109576687Y-52969284D01*
X109468882Y-52987742D01*
X109345495Y-53008110D01*
X109273747Y-53019622D01*
X109136728Y-53044664D01*
X108993437Y-53076257D01*
X108867031Y-53109110D01*
X108822112Y-53122803D01*
X108724718Y-53152424D01*
X108640423Y-53174203D01*
X108585450Y-53184015D01*
X108580750Y-53184200D01*
X108522844Y-53172244D01*
X108426296Y-53138168D01*
X108296795Y-53084657D01*
X108140030Y-53014396D01*
X107961692Y-52930070D01*
X107767470Y-52834366D01*
X107563053Y-52729968D01*
X107354130Y-52619562D01*
X107162400Y-52514749D01*
X107087711Y-52475901D01*
X107053761Y-52465293D01*
X107059319Y-52482541D01*
X107059465Y-52482722D01*
X107129953Y-52550085D01*
X107242876Y-52632114D01*
X107393026Y-52725850D01*
X107575192Y-52828336D01*
X107784164Y-52936615D01*
X108014734Y-53047729D01*
X108211662Y-53136860D01*
X108360306Y-53210378D01*
X108497667Y-53297828D01*
X108643187Y-53411792D01*
X108664715Y-53430063D01*
X108753532Y-53504714D01*
X108827256Y-53564203D01*
X108878093Y-53602411D01*
X108898187Y-53613325D01*
X108904913Y-53585186D01*
X108916091Y-53519465D01*
X108929590Y-53428952D01*
X108933125Y-53403612D01*
X108950329Y-53304571D01*
X108971018Y-53223123D01*
X108991242Y-53174215D01*
X108994944Y-53169592D01*
X109036348Y-53149645D01*
X109116061Y-53127442D01*
X109221934Y-53104880D01*
X109341817Y-53083860D01*
X109463561Y-53066278D01*
X109575015Y-53054035D01*
X109664030Y-53049027D01*
X109718456Y-53053155D01*
X109724724Y-53055554D01*
X109769544Y-53089332D01*
X109832621Y-53148969D01*
X109905003Y-53224431D01*
X109977742Y-53305683D01*
X110041886Y-53382693D01*
X110088485Y-53445426D01*
X110108590Y-53483850D01*
X110108800Y-53486120D01*
X110093174Y-53516758D01*
X110051204Y-53576426D01*
X109990250Y-53656143D01*
X109917670Y-53746930D01*
X109840826Y-53839806D01*
X109767077Y-53925792D01*
X109703782Y-53995909D01*
X109658302Y-54041176D01*
X109645969Y-54050820D01*
X109611054Y-54056491D01*
X109538302Y-54058470D01*
X109440555Y-54056585D01*
X109388787Y-54054271D01*
X109333491Y-54050898D01*
X109279443Y-54046151D01*
X109222223Y-54039002D01*
X109157407Y-54028425D01*
X109080573Y-54013393D01*
X108987300Y-53992878D01*
X108873165Y-53965853D01*
X108733746Y-53931291D01*
X108564621Y-53888164D01*
X108361366Y-53835446D01*
X108119561Y-53772109D01*
X107834783Y-53697126D01*
X107713282Y-53665076D01*
X107108465Y-53505484D01*
X106878576Y-53249983D01*
X106789314Y-53152307D01*
X106708016Y-53066141D01*
X106642727Y-52999820D01*
X106601493Y-52961680D01*
X106597073Y-52958329D01*
X106579394Y-52953600D01*
X106589070Y-52981019D01*
X106621080Y-53033587D01*
X106670405Y-53104305D01*
X106732022Y-53186175D01*
X106800910Y-53272198D01*
X106872050Y-53355376D01*
X106917577Y-53405083D01*
X107073583Y-53569749D01*
X108000641Y-53818495D01*
X108213807Y-53875702D01*
X108415334Y-53929804D01*
X108599035Y-53979140D01*
X108758728Y-54022048D01*
X108888227Y-54056867D01*
X108981349Y-54081934D01*
X109031907Y-54095588D01*
X109033244Y-54095952D01*
X109138789Y-54124662D01*
X109125146Y-54473581D01*
X109123159Y-54716570D01*
X109139859Y-54931744D01*
X109178441Y-55136064D01*
X109242101Y-55346486D01*
X109333256Y-55578150D01*
X109335121Y-55613733D01*
X109297523Y-55621195D01*
X109219275Y-55600568D01*
X109171580Y-55582568D01*
X109102029Y-55546480D01*
X109065158Y-55498842D01*
X109049602Y-55449218D01*
X109027081Y-55384305D01*
X108991591Y-55354855D01*
X108958635Y-55347862D01*
X108904568Y-55351573D01*
X108889600Y-55378113D01*
X108876641Y-55420512D01*
X108833934Y-55433471D01*
X108755727Y-55418022D01*
X108724089Y-55407869D01*
X108662748Y-55385540D01*
X108562806Y-55347310D01*
X108429048Y-55295113D01*
X108266259Y-55230889D01*
X108079227Y-55156572D01*
X107872735Y-55074101D01*
X107651570Y-54985412D01*
X107420517Y-54892443D01*
X107184362Y-54797130D01*
X106947891Y-54701409D01*
X106715889Y-54607219D01*
X106493141Y-54516496D01*
X106284434Y-54431177D01*
X106094553Y-54353198D01*
X105928284Y-54284498D01*
X105790412Y-54227012D01*
X105685723Y-54182678D01*
X105619002Y-54153432D01*
X105595239Y-54141490D01*
X105574140Y-54098190D01*
X105550143Y-54011293D01*
X105524229Y-53887852D01*
X105497382Y-53734924D01*
X105470585Y-53559562D01*
X105444821Y-53368820D01*
X105421072Y-53169753D01*
X105400321Y-52969416D01*
X105383552Y-52774863D01*
X105371746Y-52593147D01*
X105368078Y-52511100D01*
X105366421Y-52140945D01*
X105391376Y-51805769D01*
X105444731Y-51496226D01*
X105525002Y-51214454D01*
X107144514Y-51214454D01*
X107156543Y-51358343D01*
X107160044Y-51372051D01*
X107220742Y-51510917D01*
X107316305Y-51616328D01*
X107442286Y-51686999D01*
X107594236Y-51721646D01*
X107767704Y-51718984D01*
X107958243Y-51677730D01*
X108074080Y-51635921D01*
X108178519Y-51594675D01*
X108278731Y-51558150D01*
X108354432Y-51533707D01*
X108359425Y-51532331D01*
X108421849Y-51511306D01*
X108450341Y-51483735D01*
X108447635Y-51438006D01*
X108416462Y-51362507D01*
X108405005Y-51338580D01*
X108338128Y-51237110D01*
X108237594Y-51129216D01*
X108116899Y-51027378D01*
X107989536Y-50944080D01*
X107963645Y-50930333D01*
X107813662Y-50874486D01*
X107655081Y-50850139D01*
X107503709Y-50858262D01*
X107385194Y-50894862D01*
X107260730Y-50978709D01*
X107179873Y-51086574D01*
X107144514Y-51214454D01*
X105525002Y-51214454D01*
X105528273Y-51202973D01*
X105643791Y-50916666D01*
X105692469Y-50815650D01*
X105816663Y-50568000D01*
X105454481Y-50563471D01*
X105320875Y-50561841D01*
X105203134Y-50560481D01*
X105111751Y-50559505D01*
X105057219Y-50559030D01*
X105049112Y-50559002D01*
X105011083Y-50554313D01*
X105016762Y-50541818D01*
X105060141Y-50524129D01*
X105135209Y-50503861D01*
X105213040Y-50487729D01*
X105307814Y-50475186D01*
X105440981Y-50465808D01*
X105615641Y-50459484D01*
X105834894Y-50456100D01*
X106095600Y-50455525D01*
X106403479Y-50458861D01*
X106674247Y-50468087D01*
X106921395Y-50484623D01*
X107158416Y-50509890D01*
X107398802Y-50545309D01*
X107656043Y-50592301D01*
X107924400Y-50648105D01*
X108351040Y-50733791D01*
X108751241Y-50798877D01*
X109143885Y-50845707D01*
X109547853Y-50876629D01*
X109880200Y-50891128D01*
X110138829Y-50894752D01*
X110413822Y-50890584D01*
X110695876Y-50879340D01*
X110975691Y-50861739D01*
X111243964Y-50838495D01*
X111491395Y-50810327D01*
X111708683Y-50777951D01*
X111886525Y-50742084D01*
X111918495Y-50734042D01*
X112113415Y-50675446D01*
X112286352Y-50609005D01*
X112431814Y-50537838D01*
X112544306Y-50465067D01*
X112618334Y-50393811D01*
X112648405Y-50327190D01*
X112648800Y-50319299D01*
X112625719Y-50245258D01*
X112563675Y-50171243D01*
X112473465Y-50107506D01*
X112386543Y-50070260D01*
X112272043Y-50044945D01*
X112119946Y-50026763D01*
X111942988Y-50015990D01*
X111753908Y-50012908D01*
X111565444Y-50017795D01*
X111390334Y-50030931D01*
X111277768Y-50045969D01*
X111151753Y-50068260D01*
X111028609Y-50092121D01*
X110927221Y-50113810D01*
X110890217Y-50122766D01*
X110810780Y-50142157D01*
X110755545Y-50147747D01*
X110720510Y-50132933D01*
X110701670Y-50091114D01*
X110695024Y-50015688D01*
X110696567Y-49900055D01*
X110699229Y-49823773D01*
X110842129Y-49823773D01*
X111116814Y-49772987D01*
X111293565Y-49747548D01*
X111495052Y-49730444D01*
X111707859Y-49721796D01*
X111918568Y-49721726D01*
X112113764Y-49730356D01*
X112280029Y-49747807D01*
X112356700Y-49761745D01*
X112554983Y-49822372D01*
X112715312Y-49905768D01*
X112835288Y-50009192D01*
X112912512Y-50129900D01*
X112944584Y-50265152D01*
X112929105Y-50412206D01*
X112928350Y-50415041D01*
X112877313Y-50533874D01*
X112789048Y-50642371D01*
X112659797Y-50743719D01*
X112485801Y-50841104D01*
X112356700Y-50899664D01*
X112225126Y-50946019D01*
X112051762Y-50992515D01*
X111845577Y-51037290D01*
X111615541Y-51078479D01*
X111370622Y-51114219D01*
X111256601Y-51128183D01*
X111136978Y-51143234D01*
X111060558Y-51156703D01*
X111019875Y-51170636D01*
X111007462Y-51187077D01*
X111009151Y-51195943D01*
X111052999Y-51277256D01*
X111126499Y-51379057D01*
X111219935Y-51489728D01*
X111323591Y-51597649D01*
X111413054Y-51679025D01*
X111511363Y-51765867D01*
X111575287Y-51837145D01*
X111612031Y-51906467D01*
X111628800Y-51987438D01*
X111632799Y-52093666D01*
X111632800Y-52094019D01*
X111614506Y-52223418D01*
X111563059Y-52376018D01*
X111483610Y-52541650D01*
X111381308Y-52710149D01*
X111261304Y-52871344D01*
X111207413Y-52933813D01*
X111119448Y-53031180D01*
X111209077Y-53166210D01*
X111300857Y-53325366D01*
X111360731Y-53484253D01*
X111392559Y-53657730D01*
X111400196Y-53860657D01*
X111399367Y-53899153D01*
X111396794Y-54010600D01*
X111395876Y-54100446D01*
X111396641Y-54158383D01*
X111398575Y-54174851D01*
X111424684Y-54170084D01*
X111490967Y-54157093D01*
X111587822Y-54137783D01*
X111705641Y-54114056D01*
X111723429Y-54110457D01*
X111854996Y-54084252D01*
X111946888Y-54067965D01*
X112009148Y-54061086D01*
X112051819Y-54063108D01*
X112084944Y-54073520D01*
X112116404Y-54090533D01*
X112173197Y-54134513D01*
X112195967Y-54188974D01*
X112195401Y-54260298D01*
X112189936Y-54282854D01*
X112174921Y-54312772D01*
X112146981Y-54354188D01*
X112102741Y-54411237D01*
X112038829Y-54488055D01*
X111951868Y-54588778D01*
X111838484Y-54717542D01*
X111695303Y-54878482D01*
X111645450Y-54934310D01*
X111532924Y-55060935D01*
X111450299Y-55157086D01*
X111393343Y-55229911D01*
X111357823Y-55286559D01*
X111339508Y-55334179D01*
X111334166Y-55379921D01*
X111337563Y-55430935D01*
X111339919Y-55450443D01*
X111386693Y-55690574D01*
X111467809Y-55929194D01*
X111586277Y-56172749D01*
X111745104Y-56427682D01*
X111887229Y-56623326D01*
X111941129Y-56719466D01*
X111960380Y-56813065D01*
X111947828Y-56894869D01*
X111906323Y-56955624D01*
X111838710Y-56986074D01*
X111776204Y-56984181D01*
X111730798Y-56978903D01*
X111722883Y-56985796D01*
X111726036Y-56988139D01*
X111753768Y-57025378D01*
X111773411Y-57077687D01*
X111779793Y-57105983D01*
X111786698Y-57124294D01*
X111799978Y-57129236D01*
X111825486Y-57117426D01*
X111869075Y-57085483D01*
X111936598Y-57030023D01*
X112033908Y-56947664D01*
X112109794Y-56883280D01*
X112389698Y-56621130D01*
X112662436Y-56317077D01*
X112921230Y-55980018D01*
X113159302Y-55618849D01*
X113369874Y-55242465D01*
X113389575Y-55203500D01*
X113618604Y-54694828D01*
X113796971Y-54185164D01*
X113924634Y-53674649D01*
X114001557Y-53163424D01*
X114019053Y-52942900D01*
X114024978Y-52406070D01*
X113980498Y-51873943D01*
X113885883Y-51347605D01*
X113741398Y-50828143D01*
X113547311Y-50316646D01*
X113303890Y-49814202D01*
X113207210Y-49640900D01*
X112991855Y-49302534D01*
X112741220Y-48968641D01*
X112464799Y-48649942D01*
X112172086Y-48357157D01*
X111872573Y-48101010D01*
X111784796Y-48034373D01*
X111643180Y-47930350D01*
X111534301Y-47851317D01*
X111450192Y-47791866D01*
X111382887Y-47746592D01*
X111324421Y-47710087D01*
X111266826Y-47676944D01*
X111222444Y-47652677D01*
X111144769Y-47611552D01*
X111100502Y-47593034D01*
X111078386Y-47595527D01*
X111067168Y-47617433D01*
X111063530Y-47630122D01*
X111048393Y-47702041D01*
X111030216Y-47816454D01*
X111009917Y-47965209D01*
X110988418Y-48140155D01*
X110966640Y-48333140D01*
X110945502Y-48536012D01*
X110925925Y-48740620D01*
X110908829Y-48938812D01*
X110895285Y-49120200D01*
X110884905Y-49271162D01*
X110874484Y-49417877D01*
X110865022Y-49546583D01*
X110857519Y-49643516D01*
X110855417Y-49668836D01*
X110842129Y-49823773D01*
X110699229Y-49823773D01*
X110699756Y-49808689D01*
X110717765Y-49464782D01*
X110747437Y-49082832D01*
X110787362Y-48673884D01*
X110836128Y-48248984D01*
X110892322Y-47819177D01*
X110954532Y-47395509D01*
X111021348Y-46989024D01*
X111035776Y-46911069D01*
X111181664Y-46911069D01*
X111188931Y-46940665D01*
X111216137Y-46970486D01*
X111270876Y-47008306D01*
X111360737Y-47061899D01*
X111382919Y-47074803D01*
X111854467Y-47372361D01*
X112284264Y-47694090D01*
X112677605Y-48044998D01*
X113039787Y-48430093D01*
X113376104Y-48854384D01*
X113587000Y-49159114D01*
X113862357Y-49618030D01*
X114092777Y-50089742D01*
X114280032Y-50579178D01*
X114425893Y-51091265D01*
X114532131Y-51630932D01*
X114568060Y-51888800D01*
X114586437Y-52094570D01*
X114596808Y-52335264D01*
X114599404Y-52596192D01*
X114594460Y-52862666D01*
X114582207Y-53119997D01*
X114562879Y-53353497D01*
X114542302Y-53514400D01*
X114428588Y-54084134D01*
X114269137Y-54632384D01*
X114064891Y-55157705D01*
X113816793Y-55658654D01*
X113525786Y-56133785D01*
X113192813Y-56581655D01*
X112818817Y-57000818D01*
X112404740Y-57389831D01*
X111951525Y-57747249D01*
X111641250Y-57958822D01*
X111433801Y-58092334D01*
X111478352Y-58171917D01*
X111518343Y-58244151D01*
X111552827Y-58307678D01*
X111553345Y-58308650D01*
X111581869Y-58351760D01*
X111599889Y-58365800D01*
X111628808Y-58354283D01*
X111688331Y-58324239D01*
X111757746Y-58286500D01*
X111882994Y-58209255D01*
X112035684Y-58103696D01*
X112206841Y-57976929D01*
X112387494Y-57836062D01*
X112568670Y-57688202D01*
X112741395Y-57540457D01*
X112896699Y-57399934D01*
X112987537Y-57312367D01*
X113227746Y-57061798D01*
X113441766Y-56812705D01*
X113642983Y-56548512D01*
X113844783Y-56252643D01*
X113850718Y-56243517D01*
X113933973Y-56115334D01*
X113995982Y-56019033D01*
X114042995Y-55943779D01*
X114081261Y-55878739D01*
X114117029Y-55813078D01*
X114156548Y-55735961D01*
X114206068Y-55636555D01*
X114238172Y-55571800D01*
X114356399Y-55320700D01*
X114468291Y-55058747D01*
X114569533Y-54797485D01*
X114655812Y-54548456D01*
X114722813Y-54323203D01*
X114755585Y-54187500D01*
X114776498Y-54094002D01*
X114796776Y-54011921D01*
X114808184Y-53971600D01*
X114851606Y-53799998D01*
X114886921Y-53587050D01*
X114913964Y-53341585D01*
X114932569Y-53072434D01*
X114942569Y-52788426D01*
X114943800Y-52498390D01*
X114936094Y-52211155D01*
X114919286Y-51935552D01*
X114893210Y-51680410D01*
X114857700Y-51454559D01*
X114855694Y-51444300D01*
X114761891Y-51026591D01*
X114650290Y-50629375D01*
X114524243Y-50263806D01*
X114436646Y-50049562D01*
X114376930Y-49913396D01*
X114334246Y-49815962D01*
X114305208Y-49749475D01*
X114286427Y-49706151D01*
X114274518Y-49678207D01*
X114266093Y-49657857D01*
X114264360Y-49653600D01*
X114244272Y-49613135D01*
X114206635Y-49544020D01*
X114160679Y-49463100D01*
X114112101Y-49377463D01*
X114071378Y-49302647D01*
X114048449Y-49257188D01*
X113995728Y-49157762D01*
X113914888Y-49028253D01*
X113811724Y-48876398D01*
X113692033Y-48709932D01*
X113561612Y-48536594D01*
X113426256Y-48364120D01*
X113291763Y-48200246D01*
X113163928Y-48052710D01*
X113070245Y-47951533D01*
X112851037Y-47738955D01*
X112598036Y-47519134D01*
X112324095Y-47301852D01*
X112042069Y-47096897D01*
X111764811Y-46914052D01*
X111518500Y-46770260D01*
X111426290Y-46719734D01*
X111345637Y-46674219D01*
X111291957Y-46642440D01*
X111286911Y-46639218D01*
X111251466Y-46620379D01*
X111232850Y-46631613D01*
X111220702Y-46682040D01*
X111217736Y-46700131D01*
X111202749Y-46788171D01*
X111187464Y-46870318D01*
X111186745Y-46873925D01*
X111181664Y-46911069D01*
X111035776Y-46911069D01*
X111091358Y-46610769D01*
X111136461Y-46391964D01*
X111159483Y-46277200D01*
X111175930Y-46179078D01*
X111184061Y-46109179D01*
X111183217Y-46080814D01*
X111153497Y-46068248D01*
X111079167Y-46058574D01*
X110966333Y-46051779D01*
X110821101Y-46047849D01*
X110649577Y-46046769D01*
X110457867Y-46048527D01*
X110252079Y-46053109D01*
X110038317Y-46060500D01*
X109822689Y-46070687D01*
X109611300Y-46083656D01*
X109600800Y-46084387D01*
X109258994Y-46108431D01*
X108962256Y-46129503D01*
X108704971Y-46148063D01*
X108481522Y-46164569D01*
X108286293Y-46179479D01*
X108113668Y-46193253D01*
X107958033Y-46206348D01*
X107813769Y-46219225D01*
X107675263Y-46232341D01*
X107536897Y-46246155D01*
X107393056Y-46261127D01*
X107251300Y-46276290D01*
X106866933Y-46318282D01*
X106512943Y-46357969D01*
X106191636Y-46395057D01*
X105905319Y-46429255D01*
X105656300Y-46460269D01*
X105446885Y-46487807D01*
X105279381Y-46511576D01*
X105156095Y-46531284D01*
X105079335Y-46546636D01*
X105053661Y-46555132D01*
X105043674Y-46579787D01*
X105047118Y-46637069D01*
X105064705Y-46732483D01*
X105091807Y-46849734D01*
X105119757Y-46964456D01*
X105156438Y-47114882D01*
X105198520Y-47287371D01*
X105242676Y-47468278D01*
X105283218Y-47634300D01*
X105370397Y-47992212D01*
X105448347Y-48314290D01*
X105516516Y-48598209D01*
X105574349Y-48841640D01*
X105621293Y-49042260D01*
X105656795Y-49197740D01*
X105676000Y-49285300D01*
X105704547Y-49416802D01*
X105737629Y-49565322D01*
X105767720Y-49697130D01*
X105797032Y-49829254D01*
X105812584Y-49919179D01*
X105814181Y-49973661D01*
X105801632Y-49999458D01*
X105774742Y-50003324D01*
X105759050Y-50000014D01*
X105506517Y-49939539D01*
X105273980Y-49898789D01*
X105036411Y-49873959D01*
X104868284Y-49864589D01*
X104603564Y-49860646D01*
X104382217Y-49873058D01*
X104199115Y-49903069D01*
X104049130Y-49951923D01*
X103927134Y-50020864D01*
X103828000Y-50111135D01*
X103821605Y-50118495D01*
X103750864Y-50231141D01*
X103730398Y-50345576D01*
X103760308Y-50462461D01*
X103840697Y-50582459D01*
X103902756Y-50646565D01*
X104009458Y-50739375D01*
X104110688Y-50808081D01*
X104226537Y-50864752D01*
X104336582Y-50907148D01*
X104473639Y-50953562D01*
X104607414Y-50992072D01*
X104750156Y-51025417D01*
X104914114Y-51056335D01*
X105111537Y-51087564D01*
X105202950Y-51100803D01*
X105287565Y-51114013D01*
X105349486Y-51125918D01*
X105374042Y-51133375D01*
X105372324Y-51160373D01*
X105360474Y-51226650D01*
X105340469Y-51322148D01*
X105315101Y-51433359D01*
X105293686Y-51526585D01*
X105277253Y-51607904D01*
X105265147Y-51686180D01*
X105256709Y-51770275D01*
X105251283Y-51869054D01*
X105248212Y-51991378D01*
X105246838Y-52146112D01*
X105246505Y-52342118D01*
X105246504Y-52358700D01*
X105250185Y-52678721D01*
X105262167Y-52962907D01*
X105283837Y-53225752D01*
X105316582Y-53481748D01*
X105361789Y-53745387D01*
X105395098Y-53911484D01*
X105412169Y-53998652D01*
X105416906Y-54047307D01*
X105408807Y-54068338D01*
X105387648Y-54072639D01*
X105355915Y-54063317D01*
X105282190Y-54036907D01*
X105171569Y-53995374D01*
X105029152Y-53940686D01*
X104860035Y-53874809D01*
X104669317Y-53799709D01*
X104462096Y-53717352D01*
X104343000Y-53669701D01*
X104088655Y-53568470D01*
X103865790Y-53481361D01*
X103676986Y-53409324D01*
X103524824Y-53353311D01*
X103411886Y-53314273D01*
X103340753Y-53293163D01*
X103314354Y-53290477D01*
X103306925Y-53296484D01*
X103301910Y-53303040D01*
X103301600Y-53314516D01*
X103179251Y-53314516D01*
X103178159Y-53305265D01*
X103179358Y-53282137D01*
X103187867Y-53211936D01*
X103208394Y-53175520D01*
X103253412Y-53155877D01*
X103276200Y-53150073D01*
X103323538Y-53143257D01*
X103376760Y-53147733D01*
X103446866Y-53166135D01*
X103544858Y-53201094D01*
X103631800Y-53235174D01*
X103752978Y-53283490D01*
X103869329Y-53329733D01*
X103965271Y-53367717D01*
X104012800Y-53386414D01*
X104139870Y-53436441D01*
X104285409Y-53494262D01*
X104441921Y-53556842D01*
X104601909Y-53621149D01*
X104757876Y-53684149D01*
X104902326Y-53742806D01*
X105027762Y-53794088D01*
X105126688Y-53834961D01*
X105191607Y-53862391D01*
X105213587Y-53872379D01*
X105245807Y-53883180D01*
X105250159Y-53857294D01*
X105246829Y-53838863D01*
X105235727Y-53778173D01*
X105219001Y-53676538D01*
X105196224Y-53531255D01*
X105166967Y-53339621D01*
X105151191Y-53235000D01*
X105139738Y-53127166D01*
X105130633Y-52974846D01*
X105124104Y-52784311D01*
X105120376Y-52561828D01*
X105119570Y-52358700D01*
X105120288Y-52148759D01*
X105122174Y-51981518D01*
X105125714Y-51848879D01*
X105131392Y-51742745D01*
X105139692Y-51655020D01*
X105151100Y-51577608D01*
X105166100Y-51502412D01*
X105172542Y-51474029D01*
X105224679Y-51249759D01*
X105171189Y-51230059D01*
X105116194Y-51216144D01*
X105032965Y-51201749D01*
X104975168Y-51194171D01*
X104857721Y-51175487D01*
X104713640Y-51144705D01*
X104559281Y-51106103D01*
X104411001Y-51063961D01*
X104285155Y-51022559D01*
X104219528Y-50996468D01*
X104101260Y-50942895D01*
X104018134Y-50903198D01*
X103958680Y-50871051D01*
X103911426Y-50840128D01*
X103864905Y-50804106D01*
X103852944Y-50794303D01*
X103781159Y-50725206D01*
X103707369Y-50639240D01*
X103678246Y-50599772D01*
X103612028Y-50462963D01*
X103593590Y-50320454D01*
X103621497Y-50179135D01*
X103694312Y-50045893D01*
X103810601Y-49927619D01*
X103819799Y-49920485D01*
X103903724Y-49862428D01*
X103989297Y-49818226D01*
X104085528Y-49785811D01*
X104201427Y-49763111D01*
X104346003Y-49748056D01*
X104528265Y-49738578D01*
X104624572Y-49735591D01*
X104793131Y-49731940D01*
X104931713Y-49731662D01*
X105054780Y-49735714D01*
X105176793Y-49745057D01*
X105312214Y-49760650D01*
X105475504Y-49783451D01*
X105579118Y-49798912D01*
X105659537Y-49811060D01*
X105633719Y-49700580D01*
X105615281Y-49621000D01*
X105590593Y-49513561D01*
X105564636Y-49399947D01*
X105561666Y-49386900D01*
X105522035Y-49213668D01*
X105483798Y-49048787D01*
X105443294Y-48876670D01*
X105396863Y-48681728D01*
X105358864Y-48523300D01*
X105323571Y-48375636D01*
X105287246Y-48222276D01*
X105254319Y-48082000D01*
X105230585Y-47979548D01*
X105207235Y-47881817D01*
X105187003Y-47804691D01*
X105173148Y-47760317D01*
X105170185Y-47754519D01*
X105146245Y-47763680D01*
X105090245Y-47797345D01*
X105011047Y-47849913D01*
X104935003Y-47903199D01*
X104512324Y-48233430D01*
X104133104Y-48588356D01*
X103795133Y-48970419D01*
X103496205Y-49382061D01*
X103290973Y-49721207D01*
X103036706Y-50224000D01*
X102832955Y-50730043D01*
X102679493Y-51240171D01*
X102576091Y-51755222D01*
X102522524Y-52276031D01*
X102514200Y-52580985D01*
X101954288Y-52580985D01*
X101954215Y-52575772D01*
X101955708Y-52350754D01*
X101962035Y-52143940D01*
X101973317Y-51968411D01*
X101980402Y-51900138D01*
X102057292Y-51397411D01*
X102163112Y-50927339D01*
X102301603Y-50478459D01*
X102476507Y-50039312D01*
X102691563Y-49598436D01*
X102791007Y-49416652D01*
X102865609Y-49293092D01*
X102964255Y-49142706D01*
X103078447Y-48977673D01*
X103199684Y-48810173D01*
X103319467Y-48652385D01*
X103361240Y-48599500D01*
X103686767Y-48227828D01*
X104051609Y-47875206D01*
X104445175Y-47551192D01*
X104796401Y-47304100D01*
X104900910Y-47236063D01*
X104969207Y-47185930D01*
X105006504Y-47142194D01*
X105018010Y-47093348D01*
X105008937Y-47027889D01*
X104984493Y-46934308D01*
X104976763Y-46905809D01*
X104950844Y-46809552D01*
X104742172Y-46939955D01*
X104643678Y-47002495D01*
X104554895Y-47060626D01*
X104489344Y-47105420D01*
X104470000Y-47119643D01*
X104416498Y-47160469D01*
X104339657Y-47218285D01*
X104264126Y-47274614D01*
X103974633Y-47499808D01*
X103715578Y-47724955D01*
X103475355Y-47961585D01*
X103242361Y-48221230D01*
X103004992Y-48515421D01*
X102971351Y-48559234D01*
X102844206Y-48731484D01*
X102720548Y-48909595D01*
X102608792Y-49080877D01*
X102517351Y-49232642D01*
X102481480Y-49298000D01*
X102433550Y-49387602D01*
X102387395Y-49471009D01*
X102362623Y-49513900D01*
X102314014Y-49604185D01*
X102255924Y-49726456D01*
X102191531Y-49872489D01*
X102124012Y-50034062D01*
X102056545Y-50202952D01*
X101992308Y-50370937D01*
X101934478Y-50529793D01*
X101886233Y-50671299D01*
X101850750Y-50787232D01*
X101831208Y-50869370D01*
X101828400Y-50896265D01*
X101818173Y-50944154D01*
X101805806Y-50959965D01*
X101786947Y-50992585D01*
X101772029Y-51052637D01*
X101771424Y-51056714D01*
X101760328Y-51122850D01*
X101742282Y-51218594D01*
X101721072Y-51323898D01*
X101719799Y-51330000D01*
X101677096Y-51565877D01*
X101646196Y-51812925D01*
X101626219Y-52081815D01*
X101616283Y-52383217D01*
X101614787Y-52600000D01*
X101455419Y-52600000D01*
X101463870Y-52215559D01*
X101518663Y-51679698D01*
X101616193Y-51140004D01*
X101649807Y-50994452D01*
X101736262Y-50661221D01*
X101827193Y-50363184D01*
X101928192Y-50084746D01*
X102044849Y-49810313D01*
X102162418Y-49564700D01*
X102379674Y-49156539D01*
X102605084Y-48787872D01*
X102846858Y-48447393D01*
X103113206Y-48123796D01*
X103412339Y-47805774D01*
X103508942Y-47710500D01*
X103845329Y-47399938D01*
X104168382Y-47134235D01*
X104476767Y-46914427D01*
X104728022Y-46763546D01*
X104815431Y-46714546D01*
X104867134Y-46678790D01*
X104892491Y-46646079D01*
X104900864Y-46606218D01*
X104901630Y-46574435D01*
X104908048Y-46514912D01*
X104931744Y-46469937D01*
X104979749Y-46435819D01*
X105059092Y-46408870D01*
X105176804Y-46385400D01*
X105295500Y-46367723D01*
X105446561Y-46342292D01*
X105584875Y-46310487D01*
X105693602Y-46276328D01*
X105714600Y-46267710D01*
X105786446Y-46239289D01*
X106298379Y-46239289D01*
X106301891Y-46248691D01*
X106344077Y-46248779D01*
X106428913Y-46238096D01*
X106504113Y-46225522D01*
X106575771Y-46214993D01*
X106686264Y-46201474D01*
X106823810Y-46186285D01*
X106976626Y-46170744D01*
X107086200Y-46160378D01*
X107235552Y-46146488D01*
X107371065Y-46133464D01*
X107483045Y-46122270D01*
X107561799Y-46113870D01*
X107594200Y-46109837D01*
X107642208Y-46104376D01*
X107729548Y-46096289D01*
X107844883Y-46086560D01*
X107976872Y-46076174D01*
X108013300Y-46073429D01*
X108181053Y-46060814D01*
X108367320Y-46046649D01*
X108548225Y-46032759D01*
X108686400Y-46022024D01*
X108817187Y-46012049D01*
X108937604Y-46003351D01*
X109034159Y-45996876D01*
X109092800Y-45993588D01*
X109139384Y-45990664D01*
X109144779Y-45985565D01*
X109105638Y-45975862D01*
X109054700Y-45965929D01*
X108993104Y-45958916D01*
X108889713Y-45952407D01*
X108753535Y-45946738D01*
X108593573Y-45942247D01*
X108418833Y-45939269D01*
X108318100Y-45938389D01*
X108027952Y-45939241D01*
X107778044Y-45945855D01*
X107558060Y-45959003D01*
X107357686Y-45979455D01*
X107166607Y-46007984D01*
X107022700Y-46035245D01*
X106866816Y-46068993D01*
X106721775Y-46103640D01*
X106591554Y-46137726D01*
X106480128Y-46169793D01*
X106391473Y-46198381D01*
X106329565Y-46222033D01*
X106298379Y-46239289D01*
X105786446Y-46239289D01*
X105855979Y-46211783D01*
X106035419Y-46150560D01*
X106240934Y-46087462D01*
X106460537Y-46025911D01*
X106682243Y-45969327D01*
X106894066Y-45921132D01*
X107010000Y-45897933D01*
X107425189Y-45831071D01*
X107829732Y-45787539D01*
X108209188Y-45768789D01*
X108301741Y-45768151D01*
X108425175Y-45771218D01*
G37*
X108425175Y-45771218D02*
X108573405Y-45779211D01*
X108737944Y-45791224D01*
X108910302Y-45806350D01*
X109081992Y-45823680D01*
X109244525Y-45842309D01*
X109389414Y-45861328D01*
X109508168Y-45879832D01*
X109592302Y-45896912D01*
X109631284Y-45910242D01*
X109661975Y-45913917D01*
X109737032Y-45917017D01*
X109850028Y-45919451D01*
X109994530Y-45921127D01*
X110164110Y-45921955D01*
X110352337Y-45921844D01*
X110428509Y-45921530D01*
X111201109Y-45917599D01*
X111266909Y-45983400D01*
X111302742Y-46023444D01*
X111320119Y-46062430D01*
X111322591Y-46117368D01*
X111313710Y-46205271D01*
X111313530Y-46206750D01*
X111302952Y-46297965D01*
X111295098Y-46373683D01*
X111292125Y-46410390D01*
X111310418Y-46447605D01*
X111370618Y-46495745D01*
X111467700Y-46552981D01*
X111622296Y-46637309D01*
X111743860Y-46705021D01*
X111844260Y-46763258D01*
X111935366Y-46819162D01*
X112029045Y-46879876D01*
X112137168Y-46952541D01*
X112178900Y-46980947D01*
X112357645Y-47106264D01*
X112518716Y-47227547D01*
X112672043Y-47353319D01*
X112827553Y-47492106D01*
X112995175Y-47652431D01*
X113184838Y-47842818D01*
X113195788Y-47854006D01*
X113585508Y-48286349D01*
X113930432Y-48741034D01*
X114231158Y-49219270D01*
X114488283Y-49722265D01*
X114702407Y-50251226D01*
X114874125Y-50807362D01*
X115004035Y-51391880D01*
X115034682Y-51571300D01*
X115093363Y-52058281D01*
X115114263Y-52552254D01*
X115097302Y-53061149D01*
X115042406Y-53592894D01*
X115012970Y-53793800D01*
X114994097Y-53893461D01*
X114963961Y-54029327D01*
X114925749Y-54188899D01*
X114882647Y-54359681D01*
X114837844Y-54529175D01*
X114794524Y-54684883D01*
X114755876Y-54814308D01*
X114741148Y-54859780D01*
X114686716Y-55009697D01*
X114618308Y-55178955D01*
X114539476Y-55360420D01*
X114453774Y-55546958D01*
X114364753Y-55731435D01*
X114275966Y-55906719D01*
X114190966Y-56065674D01*
X114113304Y-56201169D01*
X114046534Y-56306068D01*
X113994207Y-56373238D01*
X113981476Y-56385283D01*
X113949765Y-56426381D01*
X113944200Y-56447273D01*
X113926894Y-56486232D01*
X113893399Y-56524300D01*
X113855517Y-56566393D01*
X113842600Y-56593550D01*
X113826903Y-56630149D01*
X113810850Y-56650277D01*
X113779559Y-56687273D01*
X113729419Y-56750605D01*
X113677500Y-56818381D01*
X113590425Y-56929134D01*
X113492394Y-57044086D01*
X113377054Y-57170119D01*
X113238052Y-57314120D01*
X113069035Y-57482973D01*
X113017100Y-57534041D01*
X112900486Y-57647006D01*
X112796712Y-57743675D01*
X112695673Y-57832565D01*
X112587263Y-57922193D01*
X112461376Y-58021074D01*
X112307907Y-58137724D01*
X112242400Y-58186876D01*
X112130143Y-58266539D01*
X112006553Y-58347290D01*
X111887967Y-58418910D01*
X111790721Y-58471183D01*
X111778850Y-58476786D01*
X111719715Y-58506203D01*
X111686342Y-58527122D01*
X111683600Y-58530819D01*
X111695722Y-58556068D01*
X111727512Y-58612465D01*
X111772108Y-58687837D01*
X111772434Y-58688377D01*
X111837154Y-58819210D01*
X111859234Y-58925734D01*
X111838537Y-59006820D01*
X111814949Y-59034963D01*
X111743414Y-59069837D01*
X111655746Y-59073716D01*
X111588005Y-59051503D01*
X111545881Y-59031855D01*
X111468959Y-59000018D01*
X111370149Y-58961245D01*
X111309637Y-58938297D01*
X111075374Y-58850587D01*
X110941337Y-58909763D01*
X110786541Y-58971844D01*
X110594596Y-59039123D01*
X110378367Y-59107891D01*
X110150718Y-59174441D01*
X109924513Y-59235063D01*
X109712617Y-59286051D01*
X109527895Y-59323697D01*
X109473800Y-59332761D01*
X109121602Y-59379207D01*
X108761090Y-59411135D01*
X108403985Y-59428185D01*
X108062009Y-59429994D01*
X107746883Y-59416200D01*
X107518000Y-59393160D01*
X107038986Y-59317408D01*
X106585448Y-59221329D01*
X106167180Y-59107096D01*
X106032100Y-59063620D01*
X105766734Y-58964701D01*
X105477906Y-58839653D01*
X105180609Y-58695540D01*
X104889835Y-58539425D01*
X104762100Y-58465348D01*
X104682796Y-58419644D01*
X104614085Y-58382594D01*
X104583256Y-58367726D01*
X104524194Y-58330521D01*
X104497596Y-58304946D01*
X104460509Y-58271589D01*
X104441780Y-58264200D01*
X104406525Y-58249589D01*
X104375040Y-58227356D01*
X104336890Y-58197431D01*
X104268512Y-58145156D01*
X104180413Y-58078526D01*
X104104803Y-58021759D01*
X104005130Y-57948060D01*
X103935134Y-57900440D01*
X103884177Y-57874064D01*
X103841622Y-57864101D01*
X103796831Y-57865716D01*
X103769608Y-57869455D01*
X103654173Y-57871405D01*
X103567963Y-57840994D01*
X103549645Y-57819700D01*
X104154525Y-57819700D01*
X104176238Y-57849031D01*
X104234638Y-57899580D01*
X104322746Y-57966612D01*
X104433581Y-58045391D01*
X104560160Y-58131182D01*
X104695503Y-58219248D01*
X104832629Y-58304854D01*
X104964557Y-58383265D01*
X105079850Y-58447381D01*
X105570669Y-58686519D01*
X106067527Y-58886091D01*
X106564044Y-59044009D01*
X107053839Y-59158187D01*
X107429100Y-59215771D01*
X107565016Y-59231390D01*
X107693539Y-59245759D01*
X107800503Y-59257317D01*
X107871739Y-59264507D01*
X107873600Y-59264678D01*
X107963378Y-59269080D01*
X108092081Y-59270421D01*
X108247946Y-59269047D01*
X108419213Y-59265304D01*
X108594119Y-59259539D01*
X108760904Y-59252098D01*
X108907806Y-59243329D01*
X109023064Y-59233577D01*
X109054700Y-59229873D01*
X109247678Y-59203245D01*
X109413000Y-59177623D01*
X109543761Y-59154179D01*
X109633055Y-59134085D01*
X109651600Y-59128601D01*
X109711106Y-59112045D01*
X109798338Y-59091012D01*
X109867500Y-59075796D01*
X109954692Y-59054394D01*
X110066608Y-59022426D01*
X110194586Y-58982879D01*
X110329964Y-58938738D01*
X110464079Y-58892990D01*
X110588270Y-58848619D01*
X110693873Y-58808611D01*
X110772227Y-58775953D01*
X110814670Y-58753629D01*
X110819750Y-58747581D01*
X110797878Y-58732199D01*
X110742249Y-58707691D01*
X110699100Y-58691548D01*
X110603089Y-58657235D01*
X110507295Y-58622425D01*
X110480022Y-58612364D01*
X110419930Y-58593540D01*
X110366910Y-58589719D01*
X110301464Y-58601775D01*
X110226022Y-58623760D01*
X109989155Y-58691511D01*
X109729154Y-58756567D01*
X109467914Y-58813859D01*
X109227332Y-58858319D01*
X109181700Y-58865517D01*
X108983787Y-58888508D01*
X108749087Y-58904186D01*
X108490294Y-58912635D01*
X108220104Y-58913936D01*
X107951209Y-58908173D01*
X107696304Y-58895427D01*
X107468084Y-58875782D01*
X107302100Y-58853307D01*
X106748951Y-58738750D01*
X106224652Y-58585097D01*
X105722631Y-58389668D01*
X105236319Y-58149782D01*
X104759145Y-57862762D01*
X104584972Y-57745041D01*
X104546099Y-57737852D01*
X104476391Y-57740801D01*
X104389853Y-57751459D01*
X104300495Y-57767397D01*
X104222323Y-57786184D01*
X104169346Y-57805391D01*
X104154525Y-57819700D01*
X103549645Y-57819700D01*
X103516758Y-57781471D01*
X103504800Y-57720557D01*
X103515732Y-57652321D01*
X103542172Y-57604452D01*
X103543489Y-57603311D01*
X103554114Y-57586661D01*
X103548731Y-57561542D01*
X103523109Y-57522329D01*
X103473016Y-57463398D01*
X103394220Y-57379124D01*
X103307062Y-57289051D01*
X103036104Y-56993335D01*
X102791040Y-56686575D01*
X102564968Y-56358781D01*
X102350986Y-55999962D01*
X102147007Y-55609900D01*
X101941313Y-55149744D01*
X101772839Y-54676315D01*
X101639472Y-54182077D01*
X101539098Y-53659491D01*
X101484557Y-53247700D01*
X101452330Y-52740566D01*
X101455419Y-52600000D01*
X101614787Y-52600000D01*
X101620396Y-52957163D01*
X101636591Y-53272067D01*
X101664101Y-53552287D01*
X101703655Y-53805396D01*
X101751711Y-54022400D01*
X101771827Y-54102332D01*
X101795974Y-54199714D01*
X101805446Y-54238300D01*
X101840129Y-54366221D01*
X101887810Y-54523532D01*
X101942645Y-54692449D01*
X101998791Y-54855184D01*
X102050403Y-54993952D01*
X102068318Y-55038400D01*
X102139031Y-55205462D01*
X102205270Y-55354527D01*
X102271774Y-55494671D01*
X102343279Y-55634973D01*
X102424525Y-55784509D01*
X102520249Y-55952355D01*
X102635191Y-56147590D01*
X102730100Y-56306208D01*
X102779500Y-56380829D01*
X102851354Y-56479276D01*
X102940497Y-56595376D01*
X103041762Y-56722955D01*
X103149984Y-56855841D01*
X103259999Y-56987861D01*
X103366639Y-57112843D01*
X103464740Y-57224612D01*
X103549135Y-57316996D01*
X103614661Y-57383823D01*
X103656150Y-57418919D01*
X103664326Y-57422619D01*
X103691287Y-57407198D01*
X103737648Y-57364166D01*
X103765926Y-57333725D01*
X103826402Y-57263819D01*
X103858954Y-57212803D01*
X103862096Y-57168407D01*
X103834344Y-57118364D01*
X103774212Y-57050407D01*
X103725472Y-56999570D01*
X103346682Y-56569883D01*
X103010905Y-56113902D01*
X102719057Y-55633536D01*
X102472058Y-55130697D01*
X102270825Y-54607294D01*
X102116276Y-54065239D01*
X102009330Y-53506442D01*
X101994179Y-53396305D01*
X101977538Y-53229262D01*
X101965251Y-53028105D01*
X101957436Y-52805916D01*
X101954288Y-52580985D01*
X102514200Y-52580985D01*
X102526450Y-52991766D01*
X102564891Y-53379195D01*
X102632053Y-53755857D01*
X102730469Y-54134334D01*
X102862670Y-54527210D01*
X102952202Y-54757701D01*
X103009513Y-54896410D01*
X103063521Y-55019669D01*
X103119700Y-55138466D01*
X103183526Y-55263792D01*
X103260477Y-55406637D01*
X103356026Y-55577991D01*
X103397327Y-55651061D01*
X103498679Y-55813575D01*
X103628918Y-55997383D01*
X103778642Y-56190395D01*
X103938446Y-56380525D01*
X104098927Y-56555683D01*
X104109843Y-56566968D01*
X104274601Y-56736636D01*
X104447286Y-56554268D01*
X104525583Y-56470733D01*
X104573250Y-56415507D01*
X104594841Y-56380259D01*
X104594913Y-56356658D01*
X104578022Y-56336373D01*
X104570171Y-56329555D01*
X104528079Y-56273034D01*
X104505444Y-56212570D01*
X104503589Y-56154453D01*
X104529212Y-56098465D01*
X104569158Y-56048361D01*
X104615937Y-55990227D01*
X104644098Y-55945862D01*
X104647800Y-55934207D01*
X104634041Y-55900511D01*
X104599136Y-55842983D01*
X104576796Y-55810560D01*
X104514452Y-55716714D01*
X104429646Y-55577843D01*
X104322627Y-55394361D01*
X104221445Y-55216200D01*
X104169896Y-55126816D01*
X104116710Y-55037890D01*
X104099712Y-55010400D01*
X104057756Y-54940525D01*
X103997495Y-54836168D01*
X103924692Y-54707584D01*
X103845109Y-54565029D01*
X103764509Y-54418758D01*
X103688655Y-54279025D01*
X103687243Y-54276400D01*
X103636114Y-54184000D01*
X103587397Y-54100465D01*
X103551640Y-54043880D01*
X103551639Y-54043878D01*
X103519296Y-53993746D01*
X103504851Y-53964281D01*
X103504800Y-53963603D01*
X103492790Y-53934890D01*
X103460999Y-53873844D01*
X103415785Y-53791690D01*
X103363506Y-53699654D01*
X103310519Y-53608962D01*
X103263183Y-53530840D01*
X103233927Y-53485337D01*
X103189077Y-53397825D01*
X103179251Y-53314516D01*
X103301600Y-53314516D01*
X103308289Y-53335282D01*
X103324271Y-53369710D01*
X103351838Y-53422171D01*
X103393285Y-53497034D01*
X103450903Y-53598673D01*
X103526987Y-53731456D01*
X103623830Y-53899756D01*
X103738346Y-54098600D01*
X103848158Y-54289475D01*
X103966805Y-54495972D01*
X104086705Y-54704879D01*
X104200277Y-54902980D01*
X104299938Y-55077062D01*
X104343172Y-55152700D01*
X104426670Y-55297883D01*
X104506374Y-55434636D01*
X104577173Y-55554329D01*
X104633958Y-55648334D01*
X104671617Y-55708023D01*
X104675267Y-55713435D01*
X104736562Y-55812203D01*
X104763222Y-55887217D01*
X104755741Y-55951420D01*
X104714611Y-56017758D01*
X104688040Y-56048686D01*
X104624933Y-56127644D01*
X104602005Y-56186827D01*
X104618606Y-56236685D01*
X104673200Y-56287016D01*
X104723273Y-56333999D01*
X104748292Y-56377021D01*
X104748958Y-56383026D01*
X104732863Y-56418711D01*
X104690113Y-56481102D01*
X104628383Y-56559464D01*
X104593479Y-56600500D01*
X104531276Y-56671798D01*
X104442810Y-56773147D01*
X104335246Y-56896344D01*
X104215744Y-57033184D01*
X104091470Y-57175466D01*
X104032270Y-57243233D01*
X103920334Y-57372687D01*
X103821485Y-57489553D01*
X103740092Y-57588456D01*
X103680519Y-57664024D01*
X103647132Y-57710882D01*
X103641790Y-57723856D01*
X103676169Y-57728225D01*
X103757719Y-57721526D01*
X103884107Y-57704110D01*
X104053003Y-57676326D01*
X104262076Y-57638521D01*
X104443514Y-57603867D01*
X104577868Y-57578015D01*
X104634054Y-57567354D01*
X105371700Y-57567354D01*
X105663800Y-57710690D01*
X106143180Y-57926352D01*
X106610055Y-58095975D01*
X107069797Y-58221070D01*
X107527780Y-58303147D01*
X107899000Y-58339003D01*
X108020274Y-58345896D01*
X108122983Y-58350147D01*
X108218837Y-58351594D01*
X108319544Y-58350073D01*
X108436812Y-58345425D01*
X108582351Y-58337485D01*
X108749900Y-58327221D01*
X108870995Y-58317172D01*
X109001156Y-58302321D01*
X109130668Y-58284285D01*
X109249816Y-58264681D01*
X109348887Y-58245126D01*
X109418165Y-58227236D01*
X109447937Y-58212627D01*
X109448400Y-58210984D01*
X109427248Y-58189514D01*
X109391250Y-58174385D01*
X109336570Y-58155326D01*
X109255970Y-58124194D01*
X109194400Y-58099115D01*
X109085201Y-58054260D01*
X108966581Y-58006494D01*
X108915000Y-57986081D01*
X108829553Y-57952307D01*
X108757004Y-57923194D01*
X108724500Y-57909828D01*
X108666660Y-57885389D01*
X108592984Y-57854237D01*
X108584800Y-57850775D01*
X108515678Y-57822333D01*
X108419895Y-57783904D01*
X108318178Y-57743802D01*
X108318100Y-57743772D01*
X108213647Y-57702363D01*
X108112560Y-57661235D01*
X108038700Y-57630136D01*
X107957489Y-57597400D01*
X107838416Y-57552856D01*
X107691985Y-57500232D01*
X107528700Y-57443252D01*
X107359066Y-57385643D01*
X107218629Y-57339256D01*
X107118173Y-57309634D01*
X107032477Y-57289930D01*
X106975527Y-57283160D01*
X106964629Y-57284510D01*
X106923755Y-57293654D01*
X106843939Y-57308593D01*
X106736432Y-57327310D01*
X106612488Y-57347787D01*
X106603600Y-57349216D01*
X106468433Y-57371391D01*
X106338679Y-57393526D01*
X106229546Y-57412975D01*
X106159100Y-57426499D01*
X106061838Y-57445343D01*
X105945083Y-57466149D01*
X105867000Y-57479109D01*
X105773172Y-57494293D01*
X105693787Y-57507571D01*
X105651100Y-57515137D01*
X105595000Y-57525748D01*
X105515338Y-57540656D01*
X105486000Y-57546117D01*
X105371700Y-57567354D01*
X104634054Y-57567354D01*
X104749280Y-57545491D01*
X104944831Y-57508717D01*
X105151600Y-57470121D01*
X105356668Y-57432126D01*
X105447900Y-57415330D01*
X105782986Y-57353592D01*
X106072972Y-57299751D01*
X106322782Y-57252879D01*
X106537342Y-57212051D01*
X106721581Y-57176342D01*
X106767123Y-57167387D01*
X106847581Y-57150188D01*
X106884373Y-57137238D01*
X106883987Y-57124685D01*
X106860451Y-57111977D01*
X106809091Y-57099691D01*
X106782649Y-57119178D01*
X106743522Y-57139916D01*
X106711188Y-57135800D01*
X106673705Y-57132773D01*
X106603919Y-57138081D01*
X106499210Y-57152169D01*
X106356964Y-57175481D01*
X106174561Y-57208462D01*
X105949386Y-57251554D01*
X105678821Y-57305204D01*
X105498700Y-57341610D01*
X105360850Y-57368822D01*
X105222703Y-57394714D01*
X105102016Y-57416030D01*
X105028800Y-57427772D01*
X104938535Y-57442065D01*
X104866318Y-57455415D01*
X104830567Y-57464122D01*
X104789736Y-57474259D01*
X104715192Y-57488952D01*
X104627367Y-57504293D01*
X104496975Y-57525857D01*
X104399419Y-57542324D01*
X104317401Y-57556783D01*
X104233621Y-57572326D01*
X104130781Y-57592042D01*
X104066536Y-57604484D01*
X103960309Y-57622676D01*
X103872815Y-57633169D01*
X103815899Y-57634785D01*
X103801259Y-57630910D01*
X103806995Y-57602690D01*
X103844366Y-57545654D01*
X103908279Y-57466078D01*
X103993640Y-57370240D01*
X104095355Y-57264418D01*
X104112709Y-57247077D01*
X104175756Y-57180911D01*
X104253841Y-57094106D01*
X104329785Y-57005777D01*
X104490720Y-56815983D01*
X104622012Y-56667105D01*
X104723913Y-56558984D01*
X104796673Y-56491461D01*
X104840544Y-56464378D01*
X104855776Y-56477577D01*
X104842620Y-56530899D01*
X104801327Y-56624186D01*
X104736699Y-56748879D01*
X104676359Y-56864209D01*
X104640422Y-56945440D01*
X104626787Y-57001811D01*
X104633354Y-57042563D01*
X104658024Y-57076935D01*
X104661359Y-57080330D01*
X104705459Y-57105598D01*
X104764572Y-57094853D01*
X104766615Y-57094083D01*
X104854450Y-57046877D01*
X104970989Y-56961931D01*
X105113557Y-56841452D01*
X105279479Y-56687651D01*
X105390264Y-56579164D01*
X105479917Y-56495769D01*
X105543034Y-56453249D01*
X105583273Y-56451628D01*
X105604291Y-56490925D01*
X105609744Y-56571165D01*
X105609594Y-56580485D01*
X105611065Y-56705998D01*
X105619454Y-56834394D01*
X105633225Y-56953785D01*
X105650836Y-57052283D01*
X105670750Y-57118002D01*
X105681419Y-57135190D01*
X105739618Y-57169921D01*
X105794224Y-57154077D01*
X105845276Y-57087627D01*
X105892807Y-56970537D01*
X105904908Y-56930700D01*
X105929440Y-56837098D01*
X105947425Y-56753091D01*
X105953727Y-56709160D01*
X105966087Y-56644596D01*
X105988011Y-56613505D01*
X106008184Y-56618917D01*
X106018227Y-56650261D01*
X106028803Y-56715542D01*
X106034654Y-56769200D01*
X106041233Y-56836768D01*
X106051540Y-56887832D01*
X106072304Y-56926224D01*
X106110257Y-56955772D01*
X106172127Y-56980308D01*
X106264647Y-57003661D01*
X106394545Y-57029662D01*
X106540100Y-57056839D01*
X106641885Y-57074760D01*
X106705623Y-57082011D01*
X106742967Y-57078427D01*
X106765572Y-57063842D01*
X106774133Y-57053521D01*
X106803571Y-57008337D01*
X106812722Y-56989132D01*
X106837260Y-56989626D01*
X106897835Y-57007323D01*
X106984351Y-57038157D01*
X107086712Y-57078062D01*
X107194821Y-57122972D01*
X107298582Y-57168821D01*
X107387898Y-57211544D01*
X107451660Y-57246445D01*
X107494179Y-57267512D01*
X107577885Y-57304449D01*
X107696623Y-57354704D01*
X107844237Y-57415725D01*
X108014571Y-57484960D01*
X108201470Y-57559860D01*
X108344500Y-57616517D01*
X108734269Y-57770159D01*
X109080311Y-57906585D01*
X109386166Y-58027194D01*
X109655372Y-58133386D01*
X109891468Y-58226563D01*
X110097993Y-58308123D01*
X110278486Y-58379468D01*
X110436486Y-58441997D01*
X110575533Y-58497111D01*
X110699164Y-58546210D01*
X110810919Y-58590695D01*
X110914338Y-58631964D01*
X111012958Y-58671420D01*
X111110319Y-58710461D01*
X111175229Y-58736530D01*
X111327360Y-58796800D01*
X111463707Y-58849181D01*
X111577247Y-58891110D01*
X111660957Y-58920021D01*
X111707816Y-58933352D01*
X111714979Y-58933604D01*
X111734344Y-58901413D01*
X111734400Y-58899716D01*
X111722031Y-58874197D01*
X111686477Y-58808852D01*
X111630067Y-58707781D01*
X111555132Y-58575087D01*
X111464000Y-58414871D01*
X111359001Y-58231234D01*
X111242464Y-58028278D01*
X111116719Y-57810103D01*
X111048600Y-57692231D01*
X110918743Y-57466829D01*
X110796921Y-57253617D01*
X110685480Y-57056818D01*
X110586760Y-56880655D01*
X110503107Y-56729351D01*
X110436864Y-56607127D01*
X110390373Y-56518207D01*
X110365978Y-56466813D01*
X110362800Y-56456488D01*
X110374077Y-56411434D01*
X110379112Y-56399786D01*
X110464400Y-56399786D01*
X110476876Y-56426368D01*
X110510602Y-56486422D01*
X110560017Y-56570270D01*
X110604100Y-56643059D01*
X110661571Y-56737944D01*
X110707568Y-56815775D01*
X110736553Y-56867068D01*
X110743800Y-56882447D01*
X110756043Y-56908819D01*
X110786880Y-56962134D01*
X110802999Y-56988354D01*
X110846101Y-57060221D01*
X110900950Y-57155544D01*
X110952641Y-57248200D01*
X111022268Y-57375076D01*
X111072102Y-57463602D01*
X111106939Y-57519876D01*
X111131577Y-57549999D01*
X111150812Y-57560072D01*
X111169443Y-57556194D01*
X111187555Y-57546925D01*
X111234288Y-57520085D01*
X111308250Y-57475391D01*
X111393824Y-57422285D01*
X111397850Y-57419754D01*
X111474620Y-57369331D01*
X111530972Y-57328301D01*
X111556149Y-57304572D01*
X111556574Y-57303073D01*
X111536506Y-57282018D01*
X111484821Y-57245462D01*
X111435924Y-57215190D01*
X111262239Y-57105983D01*
X111102545Y-56989513D01*
X110943288Y-56854972D01*
X110770913Y-56691552D01*
X110737450Y-56658237D01*
X110643327Y-56564887D01*
X110563234Y-56487219D01*
X110503275Y-56431011D01*
X110469553Y-56402040D01*
X110464400Y-56399786D01*
X110379112Y-56399786D01*
X110402318Y-56346114D01*
X110439140Y-56276060D01*
X110476158Y-56216806D01*
X110504988Y-56183883D01*
X110511263Y-56181445D01*
X110533080Y-56201115D01*
X110570905Y-56251458D01*
X110598256Y-56292858D01*
X110669985Y-56387493D01*
X110775464Y-56501902D01*
X110905798Y-56628255D01*
X111052094Y-56758720D01*
X111205457Y-56885466D01*
X111356992Y-57000661D01*
X111497806Y-57096473D01*
X111540707Y-57122681D01*
X111609306Y-57153022D01*
X111644498Y-57148063D01*
X111643394Y-57113118D01*
X111603102Y-57053500D01*
X111587608Y-57036455D01*
X111537870Y-56976892D01*
X111471136Y-56887539D01*
X111396806Y-56782007D01*
X111324281Y-56673910D01*
X111262963Y-56576858D01*
X111228009Y-56515774D01*
X111209274Y-56462071D01*
X111219598Y-56437991D01*
X111255162Y-56451595D01*
X111257536Y-56453409D01*
X111290714Y-56479664D01*
X111352938Y-56529201D01*
X111433590Y-56593562D01*
X111480400Y-56630969D01*
X111569695Y-56700822D01*
X111649824Y-56760754D01*
X111708717Y-56801858D01*
X111726380Y-56812540D01*
X111796110Y-56840447D01*
X111830789Y-56833725D01*
X111830248Y-56794678D01*
X111794320Y-56725606D01*
X111738404Y-56648267D01*
X111533468Y-56349914D01*
X111371239Y-56031619D01*
X111254491Y-55699745D01*
X111190189Y-55391809D01*
X111184921Y-55357468D01*
X111182149Y-55328383D01*
X111185105Y-55299951D01*
X111197019Y-55267567D01*
X111221123Y-55226626D01*
X111260648Y-55172524D01*
X111318825Y-55100657D01*
X111398884Y-55006421D01*
X111504059Y-54885211D01*
X111637578Y-54732422D01*
X111715350Y-54643466D01*
X111819656Y-54523101D01*
X111911538Y-54415163D01*
X111986049Y-54325621D01*
X112038243Y-54260443D01*
X112063175Y-54225597D01*
X112064600Y-54221997D01*
X112061526Y-54210219D01*
X112047660Y-54203810D01*
X112016029Y-54203460D01*
X111959664Y-54209859D01*
X111871594Y-54223696D01*
X111744849Y-54245661D01*
X111644189Y-54263592D01*
X111515645Y-54286375D01*
X111405205Y-54305541D01*
X111322387Y-54319470D01*
X111276715Y-54326538D01*
X111271275Y-54327092D01*
X111265122Y-54303215D01*
X111260633Y-54237403D01*
X111258107Y-54138501D01*
X111257846Y-54015357D01*
X111258575Y-53952550D01*
X111260427Y-53805419D01*
X111259734Y-53698269D01*
X111255223Y-53620295D01*
X111245621Y-53560693D01*
X111229654Y-53508658D01*
X111206050Y-53453388D01*
X111197606Y-53435237D01*
X111143546Y-53330435D01*
X111077826Y-53217140D01*
X111039147Y-53156609D01*
X110947583Y-53020644D01*
X111032654Y-52930972D01*
X111199343Y-52737777D01*
X111332967Y-52546083D01*
X111430022Y-52362023D01*
X111487005Y-52191730D01*
X111499341Y-52114037D01*
X111512570Y-51968141D01*
X111248020Y-51706220D01*
X111089897Y-51540897D01*
X110967000Y-51393444D01*
X110885687Y-51272850D01*
X110824376Y-51174377D01*
X110776302Y-51118828D01*
X110737342Y-51101400D01*
X110702908Y-51106505D01*
X110710956Y-51130344D01*
X110721639Y-51143904D01*
X110741500Y-51172936D01*
X110724529Y-51175789D01*
X110693000Y-51166930D01*
X110618264Y-51148613D01*
X110553300Y-51137272D01*
X110524397Y-51137239D01*
X110536488Y-51151441D01*
X110592028Y-51181862D01*
X110633845Y-51202328D01*
X110732555Y-51253551D01*
X110793459Y-51293595D01*
X110813507Y-51319916D01*
X110789647Y-51329969D01*
X110786915Y-51329999D01*
X110749169Y-51319706D01*
X110677994Y-51292105D01*
X110585639Y-51252119D01*
X110534023Y-51228399D01*
X110432172Y-51183668D01*
X110341543Y-51149223D01*
X110275942Y-51130086D01*
X110257457Y-51127812D01*
X110225022Y-51131155D01*
X110231434Y-51143235D01*
X110280351Y-51169698D01*
X110286600Y-51172798D01*
X110356952Y-51206113D01*
X110452123Y-51249319D01*
X110540600Y-51288302D01*
X110669633Y-51344486D01*
X110760043Y-51384904D01*
X110819944Y-51413690D01*
X110857453Y-51434979D01*
X110880687Y-51452905D01*
X110895810Y-51469231D01*
X110911649Y-51492383D01*
X110908115Y-51502870D01*
X110880757Y-51499144D01*
X110825127Y-51479659D01*
X110736776Y-51442868D01*
X110611255Y-51387225D01*
X110453321Y-51315397D01*
X110316253Y-51254190D01*
X110192877Y-51201983D01*
X110091428Y-51162033D01*
X110020142Y-51137595D01*
X109988388Y-51131589D01*
X109996435Y-51143812D01*
X110044972Y-51172871D01*
X110127796Y-51215588D01*
X110238703Y-51268789D01*
X110371491Y-51329298D01*
X110394581Y-51339546D01*
X110533946Y-51402747D01*
X110655806Y-51461012D01*
X110753041Y-51510686D01*
X110818529Y-51548118D01*
X110845149Y-51569653D01*
X110845400Y-51570831D01*
X110836971Y-51588488D01*
X110808349Y-51603057D01*
X110754535Y-51615121D01*
X110670526Y-51625265D01*
X110551320Y-51634074D01*
X110391918Y-51642132D01*
X110187317Y-51650024D01*
X110159600Y-51650984D01*
X110000441Y-51657709D01*
X109853801Y-51666260D01*
X109729159Y-51675901D01*
X109635995Y-51685893D01*
X109583790Y-51695501D01*
X109582775Y-51695837D01*
X109568921Y-51704276D01*
X109584603Y-51710959D01*
X109633434Y-51716047D01*
X109719025Y-51719704D01*
X109844988Y-51722089D01*
X110014934Y-51723365D01*
X110205075Y-51723700D01*
X110422514Y-51724137D01*
X110596114Y-51725693D01*
X110732826Y-51728727D01*
X110839606Y-51733603D01*
X110923407Y-51740683D01*
X110991183Y-51750329D01*
X111049888Y-51762904D01*
X111072563Y-51768883D01*
X111216864Y-51821048D01*
X111328180Y-51886876D01*
X111399673Y-51961648D01*
X111420673Y-52009092D01*
X111422920Y-52102364D01*
X111394199Y-52221987D01*
X111339147Y-52358077D01*
X111262401Y-52500749D01*
X111168595Y-52640118D01*
X111068597Y-52759719D01*
X110959700Y-52875645D01*
X110362800Y-52904569D01*
X110186477Y-52913817D01*
X110020692Y-52923823D01*
X109874357Y-52933947D01*
X109756380Y-52943549D01*
X109675671Y-52951989D01*
X109651600Y-52955665D01*
X109576687Y-52969284D01*
X109468882Y-52987742D01*
X109345495Y-53008110D01*
X109273747Y-53019622D01*
X109136728Y-53044664D01*
X108993437Y-53076257D01*
X108867031Y-53109110D01*
X108822112Y-53122803D01*
X108724718Y-53152424D01*
X108640423Y-53174203D01*
X108585450Y-53184015D01*
X108580750Y-53184200D01*
X108522844Y-53172244D01*
X108426296Y-53138168D01*
X108296795Y-53084657D01*
X108140030Y-53014396D01*
X107961692Y-52930070D01*
X107767470Y-52834366D01*
X107563053Y-52729968D01*
X107354130Y-52619562D01*
X107162400Y-52514749D01*
X107087711Y-52475901D01*
X107053761Y-52465293D01*
X107059319Y-52482541D01*
X107059465Y-52482722D01*
X107129953Y-52550085D01*
X107242876Y-52632114D01*
X107393026Y-52725850D01*
X107575192Y-52828336D01*
X107784164Y-52936615D01*
X108014734Y-53047729D01*
X108211662Y-53136860D01*
X108360306Y-53210378D01*
X108497667Y-53297828D01*
X108643187Y-53411792D01*
X108664715Y-53430063D01*
X108753532Y-53504714D01*
X108827256Y-53564203D01*
X108878093Y-53602411D01*
X108898187Y-53613325D01*
X108904913Y-53585186D01*
X108916091Y-53519465D01*
X108929590Y-53428952D01*
X108933125Y-53403612D01*
X108950329Y-53304571D01*
X108971018Y-53223123D01*
X108991242Y-53174215D01*
X108994944Y-53169592D01*
X109036348Y-53149645D01*
X109116061Y-53127442D01*
X109221934Y-53104880D01*
X109341817Y-53083860D01*
X109463561Y-53066278D01*
X109575015Y-53054035D01*
X109664030Y-53049027D01*
X109718456Y-53053155D01*
X109724724Y-53055554D01*
X109769544Y-53089332D01*
X109832621Y-53148969D01*
X109905003Y-53224431D01*
X109977742Y-53305683D01*
X110041886Y-53382693D01*
X110088485Y-53445426D01*
X110108590Y-53483850D01*
X110108800Y-53486120D01*
X110093174Y-53516758D01*
X110051204Y-53576426D01*
X109990250Y-53656143D01*
X109917670Y-53746930D01*
X109840826Y-53839806D01*
X109767077Y-53925792D01*
X109703782Y-53995909D01*
X109658302Y-54041176D01*
X109645969Y-54050820D01*
X109611054Y-54056491D01*
X109538302Y-54058470D01*
X109440555Y-54056585D01*
X109388787Y-54054271D01*
X109333491Y-54050898D01*
X109279443Y-54046151D01*
X109222223Y-54039002D01*
X109157407Y-54028425D01*
X109080573Y-54013393D01*
X108987300Y-53992878D01*
X108873165Y-53965853D01*
X108733746Y-53931291D01*
X108564621Y-53888164D01*
X108361366Y-53835446D01*
X108119561Y-53772109D01*
X107834783Y-53697126D01*
X107713282Y-53665076D01*
X107108465Y-53505484D01*
X106878576Y-53249983D01*
X106789314Y-53152307D01*
X106708016Y-53066141D01*
X106642727Y-52999820D01*
X106601493Y-52961680D01*
X106597073Y-52958329D01*
X106579394Y-52953600D01*
X106589070Y-52981019D01*
X106621080Y-53033587D01*
X106670405Y-53104305D01*
X106732022Y-53186175D01*
X106800910Y-53272198D01*
X106872050Y-53355376D01*
X106917577Y-53405083D01*
X107073583Y-53569749D01*
X108000641Y-53818495D01*
X108213807Y-53875702D01*
X108415334Y-53929804D01*
X108599035Y-53979140D01*
X108758728Y-54022048D01*
X108888227Y-54056867D01*
X108981349Y-54081934D01*
X109031907Y-54095588D01*
X109033244Y-54095952D01*
X109138789Y-54124662D01*
X109125146Y-54473581D01*
X109123159Y-54716570D01*
X109139859Y-54931744D01*
X109178441Y-55136064D01*
X109242101Y-55346486D01*
X109333256Y-55578150D01*
X109335121Y-55613733D01*
X109297523Y-55621195D01*
X109219275Y-55600568D01*
X109171580Y-55582568D01*
X109102029Y-55546480D01*
X109065158Y-55498842D01*
X109049602Y-55449218D01*
X109027081Y-55384305D01*
X108991591Y-55354855D01*
X108958635Y-55347862D01*
X108904568Y-55351573D01*
X108889600Y-55378113D01*
X108876641Y-55420512D01*
X108833934Y-55433471D01*
X108755727Y-55418022D01*
X108724089Y-55407869D01*
X108662748Y-55385540D01*
X108562806Y-55347310D01*
X108429048Y-55295113D01*
X108266259Y-55230889D01*
X108079227Y-55156572D01*
X107872735Y-55074101D01*
X107651570Y-54985412D01*
X107420517Y-54892443D01*
X107184362Y-54797130D01*
X106947891Y-54701409D01*
X106715889Y-54607219D01*
X106493141Y-54516496D01*
X106284434Y-54431177D01*
X106094553Y-54353198D01*
X105928284Y-54284498D01*
X105790412Y-54227012D01*
X105685723Y-54182678D01*
X105619002Y-54153432D01*
X105595239Y-54141490D01*
X105574140Y-54098190D01*
X105550143Y-54011293D01*
X105524229Y-53887852D01*
X105497382Y-53734924D01*
X105470585Y-53559562D01*
X105444821Y-53368820D01*
X105421072Y-53169753D01*
X105400321Y-52969416D01*
X105383552Y-52774863D01*
X105371746Y-52593147D01*
X105368078Y-52511100D01*
X105366421Y-52140945D01*
X105391376Y-51805769D01*
X105444731Y-51496226D01*
X105525002Y-51214454D01*
X107144514Y-51214454D01*
X107156543Y-51358343D01*
X107160044Y-51372051D01*
X107220742Y-51510917D01*
X107316305Y-51616328D01*
X107442286Y-51686999D01*
X107594236Y-51721646D01*
X107767704Y-51718984D01*
X107958243Y-51677730D01*
X108074080Y-51635921D01*
X108178519Y-51594675D01*
X108278731Y-51558150D01*
X108354432Y-51533707D01*
X108359425Y-51532331D01*
X108421849Y-51511306D01*
X108450341Y-51483735D01*
X108447635Y-51438006D01*
X108416462Y-51362507D01*
X108405005Y-51338580D01*
X108338128Y-51237110D01*
X108237594Y-51129216D01*
X108116899Y-51027378D01*
X107989536Y-50944080D01*
X107963645Y-50930333D01*
X107813662Y-50874486D01*
X107655081Y-50850139D01*
X107503709Y-50858262D01*
X107385194Y-50894862D01*
X107260730Y-50978709D01*
X107179873Y-51086574D01*
X107144514Y-51214454D01*
X105525002Y-51214454D01*
X105528273Y-51202973D01*
X105643791Y-50916666D01*
X105692469Y-50815650D01*
X105816663Y-50568000D01*
X105454481Y-50563471D01*
X105320875Y-50561841D01*
X105203134Y-50560481D01*
X105111751Y-50559505D01*
X105057219Y-50559030D01*
X105049112Y-50559002D01*
X105011083Y-50554313D01*
X105016762Y-50541818D01*
X105060141Y-50524129D01*
X105135209Y-50503861D01*
X105213040Y-50487729D01*
X105307814Y-50475186D01*
X105440981Y-50465808D01*
X105615641Y-50459484D01*
X105834894Y-50456100D01*
X106095600Y-50455525D01*
X106403479Y-50458861D01*
X106674247Y-50468087D01*
X106921395Y-50484623D01*
X107158416Y-50509890D01*
X107398802Y-50545309D01*
X107656043Y-50592301D01*
X107924400Y-50648105D01*
X108351040Y-50733791D01*
X108751241Y-50798877D01*
X109143885Y-50845707D01*
X109547853Y-50876629D01*
X109880200Y-50891128D01*
X110138829Y-50894752D01*
X110413822Y-50890584D01*
X110695876Y-50879340D01*
X110975691Y-50861739D01*
X111243964Y-50838495D01*
X111491395Y-50810327D01*
X111708683Y-50777951D01*
X111886525Y-50742084D01*
X111918495Y-50734042D01*
X112113415Y-50675446D01*
X112286352Y-50609005D01*
X112431814Y-50537838D01*
X112544306Y-50465067D01*
X112618334Y-50393811D01*
X112648405Y-50327190D01*
X112648800Y-50319299D01*
X112625719Y-50245258D01*
X112563675Y-50171243D01*
X112473465Y-50107506D01*
X112386543Y-50070260D01*
X112272043Y-50044945D01*
X112119946Y-50026763D01*
X111942988Y-50015990D01*
X111753908Y-50012908D01*
X111565444Y-50017795D01*
X111390334Y-50030931D01*
X111277768Y-50045969D01*
X111151753Y-50068260D01*
X111028609Y-50092121D01*
X110927221Y-50113810D01*
X110890217Y-50122766D01*
X110810780Y-50142157D01*
X110755545Y-50147747D01*
X110720510Y-50132933D01*
X110701670Y-50091114D01*
X110695024Y-50015688D01*
X110696567Y-49900055D01*
X110699229Y-49823773D01*
X110842129Y-49823773D01*
X111116814Y-49772987D01*
X111293565Y-49747548D01*
X111495052Y-49730444D01*
X111707859Y-49721796D01*
X111918568Y-49721726D01*
X112113764Y-49730356D01*
X112280029Y-49747807D01*
X112356700Y-49761745D01*
X112554983Y-49822372D01*
X112715312Y-49905768D01*
X112835288Y-50009192D01*
X112912512Y-50129900D01*
X112944584Y-50265152D01*
X112929105Y-50412206D01*
X112928350Y-50415041D01*
X112877313Y-50533874D01*
X112789048Y-50642371D01*
X112659797Y-50743719D01*
X112485801Y-50841104D01*
X112356700Y-50899664D01*
X112225126Y-50946019D01*
X112051762Y-50992515D01*
X111845577Y-51037290D01*
X111615541Y-51078479D01*
X111370622Y-51114219D01*
X111256601Y-51128183D01*
X111136978Y-51143234D01*
X111060558Y-51156703D01*
X111019875Y-51170636D01*
X111007462Y-51187077D01*
X111009151Y-51195943D01*
X111052999Y-51277256D01*
X111126499Y-51379057D01*
X111219935Y-51489728D01*
X111323591Y-51597649D01*
X111413054Y-51679025D01*
X111511363Y-51765867D01*
X111575287Y-51837145D01*
X111612031Y-51906467D01*
X111628800Y-51987438D01*
X111632799Y-52093666D01*
X111632800Y-52094019D01*
X111614506Y-52223418D01*
X111563059Y-52376018D01*
X111483610Y-52541650D01*
X111381308Y-52710149D01*
X111261304Y-52871344D01*
X111207413Y-52933813D01*
X111119448Y-53031180D01*
X111209077Y-53166210D01*
X111300857Y-53325366D01*
X111360731Y-53484253D01*
X111392559Y-53657730D01*
X111400196Y-53860657D01*
X111399367Y-53899153D01*
X111396794Y-54010600D01*
X111395876Y-54100446D01*
X111396641Y-54158383D01*
X111398575Y-54174851D01*
X111424684Y-54170084D01*
X111490967Y-54157093D01*
X111587822Y-54137783D01*
X111705641Y-54114056D01*
X111723429Y-54110457D01*
X111854996Y-54084252D01*
X111946888Y-54067965D01*
X112009148Y-54061086D01*
X112051819Y-54063108D01*
X112084944Y-54073520D01*
X112116404Y-54090533D01*
X112173197Y-54134513D01*
X112195967Y-54188974D01*
X112195401Y-54260298D01*
X112189936Y-54282854D01*
X112174921Y-54312772D01*
X112146981Y-54354188D01*
X112102741Y-54411237D01*
X112038829Y-54488055D01*
X111951868Y-54588778D01*
X111838484Y-54717542D01*
X111695303Y-54878482D01*
X111645450Y-54934310D01*
X111532924Y-55060935D01*
X111450299Y-55157086D01*
X111393343Y-55229911D01*
X111357823Y-55286559D01*
X111339508Y-55334179D01*
X111334166Y-55379921D01*
X111337563Y-55430935D01*
X111339919Y-55450443D01*
X111386693Y-55690574D01*
X111467809Y-55929194D01*
X111586277Y-56172749D01*
X111745104Y-56427682D01*
X111887229Y-56623326D01*
X111941129Y-56719466D01*
X111960380Y-56813065D01*
X111947828Y-56894869D01*
X111906323Y-56955624D01*
X111838710Y-56986074D01*
X111776204Y-56984181D01*
X111730798Y-56978903D01*
X111722883Y-56985796D01*
X111726036Y-56988139D01*
X111753768Y-57025378D01*
X111773411Y-57077687D01*
X111779793Y-57105983D01*
X111786698Y-57124294D01*
X111799978Y-57129236D01*
X111825486Y-57117426D01*
X111869075Y-57085483D01*
X111936598Y-57030023D01*
X112033908Y-56947664D01*
X112109794Y-56883280D01*
X112389698Y-56621130D01*
X112662436Y-56317077D01*
X112921230Y-55980018D01*
X113159302Y-55618849D01*
X113369874Y-55242465D01*
X113389575Y-55203500D01*
X113618604Y-54694828D01*
X113796971Y-54185164D01*
X113924634Y-53674649D01*
X114001557Y-53163424D01*
X114019053Y-52942900D01*
X114024978Y-52406070D01*
X113980498Y-51873943D01*
X113885883Y-51347605D01*
X113741398Y-50828143D01*
X113547311Y-50316646D01*
X113303890Y-49814202D01*
X113207210Y-49640900D01*
X112991855Y-49302534D01*
X112741220Y-48968641D01*
X112464799Y-48649942D01*
X112172086Y-48357157D01*
X111872573Y-48101010D01*
X111784796Y-48034373D01*
X111643180Y-47930350D01*
X111534301Y-47851317D01*
X111450192Y-47791866D01*
X111382887Y-47746592D01*
X111324421Y-47710087D01*
X111266826Y-47676944D01*
X111222444Y-47652677D01*
X111144769Y-47611552D01*
X111100502Y-47593034D01*
X111078386Y-47595527D01*
X111067168Y-47617433D01*
X111063530Y-47630122D01*
X111048393Y-47702041D01*
X111030216Y-47816454D01*
X111009917Y-47965209D01*
X110988418Y-48140155D01*
X110966640Y-48333140D01*
X110945502Y-48536012D01*
X110925925Y-48740620D01*
X110908829Y-48938812D01*
X110895285Y-49120200D01*
X110884905Y-49271162D01*
X110874484Y-49417877D01*
X110865022Y-49546583D01*
X110857519Y-49643516D01*
X110855417Y-49668836D01*
X110842129Y-49823773D01*
X110699229Y-49823773D01*
X110699756Y-49808689D01*
X110717765Y-49464782D01*
X110747437Y-49082832D01*
X110787362Y-48673884D01*
X110836128Y-48248984D01*
X110892322Y-47819177D01*
X110954532Y-47395509D01*
X111021348Y-46989024D01*
X111035776Y-46911069D01*
X111181664Y-46911069D01*
X111188931Y-46940665D01*
X111216137Y-46970486D01*
X111270876Y-47008306D01*
X111360737Y-47061899D01*
X111382919Y-47074803D01*
X111854467Y-47372361D01*
X112284264Y-47694090D01*
X112677605Y-48044998D01*
X113039787Y-48430093D01*
X113376104Y-48854384D01*
X113587000Y-49159114D01*
X113862357Y-49618030D01*
X114092777Y-50089742D01*
X114280032Y-50579178D01*
X114425893Y-51091265D01*
X114532131Y-51630932D01*
X114568060Y-51888800D01*
X114586437Y-52094570D01*
X114596808Y-52335264D01*
X114599404Y-52596192D01*
X114594460Y-52862666D01*
X114582207Y-53119997D01*
X114562879Y-53353497D01*
X114542302Y-53514400D01*
X114428588Y-54084134D01*
X114269137Y-54632384D01*
X114064891Y-55157705D01*
X113816793Y-55658654D01*
X113525786Y-56133785D01*
X113192813Y-56581655D01*
X112818817Y-57000818D01*
X112404740Y-57389831D01*
X111951525Y-57747249D01*
X111641250Y-57958822D01*
X111433801Y-58092334D01*
X111478352Y-58171917D01*
X111518343Y-58244151D01*
X111552827Y-58307678D01*
X111553345Y-58308650D01*
X111581869Y-58351760D01*
X111599889Y-58365800D01*
X111628808Y-58354283D01*
X111688331Y-58324239D01*
X111757746Y-58286500D01*
X111882994Y-58209255D01*
X112035684Y-58103696D01*
X112206841Y-57976929D01*
X112387494Y-57836062D01*
X112568670Y-57688202D01*
X112741395Y-57540457D01*
X112896699Y-57399934D01*
X112987537Y-57312367D01*
X113227746Y-57061798D01*
X113441766Y-56812705D01*
X113642983Y-56548512D01*
X113844783Y-56252643D01*
X113850718Y-56243517D01*
X113933973Y-56115334D01*
X113995982Y-56019033D01*
X114042995Y-55943779D01*
X114081261Y-55878739D01*
X114117029Y-55813078D01*
X114156548Y-55735961D01*
X114206068Y-55636555D01*
X114238172Y-55571800D01*
X114356399Y-55320700D01*
X114468291Y-55058747D01*
X114569533Y-54797485D01*
X114655812Y-54548456D01*
X114722813Y-54323203D01*
X114755585Y-54187500D01*
X114776498Y-54094002D01*
X114796776Y-54011921D01*
X114808184Y-53971600D01*
X114851606Y-53799998D01*
X114886921Y-53587050D01*
X114913964Y-53341585D01*
X114932569Y-53072434D01*
X114942569Y-52788426D01*
X114943800Y-52498390D01*
X114936094Y-52211155D01*
X114919286Y-51935552D01*
X114893210Y-51680410D01*
X114857700Y-51454559D01*
X114855694Y-51444300D01*
X114761891Y-51026591D01*
X114650290Y-50629375D01*
X114524243Y-50263806D01*
X114436646Y-50049562D01*
X114376930Y-49913396D01*
X114334246Y-49815962D01*
X114305208Y-49749475D01*
X114286427Y-49706151D01*
X114274518Y-49678207D01*
X114266093Y-49657857D01*
X114264360Y-49653600D01*
X114244272Y-49613135D01*
X114206635Y-49544020D01*
X114160679Y-49463100D01*
X114112101Y-49377463D01*
X114071378Y-49302647D01*
X114048449Y-49257188D01*
X113995728Y-49157762D01*
X113914888Y-49028253D01*
X113811724Y-48876398D01*
X113692033Y-48709932D01*
X113561612Y-48536594D01*
X113426256Y-48364120D01*
X113291763Y-48200246D01*
X113163928Y-48052710D01*
X113070245Y-47951533D01*
X112851037Y-47738955D01*
X112598036Y-47519134D01*
X112324095Y-47301852D01*
X112042069Y-47096897D01*
X111764811Y-46914052D01*
X111518500Y-46770260D01*
X111426290Y-46719734D01*
X111345637Y-46674219D01*
X111291957Y-46642440D01*
X111286911Y-46639218D01*
X111251466Y-46620379D01*
X111232850Y-46631613D01*
X111220702Y-46682040D01*
X111217736Y-46700131D01*
X111202749Y-46788171D01*
X111187464Y-46870318D01*
X111186745Y-46873925D01*
X111181664Y-46911069D01*
X111035776Y-46911069D01*
X111091358Y-46610769D01*
X111136461Y-46391964D01*
X111159483Y-46277200D01*
X111175930Y-46179078D01*
X111184061Y-46109179D01*
X111183217Y-46080814D01*
X111153497Y-46068248D01*
X111079167Y-46058574D01*
X110966333Y-46051779D01*
X110821101Y-46047849D01*
X110649577Y-46046769D01*
X110457867Y-46048527D01*
X110252079Y-46053109D01*
X110038317Y-46060500D01*
X109822689Y-46070687D01*
X109611300Y-46083656D01*
X109600800Y-46084387D01*
X109258994Y-46108431D01*
X108962256Y-46129503D01*
X108704971Y-46148063D01*
X108481522Y-46164569D01*
X108286293Y-46179479D01*
X108113668Y-46193253D01*
X107958033Y-46206348D01*
X107813769Y-46219225D01*
X107675263Y-46232341D01*
X107536897Y-46246155D01*
X107393056Y-46261127D01*
X107251300Y-46276290D01*
X106866933Y-46318282D01*
X106512943Y-46357969D01*
X106191636Y-46395057D01*
X105905319Y-46429255D01*
X105656300Y-46460269D01*
X105446885Y-46487807D01*
X105279381Y-46511576D01*
X105156095Y-46531284D01*
X105079335Y-46546636D01*
X105053661Y-46555132D01*
X105043674Y-46579787D01*
X105047118Y-46637069D01*
X105064705Y-46732483D01*
X105091807Y-46849734D01*
X105119757Y-46964456D01*
X105156438Y-47114882D01*
X105198520Y-47287371D01*
X105242676Y-47468278D01*
X105283218Y-47634300D01*
X105370397Y-47992212D01*
X105448347Y-48314290D01*
X105516516Y-48598209D01*
X105574349Y-48841640D01*
X105621293Y-49042260D01*
X105656795Y-49197740D01*
X105676000Y-49285300D01*
X105704547Y-49416802D01*
X105737629Y-49565322D01*
X105767720Y-49697130D01*
X105797032Y-49829254D01*
X105812584Y-49919179D01*
X105814181Y-49973661D01*
X105801632Y-49999458D01*
X105774742Y-50003324D01*
X105759050Y-50000014D01*
X105506517Y-49939539D01*
X105273980Y-49898789D01*
X105036411Y-49873959D01*
X104868284Y-49864589D01*
X104603564Y-49860646D01*
X104382217Y-49873058D01*
X104199115Y-49903069D01*
X104049130Y-49951923D01*
X103927134Y-50020864D01*
X103828000Y-50111135D01*
X103821605Y-50118495D01*
X103750864Y-50231141D01*
X103730398Y-50345576D01*
X103760308Y-50462461D01*
X103840697Y-50582459D01*
X103902756Y-50646565D01*
X104009458Y-50739375D01*
X104110688Y-50808081D01*
X104226537Y-50864752D01*
X104336582Y-50907148D01*
X104473639Y-50953562D01*
X104607414Y-50992072D01*
X104750156Y-51025417D01*
X104914114Y-51056335D01*
X105111537Y-51087564D01*
X105202950Y-51100803D01*
X105287565Y-51114013D01*
X105349486Y-51125918D01*
X105374042Y-51133375D01*
X105372324Y-51160373D01*
X105360474Y-51226650D01*
X105340469Y-51322148D01*
X105315101Y-51433359D01*
X105293686Y-51526585D01*
X105277253Y-51607904D01*
X105265147Y-51686180D01*
X105256709Y-51770275D01*
X105251283Y-51869054D01*
X105248212Y-51991378D01*
X105246838Y-52146112D01*
X105246505Y-52342118D01*
X105246504Y-52358700D01*
X105250185Y-52678721D01*
X105262167Y-52962907D01*
X105283837Y-53225752D01*
X105316582Y-53481748D01*
X105361789Y-53745387D01*
X105395098Y-53911484D01*
X105412169Y-53998652D01*
X105416906Y-54047307D01*
X105408807Y-54068338D01*
X105387648Y-54072639D01*
X105355915Y-54063317D01*
X105282190Y-54036907D01*
X105171569Y-53995374D01*
X105029152Y-53940686D01*
X104860035Y-53874809D01*
X104669317Y-53799709D01*
X104462096Y-53717352D01*
X104343000Y-53669701D01*
X104088655Y-53568470D01*
X103865790Y-53481361D01*
X103676986Y-53409324D01*
X103524824Y-53353311D01*
X103411886Y-53314273D01*
X103340753Y-53293163D01*
X103314354Y-53290477D01*
X103306925Y-53296484D01*
X103301910Y-53303040D01*
X103301600Y-53314516D01*
X103179251Y-53314516D01*
X103178159Y-53305265D01*
X103179358Y-53282137D01*
X103187867Y-53211936D01*
X103208394Y-53175520D01*
X103253412Y-53155877D01*
X103276200Y-53150073D01*
X103323538Y-53143257D01*
X103376760Y-53147733D01*
X103446866Y-53166135D01*
X103544858Y-53201094D01*
X103631800Y-53235174D01*
X103752978Y-53283490D01*
X103869329Y-53329733D01*
X103965271Y-53367717D01*
X104012800Y-53386414D01*
X104139870Y-53436441D01*
X104285409Y-53494262D01*
X104441921Y-53556842D01*
X104601909Y-53621149D01*
X104757876Y-53684149D01*
X104902326Y-53742806D01*
X105027762Y-53794088D01*
X105126688Y-53834961D01*
X105191607Y-53862391D01*
X105213587Y-53872379D01*
X105245807Y-53883180D01*
X105250159Y-53857294D01*
X105246829Y-53838863D01*
X105235727Y-53778173D01*
X105219001Y-53676538D01*
X105196224Y-53531255D01*
X105166967Y-53339621D01*
X105151191Y-53235000D01*
X105139738Y-53127166D01*
X105130633Y-52974846D01*
X105124104Y-52784311D01*
X105120376Y-52561828D01*
X105119570Y-52358700D01*
X105120288Y-52148759D01*
X105122174Y-51981518D01*
X105125714Y-51848879D01*
X105131392Y-51742745D01*
X105139692Y-51655020D01*
X105151100Y-51577608D01*
X105166100Y-51502412D01*
X105172542Y-51474029D01*
X105224679Y-51249759D01*
X105171189Y-51230059D01*
X105116194Y-51216144D01*
X105032965Y-51201749D01*
X104975168Y-51194171D01*
X104857721Y-51175487D01*
X104713640Y-51144705D01*
X104559281Y-51106103D01*
X104411001Y-51063961D01*
X104285155Y-51022559D01*
X104219528Y-50996468D01*
X104101260Y-50942895D01*
X104018134Y-50903198D01*
X103958680Y-50871051D01*
X103911426Y-50840128D01*
X103864905Y-50804106D01*
X103852944Y-50794303D01*
X103781159Y-50725206D01*
X103707369Y-50639240D01*
X103678246Y-50599772D01*
X103612028Y-50462963D01*
X103593590Y-50320454D01*
X103621497Y-50179135D01*
X103694312Y-50045893D01*
X103810601Y-49927619D01*
X103819799Y-49920485D01*
X103903724Y-49862428D01*
X103989297Y-49818226D01*
X104085528Y-49785811D01*
X104201427Y-49763111D01*
X104346003Y-49748056D01*
X104528265Y-49738578D01*
X104624572Y-49735591D01*
X104793131Y-49731940D01*
X104931713Y-49731662D01*
X105054780Y-49735714D01*
X105176793Y-49745057D01*
X105312214Y-49760650D01*
X105475504Y-49783451D01*
X105579118Y-49798912D01*
X105659537Y-49811060D01*
X105633719Y-49700580D01*
X105615281Y-49621000D01*
X105590593Y-49513561D01*
X105564636Y-49399947D01*
X105561666Y-49386900D01*
X105522035Y-49213668D01*
X105483798Y-49048787D01*
X105443294Y-48876670D01*
X105396863Y-48681728D01*
X105358864Y-48523300D01*
X105323571Y-48375636D01*
X105287246Y-48222276D01*
X105254319Y-48082000D01*
X105230585Y-47979548D01*
X105207235Y-47881817D01*
X105187003Y-47804691D01*
X105173148Y-47760317D01*
X105170185Y-47754519D01*
X105146245Y-47763680D01*
X105090245Y-47797345D01*
X105011047Y-47849913D01*
X104935003Y-47903199D01*
X104512324Y-48233430D01*
X104133104Y-48588356D01*
X103795133Y-48970419D01*
X103496205Y-49382061D01*
X103290973Y-49721207D01*
X103036706Y-50224000D01*
X102832955Y-50730043D01*
X102679493Y-51240171D01*
X102576091Y-51755222D01*
X102522524Y-52276031D01*
X102514200Y-52580985D01*
X101954288Y-52580985D01*
X101954215Y-52575772D01*
X101955708Y-52350754D01*
X101962035Y-52143940D01*
X101973317Y-51968411D01*
X101980402Y-51900138D01*
X102057292Y-51397411D01*
X102163112Y-50927339D01*
X102301603Y-50478459D01*
X102476507Y-50039312D01*
X102691563Y-49598436D01*
X102791007Y-49416652D01*
X102865609Y-49293092D01*
X102964255Y-49142706D01*
X103078447Y-48977673D01*
X103199684Y-48810173D01*
X103319467Y-48652385D01*
X103361240Y-48599500D01*
X103686767Y-48227828D01*
X104051609Y-47875206D01*
X104445175Y-47551192D01*
X104796401Y-47304100D01*
X104900910Y-47236063D01*
X104969207Y-47185930D01*
X105006504Y-47142194D01*
X105018010Y-47093348D01*
X105008937Y-47027889D01*
X104984493Y-46934308D01*
X104976763Y-46905809D01*
X104950844Y-46809552D01*
X104742172Y-46939955D01*
X104643678Y-47002495D01*
X104554895Y-47060626D01*
X104489344Y-47105420D01*
X104470000Y-47119643D01*
X104416498Y-47160469D01*
X104339657Y-47218285D01*
X104264126Y-47274614D01*
X103974633Y-47499808D01*
X103715578Y-47724955D01*
X103475355Y-47961585D01*
X103242361Y-48221230D01*
X103004992Y-48515421D01*
X102971351Y-48559234D01*
X102844206Y-48731484D01*
X102720548Y-48909595D01*
X102608792Y-49080877D01*
X102517351Y-49232642D01*
X102481480Y-49298000D01*
X102433550Y-49387602D01*
X102387395Y-49471009D01*
X102362623Y-49513900D01*
X102314014Y-49604185D01*
X102255924Y-49726456D01*
X102191531Y-49872489D01*
X102124012Y-50034062D01*
X102056545Y-50202952D01*
X101992308Y-50370937D01*
X101934478Y-50529793D01*
X101886233Y-50671299D01*
X101850750Y-50787232D01*
X101831208Y-50869370D01*
X101828400Y-50896265D01*
X101818173Y-50944154D01*
X101805806Y-50959965D01*
X101786947Y-50992585D01*
X101772029Y-51052637D01*
X101771424Y-51056714D01*
X101760328Y-51122850D01*
X101742282Y-51218594D01*
X101721072Y-51323898D01*
X101719799Y-51330000D01*
X101677096Y-51565877D01*
X101646196Y-51812925D01*
X101626219Y-52081815D01*
X101616283Y-52383217D01*
X101614787Y-52600000D01*
X101455419Y-52600000D01*
X101463870Y-52215559D01*
X101518663Y-51679698D01*
X101616193Y-51140004D01*
X101649807Y-50994452D01*
X101736262Y-50661221D01*
X101827193Y-50363184D01*
X101928192Y-50084746D01*
X102044849Y-49810313D01*
X102162418Y-49564700D01*
X102379674Y-49156539D01*
X102605084Y-48787872D01*
X102846858Y-48447393D01*
X103113206Y-48123796D01*
X103412339Y-47805774D01*
X103508942Y-47710500D01*
X103845329Y-47399938D01*
X104168382Y-47134235D01*
X104476767Y-46914427D01*
X104728022Y-46763546D01*
X104815431Y-46714546D01*
X104867134Y-46678790D01*
X104892491Y-46646079D01*
X104900864Y-46606218D01*
X104901630Y-46574435D01*
X104908048Y-46514912D01*
X104931744Y-46469937D01*
X104979749Y-46435819D01*
X105059092Y-46408870D01*
X105176804Y-46385400D01*
X105295500Y-46367723D01*
X105446561Y-46342292D01*
X105584875Y-46310487D01*
X105693602Y-46276328D01*
X105714600Y-46267710D01*
X105786446Y-46239289D01*
X106298379Y-46239289D01*
X106301891Y-46248691D01*
X106344077Y-46248779D01*
X106428913Y-46238096D01*
X106504113Y-46225522D01*
X106575771Y-46214993D01*
X106686264Y-46201474D01*
X106823810Y-46186285D01*
X106976626Y-46170744D01*
X107086200Y-46160378D01*
X107235552Y-46146488D01*
X107371065Y-46133464D01*
X107483045Y-46122270D01*
X107561799Y-46113870D01*
X107594200Y-46109837D01*
X107642208Y-46104376D01*
X107729548Y-46096289D01*
X107844883Y-46086560D01*
X107976872Y-46076174D01*
X108013300Y-46073429D01*
X108181053Y-46060814D01*
X108367320Y-46046649D01*
X108548225Y-46032759D01*
X108686400Y-46022024D01*
X108817187Y-46012049D01*
X108937604Y-46003351D01*
X109034159Y-45996876D01*
X109092800Y-45993588D01*
X109139384Y-45990664D01*
X109144779Y-45985565D01*
X109105638Y-45975862D01*
X109054700Y-45965929D01*
X108993104Y-45958916D01*
X108889713Y-45952407D01*
X108753535Y-45946738D01*
X108593573Y-45942247D01*
X108418833Y-45939269D01*
X108318100Y-45938389D01*
X108027952Y-45939241D01*
X107778044Y-45945855D01*
X107558060Y-45959003D01*
X107357686Y-45979455D01*
X107166607Y-46007984D01*
X107022700Y-46035245D01*
X106866816Y-46068993D01*
X106721775Y-46103640D01*
X106591554Y-46137726D01*
X106480128Y-46169793D01*
X106391473Y-46198381D01*
X106329565Y-46222033D01*
X106298379Y-46239289D01*
X105786446Y-46239289D01*
X105855979Y-46211783D01*
X106035419Y-46150560D01*
X106240934Y-46087462D01*
X106460537Y-46025911D01*
X106682243Y-45969327D01*
X106894066Y-45921132D01*
X107010000Y-45897933D01*
X107425189Y-45831071D01*
X107829732Y-45787539D01*
X108209188Y-45768789D01*
X108301741Y-45768151D01*
X108425175Y-45771218D01*
G36*
X108680809Y-44717653D02*
G01*
X108754501Y-44721644D01*
X109091004Y-44746051D01*
X109394889Y-44779139D01*
X109683983Y-44823578D01*
X109976112Y-44882040D01*
X110235233Y-44943523D01*
X110403268Y-44987954D01*
X110581037Y-45038743D01*
X110756912Y-45092236D01*
X110919266Y-45144780D01*
X111056474Y-45192720D01*
X111156908Y-45232402D01*
X111162900Y-45235063D01*
X111207089Y-45254526D01*
X111285297Y-45288617D01*
X111384897Y-45331840D01*
X111455000Y-45362175D01*
X112001081Y-45625378D01*
X112529433Y-45934501D01*
X113035441Y-46286383D01*
X113514491Y-46677864D01*
X113880786Y-47023023D01*
X114112172Y-47262962D01*
X114320616Y-47496461D01*
X114514015Y-47733801D01*
X114700264Y-47985261D01*
X114887260Y-48261121D01*
X115082898Y-48571660D01*
X115130640Y-48650217D01*
X115152686Y-48690214D01*
X115192722Y-48766132D01*
X115245840Y-48868545D01*
X115307133Y-48988025D01*
X115335643Y-49044000D01*
X115558475Y-49518794D01*
X115744644Y-49996817D01*
X115897548Y-50488838D01*
X116020579Y-51005627D01*
X116107102Y-51491198D01*
X116124173Y-51609781D01*
X116137471Y-51722305D01*
X116147463Y-51837772D01*
X116154616Y-51965181D01*
X116159397Y-52113535D01*
X116162272Y-52291835D01*
X116163707Y-52509082D01*
X116163937Y-52587300D01*
X116162913Y-52874445D01*
X116157652Y-53122487D01*
X116147014Y-53343029D01*
X116129862Y-53547674D01*
X116105056Y-53748023D01*
X116071457Y-53955679D01*
X116027927Y-54182245D01*
X115989430Y-54365300D01*
X115866613Y-54840727D01*
X115702606Y-55327607D01*
X115502167Y-55815729D01*
X115270053Y-56294880D01*
X115011021Y-56754845D01*
X114729830Y-57185414D01*
X114581330Y-57387900D01*
X114175194Y-57878485D01*
X113735988Y-58331137D01*
X113265704Y-58744680D01*
X112766335Y-59117938D01*
X112239874Y-59449736D01*
X111688313Y-59738900D01*
X111113645Y-59984253D01*
X110517864Y-60184620D01*
X109902961Y-60338826D01*
X109435700Y-60422693D01*
X109272257Y-60442357D01*
X109069680Y-60459167D01*
X108839573Y-60472790D01*
X108593538Y-60482895D01*
X108343180Y-60489149D01*
X108100101Y-60491220D01*
X107875904Y-60488776D01*
X107682193Y-60481485D01*
X107594200Y-60475402D01*
X107293201Y-60442351D01*
X106970865Y-60393480D01*
X106645625Y-60332231D01*
X106335910Y-60262044D01*
X106082900Y-60193248D01*
X105979826Y-60162393D01*
X105883113Y-60133498D01*
X105816200Y-60113563D01*
X105629298Y-60050922D01*
X105410577Y-59965763D01*
X105170902Y-59863108D01*
X104921139Y-59747982D01*
X104672155Y-59625407D01*
X104434815Y-59500406D01*
X104219986Y-59378001D01*
X104203300Y-59367990D01*
X103678353Y-59022363D01*
X103183979Y-58637310D01*
X102722446Y-58215339D01*
X102296023Y-57758960D01*
X101906979Y-57270681D01*
X101557585Y-56753010D01*
X101250109Y-56208456D01*
X101136780Y-55978200D01*
X100895443Y-55408029D01*
X100700024Y-54820050D01*
X100550925Y-54218287D01*
X100448551Y-53606767D01*
X100393303Y-52989514D01*
X100387384Y-52514756D01*
X100649310Y-52514756D01*
X100650135Y-52767615D01*
X100655792Y-53012906D01*
X100666288Y-53239000D01*
X100681628Y-53434269D01*
X100693175Y-53531900D01*
X100794252Y-54125223D01*
X100927614Y-54683023D01*
X101094629Y-55210087D01*
X101296663Y-55711200D01*
X101347595Y-55821941D01*
X101391249Y-55915836D01*
X101425212Y-55991069D01*
X101444643Y-56036812D01*
X101447400Y-56045309D01*
X101460074Y-56076491D01*
X101494877Y-56142570D01*
X101546976Y-56235387D01*
X101611538Y-56346782D01*
X101683731Y-56468597D01*
X101758723Y-56592673D01*
X101831681Y-56710850D01*
X101897773Y-56814971D01*
X101949228Y-56892600D01*
X102324407Y-57396005D01*
X102733738Y-57862770D01*
X103175062Y-58291652D01*
X103646216Y-58681406D01*
X104145040Y-59030789D01*
X104669372Y-59338558D01*
X105217051Y-59603469D01*
X105785916Y-59824277D01*
X106373806Y-59999740D01*
X106978560Y-60128614D01*
X107598016Y-60209655D01*
X107732663Y-60220693D01*
X107901657Y-60228828D01*
X108106569Y-60231985D01*
X108332793Y-60230475D01*
X108565723Y-60224607D01*
X108790755Y-60214694D01*
X108993280Y-60201045D01*
X109092800Y-60191740D01*
X109670771Y-60107861D01*
X110239783Y-59979230D01*
X110807496Y-59803935D01*
X111131791Y-59683060D01*
X111677349Y-59440401D01*
X112202065Y-59153218D01*
X112703067Y-58824399D01*
X113177485Y-58456831D01*
X113622447Y-58053403D01*
X114035084Y-57617003D01*
X114412524Y-57150516D01*
X114751898Y-56656833D01*
X115050334Y-56138839D01*
X115304961Y-55599423D01*
X115382968Y-55406700D01*
X115589283Y-54806109D01*
X115745439Y-54199526D01*
X115851479Y-53588715D01*
X115907450Y-52975441D01*
X115913396Y-52361469D01*
X115869361Y-51748563D01*
X115775390Y-51138487D01*
X115631527Y-50533008D01*
X115437819Y-49933888D01*
X115231361Y-49425000D01*
X114972425Y-48904199D01*
X114668763Y-48402392D01*
X114323933Y-47923023D01*
X113941494Y-47469538D01*
X113525003Y-47045381D01*
X113078021Y-46653996D01*
X112604105Y-46298828D01*
X112106813Y-45983323D01*
X111589705Y-45710924D01*
X111231912Y-45553430D01*
X110855722Y-45409101D01*
X110494669Y-45289035D01*
X110134390Y-45189490D01*
X109760525Y-45106723D01*
X109358712Y-45036989D01*
X109118200Y-45002513D01*
X108992771Y-44990290D01*
X108827446Y-44980964D01*
X108633045Y-44974544D01*
X108420389Y-44971037D01*
X108200298Y-44970451D01*
X107983594Y-44972793D01*
X107781098Y-44978073D01*
X107603631Y-44986297D01*
X107462012Y-44997474D01*
X107429100Y-45001281D01*
X106788258Y-45106952D01*
X106170260Y-45257375D01*
X105576132Y-45451945D01*
X105006901Y-45690057D01*
X104463592Y-45971105D01*
X103947232Y-46294485D01*
X103458848Y-46659590D01*
X102999465Y-47065816D01*
X102570110Y-47512557D01*
X102171810Y-47999207D01*
X102038827Y-48180400D01*
X101725710Y-48655585D01*
X101453605Y-49146895D01*
X101220870Y-49658584D01*
X101025858Y-50194910D01*
X100866925Y-50760127D01*
X100742427Y-51358492D01*
X100694203Y-51660200D01*
X100675764Y-51827050D01*
X100662131Y-52032845D01*
X100653311Y-52265957D01*
X100649310Y-52514756D01*
X100387384Y-52514756D01*
X100385586Y-52370555D01*
X100425803Y-51753914D01*
X100514357Y-51143616D01*
X100608939Y-50707700D01*
X100785693Y-50099044D01*
X101007921Y-49511125D01*
X101274102Y-48946108D01*
X101582715Y-48406154D01*
X101932240Y-47893426D01*
X102321157Y-47410090D01*
X102747943Y-46958306D01*
X103211079Y-46540239D01*
X103709044Y-46158052D01*
X103898500Y-46028367D01*
X104446747Y-45693988D01*
X105010219Y-45408047D01*
X105588381Y-45170688D01*
X106180698Y-44982054D01*
X106786634Y-44842289D01*
X107405655Y-44751538D01*
X108037225Y-44709945D01*
X108680809Y-44717653D01*
G37*
X108680809Y-44717653D02*
X108754501Y-44721644D01*
X109091004Y-44746051D01*
X109394889Y-44779139D01*
X109683983Y-44823578D01*
X109976112Y-44882040D01*
X110235233Y-44943523D01*
X110403268Y-44987954D01*
X110581037Y-45038743D01*
X110756912Y-45092236D01*
X110919266Y-45144780D01*
X111056474Y-45192720D01*
X111156908Y-45232402D01*
X111162900Y-45235063D01*
X111207089Y-45254526D01*
X111285297Y-45288617D01*
X111384897Y-45331840D01*
X111455000Y-45362175D01*
X112001081Y-45625378D01*
X112529433Y-45934501D01*
X113035441Y-46286383D01*
X113514491Y-46677864D01*
X113880786Y-47023023D01*
X114112172Y-47262962D01*
X114320616Y-47496461D01*
X114514015Y-47733801D01*
X114700264Y-47985261D01*
X114887260Y-48261121D01*
X115082898Y-48571660D01*
X115130640Y-48650217D01*
X115152686Y-48690214D01*
X115192722Y-48766132D01*
X115245840Y-48868545D01*
X115307133Y-48988025D01*
X115335643Y-49044000D01*
X115558475Y-49518794D01*
X115744644Y-49996817D01*
X115897548Y-50488838D01*
X116020579Y-51005627D01*
X116107102Y-51491198D01*
X116124173Y-51609781D01*
X116137471Y-51722305D01*
X116147463Y-51837772D01*
X116154616Y-51965181D01*
X116159397Y-52113535D01*
X116162272Y-52291835D01*
X116163707Y-52509082D01*
X116163937Y-52587300D01*
X116162913Y-52874445D01*
X116157652Y-53122487D01*
X116147014Y-53343029D01*
X116129862Y-53547674D01*
X116105056Y-53748023D01*
X116071457Y-53955679D01*
X116027927Y-54182245D01*
X115989430Y-54365300D01*
X115866613Y-54840727D01*
X115702606Y-55327607D01*
X115502167Y-55815729D01*
X115270053Y-56294880D01*
X115011021Y-56754845D01*
X114729830Y-57185414D01*
X114581330Y-57387900D01*
X114175194Y-57878485D01*
X113735988Y-58331137D01*
X113265704Y-58744680D01*
X112766335Y-59117938D01*
X112239874Y-59449736D01*
X111688313Y-59738900D01*
X111113645Y-59984253D01*
X110517864Y-60184620D01*
X109902961Y-60338826D01*
X109435700Y-60422693D01*
X109272257Y-60442357D01*
X109069680Y-60459167D01*
X108839573Y-60472790D01*
X108593538Y-60482895D01*
X108343180Y-60489149D01*
X108100101Y-60491220D01*
X107875904Y-60488776D01*
X107682193Y-60481485D01*
X107594200Y-60475402D01*
X107293201Y-60442351D01*
X106970865Y-60393480D01*
X106645625Y-60332231D01*
X106335910Y-60262044D01*
X106082900Y-60193248D01*
X105979826Y-60162393D01*
X105883113Y-60133498D01*
X105816200Y-60113563D01*
X105629298Y-60050922D01*
X105410577Y-59965763D01*
X105170902Y-59863108D01*
X104921139Y-59747982D01*
X104672155Y-59625407D01*
X104434815Y-59500406D01*
X104219986Y-59378001D01*
X104203300Y-59367990D01*
X103678353Y-59022363D01*
X103183979Y-58637310D01*
X102722446Y-58215339D01*
X102296023Y-57758960D01*
X101906979Y-57270681D01*
X101557585Y-56753010D01*
X101250109Y-56208456D01*
X101136780Y-55978200D01*
X100895443Y-55408029D01*
X100700024Y-54820050D01*
X100550925Y-54218287D01*
X100448551Y-53606767D01*
X100393303Y-52989514D01*
X100387384Y-52514756D01*
X100649310Y-52514756D01*
X100650135Y-52767615D01*
X100655792Y-53012906D01*
X100666288Y-53239000D01*
X100681628Y-53434269D01*
X100693175Y-53531900D01*
X100794252Y-54125223D01*
X100927614Y-54683023D01*
X101094629Y-55210087D01*
X101296663Y-55711200D01*
X101347595Y-55821941D01*
X101391249Y-55915836D01*
X101425212Y-55991069D01*
X101444643Y-56036812D01*
X101447400Y-56045309D01*
X101460074Y-56076491D01*
X101494877Y-56142570D01*
X101546976Y-56235387D01*
X101611538Y-56346782D01*
X101683731Y-56468597D01*
X101758723Y-56592673D01*
X101831681Y-56710850D01*
X101897773Y-56814971D01*
X101949228Y-56892600D01*
X102324407Y-57396005D01*
X102733738Y-57862770D01*
X103175062Y-58291652D01*
X103646216Y-58681406D01*
X104145040Y-59030789D01*
X104669372Y-59338558D01*
X105217051Y-59603469D01*
X105785916Y-59824277D01*
X106373806Y-59999740D01*
X106978560Y-60128614D01*
X107598016Y-60209655D01*
X107732663Y-60220693D01*
X107901657Y-60228828D01*
X108106569Y-60231985D01*
X108332793Y-60230475D01*
X108565723Y-60224607D01*
X108790755Y-60214694D01*
X108993280Y-60201045D01*
X109092800Y-60191740D01*
X109670771Y-60107861D01*
X110239783Y-59979230D01*
X110807496Y-59803935D01*
X111131791Y-59683060D01*
X111677349Y-59440401D01*
X112202065Y-59153218D01*
X112703067Y-58824399D01*
X113177485Y-58456831D01*
X113622447Y-58053403D01*
X114035084Y-57617003D01*
X114412524Y-57150516D01*
X114751898Y-56656833D01*
X115050334Y-56138839D01*
X115304961Y-55599423D01*
X115382968Y-55406700D01*
X115589283Y-54806109D01*
X115745439Y-54199526D01*
X115851479Y-53588715D01*
X115907450Y-52975441D01*
X115913396Y-52361469D01*
X115869361Y-51748563D01*
X115775390Y-51138487D01*
X115631527Y-50533008D01*
X115437819Y-49933888D01*
X115231361Y-49425000D01*
X114972425Y-48904199D01*
X114668763Y-48402392D01*
X114323933Y-47923023D01*
X113941494Y-47469538D01*
X113525003Y-47045381D01*
X113078021Y-46653996D01*
X112604105Y-46298828D01*
X112106813Y-45983323D01*
X111589705Y-45710924D01*
X111231912Y-45553430D01*
X110855722Y-45409101D01*
X110494669Y-45289035D01*
X110134390Y-45189490D01*
X109760525Y-45106723D01*
X109358712Y-45036989D01*
X109118200Y-45002513D01*
X108992771Y-44990290D01*
X108827446Y-44980964D01*
X108633045Y-44974544D01*
X108420389Y-44971037D01*
X108200298Y-44970451D01*
X107983594Y-44972793D01*
X107781098Y-44978073D01*
X107603631Y-44986297D01*
X107462012Y-44997474D01*
X107429100Y-45001281D01*
X106788258Y-45106952D01*
X106170260Y-45257375D01*
X105576132Y-45451945D01*
X105006901Y-45690057D01*
X104463592Y-45971105D01*
X103947232Y-46294485D01*
X103458848Y-46659590D01*
X102999465Y-47065816D01*
X102570110Y-47512557D01*
X102171810Y-47999207D01*
X102038827Y-48180400D01*
X101725710Y-48655585D01*
X101453605Y-49146895D01*
X101220870Y-49658584D01*
X101025858Y-50194910D01*
X100866925Y-50760127D01*
X100742427Y-51358492D01*
X100694203Y-51660200D01*
X100675764Y-51827050D01*
X100662131Y-52032845D01*
X100653311Y-52265957D01*
X100649310Y-52514756D01*
X100387384Y-52514756D01*
X100385586Y-52370555D01*
X100425803Y-51753914D01*
X100514357Y-51143616D01*
X100608939Y-50707700D01*
X100785693Y-50099044D01*
X101007921Y-49511125D01*
X101274102Y-48946108D01*
X101582715Y-48406154D01*
X101932240Y-47893426D01*
X102321157Y-47410090D01*
X102747943Y-46958306D01*
X103211079Y-46540239D01*
X103709044Y-46158052D01*
X103898500Y-46028367D01*
X104446747Y-45693988D01*
X105010219Y-45408047D01*
X105588381Y-45170688D01*
X106180698Y-44982054D01*
X106786634Y-44842289D01*
X107405655Y-44751538D01*
X108037225Y-44709945D01*
X108680809Y-44717653D01*
D12*
%TO.C,J5*%
X100108000Y-87489000D02*
X100108000Y-88114000D01*
X100108000Y-88114000D02*
X96988000Y-88114000D01*
X96988000Y-88114000D02*
X96988000Y-87198493D01*
X99758000Y-88114000D02*
X99758000Y-90114000D01*
X99758000Y-90114000D02*
X99338000Y-90114000D01*
X99338000Y-90114000D02*
X99338000Y-88114000D01*
X99698000Y-88114000D02*
X99698000Y-90114000D01*
X99578000Y-88114000D02*
X99578000Y-90114000D01*
X99458000Y-88114000D02*
X99458000Y-90114000D01*
X99048000Y-87489000D02*
X99048000Y-88114000D01*
X98758000Y-88114000D02*
X98758000Y-90114000D01*
X98758000Y-90114000D02*
X98338000Y-90114000D01*
X98338000Y-90114000D02*
X98338000Y-88114000D01*
X98048000Y-87272215D02*
X98048000Y-88114000D01*
X97758000Y-88114000D02*
X97758000Y-90114000D01*
X97758000Y-90114000D02*
X97338000Y-90114000D01*
X97338000Y-90114000D02*
X97338000Y-88114000D01*
X99548000Y-86119000D02*
X100233000Y-86119000D01*
X100233000Y-86119000D02*
X100233000Y-86804000D01*
%TO.C,J6*%
X95790000Y-87489000D02*
X95790000Y-88114000D01*
X95790000Y-88114000D02*
X93670000Y-88114000D01*
X93670000Y-88114000D02*
X93670000Y-87198493D01*
X95440000Y-88114000D02*
X95440000Y-90114000D01*
X95440000Y-90114000D02*
X95020000Y-90114000D01*
X95020000Y-90114000D02*
X95020000Y-88114000D01*
X95380000Y-88114000D02*
X95380000Y-90114000D01*
X95260000Y-88114000D02*
X95260000Y-90114000D01*
X95140000Y-88114000D02*
X95140000Y-90114000D01*
X94730000Y-87489000D02*
X94730000Y-88114000D01*
X94440000Y-88114000D02*
X94440000Y-90114000D01*
X94440000Y-90114000D02*
X94020000Y-90114000D01*
X94020000Y-90114000D02*
X94020000Y-88114000D01*
X95230000Y-86119000D02*
X95915000Y-86119000D01*
X95915000Y-86119000D02*
X95915000Y-86804000D01*
%TO.C,J7*%
X38500000Y-38220000D02*
X38500000Y-36890000D01*
X39830000Y-38220000D02*
X38500000Y-38220000D01*
X38500000Y-35620000D02*
X38500000Y-33020000D01*
X41100000Y-35620000D02*
X38500000Y-35620000D01*
X41100000Y-38220000D02*
X41100000Y-35620000D01*
X38500000Y-33020000D02*
X89420000Y-33020000D01*
X41100000Y-38220000D02*
X89420000Y-38220000D01*
X89420000Y-38220000D02*
X89420000Y-33020000D01*
D13*
%TO.C,J8*%
X92690000Y-80148000D02*
X82530000Y-80148000D01*
X92690000Y-80148000D02*
X92690000Y-87348000D01*
X92690000Y-79148000D02*
X92690000Y-80148000D01*
X82530000Y-79148000D02*
X92690000Y-79148000D01*
X82530000Y-80148000D02*
X82530000Y-79148000D01*
X82530000Y-87348000D02*
X82530000Y-80148000D01*
X92690000Y-87348000D02*
X82530000Y-87348000D01*
D12*
%TO.C,R13*%
X106000000Y-71148748D02*
X106000000Y-71671252D01*
X107420000Y-71148748D02*
X107420000Y-71671252D01*
%TO.C,R12*%
X107420000Y-75481252D02*
X107420000Y-74958748D01*
X106000000Y-75481252D02*
X106000000Y-74958748D01*
D14*
%TO.C,U3*%
X47535000Y-80730000D02*
X47535000Y-80530000D01*
X43385000Y-80730000D02*
X43385000Y-80530000D01*
X43385000Y-75580000D02*
X43385000Y-75780000D01*
X47535000Y-75580000D02*
X47535000Y-75780000D01*
X47535000Y-80730000D02*
X43385000Y-80730000D01*
X47535000Y-75580000D02*
X43385000Y-75580000D01*
X47535000Y-80530000D02*
X48835000Y-80530000D01*
D12*
%TO.C,R11*%
X37908733Y-79690000D02*
X38251267Y-79690000D01*
X37908733Y-80710000D02*
X38251267Y-80710000D01*
%TO.C,R10*%
X34780000Y-77488733D02*
X34780000Y-77831267D01*
X33760000Y-77488733D02*
X33760000Y-77831267D01*
%TO.C,R9*%
X45961252Y-74560000D02*
X45438748Y-74560000D01*
X45961252Y-73140000D02*
X45438748Y-73140000D01*
%TO.C,D9*%
X51580000Y-68035000D02*
X49120000Y-68035000D01*
X49120000Y-68035000D02*
X49120000Y-69505000D01*
X49120000Y-69505000D02*
X51580000Y-69505000D01*
%TO.C,C12*%
X40100000Y-71310000D02*
G75*
G03*
X40100000Y-71310000I-3270000J0D01*
G01*
X36830000Y-74540000D02*
X36830000Y-68080000D01*
X36790000Y-74540000D02*
X36790000Y-68080000D01*
X36750000Y-74540000D02*
X36750000Y-68080000D01*
X36710000Y-74538000D02*
X36710000Y-68082000D01*
X36670000Y-74537000D02*
X36670000Y-68083000D01*
X36630000Y-74534000D02*
X36630000Y-68086000D01*
X36590000Y-74532000D02*
X36590000Y-72350000D01*
X36590000Y-70270000D02*
X36590000Y-68088000D01*
X36550000Y-74528000D02*
X36550000Y-72350000D01*
X36550000Y-70270000D02*
X36550000Y-68092000D01*
X36510000Y-74525000D02*
X36510000Y-72350000D01*
X36510000Y-70270000D02*
X36510000Y-68095000D01*
X36470000Y-74521000D02*
X36470000Y-72350000D01*
X36470000Y-70270000D02*
X36470000Y-68099000D01*
X36430000Y-74516000D02*
X36430000Y-72350000D01*
X36430000Y-70270000D02*
X36430000Y-68104000D01*
X36390000Y-74511000D02*
X36390000Y-72350000D01*
X36390000Y-70270000D02*
X36390000Y-68109000D01*
X36350000Y-74505000D02*
X36350000Y-72350000D01*
X36350000Y-70270000D02*
X36350000Y-68115000D01*
X36310000Y-74499000D02*
X36310000Y-72350000D01*
X36310000Y-70270000D02*
X36310000Y-68121000D01*
X36270000Y-74492000D02*
X36270000Y-72350000D01*
X36270000Y-70270000D02*
X36270000Y-68128000D01*
X36230000Y-74485000D02*
X36230000Y-72350000D01*
X36230000Y-70270000D02*
X36230000Y-68135000D01*
X36190000Y-74477000D02*
X36190000Y-72350000D01*
X36190000Y-70270000D02*
X36190000Y-68143000D01*
X36150000Y-74469000D02*
X36150000Y-72350000D01*
X36150000Y-70270000D02*
X36150000Y-68151000D01*
X36109000Y-74460000D02*
X36109000Y-72350000D01*
X36109000Y-70270000D02*
X36109000Y-68160000D01*
X36069000Y-74451000D02*
X36069000Y-72350000D01*
X36069000Y-70270000D02*
X36069000Y-68169000D01*
X36029000Y-74441000D02*
X36029000Y-72350000D01*
X36029000Y-70270000D02*
X36029000Y-68179000D01*
X35989000Y-74431000D02*
X35989000Y-72350000D01*
X35989000Y-70270000D02*
X35989000Y-68189000D01*
X35949000Y-74420000D02*
X35949000Y-72350000D01*
X35949000Y-70270000D02*
X35949000Y-68200000D01*
X35909000Y-74408000D02*
X35909000Y-72350000D01*
X35909000Y-70270000D02*
X35909000Y-68212000D01*
X35869000Y-74396000D02*
X35869000Y-72350000D01*
X35869000Y-70270000D02*
X35869000Y-68224000D01*
X35829000Y-74384000D02*
X35829000Y-72350000D01*
X35829000Y-70270000D02*
X35829000Y-68236000D01*
X35789000Y-74371000D02*
X35789000Y-72350000D01*
X35789000Y-70270000D02*
X35789000Y-68249000D01*
X35749000Y-74357000D02*
X35749000Y-72350000D01*
X35749000Y-70270000D02*
X35749000Y-68263000D01*
X35709000Y-74343000D02*
X35709000Y-72350000D01*
X35709000Y-70270000D02*
X35709000Y-68277000D01*
X35669000Y-74328000D02*
X35669000Y-72350000D01*
X35669000Y-70270000D02*
X35669000Y-68292000D01*
X35629000Y-74312000D02*
X35629000Y-72350000D01*
X35629000Y-70270000D02*
X35629000Y-68308000D01*
X35589000Y-74296000D02*
X35589000Y-72350000D01*
X35589000Y-70270000D02*
X35589000Y-68324000D01*
X35549000Y-74280000D02*
X35549000Y-72350000D01*
X35549000Y-70270000D02*
X35549000Y-68340000D01*
X35509000Y-74262000D02*
X35509000Y-72350000D01*
X35509000Y-70270000D02*
X35509000Y-68358000D01*
X35469000Y-74244000D02*
X35469000Y-72350000D01*
X35469000Y-70270000D02*
X35469000Y-68376000D01*
X35429000Y-74226000D02*
X35429000Y-72350000D01*
X35429000Y-70270000D02*
X35429000Y-68394000D01*
X35389000Y-74206000D02*
X35389000Y-72350000D01*
X35389000Y-70270000D02*
X35389000Y-68414000D01*
X35349000Y-74186000D02*
X35349000Y-72350000D01*
X35349000Y-70270000D02*
X35349000Y-68434000D01*
X35309000Y-74166000D02*
X35309000Y-72350000D01*
X35309000Y-70270000D02*
X35309000Y-68454000D01*
X35269000Y-74144000D02*
X35269000Y-72350000D01*
X35269000Y-70270000D02*
X35269000Y-68476000D01*
X35229000Y-74122000D02*
X35229000Y-72350000D01*
X35229000Y-70270000D02*
X35229000Y-68498000D01*
X35189000Y-74100000D02*
X35189000Y-72350000D01*
X35189000Y-70270000D02*
X35189000Y-68520000D01*
X35149000Y-74076000D02*
X35149000Y-72350000D01*
X35149000Y-70270000D02*
X35149000Y-68544000D01*
X35109000Y-74052000D02*
X35109000Y-72350000D01*
X35109000Y-70270000D02*
X35109000Y-68568000D01*
X35069000Y-74026000D02*
X35069000Y-72350000D01*
X35069000Y-70270000D02*
X35069000Y-68594000D01*
X35029000Y-74000000D02*
X35029000Y-72350000D01*
X35029000Y-70270000D02*
X35029000Y-68620000D01*
X34989000Y-73974000D02*
X34989000Y-72350000D01*
X34989000Y-70270000D02*
X34989000Y-68646000D01*
X34949000Y-73946000D02*
X34949000Y-72350000D01*
X34949000Y-70270000D02*
X34949000Y-68674000D01*
X34909000Y-73917000D02*
X34909000Y-72350000D01*
X34909000Y-70270000D02*
X34909000Y-68703000D01*
X34869000Y-73888000D02*
X34869000Y-72350000D01*
X34869000Y-70270000D02*
X34869000Y-68732000D01*
X34829000Y-73858000D02*
X34829000Y-72350000D01*
X34829000Y-70270000D02*
X34829000Y-68762000D01*
X34789000Y-73826000D02*
X34789000Y-72350000D01*
X34789000Y-70270000D02*
X34789000Y-68794000D01*
X34749000Y-73794000D02*
X34749000Y-72350000D01*
X34749000Y-70270000D02*
X34749000Y-68826000D01*
X34709000Y-73760000D02*
X34709000Y-72350000D01*
X34709000Y-70270000D02*
X34709000Y-68860000D01*
X34669000Y-73726000D02*
X34669000Y-72350000D01*
X34669000Y-70270000D02*
X34669000Y-68894000D01*
X34629000Y-73690000D02*
X34629000Y-72350000D01*
X34629000Y-70270000D02*
X34629000Y-68930000D01*
X34589000Y-73653000D02*
X34589000Y-72350000D01*
X34589000Y-70270000D02*
X34589000Y-68967000D01*
X34549000Y-73615000D02*
X34549000Y-72350000D01*
X34549000Y-70270000D02*
X34549000Y-69005000D01*
X34509000Y-73575000D02*
X34509000Y-69045000D01*
X34469000Y-73534000D02*
X34469000Y-69086000D01*
X34429000Y-73492000D02*
X34429000Y-69128000D01*
X34389000Y-73447000D02*
X34389000Y-69173000D01*
X34349000Y-73402000D02*
X34349000Y-69218000D01*
X34309000Y-73354000D02*
X34309000Y-69266000D01*
X34269000Y-73305000D02*
X34269000Y-69315000D01*
X34229000Y-73254000D02*
X34229000Y-69366000D01*
X34189000Y-73200000D02*
X34189000Y-69420000D01*
X34149000Y-73144000D02*
X34149000Y-69476000D01*
X34109000Y-73086000D02*
X34109000Y-69534000D01*
X34069000Y-73024000D02*
X34069000Y-69596000D01*
X34029000Y-72960000D02*
X34029000Y-69660000D01*
X33989000Y-72891000D02*
X33989000Y-69729000D01*
X33949000Y-72819000D02*
X33949000Y-69801000D01*
X33909000Y-72742000D02*
X33909000Y-69878000D01*
X33869000Y-72660000D02*
X33869000Y-69960000D01*
X33829000Y-72572000D02*
X33829000Y-70048000D01*
X33789000Y-72475000D02*
X33789000Y-70145000D01*
X33749000Y-72369000D02*
X33749000Y-70251000D01*
X33709000Y-72250000D02*
X33709000Y-70370000D01*
X33669000Y-72112000D02*
X33669000Y-70508000D01*
X33629000Y-71943000D02*
X33629000Y-70677000D01*
X33589000Y-71712000D02*
X33589000Y-70908000D01*
X40330241Y-73149000D02*
X39700241Y-73149000D01*
X40015241Y-73464000D02*
X40015241Y-72834000D01*
%TO.C,C11*%
X51490000Y-77398748D02*
X51490000Y-77921252D01*
X50070000Y-77398748D02*
X50070000Y-77921252D01*
%TO.C,C10*%
X38341252Y-77100000D02*
X37818748Y-77100000D01*
X38341252Y-75680000D02*
X37818748Y-75680000D01*
%TO.C,C9*%
X46206252Y-72020000D02*
X45683748Y-72020000D01*
X46206252Y-70600000D02*
X45683748Y-70600000D01*
%TO.C,C8*%
X50220000Y-72318748D02*
X50220000Y-72841252D01*
X48800000Y-72318748D02*
X48800000Y-72841252D01*
%TO.C,C7*%
X46206252Y-69480000D02*
X45683748Y-69480000D01*
X46206252Y-68060000D02*
X45683748Y-68060000D01*
%TO.C,D7*%
X87850000Y-40650000D02*
X87850000Y-40400000D01*
X87850000Y-40400000D02*
X86150000Y-40400000D01*
X86150000Y-40400000D02*
X86150000Y-40650000D01*
D15*
G36*
X87000000Y-41650000D02*
G01*
X86700000Y-41650000D01*
X86700000Y-40850000D01*
X87000000Y-40850000D01*
X87000000Y-41650000D01*
G37*
X87000000Y-41650000D02*
X86700000Y-41650000D01*
X86700000Y-40850000D01*
X87000000Y-40850000D01*
X87000000Y-41650000D01*
D12*
%TO.C,D8*%
X92850000Y-40650000D02*
X92850000Y-40400000D01*
X92850000Y-40400000D02*
X91150000Y-40400000D01*
X91150000Y-40400000D02*
X91150000Y-40650000D01*
D15*
G36*
X92000000Y-41650000D02*
G01*
X91700000Y-41650000D01*
X91700000Y-40850000D01*
X92000000Y-40850000D01*
X92000000Y-41650000D01*
G37*
X92000000Y-41650000D02*
X91700000Y-41650000D01*
X91700000Y-40850000D01*
X92000000Y-40850000D01*
X92000000Y-41650000D01*
%TO.C,D2*%
X40174000Y-46876000D02*
X40174000Y-47892000D01*
X50334000Y-49416000D02*
X49318000Y-49416000D01*
X40682000Y-47384000D02*
X39666000Y-47384000D01*
D12*
X49300000Y-48400000D02*
G75*
G03*
X49300000Y-48400000I-4300000J0D01*
G01*
X49445000Y-48527000D02*
X52580000Y-48527000D01*
X53255000Y-47852000D02*
X53255000Y-46281000D01*
X52580000Y-45606000D02*
X48429000Y-45606000D01*
X52580000Y-45606000D02*
G75*
G02*
X53255000Y-46281000I0J-675000D01*
G01*
X53255000Y-47852000D02*
G75*
G02*
X52580000Y-48527000I-675000J0D01*
G01*
D15*
%TO.C,D3*%
X49826000Y-61924000D02*
X49826000Y-60908000D01*
X39666000Y-59384000D02*
X40682000Y-59384000D01*
X49318000Y-61416000D02*
X50334000Y-61416000D01*
D12*
X49300000Y-60400000D02*
G75*
G03*
X49300000Y-60400000I-4300000J0D01*
G01*
X40555000Y-60273000D02*
X37420000Y-60273000D01*
X36745000Y-60948000D02*
X36745000Y-62519000D01*
X37420000Y-63194000D02*
X41571000Y-63194000D01*
X37420000Y-63194000D02*
G75*
G02*
X36745000Y-62519000I0J675000D01*
G01*
X36745000Y-60948000D02*
G75*
G02*
X37420000Y-60273000I675000J0D01*
G01*
D15*
%TO.C,D5*%
X90174000Y-46876000D02*
X90174000Y-47892000D01*
X100334000Y-49416000D02*
X99318000Y-49416000D01*
X90682000Y-47384000D02*
X89666000Y-47384000D01*
D12*
X99300000Y-48400000D02*
G75*
G03*
X99300000Y-48400000I-4300000J0D01*
G01*
X99445000Y-48527000D02*
X102580000Y-48527000D01*
X103255000Y-47852000D02*
X103255000Y-46281000D01*
X102580000Y-45606000D02*
X98429000Y-45606000D01*
X102580000Y-45606000D02*
G75*
G02*
X103255000Y-46281000I0J-675000D01*
G01*
X103255000Y-47852000D02*
G75*
G02*
X102580000Y-48527000I-675000J0D01*
G01*
D15*
%TO.C,D6*%
X99826000Y-61924000D02*
X99826000Y-60908000D01*
X89666000Y-59384000D02*
X90682000Y-59384000D01*
X99318000Y-61416000D02*
X100334000Y-61416000D01*
D12*
X99300000Y-60400000D02*
G75*
G03*
X99300000Y-60400000I-4300000J0D01*
G01*
X90555000Y-60273000D02*
X87420000Y-60273000D01*
X86745000Y-60948000D02*
X86745000Y-62519000D01*
X87420000Y-63194000D02*
X91571000Y-63194000D01*
X87420000Y-63194000D02*
G75*
G02*
X86745000Y-62519000I0J675000D01*
G01*
X86745000Y-60948000D02*
G75*
G02*
X87420000Y-60273000I675000J0D01*
G01*
%TO.C,C1*%
X51260000Y-64987221D02*
X51260000Y-65312779D01*
X50240000Y-64987221D02*
X50240000Y-65312779D01*
%TO.C,C2*%
X87240000Y-64949721D02*
X87240000Y-65275279D01*
X88260000Y-64949721D02*
X88260000Y-65275279D01*
%TO.C,L1*%
X36640000Y-58102064D02*
X36640000Y-56897936D01*
X39360000Y-58102064D02*
X39360000Y-56897936D01*
%TO.C,L2*%
X89360000Y-58102064D02*
X89360000Y-56897936D01*
X86640000Y-58102064D02*
X86640000Y-56897936D01*
%TO.C,U1*%
X38370000Y-55010000D02*
X40800000Y-55010000D01*
X40130000Y-51940000D02*
X38370000Y-51940000D01*
%TO.C,U2*%
X88370000Y-55010000D02*
X90800000Y-55010000D01*
X90130000Y-51940000D02*
X88370000Y-51940000D01*
%TO.C,D1*%
X34000000Y-56750000D02*
X34000000Y-59950000D01*
X36000000Y-59950000D02*
X36000000Y-56750000D01*
X36000000Y-59950000D02*
X34000000Y-59950000D01*
%TO.C,D4*%
X86000000Y-59950000D02*
X84000000Y-59950000D01*
X86000000Y-59950000D02*
X86000000Y-56750000D01*
X84000000Y-56750000D02*
X84000000Y-59950000D01*
%TO.C,R1*%
X35710000Y-53303922D02*
X35710000Y-53821078D01*
X34290000Y-53303922D02*
X34290000Y-53821078D01*
%TO.C,R2*%
X84290000Y-53303922D02*
X84290000Y-53821078D01*
X85710000Y-53303922D02*
X85710000Y-53821078D01*
%TO.C,C5*%
X52760000Y-64987221D02*
X52760000Y-65312779D01*
X51740000Y-64987221D02*
X51740000Y-65312779D01*
%TO.C,C6*%
X89760000Y-64949721D02*
X89760000Y-65275279D01*
X88740000Y-64949721D02*
X88740000Y-65275279D01*
%TD*%
%TO.C,REF\u002A\u002A*%
D14*
X33276666Y-81172380D02*
X32943333Y-80696190D01*
X32705238Y-81172380D02*
X32705238Y-80172380D01*
X33086190Y-80172380D01*
X33181428Y-80220000D01*
X33229047Y-80267619D01*
X33276666Y-80362857D01*
X33276666Y-80505714D01*
X33229047Y-80600952D01*
X33181428Y-80648571D01*
X33086190Y-80696190D01*
X32705238Y-80696190D01*
X33705238Y-80648571D02*
X34038571Y-80648571D01*
X34181428Y-81172380D02*
X33705238Y-81172380D01*
X33705238Y-80172380D01*
X34181428Y-80172380D01*
X34943333Y-80648571D02*
X34610000Y-80648571D01*
X34610000Y-81172380D02*
X34610000Y-80172380D01*
X35086190Y-80172380D01*
X35610000Y-80172380D02*
X35610000Y-80410476D01*
X35371904Y-80315238D02*
X35610000Y-80410476D01*
X35848095Y-80315238D01*
X35467142Y-80600952D02*
X35610000Y-80410476D01*
X35752857Y-80600952D01*
X36371904Y-80172380D02*
X36371904Y-80410476D01*
X36133809Y-80315238D02*
X36371904Y-80410476D01*
X36610000Y-80315238D01*
X36229047Y-80600952D02*
X36371904Y-80410476D01*
X36514761Y-80600952D01*
%TO.C,J7*%
X36952380Y-35953333D02*
X37666666Y-35953333D01*
X37809523Y-36000952D01*
X37904761Y-36096190D01*
X37952380Y-36239047D01*
X37952380Y-36334285D01*
X36952380Y-35572380D02*
X36952380Y-34905714D01*
X37952380Y-35334285D01*
%TO.C,J8*%
D16*
X88315987Y-85459264D02*
X88315987Y-86175006D01*
X88268270Y-86318154D01*
X88172838Y-86413587D01*
X88029690Y-86461303D01*
X87934257Y-86461303D01*
X88936296Y-85888709D02*
X88840864Y-85840993D01*
X88793148Y-85793277D01*
X88745432Y-85697845D01*
X88745432Y-85650128D01*
X88793148Y-85554696D01*
X88840864Y-85506980D01*
X88936296Y-85459264D01*
X89127161Y-85459264D01*
X89222593Y-85506980D01*
X89270309Y-85554696D01*
X89318026Y-85650128D01*
X89318026Y-85697845D01*
X89270309Y-85793277D01*
X89222593Y-85840993D01*
X89127161Y-85888709D01*
X88936296Y-85888709D01*
X88840864Y-85936425D01*
X88793148Y-85984141D01*
X88745432Y-86079574D01*
X88745432Y-86270438D01*
X88793148Y-86365871D01*
X88840864Y-86413587D01*
X88936296Y-86461303D01*
X89127161Y-86461303D01*
X89222593Y-86413587D01*
X89270309Y-86365871D01*
X89318026Y-86270438D01*
X89318026Y-86079574D01*
X89270309Y-85984141D01*
X89222593Y-85936425D01*
X89127161Y-85888709D01*
%TO.C,R13*%
D14*
X108812380Y-72052857D02*
X108336190Y-72386190D01*
X108812380Y-72624285D02*
X107812380Y-72624285D01*
X107812380Y-72243333D01*
X107860000Y-72148095D01*
X107907619Y-72100476D01*
X108002857Y-72052857D01*
X108145714Y-72052857D01*
X108240952Y-72100476D01*
X108288571Y-72148095D01*
X108336190Y-72243333D01*
X108336190Y-72624285D01*
X108812380Y-71100476D02*
X108812380Y-71671904D01*
X108812380Y-71386190D02*
X107812380Y-71386190D01*
X107955238Y-71481428D01*
X108050476Y-71576666D01*
X108098095Y-71671904D01*
X107812380Y-70767142D02*
X107812380Y-70148095D01*
X108193333Y-70481428D01*
X108193333Y-70338571D01*
X108240952Y-70243333D01*
X108288571Y-70195714D01*
X108383809Y-70148095D01*
X108621904Y-70148095D01*
X108717142Y-70195714D01*
X108764761Y-70243333D01*
X108812380Y-70338571D01*
X108812380Y-70624285D01*
X108764761Y-70719523D01*
X108717142Y-70767142D01*
%TO.C,R12*%
X105512380Y-75862857D02*
X105036190Y-76196190D01*
X105512380Y-76434285D02*
X104512380Y-76434285D01*
X104512380Y-76053333D01*
X104560000Y-75958095D01*
X104607619Y-75910476D01*
X104702857Y-75862857D01*
X104845714Y-75862857D01*
X104940952Y-75910476D01*
X104988571Y-75958095D01*
X105036190Y-76053333D01*
X105036190Y-76434285D01*
X105512380Y-74910476D02*
X105512380Y-75481904D01*
X105512380Y-75196190D02*
X104512380Y-75196190D01*
X104655238Y-75291428D01*
X104750476Y-75386666D01*
X104798095Y-75481904D01*
X104607619Y-74529523D02*
X104560000Y-74481904D01*
X104512380Y-74386666D01*
X104512380Y-74148571D01*
X104560000Y-74053333D01*
X104607619Y-74005714D01*
X104702857Y-73958095D01*
X104798095Y-73958095D01*
X104940952Y-74005714D01*
X105512380Y-74577142D01*
X105512380Y-73958095D01*
%TO.C,U3*%
X44698095Y-80907380D02*
X44698095Y-81716904D01*
X44745714Y-81812142D01*
X44793333Y-81859761D01*
X44888571Y-81907380D01*
X45079047Y-81907380D01*
X45174285Y-81859761D01*
X45221904Y-81812142D01*
X45269523Y-81716904D01*
X45269523Y-80907380D01*
X45650476Y-80907380D02*
X46269523Y-80907380D01*
X45936190Y-81288333D01*
X46079047Y-81288333D01*
X46174285Y-81335952D01*
X46221904Y-81383571D01*
X46269523Y-81478809D01*
X46269523Y-81716904D01*
X46221904Y-81812142D01*
X46174285Y-81859761D01*
X46079047Y-81907380D01*
X45793333Y-81907380D01*
X45698095Y-81859761D01*
X45650476Y-81812142D01*
%TO.C,R11*%
X37437142Y-79222380D02*
X37103809Y-78746190D01*
X36865714Y-79222380D02*
X36865714Y-78222380D01*
X37246666Y-78222380D01*
X37341904Y-78270000D01*
X37389523Y-78317619D01*
X37437142Y-78412857D01*
X37437142Y-78555714D01*
X37389523Y-78650952D01*
X37341904Y-78698571D01*
X37246666Y-78746190D01*
X36865714Y-78746190D01*
X38389523Y-79222380D02*
X37818095Y-79222380D01*
X38103809Y-79222380D02*
X38103809Y-78222380D01*
X38008571Y-78365238D01*
X37913333Y-78460476D01*
X37818095Y-78508095D01*
X39341904Y-79222380D02*
X38770476Y-79222380D01*
X39056190Y-79222380D02*
X39056190Y-78222380D01*
X38960952Y-78365238D01*
X38865714Y-78460476D01*
X38770476Y-78508095D01*
%TO.C,R10*%
X36152380Y-78302857D02*
X35676190Y-78636190D01*
X36152380Y-78874285D02*
X35152380Y-78874285D01*
X35152380Y-78493333D01*
X35200000Y-78398095D01*
X35247619Y-78350476D01*
X35342857Y-78302857D01*
X35485714Y-78302857D01*
X35580952Y-78350476D01*
X35628571Y-78398095D01*
X35676190Y-78493333D01*
X35676190Y-78874285D01*
X36152380Y-77350476D02*
X36152380Y-77921904D01*
X36152380Y-77636190D02*
X35152380Y-77636190D01*
X35295238Y-77731428D01*
X35390476Y-77826666D01*
X35438095Y-77921904D01*
X35152380Y-76731428D02*
X35152380Y-76636190D01*
X35200000Y-76540952D01*
X35247619Y-76493333D01*
X35342857Y-76445714D01*
X35533333Y-76398095D01*
X35771428Y-76398095D01*
X35961904Y-76445714D01*
X36057142Y-76493333D01*
X36104761Y-76540952D01*
X36152380Y-76636190D01*
X36152380Y-76731428D01*
X36104761Y-76826666D01*
X36057142Y-76874285D01*
X35961904Y-76921904D01*
X35771428Y-76969523D01*
X35533333Y-76969523D01*
X35342857Y-76921904D01*
X35247619Y-76874285D01*
X35200000Y-76826666D01*
X35152380Y-76731428D01*
%TO.C,R9*%
X45533333Y-75952380D02*
X45200000Y-75476190D01*
X44961904Y-75952380D02*
X44961904Y-74952380D01*
X45342857Y-74952380D01*
X45438095Y-75000000D01*
X45485714Y-75047619D01*
X45533333Y-75142857D01*
X45533333Y-75285714D01*
X45485714Y-75380952D01*
X45438095Y-75428571D01*
X45342857Y-75476190D01*
X44961904Y-75476190D01*
X46009523Y-75952380D02*
X46200000Y-75952380D01*
X46295238Y-75904761D01*
X46342857Y-75857142D01*
X46438095Y-75714285D01*
X46485714Y-75523809D01*
X46485714Y-75142857D01*
X46438095Y-75047619D01*
X46390476Y-75000000D01*
X46295238Y-74952380D01*
X46104761Y-74952380D01*
X46009523Y-75000000D01*
X45961904Y-75047619D01*
X45914285Y-75142857D01*
X45914285Y-75380952D01*
X45961904Y-75476190D01*
X46009523Y-75523809D01*
X46104761Y-75571428D01*
X46295238Y-75571428D01*
X46390476Y-75523809D01*
X46438095Y-75476190D01*
X46485714Y-75380952D01*
%TO.C,L3*%
X42122380Y-74336666D02*
X42122380Y-74812857D01*
X41122380Y-74812857D01*
X41122380Y-74098571D02*
X41122380Y-73479523D01*
X41503333Y-73812857D01*
X41503333Y-73670000D01*
X41550952Y-73574761D01*
X41598571Y-73527142D01*
X41693809Y-73479523D01*
X41931904Y-73479523D01*
X42027142Y-73527142D01*
X42074761Y-73574761D01*
X42122380Y-73670000D01*
X42122380Y-73955714D01*
X42074761Y-74050952D01*
X42027142Y-74098571D01*
%TO.C,D9*%
X50041904Y-67792380D02*
X50041904Y-66792380D01*
X50280000Y-66792380D01*
X50422857Y-66840000D01*
X50518095Y-66935238D01*
X50565714Y-67030476D01*
X50613333Y-67220952D01*
X50613333Y-67363809D01*
X50565714Y-67554285D01*
X50518095Y-67649523D01*
X50422857Y-67744761D01*
X50280000Y-67792380D01*
X50041904Y-67792380D01*
X51089523Y-67792380D02*
X51280000Y-67792380D01*
X51375238Y-67744761D01*
X51422857Y-67697142D01*
X51518095Y-67554285D01*
X51565714Y-67363809D01*
X51565714Y-66982857D01*
X51518095Y-66887619D01*
X51470476Y-66840000D01*
X51375238Y-66792380D01*
X51184761Y-66792380D01*
X51089523Y-66840000D01*
X51041904Y-66887619D01*
X50994285Y-66982857D01*
X50994285Y-67220952D01*
X51041904Y-67316190D01*
X51089523Y-67363809D01*
X51184761Y-67411428D01*
X51375238Y-67411428D01*
X51470476Y-67363809D01*
X51518095Y-67316190D01*
X51565714Y-67220952D01*
%TO.C,C12*%
X36187142Y-76067142D02*
X36139523Y-76114761D01*
X35996666Y-76162380D01*
X35901428Y-76162380D01*
X35758571Y-76114761D01*
X35663333Y-76019523D01*
X35615714Y-75924285D01*
X35568095Y-75733809D01*
X35568095Y-75590952D01*
X35615714Y-75400476D01*
X35663333Y-75305238D01*
X35758571Y-75210000D01*
X35901428Y-75162380D01*
X35996666Y-75162380D01*
X36139523Y-75210000D01*
X36187142Y-75257619D01*
X37139523Y-76162380D02*
X36568095Y-76162380D01*
X36853809Y-76162380D02*
X36853809Y-75162380D01*
X36758571Y-75305238D01*
X36663333Y-75400476D01*
X36568095Y-75448095D01*
X37520476Y-75257619D02*
X37568095Y-75210000D01*
X37663333Y-75162380D01*
X37901428Y-75162380D01*
X37996666Y-75210000D01*
X38044285Y-75257619D01*
X38091904Y-75352857D01*
X38091904Y-75448095D01*
X38044285Y-75590952D01*
X37472857Y-76162380D01*
X38091904Y-76162380D01*
%TO.C,C11*%
X52787142Y-78302857D02*
X52834761Y-78350476D01*
X52882380Y-78493333D01*
X52882380Y-78588571D01*
X52834761Y-78731428D01*
X52739523Y-78826666D01*
X52644285Y-78874285D01*
X52453809Y-78921904D01*
X52310952Y-78921904D01*
X52120476Y-78874285D01*
X52025238Y-78826666D01*
X51930000Y-78731428D01*
X51882380Y-78588571D01*
X51882380Y-78493333D01*
X51930000Y-78350476D01*
X51977619Y-78302857D01*
X52882380Y-77350476D02*
X52882380Y-77921904D01*
X52882380Y-77636190D02*
X51882380Y-77636190D01*
X52025238Y-77731428D01*
X52120476Y-77826666D01*
X52168095Y-77921904D01*
X52882380Y-76398095D02*
X52882380Y-76969523D01*
X52882380Y-76683809D02*
X51882380Y-76683809D01*
X52025238Y-76779047D01*
X52120476Y-76874285D01*
X52168095Y-76969523D01*
%TO.C,C10*%
X37437142Y-78397142D02*
X37389523Y-78444761D01*
X37246666Y-78492380D01*
X37151428Y-78492380D01*
X37008571Y-78444761D01*
X36913333Y-78349523D01*
X36865714Y-78254285D01*
X36818095Y-78063809D01*
X36818095Y-77920952D01*
X36865714Y-77730476D01*
X36913333Y-77635238D01*
X37008571Y-77540000D01*
X37151428Y-77492380D01*
X37246666Y-77492380D01*
X37389523Y-77540000D01*
X37437142Y-77587619D01*
X38389523Y-78492380D02*
X37818095Y-78492380D01*
X38103809Y-78492380D02*
X38103809Y-77492380D01*
X38008571Y-77635238D01*
X37913333Y-77730476D01*
X37818095Y-77778095D01*
X39008571Y-77492380D02*
X39103809Y-77492380D01*
X39199047Y-77540000D01*
X39246666Y-77587619D01*
X39294285Y-77682857D01*
X39341904Y-77873333D01*
X39341904Y-78111428D01*
X39294285Y-78301904D01*
X39246666Y-78397142D01*
X39199047Y-78444761D01*
X39103809Y-78492380D01*
X39008571Y-78492380D01*
X38913333Y-78444761D01*
X38865714Y-78397142D01*
X38818095Y-78301904D01*
X38770476Y-78111428D01*
X38770476Y-77873333D01*
X38818095Y-77682857D01*
X38865714Y-77587619D01*
X38913333Y-77540000D01*
X39008571Y-77492380D01*
%TO.C,C9*%
X45778333Y-73317142D02*
X45730714Y-73364761D01*
X45587857Y-73412380D01*
X45492619Y-73412380D01*
X45349761Y-73364761D01*
X45254523Y-73269523D01*
X45206904Y-73174285D01*
X45159285Y-72983809D01*
X45159285Y-72840952D01*
X45206904Y-72650476D01*
X45254523Y-72555238D01*
X45349761Y-72460000D01*
X45492619Y-72412380D01*
X45587857Y-72412380D01*
X45730714Y-72460000D01*
X45778333Y-72507619D01*
X46254523Y-73412380D02*
X46445000Y-73412380D01*
X46540238Y-73364761D01*
X46587857Y-73317142D01*
X46683095Y-73174285D01*
X46730714Y-72983809D01*
X46730714Y-72602857D01*
X46683095Y-72507619D01*
X46635476Y-72460000D01*
X46540238Y-72412380D01*
X46349761Y-72412380D01*
X46254523Y-72460000D01*
X46206904Y-72507619D01*
X46159285Y-72602857D01*
X46159285Y-72840952D01*
X46206904Y-72936190D01*
X46254523Y-72983809D01*
X46349761Y-73031428D01*
X46540238Y-73031428D01*
X46635476Y-72983809D01*
X46683095Y-72936190D01*
X46730714Y-72840952D01*
%TO.C,C8*%
X51517142Y-72746666D02*
X51564761Y-72794285D01*
X51612380Y-72937142D01*
X51612380Y-73032380D01*
X51564761Y-73175238D01*
X51469523Y-73270476D01*
X51374285Y-73318095D01*
X51183809Y-73365714D01*
X51040952Y-73365714D01*
X50850476Y-73318095D01*
X50755238Y-73270476D01*
X50660000Y-73175238D01*
X50612380Y-73032380D01*
X50612380Y-72937142D01*
X50660000Y-72794285D01*
X50707619Y-72746666D01*
X51040952Y-72175238D02*
X50993333Y-72270476D01*
X50945714Y-72318095D01*
X50850476Y-72365714D01*
X50802857Y-72365714D01*
X50707619Y-72318095D01*
X50660000Y-72270476D01*
X50612380Y-72175238D01*
X50612380Y-71984761D01*
X50660000Y-71889523D01*
X50707619Y-71841904D01*
X50802857Y-71794285D01*
X50850476Y-71794285D01*
X50945714Y-71841904D01*
X50993333Y-71889523D01*
X51040952Y-71984761D01*
X51040952Y-72175238D01*
X51088571Y-72270476D01*
X51136190Y-72318095D01*
X51231428Y-72365714D01*
X51421904Y-72365714D01*
X51517142Y-72318095D01*
X51564761Y-72270476D01*
X51612380Y-72175238D01*
X51612380Y-71984761D01*
X51564761Y-71889523D01*
X51517142Y-71841904D01*
X51421904Y-71794285D01*
X51231428Y-71794285D01*
X51136190Y-71841904D01*
X51088571Y-71889523D01*
X51040952Y-71984761D01*
%TO.C,C7*%
X45778333Y-70777142D02*
X45730714Y-70824761D01*
X45587857Y-70872380D01*
X45492619Y-70872380D01*
X45349761Y-70824761D01*
X45254523Y-70729523D01*
X45206904Y-70634285D01*
X45159285Y-70443809D01*
X45159285Y-70300952D01*
X45206904Y-70110476D01*
X45254523Y-70015238D01*
X45349761Y-69920000D01*
X45492619Y-69872380D01*
X45587857Y-69872380D01*
X45730714Y-69920000D01*
X45778333Y-69967619D01*
X46111666Y-69872380D02*
X46778333Y-69872380D01*
X46349761Y-70872380D01*
%TO.C,D7*%
X86409523Y-42861904D02*
X86409523Y-42061904D01*
X86600000Y-42061904D01*
X86714285Y-42100000D01*
X86790476Y-42176190D01*
X86828571Y-42252380D01*
X86866666Y-42404761D01*
X86866666Y-42519047D01*
X86828571Y-42671428D01*
X86790476Y-42747619D01*
X86714285Y-42823809D01*
X86600000Y-42861904D01*
X86409523Y-42861904D01*
X87133333Y-42061904D02*
X87666666Y-42061904D01*
X87323809Y-42861904D01*
%TO.C,D8*%
X91409523Y-42861904D02*
X91409523Y-42061904D01*
X91600000Y-42061904D01*
X91714285Y-42100000D01*
X91790476Y-42176190D01*
X91828571Y-42252380D01*
X91866666Y-42404761D01*
X91866666Y-42519047D01*
X91828571Y-42671428D01*
X91790476Y-42747619D01*
X91714285Y-42823809D01*
X91600000Y-42861904D01*
X91409523Y-42861904D01*
X92323809Y-42404761D02*
X92247619Y-42366666D01*
X92209523Y-42328571D01*
X92171428Y-42252380D01*
X92171428Y-42214285D01*
X92209523Y-42138095D01*
X92247619Y-42100000D01*
X92323809Y-42061904D01*
X92476190Y-42061904D01*
X92552380Y-42100000D01*
X92590476Y-42138095D01*
X92628571Y-42214285D01*
X92628571Y-42252380D01*
X92590476Y-42328571D01*
X92552380Y-42366666D01*
X92476190Y-42404761D01*
X92323809Y-42404761D01*
X92247619Y-42442857D01*
X92209523Y-42480952D01*
X92171428Y-42557142D01*
X92171428Y-42709523D01*
X92209523Y-42785714D01*
X92247619Y-42823809D01*
X92323809Y-42861904D01*
X92476190Y-42861904D01*
X92552380Y-42823809D01*
X92590476Y-42785714D01*
X92628571Y-42709523D01*
X92628571Y-42557142D01*
X92590476Y-42480952D01*
X92552380Y-42442857D01*
X92476190Y-42404761D01*
%TO.C,D2*%
X50909523Y-44861904D02*
X50909523Y-44061904D01*
X51100000Y-44061904D01*
X51214285Y-44100000D01*
X51290476Y-44176190D01*
X51328571Y-44252380D01*
X51366666Y-44404761D01*
X51366666Y-44519047D01*
X51328571Y-44671428D01*
X51290476Y-44747619D01*
X51214285Y-44823809D01*
X51100000Y-44861904D01*
X50909523Y-44861904D01*
X51671428Y-44138095D02*
X51709523Y-44100000D01*
X51785714Y-44061904D01*
X51976190Y-44061904D01*
X52052380Y-44100000D01*
X52090476Y-44138095D01*
X52128571Y-44214285D01*
X52128571Y-44290476D01*
X52090476Y-44404761D01*
X51633333Y-44861904D01*
X52128571Y-44861904D01*
%TO.C,D3*%
X50659523Y-56861904D02*
X50659523Y-56061904D01*
X50850000Y-56061904D01*
X50964285Y-56100000D01*
X51040476Y-56176190D01*
X51078571Y-56252380D01*
X51116666Y-56404761D01*
X51116666Y-56519047D01*
X51078571Y-56671428D01*
X51040476Y-56747619D01*
X50964285Y-56823809D01*
X50850000Y-56861904D01*
X50659523Y-56861904D01*
X51383333Y-56061904D02*
X51878571Y-56061904D01*
X51611904Y-56366666D01*
X51726190Y-56366666D01*
X51802380Y-56404761D01*
X51840476Y-56442857D01*
X51878571Y-56519047D01*
X51878571Y-56709523D01*
X51840476Y-56785714D01*
X51802380Y-56823809D01*
X51726190Y-56861904D01*
X51497619Y-56861904D01*
X51421428Y-56823809D01*
X51383333Y-56785714D01*
%TO.C,D5*%
X100909523Y-44861904D02*
X100909523Y-44061904D01*
X101100000Y-44061904D01*
X101214285Y-44100000D01*
X101290476Y-44176190D01*
X101328571Y-44252380D01*
X101366666Y-44404761D01*
X101366666Y-44519047D01*
X101328571Y-44671428D01*
X101290476Y-44747619D01*
X101214285Y-44823809D01*
X101100000Y-44861904D01*
X100909523Y-44861904D01*
X102090476Y-44061904D02*
X101709523Y-44061904D01*
X101671428Y-44442857D01*
X101709523Y-44404761D01*
X101785714Y-44366666D01*
X101976190Y-44366666D01*
X102052380Y-44404761D01*
X102090476Y-44442857D01*
X102128571Y-44519047D01*
X102128571Y-44709523D01*
X102090476Y-44785714D01*
X102052380Y-44823809D01*
X101976190Y-44861904D01*
X101785714Y-44861904D01*
X101709523Y-44823809D01*
X101671428Y-44785714D01*
%TO.C,D6*%
X100659523Y-56861904D02*
X100659523Y-56061904D01*
X100850000Y-56061904D01*
X100964285Y-56100000D01*
X101040476Y-56176190D01*
X101078571Y-56252380D01*
X101116666Y-56404761D01*
X101116666Y-56519047D01*
X101078571Y-56671428D01*
X101040476Y-56747619D01*
X100964285Y-56823809D01*
X100850000Y-56861904D01*
X100659523Y-56861904D01*
X101802380Y-56061904D02*
X101650000Y-56061904D01*
X101573809Y-56100000D01*
X101535714Y-56138095D01*
X101459523Y-56252380D01*
X101421428Y-56404761D01*
X101421428Y-56709523D01*
X101459523Y-56785714D01*
X101497619Y-56823809D01*
X101573809Y-56861904D01*
X101726190Y-56861904D01*
X101802380Y-56823809D01*
X101840476Y-56785714D01*
X101878571Y-56709523D01*
X101878571Y-56519047D01*
X101840476Y-56442857D01*
X101802380Y-56404761D01*
X101726190Y-56366666D01*
X101573809Y-56366666D01*
X101497619Y-56404761D01*
X101459523Y-56442857D01*
X101421428Y-56519047D01*
%TO.C,R6*%
X37616666Y-44361904D02*
X37350000Y-43980952D01*
X37159523Y-44361904D02*
X37159523Y-43561904D01*
X37464285Y-43561904D01*
X37540476Y-43600000D01*
X37578571Y-43638095D01*
X37616666Y-43714285D01*
X37616666Y-43828571D01*
X37578571Y-43904761D01*
X37540476Y-43942857D01*
X37464285Y-43980952D01*
X37159523Y-43980952D01*
X38302380Y-43561904D02*
X38150000Y-43561904D01*
X38073809Y-43600000D01*
X38035714Y-43638095D01*
X37959523Y-43752380D01*
X37921428Y-43904761D01*
X37921428Y-44209523D01*
X37959523Y-44285714D01*
X37997619Y-44323809D01*
X38073809Y-44361904D01*
X38226190Y-44361904D01*
X38302380Y-44323809D01*
X38340476Y-44285714D01*
X38378571Y-44209523D01*
X38378571Y-44019047D01*
X38340476Y-43942857D01*
X38302380Y-43904761D01*
X38226190Y-43866666D01*
X38073809Y-43866666D01*
X37997619Y-43904761D01*
X37959523Y-43942857D01*
X37921428Y-44019047D01*
%TO.C,R5*%
X45361904Y-42383333D02*
X44980952Y-42650000D01*
X45361904Y-42840476D02*
X44561904Y-42840476D01*
X44561904Y-42535714D01*
X44600000Y-42459523D01*
X44638095Y-42421428D01*
X44714285Y-42383333D01*
X44828571Y-42383333D01*
X44904761Y-42421428D01*
X44942857Y-42459523D01*
X44980952Y-42535714D01*
X44980952Y-42840476D01*
X44561904Y-41659523D02*
X44561904Y-42040476D01*
X44942857Y-42078571D01*
X44904761Y-42040476D01*
X44866666Y-41964285D01*
X44866666Y-41773809D01*
X44904761Y-41697619D01*
X44942857Y-41659523D01*
X45019047Y-41621428D01*
X45209523Y-41621428D01*
X45285714Y-41659523D01*
X45323809Y-41697619D01*
X45361904Y-41773809D01*
X45361904Y-41964285D01*
X45323809Y-42040476D01*
X45285714Y-42078571D01*
%TO.C,C1*%
X49785714Y-65283333D02*
X49823809Y-65321428D01*
X49861904Y-65435714D01*
X49861904Y-65511904D01*
X49823809Y-65626190D01*
X49747619Y-65702380D01*
X49671428Y-65740476D01*
X49519047Y-65778571D01*
X49404761Y-65778571D01*
X49252380Y-65740476D01*
X49176190Y-65702380D01*
X49100000Y-65626190D01*
X49061904Y-65511904D01*
X49061904Y-65435714D01*
X49100000Y-65321428D01*
X49138095Y-65283333D01*
X49861904Y-64521428D02*
X49861904Y-64978571D01*
X49861904Y-64750000D02*
X49061904Y-64750000D01*
X49176190Y-64826190D01*
X49252380Y-64902380D01*
X49290476Y-64978571D01*
%TO.C,C2*%
X86785714Y-65245833D02*
X86823809Y-65283928D01*
X86861904Y-65398214D01*
X86861904Y-65474404D01*
X86823809Y-65588690D01*
X86747619Y-65664880D01*
X86671428Y-65702976D01*
X86519047Y-65741071D01*
X86404761Y-65741071D01*
X86252380Y-65702976D01*
X86176190Y-65664880D01*
X86100000Y-65588690D01*
X86061904Y-65474404D01*
X86061904Y-65398214D01*
X86100000Y-65283928D01*
X86138095Y-65245833D01*
X86138095Y-64941071D02*
X86100000Y-64902976D01*
X86061904Y-64826785D01*
X86061904Y-64636309D01*
X86100000Y-64560119D01*
X86138095Y-64522023D01*
X86214285Y-64483928D01*
X86290476Y-64483928D01*
X86404761Y-64522023D01*
X86861904Y-64979166D01*
X86861904Y-64483928D01*
%TO.C,L1*%
X40611904Y-57633333D02*
X40611904Y-58014285D01*
X39811904Y-58014285D01*
X40611904Y-56947619D02*
X40611904Y-57404761D01*
X40611904Y-57176190D02*
X39811904Y-57176190D01*
X39926190Y-57252380D01*
X40002380Y-57328571D01*
X40040476Y-57404761D01*
%TO.C,L2*%
X90611904Y-57633333D02*
X90611904Y-58014285D01*
X89811904Y-58014285D01*
X89888095Y-57404761D02*
X89850000Y-57366666D01*
X89811904Y-57290476D01*
X89811904Y-57100000D01*
X89850000Y-57023809D01*
X89888095Y-56985714D01*
X89964285Y-56947619D01*
X90040476Y-56947619D01*
X90154761Y-56985714D01*
X90611904Y-57442857D01*
X90611904Y-56947619D01*
%TO.C,R7*%
X102116666Y-41111904D02*
X101850000Y-40730952D01*
X101659523Y-41111904D02*
X101659523Y-40311904D01*
X101964285Y-40311904D01*
X102040476Y-40350000D01*
X102078571Y-40388095D01*
X102116666Y-40464285D01*
X102116666Y-40578571D01*
X102078571Y-40654761D01*
X102040476Y-40692857D01*
X101964285Y-40730952D01*
X101659523Y-40730952D01*
X102383333Y-40311904D02*
X102916666Y-40311904D01*
X102573809Y-41111904D01*
%TO.C,R8*%
X96116666Y-41111904D02*
X95850000Y-40730952D01*
X95659523Y-41111904D02*
X95659523Y-40311904D01*
X95964285Y-40311904D01*
X96040476Y-40350000D01*
X96078571Y-40388095D01*
X96116666Y-40464285D01*
X96116666Y-40578571D01*
X96078571Y-40654761D01*
X96040476Y-40692857D01*
X95964285Y-40730952D01*
X95659523Y-40730952D01*
X96573809Y-40654761D02*
X96497619Y-40616666D01*
X96459523Y-40578571D01*
X96421428Y-40502380D01*
X96421428Y-40464285D01*
X96459523Y-40388095D01*
X96497619Y-40350000D01*
X96573809Y-40311904D01*
X96726190Y-40311904D01*
X96802380Y-40350000D01*
X96840476Y-40388095D01*
X96878571Y-40464285D01*
X96878571Y-40502380D01*
X96840476Y-40578571D01*
X96802380Y-40616666D01*
X96726190Y-40654761D01*
X96573809Y-40654761D01*
X96497619Y-40692857D01*
X96459523Y-40730952D01*
X96421428Y-40807142D01*
X96421428Y-40959523D01*
X96459523Y-41035714D01*
X96497619Y-41073809D01*
X96573809Y-41111904D01*
X96726190Y-41111904D01*
X96802380Y-41073809D01*
X96840476Y-41035714D01*
X96878571Y-40959523D01*
X96878571Y-40807142D01*
X96840476Y-40730952D01*
X96802380Y-40692857D01*
X96726190Y-40654761D01*
%TO.C,R3*%
X83351666Y-42361904D02*
X83085000Y-41980952D01*
X82894523Y-42361904D02*
X82894523Y-41561904D01*
X83199285Y-41561904D01*
X83275476Y-41600000D01*
X83313571Y-41638095D01*
X83351666Y-41714285D01*
X83351666Y-41828571D01*
X83313571Y-41904761D01*
X83275476Y-41942857D01*
X83199285Y-41980952D01*
X82894523Y-41980952D01*
X83618333Y-41561904D02*
X84113571Y-41561904D01*
X83846904Y-41866666D01*
X83961190Y-41866666D01*
X84037380Y-41904761D01*
X84075476Y-41942857D01*
X84113571Y-42019047D01*
X84113571Y-42209523D01*
X84075476Y-42285714D01*
X84037380Y-42323809D01*
X83961190Y-42361904D01*
X83732619Y-42361904D01*
X83656428Y-42323809D01*
X83618333Y-42285714D01*
%TO.C,R4*%
X94866666Y-43111904D02*
X94600000Y-42730952D01*
X94409523Y-43111904D02*
X94409523Y-42311904D01*
X94714285Y-42311904D01*
X94790476Y-42350000D01*
X94828571Y-42388095D01*
X94866666Y-42464285D01*
X94866666Y-42578571D01*
X94828571Y-42654761D01*
X94790476Y-42692857D01*
X94714285Y-42730952D01*
X94409523Y-42730952D01*
X95552380Y-42578571D02*
X95552380Y-43111904D01*
X95361904Y-42273809D02*
X95171428Y-42845238D01*
X95666666Y-42845238D01*
%TO.C,U1*%
X41561904Y-54109523D02*
X42209523Y-54109523D01*
X42285714Y-54071428D01*
X42323809Y-54033333D01*
X42361904Y-53957142D01*
X42361904Y-53804761D01*
X42323809Y-53728571D01*
X42285714Y-53690476D01*
X42209523Y-53652380D01*
X41561904Y-53652380D01*
X42361904Y-52852380D02*
X42361904Y-53309523D01*
X42361904Y-53080952D02*
X41561904Y-53080952D01*
X41676190Y-53157142D01*
X41752380Y-53233333D01*
X41790476Y-53309523D01*
%TO.C,U2*%
X91811904Y-54109523D02*
X92459523Y-54109523D01*
X92535714Y-54071428D01*
X92573809Y-54033333D01*
X92611904Y-53957142D01*
X92611904Y-53804761D01*
X92573809Y-53728571D01*
X92535714Y-53690476D01*
X92459523Y-53652380D01*
X91811904Y-53652380D01*
X91888095Y-53309523D02*
X91850000Y-53271428D01*
X91811904Y-53195238D01*
X91811904Y-53004761D01*
X91850000Y-52928571D01*
X91888095Y-52890476D01*
X91964285Y-52852380D01*
X92040476Y-52852380D01*
X92154761Y-52890476D01*
X92611904Y-53347619D01*
X92611904Y-52852380D01*
%TO.C,C3*%
X36785714Y-52504880D02*
X36823809Y-52542976D01*
X36861904Y-52657261D01*
X36861904Y-52733452D01*
X36823809Y-52847738D01*
X36747619Y-52923928D01*
X36671428Y-52962023D01*
X36519047Y-53000119D01*
X36404761Y-53000119D01*
X36252380Y-52962023D01*
X36176190Y-52923928D01*
X36100000Y-52847738D01*
X36061904Y-52733452D01*
X36061904Y-52657261D01*
X36100000Y-52542976D01*
X36138095Y-52504880D01*
X36061904Y-52238214D02*
X36061904Y-51742976D01*
X36366666Y-52009642D01*
X36366666Y-51895357D01*
X36404761Y-51819166D01*
X36442857Y-51781071D01*
X36519047Y-51742976D01*
X36709523Y-51742976D01*
X36785714Y-51781071D01*
X36823809Y-51819166D01*
X36861904Y-51895357D01*
X36861904Y-52123928D01*
X36823809Y-52200119D01*
X36785714Y-52238214D01*
%TO.C,C4*%
X86785714Y-52618333D02*
X86823809Y-52656428D01*
X86861904Y-52770714D01*
X86861904Y-52846904D01*
X86823809Y-52961190D01*
X86747619Y-53037380D01*
X86671428Y-53075476D01*
X86519047Y-53113571D01*
X86404761Y-53113571D01*
X86252380Y-53075476D01*
X86176190Y-53037380D01*
X86100000Y-52961190D01*
X86061904Y-52846904D01*
X86061904Y-52770714D01*
X86100000Y-52656428D01*
X86138095Y-52618333D01*
X86328571Y-51932619D02*
X86861904Y-51932619D01*
X86023809Y-52123095D02*
X86595238Y-52313571D01*
X86595238Y-51818333D01*
%TO.C,D1*%
X34409523Y-61361904D02*
X34409523Y-60561904D01*
X34600000Y-60561904D01*
X34714285Y-60600000D01*
X34790476Y-60676190D01*
X34828571Y-60752380D01*
X34866666Y-60904761D01*
X34866666Y-61019047D01*
X34828571Y-61171428D01*
X34790476Y-61247619D01*
X34714285Y-61323809D01*
X34600000Y-61361904D01*
X34409523Y-61361904D01*
X35628571Y-61361904D02*
X35171428Y-61361904D01*
X35400000Y-61361904D02*
X35400000Y-60561904D01*
X35323809Y-60676190D01*
X35247619Y-60752380D01*
X35171428Y-60790476D01*
%TO.C,D4*%
X84409523Y-61361904D02*
X84409523Y-60561904D01*
X84600000Y-60561904D01*
X84714285Y-60600000D01*
X84790476Y-60676190D01*
X84828571Y-60752380D01*
X84866666Y-60904761D01*
X84866666Y-61019047D01*
X84828571Y-61171428D01*
X84790476Y-61247619D01*
X84714285Y-61323809D01*
X84600000Y-61361904D01*
X84409523Y-61361904D01*
X85552380Y-60828571D02*
X85552380Y-61361904D01*
X85361904Y-60523809D02*
X85171428Y-61095238D01*
X85666666Y-61095238D01*
%TO.C,R1*%
X34866666Y-51611904D02*
X34600000Y-51230952D01*
X34409523Y-51611904D02*
X34409523Y-50811904D01*
X34714285Y-50811904D01*
X34790476Y-50850000D01*
X34828571Y-50888095D01*
X34866666Y-50964285D01*
X34866666Y-51078571D01*
X34828571Y-51154761D01*
X34790476Y-51192857D01*
X34714285Y-51230952D01*
X34409523Y-51230952D01*
X35628571Y-51611904D02*
X35171428Y-51611904D01*
X35400000Y-51611904D02*
X35400000Y-50811904D01*
X35323809Y-50926190D01*
X35247619Y-51002380D01*
X35171428Y-51040476D01*
%TO.C,R2*%
X84866666Y-51611904D02*
X84600000Y-51230952D01*
X84409523Y-51611904D02*
X84409523Y-50811904D01*
X84714285Y-50811904D01*
X84790476Y-50850000D01*
X84828571Y-50888095D01*
X84866666Y-50964285D01*
X84866666Y-51078571D01*
X84828571Y-51154761D01*
X84790476Y-51192857D01*
X84714285Y-51230952D01*
X84409523Y-51230952D01*
X85171428Y-50888095D02*
X85209523Y-50850000D01*
X85285714Y-50811904D01*
X85476190Y-50811904D01*
X85552380Y-50850000D01*
X85590476Y-50888095D01*
X85628571Y-50964285D01*
X85628571Y-51040476D01*
X85590476Y-51154761D01*
X85133333Y-51611904D01*
X85628571Y-51611904D01*
%TO.C,C5*%
X53785714Y-65283333D02*
X53823809Y-65321428D01*
X53861904Y-65435714D01*
X53861904Y-65511904D01*
X53823809Y-65626190D01*
X53747619Y-65702380D01*
X53671428Y-65740476D01*
X53519047Y-65778571D01*
X53404761Y-65778571D01*
X53252380Y-65740476D01*
X53176190Y-65702380D01*
X53100000Y-65626190D01*
X53061904Y-65511904D01*
X53061904Y-65435714D01*
X53100000Y-65321428D01*
X53138095Y-65283333D01*
X53061904Y-64559523D02*
X53061904Y-64940476D01*
X53442857Y-64978571D01*
X53404761Y-64940476D01*
X53366666Y-64864285D01*
X53366666Y-64673809D01*
X53404761Y-64597619D01*
X53442857Y-64559523D01*
X53519047Y-64521428D01*
X53709523Y-64521428D01*
X53785714Y-64559523D01*
X53823809Y-64597619D01*
X53861904Y-64673809D01*
X53861904Y-64864285D01*
X53823809Y-64940476D01*
X53785714Y-64978571D01*
%TO.C,C6*%
X90785714Y-65245833D02*
X90823809Y-65283928D01*
X90861904Y-65398214D01*
X90861904Y-65474404D01*
X90823809Y-65588690D01*
X90747619Y-65664880D01*
X90671428Y-65702976D01*
X90519047Y-65741071D01*
X90404761Y-65741071D01*
X90252380Y-65702976D01*
X90176190Y-65664880D01*
X90100000Y-65588690D01*
X90061904Y-65474404D01*
X90061904Y-65398214D01*
X90100000Y-65283928D01*
X90138095Y-65245833D01*
X90061904Y-64560119D02*
X90061904Y-64712500D01*
X90100000Y-64788690D01*
X90138095Y-64826785D01*
X90252380Y-64902976D01*
X90404761Y-64941071D01*
X90709523Y-64941071D01*
X90785714Y-64902976D01*
X90823809Y-64864880D01*
X90861904Y-64788690D01*
X90861904Y-64636309D01*
X90823809Y-64560119D01*
X90785714Y-64522023D01*
X90709523Y-64483928D01*
X90519047Y-64483928D01*
X90442857Y-64522023D01*
X90404761Y-64560119D01*
X90366666Y-64636309D01*
X90366666Y-64788690D01*
X90404761Y-64864880D01*
X90442857Y-64902976D01*
X90519047Y-64941071D01*
%TD*%
M02*
