%TF.GenerationSoftware,KiCad,Pcbnew,(5.1.8)-1*%
%TF.CreationDate,2020-12-15T20:26:10+03:00*%
%TF.ProjectId,ledboard,6c656462-6f61-4726-942e-6b696361645f,v0.4.0*%
%TF.SameCoordinates,Original*%
%TF.FileFunction,Legend,Bot*%
%TF.FilePolarity,Positive*%
%FSLAX46Y46*%
G04 Gerber Fmt 4.6, Leading zero omitted, Abs format (unit mm)*
G04 Created by KiCad (PCBNEW (5.1.8)-1) date 2020-12-15 20:26:10*
%MOMM*%
%LPD*%
G01*
G04 APERTURE LIST*
%TA.AperFunction,Profile*%
%ADD10C,0.050000*%
%TD*%
%ADD11C,0.150000*%
%ADD12C,0.300000*%
%ADD13C,0.120000*%
%ADD14C,0.010000*%
G04 APERTURE END LIST*
D10*
X81000000Y-45140000D02*
X58920000Y-45130000D01*
X81000000Y-45140000D02*
X80980000Y-88300000D01*
X58920000Y-45130000D02*
X58900000Y-88340000D01*
X33960000Y-88340000D02*
G75*
G02*
X30960000Y-85340000I0J3000000D01*
G01*
X30960000Y-34130000D02*
G75*
G02*
X33960000Y-31130000I3000000J0D01*
G01*
X113929999Y-31100001D02*
G75*
G02*
X116919999Y-34109999I-9999J-2999999D01*
G01*
X116920066Y-85310001D02*
G75*
G02*
X113939999Y-88309999I-3000066J1D01*
G01*
X80980000Y-88300000D02*
X113939999Y-88309999D01*
X116920066Y-85310001D02*
X116919999Y-34109999D01*
X113929999Y-31100001D02*
X33960000Y-31130000D01*
X30960000Y-34130000D02*
X30960000Y-85340000D01*
X33960000Y-88340000D02*
X58900000Y-88340000D01*
D11*
X63464166Y-42361904D02*
X63464166Y-41828571D01*
X63464166Y-41980952D02*
X63426071Y-41904761D01*
X63387976Y-41866666D01*
X63311785Y-41828571D01*
X63235595Y-41828571D01*
X62664166Y-42323809D02*
X62740357Y-42361904D01*
X62892738Y-42361904D01*
X62968928Y-42323809D01*
X63007023Y-42247619D01*
X63007023Y-41942857D01*
X62968928Y-41866666D01*
X62892738Y-41828571D01*
X62740357Y-41828571D01*
X62664166Y-41866666D01*
X62626071Y-41942857D01*
X62626071Y-42019047D01*
X63007023Y-42095238D01*
X62359404Y-41828571D02*
X62168928Y-42361904D01*
X61978452Y-41828571D01*
X61140357Y-41828571D02*
X60949880Y-42361904D01*
X60759404Y-41828571D01*
X60302261Y-41561904D02*
X60226071Y-41561904D01*
X60149880Y-41600000D01*
X60111785Y-41638095D01*
X60073690Y-41714285D01*
X60035595Y-41866666D01*
X60035595Y-42057142D01*
X60073690Y-42209523D01*
X60111785Y-42285714D01*
X60149880Y-42323809D01*
X60226071Y-42361904D01*
X60302261Y-42361904D01*
X60378452Y-42323809D01*
X60416547Y-42285714D01*
X60454642Y-42209523D01*
X60492738Y-42057142D01*
X60492738Y-41866666D01*
X60454642Y-41714285D01*
X60416547Y-41638095D01*
X60378452Y-41600000D01*
X60302261Y-41561904D01*
X59692738Y-42285714D02*
X59654642Y-42323809D01*
X59692738Y-42361904D01*
X59730833Y-42323809D01*
X59692738Y-42285714D01*
X59692738Y-42361904D01*
X58968928Y-41828571D02*
X58968928Y-42361904D01*
X59159404Y-41523809D02*
X59349880Y-42095238D01*
X58854642Y-42095238D01*
X58549880Y-42285714D02*
X58511785Y-42323809D01*
X58549880Y-42361904D01*
X58587976Y-42323809D01*
X58549880Y-42285714D01*
X58549880Y-42361904D01*
X58207023Y-41638095D02*
X58168928Y-41600000D01*
X58092738Y-41561904D01*
X57902261Y-41561904D01*
X57826071Y-41600000D01*
X57787976Y-41638095D01*
X57749880Y-41714285D01*
X57749880Y-41790476D01*
X57787976Y-41904761D01*
X58245119Y-42361904D01*
X57749880Y-42361904D01*
D12*
X81233571Y-42428571D02*
X81947857Y-42428571D01*
X81947857Y-40928571D01*
X80733571Y-41642857D02*
X80233571Y-41642857D01*
X80019285Y-42428571D02*
X80733571Y-42428571D01*
X80733571Y-40928571D01*
X80019285Y-40928571D01*
X79376428Y-42428571D02*
X79376428Y-40928571D01*
X79019285Y-40928571D01*
X78805000Y-41000000D01*
X78662142Y-41142857D01*
X78590714Y-41285714D01*
X78519285Y-41571428D01*
X78519285Y-41785714D01*
X78590714Y-42071428D01*
X78662142Y-42214285D01*
X78805000Y-42357142D01*
X79019285Y-42428571D01*
X79376428Y-42428571D01*
X76233571Y-41642857D02*
X76019285Y-41714285D01*
X75947857Y-41785714D01*
X75876428Y-41928571D01*
X75876428Y-42142857D01*
X75947857Y-42285714D01*
X76019285Y-42357142D01*
X76162142Y-42428571D01*
X76733571Y-42428571D01*
X76733571Y-40928571D01*
X76233571Y-40928571D01*
X76090714Y-41000000D01*
X76019285Y-41071428D01*
X75947857Y-41214285D01*
X75947857Y-41357142D01*
X76019285Y-41500000D01*
X76090714Y-41571428D01*
X76233571Y-41642857D01*
X76733571Y-41642857D01*
X75019285Y-42428571D02*
X75162142Y-42357142D01*
X75233571Y-42285714D01*
X75305000Y-42142857D01*
X75305000Y-41714285D01*
X75233571Y-41571428D01*
X75162142Y-41500000D01*
X75019285Y-41428571D01*
X74805000Y-41428571D01*
X74662142Y-41500000D01*
X74590714Y-41571428D01*
X74519285Y-41714285D01*
X74519285Y-42142857D01*
X74590714Y-42285714D01*
X74662142Y-42357142D01*
X74805000Y-42428571D01*
X75019285Y-42428571D01*
X73233571Y-42428571D02*
X73233571Y-41642857D01*
X73305000Y-41500000D01*
X73447857Y-41428571D01*
X73733571Y-41428571D01*
X73876428Y-41500000D01*
X73233571Y-42357142D02*
X73376428Y-42428571D01*
X73733571Y-42428571D01*
X73876428Y-42357142D01*
X73947857Y-42214285D01*
X73947857Y-42071428D01*
X73876428Y-41928571D01*
X73733571Y-41857142D01*
X73376428Y-41857142D01*
X73233571Y-41785714D01*
X72519285Y-42428571D02*
X72519285Y-41428571D01*
X72519285Y-41714285D02*
X72447857Y-41571428D01*
X72376428Y-41500000D01*
X72233571Y-41428571D01*
X72090714Y-41428571D01*
X70947857Y-42428571D02*
X70947857Y-40928571D01*
X70947857Y-42357142D02*
X71090714Y-42428571D01*
X71376428Y-42428571D01*
X71519285Y-42357142D01*
X71590714Y-42285714D01*
X71662142Y-42142857D01*
X71662142Y-41714285D01*
X71590714Y-41571428D01*
X71519285Y-41500000D01*
X71376428Y-41428571D01*
X71090714Y-41428571D01*
X70947857Y-41500000D01*
D11*
X104428571Y-54861904D02*
X104809523Y-54861904D01*
X104809523Y-54061904D01*
X104161904Y-54861904D02*
X104161904Y-54328571D01*
X104161904Y-54061904D02*
X104200000Y-54100000D01*
X104161904Y-54138095D01*
X104123809Y-54100000D01*
X104161904Y-54061904D01*
X104161904Y-54138095D01*
X103438095Y-54823809D02*
X103514285Y-54861904D01*
X103666666Y-54861904D01*
X103742857Y-54823809D01*
X103780952Y-54785714D01*
X103819047Y-54709523D01*
X103819047Y-54480952D01*
X103780952Y-54404761D01*
X103742857Y-54366666D01*
X103666666Y-54328571D01*
X103514285Y-54328571D01*
X103438095Y-54366666D01*
X102790476Y-54823809D02*
X102866666Y-54861904D01*
X103019047Y-54861904D01*
X103095238Y-54823809D01*
X103133333Y-54747619D01*
X103133333Y-54442857D01*
X103095238Y-54366666D01*
X103019047Y-54328571D01*
X102866666Y-54328571D01*
X102790476Y-54366666D01*
X102752380Y-54442857D01*
X102752380Y-54519047D01*
X103133333Y-54595238D01*
X102409523Y-54328571D02*
X102409523Y-54861904D01*
X102409523Y-54404761D02*
X102371428Y-54366666D01*
X102295238Y-54328571D01*
X102180952Y-54328571D01*
X102104761Y-54366666D01*
X102066666Y-54442857D01*
X102066666Y-54861904D01*
X101723809Y-54823809D02*
X101647619Y-54861904D01*
X101495238Y-54861904D01*
X101419047Y-54823809D01*
X101380952Y-54747619D01*
X101380952Y-54709523D01*
X101419047Y-54633333D01*
X101495238Y-54595238D01*
X101609523Y-54595238D01*
X101685714Y-54557142D01*
X101723809Y-54480952D01*
X101723809Y-54442857D01*
X101685714Y-54366666D01*
X101609523Y-54328571D01*
X101495238Y-54328571D01*
X101419047Y-54366666D01*
X100733333Y-54823809D02*
X100809523Y-54861904D01*
X100961904Y-54861904D01*
X101038095Y-54823809D01*
X101076190Y-54747619D01*
X101076190Y-54442857D01*
X101038095Y-54366666D01*
X100961904Y-54328571D01*
X100809523Y-54328571D01*
X100733333Y-54366666D01*
X100695238Y-54442857D01*
X100695238Y-54519047D01*
X101076190Y-54595238D01*
X100009523Y-54861904D02*
X100009523Y-54061904D01*
X100009523Y-54823809D02*
X100085714Y-54861904D01*
X100238095Y-54861904D01*
X100314285Y-54823809D01*
X100352380Y-54785714D01*
X100390476Y-54709523D01*
X100390476Y-54480952D01*
X100352380Y-54404761D01*
X100314285Y-54366666D01*
X100238095Y-54328571D01*
X100085714Y-54328571D01*
X100009523Y-54366666D01*
X98676190Y-54328571D02*
X98676190Y-54861904D01*
X99019047Y-54328571D02*
X99019047Y-54747619D01*
X98980952Y-54823809D01*
X98904761Y-54861904D01*
X98790476Y-54861904D01*
X98714285Y-54823809D01*
X98676190Y-54785714D01*
X98295238Y-54328571D02*
X98295238Y-54861904D01*
X98295238Y-54404761D02*
X98257142Y-54366666D01*
X98180952Y-54328571D01*
X98066666Y-54328571D01*
X97990476Y-54366666D01*
X97952380Y-54442857D01*
X97952380Y-54861904D01*
X97228571Y-54861904D02*
X97228571Y-54061904D01*
X97228571Y-54823809D02*
X97304761Y-54861904D01*
X97457142Y-54861904D01*
X97533333Y-54823809D01*
X97571428Y-54785714D01*
X97609523Y-54709523D01*
X97609523Y-54480952D01*
X97571428Y-54404761D01*
X97533333Y-54366666D01*
X97457142Y-54328571D01*
X97304761Y-54328571D01*
X97228571Y-54366666D01*
X96542857Y-54823809D02*
X96619047Y-54861904D01*
X96771428Y-54861904D01*
X96847619Y-54823809D01*
X96885714Y-54747619D01*
X96885714Y-54442857D01*
X96847619Y-54366666D01*
X96771428Y-54328571D01*
X96619047Y-54328571D01*
X96542857Y-54366666D01*
X96504761Y-54442857D01*
X96504761Y-54519047D01*
X96885714Y-54595238D01*
X96161904Y-54861904D02*
X96161904Y-54328571D01*
X96161904Y-54480952D02*
X96123809Y-54404761D01*
X96085714Y-54366666D01*
X96009523Y-54328571D01*
X95933333Y-54328571D01*
X94600000Y-54785714D02*
X94638095Y-54823809D01*
X94752380Y-54861904D01*
X94828571Y-54861904D01*
X94942857Y-54823809D01*
X95019047Y-54747619D01*
X95057142Y-54671428D01*
X95095238Y-54519047D01*
X95095238Y-54404761D01*
X95057142Y-54252380D01*
X95019047Y-54176190D01*
X94942857Y-54100000D01*
X94828571Y-54061904D01*
X94752380Y-54061904D01*
X94638095Y-54100000D01*
X94600000Y-54138095D01*
X94257142Y-54442857D02*
X93990476Y-54442857D01*
X93876190Y-54861904D02*
X94257142Y-54861904D01*
X94257142Y-54061904D01*
X93876190Y-54061904D01*
X93076190Y-54861904D02*
X93342857Y-54480952D01*
X93533333Y-54861904D02*
X93533333Y-54061904D01*
X93228571Y-54061904D01*
X93152380Y-54100000D01*
X93114285Y-54138095D01*
X93076190Y-54214285D01*
X93076190Y-54328571D01*
X93114285Y-54404761D01*
X93152380Y-54442857D01*
X93228571Y-54480952D01*
X93533333Y-54480952D01*
X92733333Y-54861904D02*
X92733333Y-54061904D01*
X92276190Y-54861904D01*
X92276190Y-54061904D01*
X91895238Y-54557142D02*
X91285714Y-54557142D01*
X90752380Y-54061904D02*
X90600000Y-54061904D01*
X90523809Y-54100000D01*
X90447619Y-54176190D01*
X90409523Y-54328571D01*
X90409523Y-54595238D01*
X90447619Y-54747619D01*
X90523809Y-54823809D01*
X90600000Y-54861904D01*
X90752380Y-54861904D01*
X90828571Y-54823809D01*
X90904761Y-54747619D01*
X90942857Y-54595238D01*
X90942857Y-54328571D01*
X90904761Y-54176190D01*
X90828571Y-54100000D01*
X90752380Y-54061904D01*
X90066666Y-54861904D02*
X90066666Y-54061904D01*
X90066666Y-54442857D02*
X89609523Y-54442857D01*
X89609523Y-54861904D02*
X89609523Y-54061904D01*
X88847619Y-54861904D02*
X89228571Y-54861904D01*
X89228571Y-54061904D01*
X88580952Y-54557142D02*
X87971428Y-54557142D01*
X87590476Y-54861904D02*
X87590476Y-54061904D01*
X87285714Y-54061904D01*
X87209523Y-54100000D01*
X87171428Y-54138095D01*
X87133333Y-54214285D01*
X87133333Y-54328571D01*
X87171428Y-54404761D01*
X87209523Y-54442857D01*
X87285714Y-54480952D01*
X87590476Y-54480952D01*
X86257142Y-54328571D02*
X86066666Y-54861904D01*
X85876190Y-54328571D01*
X85609523Y-54138095D02*
X85571428Y-54100000D01*
X85495238Y-54061904D01*
X85304761Y-54061904D01*
X85228571Y-54100000D01*
X85190476Y-54138095D01*
X85152380Y-54214285D01*
X85152380Y-54290476D01*
X85190476Y-54404761D01*
X85647619Y-54861904D01*
X85152380Y-54861904D01*
X101990476Y-52752380D02*
X102066666Y-52714285D01*
X102219047Y-52714285D01*
X102295238Y-52752380D01*
X102371428Y-52828571D01*
X102409523Y-52904761D01*
X102409523Y-53057142D01*
X102371428Y-53133333D01*
X102295238Y-53209523D01*
X102219047Y-53247619D01*
X102066666Y-53247619D01*
X101990476Y-53209523D01*
X102142857Y-52447619D02*
X102333333Y-52485714D01*
X102523809Y-52600000D01*
X102638095Y-52790476D01*
X102676190Y-52980952D01*
X102638095Y-53171428D01*
X102523809Y-53361904D01*
X102333333Y-53476190D01*
X102142857Y-53514285D01*
X101952380Y-53476190D01*
X101761904Y-53361904D01*
X101647619Y-53171428D01*
X101609523Y-52980952D01*
X101647619Y-52790476D01*
X101761904Y-52600000D01*
X101952380Y-52485714D01*
X102142857Y-52447619D01*
X100390476Y-52942857D02*
X100657142Y-52942857D01*
X100657142Y-53361904D02*
X100657142Y-52561904D01*
X100276190Y-52561904D01*
X99971428Y-53361904D02*
X99971428Y-52828571D01*
X99971428Y-52980952D02*
X99933333Y-52904761D01*
X99895238Y-52866666D01*
X99819047Y-52828571D01*
X99742857Y-52828571D01*
X99133333Y-53361904D02*
X99133333Y-52942857D01*
X99171428Y-52866666D01*
X99247619Y-52828571D01*
X99400000Y-52828571D01*
X99476190Y-52866666D01*
X99133333Y-53323809D02*
X99209523Y-53361904D01*
X99400000Y-53361904D01*
X99476190Y-53323809D01*
X99514285Y-53247619D01*
X99514285Y-53171428D01*
X99476190Y-53095238D01*
X99400000Y-53057142D01*
X99209523Y-53057142D01*
X99133333Y-53019047D01*
X98752380Y-52828571D02*
X98752380Y-53361904D01*
X98752380Y-52904761D02*
X98714285Y-52866666D01*
X98638095Y-52828571D01*
X98523809Y-52828571D01*
X98447619Y-52866666D01*
X98409523Y-52942857D01*
X98409523Y-53361904D01*
X98028571Y-53361904D02*
X98028571Y-52561904D01*
X97952380Y-53057142D02*
X97723809Y-53361904D01*
X97723809Y-52828571D02*
X98028571Y-53133333D01*
X97266666Y-53361904D02*
X97342857Y-53323809D01*
X97380952Y-53247619D01*
X97380952Y-52561904D01*
X96961904Y-53361904D02*
X96961904Y-52828571D01*
X96961904Y-52561904D02*
X97000000Y-52600000D01*
X96961904Y-52638095D01*
X96923809Y-52600000D01*
X96961904Y-52561904D01*
X96961904Y-52638095D01*
X96580952Y-52828571D02*
X96580952Y-53361904D01*
X96580952Y-52904761D02*
X96542857Y-52866666D01*
X96466666Y-52828571D01*
X96352380Y-52828571D01*
X96276190Y-52866666D01*
X96238095Y-52942857D01*
X96238095Y-53361904D01*
X95247619Y-53361904D02*
X95247619Y-52561904D01*
X95247619Y-52942857D02*
X94790476Y-52942857D01*
X94790476Y-53361904D02*
X94790476Y-52561904D01*
X94066666Y-53361904D02*
X94066666Y-52942857D01*
X94104761Y-52866666D01*
X94180952Y-52828571D01*
X94333333Y-52828571D01*
X94409523Y-52866666D01*
X94066666Y-53323809D02*
X94142857Y-53361904D01*
X94333333Y-53361904D01*
X94409523Y-53323809D01*
X94447619Y-53247619D01*
X94447619Y-53171428D01*
X94409523Y-53095238D01*
X94333333Y-53057142D01*
X94142857Y-53057142D01*
X94066666Y-53019047D01*
X93685714Y-53361904D02*
X93685714Y-52828571D01*
X93685714Y-52980952D02*
X93647619Y-52904761D01*
X93609523Y-52866666D01*
X93533333Y-52828571D01*
X93457142Y-52828571D01*
X92847619Y-53361904D02*
X92847619Y-52561904D01*
X92847619Y-53323809D02*
X92923809Y-53361904D01*
X93076190Y-53361904D01*
X93152380Y-53323809D01*
X93190476Y-53285714D01*
X93228571Y-53209523D01*
X93228571Y-52980952D01*
X93190476Y-52904761D01*
X93152380Y-52866666D01*
X93076190Y-52828571D01*
X92923809Y-52828571D01*
X92847619Y-52866666D01*
X92466666Y-53361904D02*
X92466666Y-52828571D01*
X92466666Y-52561904D02*
X92504761Y-52600000D01*
X92466666Y-52638095D01*
X92428571Y-52600000D01*
X92466666Y-52561904D01*
X92466666Y-52638095D01*
X92085714Y-52828571D02*
X92085714Y-53361904D01*
X92085714Y-52904761D02*
X92047619Y-52866666D01*
X91971428Y-52828571D01*
X91857142Y-52828571D01*
X91780952Y-52866666D01*
X91742857Y-52942857D01*
X91742857Y-53361904D01*
X91019047Y-52828571D02*
X91019047Y-53476190D01*
X91057142Y-53552380D01*
X91095238Y-53590476D01*
X91171428Y-53628571D01*
X91285714Y-53628571D01*
X91361904Y-53590476D01*
X91019047Y-53323809D02*
X91095238Y-53361904D01*
X91247619Y-53361904D01*
X91323809Y-53323809D01*
X91361904Y-53285714D01*
X91400000Y-53209523D01*
X91400000Y-52980952D01*
X91361904Y-52904761D01*
X91323809Y-52866666D01*
X91247619Y-52828571D01*
X91095238Y-52828571D01*
X91019047Y-52866666D01*
X90066666Y-52638095D02*
X90028571Y-52600000D01*
X89952380Y-52561904D01*
X89761904Y-52561904D01*
X89685714Y-52600000D01*
X89647619Y-52638095D01*
X89609523Y-52714285D01*
X89609523Y-52790476D01*
X89647619Y-52904761D01*
X90104761Y-53361904D01*
X89609523Y-53361904D01*
X89114285Y-52561904D02*
X89038095Y-52561904D01*
X88961904Y-52600000D01*
X88923809Y-52638095D01*
X88885714Y-52714285D01*
X88847619Y-52866666D01*
X88847619Y-53057142D01*
X88885714Y-53209523D01*
X88923809Y-53285714D01*
X88961904Y-53323809D01*
X89038095Y-53361904D01*
X89114285Y-53361904D01*
X89190476Y-53323809D01*
X89228571Y-53285714D01*
X89266666Y-53209523D01*
X89304761Y-53057142D01*
X89304761Y-52866666D01*
X89266666Y-52714285D01*
X89228571Y-52638095D01*
X89190476Y-52600000D01*
X89114285Y-52561904D01*
X88542857Y-52638095D02*
X88504761Y-52600000D01*
X88428571Y-52561904D01*
X88238095Y-52561904D01*
X88161904Y-52600000D01*
X88123809Y-52638095D01*
X88085714Y-52714285D01*
X88085714Y-52790476D01*
X88123809Y-52904761D01*
X88580952Y-53361904D01*
X88085714Y-53361904D01*
X87590476Y-52561904D02*
X87514285Y-52561904D01*
X87438095Y-52600000D01*
X87400000Y-52638095D01*
X87361904Y-52714285D01*
X87323809Y-52866666D01*
X87323809Y-53057142D01*
X87361904Y-53209523D01*
X87400000Y-53285714D01*
X87438095Y-53323809D01*
X87514285Y-53361904D01*
X87590476Y-53361904D01*
X87666666Y-53323809D01*
X87704761Y-53285714D01*
X87742857Y-53209523D01*
X87780952Y-53057142D01*
X87780952Y-52866666D01*
X87742857Y-52714285D01*
X87704761Y-52638095D01*
X87666666Y-52600000D01*
X87590476Y-52561904D01*
D13*
%TO.C,M1*%
X88086000Y-78462000D02*
X88086000Y-68222000D01*
X83445000Y-78462000D02*
X83445000Y-68222000D01*
X88086000Y-78462000D02*
X83445000Y-78462000D01*
X88086000Y-68222000D02*
X83445000Y-68222000D01*
X86576000Y-78462000D02*
X86576000Y-68222000D01*
X88086000Y-75192000D02*
X86576000Y-75192000D01*
X88086000Y-71491000D02*
X86576000Y-71491000D01*
D14*
%TO.C,REF\u002A\u002A*%
G36*
X43133662Y-45251066D02*
G01*
X42852206Y-46744045D01*
X41813673Y-47172163D01*
X40775139Y-47600280D01*
X39529245Y-46753081D01*
X39180330Y-46517193D01*
X38864929Y-46306575D01*
X38597761Y-46130845D01*
X38393544Y-45999617D01*
X38266996Y-45922508D01*
X38232533Y-45905882D01*
X38170448Y-45948643D01*
X38037779Y-46066859D01*
X37849399Y-46245428D01*
X37620175Y-46469250D01*
X37364981Y-46723222D01*
X37098685Y-46992245D01*
X36836158Y-47261217D01*
X36592271Y-47515037D01*
X36381895Y-47738603D01*
X36219899Y-47916814D01*
X36121155Y-48034570D01*
X36097549Y-48073979D01*
X36131522Y-48146632D01*
X36226766Y-48305801D01*
X36373265Y-48535916D01*
X36561007Y-48821408D01*
X36779978Y-49146709D01*
X36906863Y-49332252D01*
X37138137Y-49671054D01*
X37343648Y-49976789D01*
X37513425Y-50234237D01*
X37637498Y-50428181D01*
X37705898Y-50543402D01*
X37716177Y-50567616D01*
X37692876Y-50636433D01*
X37629363Y-50796819D01*
X37535221Y-51026223D01*
X37420034Y-51302096D01*
X37293383Y-51601887D01*
X37164852Y-51903046D01*
X37044025Y-52183022D01*
X36940485Y-52419266D01*
X36863814Y-52589228D01*
X36823595Y-52670357D01*
X36821221Y-52673550D01*
X36758070Y-52689041D01*
X36589885Y-52723600D01*
X36334100Y-52773830D01*
X36008147Y-52836334D01*
X35629459Y-52907714D01*
X35408515Y-52948877D01*
X35003868Y-53025921D01*
X34638376Y-53099233D01*
X34330532Y-53164802D01*
X34098826Y-53218615D01*
X33961747Y-53256661D01*
X33934191Y-53268732D01*
X33907203Y-53350435D01*
X33885427Y-53534961D01*
X33868849Y-53800730D01*
X33857454Y-54126166D01*
X33851227Y-54489690D01*
X33850155Y-54869725D01*
X33854221Y-55244692D01*
X33863411Y-55593014D01*
X33877711Y-55893113D01*
X33897105Y-56123411D01*
X33921579Y-56262329D01*
X33936258Y-56291249D01*
X34024002Y-56325913D01*
X34209928Y-56375470D01*
X34469442Y-56434098D01*
X34777951Y-56495976D01*
X34885645Y-56515994D01*
X35404881Y-56611102D01*
X35815040Y-56687697D01*
X36129675Y-56748821D01*
X36362337Y-56797521D01*
X36526581Y-56836839D01*
X36635957Y-56869820D01*
X36704019Y-56899509D01*
X36744319Y-56928950D01*
X36749957Y-56934769D01*
X36806242Y-57028499D01*
X36892105Y-57210911D01*
X36998971Y-57459667D01*
X37118269Y-57752432D01*
X37241424Y-58066869D01*
X37359862Y-58380641D01*
X37465012Y-58671412D01*
X37548298Y-58916846D01*
X37601147Y-59094606D01*
X37614987Y-59182355D01*
X37613833Y-59185429D01*
X37566940Y-59257152D01*
X37460558Y-59414962D01*
X37305867Y-59642432D01*
X37114045Y-59923137D01*
X36896272Y-60240650D01*
X36834253Y-60330881D01*
X36613118Y-60658006D01*
X36418528Y-60956477D01*
X36261085Y-61209153D01*
X36151387Y-61398896D01*
X36100036Y-61508567D01*
X36097549Y-61522041D01*
X36140694Y-61592859D01*
X36259910Y-61733151D01*
X36439873Y-61927841D01*
X36665257Y-62161850D01*
X36920736Y-62420101D01*
X37190985Y-62687515D01*
X37460678Y-62949014D01*
X37714490Y-63189522D01*
X37937094Y-63393960D01*
X38113166Y-63547250D01*
X38227380Y-63634314D01*
X38258976Y-63648529D01*
X38332521Y-63615048D01*
X38483096Y-63524748D01*
X38686175Y-63392839D01*
X38842423Y-63286667D01*
X39125537Y-63091850D01*
X39460813Y-62862460D01*
X39797112Y-62633438D01*
X39977917Y-62510865D01*
X40589903Y-62096925D01*
X41103623Y-62374688D01*
X41337660Y-62496370D01*
X41536674Y-62590951D01*
X41671331Y-62644895D01*
X41705607Y-62652402D01*
X41746824Y-62596981D01*
X41828137Y-62440373D01*
X41943478Y-62197021D01*
X42086775Y-61881373D01*
X42251959Y-61507873D01*
X42432960Y-61090968D01*
X42623708Y-60645104D01*
X42818133Y-60184726D01*
X43010165Y-59724280D01*
X43193733Y-59278211D01*
X43362768Y-58860967D01*
X43511200Y-58486992D01*
X43632958Y-58170732D01*
X43721973Y-57926633D01*
X43772175Y-57769141D01*
X43780249Y-57715052D01*
X43716258Y-57646059D01*
X43576153Y-57534063D01*
X43389221Y-57402334D01*
X43373532Y-57391911D01*
X42890387Y-57005171D01*
X42500814Y-56553976D01*
X42208188Y-56052755D01*
X42015886Y-55515934D01*
X41927283Y-54957941D01*
X41945756Y-54393202D01*
X42074681Y-53836146D01*
X42317434Y-53301198D01*
X42388854Y-53184158D01*
X42760329Y-52711545D01*
X43199182Y-52332029D01*
X43690224Y-52047585D01*
X44218266Y-51860186D01*
X44768117Y-51771805D01*
X45324590Y-51784418D01*
X45872496Y-51899996D01*
X46396644Y-52120514D01*
X46881846Y-52447946D01*
X47031933Y-52580843D01*
X47413912Y-52996847D01*
X47692256Y-53434780D01*
X47883191Y-53925664D01*
X47989532Y-54411792D01*
X48015783Y-54958353D01*
X47928248Y-55507628D01*
X47735817Y-56041050D01*
X47447382Y-56540053D01*
X47071835Y-56986072D01*
X46618067Y-57360541D01*
X46558431Y-57400013D01*
X46369496Y-57529279D01*
X46225871Y-57641280D01*
X46157206Y-57712791D01*
X46156207Y-57715052D01*
X46170949Y-57792409D01*
X46229386Y-57967977D01*
X46325446Y-58227313D01*
X46453056Y-58555973D01*
X46606144Y-58939517D01*
X46778638Y-59363501D01*
X46964465Y-59813483D01*
X47157553Y-60275019D01*
X47351829Y-60733669D01*
X47541221Y-61174988D01*
X47719656Y-61584535D01*
X47881063Y-61947868D01*
X48019368Y-62250543D01*
X48128499Y-62478117D01*
X48202384Y-62616150D01*
X48232138Y-62652402D01*
X48323056Y-62624172D01*
X48493174Y-62548461D01*
X48713158Y-62438799D01*
X48834123Y-62374688D01*
X49347842Y-62096925D01*
X49959828Y-62510865D01*
X50272233Y-62722923D01*
X50614262Y-62956288D01*
X50934778Y-63176020D01*
X51095322Y-63286667D01*
X51321121Y-63438294D01*
X51512321Y-63558451D01*
X51643980Y-63631923D01*
X51686744Y-63647455D01*
X51748986Y-63605556D01*
X51886737Y-63488590D01*
X52086642Y-63308699D01*
X52335348Y-63078030D01*
X52619498Y-62808725D01*
X52799210Y-62635813D01*
X53113621Y-62326891D01*
X53385341Y-62050584D01*
X53603387Y-61818712D01*
X53756775Y-61643093D01*
X53834521Y-61535548D01*
X53841980Y-61513724D01*
X53807367Y-61430708D01*
X53711719Y-61262855D01*
X53565645Y-61027158D01*
X53379756Y-60740611D01*
X53164661Y-60420207D01*
X53103493Y-60330881D01*
X52880613Y-60006222D01*
X52680655Y-59713921D01*
X52514798Y-59470404D01*
X52394222Y-59292097D01*
X52330106Y-59195425D01*
X52323912Y-59185429D01*
X52333175Y-59108386D01*
X52382345Y-58938997D01*
X52462849Y-58699597D01*
X52566112Y-58412522D01*
X52683562Y-58100110D01*
X52806625Y-57784697D01*
X52926728Y-57488619D01*
X53035297Y-57234212D01*
X53123758Y-57043814D01*
X53183539Y-56939760D01*
X53187788Y-56934769D01*
X53224344Y-56905031D01*
X53286087Y-56875623D01*
X53386568Y-56843502D01*
X53539341Y-56805622D01*
X53757957Y-56758940D01*
X54055969Y-56700411D01*
X54446930Y-56626991D01*
X54944392Y-56535636D01*
X55052100Y-56515994D01*
X55371323Y-56454318D01*
X55649616Y-56393982D01*
X55862386Y-56340808D01*
X55985040Y-56300619D01*
X56001487Y-56291249D01*
X56028588Y-56208183D01*
X56050617Y-56022553D01*
X56067559Y-55755938D01*
X56079400Y-55429917D01*
X56086124Y-55066066D01*
X56087716Y-54685964D01*
X56084163Y-54311189D01*
X56075449Y-53963318D01*
X56061559Y-53663930D01*
X56042479Y-53434603D01*
X56018194Y-53296913D01*
X56003554Y-53268732D01*
X55922049Y-53240306D01*
X55736454Y-53194059D01*
X55465260Y-53134005D01*
X55126957Y-53064154D01*
X54740036Y-52988519D01*
X54529230Y-52948877D01*
X54129259Y-52874108D01*
X53772581Y-52806375D01*
X53476629Y-52749076D01*
X53258837Y-52705607D01*
X53136636Y-52679367D01*
X53116524Y-52673550D01*
X53082532Y-52607964D01*
X53010676Y-52449988D01*
X52910536Y-52222191D01*
X52791688Y-51947142D01*
X52663711Y-51647411D01*
X52536184Y-51345567D01*
X52418684Y-51064177D01*
X52320788Y-50825813D01*
X52252077Y-50653042D01*
X52222126Y-50568434D01*
X52221569Y-50564736D01*
X52255522Y-50497992D01*
X52350711Y-50344399D01*
X52497132Y-50119221D01*
X52684779Y-49837724D01*
X52903648Y-49515174D01*
X53030882Y-49329902D01*
X53262727Y-48990192D01*
X53468647Y-48681772D01*
X53638597Y-48420243D01*
X53762528Y-48221206D01*
X53830394Y-48100266D01*
X53840196Y-48073154D01*
X53798062Y-48010049D01*
X53681579Y-47875310D01*
X53505628Y-47684031D01*
X53285086Y-47451308D01*
X53034835Y-47192236D01*
X52769754Y-46921909D01*
X52504722Y-46655423D01*
X52254619Y-46407873D01*
X52034324Y-46194354D01*
X51858717Y-46029961D01*
X51742678Y-45929789D01*
X51703858Y-45905882D01*
X51640651Y-45939498D01*
X51489471Y-46033938D01*
X51265019Y-46179588D01*
X50981992Y-46366834D01*
X50655090Y-46586063D01*
X50408500Y-46753081D01*
X49162606Y-47600280D01*
X48124073Y-47172163D01*
X47085539Y-46744045D01*
X46804083Y-45251066D01*
X46522627Y-43758088D01*
X43415118Y-43758088D01*
X43133662Y-45251066D01*
G37*
X43133662Y-45251066D02*
X42852206Y-46744045D01*
X41813673Y-47172163D01*
X40775139Y-47600280D01*
X39529245Y-46753081D01*
X39180330Y-46517193D01*
X38864929Y-46306575D01*
X38597761Y-46130845D01*
X38393544Y-45999617D01*
X38266996Y-45922508D01*
X38232533Y-45905882D01*
X38170448Y-45948643D01*
X38037779Y-46066859D01*
X37849399Y-46245428D01*
X37620175Y-46469250D01*
X37364981Y-46723222D01*
X37098685Y-46992245D01*
X36836158Y-47261217D01*
X36592271Y-47515037D01*
X36381895Y-47738603D01*
X36219899Y-47916814D01*
X36121155Y-48034570D01*
X36097549Y-48073979D01*
X36131522Y-48146632D01*
X36226766Y-48305801D01*
X36373265Y-48535916D01*
X36561007Y-48821408D01*
X36779978Y-49146709D01*
X36906863Y-49332252D01*
X37138137Y-49671054D01*
X37343648Y-49976789D01*
X37513425Y-50234237D01*
X37637498Y-50428181D01*
X37705898Y-50543402D01*
X37716177Y-50567616D01*
X37692876Y-50636433D01*
X37629363Y-50796819D01*
X37535221Y-51026223D01*
X37420034Y-51302096D01*
X37293383Y-51601887D01*
X37164852Y-51903046D01*
X37044025Y-52183022D01*
X36940485Y-52419266D01*
X36863814Y-52589228D01*
X36823595Y-52670357D01*
X36821221Y-52673550D01*
X36758070Y-52689041D01*
X36589885Y-52723600D01*
X36334100Y-52773830D01*
X36008147Y-52836334D01*
X35629459Y-52907714D01*
X35408515Y-52948877D01*
X35003868Y-53025921D01*
X34638376Y-53099233D01*
X34330532Y-53164802D01*
X34098826Y-53218615D01*
X33961747Y-53256661D01*
X33934191Y-53268732D01*
X33907203Y-53350435D01*
X33885427Y-53534961D01*
X33868849Y-53800730D01*
X33857454Y-54126166D01*
X33851227Y-54489690D01*
X33850155Y-54869725D01*
X33854221Y-55244692D01*
X33863411Y-55593014D01*
X33877711Y-55893113D01*
X33897105Y-56123411D01*
X33921579Y-56262329D01*
X33936258Y-56291249D01*
X34024002Y-56325913D01*
X34209928Y-56375470D01*
X34469442Y-56434098D01*
X34777951Y-56495976D01*
X34885645Y-56515994D01*
X35404881Y-56611102D01*
X35815040Y-56687697D01*
X36129675Y-56748821D01*
X36362337Y-56797521D01*
X36526581Y-56836839D01*
X36635957Y-56869820D01*
X36704019Y-56899509D01*
X36744319Y-56928950D01*
X36749957Y-56934769D01*
X36806242Y-57028499D01*
X36892105Y-57210911D01*
X36998971Y-57459667D01*
X37118269Y-57752432D01*
X37241424Y-58066869D01*
X37359862Y-58380641D01*
X37465012Y-58671412D01*
X37548298Y-58916846D01*
X37601147Y-59094606D01*
X37614987Y-59182355D01*
X37613833Y-59185429D01*
X37566940Y-59257152D01*
X37460558Y-59414962D01*
X37305867Y-59642432D01*
X37114045Y-59923137D01*
X36896272Y-60240650D01*
X36834253Y-60330881D01*
X36613118Y-60658006D01*
X36418528Y-60956477D01*
X36261085Y-61209153D01*
X36151387Y-61398896D01*
X36100036Y-61508567D01*
X36097549Y-61522041D01*
X36140694Y-61592859D01*
X36259910Y-61733151D01*
X36439873Y-61927841D01*
X36665257Y-62161850D01*
X36920736Y-62420101D01*
X37190985Y-62687515D01*
X37460678Y-62949014D01*
X37714490Y-63189522D01*
X37937094Y-63393960D01*
X38113166Y-63547250D01*
X38227380Y-63634314D01*
X38258976Y-63648529D01*
X38332521Y-63615048D01*
X38483096Y-63524748D01*
X38686175Y-63392839D01*
X38842423Y-63286667D01*
X39125537Y-63091850D01*
X39460813Y-62862460D01*
X39797112Y-62633438D01*
X39977917Y-62510865D01*
X40589903Y-62096925D01*
X41103623Y-62374688D01*
X41337660Y-62496370D01*
X41536674Y-62590951D01*
X41671331Y-62644895D01*
X41705607Y-62652402D01*
X41746824Y-62596981D01*
X41828137Y-62440373D01*
X41943478Y-62197021D01*
X42086775Y-61881373D01*
X42251959Y-61507873D01*
X42432960Y-61090968D01*
X42623708Y-60645104D01*
X42818133Y-60184726D01*
X43010165Y-59724280D01*
X43193733Y-59278211D01*
X43362768Y-58860967D01*
X43511200Y-58486992D01*
X43632958Y-58170732D01*
X43721973Y-57926633D01*
X43772175Y-57769141D01*
X43780249Y-57715052D01*
X43716258Y-57646059D01*
X43576153Y-57534063D01*
X43389221Y-57402334D01*
X43373532Y-57391911D01*
X42890387Y-57005171D01*
X42500814Y-56553976D01*
X42208188Y-56052755D01*
X42015886Y-55515934D01*
X41927283Y-54957941D01*
X41945756Y-54393202D01*
X42074681Y-53836146D01*
X42317434Y-53301198D01*
X42388854Y-53184158D01*
X42760329Y-52711545D01*
X43199182Y-52332029D01*
X43690224Y-52047585D01*
X44218266Y-51860186D01*
X44768117Y-51771805D01*
X45324590Y-51784418D01*
X45872496Y-51899996D01*
X46396644Y-52120514D01*
X46881846Y-52447946D01*
X47031933Y-52580843D01*
X47413912Y-52996847D01*
X47692256Y-53434780D01*
X47883191Y-53925664D01*
X47989532Y-54411792D01*
X48015783Y-54958353D01*
X47928248Y-55507628D01*
X47735817Y-56041050D01*
X47447382Y-56540053D01*
X47071835Y-56986072D01*
X46618067Y-57360541D01*
X46558431Y-57400013D01*
X46369496Y-57529279D01*
X46225871Y-57641280D01*
X46157206Y-57712791D01*
X46156207Y-57715052D01*
X46170949Y-57792409D01*
X46229386Y-57967977D01*
X46325446Y-58227313D01*
X46453056Y-58555973D01*
X46606144Y-58939517D01*
X46778638Y-59363501D01*
X46964465Y-59813483D01*
X47157553Y-60275019D01*
X47351829Y-60733669D01*
X47541221Y-61174988D01*
X47719656Y-61584535D01*
X47881063Y-61947868D01*
X48019368Y-62250543D01*
X48128499Y-62478117D01*
X48202384Y-62616150D01*
X48232138Y-62652402D01*
X48323056Y-62624172D01*
X48493174Y-62548461D01*
X48713158Y-62438799D01*
X48834123Y-62374688D01*
X49347842Y-62096925D01*
X49959828Y-62510865D01*
X50272233Y-62722923D01*
X50614262Y-62956288D01*
X50934778Y-63176020D01*
X51095322Y-63286667D01*
X51321121Y-63438294D01*
X51512321Y-63558451D01*
X51643980Y-63631923D01*
X51686744Y-63647455D01*
X51748986Y-63605556D01*
X51886737Y-63488590D01*
X52086642Y-63308699D01*
X52335348Y-63078030D01*
X52619498Y-62808725D01*
X52799210Y-62635813D01*
X53113621Y-62326891D01*
X53385341Y-62050584D01*
X53603387Y-61818712D01*
X53756775Y-61643093D01*
X53834521Y-61535548D01*
X53841980Y-61513724D01*
X53807367Y-61430708D01*
X53711719Y-61262855D01*
X53565645Y-61027158D01*
X53379756Y-60740611D01*
X53164661Y-60420207D01*
X53103493Y-60330881D01*
X52880613Y-60006222D01*
X52680655Y-59713921D01*
X52514798Y-59470404D01*
X52394222Y-59292097D01*
X52330106Y-59195425D01*
X52323912Y-59185429D01*
X52333175Y-59108386D01*
X52382345Y-58938997D01*
X52462849Y-58699597D01*
X52566112Y-58412522D01*
X52683562Y-58100110D01*
X52806625Y-57784697D01*
X52926728Y-57488619D01*
X53035297Y-57234212D01*
X53123758Y-57043814D01*
X53183539Y-56939760D01*
X53187788Y-56934769D01*
X53224344Y-56905031D01*
X53286087Y-56875623D01*
X53386568Y-56843502D01*
X53539341Y-56805622D01*
X53757957Y-56758940D01*
X54055969Y-56700411D01*
X54446930Y-56626991D01*
X54944392Y-56535636D01*
X55052100Y-56515994D01*
X55371323Y-56454318D01*
X55649616Y-56393982D01*
X55862386Y-56340808D01*
X55985040Y-56300619D01*
X56001487Y-56291249D01*
X56028588Y-56208183D01*
X56050617Y-56022553D01*
X56067559Y-55755938D01*
X56079400Y-55429917D01*
X56086124Y-55066066D01*
X56087716Y-54685964D01*
X56084163Y-54311189D01*
X56075449Y-53963318D01*
X56061559Y-53663930D01*
X56042479Y-53434603D01*
X56018194Y-53296913D01*
X56003554Y-53268732D01*
X55922049Y-53240306D01*
X55736454Y-53194059D01*
X55465260Y-53134005D01*
X55126957Y-53064154D01*
X54740036Y-52988519D01*
X54529230Y-52948877D01*
X54129259Y-52874108D01*
X53772581Y-52806375D01*
X53476629Y-52749076D01*
X53258837Y-52705607D01*
X53136636Y-52679367D01*
X53116524Y-52673550D01*
X53082532Y-52607964D01*
X53010676Y-52449988D01*
X52910536Y-52222191D01*
X52791688Y-51947142D01*
X52663711Y-51647411D01*
X52536184Y-51345567D01*
X52418684Y-51064177D01*
X52320788Y-50825813D01*
X52252077Y-50653042D01*
X52222126Y-50568434D01*
X52221569Y-50564736D01*
X52255522Y-50497992D01*
X52350711Y-50344399D01*
X52497132Y-50119221D01*
X52684779Y-49837724D01*
X52903648Y-49515174D01*
X53030882Y-49329902D01*
X53262727Y-48990192D01*
X53468647Y-48681772D01*
X53638597Y-48420243D01*
X53762528Y-48221206D01*
X53830394Y-48100266D01*
X53840196Y-48073154D01*
X53798062Y-48010049D01*
X53681579Y-47875310D01*
X53505628Y-47684031D01*
X53285086Y-47451308D01*
X53034835Y-47192236D01*
X52769754Y-46921909D01*
X52504722Y-46655423D01*
X52254619Y-46407873D01*
X52034324Y-46194354D01*
X51858717Y-46029961D01*
X51742678Y-45929789D01*
X51703858Y-45905882D01*
X51640651Y-45939498D01*
X51489471Y-46033938D01*
X51265019Y-46179588D01*
X50981992Y-46366834D01*
X50655090Y-46586063D01*
X50408500Y-46753081D01*
X49162606Y-47600280D01*
X48124073Y-47172163D01*
X47085539Y-46744045D01*
X46804083Y-45251066D01*
X46522627Y-43758088D01*
X43415118Y-43758088D01*
X43133662Y-45251066D01*
D13*
%TO.C,J1*%
X38170000Y-40920000D02*
X38170000Y-42250000D01*
X39500000Y-40920000D02*
X38170000Y-40920000D01*
X40770000Y-40920000D02*
X40770000Y-43580000D01*
X40770000Y-43580000D02*
X43370000Y-43580000D01*
X40770000Y-40920000D02*
X43370000Y-40920000D01*
X43370000Y-40920000D02*
X43370000Y-43580000D01*
%TO.C,J3*%
X96630000Y-43580000D02*
X96630000Y-40920000D01*
X99230000Y-43580000D02*
X96630000Y-43580000D01*
X99230000Y-40920000D02*
X96630000Y-40920000D01*
X99230000Y-43580000D02*
X99230000Y-40920000D01*
X100500000Y-43580000D02*
X101830000Y-43580000D01*
X101830000Y-43580000D02*
X101830000Y-42250000D01*
%TD*%
%TO.C,M1*%
D11*
X88633619Y-74151523D02*
X89633619Y-74151523D01*
X88919333Y-73818190D01*
X89633619Y-73484857D01*
X88633619Y-73484857D01*
X88633619Y-72484857D02*
X88633619Y-73056285D01*
X88633619Y-72770571D02*
X89633619Y-72770571D01*
X89490761Y-72865809D01*
X89395523Y-72961047D01*
X89347904Y-73056285D01*
%TO.C,J1*%
X44061904Y-41983333D02*
X44633333Y-41983333D01*
X44747619Y-41945238D01*
X44823809Y-41869047D01*
X44861904Y-41754761D01*
X44861904Y-41678571D01*
X44861904Y-42783333D02*
X44861904Y-42326190D01*
X44861904Y-42554761D02*
X44061904Y-42554761D01*
X44176190Y-42478571D01*
X44252380Y-42402380D01*
X44290476Y-42326190D01*
%TO.C,J3*%
X95061904Y-41983333D02*
X95633333Y-41983333D01*
X95747619Y-41945238D01*
X95823809Y-41869047D01*
X95861904Y-41754761D01*
X95861904Y-41678571D01*
X95061904Y-42288095D02*
X95061904Y-42783333D01*
X95366666Y-42516666D01*
X95366666Y-42630952D01*
X95404761Y-42707142D01*
X95442857Y-42745238D01*
X95519047Y-42783333D01*
X95709523Y-42783333D01*
X95785714Y-42745238D01*
X95823809Y-42707142D01*
X95861904Y-42630952D01*
X95861904Y-42402380D01*
X95823809Y-42326190D01*
X95785714Y-42288095D01*
%TD*%
M02*
