%TF.GenerationSoftware,KiCad,Pcbnew,(5.1.6)-1*%
%TF.CreationDate,2020-10-25T21:11:49+03:00*%
%TF.ProjectId,ledboard,6c656462-6f61-4726-942e-6b696361645f,v0.4.0*%
%TF.SameCoordinates,Original*%
%TF.FileFunction,Soldermask,Bot*%
%TF.FilePolarity,Negative*%
%FSLAX46Y46*%
G04 Gerber Fmt 4.6, Leading zero omitted, Abs format (unit mm)*
G04 Created by KiCad (PCBNEW (5.1.6)-1) date 2020-10-25 21:11:49*
%MOMM*%
%LPD*%
G01*
G04 APERTURE LIST*
%TA.AperFunction,Profile*%
%ADD10C,0.050000*%
%TD*%
%ADD11C,1.751600*%
%ADD12R,1.751600X1.751600*%
%ADD13C,6.301600*%
%ADD14R,1.625600X1.625600*%
%ADD15C,1.625600*%
%ADD16O,2.101600X2.006600*%
%ADD17R,2.101600X2.006600*%
%ADD18O,0.951600X0.951600*%
%ADD19R,0.951600X0.951600*%
%ADD20C,1.701600*%
%ADD21R,1.701600X1.701600*%
%ADD22O,1.801600X1.801600*%
G04 APERTURE END LIST*
D10*
X119360000Y-91630000D02*
X119360000Y-30670000D01*
X30460000Y-91630000D02*
X119360000Y-91630000D01*
X30460000Y-30670000D02*
X30460000Y-91630000D01*
X119360000Y-30670000D02*
X30460000Y-30670000D01*
D11*
%TO.C,J8*%
X111740000Y-39560000D03*
D12*
X111740000Y-34480000D03*
%TD*%
D13*
%TO.C,U4*%
X34640000Y-84380000D03*
X92640000Y-84380000D03*
X92640000Y-35380000D03*
X34640000Y-35380000D03*
D14*
X39510000Y-36650000D03*
D15*
X42050000Y-36650000D03*
X44590000Y-36650000D03*
X47130000Y-36650000D03*
X49670000Y-36650000D03*
X52210000Y-36650000D03*
X39510000Y-34110000D03*
X42050000Y-34110000D03*
X44590000Y-34110000D03*
X47130000Y-34110000D03*
X49670000Y-34110000D03*
X52210000Y-34110000D03*
X54750000Y-36650000D03*
X54750000Y-34110000D03*
X57290000Y-36650000D03*
X59830000Y-36650000D03*
X62370000Y-36650000D03*
X64910000Y-36650000D03*
X67450000Y-36650000D03*
X69990000Y-36650000D03*
X57290000Y-34110000D03*
X59830000Y-34110000D03*
X62370000Y-34110000D03*
X64910000Y-34110000D03*
X67450000Y-34110000D03*
X69990000Y-34110000D03*
X72530000Y-36650000D03*
X72530000Y-34110000D03*
X75070000Y-36650000D03*
X77610000Y-36650000D03*
X80150000Y-36650000D03*
X82690000Y-36650000D03*
X85230000Y-36650000D03*
X87770000Y-36650000D03*
X75070000Y-34110000D03*
X77610000Y-34110000D03*
X80150000Y-34110000D03*
X82690000Y-34110000D03*
X85230000Y-34110000D03*
X87770000Y-34110000D03*
%TD*%
D16*
%TO.C,M1*%
X85070000Y-76390000D03*
X85070000Y-73850000D03*
D17*
X85070000Y-71310000D03*
%TD*%
D18*
%TO.C,J6*%
X111740000Y-74120000D03*
D19*
X111740000Y-75120000D03*
%TD*%
D18*
%TO.C,J5*%
X111740000Y-69310000D03*
X111740000Y-70310000D03*
D19*
X111740000Y-71310000D03*
%TD*%
D20*
%TO.C,C12*%
X35580000Y-71310000D03*
D21*
X38080000Y-71310000D03*
%TD*%
%TO.C,J1*%
G36*
G01*
X39049600Y-41349200D02*
X39950400Y-41349200D01*
G75*
G02*
X40400800Y-41799600I0J-450400D01*
G01*
X40400800Y-42700400D01*
G75*
G02*
X39950400Y-43150800I-450400J0D01*
G01*
X39049600Y-43150800D01*
G75*
G02*
X38599200Y-42700400I0J450400D01*
G01*
X38599200Y-41799600D01*
G75*
G02*
X39049600Y-41349200I450400J0D01*
G01*
G37*
D22*
X42040000Y-42250000D03*
%TD*%
%TO.C,J2*%
G36*
G01*
X55900800Y-62549600D02*
X55900800Y-63450400D01*
G75*
G02*
X55450400Y-63900800I-450400J0D01*
G01*
X54549600Y-63900800D01*
G75*
G02*
X54099200Y-63450400I0J450400D01*
G01*
X54099200Y-62549600D01*
G75*
G02*
X54549600Y-62099200I450400J0D01*
G01*
X55450400Y-62099200D01*
G75*
G02*
X55900800Y-62549600I0J-450400D01*
G01*
G37*
X55000000Y-65540000D03*
%TD*%
%TO.C,J3*%
X97960000Y-42250000D03*
G36*
G01*
X100950400Y-43150800D02*
X100049600Y-43150800D01*
G75*
G02*
X99599200Y-42700400I0J450400D01*
G01*
X99599200Y-41799600D01*
G75*
G02*
X100049600Y-41349200I450400J0D01*
G01*
X100950400Y-41349200D01*
G75*
G02*
X101400800Y-41799600I0J-450400D01*
G01*
X101400800Y-42700400D01*
G75*
G02*
X100950400Y-43150800I-450400J0D01*
G01*
G37*
%TD*%
%TO.C,J4*%
X85000000Y-65540000D03*
G36*
G01*
X85900800Y-62549600D02*
X85900800Y-63450400D01*
G75*
G02*
X85450400Y-63900800I-450400J0D01*
G01*
X84549600Y-63900800D01*
G75*
G02*
X84099200Y-63450400I0J450400D01*
G01*
X84099200Y-62549600D01*
G75*
G02*
X84549600Y-62099200I450400J0D01*
G01*
X85450400Y-62099200D01*
G75*
G02*
X85900800Y-62549600I0J-450400D01*
G01*
G37*
%TD*%
M02*
