%TF.GenerationSoftware,KiCad,Pcbnew,(5.1.8)-1*%
%TF.CreationDate,2020-12-28T19:40:00+03:00*%
%TF.ProjectId,ledboard,6c656462-6f61-4726-942e-6b696361645f,v0.4.0*%
%TF.SameCoordinates,Original*%
%TF.FileFunction,Soldermask,Bot*%
%TF.FilePolarity,Negative*%
%FSLAX46Y46*%
G04 Gerber Fmt 4.6, Leading zero omitted, Abs format (unit mm)*
G04 Created by KiCad (PCBNEW (5.1.8)-1) date 2020-12-28 19:40:00*
%MOMM*%
%LPD*%
G01*
G04 APERTURE LIST*
%TA.AperFunction,Profile*%
%ADD10C,0.050000*%
%TD*%
%ADD11C,1.803400*%
%ADD12O,0.951600X0.951600*%
%ADD13O,1.801600X1.801600*%
%ADD14O,2.101600X2.006600*%
%ADD15C,1.701600*%
G04 APERTURE END LIST*
D10*
X34450000Y-88129950D02*
G75*
G02*
X31430000Y-85120000I-20000J2999950D01*
G01*
X116430000Y-85120000D02*
G75*
G02*
X113420000Y-88130000I-3000000J-10000D01*
G01*
X113420000Y-32130017D02*
G75*
G02*
X116430000Y-35130000I10000J-2999983D01*
G01*
X31419850Y-35130000D02*
G75*
G02*
X34450000Y-32130000I3000150J0D01*
G01*
X113420000Y-32130000D02*
X34450000Y-32130000D01*
X81000000Y-45130000D02*
X58990000Y-45130000D01*
X81000000Y-45130000D02*
X81000000Y-88130302D01*
X58990000Y-45130302D02*
X58990000Y-88130302D01*
X81000000Y-88130302D02*
X113420000Y-88130000D01*
X116429983Y-85120000D02*
X116430000Y-35130000D01*
X31419933Y-35130000D02*
X31430000Y-85120000D01*
X34450000Y-88130000D02*
X58990000Y-88130302D01*
D11*
%TO.C,J2*%
X87880002Y-82360001D03*
X87880002Y-75360000D03*
X84379999Y-82360001D03*
X84379999Y-75360000D03*
%TD*%
D12*
%TO.C,J5*%
X98210000Y-83930000D03*
X99210000Y-83930000D03*
G36*
G01*
X99785000Y-83454200D02*
X100635000Y-83454200D01*
G75*
G02*
X100685800Y-83505000I0J-50800D01*
G01*
X100685800Y-84355000D01*
G75*
G02*
X100635000Y-84405800I-50800J0D01*
G01*
X99785000Y-84405800D01*
G75*
G02*
X99734200Y-84355000I0J50800D01*
G01*
X99734200Y-83505000D01*
G75*
G02*
X99785000Y-83454200I50800J0D01*
G01*
G37*
%TD*%
%TO.C,J6*%
X94950000Y-83930000D03*
G36*
G01*
X95525000Y-83454200D02*
X96375000Y-83454200D01*
G75*
G02*
X96425800Y-83505000I0J-50800D01*
G01*
X96425800Y-84355000D01*
G75*
G02*
X96375000Y-84405800I-50800J0D01*
G01*
X95525000Y-84405800D01*
G75*
G02*
X95474200Y-84355000I0J50800D01*
G01*
X95474200Y-83505000D01*
G75*
G02*
X95525000Y-83454200I50800J0D01*
G01*
G37*
%TD*%
D13*
%TO.C,J7*%
X88090000Y-34350000D03*
X88090000Y-36890000D03*
X85550000Y-34350000D03*
X85550000Y-36890000D03*
X83010000Y-34350000D03*
X83010000Y-36890000D03*
X80470000Y-34350000D03*
X80470000Y-36890000D03*
X77930000Y-34350000D03*
X77930000Y-36890000D03*
X75390000Y-34350000D03*
X75390000Y-36890000D03*
X72850000Y-34350000D03*
X72850000Y-36890000D03*
X70310000Y-34350000D03*
X70310000Y-36890000D03*
X67770000Y-34350000D03*
X67770000Y-36890000D03*
X65230000Y-34350000D03*
X65230000Y-36890000D03*
X62690000Y-34350000D03*
X62690000Y-36890000D03*
X60150000Y-34350000D03*
X60150000Y-36890000D03*
X57610000Y-34350000D03*
X57610000Y-36890000D03*
X55070000Y-34350000D03*
X55070000Y-36890000D03*
X52530000Y-34350000D03*
X52530000Y-36890000D03*
X49990000Y-34350000D03*
X49990000Y-36890000D03*
X47450000Y-34350000D03*
X47450000Y-36890000D03*
X44910000Y-34350000D03*
X44910000Y-36890000D03*
X42370000Y-34350000D03*
X42370000Y-36890000D03*
X39830000Y-34350000D03*
G36*
G01*
X40680000Y-37790800D02*
X38980000Y-37790800D01*
G75*
G02*
X38929200Y-37740000I0J50800D01*
G01*
X38929200Y-36040000D01*
G75*
G02*
X38980000Y-35989200I50800J0D01*
G01*
X40680000Y-35989200D01*
G75*
G02*
X40730800Y-36040000I0J-50800D01*
G01*
X40730800Y-37740000D01*
G75*
G02*
X40680000Y-37790800I-50800J0D01*
G01*
G37*
%TD*%
D14*
%TO.C,M1*%
X55310000Y-72740000D03*
X55310000Y-75280000D03*
G36*
G01*
X56310000Y-78823300D02*
X54310000Y-78823300D01*
G75*
G02*
X54259200Y-78772500I0J50800D01*
G01*
X54259200Y-76867500D01*
G75*
G02*
X54310000Y-76816700I50800J0D01*
G01*
X56310000Y-76816700D01*
G75*
G02*
X56360800Y-76867500I0J-50800D01*
G01*
X56360800Y-78772500D01*
G75*
G02*
X56310000Y-78823300I-50800J0D01*
G01*
G37*
%TD*%
D15*
%TO.C,C12*%
X35580000Y-71310000D03*
G36*
G01*
X38930800Y-70510000D02*
X38930800Y-72110000D01*
G75*
G02*
X38880000Y-72160800I-50800J0D01*
G01*
X37280000Y-72160800D01*
G75*
G02*
X37229200Y-72110000I0J50800D01*
G01*
X37229200Y-70510000D01*
G75*
G02*
X37280000Y-70459200I50800J0D01*
G01*
X38880000Y-70459200D01*
G75*
G02*
X38930800Y-70510000I0J-50800D01*
G01*
G37*
%TD*%
%TO.C,J1*%
G36*
G01*
X39049600Y-41349200D02*
X39950400Y-41349200D01*
G75*
G02*
X40400800Y-41799600I0J-450400D01*
G01*
X40400800Y-42700400D01*
G75*
G02*
X39950400Y-43150800I-450400J0D01*
G01*
X39049600Y-43150800D01*
G75*
G02*
X38599200Y-42700400I0J450400D01*
G01*
X38599200Y-41799600D01*
G75*
G02*
X39049600Y-41349200I450400J0D01*
G01*
G37*
D13*
X42040000Y-42250000D03*
%TD*%
%TO.C,J3*%
X97960000Y-42250000D03*
G36*
G01*
X100950400Y-43150800D02*
X100049600Y-43150800D01*
G75*
G02*
X99599200Y-42700400I0J450400D01*
G01*
X99599200Y-41799600D01*
G75*
G02*
X100049600Y-41349200I450400J0D01*
G01*
X100950400Y-41349200D01*
G75*
G02*
X101400800Y-41799600I0J-450400D01*
G01*
X101400800Y-42700400D01*
G75*
G02*
X100950400Y-43150800I-450400J0D01*
G01*
G37*
%TD*%
M02*
