%TF.GenerationSoftware,KiCad,Pcbnew,(5.1.8)-1*%
%TF.CreationDate,2020-12-16T18:45:53+03:00*%
%TF.ProjectId,ledboard,6c656462-6f61-4726-942e-6b696361645f,v0.4.0*%
%TF.SameCoordinates,Original*%
%TF.FileFunction,Soldermask,Bot*%
%TF.FilePolarity,Negative*%
%FSLAX46Y46*%
G04 Gerber Fmt 4.6, Leading zero omitted, Abs format (unit mm)*
G04 Created by KiCad (PCBNEW (5.1.8)-1) date 2020-12-16 18:45:53*
%MOMM*%
%LPD*%
G01*
G04 APERTURE LIST*
%TA.AperFunction,Profile*%
%ADD10C,0.050000*%
%TD*%
%ADD11O,0.951600X0.951600*%
%ADD12C,5.501600*%
%ADD13O,1.801600X1.801600*%
%ADD14C,1.751600*%
%ADD15O,2.101600X2.006600*%
%ADD16C,1.701600*%
G04 APERTURE END LIST*
D10*
X113920000Y-32340000D02*
G75*
G02*
X116920000Y-35340000I0J-3000000D01*
G01*
X30960000Y-35330000D02*
G75*
G02*
X33960000Y-32330000I3000000J0D01*
G01*
X113920000Y-32340000D02*
X33960000Y-32330000D01*
X81000000Y-45140000D02*
X59000000Y-45130000D01*
X81000000Y-45140000D02*
X81000000Y-88300000D01*
X59000000Y-45130000D02*
X59000000Y-88340000D01*
X33960000Y-88340000D02*
G75*
G02*
X30960000Y-85340000I0J3000000D01*
G01*
X116920066Y-85310001D02*
G75*
G02*
X113939999Y-88309999I-3000066J1D01*
G01*
X81000000Y-88300000D02*
X113939999Y-88309999D01*
X116920066Y-85310001D02*
X116920000Y-35340000D01*
X30960000Y-35330000D02*
X30960000Y-85340000D01*
X33960000Y-88340000D02*
X59000000Y-88340000D01*
D11*
%TO.C,J5*%
X97548000Y-86804000D03*
X98548000Y-86804000D03*
G36*
G01*
X99123000Y-86328200D02*
X99973000Y-86328200D01*
G75*
G02*
X100023800Y-86379000I0J-50800D01*
G01*
X100023800Y-87229000D01*
G75*
G02*
X99973000Y-87279800I-50800J0D01*
G01*
X99123000Y-87279800D01*
G75*
G02*
X99072200Y-87229000I0J50800D01*
G01*
X99072200Y-86379000D01*
G75*
G02*
X99123000Y-86328200I50800J0D01*
G01*
G37*
%TD*%
%TO.C,J6*%
X94230000Y-86804000D03*
G36*
G01*
X94805000Y-86328200D02*
X95655000Y-86328200D01*
G75*
G02*
X95705800Y-86379000I0J-50800D01*
G01*
X95705800Y-87229000D01*
G75*
G02*
X95655000Y-87279800I-50800J0D01*
G01*
X94805000Y-87279800D01*
G75*
G02*
X94754200Y-87229000I0J50800D01*
G01*
X94754200Y-86379000D01*
G75*
G02*
X94805000Y-86328200I50800J0D01*
G01*
G37*
%TD*%
D12*
%TO.C,REF\u002A\u002A*%
X34610000Y-84420000D03*
%TD*%
%TO.C,REF\u002A\u002A*%
X92610000Y-35420000D03*
%TD*%
%TO.C,REF\u002A\u002A*%
X34610000Y-35420000D03*
%TD*%
D13*
%TO.C,J7*%
X88090000Y-34350000D03*
X88090000Y-36890000D03*
X85550000Y-34350000D03*
X85550000Y-36890000D03*
X83010000Y-34350000D03*
X83010000Y-36890000D03*
X80470000Y-34350000D03*
X80470000Y-36890000D03*
X77930000Y-34350000D03*
X77930000Y-36890000D03*
X75390000Y-34350000D03*
X75390000Y-36890000D03*
X72850000Y-34350000D03*
X72850000Y-36890000D03*
X70310000Y-34350000D03*
X70310000Y-36890000D03*
X67770000Y-34350000D03*
X67770000Y-36890000D03*
X65230000Y-34350000D03*
X65230000Y-36890000D03*
X62690000Y-34350000D03*
X62690000Y-36890000D03*
X60150000Y-34350000D03*
X60150000Y-36890000D03*
X57610000Y-34350000D03*
X57610000Y-36890000D03*
X55070000Y-34350000D03*
X55070000Y-36890000D03*
X52530000Y-34350000D03*
X52530000Y-36890000D03*
X49990000Y-34350000D03*
X49990000Y-36890000D03*
X47450000Y-34350000D03*
X47450000Y-36890000D03*
X44910000Y-34350000D03*
X44910000Y-36890000D03*
X42370000Y-34350000D03*
X42370000Y-36890000D03*
X39830000Y-34350000D03*
G36*
G01*
X40680000Y-37790800D02*
X38980000Y-37790800D01*
G75*
G02*
X38929200Y-37740000I0J50800D01*
G01*
X38929200Y-36040000D01*
G75*
G02*
X38980000Y-35989200I50800J0D01*
G01*
X40680000Y-35989200D01*
G75*
G02*
X40730800Y-36040000I0J-50800D01*
G01*
X40730800Y-37740000D01*
G75*
G02*
X40680000Y-37790800I-50800J0D01*
G01*
G37*
%TD*%
D14*
%TO.C,J8*%
X85070000Y-83248000D03*
G36*
G01*
X91025800Y-82423000D02*
X91025800Y-84073000D01*
G75*
G02*
X90975000Y-84123800I-50800J0D01*
G01*
X89325000Y-84123800D01*
G75*
G02*
X89274200Y-84073000I0J50800D01*
G01*
X89274200Y-82423000D01*
G75*
G02*
X89325000Y-82372200I50800J0D01*
G01*
X90975000Y-82372200D01*
G75*
G02*
X91025800Y-82423000I0J-50800D01*
G01*
G37*
%TD*%
D15*
%TO.C,M1*%
X84816000Y-70802000D03*
X84816000Y-73342000D03*
G36*
G01*
X85816000Y-76885300D02*
X83816000Y-76885300D01*
G75*
G02*
X83765200Y-76834500I0J50800D01*
G01*
X83765200Y-74929500D01*
G75*
G02*
X83816000Y-74878700I50800J0D01*
G01*
X85816000Y-74878700D01*
G75*
G02*
X85866800Y-74929500I0J-50800D01*
G01*
X85866800Y-76834500D01*
G75*
G02*
X85816000Y-76885300I-50800J0D01*
G01*
G37*
%TD*%
D16*
%TO.C,C12*%
X35580000Y-71310000D03*
G36*
G01*
X38930800Y-70510000D02*
X38930800Y-72110000D01*
G75*
G02*
X38880000Y-72160800I-50800J0D01*
G01*
X37280000Y-72160800D01*
G75*
G02*
X37229200Y-72110000I0J50800D01*
G01*
X37229200Y-70510000D01*
G75*
G02*
X37280000Y-70459200I50800J0D01*
G01*
X38880000Y-70459200D01*
G75*
G02*
X38930800Y-70510000I0J-50800D01*
G01*
G37*
%TD*%
%TO.C,J1*%
G36*
G01*
X39049600Y-41349200D02*
X39950400Y-41349200D01*
G75*
G02*
X40400800Y-41799600I0J-450400D01*
G01*
X40400800Y-42700400D01*
G75*
G02*
X39950400Y-43150800I-450400J0D01*
G01*
X39049600Y-43150800D01*
G75*
G02*
X38599200Y-42700400I0J450400D01*
G01*
X38599200Y-41799600D01*
G75*
G02*
X39049600Y-41349200I450400J0D01*
G01*
G37*
D13*
X42040000Y-42250000D03*
%TD*%
%TO.C,J3*%
X97960000Y-42250000D03*
G36*
G01*
X100950400Y-43150800D02*
X100049600Y-43150800D01*
G75*
G02*
X99599200Y-42700400I0J450400D01*
G01*
X99599200Y-41799600D01*
G75*
G02*
X100049600Y-41349200I450400J0D01*
G01*
X100950400Y-41349200D01*
G75*
G02*
X101400800Y-41799600I0J-450400D01*
G01*
X101400800Y-42700400D01*
G75*
G02*
X100950400Y-43150800I-450400J0D01*
G01*
G37*
%TD*%
M02*
