%TF.GenerationSoftware,KiCad,Pcbnew,(5.1.8)-1*%
%TF.CreationDate,2020-12-10T23:46:29+03:00*%
%TF.ProjectId,ledboard,6c656462-6f61-4726-942e-6b696361645f,v0.4.0*%
%TF.SameCoordinates,Original*%
%TF.FileFunction,Soldermask,Bot*%
%TF.FilePolarity,Negative*%
%FSLAX46Y46*%
G04 Gerber Fmt 4.6, Leading zero omitted, Abs format (unit mm)*
G04 Created by KiCad (PCBNEW (5.1.8)-1) date 2020-12-10 23:46:29*
%MOMM*%
%LPD*%
G01*
G04 APERTURE LIST*
%TA.AperFunction,Profile*%
%ADD10C,0.050000*%
%TD*%
%ADD11C,5.501600*%
%ADD12O,1.801600X1.801600*%
%ADD13C,1.751600*%
%ADD14O,2.101600X2.006600*%
%ADD15O,0.951600X0.951600*%
%ADD16C,1.701600*%
G04 APERTURE END LIST*
D10*
X116920000Y-88310000D02*
X116920000Y-31100000D01*
X81780000Y-88290000D02*
X116920000Y-88310000D01*
X81790000Y-44800000D02*
X81780000Y-88290000D01*
X58860000Y-44800000D02*
X81790000Y-44800000D01*
X58850000Y-88310000D02*
X58860000Y-44800000D01*
X30960000Y-88340000D02*
X58850000Y-88310000D01*
X30960000Y-31130000D02*
X30960000Y-88340000D01*
X116920000Y-31100000D02*
X30960000Y-31130000D01*
D11*
%TO.C,REF\u002A\u002A*%
X34610000Y-84420000D03*
%TD*%
%TO.C,REF\u002A\u002A*%
X92610000Y-84420000D03*
%TD*%
%TO.C,REF\u002A\u002A*%
X92610000Y-35420000D03*
%TD*%
%TO.C,REF\u002A\u002A*%
X34610000Y-35420000D03*
%TD*%
D12*
%TO.C,J7*%
X88090000Y-34350000D03*
X88090000Y-36890000D03*
X85550000Y-34350000D03*
X85550000Y-36890000D03*
X83010000Y-34350000D03*
X83010000Y-36890000D03*
X80470000Y-34350000D03*
X80470000Y-36890000D03*
X77930000Y-34350000D03*
X77930000Y-36890000D03*
X75390000Y-34350000D03*
X75390000Y-36890000D03*
X72850000Y-34350000D03*
X72850000Y-36890000D03*
X70310000Y-34350000D03*
X70310000Y-36890000D03*
X67770000Y-34350000D03*
X67770000Y-36890000D03*
X65230000Y-34350000D03*
X65230000Y-36890000D03*
X62690000Y-34350000D03*
X62690000Y-36890000D03*
X60150000Y-34350000D03*
X60150000Y-36890000D03*
X57610000Y-34350000D03*
X57610000Y-36890000D03*
X55070000Y-34350000D03*
X55070000Y-36890000D03*
X52530000Y-34350000D03*
X52530000Y-36890000D03*
X49990000Y-34350000D03*
X49990000Y-36890000D03*
X47450000Y-34350000D03*
X47450000Y-36890000D03*
X44910000Y-34350000D03*
X44910000Y-36890000D03*
X42370000Y-34350000D03*
X42370000Y-36890000D03*
X39830000Y-34350000D03*
G36*
G01*
X40680000Y-37790800D02*
X38980000Y-37790800D01*
G75*
G02*
X38929200Y-37740000I0J50800D01*
G01*
X38929200Y-36040000D01*
G75*
G02*
X38980000Y-35989200I50800J0D01*
G01*
X40680000Y-35989200D01*
G75*
G02*
X40730800Y-36040000I0J-50800D01*
G01*
X40730800Y-37740000D01*
G75*
G02*
X40680000Y-37790800I-50800J0D01*
G01*
G37*
%TD*%
D13*
%TO.C,J8*%
X111740000Y-39560000D03*
G36*
G01*
X110915000Y-33604200D02*
X112565000Y-33604200D01*
G75*
G02*
X112615800Y-33655000I0J-50800D01*
G01*
X112615800Y-35305000D01*
G75*
G02*
X112565000Y-35355800I-50800J0D01*
G01*
X110915000Y-35355800D01*
G75*
G02*
X110864200Y-35305000I0J50800D01*
G01*
X110864200Y-33655000D01*
G75*
G02*
X110915000Y-33604200I50800J0D01*
G01*
G37*
%TD*%
D14*
%TO.C,M1*%
X85070000Y-76390000D03*
X85070000Y-73850000D03*
G36*
G01*
X84070000Y-70306700D02*
X86070000Y-70306700D01*
G75*
G02*
X86120800Y-70357500I0J-50800D01*
G01*
X86120800Y-72262500D01*
G75*
G02*
X86070000Y-72313300I-50800J0D01*
G01*
X84070000Y-72313300D01*
G75*
G02*
X84019200Y-72262500I0J50800D01*
G01*
X84019200Y-70357500D01*
G75*
G02*
X84070000Y-70306700I50800J0D01*
G01*
G37*
%TD*%
D15*
%TO.C,J6*%
X111740000Y-74120000D03*
G36*
G01*
X112215800Y-74695000D02*
X112215800Y-75545000D01*
G75*
G02*
X112165000Y-75595800I-50800J0D01*
G01*
X111315000Y-75595800D01*
G75*
G02*
X111264200Y-75545000I0J50800D01*
G01*
X111264200Y-74695000D01*
G75*
G02*
X111315000Y-74644200I50800J0D01*
G01*
X112165000Y-74644200D01*
G75*
G02*
X112215800Y-74695000I0J-50800D01*
G01*
G37*
%TD*%
%TO.C,J5*%
X111740000Y-69310000D03*
X111740000Y-70310000D03*
G36*
G01*
X112215800Y-70885000D02*
X112215800Y-71735000D01*
G75*
G02*
X112165000Y-71785800I-50800J0D01*
G01*
X111315000Y-71785800D01*
G75*
G02*
X111264200Y-71735000I0J50800D01*
G01*
X111264200Y-70885000D01*
G75*
G02*
X111315000Y-70834200I50800J0D01*
G01*
X112165000Y-70834200D01*
G75*
G02*
X112215800Y-70885000I0J-50800D01*
G01*
G37*
%TD*%
D16*
%TO.C,C12*%
X35580000Y-71310000D03*
G36*
G01*
X38930800Y-70510000D02*
X38930800Y-72110000D01*
G75*
G02*
X38880000Y-72160800I-50800J0D01*
G01*
X37280000Y-72160800D01*
G75*
G02*
X37229200Y-72110000I0J50800D01*
G01*
X37229200Y-70510000D01*
G75*
G02*
X37280000Y-70459200I50800J0D01*
G01*
X38880000Y-70459200D01*
G75*
G02*
X38930800Y-70510000I0J-50800D01*
G01*
G37*
%TD*%
%TO.C,J1*%
G36*
G01*
X39049600Y-41349200D02*
X39950400Y-41349200D01*
G75*
G02*
X40400800Y-41799600I0J-450400D01*
G01*
X40400800Y-42700400D01*
G75*
G02*
X39950400Y-43150800I-450400J0D01*
G01*
X39049600Y-43150800D01*
G75*
G02*
X38599200Y-42700400I0J450400D01*
G01*
X38599200Y-41799600D01*
G75*
G02*
X39049600Y-41349200I450400J0D01*
G01*
G37*
D12*
X42040000Y-42250000D03*
%TD*%
%TO.C,J2*%
G36*
G01*
X55900800Y-62549600D02*
X55900800Y-63450400D01*
G75*
G02*
X55450400Y-63900800I-450400J0D01*
G01*
X54549600Y-63900800D01*
G75*
G02*
X54099200Y-63450400I0J450400D01*
G01*
X54099200Y-62549600D01*
G75*
G02*
X54549600Y-62099200I450400J0D01*
G01*
X55450400Y-62099200D01*
G75*
G02*
X55900800Y-62549600I0J-450400D01*
G01*
G37*
X55000000Y-65540000D03*
%TD*%
%TO.C,J3*%
X97960000Y-42250000D03*
G36*
G01*
X100950400Y-43150800D02*
X100049600Y-43150800D01*
G75*
G02*
X99599200Y-42700400I0J450400D01*
G01*
X99599200Y-41799600D01*
G75*
G02*
X100049600Y-41349200I450400J0D01*
G01*
X100950400Y-41349200D01*
G75*
G02*
X101400800Y-41799600I0J-450400D01*
G01*
X101400800Y-42700400D01*
G75*
G02*
X100950400Y-43150800I-450400J0D01*
G01*
G37*
%TD*%
%TO.C,J4*%
X85000000Y-65540000D03*
G36*
G01*
X85900800Y-62549600D02*
X85900800Y-63450400D01*
G75*
G02*
X85450400Y-63900800I-450400J0D01*
G01*
X84549600Y-63900800D01*
G75*
G02*
X84099200Y-63450400I0J450400D01*
G01*
X84099200Y-62549600D01*
G75*
G02*
X84549600Y-62099200I450400J0D01*
G01*
X85450400Y-62099200D01*
G75*
G02*
X85900800Y-62549600I0J-450400D01*
G01*
G37*
%TD*%
M02*
