%TF.GenerationSoftware,KiCad,Pcbnew,(5.1.8)-1*%
%TF.CreationDate,2020-12-02T22:37:37+03:00*%
%TF.ProjectId,ledboard,6c656462-6f61-4726-942e-6b696361645f,v0.4.0*%
%TF.SameCoordinates,Original*%
%TF.FileFunction,Legend,Top*%
%TF.FilePolarity,Positive*%
%FSLAX46Y46*%
G04 Gerber Fmt 4.6, Leading zero omitted, Abs format (unit mm)*
G04 Created by KiCad (PCBNEW (5.1.8)-1) date 2020-12-02 22:37:37*
%MOMM*%
%LPD*%
G01*
G04 APERTURE LIST*
%TA.AperFunction,Profile*%
%ADD10C,0.050000*%
%TD*%
%ADD11C,0.200000*%
%ADD12C,0.127000*%
%ADD13C,0.010000*%
%ADD14C,0.120000*%
%ADD15C,0.150000*%
%ADD16C,0.100000*%
%ADD17C,0.015000*%
G04 APERTURE END LIST*
D10*
X81430000Y-91630000D02*
X81900000Y-91630000D01*
X81440000Y-45190000D02*
X81430000Y-91630000D01*
X58780000Y-45190000D02*
X81440000Y-45190000D01*
X58900000Y-91620000D02*
X58780000Y-45190000D01*
X58500000Y-91630000D02*
X58900000Y-91620000D01*
X58400000Y-91630000D02*
X58500000Y-91630000D01*
X81895000Y-91630000D02*
X119360000Y-91630000D01*
X30460000Y-91630000D02*
X58400000Y-91630000D01*
X119360000Y-91630000D02*
X119360000Y-30670000D01*
X30460000Y-30670000D02*
X30460000Y-91630000D01*
X119360000Y-30670000D02*
X30460000Y-30670000D01*
D11*
%TO.C,U4*%
X30310000Y-36920000D02*
G75*
G03*
X30310000Y-36920000I-100000J0D01*
G01*
D12*
X113110000Y-31920000D02*
X34110000Y-31920000D01*
X116110000Y-84920000D02*
X116110000Y-34920000D01*
X34110000Y-87920000D02*
X113110000Y-87920000D01*
X31110000Y-34920000D02*
X31110000Y-84920000D01*
X31110000Y-84920000D02*
G75*
G03*
X34110000Y-87920000I3000000J0D01*
G01*
X113110000Y-87920000D02*
G75*
G03*
X116110000Y-84920000I0J3000000D01*
G01*
X116110000Y-34920000D02*
G75*
G03*
X113110000Y-31920000I-3000000J0D01*
G01*
X34110000Y-31920000D02*
G75*
G03*
X31110000Y-34920000I0J-3000000D01*
G01*
D13*
%TO.C,G\u002A\u002A\u002A*%
G36*
X106553203Y-48901403D02*
G01*
X106610397Y-48950301D01*
X106634562Y-49013626D01*
X106634600Y-49016160D01*
X106613960Y-49068237D01*
X106564686Y-49120552D01*
X106505746Y-49155604D01*
X106477410Y-49161200D01*
X106425993Y-49144121D01*
X106380600Y-49110400D01*
X106337612Y-49039869D01*
X106338614Y-48970247D01*
X106378144Y-48914078D01*
X106450742Y-48883912D01*
X106480077Y-48881800D01*
X106553203Y-48901403D01*
G37*
X106553203Y-48901403D02*
X106610397Y-48950301D01*
X106634562Y-49013626D01*
X106634600Y-49016160D01*
X106613960Y-49068237D01*
X106564686Y-49120552D01*
X106505746Y-49155604D01*
X106477410Y-49161200D01*
X106425993Y-49144121D01*
X106380600Y-49110400D01*
X106337612Y-49039869D01*
X106338614Y-48970247D01*
X106378144Y-48914078D01*
X106450742Y-48883912D01*
X106480077Y-48881800D01*
X106553203Y-48901403D01*
G36*
X105013736Y-46962928D02*
G01*
X105107857Y-46972026D01*
X105141398Y-46976053D01*
X105331119Y-46997829D01*
X105560513Y-47020725D01*
X105818496Y-47043800D01*
X106093982Y-47066114D01*
X106375889Y-47086727D01*
X106653130Y-47104699D01*
X106669280Y-47105667D01*
X106849726Y-47114001D01*
X107063188Y-47119828D01*
X107301837Y-47123260D01*
X107557846Y-47124408D01*
X107823387Y-47123384D01*
X108090635Y-47120299D01*
X108351760Y-47115264D01*
X108598937Y-47108391D01*
X108824337Y-47099792D01*
X109020134Y-47089577D01*
X109178500Y-47077858D01*
X109263500Y-47068742D01*
X109377461Y-47055557D01*
X109472339Y-47047599D01*
X109537176Y-47045594D01*
X109560457Y-47049087D01*
X109566312Y-47078541D01*
X109572172Y-47150669D01*
X109577627Y-47257349D01*
X109582266Y-47390455D01*
X109585680Y-47541864D01*
X109585857Y-47552594D01*
X109589005Y-47704747D01*
X109593109Y-47838955D01*
X109597814Y-47947147D01*
X109602763Y-48021254D01*
X109607601Y-48053205D01*
X109607929Y-48053657D01*
X109637476Y-48059737D01*
X109707312Y-48065759D01*
X109806933Y-48071021D01*
X109923341Y-48074763D01*
X110069988Y-48080322D01*
X110168789Y-48089331D01*
X110222603Y-48102136D01*
X110234766Y-48112513D01*
X110221894Y-48139465D01*
X110163640Y-48162916D01*
X110059197Y-48182942D01*
X109907760Y-48199619D01*
X109708520Y-48213023D01*
X109460672Y-48223230D01*
X109163409Y-48230317D01*
X108958700Y-48233128D01*
X108758572Y-48234901D01*
X108570520Y-48235929D01*
X108401746Y-48236224D01*
X108259452Y-48235793D01*
X108150840Y-48234648D01*
X108083114Y-48232798D01*
X108069700Y-48231922D01*
X108006723Y-48226448D01*
X107905930Y-48218164D01*
X107780158Y-48208107D01*
X107642246Y-48197312D01*
X107612500Y-48195015D01*
X107422614Y-48178434D01*
X107211213Y-48156585D01*
X106984046Y-48130346D01*
X106746862Y-48100594D01*
X106505410Y-48068208D01*
X106265441Y-48034066D01*
X106032704Y-47999045D01*
X105812947Y-47964023D01*
X105611921Y-47929879D01*
X105435374Y-47897489D01*
X105289056Y-47867733D01*
X105178717Y-47841488D01*
X105110106Y-47819632D01*
X105092794Y-47810265D01*
X105071205Y-47771675D01*
X105051883Y-47702804D01*
X105045642Y-47666873D01*
X105032702Y-47593092D01*
X105010663Y-47485846D01*
X104982881Y-47360917D01*
X104959446Y-47261608D01*
X104933778Y-47147936D01*
X104916008Y-47053311D01*
X104907808Y-46987943D01*
X104910398Y-46962247D01*
X104943518Y-46959405D01*
X105013736Y-46962928D01*
G37*
X105013736Y-46962928D02*
X105107857Y-46972026D01*
X105141398Y-46976053D01*
X105331119Y-46997829D01*
X105560513Y-47020725D01*
X105818496Y-47043800D01*
X106093982Y-47066114D01*
X106375889Y-47086727D01*
X106653130Y-47104699D01*
X106669280Y-47105667D01*
X106849726Y-47114001D01*
X107063188Y-47119828D01*
X107301837Y-47123260D01*
X107557846Y-47124408D01*
X107823387Y-47123384D01*
X108090635Y-47120299D01*
X108351760Y-47115264D01*
X108598937Y-47108391D01*
X108824337Y-47099792D01*
X109020134Y-47089577D01*
X109178500Y-47077858D01*
X109263500Y-47068742D01*
X109377461Y-47055557D01*
X109472339Y-47047599D01*
X109537176Y-47045594D01*
X109560457Y-47049087D01*
X109566312Y-47078541D01*
X109572172Y-47150669D01*
X109577627Y-47257349D01*
X109582266Y-47390455D01*
X109585680Y-47541864D01*
X109585857Y-47552594D01*
X109589005Y-47704747D01*
X109593109Y-47838955D01*
X109597814Y-47947147D01*
X109602763Y-48021254D01*
X109607601Y-48053205D01*
X109607929Y-48053657D01*
X109637476Y-48059737D01*
X109707312Y-48065759D01*
X109806933Y-48071021D01*
X109923341Y-48074763D01*
X110069988Y-48080322D01*
X110168789Y-48089331D01*
X110222603Y-48102136D01*
X110234766Y-48112513D01*
X110221894Y-48139465D01*
X110163640Y-48162916D01*
X110059197Y-48182942D01*
X109907760Y-48199619D01*
X109708520Y-48213023D01*
X109460672Y-48223230D01*
X109163409Y-48230317D01*
X108958700Y-48233128D01*
X108758572Y-48234901D01*
X108570520Y-48235929D01*
X108401746Y-48236224D01*
X108259452Y-48235793D01*
X108150840Y-48234648D01*
X108083114Y-48232798D01*
X108069700Y-48231922D01*
X108006723Y-48226448D01*
X107905930Y-48218164D01*
X107780158Y-48208107D01*
X107642246Y-48197312D01*
X107612500Y-48195015D01*
X107422614Y-48178434D01*
X107211213Y-48156585D01*
X106984046Y-48130346D01*
X106746862Y-48100594D01*
X106505410Y-48068208D01*
X106265441Y-48034066D01*
X106032704Y-47999045D01*
X105812947Y-47964023D01*
X105611921Y-47929879D01*
X105435374Y-47897489D01*
X105289056Y-47867733D01*
X105178717Y-47841488D01*
X105110106Y-47819632D01*
X105092794Y-47810265D01*
X105071205Y-47771675D01*
X105051883Y-47702804D01*
X105045642Y-47666873D01*
X105032702Y-47593092D01*
X105010663Y-47485846D01*
X104982881Y-47360917D01*
X104959446Y-47261608D01*
X104933778Y-47147936D01*
X104916008Y-47053311D01*
X104907808Y-46987943D01*
X104910398Y-46962247D01*
X104943518Y-46959405D01*
X105013736Y-46962928D01*
G36*
X109170634Y-51419825D02*
G01*
X109194779Y-51483286D01*
X109221843Y-51576560D01*
X109249586Y-51689424D01*
X109275769Y-51811656D01*
X109298151Y-51933033D01*
X109314492Y-52043333D01*
X109322554Y-52132332D01*
X109322214Y-52174869D01*
X109314300Y-52268595D01*
X108806300Y-52364782D01*
X108649911Y-52394072D01*
X108508885Y-52419879D01*
X108391448Y-52440747D01*
X108305831Y-52455217D01*
X108260260Y-52461833D01*
X108256732Y-52462084D01*
X108220662Y-52439477D01*
X108202796Y-52380650D01*
X108199592Y-52308388D01*
X108201077Y-52282435D01*
X108336236Y-52282435D01*
X108344374Y-52307496D01*
X108377753Y-52306440D01*
X108402324Y-52300861D01*
X108454617Y-52290038D01*
X108544985Y-52272827D01*
X108661438Y-52251459D01*
X108791989Y-52228163D01*
X108813435Y-52224396D01*
X108938690Y-52201495D01*
X109045409Y-52180178D01*
X109123849Y-52162525D01*
X109164261Y-52150618D01*
X109167219Y-52148846D01*
X109170521Y-52119007D01*
X109167395Y-52052758D01*
X109159450Y-51963851D01*
X109148293Y-51866037D01*
X109135533Y-51773066D01*
X109122776Y-51698691D01*
X109111632Y-51656662D01*
X109109214Y-51652747D01*
X109087784Y-51663428D01*
X109046209Y-51704078D01*
X109015147Y-51739855D01*
X108924798Y-51849007D01*
X108857694Y-51925126D01*
X108804316Y-51973998D01*
X108755142Y-52001411D01*
X108700653Y-52013152D01*
X108631330Y-52015008D01*
X108565120Y-52013427D01*
X108464216Y-52011626D01*
X108403739Y-52014404D01*
X108373355Y-52024338D01*
X108362731Y-52044007D01*
X108361520Y-52064227D01*
X108357183Y-52126601D01*
X108346898Y-52206723D01*
X108344894Y-52219261D01*
X108336236Y-52282435D01*
X108201077Y-52282435D01*
X108205087Y-52212376D01*
X108217150Y-52108336D01*
X108233652Y-52011987D01*
X108252463Y-51939051D01*
X108266636Y-51909375D01*
X108296739Y-51892350D01*
X108355604Y-51886209D01*
X108452520Y-51890269D01*
X108487709Y-51893139D01*
X108681317Y-51910027D01*
X108826105Y-51753639D01*
X108906490Y-51665141D01*
X108984820Y-51576120D01*
X109045683Y-51504128D01*
X109051597Y-51496825D01*
X109101284Y-51439357D01*
X109139443Y-51403015D01*
X109151648Y-51396400D01*
X109170634Y-51419825D01*
G37*
X109170634Y-51419825D02*
X109194779Y-51483286D01*
X109221843Y-51576560D01*
X109249586Y-51689424D01*
X109275769Y-51811656D01*
X109298151Y-51933033D01*
X109314492Y-52043333D01*
X109322554Y-52132332D01*
X109322214Y-52174869D01*
X109314300Y-52268595D01*
X108806300Y-52364782D01*
X108649911Y-52394072D01*
X108508885Y-52419879D01*
X108391448Y-52440747D01*
X108305831Y-52455217D01*
X108260260Y-52461833D01*
X108256732Y-52462084D01*
X108220662Y-52439477D01*
X108202796Y-52380650D01*
X108199592Y-52308388D01*
X108201077Y-52282435D01*
X108336236Y-52282435D01*
X108344374Y-52307496D01*
X108377753Y-52306440D01*
X108402324Y-52300861D01*
X108454617Y-52290038D01*
X108544985Y-52272827D01*
X108661438Y-52251459D01*
X108791989Y-52228163D01*
X108813435Y-52224396D01*
X108938690Y-52201495D01*
X109045409Y-52180178D01*
X109123849Y-52162525D01*
X109164261Y-52150618D01*
X109167219Y-52148846D01*
X109170521Y-52119007D01*
X109167395Y-52052758D01*
X109159450Y-51963851D01*
X109148293Y-51866037D01*
X109135533Y-51773066D01*
X109122776Y-51698691D01*
X109111632Y-51656662D01*
X109109214Y-51652747D01*
X109087784Y-51663428D01*
X109046209Y-51704078D01*
X109015147Y-51739855D01*
X108924798Y-51849007D01*
X108857694Y-51925126D01*
X108804316Y-51973998D01*
X108755142Y-52001411D01*
X108700653Y-52013152D01*
X108631330Y-52015008D01*
X108565120Y-52013427D01*
X108464216Y-52011626D01*
X108403739Y-52014404D01*
X108373355Y-52024338D01*
X108362731Y-52044007D01*
X108361520Y-52064227D01*
X108357183Y-52126601D01*
X108346898Y-52206723D01*
X108344894Y-52219261D01*
X108336236Y-52282435D01*
X108201077Y-52282435D01*
X108205087Y-52212376D01*
X108217150Y-52108336D01*
X108233652Y-52011987D01*
X108252463Y-51939051D01*
X108266636Y-51909375D01*
X108296739Y-51892350D01*
X108355604Y-51886209D01*
X108452520Y-51890269D01*
X108487709Y-51893139D01*
X108681317Y-51910027D01*
X108826105Y-51753639D01*
X108906490Y-51665141D01*
X108984820Y-51576120D01*
X109045683Y-51504128D01*
X109051597Y-51496825D01*
X109101284Y-51439357D01*
X109139443Y-51403015D01*
X109151648Y-51396400D01*
X109170634Y-51419825D01*
G36*
X110921537Y-52061970D02*
G01*
X110927200Y-52068289D01*
X110910913Y-52094376D01*
X110868046Y-52145962D01*
X110807592Y-52212277D01*
X110802467Y-52217684D01*
X110724896Y-52301863D01*
X110632886Y-52405475D01*
X110544095Y-52508577D01*
X110528848Y-52526700D01*
X110426493Y-52648637D01*
X110351616Y-52736404D01*
X110299180Y-52794863D01*
X110264151Y-52828878D01*
X110241493Y-52843310D01*
X110226170Y-52843023D01*
X110213148Y-52832879D01*
X110212479Y-52832212D01*
X110209922Y-52803342D01*
X110212797Y-52736069D01*
X110219878Y-52642352D01*
X110229938Y-52534149D01*
X110241749Y-52423418D01*
X110254085Y-52322120D01*
X110265718Y-52242211D01*
X110275422Y-52195651D01*
X110278466Y-52189066D01*
X110315367Y-52170044D01*
X110324685Y-52167702D01*
X110363269Y-52159713D01*
X110436779Y-52144252D01*
X110530456Y-52124426D01*
X110546200Y-52121084D01*
X110702938Y-52088923D01*
X110814830Y-52068754D01*
X110886240Y-52059971D01*
X110921537Y-52061970D01*
G37*
X110921537Y-52061970D02*
X110927200Y-52068289D01*
X110910913Y-52094376D01*
X110868046Y-52145962D01*
X110807592Y-52212277D01*
X110802467Y-52217684D01*
X110724896Y-52301863D01*
X110632886Y-52405475D01*
X110544095Y-52508577D01*
X110528848Y-52526700D01*
X110426493Y-52648637D01*
X110351616Y-52736404D01*
X110299180Y-52794863D01*
X110264151Y-52828878D01*
X110241493Y-52843310D01*
X110226170Y-52843023D01*
X110213148Y-52832879D01*
X110212479Y-52832212D01*
X110209922Y-52803342D01*
X110212797Y-52736069D01*
X110219878Y-52642352D01*
X110229938Y-52534149D01*
X110241749Y-52423418D01*
X110254085Y-52322120D01*
X110265718Y-52242211D01*
X110275422Y-52195651D01*
X110278466Y-52189066D01*
X110315367Y-52170044D01*
X110324685Y-52167702D01*
X110363269Y-52159713D01*
X110436779Y-52144252D01*
X110530456Y-52124426D01*
X110546200Y-52121084D01*
X110702938Y-52088923D01*
X110814830Y-52068754D01*
X110886240Y-52059971D01*
X110921537Y-52061970D01*
G36*
X109287652Y-52339185D02*
G01*
X109291455Y-52367094D01*
X109295077Y-52437948D01*
X109298289Y-52543894D01*
X109300863Y-52677078D01*
X109302569Y-52829646D01*
X109302763Y-52858031D01*
X109303227Y-53037199D01*
X109301872Y-53171313D01*
X109298354Y-53266099D01*
X109292332Y-53327280D01*
X109283461Y-53360582D01*
X109271999Y-53371627D01*
X109237508Y-53361252D01*
X109171878Y-53327891D01*
X109085839Y-53277325D01*
X109024519Y-53238277D01*
X108931657Y-53179150D01*
X108853238Y-53132506D01*
X108799703Y-53104376D01*
X108783219Y-53098876D01*
X108750630Y-53113621D01*
X108690427Y-53151874D01*
X108614928Y-53205740D01*
X108605717Y-53212657D01*
X108455935Y-53325761D01*
X108394556Y-53193280D01*
X108350039Y-53077557D01*
X108309856Y-52938503D01*
X108278870Y-52796502D01*
X108261945Y-52671937D01*
X108260200Y-52630177D01*
X108263322Y-52579407D01*
X108281583Y-52552662D01*
X108328322Y-52539113D01*
X108380928Y-52532177D01*
X108448324Y-52521010D01*
X108552797Y-52499872D01*
X108682206Y-52471385D01*
X108824414Y-52438167D01*
X108888666Y-52422544D01*
X109021560Y-52390709D01*
X109136317Y-52364930D01*
X109224280Y-52347015D01*
X109276795Y-52338773D01*
X109287652Y-52339185D01*
G37*
X109287652Y-52339185D02*
X109291455Y-52367094D01*
X109295077Y-52437948D01*
X109298289Y-52543894D01*
X109300863Y-52677078D01*
X109302569Y-52829646D01*
X109302763Y-52858031D01*
X109303227Y-53037199D01*
X109301872Y-53171313D01*
X109298354Y-53266099D01*
X109292332Y-53327280D01*
X109283461Y-53360582D01*
X109271999Y-53371627D01*
X109237508Y-53361252D01*
X109171878Y-53327891D01*
X109085839Y-53277325D01*
X109024519Y-53238277D01*
X108931657Y-53179150D01*
X108853238Y-53132506D01*
X108799703Y-53104376D01*
X108783219Y-53098876D01*
X108750630Y-53113621D01*
X108690427Y-53151874D01*
X108614928Y-53205740D01*
X108605717Y-53212657D01*
X108455935Y-53325761D01*
X108394556Y-53193280D01*
X108350039Y-53077557D01*
X108309856Y-52938503D01*
X108278870Y-52796502D01*
X108261945Y-52671937D01*
X108260200Y-52630177D01*
X108263322Y-52579407D01*
X108281583Y-52552662D01*
X108328322Y-52539113D01*
X108380928Y-52532177D01*
X108448324Y-52521010D01*
X108552797Y-52499872D01*
X108682206Y-52471385D01*
X108824414Y-52438167D01*
X108888666Y-52422544D01*
X109021560Y-52390709D01*
X109136317Y-52364930D01*
X109224280Y-52347015D01*
X109276795Y-52338773D01*
X109287652Y-52339185D01*
G36*
X108780353Y-53464548D02*
G01*
X108808890Y-53500590D01*
X108837973Y-53548988D01*
X108830576Y-53566640D01*
X108785384Y-53561203D01*
X108752095Y-53537024D01*
X108753634Y-53513000D01*
X108766672Y-53469983D01*
X108768200Y-53458770D01*
X108780353Y-53464548D01*
G37*
X108780353Y-53464548D02*
X108808890Y-53500590D01*
X108837973Y-53548988D01*
X108830576Y-53566640D01*
X108785384Y-53561203D01*
X108752095Y-53537024D01*
X108753634Y-53513000D01*
X108766672Y-53469983D01*
X108768200Y-53458770D01*
X108780353Y-53464548D01*
G36*
X109236241Y-50789320D02*
G01*
X109381562Y-50791746D01*
X109867924Y-50802897D01*
X109927783Y-50877398D01*
X109967343Y-50934639D01*
X110019948Y-51021400D01*
X110076042Y-51121705D01*
X110092562Y-51152892D01*
X110142691Y-51251636D01*
X110173496Y-51325692D01*
X110189521Y-51394131D01*
X110195309Y-51476020D01*
X110195454Y-51584692D01*
X110192981Y-51678012D01*
X110187182Y-51811111D01*
X110178648Y-51973121D01*
X110167968Y-52153170D01*
X110155734Y-52340392D01*
X110149806Y-52425100D01*
X110135546Y-52633818D01*
X110125966Y-52800248D01*
X110120922Y-52932672D01*
X110120275Y-53039373D01*
X110123883Y-53128632D01*
X110131606Y-53208733D01*
X110135908Y-53240713D01*
X110206486Y-53559308D01*
X110325597Y-53878596D01*
X110491313Y-54193419D01*
X110493334Y-54196750D01*
X110524401Y-54253737D01*
X110536072Y-54287768D01*
X110533403Y-54292000D01*
X110508001Y-54276637D01*
X110452230Y-54234860D01*
X110374443Y-54173135D01*
X110287272Y-54101500D01*
X110195861Y-54026683D01*
X110118002Y-53965677D01*
X110062206Y-53924966D01*
X110037377Y-53911000D01*
X110009414Y-53921811D01*
X110003376Y-53956664D01*
X110020617Y-54019189D01*
X110062492Y-54113015D01*
X110130355Y-54241770D01*
X110219134Y-54398031D01*
X110275762Y-54498881D01*
X110307373Y-54565142D01*
X110312239Y-54596510D01*
X110288634Y-54592681D01*
X110234829Y-54553353D01*
X110149098Y-54478221D01*
X110029713Y-54366982D01*
X110026799Y-54364226D01*
X109921804Y-54261658D01*
X109818742Y-54155411D01*
X109729610Y-54058180D01*
X109667492Y-53984070D01*
X109553930Y-53836489D01*
X109669338Y-53604598D01*
X109722278Y-53500346D01*
X109770880Y-53408393D01*
X109808279Y-53341551D01*
X109822572Y-53318702D01*
X109854505Y-53248152D01*
X109855252Y-53184778D01*
X109830214Y-53139719D01*
X109784794Y-53124117D01*
X109736385Y-53140959D01*
X109643877Y-53195670D01*
X109553660Y-53244934D01*
X109476087Y-53283588D01*
X109421509Y-53306474D01*
X109400289Y-53308513D01*
X109399414Y-53278963D01*
X109398368Y-53205157D01*
X109397210Y-53093637D01*
X109396000Y-52950947D01*
X109394797Y-52783630D01*
X109393661Y-52598229D01*
X109393407Y-52552100D01*
X109389435Y-51815500D01*
X109305920Y-51525803D01*
X109256675Y-51362186D01*
X109213005Y-51237578D01*
X109169579Y-51141373D01*
X109121067Y-51062963D01*
X109062135Y-50991744D01*
X109011596Y-50940261D01*
X108951293Y-50878214D01*
X108909229Y-50828473D01*
X108895200Y-50803809D01*
X108919561Y-50796559D01*
X108988584Y-50791626D01*
X109096175Y-50789163D01*
X109236241Y-50789320D01*
G37*
X109236241Y-50789320D02*
X109381562Y-50791746D01*
X109867924Y-50802897D01*
X109927783Y-50877398D01*
X109967343Y-50934639D01*
X110019948Y-51021400D01*
X110076042Y-51121705D01*
X110092562Y-51152892D01*
X110142691Y-51251636D01*
X110173496Y-51325692D01*
X110189521Y-51394131D01*
X110195309Y-51476020D01*
X110195454Y-51584692D01*
X110192981Y-51678012D01*
X110187182Y-51811111D01*
X110178648Y-51973121D01*
X110167968Y-52153170D01*
X110155734Y-52340392D01*
X110149806Y-52425100D01*
X110135546Y-52633818D01*
X110125966Y-52800248D01*
X110120922Y-52932672D01*
X110120275Y-53039373D01*
X110123883Y-53128632D01*
X110131606Y-53208733D01*
X110135908Y-53240713D01*
X110206486Y-53559308D01*
X110325597Y-53878596D01*
X110491313Y-54193419D01*
X110493334Y-54196750D01*
X110524401Y-54253737D01*
X110536072Y-54287768D01*
X110533403Y-54292000D01*
X110508001Y-54276637D01*
X110452230Y-54234860D01*
X110374443Y-54173135D01*
X110287272Y-54101500D01*
X110195861Y-54026683D01*
X110118002Y-53965677D01*
X110062206Y-53924966D01*
X110037377Y-53911000D01*
X110009414Y-53921811D01*
X110003376Y-53956664D01*
X110020617Y-54019189D01*
X110062492Y-54113015D01*
X110130355Y-54241770D01*
X110219134Y-54398031D01*
X110275762Y-54498881D01*
X110307373Y-54565142D01*
X110312239Y-54596510D01*
X110288634Y-54592681D01*
X110234829Y-54553353D01*
X110149098Y-54478221D01*
X110029713Y-54366982D01*
X110026799Y-54364226D01*
X109921804Y-54261658D01*
X109818742Y-54155411D01*
X109729610Y-54058180D01*
X109667492Y-53984070D01*
X109553930Y-53836489D01*
X109669338Y-53604598D01*
X109722278Y-53500346D01*
X109770880Y-53408393D01*
X109808279Y-53341551D01*
X109822572Y-53318702D01*
X109854505Y-53248152D01*
X109855252Y-53184778D01*
X109830214Y-53139719D01*
X109784794Y-53124117D01*
X109736385Y-53140959D01*
X109643877Y-53195670D01*
X109553660Y-53244934D01*
X109476087Y-53283588D01*
X109421509Y-53306474D01*
X109400289Y-53308513D01*
X109399414Y-53278963D01*
X109398368Y-53205157D01*
X109397210Y-53093637D01*
X109396000Y-52950947D01*
X109394797Y-52783630D01*
X109393661Y-52598229D01*
X109393407Y-52552100D01*
X109389435Y-51815500D01*
X109305920Y-51525803D01*
X109256675Y-51362186D01*
X109213005Y-51237578D01*
X109169579Y-51141373D01*
X109121067Y-51062963D01*
X109062135Y-50991744D01*
X109011596Y-50940261D01*
X108951293Y-50878214D01*
X108909229Y-50828473D01*
X108895200Y-50803809D01*
X108919561Y-50796559D01*
X108988584Y-50791626D01*
X109096175Y-50789163D01*
X109236241Y-50789320D01*
G36*
X108809280Y-53207932D02*
G01*
X108868456Y-53237825D01*
X108960345Y-53293674D01*
X109033842Y-53340980D01*
X109250433Y-53482161D01*
X109517316Y-53339007D01*
X109631308Y-53278900D01*
X109708119Y-53241631D01*
X109754620Y-53224743D01*
X109777685Y-53225776D01*
X109784186Y-53242274D01*
X109784200Y-53243546D01*
X109772325Y-53296496D01*
X109760104Y-53315370D01*
X109743036Y-53343530D01*
X109706563Y-53411348D01*
X109653726Y-53512908D01*
X109587566Y-53642295D01*
X109511124Y-53793596D01*
X109427440Y-53960894D01*
X109404888Y-54006250D01*
X109320509Y-54175293D01*
X109243178Y-54328569D01*
X109175805Y-54460435D01*
X109121304Y-54565251D01*
X109082585Y-54637377D01*
X109062561Y-54671173D01*
X109060684Y-54673000D01*
X109047903Y-54653440D01*
X109047600Y-54648118D01*
X109049366Y-54615170D01*
X109054230Y-54541122D01*
X109061536Y-54435539D01*
X109070629Y-54307982D01*
X109075199Y-54245008D01*
X109102799Y-53866778D01*
X108935499Y-53549697D01*
X108875347Y-53434588D01*
X108824791Y-53335741D01*
X108788115Y-53261693D01*
X108769598Y-53220977D01*
X108768200Y-53216208D01*
X108777600Y-53201543D01*
X108809280Y-53207932D01*
G37*
X108809280Y-53207932D02*
X108868456Y-53237825D01*
X108960345Y-53293674D01*
X109033842Y-53340980D01*
X109250433Y-53482161D01*
X109517316Y-53339007D01*
X109631308Y-53278900D01*
X109708119Y-53241631D01*
X109754620Y-53224743D01*
X109777685Y-53225776D01*
X109784186Y-53242274D01*
X109784200Y-53243546D01*
X109772325Y-53296496D01*
X109760104Y-53315370D01*
X109743036Y-53343530D01*
X109706563Y-53411348D01*
X109653726Y-53512908D01*
X109587566Y-53642295D01*
X109511124Y-53793596D01*
X109427440Y-53960894D01*
X109404888Y-54006250D01*
X109320509Y-54175293D01*
X109243178Y-54328569D01*
X109175805Y-54460435D01*
X109121304Y-54565251D01*
X109082585Y-54637377D01*
X109062561Y-54671173D01*
X109060684Y-54673000D01*
X109047903Y-54653440D01*
X109047600Y-54648118D01*
X109049366Y-54615170D01*
X109054230Y-54541122D01*
X109061536Y-54435539D01*
X109070629Y-54307982D01*
X109075199Y-54245008D01*
X109102799Y-53866778D01*
X108935499Y-53549697D01*
X108875347Y-53434588D01*
X108824791Y-53335741D01*
X108788115Y-53261693D01*
X108769598Y-53220977D01*
X108768200Y-53216208D01*
X108777600Y-53201543D01*
X108809280Y-53207932D01*
G36*
X108015247Y-53225421D02*
G01*
X108019396Y-53242445D01*
X108049880Y-53380248D01*
X108081450Y-53511007D01*
X108109197Y-53614498D01*
X108112055Y-53624186D01*
X108136437Y-53705673D01*
X108433268Y-53461523D01*
X108563890Y-53356831D01*
X108658146Y-53287544D01*
X108716023Y-53253670D01*
X108737468Y-53255005D01*
X108731817Y-53291917D01*
X108711118Y-53366086D01*
X108678501Y-53467332D01*
X108637095Y-53585477D01*
X108629403Y-53606521D01*
X108513970Y-53920405D01*
X108647037Y-54125252D01*
X108714583Y-54228254D01*
X108780761Y-54327513D01*
X108834694Y-54406771D01*
X108850352Y-54429160D01*
X108892096Y-54494659D01*
X108917260Y-54546940D01*
X108920600Y-54561882D01*
X108918106Y-54576656D01*
X108906341Y-54582526D01*
X108878873Y-54577155D01*
X108829275Y-54558206D01*
X108751115Y-54523340D01*
X108637966Y-54470222D01*
X108539673Y-54423397D01*
X108434762Y-54373899D01*
X108348383Y-54334274D01*
X108289729Y-54308662D01*
X108268037Y-54301096D01*
X108271157Y-54326233D01*
X108284212Y-54387038D01*
X108303062Y-54465037D01*
X108321356Y-54549112D01*
X108329788Y-54612493D01*
X108327036Y-54640030D01*
X108304739Y-54652144D01*
X108260870Y-54660633D01*
X108187482Y-54666197D01*
X108076630Y-54669534D01*
X107976312Y-54670883D01*
X107866753Y-54673528D01*
X107798500Y-54680085D01*
X107762107Y-54692334D01*
X107748125Y-54712053D01*
X107747712Y-54713904D01*
X107737331Y-54739282D01*
X107715387Y-54726033D01*
X107698787Y-54707554D01*
X107670366Y-54667946D01*
X107622900Y-54594821D01*
X107562955Y-54498537D01*
X107497094Y-54389449D01*
X107495786Y-54387250D01*
X107433030Y-54283572D01*
X107379062Y-54197984D01*
X107339295Y-54138818D01*
X107319142Y-54114408D01*
X107318427Y-54114200D01*
X107297473Y-54132767D01*
X107251676Y-54183283D01*
X107187854Y-54257967D01*
X107115028Y-54346322D01*
X107010842Y-54474601D01*
X106934053Y-54568400D01*
X106880073Y-54632708D01*
X106844315Y-54672510D01*
X106822190Y-54692795D01*
X106809113Y-54698549D01*
X106800494Y-54694760D01*
X106797308Y-54691731D01*
X106794935Y-54658777D01*
X106812849Y-54600416D01*
X106821636Y-54580636D01*
X106847027Y-54520822D01*
X106856921Y-54483688D01*
X106855912Y-54479445D01*
X106829671Y-54483032D01*
X106762546Y-54498769D01*
X106662432Y-54524621D01*
X106537222Y-54558555D01*
X106404871Y-54595671D01*
X106263241Y-54635219D01*
X106139188Y-54668405D01*
X106040646Y-54693223D01*
X105975548Y-54707672D01*
X105951976Y-54710043D01*
X105946664Y-54682193D01*
X105938870Y-54611654D01*
X105929154Y-54506283D01*
X105918076Y-54373939D01*
X105906197Y-54222479D01*
X105894076Y-54059763D01*
X105882274Y-53893648D01*
X105871349Y-53731994D01*
X105861863Y-53582657D01*
X105854375Y-53453497D01*
X105849446Y-53352372D01*
X105847634Y-53287141D01*
X105849048Y-53265684D01*
X105877254Y-53266819D01*
X105944354Y-53280156D01*
X106041446Y-53303214D01*
X106159633Y-53333512D01*
X106290015Y-53368568D01*
X106423692Y-53405902D01*
X106551766Y-53443033D01*
X106665336Y-53477478D01*
X106755504Y-53506757D01*
X106813370Y-53528389D01*
X106830462Y-53539312D01*
X106804444Y-53554522D01*
X106738719Y-53579690D01*
X106642634Y-53611567D01*
X106525534Y-53646902D01*
X106500047Y-53654202D01*
X106380733Y-53689184D01*
X106281349Y-53720439D01*
X106210934Y-53744966D01*
X106178530Y-53759761D01*
X106177400Y-53761389D01*
X106199946Y-53774899D01*
X106257951Y-53793062D01*
X106310750Y-53805720D01*
X106450887Y-53837976D01*
X106583320Y-53872178D01*
X106699588Y-53905735D01*
X106791229Y-53936054D01*
X106849782Y-53960546D01*
X106867037Y-53976096D01*
X106840625Y-53991420D01*
X106774431Y-54016792D01*
X106677714Y-54048995D01*
X106559729Y-54084813D01*
X106527230Y-54094173D01*
X106405327Y-54129388D01*
X106302165Y-54160118D01*
X106227000Y-54183536D01*
X106189090Y-54196813D01*
X106186478Y-54198254D01*
X106203978Y-54208875D01*
X106259244Y-54227649D01*
X106340694Y-54250684D01*
X106348485Y-54252722D01*
X106470150Y-54285112D01*
X106605520Y-54322279D01*
X106694835Y-54347485D01*
X106783324Y-54369391D01*
X106852554Y-54380061D01*
X106888547Y-54377410D01*
X106889588Y-54376544D01*
X106904277Y-54347847D01*
X106934582Y-54278673D01*
X106977657Y-54175875D01*
X107030656Y-54046301D01*
X107090734Y-53896804D01*
X107130452Y-53796700D01*
X107193505Y-53638221D01*
X107251251Y-53495364D01*
X107300843Y-53374988D01*
X107339433Y-53283952D01*
X107364176Y-53229116D01*
X107371326Y-53216293D01*
X107381675Y-53208288D01*
X107391300Y-53213801D01*
X107402684Y-53240147D01*
X107418310Y-53294637D01*
X107440662Y-53384587D01*
X107469218Y-53504600D01*
X107539388Y-53800031D01*
X107598753Y-54046917D01*
X107647574Y-54246291D01*
X107686111Y-54399188D01*
X107714626Y-54506640D01*
X107733379Y-54569684D01*
X107742632Y-54589351D01*
X107742877Y-54589189D01*
X107750516Y-54561071D01*
X107762802Y-54493292D01*
X107777927Y-54396577D01*
X107791373Y-54301773D01*
X107811862Y-54151524D01*
X107835598Y-53978378D01*
X107858818Y-53809753D01*
X107869405Y-53733200D01*
X107887471Y-53602254D01*
X107904712Y-53476277D01*
X107918892Y-53371662D01*
X107926292Y-53316178D01*
X107944140Y-53233611D01*
X107968172Y-53188383D01*
X107993502Y-53184364D01*
X108015247Y-53225421D01*
G37*
X108015247Y-53225421D02*
X108019396Y-53242445D01*
X108049880Y-53380248D01*
X108081450Y-53511007D01*
X108109197Y-53614498D01*
X108112055Y-53624186D01*
X108136437Y-53705673D01*
X108433268Y-53461523D01*
X108563890Y-53356831D01*
X108658146Y-53287544D01*
X108716023Y-53253670D01*
X108737468Y-53255005D01*
X108731817Y-53291917D01*
X108711118Y-53366086D01*
X108678501Y-53467332D01*
X108637095Y-53585477D01*
X108629403Y-53606521D01*
X108513970Y-53920405D01*
X108647037Y-54125252D01*
X108714583Y-54228254D01*
X108780761Y-54327513D01*
X108834694Y-54406771D01*
X108850352Y-54429160D01*
X108892096Y-54494659D01*
X108917260Y-54546940D01*
X108920600Y-54561882D01*
X108918106Y-54576656D01*
X108906341Y-54582526D01*
X108878873Y-54577155D01*
X108829275Y-54558206D01*
X108751115Y-54523340D01*
X108637966Y-54470222D01*
X108539673Y-54423397D01*
X108434762Y-54373899D01*
X108348383Y-54334274D01*
X108289729Y-54308662D01*
X108268037Y-54301096D01*
X108271157Y-54326233D01*
X108284212Y-54387038D01*
X108303062Y-54465037D01*
X108321356Y-54549112D01*
X108329788Y-54612493D01*
X108327036Y-54640030D01*
X108304739Y-54652144D01*
X108260870Y-54660633D01*
X108187482Y-54666197D01*
X108076630Y-54669534D01*
X107976312Y-54670883D01*
X107866753Y-54673528D01*
X107798500Y-54680085D01*
X107762107Y-54692334D01*
X107748125Y-54712053D01*
X107747712Y-54713904D01*
X107737331Y-54739282D01*
X107715387Y-54726033D01*
X107698787Y-54707554D01*
X107670366Y-54667946D01*
X107622900Y-54594821D01*
X107562955Y-54498537D01*
X107497094Y-54389449D01*
X107495786Y-54387250D01*
X107433030Y-54283572D01*
X107379062Y-54197984D01*
X107339295Y-54138818D01*
X107319142Y-54114408D01*
X107318427Y-54114200D01*
X107297473Y-54132767D01*
X107251676Y-54183283D01*
X107187854Y-54257967D01*
X107115028Y-54346322D01*
X107010842Y-54474601D01*
X106934053Y-54568400D01*
X106880073Y-54632708D01*
X106844315Y-54672510D01*
X106822190Y-54692795D01*
X106809113Y-54698549D01*
X106800494Y-54694760D01*
X106797308Y-54691731D01*
X106794935Y-54658777D01*
X106812849Y-54600416D01*
X106821636Y-54580636D01*
X106847027Y-54520822D01*
X106856921Y-54483688D01*
X106855912Y-54479445D01*
X106829671Y-54483032D01*
X106762546Y-54498769D01*
X106662432Y-54524621D01*
X106537222Y-54558555D01*
X106404871Y-54595671D01*
X106263241Y-54635219D01*
X106139188Y-54668405D01*
X106040646Y-54693223D01*
X105975548Y-54707672D01*
X105951976Y-54710043D01*
X105946664Y-54682193D01*
X105938870Y-54611654D01*
X105929154Y-54506283D01*
X105918076Y-54373939D01*
X105906197Y-54222479D01*
X105894076Y-54059763D01*
X105882274Y-53893648D01*
X105871349Y-53731994D01*
X105861863Y-53582657D01*
X105854375Y-53453497D01*
X105849446Y-53352372D01*
X105847634Y-53287141D01*
X105849048Y-53265684D01*
X105877254Y-53266819D01*
X105944354Y-53280156D01*
X106041446Y-53303214D01*
X106159633Y-53333512D01*
X106290015Y-53368568D01*
X106423692Y-53405902D01*
X106551766Y-53443033D01*
X106665336Y-53477478D01*
X106755504Y-53506757D01*
X106813370Y-53528389D01*
X106830462Y-53539312D01*
X106804444Y-53554522D01*
X106738719Y-53579690D01*
X106642634Y-53611567D01*
X106525534Y-53646902D01*
X106500047Y-53654202D01*
X106380733Y-53689184D01*
X106281349Y-53720439D01*
X106210934Y-53744966D01*
X106178530Y-53759761D01*
X106177400Y-53761389D01*
X106199946Y-53774899D01*
X106257951Y-53793062D01*
X106310750Y-53805720D01*
X106450887Y-53837976D01*
X106583320Y-53872178D01*
X106699588Y-53905735D01*
X106791229Y-53936054D01*
X106849782Y-53960546D01*
X106867037Y-53976096D01*
X106840625Y-53991420D01*
X106774431Y-54016792D01*
X106677714Y-54048995D01*
X106559729Y-54084813D01*
X106527230Y-54094173D01*
X106405327Y-54129388D01*
X106302165Y-54160118D01*
X106227000Y-54183536D01*
X106189090Y-54196813D01*
X106186478Y-54198254D01*
X106203978Y-54208875D01*
X106259244Y-54227649D01*
X106340694Y-54250684D01*
X106348485Y-54252722D01*
X106470150Y-54285112D01*
X106605520Y-54322279D01*
X106694835Y-54347485D01*
X106783324Y-54369391D01*
X106852554Y-54380061D01*
X106888547Y-54377410D01*
X106889588Y-54376544D01*
X106904277Y-54347847D01*
X106934582Y-54278673D01*
X106977657Y-54175875D01*
X107030656Y-54046301D01*
X107090734Y-53896804D01*
X107130452Y-53796700D01*
X107193505Y-53638221D01*
X107251251Y-53495364D01*
X107300843Y-53374988D01*
X107339433Y-53283952D01*
X107364176Y-53229116D01*
X107371326Y-53216293D01*
X107381675Y-53208288D01*
X107391300Y-53213801D01*
X107402684Y-53240147D01*
X107418310Y-53294637D01*
X107440662Y-53384587D01*
X107469218Y-53504600D01*
X107539388Y-53800031D01*
X107598753Y-54046917D01*
X107647574Y-54246291D01*
X107686111Y-54399188D01*
X107714626Y-54506640D01*
X107733379Y-54569684D01*
X107742632Y-54589351D01*
X107742877Y-54589189D01*
X107750516Y-54561071D01*
X107762802Y-54493292D01*
X107777927Y-54396577D01*
X107791373Y-54301773D01*
X107811862Y-54151524D01*
X107835598Y-53978378D01*
X107858818Y-53809753D01*
X107869405Y-53733200D01*
X107887471Y-53602254D01*
X107904712Y-53476277D01*
X107918892Y-53371662D01*
X107926292Y-53316178D01*
X107944140Y-53233611D01*
X107968172Y-53188383D01*
X107993502Y-53184364D01*
X108015247Y-53225421D01*
G36*
X104374349Y-53266189D02*
G01*
X104380321Y-53301571D01*
X104364898Y-53376504D01*
X104327488Y-53493584D01*
X104313884Y-53531814D01*
X104227278Y-53771300D01*
X104327448Y-53885600D01*
X104391938Y-53961096D01*
X104450174Y-54032450D01*
X104477187Y-54067570D01*
X104526755Y-54135241D01*
X104170559Y-54448570D01*
X104055952Y-54548099D01*
X103952548Y-54635484D01*
X103867037Y-54705263D01*
X103806110Y-54751974D01*
X103776681Y-54770112D01*
X103745111Y-54757537D01*
X103739461Y-54732012D01*
X103751618Y-54691222D01*
X103784019Y-54618328D01*
X103831184Y-54525029D01*
X103868160Y-54457210D01*
X103996397Y-54228721D01*
X103924332Y-54165110D01*
X103859214Y-54109312D01*
X103780523Y-54044079D01*
X103751183Y-54020308D01*
X103650100Y-53939117D01*
X103999154Y-53589583D01*
X104136712Y-53454140D01*
X104241982Y-53355754D01*
X104316227Y-53293339D01*
X104360708Y-53265805D01*
X104374349Y-53266189D01*
G37*
X104374349Y-53266189D02*
X104380321Y-53301571D01*
X104364898Y-53376504D01*
X104327488Y-53493584D01*
X104313884Y-53531814D01*
X104227278Y-53771300D01*
X104327448Y-53885600D01*
X104391938Y-53961096D01*
X104450174Y-54032450D01*
X104477187Y-54067570D01*
X104526755Y-54135241D01*
X104170559Y-54448570D01*
X104055952Y-54548099D01*
X103952548Y-54635484D01*
X103867037Y-54705263D01*
X103806110Y-54751974D01*
X103776681Y-54770112D01*
X103745111Y-54757537D01*
X103739461Y-54732012D01*
X103751618Y-54691222D01*
X103784019Y-54618328D01*
X103831184Y-54525029D01*
X103868160Y-54457210D01*
X103996397Y-54228721D01*
X103924332Y-54165110D01*
X103859214Y-54109312D01*
X103780523Y-54044079D01*
X103751183Y-54020308D01*
X103650100Y-53939117D01*
X103999154Y-53589583D01*
X104136712Y-53454140D01*
X104241982Y-53355754D01*
X104316227Y-53293339D01*
X104360708Y-53265805D01*
X104374349Y-53266189D01*
G36*
X105581393Y-53212941D02*
G01*
X105591990Y-53255839D01*
X105603320Y-53333707D01*
X105616138Y-53451758D01*
X105631200Y-53615205D01*
X105631523Y-53618900D01*
X105638701Y-53696662D01*
X105649204Y-53803085D01*
X105663480Y-53942491D01*
X105681978Y-54119207D01*
X105705146Y-54337555D01*
X105733434Y-54601863D01*
X105734935Y-54615850D01*
X105740708Y-54695822D01*
X105734664Y-54736678D01*
X105714969Y-54749108D01*
X105712072Y-54749200D01*
X105676516Y-54744683D01*
X105606163Y-54732732D01*
X105513370Y-54715739D01*
X105410495Y-54696101D01*
X105309896Y-54676211D01*
X105223930Y-54658466D01*
X105164955Y-54645259D01*
X105145241Y-54639351D01*
X105139068Y-54614228D01*
X105125278Y-54549437D01*
X105105993Y-54455168D01*
X105086162Y-54355904D01*
X105063465Y-54243716D01*
X105043887Y-54151672D01*
X105029692Y-54090117D01*
X105023468Y-54069401D01*
X105014212Y-54089787D01*
X104993533Y-54150957D01*
X104963990Y-54244857D01*
X104928144Y-54363434D01*
X104904530Y-54443577D01*
X104864716Y-54574051D01*
X104827471Y-54685344D01*
X104795838Y-54769148D01*
X104772862Y-54817157D01*
X104764629Y-54825330D01*
X104747981Y-54801206D01*
X104732386Y-54733683D01*
X104719484Y-54630162D01*
X104718210Y-54615850D01*
X104708378Y-54504769D01*
X104698722Y-54401859D01*
X104691080Y-54326582D01*
X104690052Y-54317400D01*
X104683857Y-54260678D01*
X104673753Y-54165056D01*
X104660957Y-54042173D01*
X104646684Y-53903668D01*
X104640936Y-53847500D01*
X104626384Y-53706577D01*
X104612729Y-53577229D01*
X104601205Y-53470917D01*
X104593042Y-53399106D01*
X104590996Y-53382622D01*
X104592609Y-53312214D01*
X104614386Y-53285535D01*
X104652077Y-53285295D01*
X104727548Y-53294851D01*
X104829106Y-53312460D01*
X104922606Y-53331461D01*
X105196403Y-53390597D01*
X105226696Y-53517448D01*
X105248828Y-53614177D01*
X105274089Y-53730394D01*
X105290547Y-53809400D01*
X105324107Y-53974500D01*
X105359056Y-53847500D01*
X105403064Y-53691944D01*
X105446736Y-53545381D01*
X105487583Y-53415426D01*
X105523116Y-53309693D01*
X105550846Y-53235798D01*
X105568284Y-53201354D01*
X105570773Y-53199800D01*
X105581393Y-53212941D01*
G37*
X105581393Y-53212941D02*
X105591990Y-53255839D01*
X105603320Y-53333707D01*
X105616138Y-53451758D01*
X105631200Y-53615205D01*
X105631523Y-53618900D01*
X105638701Y-53696662D01*
X105649204Y-53803085D01*
X105663480Y-53942491D01*
X105681978Y-54119207D01*
X105705146Y-54337555D01*
X105733434Y-54601863D01*
X105734935Y-54615850D01*
X105740708Y-54695822D01*
X105734664Y-54736678D01*
X105714969Y-54749108D01*
X105712072Y-54749200D01*
X105676516Y-54744683D01*
X105606163Y-54732732D01*
X105513370Y-54715739D01*
X105410495Y-54696101D01*
X105309896Y-54676211D01*
X105223930Y-54658466D01*
X105164955Y-54645259D01*
X105145241Y-54639351D01*
X105139068Y-54614228D01*
X105125278Y-54549437D01*
X105105993Y-54455168D01*
X105086162Y-54355904D01*
X105063465Y-54243716D01*
X105043887Y-54151672D01*
X105029692Y-54090117D01*
X105023468Y-54069401D01*
X105014212Y-54089787D01*
X104993533Y-54150957D01*
X104963990Y-54244857D01*
X104928144Y-54363434D01*
X104904530Y-54443577D01*
X104864716Y-54574051D01*
X104827471Y-54685344D01*
X104795838Y-54769148D01*
X104772862Y-54817157D01*
X104764629Y-54825330D01*
X104747981Y-54801206D01*
X104732386Y-54733683D01*
X104719484Y-54630162D01*
X104718210Y-54615850D01*
X104708378Y-54504769D01*
X104698722Y-54401859D01*
X104691080Y-54326582D01*
X104690052Y-54317400D01*
X104683857Y-54260678D01*
X104673753Y-54165056D01*
X104660957Y-54042173D01*
X104646684Y-53903668D01*
X104640936Y-53847500D01*
X104626384Y-53706577D01*
X104612729Y-53577229D01*
X104601205Y-53470917D01*
X104593042Y-53399106D01*
X104590996Y-53382622D01*
X104592609Y-53312214D01*
X104614386Y-53285535D01*
X104652077Y-53285295D01*
X104727548Y-53294851D01*
X104829106Y-53312460D01*
X104922606Y-53331461D01*
X105196403Y-53390597D01*
X105226696Y-53517448D01*
X105248828Y-53614177D01*
X105274089Y-53730394D01*
X105290547Y-53809400D01*
X105324107Y-53974500D01*
X105359056Y-53847500D01*
X105403064Y-53691944D01*
X105446736Y-53545381D01*
X105487583Y-53415426D01*
X105523116Y-53309693D01*
X105550846Y-53235798D01*
X105568284Y-53201354D01*
X105570773Y-53199800D01*
X105581393Y-53212941D01*
G36*
X107440175Y-43526218D02*
G01*
X107588405Y-43534211D01*
X107752944Y-43546224D01*
X107925302Y-43561350D01*
X108096992Y-43578680D01*
X108259525Y-43597309D01*
X108404414Y-43616328D01*
X108523168Y-43634832D01*
X108607302Y-43651912D01*
X108646284Y-43665242D01*
X108676975Y-43668917D01*
X108752032Y-43672017D01*
X108865028Y-43674451D01*
X109009530Y-43676127D01*
X109179110Y-43676955D01*
X109367337Y-43676844D01*
X109443509Y-43676530D01*
X110216109Y-43672599D01*
X110281909Y-43738400D01*
X110317742Y-43778444D01*
X110335119Y-43817430D01*
X110337591Y-43872368D01*
X110328710Y-43960271D01*
X110328530Y-43961750D01*
X110317952Y-44052965D01*
X110310098Y-44128683D01*
X110307125Y-44165390D01*
X110325418Y-44202605D01*
X110385618Y-44250745D01*
X110482700Y-44307981D01*
X110637296Y-44392309D01*
X110758860Y-44460021D01*
X110859260Y-44518258D01*
X110950366Y-44574162D01*
X111044045Y-44634876D01*
X111152168Y-44707541D01*
X111193900Y-44735947D01*
X111372645Y-44861264D01*
X111533716Y-44982547D01*
X111687043Y-45108319D01*
X111842553Y-45247106D01*
X112010175Y-45407431D01*
X112199838Y-45597818D01*
X112210788Y-45609006D01*
X112600508Y-46041349D01*
X112945432Y-46496034D01*
X113246158Y-46974270D01*
X113503283Y-47477265D01*
X113717407Y-48006226D01*
X113889125Y-48562362D01*
X114019035Y-49146880D01*
X114049682Y-49326300D01*
X114108363Y-49813281D01*
X114129263Y-50307254D01*
X114112302Y-50816149D01*
X114057406Y-51347894D01*
X114027970Y-51548800D01*
X114009097Y-51648461D01*
X113978961Y-51784327D01*
X113940749Y-51943899D01*
X113897647Y-52114681D01*
X113852844Y-52284175D01*
X113809524Y-52439883D01*
X113770876Y-52569308D01*
X113756148Y-52614780D01*
X113701716Y-52764697D01*
X113633308Y-52933955D01*
X113554476Y-53115420D01*
X113468774Y-53301958D01*
X113379753Y-53486435D01*
X113290966Y-53661719D01*
X113205966Y-53820674D01*
X113128304Y-53956169D01*
X113061534Y-54061068D01*
X113009207Y-54128238D01*
X112996476Y-54140283D01*
X112964765Y-54181381D01*
X112959200Y-54202273D01*
X112941894Y-54241232D01*
X112908399Y-54279300D01*
X112870517Y-54321393D01*
X112857600Y-54348550D01*
X112841903Y-54385149D01*
X112825850Y-54405277D01*
X112794559Y-54442273D01*
X112744419Y-54505605D01*
X112692500Y-54573381D01*
X112605425Y-54684134D01*
X112507394Y-54799086D01*
X112392054Y-54925119D01*
X112253052Y-55069120D01*
X112084035Y-55237973D01*
X112032100Y-55289041D01*
X111915486Y-55402006D01*
X111811712Y-55498675D01*
X111710673Y-55587565D01*
X111602263Y-55677193D01*
X111476376Y-55776074D01*
X111322907Y-55892724D01*
X111257400Y-55941876D01*
X111145143Y-56021539D01*
X111021553Y-56102290D01*
X110902967Y-56173910D01*
X110805721Y-56226183D01*
X110793850Y-56231786D01*
X110734715Y-56261203D01*
X110701342Y-56282122D01*
X110698600Y-56285819D01*
X110710722Y-56311068D01*
X110742512Y-56367465D01*
X110787108Y-56442837D01*
X110787434Y-56443377D01*
X110852154Y-56574210D01*
X110874234Y-56680734D01*
X110853537Y-56761820D01*
X110829949Y-56789963D01*
X110758414Y-56824837D01*
X110670746Y-56828716D01*
X110603005Y-56806503D01*
X110560881Y-56786855D01*
X110483959Y-56755018D01*
X110385149Y-56716245D01*
X110324637Y-56693297D01*
X110090374Y-56605587D01*
X109956337Y-56664763D01*
X109801541Y-56726844D01*
X109609596Y-56794123D01*
X109393367Y-56862891D01*
X109165718Y-56929441D01*
X108939513Y-56990063D01*
X108727617Y-57041051D01*
X108542895Y-57078697D01*
X108488800Y-57087761D01*
X108136602Y-57134207D01*
X107776090Y-57166135D01*
X107418985Y-57183185D01*
X107077009Y-57184994D01*
X106761883Y-57171200D01*
X106533000Y-57148160D01*
X106053986Y-57072408D01*
X105600448Y-56976329D01*
X105182180Y-56862096D01*
X105047100Y-56818620D01*
X104781734Y-56719701D01*
X104492906Y-56594653D01*
X104195609Y-56450540D01*
X103904835Y-56294425D01*
X103777100Y-56220348D01*
X103697796Y-56174644D01*
X103629085Y-56137594D01*
X103598256Y-56122726D01*
X103539194Y-56085521D01*
X103512596Y-56059946D01*
X103475509Y-56026589D01*
X103456780Y-56019200D01*
X103421525Y-56004589D01*
X103390040Y-55982356D01*
X103351890Y-55952431D01*
X103283512Y-55900156D01*
X103195413Y-55833526D01*
X103119803Y-55776759D01*
X103020130Y-55703060D01*
X102950134Y-55655440D01*
X102899177Y-55629064D01*
X102856622Y-55619101D01*
X102811831Y-55620716D01*
X102784608Y-55624455D01*
X102669173Y-55626405D01*
X102582963Y-55595994D01*
X102564645Y-55574700D01*
X103169525Y-55574700D01*
X103191238Y-55604031D01*
X103249638Y-55654580D01*
X103337746Y-55721612D01*
X103448581Y-55800391D01*
X103575160Y-55886182D01*
X103710503Y-55974248D01*
X103847629Y-56059854D01*
X103979557Y-56138265D01*
X104094850Y-56202381D01*
X104585669Y-56441519D01*
X105082527Y-56641091D01*
X105579044Y-56799009D01*
X106068839Y-56913187D01*
X106444100Y-56970771D01*
X106580016Y-56986390D01*
X106708539Y-57000759D01*
X106815503Y-57012317D01*
X106886739Y-57019507D01*
X106888600Y-57019678D01*
X106978378Y-57024080D01*
X107107081Y-57025421D01*
X107262946Y-57024047D01*
X107434213Y-57020304D01*
X107609119Y-57014539D01*
X107775904Y-57007098D01*
X107922806Y-56998329D01*
X108038064Y-56988577D01*
X108069700Y-56984873D01*
X108262678Y-56958245D01*
X108428000Y-56932623D01*
X108558761Y-56909179D01*
X108648055Y-56889085D01*
X108666600Y-56883601D01*
X108726106Y-56867045D01*
X108813338Y-56846012D01*
X108882500Y-56830796D01*
X108969692Y-56809394D01*
X109081608Y-56777426D01*
X109209586Y-56737879D01*
X109344964Y-56693738D01*
X109479079Y-56647990D01*
X109603270Y-56603619D01*
X109708873Y-56563611D01*
X109787227Y-56530953D01*
X109829670Y-56508629D01*
X109834750Y-56502581D01*
X109812878Y-56487199D01*
X109757249Y-56462691D01*
X109714100Y-56446548D01*
X109618089Y-56412235D01*
X109522295Y-56377425D01*
X109495022Y-56367364D01*
X109434930Y-56348540D01*
X109381910Y-56344719D01*
X109316464Y-56356775D01*
X109241022Y-56378760D01*
X109004155Y-56446511D01*
X108744154Y-56511567D01*
X108482914Y-56568859D01*
X108242332Y-56613319D01*
X108196700Y-56620517D01*
X107998787Y-56643508D01*
X107764087Y-56659186D01*
X107505294Y-56667635D01*
X107235104Y-56668936D01*
X106966209Y-56663173D01*
X106711304Y-56650427D01*
X106483084Y-56630782D01*
X106317100Y-56608307D01*
X105763951Y-56493750D01*
X105239652Y-56340097D01*
X104737631Y-56144668D01*
X104251319Y-55904782D01*
X103774145Y-55617762D01*
X103599972Y-55500041D01*
X103561099Y-55492852D01*
X103491391Y-55495801D01*
X103404853Y-55506459D01*
X103315495Y-55522397D01*
X103237323Y-55541184D01*
X103184346Y-55560391D01*
X103169525Y-55574700D01*
X102564645Y-55574700D01*
X102531758Y-55536471D01*
X102519800Y-55475557D01*
X102530732Y-55407321D01*
X102557172Y-55359452D01*
X102558489Y-55358311D01*
X102569114Y-55341661D01*
X102563731Y-55316542D01*
X102538109Y-55277329D01*
X102488016Y-55218398D01*
X102409220Y-55134124D01*
X102322062Y-55044051D01*
X102051104Y-54748335D01*
X101806040Y-54441575D01*
X101579968Y-54113781D01*
X101365986Y-53754962D01*
X101162007Y-53364900D01*
X100956313Y-52904744D01*
X100787839Y-52431315D01*
X100654472Y-51937077D01*
X100554098Y-51414491D01*
X100499557Y-51002700D01*
X100467330Y-50495566D01*
X100470419Y-50355000D01*
X100629787Y-50355000D01*
X100635396Y-50712163D01*
X100651591Y-51027067D01*
X100679101Y-51307287D01*
X100718655Y-51560396D01*
X100766711Y-51777400D01*
X100786827Y-51857332D01*
X100810974Y-51954714D01*
X100820446Y-51993300D01*
X100855129Y-52121221D01*
X100902810Y-52278532D01*
X100957645Y-52447449D01*
X101013791Y-52610184D01*
X101065403Y-52748952D01*
X101083318Y-52793400D01*
X101154031Y-52960462D01*
X101220270Y-53109527D01*
X101286774Y-53249671D01*
X101358279Y-53389973D01*
X101439525Y-53539509D01*
X101535249Y-53707355D01*
X101650191Y-53902590D01*
X101745100Y-54061208D01*
X101794500Y-54135829D01*
X101866354Y-54234276D01*
X101955497Y-54350376D01*
X102056762Y-54477955D01*
X102164984Y-54610841D01*
X102274999Y-54742861D01*
X102381639Y-54867843D01*
X102479740Y-54979612D01*
X102564135Y-55071996D01*
X102629661Y-55138823D01*
X102671150Y-55173919D01*
X102679326Y-55177619D01*
X102706287Y-55162198D01*
X102752648Y-55119166D01*
X102780926Y-55088725D01*
X102841402Y-55018819D01*
X102873954Y-54967803D01*
X102877096Y-54923407D01*
X102849344Y-54873364D01*
X102789212Y-54805407D01*
X102740472Y-54754570D01*
X102361682Y-54324883D01*
X102025905Y-53868902D01*
X101734057Y-53388536D01*
X101487058Y-52885697D01*
X101285825Y-52362294D01*
X101131276Y-51820239D01*
X101024330Y-51261442D01*
X101009179Y-51151305D01*
X100992538Y-50984262D01*
X100980251Y-50783105D01*
X100972436Y-50560916D01*
X100969288Y-50335985D01*
X101529200Y-50335985D01*
X101541450Y-50746766D01*
X101579891Y-51134195D01*
X101647053Y-51510857D01*
X101745469Y-51889334D01*
X101877670Y-52282210D01*
X101967202Y-52512701D01*
X102024513Y-52651410D01*
X102078521Y-52774669D01*
X102134700Y-52893466D01*
X102198526Y-53018792D01*
X102275477Y-53161637D01*
X102371026Y-53332991D01*
X102412327Y-53406061D01*
X102513679Y-53568575D01*
X102643918Y-53752383D01*
X102793642Y-53945395D01*
X102953446Y-54135525D01*
X103113927Y-54310683D01*
X103124843Y-54321968D01*
X103289601Y-54491636D01*
X103462286Y-54309268D01*
X103540583Y-54225733D01*
X103588250Y-54170507D01*
X103609841Y-54135259D01*
X103609913Y-54111658D01*
X103593022Y-54091373D01*
X103585171Y-54084555D01*
X103543079Y-54028034D01*
X103520444Y-53967570D01*
X103518589Y-53909453D01*
X103544212Y-53853465D01*
X103584158Y-53803361D01*
X103630937Y-53745227D01*
X103659098Y-53700862D01*
X103662800Y-53689207D01*
X103649041Y-53655511D01*
X103614136Y-53597983D01*
X103591796Y-53565560D01*
X103529452Y-53471714D01*
X103444646Y-53332843D01*
X103337627Y-53149361D01*
X103236445Y-52971200D01*
X103184896Y-52881816D01*
X103131710Y-52792890D01*
X103114712Y-52765400D01*
X103072756Y-52695525D01*
X103012495Y-52591168D01*
X102939692Y-52462584D01*
X102860109Y-52320029D01*
X102779509Y-52173758D01*
X102703655Y-52034025D01*
X102702243Y-52031400D01*
X102651114Y-51939000D01*
X102602397Y-51855465D01*
X102566640Y-51798880D01*
X102566639Y-51798878D01*
X102534296Y-51748746D01*
X102519851Y-51719281D01*
X102519800Y-51718603D01*
X102507790Y-51689890D01*
X102475999Y-51628844D01*
X102430785Y-51546690D01*
X102378506Y-51454654D01*
X102325519Y-51363962D01*
X102278183Y-51285840D01*
X102248927Y-51240337D01*
X102204077Y-51152825D01*
X102194251Y-51069516D01*
X102316600Y-51069516D01*
X102323289Y-51090282D01*
X102339271Y-51124710D01*
X102366838Y-51177171D01*
X102408285Y-51252034D01*
X102465903Y-51353673D01*
X102541987Y-51486456D01*
X102638830Y-51654756D01*
X102753346Y-51853600D01*
X102863158Y-52044475D01*
X102981805Y-52250972D01*
X103101705Y-52459879D01*
X103215277Y-52657980D01*
X103314938Y-52832062D01*
X103358172Y-52907700D01*
X103441670Y-53052883D01*
X103521374Y-53189636D01*
X103592173Y-53309329D01*
X103648958Y-53403334D01*
X103686617Y-53463023D01*
X103690267Y-53468435D01*
X103751562Y-53567203D01*
X103778222Y-53642217D01*
X103770741Y-53706420D01*
X103729611Y-53772758D01*
X103703040Y-53803686D01*
X103639933Y-53882644D01*
X103617005Y-53941827D01*
X103633606Y-53991685D01*
X103688200Y-54042016D01*
X103738273Y-54088999D01*
X103763292Y-54132021D01*
X103763958Y-54138026D01*
X103747863Y-54173711D01*
X103705113Y-54236102D01*
X103643383Y-54314464D01*
X103608479Y-54355500D01*
X103546276Y-54426798D01*
X103457810Y-54528147D01*
X103350246Y-54651344D01*
X103230744Y-54788184D01*
X103106470Y-54930466D01*
X103047270Y-54998233D01*
X102935334Y-55127687D01*
X102836485Y-55244553D01*
X102755092Y-55343456D01*
X102695519Y-55419024D01*
X102662132Y-55465882D01*
X102656790Y-55478856D01*
X102691169Y-55483225D01*
X102772719Y-55476526D01*
X102899107Y-55459110D01*
X103068003Y-55431326D01*
X103277076Y-55393521D01*
X103458514Y-55358867D01*
X103592868Y-55333015D01*
X103649054Y-55322354D01*
X104386700Y-55322354D01*
X104678800Y-55465690D01*
X105158180Y-55681352D01*
X105625055Y-55850975D01*
X106084797Y-55976070D01*
X106542780Y-56058147D01*
X106914000Y-56094003D01*
X107035274Y-56100896D01*
X107137983Y-56105147D01*
X107233837Y-56106594D01*
X107334544Y-56105073D01*
X107451812Y-56100425D01*
X107597351Y-56092485D01*
X107764900Y-56082221D01*
X107885995Y-56072172D01*
X108016156Y-56057321D01*
X108145668Y-56039285D01*
X108264816Y-56019681D01*
X108363887Y-56000126D01*
X108433165Y-55982236D01*
X108462937Y-55967627D01*
X108463400Y-55965984D01*
X108442248Y-55944514D01*
X108406250Y-55929385D01*
X108351570Y-55910326D01*
X108270970Y-55879194D01*
X108209400Y-55854115D01*
X108100201Y-55809260D01*
X107981581Y-55761494D01*
X107930000Y-55741081D01*
X107844553Y-55707307D01*
X107772004Y-55678194D01*
X107739500Y-55664828D01*
X107681660Y-55640389D01*
X107607984Y-55609237D01*
X107599800Y-55605775D01*
X107530678Y-55577333D01*
X107434895Y-55538904D01*
X107333178Y-55498802D01*
X107333100Y-55498772D01*
X107228647Y-55457363D01*
X107127560Y-55416235D01*
X107053700Y-55385136D01*
X106972489Y-55352400D01*
X106853416Y-55307856D01*
X106706985Y-55255232D01*
X106543700Y-55198252D01*
X106374066Y-55140643D01*
X106233629Y-55094256D01*
X106133173Y-55064634D01*
X106047477Y-55044930D01*
X105990527Y-55038160D01*
X105979629Y-55039510D01*
X105938755Y-55048654D01*
X105858939Y-55063593D01*
X105751432Y-55082310D01*
X105627488Y-55102787D01*
X105618600Y-55104216D01*
X105483433Y-55126391D01*
X105353679Y-55148526D01*
X105244546Y-55167975D01*
X105174100Y-55181499D01*
X105076838Y-55200343D01*
X104960083Y-55221149D01*
X104882000Y-55234109D01*
X104788172Y-55249293D01*
X104708787Y-55262571D01*
X104666100Y-55270137D01*
X104610000Y-55280748D01*
X104530338Y-55295656D01*
X104501000Y-55301117D01*
X104386700Y-55322354D01*
X103649054Y-55322354D01*
X103764280Y-55300491D01*
X103959831Y-55263717D01*
X104166600Y-55225121D01*
X104371668Y-55187126D01*
X104462900Y-55170330D01*
X104797986Y-55108592D01*
X105087972Y-55054751D01*
X105337782Y-55007879D01*
X105552342Y-54967051D01*
X105736581Y-54931342D01*
X105782123Y-54922387D01*
X105862581Y-54905188D01*
X105899373Y-54892238D01*
X105898987Y-54879685D01*
X105875451Y-54866977D01*
X105824091Y-54854691D01*
X105797649Y-54874178D01*
X105758522Y-54894916D01*
X105726188Y-54890800D01*
X105688705Y-54887773D01*
X105618919Y-54893081D01*
X105514210Y-54907169D01*
X105371964Y-54930481D01*
X105189561Y-54963462D01*
X104964386Y-55006554D01*
X104693821Y-55060204D01*
X104513700Y-55096610D01*
X104375850Y-55123822D01*
X104237703Y-55149714D01*
X104117016Y-55171030D01*
X104043800Y-55182772D01*
X103953535Y-55197065D01*
X103881318Y-55210415D01*
X103845567Y-55219122D01*
X103804736Y-55229259D01*
X103730192Y-55243952D01*
X103642367Y-55259293D01*
X103511975Y-55280857D01*
X103414419Y-55297324D01*
X103332401Y-55311783D01*
X103248621Y-55327326D01*
X103145781Y-55347042D01*
X103081536Y-55359484D01*
X102975309Y-55377676D01*
X102887815Y-55388169D01*
X102830899Y-55389785D01*
X102816259Y-55385910D01*
X102821995Y-55357690D01*
X102859366Y-55300654D01*
X102923279Y-55221078D01*
X103008640Y-55125240D01*
X103110355Y-55019418D01*
X103127709Y-55002077D01*
X103190756Y-54935911D01*
X103268841Y-54849106D01*
X103344785Y-54760777D01*
X103505720Y-54570983D01*
X103637012Y-54422105D01*
X103738913Y-54313984D01*
X103811673Y-54246461D01*
X103855544Y-54219378D01*
X103870776Y-54232577D01*
X103857620Y-54285899D01*
X103816327Y-54379186D01*
X103751699Y-54503879D01*
X103691359Y-54619209D01*
X103655422Y-54700440D01*
X103641787Y-54756811D01*
X103648354Y-54797563D01*
X103673024Y-54831935D01*
X103676359Y-54835330D01*
X103720459Y-54860598D01*
X103779572Y-54849853D01*
X103781615Y-54849083D01*
X103869450Y-54801877D01*
X103985989Y-54716931D01*
X104128557Y-54596452D01*
X104294479Y-54442651D01*
X104405264Y-54334164D01*
X104494917Y-54250769D01*
X104558034Y-54208249D01*
X104598273Y-54206628D01*
X104619291Y-54245925D01*
X104624744Y-54326165D01*
X104624594Y-54335485D01*
X104626065Y-54460998D01*
X104634454Y-54589394D01*
X104648225Y-54708785D01*
X104665836Y-54807283D01*
X104685750Y-54873002D01*
X104696419Y-54890190D01*
X104754618Y-54924921D01*
X104809224Y-54909077D01*
X104860276Y-54842627D01*
X104907807Y-54725537D01*
X104919908Y-54685700D01*
X104944440Y-54592098D01*
X104962425Y-54508091D01*
X104968727Y-54464160D01*
X104981087Y-54399596D01*
X105003011Y-54368505D01*
X105023184Y-54373917D01*
X105033227Y-54405261D01*
X105043803Y-54470542D01*
X105049654Y-54524200D01*
X105056233Y-54591768D01*
X105066540Y-54642832D01*
X105087304Y-54681224D01*
X105125257Y-54710772D01*
X105187127Y-54735308D01*
X105279647Y-54758661D01*
X105409545Y-54784662D01*
X105555100Y-54811839D01*
X105656885Y-54829760D01*
X105720623Y-54837011D01*
X105757967Y-54833427D01*
X105780572Y-54818842D01*
X105789133Y-54808521D01*
X105818571Y-54763337D01*
X105827722Y-54744132D01*
X105852260Y-54744626D01*
X105912835Y-54762323D01*
X105999351Y-54793157D01*
X106101712Y-54833062D01*
X106209821Y-54877972D01*
X106313582Y-54923821D01*
X106402898Y-54966544D01*
X106466660Y-55001445D01*
X106509179Y-55022512D01*
X106592885Y-55059449D01*
X106711623Y-55109704D01*
X106859237Y-55170725D01*
X107029571Y-55239960D01*
X107216470Y-55314860D01*
X107359500Y-55371517D01*
X107749269Y-55525159D01*
X108095311Y-55661585D01*
X108401166Y-55782194D01*
X108670372Y-55888386D01*
X108906468Y-55981563D01*
X109112993Y-56063123D01*
X109293486Y-56134468D01*
X109451486Y-56196997D01*
X109590533Y-56252111D01*
X109714164Y-56301210D01*
X109825919Y-56345695D01*
X109929338Y-56386964D01*
X110027958Y-56426420D01*
X110125319Y-56465461D01*
X110190229Y-56491530D01*
X110342360Y-56551800D01*
X110478707Y-56604181D01*
X110592247Y-56646110D01*
X110675957Y-56675021D01*
X110722816Y-56688352D01*
X110729979Y-56688604D01*
X110749344Y-56656413D01*
X110749400Y-56654716D01*
X110737031Y-56629197D01*
X110701477Y-56563852D01*
X110645067Y-56462781D01*
X110570132Y-56330087D01*
X110479000Y-56169871D01*
X110374001Y-55986234D01*
X110257464Y-55783278D01*
X110131719Y-55565103D01*
X110063600Y-55447231D01*
X109933743Y-55221829D01*
X109811921Y-55008617D01*
X109700480Y-54811818D01*
X109601760Y-54635655D01*
X109518107Y-54484351D01*
X109451864Y-54362127D01*
X109405373Y-54273207D01*
X109380978Y-54221813D01*
X109377800Y-54211488D01*
X109389077Y-54166434D01*
X109394112Y-54154786D01*
X109479400Y-54154786D01*
X109491876Y-54181368D01*
X109525602Y-54241422D01*
X109575017Y-54325270D01*
X109619100Y-54398059D01*
X109676571Y-54492944D01*
X109722568Y-54570775D01*
X109751553Y-54622068D01*
X109758800Y-54637447D01*
X109771043Y-54663819D01*
X109801880Y-54717134D01*
X109817999Y-54743354D01*
X109861101Y-54815221D01*
X109915950Y-54910544D01*
X109967641Y-55003200D01*
X110037268Y-55130076D01*
X110087102Y-55218602D01*
X110121939Y-55274876D01*
X110146577Y-55304999D01*
X110165812Y-55315072D01*
X110184443Y-55311194D01*
X110202555Y-55301925D01*
X110249288Y-55275085D01*
X110323250Y-55230391D01*
X110408824Y-55177285D01*
X110412850Y-55174754D01*
X110489620Y-55124331D01*
X110545972Y-55083301D01*
X110571149Y-55059572D01*
X110571574Y-55058073D01*
X110551506Y-55037018D01*
X110499821Y-55000462D01*
X110450924Y-54970190D01*
X110277239Y-54860983D01*
X110117545Y-54744513D01*
X109958288Y-54609972D01*
X109785913Y-54446552D01*
X109752450Y-54413237D01*
X109658327Y-54319887D01*
X109578234Y-54242219D01*
X109518275Y-54186011D01*
X109484553Y-54157040D01*
X109479400Y-54154786D01*
X109394112Y-54154786D01*
X109417318Y-54101114D01*
X109454140Y-54031060D01*
X109491158Y-53971806D01*
X109519988Y-53938883D01*
X109526263Y-53936445D01*
X109548080Y-53956115D01*
X109585905Y-54006458D01*
X109613256Y-54047858D01*
X109684985Y-54142493D01*
X109790464Y-54256902D01*
X109920798Y-54383255D01*
X110067094Y-54513720D01*
X110220457Y-54640466D01*
X110371992Y-54755661D01*
X110512806Y-54851473D01*
X110555707Y-54877681D01*
X110624306Y-54908022D01*
X110659498Y-54903063D01*
X110658394Y-54868118D01*
X110618102Y-54808500D01*
X110602608Y-54791455D01*
X110552870Y-54731892D01*
X110486136Y-54642539D01*
X110411806Y-54537007D01*
X110339281Y-54428910D01*
X110277963Y-54331858D01*
X110243009Y-54270774D01*
X110224274Y-54217071D01*
X110234598Y-54192991D01*
X110270162Y-54206595D01*
X110272536Y-54208409D01*
X110305714Y-54234664D01*
X110367938Y-54284201D01*
X110448590Y-54348562D01*
X110495400Y-54385969D01*
X110584695Y-54455822D01*
X110664824Y-54515754D01*
X110723717Y-54556858D01*
X110741380Y-54567540D01*
X110811110Y-54595447D01*
X110845789Y-54588725D01*
X110845248Y-54549678D01*
X110809320Y-54480606D01*
X110753404Y-54403267D01*
X110548468Y-54104914D01*
X110386239Y-53786619D01*
X110269491Y-53454745D01*
X110205189Y-53146809D01*
X110199921Y-53112468D01*
X110197149Y-53083383D01*
X110200105Y-53054951D01*
X110212019Y-53022567D01*
X110236123Y-52981626D01*
X110275648Y-52927524D01*
X110333825Y-52855657D01*
X110413884Y-52761421D01*
X110519059Y-52640211D01*
X110652578Y-52487422D01*
X110730350Y-52398466D01*
X110834656Y-52278101D01*
X110926538Y-52170163D01*
X111001049Y-52080621D01*
X111053243Y-52015443D01*
X111078175Y-51980597D01*
X111079600Y-51976997D01*
X111076526Y-51965219D01*
X111062660Y-51958810D01*
X111031029Y-51958460D01*
X110974664Y-51964859D01*
X110886594Y-51978696D01*
X110759849Y-52000661D01*
X110659189Y-52018592D01*
X110530645Y-52041375D01*
X110420205Y-52060541D01*
X110337387Y-52074470D01*
X110291715Y-52081538D01*
X110286275Y-52082092D01*
X110280122Y-52058215D01*
X110275633Y-51992403D01*
X110273107Y-51893501D01*
X110272846Y-51770357D01*
X110273575Y-51707550D01*
X110275427Y-51560419D01*
X110274734Y-51453269D01*
X110270223Y-51375295D01*
X110260621Y-51315693D01*
X110244654Y-51263658D01*
X110221050Y-51208388D01*
X110212606Y-51190237D01*
X110158546Y-51085435D01*
X110092826Y-50972140D01*
X110054147Y-50911609D01*
X109962583Y-50775644D01*
X110047654Y-50685972D01*
X110214343Y-50492777D01*
X110347967Y-50301083D01*
X110445022Y-50117023D01*
X110502005Y-49946730D01*
X110514341Y-49869037D01*
X110527570Y-49723141D01*
X110263020Y-49461220D01*
X110104897Y-49295897D01*
X109982000Y-49148444D01*
X109900687Y-49027850D01*
X109839376Y-48929377D01*
X109791302Y-48873828D01*
X109752342Y-48856400D01*
X109717908Y-48861505D01*
X109725956Y-48885344D01*
X109736639Y-48898904D01*
X109756500Y-48927936D01*
X109739529Y-48930789D01*
X109708000Y-48921930D01*
X109633264Y-48903613D01*
X109568300Y-48892272D01*
X109539397Y-48892239D01*
X109551488Y-48906441D01*
X109607028Y-48936862D01*
X109648845Y-48957328D01*
X109747555Y-49008551D01*
X109808459Y-49048595D01*
X109828507Y-49074916D01*
X109804647Y-49084969D01*
X109801915Y-49084999D01*
X109764169Y-49074706D01*
X109692994Y-49047105D01*
X109600639Y-49007119D01*
X109549023Y-48983399D01*
X109447172Y-48938668D01*
X109356543Y-48904223D01*
X109290942Y-48885086D01*
X109272457Y-48882812D01*
X109240022Y-48886155D01*
X109246434Y-48898235D01*
X109295351Y-48924698D01*
X109301600Y-48927798D01*
X109371952Y-48961113D01*
X109467123Y-49004319D01*
X109555600Y-49043302D01*
X109684633Y-49099486D01*
X109775043Y-49139904D01*
X109834944Y-49168690D01*
X109872453Y-49189979D01*
X109895687Y-49207905D01*
X109910810Y-49224231D01*
X109926649Y-49247383D01*
X109923115Y-49257870D01*
X109895757Y-49254144D01*
X109840127Y-49234659D01*
X109751776Y-49197868D01*
X109626255Y-49142225D01*
X109468321Y-49070397D01*
X109331253Y-49009190D01*
X109207877Y-48956983D01*
X109106428Y-48917033D01*
X109035142Y-48892595D01*
X109003388Y-48886589D01*
X109011435Y-48898812D01*
X109059972Y-48927871D01*
X109142796Y-48970588D01*
X109253703Y-49023789D01*
X109386491Y-49084298D01*
X109409581Y-49094546D01*
X109548946Y-49157747D01*
X109670806Y-49216012D01*
X109768041Y-49265686D01*
X109833529Y-49303118D01*
X109860149Y-49324653D01*
X109860400Y-49325831D01*
X109851971Y-49343488D01*
X109823349Y-49358057D01*
X109769535Y-49370121D01*
X109685526Y-49380265D01*
X109566320Y-49389074D01*
X109406918Y-49397132D01*
X109202317Y-49405024D01*
X109174600Y-49405984D01*
X109015441Y-49412709D01*
X108868801Y-49421260D01*
X108744159Y-49430901D01*
X108650995Y-49440893D01*
X108598790Y-49450501D01*
X108597775Y-49450837D01*
X108583921Y-49459276D01*
X108599603Y-49465959D01*
X108648434Y-49471047D01*
X108734025Y-49474704D01*
X108859988Y-49477089D01*
X109029934Y-49478365D01*
X109220075Y-49478700D01*
X109437514Y-49479137D01*
X109611114Y-49480693D01*
X109747826Y-49483727D01*
X109854606Y-49488603D01*
X109938407Y-49495683D01*
X110006183Y-49505329D01*
X110064888Y-49517904D01*
X110087563Y-49523883D01*
X110231864Y-49576048D01*
X110343180Y-49641876D01*
X110414673Y-49716648D01*
X110435673Y-49764092D01*
X110437920Y-49857364D01*
X110409199Y-49976987D01*
X110354147Y-50113077D01*
X110277401Y-50255749D01*
X110183595Y-50395118D01*
X110083597Y-50514719D01*
X109974700Y-50630645D01*
X109377800Y-50659569D01*
X109201477Y-50668817D01*
X109035692Y-50678823D01*
X108889357Y-50688947D01*
X108771380Y-50698549D01*
X108690671Y-50706989D01*
X108666600Y-50710665D01*
X108591687Y-50724284D01*
X108483882Y-50742742D01*
X108360495Y-50763110D01*
X108288747Y-50774622D01*
X108151728Y-50799664D01*
X108008437Y-50831257D01*
X107882031Y-50864110D01*
X107837112Y-50877803D01*
X107739718Y-50907424D01*
X107655423Y-50929203D01*
X107600450Y-50939015D01*
X107595750Y-50939200D01*
X107537844Y-50927244D01*
X107441296Y-50893168D01*
X107311795Y-50839657D01*
X107155030Y-50769396D01*
X106976692Y-50685070D01*
X106782470Y-50589366D01*
X106578053Y-50484968D01*
X106369130Y-50374562D01*
X106177400Y-50269749D01*
X106102711Y-50230901D01*
X106068761Y-50220293D01*
X106074319Y-50237541D01*
X106074465Y-50237722D01*
X106144953Y-50305085D01*
X106257876Y-50387114D01*
X106408026Y-50480850D01*
X106590192Y-50583336D01*
X106799164Y-50691615D01*
X107029734Y-50802729D01*
X107226662Y-50891860D01*
X107375306Y-50965378D01*
X107512667Y-51052828D01*
X107658187Y-51166792D01*
X107679715Y-51185063D01*
X107768532Y-51259714D01*
X107842256Y-51319203D01*
X107893093Y-51357411D01*
X107913187Y-51368325D01*
X107919913Y-51340186D01*
X107931091Y-51274465D01*
X107944590Y-51183952D01*
X107948125Y-51158612D01*
X107965329Y-51059571D01*
X107986018Y-50978123D01*
X108006242Y-50929215D01*
X108009944Y-50924592D01*
X108051348Y-50904645D01*
X108131061Y-50882442D01*
X108236934Y-50859880D01*
X108356817Y-50838860D01*
X108478561Y-50821278D01*
X108590015Y-50809035D01*
X108679030Y-50804027D01*
X108733456Y-50808155D01*
X108739724Y-50810554D01*
X108784544Y-50844332D01*
X108847621Y-50903969D01*
X108920003Y-50979431D01*
X108992742Y-51060683D01*
X109056886Y-51137693D01*
X109103485Y-51200426D01*
X109123590Y-51238850D01*
X109123800Y-51241120D01*
X109108174Y-51271758D01*
X109066204Y-51331426D01*
X109005250Y-51411143D01*
X108932670Y-51501930D01*
X108855826Y-51594806D01*
X108782077Y-51680792D01*
X108718782Y-51750909D01*
X108673302Y-51796176D01*
X108660969Y-51805820D01*
X108626054Y-51811491D01*
X108553302Y-51813470D01*
X108455555Y-51811585D01*
X108403787Y-51809271D01*
X108348491Y-51805898D01*
X108294443Y-51801151D01*
X108237223Y-51794002D01*
X108172407Y-51783425D01*
X108095573Y-51768393D01*
X108002300Y-51747878D01*
X107888165Y-51720853D01*
X107748746Y-51686291D01*
X107579621Y-51643164D01*
X107376366Y-51590446D01*
X107134561Y-51527109D01*
X106849783Y-51452126D01*
X106728282Y-51420076D01*
X106123465Y-51260484D01*
X105893576Y-51004983D01*
X105804314Y-50907307D01*
X105723016Y-50821141D01*
X105657727Y-50754820D01*
X105616493Y-50716680D01*
X105612073Y-50713329D01*
X105594394Y-50708600D01*
X105604070Y-50736019D01*
X105636080Y-50788587D01*
X105685405Y-50859305D01*
X105747022Y-50941175D01*
X105815910Y-51027198D01*
X105887050Y-51110376D01*
X105932577Y-51160083D01*
X106088583Y-51324749D01*
X107015641Y-51573495D01*
X107228807Y-51630702D01*
X107430334Y-51684804D01*
X107614035Y-51734140D01*
X107773728Y-51777048D01*
X107903227Y-51811867D01*
X107996349Y-51836934D01*
X108046907Y-51850588D01*
X108048244Y-51850952D01*
X108153789Y-51879662D01*
X108140146Y-52228581D01*
X108138159Y-52471570D01*
X108154859Y-52686744D01*
X108193441Y-52891064D01*
X108257101Y-53101486D01*
X108348256Y-53333150D01*
X108350121Y-53368733D01*
X108312523Y-53376195D01*
X108234275Y-53355568D01*
X108186580Y-53337568D01*
X108117029Y-53301480D01*
X108080158Y-53253842D01*
X108064602Y-53204218D01*
X108042081Y-53139305D01*
X108006591Y-53109855D01*
X107973635Y-53102862D01*
X107919568Y-53106573D01*
X107904600Y-53133113D01*
X107891641Y-53175512D01*
X107848934Y-53188471D01*
X107770727Y-53173022D01*
X107739089Y-53162869D01*
X107677748Y-53140540D01*
X107577806Y-53102310D01*
X107444048Y-53050113D01*
X107281259Y-52985889D01*
X107094227Y-52911572D01*
X106887735Y-52829101D01*
X106666570Y-52740412D01*
X106435517Y-52647443D01*
X106199362Y-52552130D01*
X105962891Y-52456409D01*
X105730889Y-52362219D01*
X105508141Y-52271496D01*
X105299434Y-52186177D01*
X105109553Y-52108198D01*
X104943284Y-52039498D01*
X104805412Y-51982012D01*
X104700723Y-51937678D01*
X104634002Y-51908432D01*
X104610239Y-51896490D01*
X104589140Y-51853190D01*
X104565143Y-51766293D01*
X104539229Y-51642852D01*
X104512382Y-51489924D01*
X104485585Y-51314562D01*
X104459821Y-51123820D01*
X104436072Y-50924753D01*
X104415321Y-50724416D01*
X104398552Y-50529863D01*
X104386746Y-50348147D01*
X104383078Y-50266100D01*
X104381421Y-49895945D01*
X104406376Y-49560769D01*
X104459731Y-49251226D01*
X104540002Y-48969454D01*
X106159514Y-48969454D01*
X106171543Y-49113343D01*
X106175044Y-49127051D01*
X106235742Y-49265917D01*
X106331305Y-49371328D01*
X106457286Y-49441999D01*
X106609236Y-49476646D01*
X106782704Y-49473984D01*
X106973243Y-49432730D01*
X107089080Y-49390921D01*
X107193519Y-49349675D01*
X107293731Y-49313150D01*
X107369432Y-49288707D01*
X107374425Y-49287331D01*
X107436849Y-49266306D01*
X107465341Y-49238735D01*
X107462635Y-49193006D01*
X107431462Y-49117507D01*
X107420005Y-49093580D01*
X107353128Y-48992110D01*
X107252594Y-48884216D01*
X107131899Y-48782378D01*
X107004536Y-48699080D01*
X106978645Y-48685333D01*
X106828662Y-48629486D01*
X106670081Y-48605139D01*
X106518709Y-48613262D01*
X106400194Y-48649862D01*
X106275730Y-48733709D01*
X106194873Y-48841574D01*
X106159514Y-48969454D01*
X104540002Y-48969454D01*
X104543273Y-48957973D01*
X104658791Y-48671666D01*
X104707469Y-48570650D01*
X104831663Y-48323000D01*
X104469481Y-48318471D01*
X104335875Y-48316841D01*
X104218134Y-48315481D01*
X104126751Y-48314505D01*
X104072219Y-48314030D01*
X104064112Y-48314002D01*
X104026083Y-48309313D01*
X104031762Y-48296818D01*
X104075141Y-48279129D01*
X104150209Y-48258861D01*
X104228040Y-48242729D01*
X104322814Y-48230186D01*
X104455981Y-48220808D01*
X104630641Y-48214484D01*
X104849894Y-48211100D01*
X105110600Y-48210525D01*
X105418479Y-48213861D01*
X105689247Y-48223087D01*
X105936395Y-48239623D01*
X106173416Y-48264890D01*
X106413802Y-48300309D01*
X106671043Y-48347301D01*
X106939400Y-48403105D01*
X107366040Y-48488791D01*
X107766241Y-48553877D01*
X108158885Y-48600707D01*
X108562853Y-48631629D01*
X108895200Y-48646128D01*
X109153829Y-48649752D01*
X109428822Y-48645584D01*
X109710876Y-48634340D01*
X109990691Y-48616739D01*
X110258964Y-48593495D01*
X110506395Y-48565327D01*
X110723683Y-48532951D01*
X110901525Y-48497084D01*
X110933495Y-48489042D01*
X111128415Y-48430446D01*
X111301352Y-48364005D01*
X111446814Y-48292838D01*
X111559306Y-48220067D01*
X111633334Y-48148811D01*
X111663405Y-48082190D01*
X111663800Y-48074299D01*
X111640719Y-48000258D01*
X111578675Y-47926243D01*
X111488465Y-47862506D01*
X111401543Y-47825260D01*
X111287043Y-47799945D01*
X111134946Y-47781763D01*
X110957988Y-47770990D01*
X110768908Y-47767908D01*
X110580444Y-47772795D01*
X110405334Y-47785931D01*
X110292768Y-47800969D01*
X110166753Y-47823260D01*
X110043609Y-47847121D01*
X109942221Y-47868810D01*
X109905217Y-47877766D01*
X109825780Y-47897157D01*
X109770545Y-47902747D01*
X109735510Y-47887933D01*
X109716670Y-47846114D01*
X109710024Y-47770688D01*
X109711567Y-47655055D01*
X109714229Y-47578773D01*
X109857129Y-47578773D01*
X110131814Y-47527987D01*
X110308565Y-47502548D01*
X110510052Y-47485444D01*
X110722859Y-47476796D01*
X110933568Y-47476726D01*
X111128764Y-47485356D01*
X111295029Y-47502807D01*
X111371700Y-47516745D01*
X111569983Y-47577372D01*
X111730312Y-47660768D01*
X111850288Y-47764192D01*
X111927512Y-47884900D01*
X111959584Y-48020152D01*
X111944105Y-48167206D01*
X111943350Y-48170041D01*
X111892313Y-48288874D01*
X111804048Y-48397371D01*
X111674797Y-48498719D01*
X111500801Y-48596104D01*
X111371700Y-48654664D01*
X111240126Y-48701019D01*
X111066762Y-48747515D01*
X110860577Y-48792290D01*
X110630541Y-48833479D01*
X110385622Y-48869219D01*
X110271601Y-48883183D01*
X110151978Y-48898234D01*
X110075558Y-48911703D01*
X110034875Y-48925636D01*
X110022462Y-48942077D01*
X110024151Y-48950943D01*
X110067999Y-49032256D01*
X110141499Y-49134057D01*
X110234935Y-49244728D01*
X110338591Y-49352649D01*
X110428054Y-49434025D01*
X110526363Y-49520867D01*
X110590287Y-49592145D01*
X110627031Y-49661467D01*
X110643800Y-49742438D01*
X110647799Y-49848666D01*
X110647800Y-49849019D01*
X110629506Y-49978418D01*
X110578059Y-50131018D01*
X110498610Y-50296650D01*
X110396308Y-50465149D01*
X110276304Y-50626344D01*
X110222413Y-50688813D01*
X110134448Y-50786180D01*
X110224077Y-50921210D01*
X110315857Y-51080366D01*
X110375731Y-51239253D01*
X110407559Y-51412730D01*
X110415196Y-51615657D01*
X110414367Y-51654153D01*
X110411794Y-51765600D01*
X110410876Y-51855446D01*
X110411641Y-51913383D01*
X110413575Y-51929851D01*
X110439684Y-51925084D01*
X110505967Y-51912093D01*
X110602822Y-51892783D01*
X110720641Y-51869056D01*
X110738429Y-51865457D01*
X110869996Y-51839252D01*
X110961888Y-51822965D01*
X111024148Y-51816086D01*
X111066819Y-51818108D01*
X111099944Y-51828520D01*
X111131404Y-51845533D01*
X111188197Y-51889513D01*
X111210967Y-51943974D01*
X111210401Y-52015298D01*
X111204936Y-52037854D01*
X111189921Y-52067772D01*
X111161981Y-52109188D01*
X111117741Y-52166237D01*
X111053829Y-52243055D01*
X110966868Y-52343778D01*
X110853484Y-52472542D01*
X110710303Y-52633482D01*
X110660450Y-52689310D01*
X110547924Y-52815935D01*
X110465299Y-52912086D01*
X110408343Y-52984911D01*
X110372823Y-53041559D01*
X110354508Y-53089179D01*
X110349166Y-53134921D01*
X110352563Y-53185935D01*
X110354919Y-53205443D01*
X110401693Y-53445574D01*
X110482809Y-53684194D01*
X110601277Y-53927749D01*
X110760104Y-54182682D01*
X110902229Y-54378326D01*
X110956129Y-54474466D01*
X110975380Y-54568065D01*
X110962828Y-54649869D01*
X110921323Y-54710624D01*
X110853710Y-54741074D01*
X110791204Y-54739181D01*
X110745798Y-54733903D01*
X110737883Y-54740796D01*
X110741036Y-54743139D01*
X110768768Y-54780378D01*
X110788411Y-54832687D01*
X110794793Y-54860983D01*
X110801698Y-54879294D01*
X110814978Y-54884236D01*
X110840486Y-54872426D01*
X110884075Y-54840483D01*
X110951598Y-54785023D01*
X111048908Y-54702664D01*
X111124794Y-54638280D01*
X111404698Y-54376130D01*
X111677436Y-54072077D01*
X111936230Y-53735018D01*
X112174302Y-53373849D01*
X112384874Y-52997465D01*
X112404575Y-52958500D01*
X112633604Y-52449828D01*
X112811971Y-51940164D01*
X112939634Y-51429649D01*
X113016557Y-50918424D01*
X113034053Y-50697900D01*
X113039978Y-50161070D01*
X112995498Y-49628943D01*
X112900883Y-49102605D01*
X112756398Y-48583143D01*
X112562311Y-48071646D01*
X112318890Y-47569202D01*
X112222210Y-47395900D01*
X112006855Y-47057534D01*
X111756220Y-46723641D01*
X111479799Y-46404942D01*
X111187086Y-46112157D01*
X110887573Y-45856010D01*
X110799796Y-45789373D01*
X110658180Y-45685350D01*
X110549301Y-45606317D01*
X110465192Y-45546866D01*
X110397887Y-45501592D01*
X110339421Y-45465087D01*
X110281826Y-45431944D01*
X110237444Y-45407677D01*
X110159769Y-45366552D01*
X110115502Y-45348034D01*
X110093386Y-45350527D01*
X110082168Y-45372433D01*
X110078530Y-45385122D01*
X110063393Y-45457041D01*
X110045216Y-45571454D01*
X110024917Y-45720209D01*
X110003418Y-45895155D01*
X109981640Y-46088140D01*
X109960502Y-46291012D01*
X109940925Y-46495620D01*
X109923829Y-46693812D01*
X109910285Y-46875200D01*
X109899905Y-47026162D01*
X109889484Y-47172877D01*
X109880022Y-47301583D01*
X109872519Y-47398516D01*
X109870417Y-47423836D01*
X109857129Y-47578773D01*
X109714229Y-47578773D01*
X109714756Y-47563689D01*
X109732765Y-47219782D01*
X109762437Y-46837832D01*
X109802362Y-46428884D01*
X109851128Y-46003984D01*
X109907322Y-45574177D01*
X109969532Y-45150509D01*
X110036348Y-44744024D01*
X110050776Y-44666069D01*
X110196664Y-44666069D01*
X110203931Y-44695665D01*
X110231137Y-44725486D01*
X110285876Y-44763306D01*
X110375737Y-44816899D01*
X110397919Y-44829803D01*
X110869467Y-45127361D01*
X111299264Y-45449090D01*
X111692605Y-45799998D01*
X112054787Y-46185093D01*
X112391104Y-46609384D01*
X112602000Y-46914114D01*
X112877357Y-47373030D01*
X113107777Y-47844742D01*
X113295032Y-48334178D01*
X113440893Y-48846265D01*
X113547131Y-49385932D01*
X113583060Y-49643800D01*
X113601437Y-49849570D01*
X113611808Y-50090264D01*
X113614404Y-50351192D01*
X113609460Y-50617666D01*
X113597207Y-50874997D01*
X113577879Y-51108497D01*
X113557302Y-51269400D01*
X113443588Y-51839134D01*
X113284137Y-52387384D01*
X113079891Y-52912705D01*
X112831793Y-53413654D01*
X112540786Y-53888785D01*
X112207813Y-54336655D01*
X111833817Y-54755818D01*
X111419740Y-55144831D01*
X110966525Y-55502249D01*
X110656250Y-55713822D01*
X110448801Y-55847334D01*
X110493352Y-55926917D01*
X110533343Y-55999151D01*
X110567827Y-56062678D01*
X110568345Y-56063650D01*
X110596869Y-56106760D01*
X110614889Y-56120800D01*
X110643808Y-56109283D01*
X110703331Y-56079239D01*
X110772746Y-56041500D01*
X110897994Y-55964255D01*
X111050684Y-55858696D01*
X111221841Y-55731929D01*
X111402494Y-55591062D01*
X111583670Y-55443202D01*
X111756395Y-55295457D01*
X111911699Y-55154934D01*
X112002537Y-55067367D01*
X112242746Y-54816798D01*
X112456766Y-54567705D01*
X112657983Y-54303512D01*
X112859783Y-54007643D01*
X112865718Y-53998517D01*
X112948973Y-53870334D01*
X113010982Y-53774033D01*
X113057995Y-53698779D01*
X113096261Y-53633739D01*
X113132029Y-53568078D01*
X113171548Y-53490961D01*
X113221068Y-53391555D01*
X113253172Y-53326800D01*
X113371399Y-53075700D01*
X113483291Y-52813747D01*
X113584533Y-52552485D01*
X113670812Y-52303456D01*
X113737813Y-52078203D01*
X113770585Y-51942500D01*
X113791498Y-51849002D01*
X113811776Y-51766921D01*
X113823184Y-51726600D01*
X113866606Y-51554998D01*
X113901921Y-51342050D01*
X113928964Y-51096585D01*
X113947569Y-50827434D01*
X113957569Y-50543426D01*
X113958800Y-50253390D01*
X113951094Y-49966155D01*
X113934286Y-49690552D01*
X113908210Y-49435410D01*
X113872700Y-49209559D01*
X113870694Y-49199300D01*
X113776891Y-48781591D01*
X113665290Y-48384375D01*
X113539243Y-48018806D01*
X113451646Y-47804562D01*
X113391930Y-47668396D01*
X113349246Y-47570962D01*
X113320208Y-47504475D01*
X113301427Y-47461151D01*
X113289518Y-47433207D01*
X113281093Y-47412857D01*
X113279360Y-47408600D01*
X113259272Y-47368135D01*
X113221635Y-47299020D01*
X113175679Y-47218100D01*
X113127101Y-47132463D01*
X113086378Y-47057647D01*
X113063449Y-47012188D01*
X113010728Y-46912762D01*
X112929888Y-46783253D01*
X112826724Y-46631398D01*
X112707033Y-46464932D01*
X112576612Y-46291594D01*
X112441256Y-46119120D01*
X112306763Y-45955246D01*
X112178928Y-45807710D01*
X112085245Y-45706533D01*
X111866037Y-45493955D01*
X111613036Y-45274134D01*
X111339095Y-45056852D01*
X111057069Y-44851897D01*
X110779811Y-44669052D01*
X110533500Y-44525260D01*
X110441290Y-44474734D01*
X110360637Y-44429219D01*
X110306957Y-44397440D01*
X110301911Y-44394218D01*
X110266466Y-44375379D01*
X110247850Y-44386613D01*
X110235702Y-44437040D01*
X110232736Y-44455131D01*
X110217749Y-44543171D01*
X110202464Y-44625318D01*
X110201745Y-44628925D01*
X110196664Y-44666069D01*
X110050776Y-44666069D01*
X110106358Y-44365769D01*
X110151461Y-44146964D01*
X110174483Y-44032200D01*
X110190930Y-43934078D01*
X110199061Y-43864179D01*
X110198217Y-43835814D01*
X110168497Y-43823248D01*
X110094167Y-43813574D01*
X109981333Y-43806779D01*
X109836101Y-43802849D01*
X109664577Y-43801769D01*
X109472867Y-43803527D01*
X109267079Y-43808109D01*
X109053317Y-43815500D01*
X108837689Y-43825687D01*
X108626300Y-43838656D01*
X108615800Y-43839387D01*
X108273994Y-43863431D01*
X107977256Y-43884503D01*
X107719971Y-43903063D01*
X107496522Y-43919569D01*
X107301293Y-43934479D01*
X107128668Y-43948253D01*
X106973033Y-43961348D01*
X106828769Y-43974225D01*
X106690263Y-43987341D01*
X106551897Y-44001155D01*
X106408056Y-44016127D01*
X106266300Y-44031290D01*
X105881933Y-44073282D01*
X105527943Y-44112969D01*
X105206636Y-44150057D01*
X104920319Y-44184255D01*
X104671300Y-44215269D01*
X104461885Y-44242807D01*
X104294381Y-44266576D01*
X104171095Y-44286284D01*
X104094335Y-44301636D01*
X104068661Y-44310132D01*
X104058674Y-44334787D01*
X104062118Y-44392069D01*
X104079705Y-44487483D01*
X104106807Y-44604734D01*
X104134757Y-44719456D01*
X104171438Y-44869882D01*
X104213520Y-45042371D01*
X104257676Y-45223278D01*
X104298218Y-45389300D01*
X104385397Y-45747212D01*
X104463347Y-46069290D01*
X104531516Y-46353209D01*
X104589349Y-46596640D01*
X104636293Y-46797260D01*
X104671795Y-46952740D01*
X104691000Y-47040300D01*
X104719547Y-47171802D01*
X104752629Y-47320322D01*
X104782720Y-47452130D01*
X104812032Y-47584254D01*
X104827584Y-47674179D01*
X104829181Y-47728661D01*
X104816632Y-47754458D01*
X104789742Y-47758324D01*
X104774050Y-47755014D01*
X104521517Y-47694539D01*
X104288980Y-47653789D01*
X104051411Y-47628959D01*
X103883284Y-47619589D01*
X103618564Y-47615646D01*
X103397217Y-47628058D01*
X103214115Y-47658069D01*
X103064130Y-47706923D01*
X102942134Y-47775864D01*
X102843000Y-47866135D01*
X102836605Y-47873495D01*
X102765864Y-47986141D01*
X102745398Y-48100576D01*
X102775308Y-48217461D01*
X102855697Y-48337459D01*
X102917756Y-48401565D01*
X103024458Y-48494375D01*
X103125688Y-48563081D01*
X103241537Y-48619752D01*
X103351582Y-48662148D01*
X103488639Y-48708562D01*
X103622414Y-48747072D01*
X103765156Y-48780417D01*
X103929114Y-48811335D01*
X104126537Y-48842564D01*
X104217950Y-48855803D01*
X104302565Y-48869013D01*
X104364486Y-48880918D01*
X104389042Y-48888375D01*
X104387324Y-48915373D01*
X104375474Y-48981650D01*
X104355469Y-49077148D01*
X104330101Y-49188359D01*
X104308686Y-49281585D01*
X104292253Y-49362904D01*
X104280147Y-49441180D01*
X104271709Y-49525275D01*
X104266283Y-49624054D01*
X104263212Y-49746378D01*
X104261838Y-49901112D01*
X104261505Y-50097118D01*
X104261504Y-50113700D01*
X104265185Y-50433721D01*
X104277167Y-50717907D01*
X104298837Y-50980752D01*
X104331582Y-51236748D01*
X104376789Y-51500387D01*
X104410098Y-51666484D01*
X104427169Y-51753652D01*
X104431906Y-51802307D01*
X104423807Y-51823338D01*
X104402648Y-51827639D01*
X104370915Y-51818317D01*
X104297190Y-51791907D01*
X104186569Y-51750374D01*
X104044152Y-51695686D01*
X103875035Y-51629809D01*
X103684317Y-51554709D01*
X103477096Y-51472352D01*
X103358000Y-51424701D01*
X103103655Y-51323470D01*
X102880790Y-51236361D01*
X102691986Y-51164324D01*
X102539824Y-51108311D01*
X102426886Y-51069273D01*
X102355753Y-51048163D01*
X102329354Y-51045477D01*
X102321925Y-51051484D01*
X102316910Y-51058040D01*
X102316600Y-51069516D01*
X102194251Y-51069516D01*
X102193159Y-51060265D01*
X102194358Y-51037137D01*
X102202867Y-50966936D01*
X102223394Y-50930520D01*
X102268412Y-50910877D01*
X102291200Y-50905073D01*
X102338538Y-50898257D01*
X102391760Y-50902733D01*
X102461866Y-50921135D01*
X102559858Y-50956094D01*
X102646800Y-50990174D01*
X102767978Y-51038490D01*
X102884329Y-51084733D01*
X102980271Y-51122717D01*
X103027800Y-51141414D01*
X103154870Y-51191441D01*
X103300409Y-51249262D01*
X103456921Y-51311842D01*
X103616909Y-51376149D01*
X103772876Y-51439149D01*
X103917326Y-51497806D01*
X104042762Y-51549088D01*
X104141688Y-51589961D01*
X104206607Y-51617391D01*
X104228587Y-51627379D01*
X104260807Y-51638180D01*
X104265159Y-51612294D01*
X104261829Y-51593863D01*
X104250727Y-51533173D01*
X104234001Y-51431538D01*
X104211224Y-51286255D01*
X104181967Y-51094621D01*
X104166191Y-50990000D01*
X104154738Y-50882166D01*
X104145633Y-50729846D01*
X104139104Y-50539311D01*
X104135376Y-50316828D01*
X104134570Y-50113700D01*
X104135288Y-49903759D01*
X104137174Y-49736518D01*
X104140714Y-49603879D01*
X104146392Y-49497745D01*
X104154692Y-49410020D01*
X104166100Y-49332608D01*
X104181100Y-49257412D01*
X104187542Y-49229029D01*
X104239679Y-49004759D01*
X104186189Y-48985059D01*
X104131194Y-48971144D01*
X104047965Y-48956749D01*
X103990168Y-48949171D01*
X103872721Y-48930487D01*
X103728640Y-48899705D01*
X103574281Y-48861103D01*
X103426001Y-48818961D01*
X103300155Y-48777559D01*
X103234528Y-48751468D01*
X103116260Y-48697895D01*
X103033134Y-48658198D01*
X102973680Y-48626051D01*
X102926426Y-48595128D01*
X102879905Y-48559106D01*
X102867944Y-48549303D01*
X102796159Y-48480206D01*
X102722369Y-48394240D01*
X102693246Y-48354772D01*
X102627028Y-48217963D01*
X102608590Y-48075454D01*
X102636497Y-47934135D01*
X102709312Y-47800893D01*
X102825601Y-47682619D01*
X102834799Y-47675485D01*
X102918724Y-47617428D01*
X103004297Y-47573226D01*
X103100528Y-47540811D01*
X103216427Y-47518111D01*
X103361003Y-47503056D01*
X103543265Y-47493578D01*
X103639572Y-47490591D01*
X103808131Y-47486940D01*
X103946713Y-47486662D01*
X104069780Y-47490714D01*
X104191793Y-47500057D01*
X104327214Y-47515650D01*
X104490504Y-47538451D01*
X104594118Y-47553912D01*
X104674537Y-47566060D01*
X104648719Y-47455580D01*
X104630281Y-47376000D01*
X104605593Y-47268561D01*
X104579636Y-47154947D01*
X104576666Y-47141900D01*
X104537035Y-46968668D01*
X104498798Y-46803787D01*
X104458294Y-46631670D01*
X104411863Y-46436728D01*
X104373864Y-46278300D01*
X104338571Y-46130636D01*
X104302246Y-45977276D01*
X104269319Y-45837000D01*
X104245585Y-45734548D01*
X104222235Y-45636817D01*
X104202003Y-45559691D01*
X104188148Y-45515317D01*
X104185185Y-45509519D01*
X104161245Y-45518680D01*
X104105245Y-45552345D01*
X104026047Y-45604913D01*
X103950003Y-45658199D01*
X103527324Y-45988430D01*
X103148104Y-46343356D01*
X102810133Y-46725419D01*
X102511205Y-47137061D01*
X102305973Y-47476207D01*
X102051706Y-47979000D01*
X101847955Y-48485043D01*
X101694493Y-48995171D01*
X101591091Y-49510222D01*
X101537524Y-50031031D01*
X101529200Y-50335985D01*
X100969288Y-50335985D01*
X100969215Y-50330772D01*
X100970708Y-50105754D01*
X100977035Y-49898940D01*
X100988317Y-49723411D01*
X100995402Y-49655138D01*
X101072292Y-49152411D01*
X101178112Y-48682339D01*
X101316603Y-48233459D01*
X101491507Y-47794312D01*
X101706563Y-47353436D01*
X101806007Y-47171652D01*
X101880609Y-47048092D01*
X101979255Y-46897706D01*
X102093447Y-46732673D01*
X102214684Y-46565173D01*
X102334467Y-46407385D01*
X102376240Y-46354500D01*
X102701767Y-45982828D01*
X103066609Y-45630206D01*
X103460175Y-45306192D01*
X103811401Y-45059100D01*
X103915910Y-44991063D01*
X103984207Y-44940930D01*
X104021504Y-44897194D01*
X104033010Y-44848348D01*
X104023937Y-44782889D01*
X103999493Y-44689308D01*
X103991763Y-44660809D01*
X103965844Y-44564552D01*
X103757172Y-44694955D01*
X103658678Y-44757495D01*
X103569895Y-44815626D01*
X103504344Y-44860420D01*
X103485000Y-44874643D01*
X103431498Y-44915469D01*
X103354657Y-44973285D01*
X103279126Y-45029614D01*
X102989633Y-45254808D01*
X102730578Y-45479955D01*
X102490355Y-45716585D01*
X102257361Y-45976230D01*
X102019992Y-46270421D01*
X101986351Y-46314234D01*
X101859206Y-46486484D01*
X101735548Y-46664595D01*
X101623792Y-46835877D01*
X101532351Y-46987642D01*
X101496480Y-47053000D01*
X101448550Y-47142602D01*
X101402395Y-47226009D01*
X101377623Y-47268900D01*
X101329014Y-47359185D01*
X101270924Y-47481456D01*
X101206531Y-47627489D01*
X101139012Y-47789062D01*
X101071545Y-47957952D01*
X101007308Y-48125937D01*
X100949478Y-48284793D01*
X100901233Y-48426299D01*
X100865750Y-48542232D01*
X100846208Y-48624370D01*
X100843400Y-48651265D01*
X100833173Y-48699154D01*
X100820806Y-48714965D01*
X100801947Y-48747585D01*
X100787029Y-48807637D01*
X100786424Y-48811714D01*
X100775328Y-48877850D01*
X100757282Y-48973594D01*
X100736072Y-49078898D01*
X100734799Y-49085000D01*
X100692096Y-49320877D01*
X100661196Y-49567925D01*
X100641219Y-49836815D01*
X100631283Y-50138217D01*
X100629787Y-50355000D01*
X100470419Y-50355000D01*
X100478870Y-49970559D01*
X100533663Y-49434698D01*
X100631193Y-48895004D01*
X100664807Y-48749452D01*
X100751262Y-48416221D01*
X100842193Y-48118184D01*
X100943192Y-47839746D01*
X101059849Y-47565313D01*
X101177418Y-47319700D01*
X101394674Y-46911539D01*
X101620084Y-46542872D01*
X101861858Y-46202393D01*
X102128206Y-45878796D01*
X102427339Y-45560774D01*
X102523942Y-45465500D01*
X102860329Y-45154938D01*
X103183382Y-44889235D01*
X103491767Y-44669427D01*
X103743022Y-44518546D01*
X103830431Y-44469546D01*
X103882134Y-44433790D01*
X103907491Y-44401079D01*
X103915864Y-44361218D01*
X103916630Y-44329435D01*
X103923048Y-44269912D01*
X103946744Y-44224937D01*
X103994749Y-44190819D01*
X104074092Y-44163870D01*
X104191804Y-44140400D01*
X104310500Y-44122723D01*
X104461561Y-44097292D01*
X104599875Y-44065487D01*
X104708602Y-44031328D01*
X104729600Y-44022710D01*
X104801446Y-43994289D01*
X105313379Y-43994289D01*
X105316891Y-44003691D01*
X105359077Y-44003779D01*
X105443913Y-43993096D01*
X105519113Y-43980522D01*
X105590771Y-43969993D01*
X105701264Y-43956474D01*
X105838810Y-43941285D01*
X105991626Y-43925744D01*
X106101200Y-43915378D01*
X106250552Y-43901488D01*
X106386065Y-43888464D01*
X106498045Y-43877270D01*
X106576799Y-43868870D01*
X106609200Y-43864837D01*
X106657208Y-43859376D01*
X106744548Y-43851289D01*
X106859883Y-43841560D01*
X106991872Y-43831174D01*
X107028300Y-43828429D01*
X107196053Y-43815814D01*
X107382320Y-43801649D01*
X107563225Y-43787759D01*
X107701400Y-43777024D01*
X107832187Y-43767049D01*
X107952604Y-43758351D01*
X108049159Y-43751876D01*
X108107800Y-43748588D01*
X108154384Y-43745664D01*
X108159779Y-43740565D01*
X108120638Y-43730862D01*
X108069700Y-43720929D01*
X108008104Y-43713916D01*
X107904713Y-43707407D01*
X107768535Y-43701738D01*
X107608573Y-43697247D01*
X107433833Y-43694269D01*
X107333100Y-43693389D01*
X107042952Y-43694241D01*
X106793044Y-43700855D01*
X106573060Y-43714003D01*
X106372686Y-43734455D01*
X106181607Y-43762984D01*
X106037700Y-43790245D01*
X105881816Y-43823993D01*
X105736775Y-43858640D01*
X105606554Y-43892726D01*
X105495128Y-43924793D01*
X105406473Y-43953381D01*
X105344565Y-43977033D01*
X105313379Y-43994289D01*
X104801446Y-43994289D01*
X104870979Y-43966783D01*
X105050419Y-43905560D01*
X105255934Y-43842462D01*
X105475537Y-43780911D01*
X105697243Y-43724327D01*
X105909066Y-43676132D01*
X106025000Y-43652933D01*
X106440189Y-43586071D01*
X106844732Y-43542539D01*
X107224188Y-43523789D01*
X107316741Y-43523151D01*
X107440175Y-43526218D01*
G37*
X107440175Y-43526218D02*
X107588405Y-43534211D01*
X107752944Y-43546224D01*
X107925302Y-43561350D01*
X108096992Y-43578680D01*
X108259525Y-43597309D01*
X108404414Y-43616328D01*
X108523168Y-43634832D01*
X108607302Y-43651912D01*
X108646284Y-43665242D01*
X108676975Y-43668917D01*
X108752032Y-43672017D01*
X108865028Y-43674451D01*
X109009530Y-43676127D01*
X109179110Y-43676955D01*
X109367337Y-43676844D01*
X109443509Y-43676530D01*
X110216109Y-43672599D01*
X110281909Y-43738400D01*
X110317742Y-43778444D01*
X110335119Y-43817430D01*
X110337591Y-43872368D01*
X110328710Y-43960271D01*
X110328530Y-43961750D01*
X110317952Y-44052965D01*
X110310098Y-44128683D01*
X110307125Y-44165390D01*
X110325418Y-44202605D01*
X110385618Y-44250745D01*
X110482700Y-44307981D01*
X110637296Y-44392309D01*
X110758860Y-44460021D01*
X110859260Y-44518258D01*
X110950366Y-44574162D01*
X111044045Y-44634876D01*
X111152168Y-44707541D01*
X111193900Y-44735947D01*
X111372645Y-44861264D01*
X111533716Y-44982547D01*
X111687043Y-45108319D01*
X111842553Y-45247106D01*
X112010175Y-45407431D01*
X112199838Y-45597818D01*
X112210788Y-45609006D01*
X112600508Y-46041349D01*
X112945432Y-46496034D01*
X113246158Y-46974270D01*
X113503283Y-47477265D01*
X113717407Y-48006226D01*
X113889125Y-48562362D01*
X114019035Y-49146880D01*
X114049682Y-49326300D01*
X114108363Y-49813281D01*
X114129263Y-50307254D01*
X114112302Y-50816149D01*
X114057406Y-51347894D01*
X114027970Y-51548800D01*
X114009097Y-51648461D01*
X113978961Y-51784327D01*
X113940749Y-51943899D01*
X113897647Y-52114681D01*
X113852844Y-52284175D01*
X113809524Y-52439883D01*
X113770876Y-52569308D01*
X113756148Y-52614780D01*
X113701716Y-52764697D01*
X113633308Y-52933955D01*
X113554476Y-53115420D01*
X113468774Y-53301958D01*
X113379753Y-53486435D01*
X113290966Y-53661719D01*
X113205966Y-53820674D01*
X113128304Y-53956169D01*
X113061534Y-54061068D01*
X113009207Y-54128238D01*
X112996476Y-54140283D01*
X112964765Y-54181381D01*
X112959200Y-54202273D01*
X112941894Y-54241232D01*
X112908399Y-54279300D01*
X112870517Y-54321393D01*
X112857600Y-54348550D01*
X112841903Y-54385149D01*
X112825850Y-54405277D01*
X112794559Y-54442273D01*
X112744419Y-54505605D01*
X112692500Y-54573381D01*
X112605425Y-54684134D01*
X112507394Y-54799086D01*
X112392054Y-54925119D01*
X112253052Y-55069120D01*
X112084035Y-55237973D01*
X112032100Y-55289041D01*
X111915486Y-55402006D01*
X111811712Y-55498675D01*
X111710673Y-55587565D01*
X111602263Y-55677193D01*
X111476376Y-55776074D01*
X111322907Y-55892724D01*
X111257400Y-55941876D01*
X111145143Y-56021539D01*
X111021553Y-56102290D01*
X110902967Y-56173910D01*
X110805721Y-56226183D01*
X110793850Y-56231786D01*
X110734715Y-56261203D01*
X110701342Y-56282122D01*
X110698600Y-56285819D01*
X110710722Y-56311068D01*
X110742512Y-56367465D01*
X110787108Y-56442837D01*
X110787434Y-56443377D01*
X110852154Y-56574210D01*
X110874234Y-56680734D01*
X110853537Y-56761820D01*
X110829949Y-56789963D01*
X110758414Y-56824837D01*
X110670746Y-56828716D01*
X110603005Y-56806503D01*
X110560881Y-56786855D01*
X110483959Y-56755018D01*
X110385149Y-56716245D01*
X110324637Y-56693297D01*
X110090374Y-56605587D01*
X109956337Y-56664763D01*
X109801541Y-56726844D01*
X109609596Y-56794123D01*
X109393367Y-56862891D01*
X109165718Y-56929441D01*
X108939513Y-56990063D01*
X108727617Y-57041051D01*
X108542895Y-57078697D01*
X108488800Y-57087761D01*
X108136602Y-57134207D01*
X107776090Y-57166135D01*
X107418985Y-57183185D01*
X107077009Y-57184994D01*
X106761883Y-57171200D01*
X106533000Y-57148160D01*
X106053986Y-57072408D01*
X105600448Y-56976329D01*
X105182180Y-56862096D01*
X105047100Y-56818620D01*
X104781734Y-56719701D01*
X104492906Y-56594653D01*
X104195609Y-56450540D01*
X103904835Y-56294425D01*
X103777100Y-56220348D01*
X103697796Y-56174644D01*
X103629085Y-56137594D01*
X103598256Y-56122726D01*
X103539194Y-56085521D01*
X103512596Y-56059946D01*
X103475509Y-56026589D01*
X103456780Y-56019200D01*
X103421525Y-56004589D01*
X103390040Y-55982356D01*
X103351890Y-55952431D01*
X103283512Y-55900156D01*
X103195413Y-55833526D01*
X103119803Y-55776759D01*
X103020130Y-55703060D01*
X102950134Y-55655440D01*
X102899177Y-55629064D01*
X102856622Y-55619101D01*
X102811831Y-55620716D01*
X102784608Y-55624455D01*
X102669173Y-55626405D01*
X102582963Y-55595994D01*
X102564645Y-55574700D01*
X103169525Y-55574700D01*
X103191238Y-55604031D01*
X103249638Y-55654580D01*
X103337746Y-55721612D01*
X103448581Y-55800391D01*
X103575160Y-55886182D01*
X103710503Y-55974248D01*
X103847629Y-56059854D01*
X103979557Y-56138265D01*
X104094850Y-56202381D01*
X104585669Y-56441519D01*
X105082527Y-56641091D01*
X105579044Y-56799009D01*
X106068839Y-56913187D01*
X106444100Y-56970771D01*
X106580016Y-56986390D01*
X106708539Y-57000759D01*
X106815503Y-57012317D01*
X106886739Y-57019507D01*
X106888600Y-57019678D01*
X106978378Y-57024080D01*
X107107081Y-57025421D01*
X107262946Y-57024047D01*
X107434213Y-57020304D01*
X107609119Y-57014539D01*
X107775904Y-57007098D01*
X107922806Y-56998329D01*
X108038064Y-56988577D01*
X108069700Y-56984873D01*
X108262678Y-56958245D01*
X108428000Y-56932623D01*
X108558761Y-56909179D01*
X108648055Y-56889085D01*
X108666600Y-56883601D01*
X108726106Y-56867045D01*
X108813338Y-56846012D01*
X108882500Y-56830796D01*
X108969692Y-56809394D01*
X109081608Y-56777426D01*
X109209586Y-56737879D01*
X109344964Y-56693738D01*
X109479079Y-56647990D01*
X109603270Y-56603619D01*
X109708873Y-56563611D01*
X109787227Y-56530953D01*
X109829670Y-56508629D01*
X109834750Y-56502581D01*
X109812878Y-56487199D01*
X109757249Y-56462691D01*
X109714100Y-56446548D01*
X109618089Y-56412235D01*
X109522295Y-56377425D01*
X109495022Y-56367364D01*
X109434930Y-56348540D01*
X109381910Y-56344719D01*
X109316464Y-56356775D01*
X109241022Y-56378760D01*
X109004155Y-56446511D01*
X108744154Y-56511567D01*
X108482914Y-56568859D01*
X108242332Y-56613319D01*
X108196700Y-56620517D01*
X107998787Y-56643508D01*
X107764087Y-56659186D01*
X107505294Y-56667635D01*
X107235104Y-56668936D01*
X106966209Y-56663173D01*
X106711304Y-56650427D01*
X106483084Y-56630782D01*
X106317100Y-56608307D01*
X105763951Y-56493750D01*
X105239652Y-56340097D01*
X104737631Y-56144668D01*
X104251319Y-55904782D01*
X103774145Y-55617762D01*
X103599972Y-55500041D01*
X103561099Y-55492852D01*
X103491391Y-55495801D01*
X103404853Y-55506459D01*
X103315495Y-55522397D01*
X103237323Y-55541184D01*
X103184346Y-55560391D01*
X103169525Y-55574700D01*
X102564645Y-55574700D01*
X102531758Y-55536471D01*
X102519800Y-55475557D01*
X102530732Y-55407321D01*
X102557172Y-55359452D01*
X102558489Y-55358311D01*
X102569114Y-55341661D01*
X102563731Y-55316542D01*
X102538109Y-55277329D01*
X102488016Y-55218398D01*
X102409220Y-55134124D01*
X102322062Y-55044051D01*
X102051104Y-54748335D01*
X101806040Y-54441575D01*
X101579968Y-54113781D01*
X101365986Y-53754962D01*
X101162007Y-53364900D01*
X100956313Y-52904744D01*
X100787839Y-52431315D01*
X100654472Y-51937077D01*
X100554098Y-51414491D01*
X100499557Y-51002700D01*
X100467330Y-50495566D01*
X100470419Y-50355000D01*
X100629787Y-50355000D01*
X100635396Y-50712163D01*
X100651591Y-51027067D01*
X100679101Y-51307287D01*
X100718655Y-51560396D01*
X100766711Y-51777400D01*
X100786827Y-51857332D01*
X100810974Y-51954714D01*
X100820446Y-51993300D01*
X100855129Y-52121221D01*
X100902810Y-52278532D01*
X100957645Y-52447449D01*
X101013791Y-52610184D01*
X101065403Y-52748952D01*
X101083318Y-52793400D01*
X101154031Y-52960462D01*
X101220270Y-53109527D01*
X101286774Y-53249671D01*
X101358279Y-53389973D01*
X101439525Y-53539509D01*
X101535249Y-53707355D01*
X101650191Y-53902590D01*
X101745100Y-54061208D01*
X101794500Y-54135829D01*
X101866354Y-54234276D01*
X101955497Y-54350376D01*
X102056762Y-54477955D01*
X102164984Y-54610841D01*
X102274999Y-54742861D01*
X102381639Y-54867843D01*
X102479740Y-54979612D01*
X102564135Y-55071996D01*
X102629661Y-55138823D01*
X102671150Y-55173919D01*
X102679326Y-55177619D01*
X102706287Y-55162198D01*
X102752648Y-55119166D01*
X102780926Y-55088725D01*
X102841402Y-55018819D01*
X102873954Y-54967803D01*
X102877096Y-54923407D01*
X102849344Y-54873364D01*
X102789212Y-54805407D01*
X102740472Y-54754570D01*
X102361682Y-54324883D01*
X102025905Y-53868902D01*
X101734057Y-53388536D01*
X101487058Y-52885697D01*
X101285825Y-52362294D01*
X101131276Y-51820239D01*
X101024330Y-51261442D01*
X101009179Y-51151305D01*
X100992538Y-50984262D01*
X100980251Y-50783105D01*
X100972436Y-50560916D01*
X100969288Y-50335985D01*
X101529200Y-50335985D01*
X101541450Y-50746766D01*
X101579891Y-51134195D01*
X101647053Y-51510857D01*
X101745469Y-51889334D01*
X101877670Y-52282210D01*
X101967202Y-52512701D01*
X102024513Y-52651410D01*
X102078521Y-52774669D01*
X102134700Y-52893466D01*
X102198526Y-53018792D01*
X102275477Y-53161637D01*
X102371026Y-53332991D01*
X102412327Y-53406061D01*
X102513679Y-53568575D01*
X102643918Y-53752383D01*
X102793642Y-53945395D01*
X102953446Y-54135525D01*
X103113927Y-54310683D01*
X103124843Y-54321968D01*
X103289601Y-54491636D01*
X103462286Y-54309268D01*
X103540583Y-54225733D01*
X103588250Y-54170507D01*
X103609841Y-54135259D01*
X103609913Y-54111658D01*
X103593022Y-54091373D01*
X103585171Y-54084555D01*
X103543079Y-54028034D01*
X103520444Y-53967570D01*
X103518589Y-53909453D01*
X103544212Y-53853465D01*
X103584158Y-53803361D01*
X103630937Y-53745227D01*
X103659098Y-53700862D01*
X103662800Y-53689207D01*
X103649041Y-53655511D01*
X103614136Y-53597983D01*
X103591796Y-53565560D01*
X103529452Y-53471714D01*
X103444646Y-53332843D01*
X103337627Y-53149361D01*
X103236445Y-52971200D01*
X103184896Y-52881816D01*
X103131710Y-52792890D01*
X103114712Y-52765400D01*
X103072756Y-52695525D01*
X103012495Y-52591168D01*
X102939692Y-52462584D01*
X102860109Y-52320029D01*
X102779509Y-52173758D01*
X102703655Y-52034025D01*
X102702243Y-52031400D01*
X102651114Y-51939000D01*
X102602397Y-51855465D01*
X102566640Y-51798880D01*
X102566639Y-51798878D01*
X102534296Y-51748746D01*
X102519851Y-51719281D01*
X102519800Y-51718603D01*
X102507790Y-51689890D01*
X102475999Y-51628844D01*
X102430785Y-51546690D01*
X102378506Y-51454654D01*
X102325519Y-51363962D01*
X102278183Y-51285840D01*
X102248927Y-51240337D01*
X102204077Y-51152825D01*
X102194251Y-51069516D01*
X102316600Y-51069516D01*
X102323289Y-51090282D01*
X102339271Y-51124710D01*
X102366838Y-51177171D01*
X102408285Y-51252034D01*
X102465903Y-51353673D01*
X102541987Y-51486456D01*
X102638830Y-51654756D01*
X102753346Y-51853600D01*
X102863158Y-52044475D01*
X102981805Y-52250972D01*
X103101705Y-52459879D01*
X103215277Y-52657980D01*
X103314938Y-52832062D01*
X103358172Y-52907700D01*
X103441670Y-53052883D01*
X103521374Y-53189636D01*
X103592173Y-53309329D01*
X103648958Y-53403334D01*
X103686617Y-53463023D01*
X103690267Y-53468435D01*
X103751562Y-53567203D01*
X103778222Y-53642217D01*
X103770741Y-53706420D01*
X103729611Y-53772758D01*
X103703040Y-53803686D01*
X103639933Y-53882644D01*
X103617005Y-53941827D01*
X103633606Y-53991685D01*
X103688200Y-54042016D01*
X103738273Y-54088999D01*
X103763292Y-54132021D01*
X103763958Y-54138026D01*
X103747863Y-54173711D01*
X103705113Y-54236102D01*
X103643383Y-54314464D01*
X103608479Y-54355500D01*
X103546276Y-54426798D01*
X103457810Y-54528147D01*
X103350246Y-54651344D01*
X103230744Y-54788184D01*
X103106470Y-54930466D01*
X103047270Y-54998233D01*
X102935334Y-55127687D01*
X102836485Y-55244553D01*
X102755092Y-55343456D01*
X102695519Y-55419024D01*
X102662132Y-55465882D01*
X102656790Y-55478856D01*
X102691169Y-55483225D01*
X102772719Y-55476526D01*
X102899107Y-55459110D01*
X103068003Y-55431326D01*
X103277076Y-55393521D01*
X103458514Y-55358867D01*
X103592868Y-55333015D01*
X103649054Y-55322354D01*
X104386700Y-55322354D01*
X104678800Y-55465690D01*
X105158180Y-55681352D01*
X105625055Y-55850975D01*
X106084797Y-55976070D01*
X106542780Y-56058147D01*
X106914000Y-56094003D01*
X107035274Y-56100896D01*
X107137983Y-56105147D01*
X107233837Y-56106594D01*
X107334544Y-56105073D01*
X107451812Y-56100425D01*
X107597351Y-56092485D01*
X107764900Y-56082221D01*
X107885995Y-56072172D01*
X108016156Y-56057321D01*
X108145668Y-56039285D01*
X108264816Y-56019681D01*
X108363887Y-56000126D01*
X108433165Y-55982236D01*
X108462937Y-55967627D01*
X108463400Y-55965984D01*
X108442248Y-55944514D01*
X108406250Y-55929385D01*
X108351570Y-55910326D01*
X108270970Y-55879194D01*
X108209400Y-55854115D01*
X108100201Y-55809260D01*
X107981581Y-55761494D01*
X107930000Y-55741081D01*
X107844553Y-55707307D01*
X107772004Y-55678194D01*
X107739500Y-55664828D01*
X107681660Y-55640389D01*
X107607984Y-55609237D01*
X107599800Y-55605775D01*
X107530678Y-55577333D01*
X107434895Y-55538904D01*
X107333178Y-55498802D01*
X107333100Y-55498772D01*
X107228647Y-55457363D01*
X107127560Y-55416235D01*
X107053700Y-55385136D01*
X106972489Y-55352400D01*
X106853416Y-55307856D01*
X106706985Y-55255232D01*
X106543700Y-55198252D01*
X106374066Y-55140643D01*
X106233629Y-55094256D01*
X106133173Y-55064634D01*
X106047477Y-55044930D01*
X105990527Y-55038160D01*
X105979629Y-55039510D01*
X105938755Y-55048654D01*
X105858939Y-55063593D01*
X105751432Y-55082310D01*
X105627488Y-55102787D01*
X105618600Y-55104216D01*
X105483433Y-55126391D01*
X105353679Y-55148526D01*
X105244546Y-55167975D01*
X105174100Y-55181499D01*
X105076838Y-55200343D01*
X104960083Y-55221149D01*
X104882000Y-55234109D01*
X104788172Y-55249293D01*
X104708787Y-55262571D01*
X104666100Y-55270137D01*
X104610000Y-55280748D01*
X104530338Y-55295656D01*
X104501000Y-55301117D01*
X104386700Y-55322354D01*
X103649054Y-55322354D01*
X103764280Y-55300491D01*
X103959831Y-55263717D01*
X104166600Y-55225121D01*
X104371668Y-55187126D01*
X104462900Y-55170330D01*
X104797986Y-55108592D01*
X105087972Y-55054751D01*
X105337782Y-55007879D01*
X105552342Y-54967051D01*
X105736581Y-54931342D01*
X105782123Y-54922387D01*
X105862581Y-54905188D01*
X105899373Y-54892238D01*
X105898987Y-54879685D01*
X105875451Y-54866977D01*
X105824091Y-54854691D01*
X105797649Y-54874178D01*
X105758522Y-54894916D01*
X105726188Y-54890800D01*
X105688705Y-54887773D01*
X105618919Y-54893081D01*
X105514210Y-54907169D01*
X105371964Y-54930481D01*
X105189561Y-54963462D01*
X104964386Y-55006554D01*
X104693821Y-55060204D01*
X104513700Y-55096610D01*
X104375850Y-55123822D01*
X104237703Y-55149714D01*
X104117016Y-55171030D01*
X104043800Y-55182772D01*
X103953535Y-55197065D01*
X103881318Y-55210415D01*
X103845567Y-55219122D01*
X103804736Y-55229259D01*
X103730192Y-55243952D01*
X103642367Y-55259293D01*
X103511975Y-55280857D01*
X103414419Y-55297324D01*
X103332401Y-55311783D01*
X103248621Y-55327326D01*
X103145781Y-55347042D01*
X103081536Y-55359484D01*
X102975309Y-55377676D01*
X102887815Y-55388169D01*
X102830899Y-55389785D01*
X102816259Y-55385910D01*
X102821995Y-55357690D01*
X102859366Y-55300654D01*
X102923279Y-55221078D01*
X103008640Y-55125240D01*
X103110355Y-55019418D01*
X103127709Y-55002077D01*
X103190756Y-54935911D01*
X103268841Y-54849106D01*
X103344785Y-54760777D01*
X103505720Y-54570983D01*
X103637012Y-54422105D01*
X103738913Y-54313984D01*
X103811673Y-54246461D01*
X103855544Y-54219378D01*
X103870776Y-54232577D01*
X103857620Y-54285899D01*
X103816327Y-54379186D01*
X103751699Y-54503879D01*
X103691359Y-54619209D01*
X103655422Y-54700440D01*
X103641787Y-54756811D01*
X103648354Y-54797563D01*
X103673024Y-54831935D01*
X103676359Y-54835330D01*
X103720459Y-54860598D01*
X103779572Y-54849853D01*
X103781615Y-54849083D01*
X103869450Y-54801877D01*
X103985989Y-54716931D01*
X104128557Y-54596452D01*
X104294479Y-54442651D01*
X104405264Y-54334164D01*
X104494917Y-54250769D01*
X104558034Y-54208249D01*
X104598273Y-54206628D01*
X104619291Y-54245925D01*
X104624744Y-54326165D01*
X104624594Y-54335485D01*
X104626065Y-54460998D01*
X104634454Y-54589394D01*
X104648225Y-54708785D01*
X104665836Y-54807283D01*
X104685750Y-54873002D01*
X104696419Y-54890190D01*
X104754618Y-54924921D01*
X104809224Y-54909077D01*
X104860276Y-54842627D01*
X104907807Y-54725537D01*
X104919908Y-54685700D01*
X104944440Y-54592098D01*
X104962425Y-54508091D01*
X104968727Y-54464160D01*
X104981087Y-54399596D01*
X105003011Y-54368505D01*
X105023184Y-54373917D01*
X105033227Y-54405261D01*
X105043803Y-54470542D01*
X105049654Y-54524200D01*
X105056233Y-54591768D01*
X105066540Y-54642832D01*
X105087304Y-54681224D01*
X105125257Y-54710772D01*
X105187127Y-54735308D01*
X105279647Y-54758661D01*
X105409545Y-54784662D01*
X105555100Y-54811839D01*
X105656885Y-54829760D01*
X105720623Y-54837011D01*
X105757967Y-54833427D01*
X105780572Y-54818842D01*
X105789133Y-54808521D01*
X105818571Y-54763337D01*
X105827722Y-54744132D01*
X105852260Y-54744626D01*
X105912835Y-54762323D01*
X105999351Y-54793157D01*
X106101712Y-54833062D01*
X106209821Y-54877972D01*
X106313582Y-54923821D01*
X106402898Y-54966544D01*
X106466660Y-55001445D01*
X106509179Y-55022512D01*
X106592885Y-55059449D01*
X106711623Y-55109704D01*
X106859237Y-55170725D01*
X107029571Y-55239960D01*
X107216470Y-55314860D01*
X107359500Y-55371517D01*
X107749269Y-55525159D01*
X108095311Y-55661585D01*
X108401166Y-55782194D01*
X108670372Y-55888386D01*
X108906468Y-55981563D01*
X109112993Y-56063123D01*
X109293486Y-56134468D01*
X109451486Y-56196997D01*
X109590533Y-56252111D01*
X109714164Y-56301210D01*
X109825919Y-56345695D01*
X109929338Y-56386964D01*
X110027958Y-56426420D01*
X110125319Y-56465461D01*
X110190229Y-56491530D01*
X110342360Y-56551800D01*
X110478707Y-56604181D01*
X110592247Y-56646110D01*
X110675957Y-56675021D01*
X110722816Y-56688352D01*
X110729979Y-56688604D01*
X110749344Y-56656413D01*
X110749400Y-56654716D01*
X110737031Y-56629197D01*
X110701477Y-56563852D01*
X110645067Y-56462781D01*
X110570132Y-56330087D01*
X110479000Y-56169871D01*
X110374001Y-55986234D01*
X110257464Y-55783278D01*
X110131719Y-55565103D01*
X110063600Y-55447231D01*
X109933743Y-55221829D01*
X109811921Y-55008617D01*
X109700480Y-54811818D01*
X109601760Y-54635655D01*
X109518107Y-54484351D01*
X109451864Y-54362127D01*
X109405373Y-54273207D01*
X109380978Y-54221813D01*
X109377800Y-54211488D01*
X109389077Y-54166434D01*
X109394112Y-54154786D01*
X109479400Y-54154786D01*
X109491876Y-54181368D01*
X109525602Y-54241422D01*
X109575017Y-54325270D01*
X109619100Y-54398059D01*
X109676571Y-54492944D01*
X109722568Y-54570775D01*
X109751553Y-54622068D01*
X109758800Y-54637447D01*
X109771043Y-54663819D01*
X109801880Y-54717134D01*
X109817999Y-54743354D01*
X109861101Y-54815221D01*
X109915950Y-54910544D01*
X109967641Y-55003200D01*
X110037268Y-55130076D01*
X110087102Y-55218602D01*
X110121939Y-55274876D01*
X110146577Y-55304999D01*
X110165812Y-55315072D01*
X110184443Y-55311194D01*
X110202555Y-55301925D01*
X110249288Y-55275085D01*
X110323250Y-55230391D01*
X110408824Y-55177285D01*
X110412850Y-55174754D01*
X110489620Y-55124331D01*
X110545972Y-55083301D01*
X110571149Y-55059572D01*
X110571574Y-55058073D01*
X110551506Y-55037018D01*
X110499821Y-55000462D01*
X110450924Y-54970190D01*
X110277239Y-54860983D01*
X110117545Y-54744513D01*
X109958288Y-54609972D01*
X109785913Y-54446552D01*
X109752450Y-54413237D01*
X109658327Y-54319887D01*
X109578234Y-54242219D01*
X109518275Y-54186011D01*
X109484553Y-54157040D01*
X109479400Y-54154786D01*
X109394112Y-54154786D01*
X109417318Y-54101114D01*
X109454140Y-54031060D01*
X109491158Y-53971806D01*
X109519988Y-53938883D01*
X109526263Y-53936445D01*
X109548080Y-53956115D01*
X109585905Y-54006458D01*
X109613256Y-54047858D01*
X109684985Y-54142493D01*
X109790464Y-54256902D01*
X109920798Y-54383255D01*
X110067094Y-54513720D01*
X110220457Y-54640466D01*
X110371992Y-54755661D01*
X110512806Y-54851473D01*
X110555707Y-54877681D01*
X110624306Y-54908022D01*
X110659498Y-54903063D01*
X110658394Y-54868118D01*
X110618102Y-54808500D01*
X110602608Y-54791455D01*
X110552870Y-54731892D01*
X110486136Y-54642539D01*
X110411806Y-54537007D01*
X110339281Y-54428910D01*
X110277963Y-54331858D01*
X110243009Y-54270774D01*
X110224274Y-54217071D01*
X110234598Y-54192991D01*
X110270162Y-54206595D01*
X110272536Y-54208409D01*
X110305714Y-54234664D01*
X110367938Y-54284201D01*
X110448590Y-54348562D01*
X110495400Y-54385969D01*
X110584695Y-54455822D01*
X110664824Y-54515754D01*
X110723717Y-54556858D01*
X110741380Y-54567540D01*
X110811110Y-54595447D01*
X110845789Y-54588725D01*
X110845248Y-54549678D01*
X110809320Y-54480606D01*
X110753404Y-54403267D01*
X110548468Y-54104914D01*
X110386239Y-53786619D01*
X110269491Y-53454745D01*
X110205189Y-53146809D01*
X110199921Y-53112468D01*
X110197149Y-53083383D01*
X110200105Y-53054951D01*
X110212019Y-53022567D01*
X110236123Y-52981626D01*
X110275648Y-52927524D01*
X110333825Y-52855657D01*
X110413884Y-52761421D01*
X110519059Y-52640211D01*
X110652578Y-52487422D01*
X110730350Y-52398466D01*
X110834656Y-52278101D01*
X110926538Y-52170163D01*
X111001049Y-52080621D01*
X111053243Y-52015443D01*
X111078175Y-51980597D01*
X111079600Y-51976997D01*
X111076526Y-51965219D01*
X111062660Y-51958810D01*
X111031029Y-51958460D01*
X110974664Y-51964859D01*
X110886594Y-51978696D01*
X110759849Y-52000661D01*
X110659189Y-52018592D01*
X110530645Y-52041375D01*
X110420205Y-52060541D01*
X110337387Y-52074470D01*
X110291715Y-52081538D01*
X110286275Y-52082092D01*
X110280122Y-52058215D01*
X110275633Y-51992403D01*
X110273107Y-51893501D01*
X110272846Y-51770357D01*
X110273575Y-51707550D01*
X110275427Y-51560419D01*
X110274734Y-51453269D01*
X110270223Y-51375295D01*
X110260621Y-51315693D01*
X110244654Y-51263658D01*
X110221050Y-51208388D01*
X110212606Y-51190237D01*
X110158546Y-51085435D01*
X110092826Y-50972140D01*
X110054147Y-50911609D01*
X109962583Y-50775644D01*
X110047654Y-50685972D01*
X110214343Y-50492777D01*
X110347967Y-50301083D01*
X110445022Y-50117023D01*
X110502005Y-49946730D01*
X110514341Y-49869037D01*
X110527570Y-49723141D01*
X110263020Y-49461220D01*
X110104897Y-49295897D01*
X109982000Y-49148444D01*
X109900687Y-49027850D01*
X109839376Y-48929377D01*
X109791302Y-48873828D01*
X109752342Y-48856400D01*
X109717908Y-48861505D01*
X109725956Y-48885344D01*
X109736639Y-48898904D01*
X109756500Y-48927936D01*
X109739529Y-48930789D01*
X109708000Y-48921930D01*
X109633264Y-48903613D01*
X109568300Y-48892272D01*
X109539397Y-48892239D01*
X109551488Y-48906441D01*
X109607028Y-48936862D01*
X109648845Y-48957328D01*
X109747555Y-49008551D01*
X109808459Y-49048595D01*
X109828507Y-49074916D01*
X109804647Y-49084969D01*
X109801915Y-49084999D01*
X109764169Y-49074706D01*
X109692994Y-49047105D01*
X109600639Y-49007119D01*
X109549023Y-48983399D01*
X109447172Y-48938668D01*
X109356543Y-48904223D01*
X109290942Y-48885086D01*
X109272457Y-48882812D01*
X109240022Y-48886155D01*
X109246434Y-48898235D01*
X109295351Y-48924698D01*
X109301600Y-48927798D01*
X109371952Y-48961113D01*
X109467123Y-49004319D01*
X109555600Y-49043302D01*
X109684633Y-49099486D01*
X109775043Y-49139904D01*
X109834944Y-49168690D01*
X109872453Y-49189979D01*
X109895687Y-49207905D01*
X109910810Y-49224231D01*
X109926649Y-49247383D01*
X109923115Y-49257870D01*
X109895757Y-49254144D01*
X109840127Y-49234659D01*
X109751776Y-49197868D01*
X109626255Y-49142225D01*
X109468321Y-49070397D01*
X109331253Y-49009190D01*
X109207877Y-48956983D01*
X109106428Y-48917033D01*
X109035142Y-48892595D01*
X109003388Y-48886589D01*
X109011435Y-48898812D01*
X109059972Y-48927871D01*
X109142796Y-48970588D01*
X109253703Y-49023789D01*
X109386491Y-49084298D01*
X109409581Y-49094546D01*
X109548946Y-49157747D01*
X109670806Y-49216012D01*
X109768041Y-49265686D01*
X109833529Y-49303118D01*
X109860149Y-49324653D01*
X109860400Y-49325831D01*
X109851971Y-49343488D01*
X109823349Y-49358057D01*
X109769535Y-49370121D01*
X109685526Y-49380265D01*
X109566320Y-49389074D01*
X109406918Y-49397132D01*
X109202317Y-49405024D01*
X109174600Y-49405984D01*
X109015441Y-49412709D01*
X108868801Y-49421260D01*
X108744159Y-49430901D01*
X108650995Y-49440893D01*
X108598790Y-49450501D01*
X108597775Y-49450837D01*
X108583921Y-49459276D01*
X108599603Y-49465959D01*
X108648434Y-49471047D01*
X108734025Y-49474704D01*
X108859988Y-49477089D01*
X109029934Y-49478365D01*
X109220075Y-49478700D01*
X109437514Y-49479137D01*
X109611114Y-49480693D01*
X109747826Y-49483727D01*
X109854606Y-49488603D01*
X109938407Y-49495683D01*
X110006183Y-49505329D01*
X110064888Y-49517904D01*
X110087563Y-49523883D01*
X110231864Y-49576048D01*
X110343180Y-49641876D01*
X110414673Y-49716648D01*
X110435673Y-49764092D01*
X110437920Y-49857364D01*
X110409199Y-49976987D01*
X110354147Y-50113077D01*
X110277401Y-50255749D01*
X110183595Y-50395118D01*
X110083597Y-50514719D01*
X109974700Y-50630645D01*
X109377800Y-50659569D01*
X109201477Y-50668817D01*
X109035692Y-50678823D01*
X108889357Y-50688947D01*
X108771380Y-50698549D01*
X108690671Y-50706989D01*
X108666600Y-50710665D01*
X108591687Y-50724284D01*
X108483882Y-50742742D01*
X108360495Y-50763110D01*
X108288747Y-50774622D01*
X108151728Y-50799664D01*
X108008437Y-50831257D01*
X107882031Y-50864110D01*
X107837112Y-50877803D01*
X107739718Y-50907424D01*
X107655423Y-50929203D01*
X107600450Y-50939015D01*
X107595750Y-50939200D01*
X107537844Y-50927244D01*
X107441296Y-50893168D01*
X107311795Y-50839657D01*
X107155030Y-50769396D01*
X106976692Y-50685070D01*
X106782470Y-50589366D01*
X106578053Y-50484968D01*
X106369130Y-50374562D01*
X106177400Y-50269749D01*
X106102711Y-50230901D01*
X106068761Y-50220293D01*
X106074319Y-50237541D01*
X106074465Y-50237722D01*
X106144953Y-50305085D01*
X106257876Y-50387114D01*
X106408026Y-50480850D01*
X106590192Y-50583336D01*
X106799164Y-50691615D01*
X107029734Y-50802729D01*
X107226662Y-50891860D01*
X107375306Y-50965378D01*
X107512667Y-51052828D01*
X107658187Y-51166792D01*
X107679715Y-51185063D01*
X107768532Y-51259714D01*
X107842256Y-51319203D01*
X107893093Y-51357411D01*
X107913187Y-51368325D01*
X107919913Y-51340186D01*
X107931091Y-51274465D01*
X107944590Y-51183952D01*
X107948125Y-51158612D01*
X107965329Y-51059571D01*
X107986018Y-50978123D01*
X108006242Y-50929215D01*
X108009944Y-50924592D01*
X108051348Y-50904645D01*
X108131061Y-50882442D01*
X108236934Y-50859880D01*
X108356817Y-50838860D01*
X108478561Y-50821278D01*
X108590015Y-50809035D01*
X108679030Y-50804027D01*
X108733456Y-50808155D01*
X108739724Y-50810554D01*
X108784544Y-50844332D01*
X108847621Y-50903969D01*
X108920003Y-50979431D01*
X108992742Y-51060683D01*
X109056886Y-51137693D01*
X109103485Y-51200426D01*
X109123590Y-51238850D01*
X109123800Y-51241120D01*
X109108174Y-51271758D01*
X109066204Y-51331426D01*
X109005250Y-51411143D01*
X108932670Y-51501930D01*
X108855826Y-51594806D01*
X108782077Y-51680792D01*
X108718782Y-51750909D01*
X108673302Y-51796176D01*
X108660969Y-51805820D01*
X108626054Y-51811491D01*
X108553302Y-51813470D01*
X108455555Y-51811585D01*
X108403787Y-51809271D01*
X108348491Y-51805898D01*
X108294443Y-51801151D01*
X108237223Y-51794002D01*
X108172407Y-51783425D01*
X108095573Y-51768393D01*
X108002300Y-51747878D01*
X107888165Y-51720853D01*
X107748746Y-51686291D01*
X107579621Y-51643164D01*
X107376366Y-51590446D01*
X107134561Y-51527109D01*
X106849783Y-51452126D01*
X106728282Y-51420076D01*
X106123465Y-51260484D01*
X105893576Y-51004983D01*
X105804314Y-50907307D01*
X105723016Y-50821141D01*
X105657727Y-50754820D01*
X105616493Y-50716680D01*
X105612073Y-50713329D01*
X105594394Y-50708600D01*
X105604070Y-50736019D01*
X105636080Y-50788587D01*
X105685405Y-50859305D01*
X105747022Y-50941175D01*
X105815910Y-51027198D01*
X105887050Y-51110376D01*
X105932577Y-51160083D01*
X106088583Y-51324749D01*
X107015641Y-51573495D01*
X107228807Y-51630702D01*
X107430334Y-51684804D01*
X107614035Y-51734140D01*
X107773728Y-51777048D01*
X107903227Y-51811867D01*
X107996349Y-51836934D01*
X108046907Y-51850588D01*
X108048244Y-51850952D01*
X108153789Y-51879662D01*
X108140146Y-52228581D01*
X108138159Y-52471570D01*
X108154859Y-52686744D01*
X108193441Y-52891064D01*
X108257101Y-53101486D01*
X108348256Y-53333150D01*
X108350121Y-53368733D01*
X108312523Y-53376195D01*
X108234275Y-53355568D01*
X108186580Y-53337568D01*
X108117029Y-53301480D01*
X108080158Y-53253842D01*
X108064602Y-53204218D01*
X108042081Y-53139305D01*
X108006591Y-53109855D01*
X107973635Y-53102862D01*
X107919568Y-53106573D01*
X107904600Y-53133113D01*
X107891641Y-53175512D01*
X107848934Y-53188471D01*
X107770727Y-53173022D01*
X107739089Y-53162869D01*
X107677748Y-53140540D01*
X107577806Y-53102310D01*
X107444048Y-53050113D01*
X107281259Y-52985889D01*
X107094227Y-52911572D01*
X106887735Y-52829101D01*
X106666570Y-52740412D01*
X106435517Y-52647443D01*
X106199362Y-52552130D01*
X105962891Y-52456409D01*
X105730889Y-52362219D01*
X105508141Y-52271496D01*
X105299434Y-52186177D01*
X105109553Y-52108198D01*
X104943284Y-52039498D01*
X104805412Y-51982012D01*
X104700723Y-51937678D01*
X104634002Y-51908432D01*
X104610239Y-51896490D01*
X104589140Y-51853190D01*
X104565143Y-51766293D01*
X104539229Y-51642852D01*
X104512382Y-51489924D01*
X104485585Y-51314562D01*
X104459821Y-51123820D01*
X104436072Y-50924753D01*
X104415321Y-50724416D01*
X104398552Y-50529863D01*
X104386746Y-50348147D01*
X104383078Y-50266100D01*
X104381421Y-49895945D01*
X104406376Y-49560769D01*
X104459731Y-49251226D01*
X104540002Y-48969454D01*
X106159514Y-48969454D01*
X106171543Y-49113343D01*
X106175044Y-49127051D01*
X106235742Y-49265917D01*
X106331305Y-49371328D01*
X106457286Y-49441999D01*
X106609236Y-49476646D01*
X106782704Y-49473984D01*
X106973243Y-49432730D01*
X107089080Y-49390921D01*
X107193519Y-49349675D01*
X107293731Y-49313150D01*
X107369432Y-49288707D01*
X107374425Y-49287331D01*
X107436849Y-49266306D01*
X107465341Y-49238735D01*
X107462635Y-49193006D01*
X107431462Y-49117507D01*
X107420005Y-49093580D01*
X107353128Y-48992110D01*
X107252594Y-48884216D01*
X107131899Y-48782378D01*
X107004536Y-48699080D01*
X106978645Y-48685333D01*
X106828662Y-48629486D01*
X106670081Y-48605139D01*
X106518709Y-48613262D01*
X106400194Y-48649862D01*
X106275730Y-48733709D01*
X106194873Y-48841574D01*
X106159514Y-48969454D01*
X104540002Y-48969454D01*
X104543273Y-48957973D01*
X104658791Y-48671666D01*
X104707469Y-48570650D01*
X104831663Y-48323000D01*
X104469481Y-48318471D01*
X104335875Y-48316841D01*
X104218134Y-48315481D01*
X104126751Y-48314505D01*
X104072219Y-48314030D01*
X104064112Y-48314002D01*
X104026083Y-48309313D01*
X104031762Y-48296818D01*
X104075141Y-48279129D01*
X104150209Y-48258861D01*
X104228040Y-48242729D01*
X104322814Y-48230186D01*
X104455981Y-48220808D01*
X104630641Y-48214484D01*
X104849894Y-48211100D01*
X105110600Y-48210525D01*
X105418479Y-48213861D01*
X105689247Y-48223087D01*
X105936395Y-48239623D01*
X106173416Y-48264890D01*
X106413802Y-48300309D01*
X106671043Y-48347301D01*
X106939400Y-48403105D01*
X107366040Y-48488791D01*
X107766241Y-48553877D01*
X108158885Y-48600707D01*
X108562853Y-48631629D01*
X108895200Y-48646128D01*
X109153829Y-48649752D01*
X109428822Y-48645584D01*
X109710876Y-48634340D01*
X109990691Y-48616739D01*
X110258964Y-48593495D01*
X110506395Y-48565327D01*
X110723683Y-48532951D01*
X110901525Y-48497084D01*
X110933495Y-48489042D01*
X111128415Y-48430446D01*
X111301352Y-48364005D01*
X111446814Y-48292838D01*
X111559306Y-48220067D01*
X111633334Y-48148811D01*
X111663405Y-48082190D01*
X111663800Y-48074299D01*
X111640719Y-48000258D01*
X111578675Y-47926243D01*
X111488465Y-47862506D01*
X111401543Y-47825260D01*
X111287043Y-47799945D01*
X111134946Y-47781763D01*
X110957988Y-47770990D01*
X110768908Y-47767908D01*
X110580444Y-47772795D01*
X110405334Y-47785931D01*
X110292768Y-47800969D01*
X110166753Y-47823260D01*
X110043609Y-47847121D01*
X109942221Y-47868810D01*
X109905217Y-47877766D01*
X109825780Y-47897157D01*
X109770545Y-47902747D01*
X109735510Y-47887933D01*
X109716670Y-47846114D01*
X109710024Y-47770688D01*
X109711567Y-47655055D01*
X109714229Y-47578773D01*
X109857129Y-47578773D01*
X110131814Y-47527987D01*
X110308565Y-47502548D01*
X110510052Y-47485444D01*
X110722859Y-47476796D01*
X110933568Y-47476726D01*
X111128764Y-47485356D01*
X111295029Y-47502807D01*
X111371700Y-47516745D01*
X111569983Y-47577372D01*
X111730312Y-47660768D01*
X111850288Y-47764192D01*
X111927512Y-47884900D01*
X111959584Y-48020152D01*
X111944105Y-48167206D01*
X111943350Y-48170041D01*
X111892313Y-48288874D01*
X111804048Y-48397371D01*
X111674797Y-48498719D01*
X111500801Y-48596104D01*
X111371700Y-48654664D01*
X111240126Y-48701019D01*
X111066762Y-48747515D01*
X110860577Y-48792290D01*
X110630541Y-48833479D01*
X110385622Y-48869219D01*
X110271601Y-48883183D01*
X110151978Y-48898234D01*
X110075558Y-48911703D01*
X110034875Y-48925636D01*
X110022462Y-48942077D01*
X110024151Y-48950943D01*
X110067999Y-49032256D01*
X110141499Y-49134057D01*
X110234935Y-49244728D01*
X110338591Y-49352649D01*
X110428054Y-49434025D01*
X110526363Y-49520867D01*
X110590287Y-49592145D01*
X110627031Y-49661467D01*
X110643800Y-49742438D01*
X110647799Y-49848666D01*
X110647800Y-49849019D01*
X110629506Y-49978418D01*
X110578059Y-50131018D01*
X110498610Y-50296650D01*
X110396308Y-50465149D01*
X110276304Y-50626344D01*
X110222413Y-50688813D01*
X110134448Y-50786180D01*
X110224077Y-50921210D01*
X110315857Y-51080366D01*
X110375731Y-51239253D01*
X110407559Y-51412730D01*
X110415196Y-51615657D01*
X110414367Y-51654153D01*
X110411794Y-51765600D01*
X110410876Y-51855446D01*
X110411641Y-51913383D01*
X110413575Y-51929851D01*
X110439684Y-51925084D01*
X110505967Y-51912093D01*
X110602822Y-51892783D01*
X110720641Y-51869056D01*
X110738429Y-51865457D01*
X110869996Y-51839252D01*
X110961888Y-51822965D01*
X111024148Y-51816086D01*
X111066819Y-51818108D01*
X111099944Y-51828520D01*
X111131404Y-51845533D01*
X111188197Y-51889513D01*
X111210967Y-51943974D01*
X111210401Y-52015298D01*
X111204936Y-52037854D01*
X111189921Y-52067772D01*
X111161981Y-52109188D01*
X111117741Y-52166237D01*
X111053829Y-52243055D01*
X110966868Y-52343778D01*
X110853484Y-52472542D01*
X110710303Y-52633482D01*
X110660450Y-52689310D01*
X110547924Y-52815935D01*
X110465299Y-52912086D01*
X110408343Y-52984911D01*
X110372823Y-53041559D01*
X110354508Y-53089179D01*
X110349166Y-53134921D01*
X110352563Y-53185935D01*
X110354919Y-53205443D01*
X110401693Y-53445574D01*
X110482809Y-53684194D01*
X110601277Y-53927749D01*
X110760104Y-54182682D01*
X110902229Y-54378326D01*
X110956129Y-54474466D01*
X110975380Y-54568065D01*
X110962828Y-54649869D01*
X110921323Y-54710624D01*
X110853710Y-54741074D01*
X110791204Y-54739181D01*
X110745798Y-54733903D01*
X110737883Y-54740796D01*
X110741036Y-54743139D01*
X110768768Y-54780378D01*
X110788411Y-54832687D01*
X110794793Y-54860983D01*
X110801698Y-54879294D01*
X110814978Y-54884236D01*
X110840486Y-54872426D01*
X110884075Y-54840483D01*
X110951598Y-54785023D01*
X111048908Y-54702664D01*
X111124794Y-54638280D01*
X111404698Y-54376130D01*
X111677436Y-54072077D01*
X111936230Y-53735018D01*
X112174302Y-53373849D01*
X112384874Y-52997465D01*
X112404575Y-52958500D01*
X112633604Y-52449828D01*
X112811971Y-51940164D01*
X112939634Y-51429649D01*
X113016557Y-50918424D01*
X113034053Y-50697900D01*
X113039978Y-50161070D01*
X112995498Y-49628943D01*
X112900883Y-49102605D01*
X112756398Y-48583143D01*
X112562311Y-48071646D01*
X112318890Y-47569202D01*
X112222210Y-47395900D01*
X112006855Y-47057534D01*
X111756220Y-46723641D01*
X111479799Y-46404942D01*
X111187086Y-46112157D01*
X110887573Y-45856010D01*
X110799796Y-45789373D01*
X110658180Y-45685350D01*
X110549301Y-45606317D01*
X110465192Y-45546866D01*
X110397887Y-45501592D01*
X110339421Y-45465087D01*
X110281826Y-45431944D01*
X110237444Y-45407677D01*
X110159769Y-45366552D01*
X110115502Y-45348034D01*
X110093386Y-45350527D01*
X110082168Y-45372433D01*
X110078530Y-45385122D01*
X110063393Y-45457041D01*
X110045216Y-45571454D01*
X110024917Y-45720209D01*
X110003418Y-45895155D01*
X109981640Y-46088140D01*
X109960502Y-46291012D01*
X109940925Y-46495620D01*
X109923829Y-46693812D01*
X109910285Y-46875200D01*
X109899905Y-47026162D01*
X109889484Y-47172877D01*
X109880022Y-47301583D01*
X109872519Y-47398516D01*
X109870417Y-47423836D01*
X109857129Y-47578773D01*
X109714229Y-47578773D01*
X109714756Y-47563689D01*
X109732765Y-47219782D01*
X109762437Y-46837832D01*
X109802362Y-46428884D01*
X109851128Y-46003984D01*
X109907322Y-45574177D01*
X109969532Y-45150509D01*
X110036348Y-44744024D01*
X110050776Y-44666069D01*
X110196664Y-44666069D01*
X110203931Y-44695665D01*
X110231137Y-44725486D01*
X110285876Y-44763306D01*
X110375737Y-44816899D01*
X110397919Y-44829803D01*
X110869467Y-45127361D01*
X111299264Y-45449090D01*
X111692605Y-45799998D01*
X112054787Y-46185093D01*
X112391104Y-46609384D01*
X112602000Y-46914114D01*
X112877357Y-47373030D01*
X113107777Y-47844742D01*
X113295032Y-48334178D01*
X113440893Y-48846265D01*
X113547131Y-49385932D01*
X113583060Y-49643800D01*
X113601437Y-49849570D01*
X113611808Y-50090264D01*
X113614404Y-50351192D01*
X113609460Y-50617666D01*
X113597207Y-50874997D01*
X113577879Y-51108497D01*
X113557302Y-51269400D01*
X113443588Y-51839134D01*
X113284137Y-52387384D01*
X113079891Y-52912705D01*
X112831793Y-53413654D01*
X112540786Y-53888785D01*
X112207813Y-54336655D01*
X111833817Y-54755818D01*
X111419740Y-55144831D01*
X110966525Y-55502249D01*
X110656250Y-55713822D01*
X110448801Y-55847334D01*
X110493352Y-55926917D01*
X110533343Y-55999151D01*
X110567827Y-56062678D01*
X110568345Y-56063650D01*
X110596869Y-56106760D01*
X110614889Y-56120800D01*
X110643808Y-56109283D01*
X110703331Y-56079239D01*
X110772746Y-56041500D01*
X110897994Y-55964255D01*
X111050684Y-55858696D01*
X111221841Y-55731929D01*
X111402494Y-55591062D01*
X111583670Y-55443202D01*
X111756395Y-55295457D01*
X111911699Y-55154934D01*
X112002537Y-55067367D01*
X112242746Y-54816798D01*
X112456766Y-54567705D01*
X112657983Y-54303512D01*
X112859783Y-54007643D01*
X112865718Y-53998517D01*
X112948973Y-53870334D01*
X113010982Y-53774033D01*
X113057995Y-53698779D01*
X113096261Y-53633739D01*
X113132029Y-53568078D01*
X113171548Y-53490961D01*
X113221068Y-53391555D01*
X113253172Y-53326800D01*
X113371399Y-53075700D01*
X113483291Y-52813747D01*
X113584533Y-52552485D01*
X113670812Y-52303456D01*
X113737813Y-52078203D01*
X113770585Y-51942500D01*
X113791498Y-51849002D01*
X113811776Y-51766921D01*
X113823184Y-51726600D01*
X113866606Y-51554998D01*
X113901921Y-51342050D01*
X113928964Y-51096585D01*
X113947569Y-50827434D01*
X113957569Y-50543426D01*
X113958800Y-50253390D01*
X113951094Y-49966155D01*
X113934286Y-49690552D01*
X113908210Y-49435410D01*
X113872700Y-49209559D01*
X113870694Y-49199300D01*
X113776891Y-48781591D01*
X113665290Y-48384375D01*
X113539243Y-48018806D01*
X113451646Y-47804562D01*
X113391930Y-47668396D01*
X113349246Y-47570962D01*
X113320208Y-47504475D01*
X113301427Y-47461151D01*
X113289518Y-47433207D01*
X113281093Y-47412857D01*
X113279360Y-47408600D01*
X113259272Y-47368135D01*
X113221635Y-47299020D01*
X113175679Y-47218100D01*
X113127101Y-47132463D01*
X113086378Y-47057647D01*
X113063449Y-47012188D01*
X113010728Y-46912762D01*
X112929888Y-46783253D01*
X112826724Y-46631398D01*
X112707033Y-46464932D01*
X112576612Y-46291594D01*
X112441256Y-46119120D01*
X112306763Y-45955246D01*
X112178928Y-45807710D01*
X112085245Y-45706533D01*
X111866037Y-45493955D01*
X111613036Y-45274134D01*
X111339095Y-45056852D01*
X111057069Y-44851897D01*
X110779811Y-44669052D01*
X110533500Y-44525260D01*
X110441290Y-44474734D01*
X110360637Y-44429219D01*
X110306957Y-44397440D01*
X110301911Y-44394218D01*
X110266466Y-44375379D01*
X110247850Y-44386613D01*
X110235702Y-44437040D01*
X110232736Y-44455131D01*
X110217749Y-44543171D01*
X110202464Y-44625318D01*
X110201745Y-44628925D01*
X110196664Y-44666069D01*
X110050776Y-44666069D01*
X110106358Y-44365769D01*
X110151461Y-44146964D01*
X110174483Y-44032200D01*
X110190930Y-43934078D01*
X110199061Y-43864179D01*
X110198217Y-43835814D01*
X110168497Y-43823248D01*
X110094167Y-43813574D01*
X109981333Y-43806779D01*
X109836101Y-43802849D01*
X109664577Y-43801769D01*
X109472867Y-43803527D01*
X109267079Y-43808109D01*
X109053317Y-43815500D01*
X108837689Y-43825687D01*
X108626300Y-43838656D01*
X108615800Y-43839387D01*
X108273994Y-43863431D01*
X107977256Y-43884503D01*
X107719971Y-43903063D01*
X107496522Y-43919569D01*
X107301293Y-43934479D01*
X107128668Y-43948253D01*
X106973033Y-43961348D01*
X106828769Y-43974225D01*
X106690263Y-43987341D01*
X106551897Y-44001155D01*
X106408056Y-44016127D01*
X106266300Y-44031290D01*
X105881933Y-44073282D01*
X105527943Y-44112969D01*
X105206636Y-44150057D01*
X104920319Y-44184255D01*
X104671300Y-44215269D01*
X104461885Y-44242807D01*
X104294381Y-44266576D01*
X104171095Y-44286284D01*
X104094335Y-44301636D01*
X104068661Y-44310132D01*
X104058674Y-44334787D01*
X104062118Y-44392069D01*
X104079705Y-44487483D01*
X104106807Y-44604734D01*
X104134757Y-44719456D01*
X104171438Y-44869882D01*
X104213520Y-45042371D01*
X104257676Y-45223278D01*
X104298218Y-45389300D01*
X104385397Y-45747212D01*
X104463347Y-46069290D01*
X104531516Y-46353209D01*
X104589349Y-46596640D01*
X104636293Y-46797260D01*
X104671795Y-46952740D01*
X104691000Y-47040300D01*
X104719547Y-47171802D01*
X104752629Y-47320322D01*
X104782720Y-47452130D01*
X104812032Y-47584254D01*
X104827584Y-47674179D01*
X104829181Y-47728661D01*
X104816632Y-47754458D01*
X104789742Y-47758324D01*
X104774050Y-47755014D01*
X104521517Y-47694539D01*
X104288980Y-47653789D01*
X104051411Y-47628959D01*
X103883284Y-47619589D01*
X103618564Y-47615646D01*
X103397217Y-47628058D01*
X103214115Y-47658069D01*
X103064130Y-47706923D01*
X102942134Y-47775864D01*
X102843000Y-47866135D01*
X102836605Y-47873495D01*
X102765864Y-47986141D01*
X102745398Y-48100576D01*
X102775308Y-48217461D01*
X102855697Y-48337459D01*
X102917756Y-48401565D01*
X103024458Y-48494375D01*
X103125688Y-48563081D01*
X103241537Y-48619752D01*
X103351582Y-48662148D01*
X103488639Y-48708562D01*
X103622414Y-48747072D01*
X103765156Y-48780417D01*
X103929114Y-48811335D01*
X104126537Y-48842564D01*
X104217950Y-48855803D01*
X104302565Y-48869013D01*
X104364486Y-48880918D01*
X104389042Y-48888375D01*
X104387324Y-48915373D01*
X104375474Y-48981650D01*
X104355469Y-49077148D01*
X104330101Y-49188359D01*
X104308686Y-49281585D01*
X104292253Y-49362904D01*
X104280147Y-49441180D01*
X104271709Y-49525275D01*
X104266283Y-49624054D01*
X104263212Y-49746378D01*
X104261838Y-49901112D01*
X104261505Y-50097118D01*
X104261504Y-50113700D01*
X104265185Y-50433721D01*
X104277167Y-50717907D01*
X104298837Y-50980752D01*
X104331582Y-51236748D01*
X104376789Y-51500387D01*
X104410098Y-51666484D01*
X104427169Y-51753652D01*
X104431906Y-51802307D01*
X104423807Y-51823338D01*
X104402648Y-51827639D01*
X104370915Y-51818317D01*
X104297190Y-51791907D01*
X104186569Y-51750374D01*
X104044152Y-51695686D01*
X103875035Y-51629809D01*
X103684317Y-51554709D01*
X103477096Y-51472352D01*
X103358000Y-51424701D01*
X103103655Y-51323470D01*
X102880790Y-51236361D01*
X102691986Y-51164324D01*
X102539824Y-51108311D01*
X102426886Y-51069273D01*
X102355753Y-51048163D01*
X102329354Y-51045477D01*
X102321925Y-51051484D01*
X102316910Y-51058040D01*
X102316600Y-51069516D01*
X102194251Y-51069516D01*
X102193159Y-51060265D01*
X102194358Y-51037137D01*
X102202867Y-50966936D01*
X102223394Y-50930520D01*
X102268412Y-50910877D01*
X102291200Y-50905073D01*
X102338538Y-50898257D01*
X102391760Y-50902733D01*
X102461866Y-50921135D01*
X102559858Y-50956094D01*
X102646800Y-50990174D01*
X102767978Y-51038490D01*
X102884329Y-51084733D01*
X102980271Y-51122717D01*
X103027800Y-51141414D01*
X103154870Y-51191441D01*
X103300409Y-51249262D01*
X103456921Y-51311842D01*
X103616909Y-51376149D01*
X103772876Y-51439149D01*
X103917326Y-51497806D01*
X104042762Y-51549088D01*
X104141688Y-51589961D01*
X104206607Y-51617391D01*
X104228587Y-51627379D01*
X104260807Y-51638180D01*
X104265159Y-51612294D01*
X104261829Y-51593863D01*
X104250727Y-51533173D01*
X104234001Y-51431538D01*
X104211224Y-51286255D01*
X104181967Y-51094621D01*
X104166191Y-50990000D01*
X104154738Y-50882166D01*
X104145633Y-50729846D01*
X104139104Y-50539311D01*
X104135376Y-50316828D01*
X104134570Y-50113700D01*
X104135288Y-49903759D01*
X104137174Y-49736518D01*
X104140714Y-49603879D01*
X104146392Y-49497745D01*
X104154692Y-49410020D01*
X104166100Y-49332608D01*
X104181100Y-49257412D01*
X104187542Y-49229029D01*
X104239679Y-49004759D01*
X104186189Y-48985059D01*
X104131194Y-48971144D01*
X104047965Y-48956749D01*
X103990168Y-48949171D01*
X103872721Y-48930487D01*
X103728640Y-48899705D01*
X103574281Y-48861103D01*
X103426001Y-48818961D01*
X103300155Y-48777559D01*
X103234528Y-48751468D01*
X103116260Y-48697895D01*
X103033134Y-48658198D01*
X102973680Y-48626051D01*
X102926426Y-48595128D01*
X102879905Y-48559106D01*
X102867944Y-48549303D01*
X102796159Y-48480206D01*
X102722369Y-48394240D01*
X102693246Y-48354772D01*
X102627028Y-48217963D01*
X102608590Y-48075454D01*
X102636497Y-47934135D01*
X102709312Y-47800893D01*
X102825601Y-47682619D01*
X102834799Y-47675485D01*
X102918724Y-47617428D01*
X103004297Y-47573226D01*
X103100528Y-47540811D01*
X103216427Y-47518111D01*
X103361003Y-47503056D01*
X103543265Y-47493578D01*
X103639572Y-47490591D01*
X103808131Y-47486940D01*
X103946713Y-47486662D01*
X104069780Y-47490714D01*
X104191793Y-47500057D01*
X104327214Y-47515650D01*
X104490504Y-47538451D01*
X104594118Y-47553912D01*
X104674537Y-47566060D01*
X104648719Y-47455580D01*
X104630281Y-47376000D01*
X104605593Y-47268561D01*
X104579636Y-47154947D01*
X104576666Y-47141900D01*
X104537035Y-46968668D01*
X104498798Y-46803787D01*
X104458294Y-46631670D01*
X104411863Y-46436728D01*
X104373864Y-46278300D01*
X104338571Y-46130636D01*
X104302246Y-45977276D01*
X104269319Y-45837000D01*
X104245585Y-45734548D01*
X104222235Y-45636817D01*
X104202003Y-45559691D01*
X104188148Y-45515317D01*
X104185185Y-45509519D01*
X104161245Y-45518680D01*
X104105245Y-45552345D01*
X104026047Y-45604913D01*
X103950003Y-45658199D01*
X103527324Y-45988430D01*
X103148104Y-46343356D01*
X102810133Y-46725419D01*
X102511205Y-47137061D01*
X102305973Y-47476207D01*
X102051706Y-47979000D01*
X101847955Y-48485043D01*
X101694493Y-48995171D01*
X101591091Y-49510222D01*
X101537524Y-50031031D01*
X101529200Y-50335985D01*
X100969288Y-50335985D01*
X100969215Y-50330772D01*
X100970708Y-50105754D01*
X100977035Y-49898940D01*
X100988317Y-49723411D01*
X100995402Y-49655138D01*
X101072292Y-49152411D01*
X101178112Y-48682339D01*
X101316603Y-48233459D01*
X101491507Y-47794312D01*
X101706563Y-47353436D01*
X101806007Y-47171652D01*
X101880609Y-47048092D01*
X101979255Y-46897706D01*
X102093447Y-46732673D01*
X102214684Y-46565173D01*
X102334467Y-46407385D01*
X102376240Y-46354500D01*
X102701767Y-45982828D01*
X103066609Y-45630206D01*
X103460175Y-45306192D01*
X103811401Y-45059100D01*
X103915910Y-44991063D01*
X103984207Y-44940930D01*
X104021504Y-44897194D01*
X104033010Y-44848348D01*
X104023937Y-44782889D01*
X103999493Y-44689308D01*
X103991763Y-44660809D01*
X103965844Y-44564552D01*
X103757172Y-44694955D01*
X103658678Y-44757495D01*
X103569895Y-44815626D01*
X103504344Y-44860420D01*
X103485000Y-44874643D01*
X103431498Y-44915469D01*
X103354657Y-44973285D01*
X103279126Y-45029614D01*
X102989633Y-45254808D01*
X102730578Y-45479955D01*
X102490355Y-45716585D01*
X102257361Y-45976230D01*
X102019992Y-46270421D01*
X101986351Y-46314234D01*
X101859206Y-46486484D01*
X101735548Y-46664595D01*
X101623792Y-46835877D01*
X101532351Y-46987642D01*
X101496480Y-47053000D01*
X101448550Y-47142602D01*
X101402395Y-47226009D01*
X101377623Y-47268900D01*
X101329014Y-47359185D01*
X101270924Y-47481456D01*
X101206531Y-47627489D01*
X101139012Y-47789062D01*
X101071545Y-47957952D01*
X101007308Y-48125937D01*
X100949478Y-48284793D01*
X100901233Y-48426299D01*
X100865750Y-48542232D01*
X100846208Y-48624370D01*
X100843400Y-48651265D01*
X100833173Y-48699154D01*
X100820806Y-48714965D01*
X100801947Y-48747585D01*
X100787029Y-48807637D01*
X100786424Y-48811714D01*
X100775328Y-48877850D01*
X100757282Y-48973594D01*
X100736072Y-49078898D01*
X100734799Y-49085000D01*
X100692096Y-49320877D01*
X100661196Y-49567925D01*
X100641219Y-49836815D01*
X100631283Y-50138217D01*
X100629787Y-50355000D01*
X100470419Y-50355000D01*
X100478870Y-49970559D01*
X100533663Y-49434698D01*
X100631193Y-48895004D01*
X100664807Y-48749452D01*
X100751262Y-48416221D01*
X100842193Y-48118184D01*
X100943192Y-47839746D01*
X101059849Y-47565313D01*
X101177418Y-47319700D01*
X101394674Y-46911539D01*
X101620084Y-46542872D01*
X101861858Y-46202393D01*
X102128206Y-45878796D01*
X102427339Y-45560774D01*
X102523942Y-45465500D01*
X102860329Y-45154938D01*
X103183382Y-44889235D01*
X103491767Y-44669427D01*
X103743022Y-44518546D01*
X103830431Y-44469546D01*
X103882134Y-44433790D01*
X103907491Y-44401079D01*
X103915864Y-44361218D01*
X103916630Y-44329435D01*
X103923048Y-44269912D01*
X103946744Y-44224937D01*
X103994749Y-44190819D01*
X104074092Y-44163870D01*
X104191804Y-44140400D01*
X104310500Y-44122723D01*
X104461561Y-44097292D01*
X104599875Y-44065487D01*
X104708602Y-44031328D01*
X104729600Y-44022710D01*
X104801446Y-43994289D01*
X105313379Y-43994289D01*
X105316891Y-44003691D01*
X105359077Y-44003779D01*
X105443913Y-43993096D01*
X105519113Y-43980522D01*
X105590771Y-43969993D01*
X105701264Y-43956474D01*
X105838810Y-43941285D01*
X105991626Y-43925744D01*
X106101200Y-43915378D01*
X106250552Y-43901488D01*
X106386065Y-43888464D01*
X106498045Y-43877270D01*
X106576799Y-43868870D01*
X106609200Y-43864837D01*
X106657208Y-43859376D01*
X106744548Y-43851289D01*
X106859883Y-43841560D01*
X106991872Y-43831174D01*
X107028300Y-43828429D01*
X107196053Y-43815814D01*
X107382320Y-43801649D01*
X107563225Y-43787759D01*
X107701400Y-43777024D01*
X107832187Y-43767049D01*
X107952604Y-43758351D01*
X108049159Y-43751876D01*
X108107800Y-43748588D01*
X108154384Y-43745664D01*
X108159779Y-43740565D01*
X108120638Y-43730862D01*
X108069700Y-43720929D01*
X108008104Y-43713916D01*
X107904713Y-43707407D01*
X107768535Y-43701738D01*
X107608573Y-43697247D01*
X107433833Y-43694269D01*
X107333100Y-43693389D01*
X107042952Y-43694241D01*
X106793044Y-43700855D01*
X106573060Y-43714003D01*
X106372686Y-43734455D01*
X106181607Y-43762984D01*
X106037700Y-43790245D01*
X105881816Y-43823993D01*
X105736775Y-43858640D01*
X105606554Y-43892726D01*
X105495128Y-43924793D01*
X105406473Y-43953381D01*
X105344565Y-43977033D01*
X105313379Y-43994289D01*
X104801446Y-43994289D01*
X104870979Y-43966783D01*
X105050419Y-43905560D01*
X105255934Y-43842462D01*
X105475537Y-43780911D01*
X105697243Y-43724327D01*
X105909066Y-43676132D01*
X106025000Y-43652933D01*
X106440189Y-43586071D01*
X106844732Y-43542539D01*
X107224188Y-43523789D01*
X107316741Y-43523151D01*
X107440175Y-43526218D01*
G36*
X107695809Y-42472653D02*
G01*
X107769501Y-42476644D01*
X108106004Y-42501051D01*
X108409889Y-42534139D01*
X108698983Y-42578578D01*
X108991112Y-42637040D01*
X109250233Y-42698523D01*
X109418268Y-42742954D01*
X109596037Y-42793743D01*
X109771912Y-42847236D01*
X109934266Y-42899780D01*
X110071474Y-42947720D01*
X110171908Y-42987402D01*
X110177900Y-42990063D01*
X110222089Y-43009526D01*
X110300297Y-43043617D01*
X110399897Y-43086840D01*
X110470000Y-43117175D01*
X111016081Y-43380378D01*
X111544433Y-43689501D01*
X112050441Y-44041383D01*
X112529491Y-44432864D01*
X112895786Y-44778023D01*
X113127172Y-45017962D01*
X113335616Y-45251461D01*
X113529015Y-45488801D01*
X113715264Y-45740261D01*
X113902260Y-46016121D01*
X114097898Y-46326660D01*
X114145640Y-46405217D01*
X114167686Y-46445214D01*
X114207722Y-46521132D01*
X114260840Y-46623545D01*
X114322133Y-46743025D01*
X114350643Y-46799000D01*
X114573475Y-47273794D01*
X114759644Y-47751817D01*
X114912548Y-48243838D01*
X115035579Y-48760627D01*
X115122102Y-49246198D01*
X115139173Y-49364781D01*
X115152471Y-49477305D01*
X115162463Y-49592772D01*
X115169616Y-49720181D01*
X115174397Y-49868535D01*
X115177272Y-50046835D01*
X115178707Y-50264082D01*
X115178937Y-50342300D01*
X115177913Y-50629445D01*
X115172652Y-50877487D01*
X115162014Y-51098029D01*
X115144862Y-51302674D01*
X115120056Y-51503023D01*
X115086457Y-51710679D01*
X115042927Y-51937245D01*
X115004430Y-52120300D01*
X114881613Y-52595727D01*
X114717606Y-53082607D01*
X114517167Y-53570729D01*
X114285053Y-54049880D01*
X114026021Y-54509845D01*
X113744830Y-54940414D01*
X113596330Y-55142900D01*
X113190194Y-55633485D01*
X112750988Y-56086137D01*
X112280704Y-56499680D01*
X111781335Y-56872938D01*
X111254874Y-57204736D01*
X110703313Y-57493900D01*
X110128645Y-57739253D01*
X109532864Y-57939620D01*
X108917961Y-58093826D01*
X108450700Y-58177693D01*
X108287257Y-58197357D01*
X108084680Y-58214167D01*
X107854573Y-58227790D01*
X107608538Y-58237895D01*
X107358180Y-58244149D01*
X107115101Y-58246220D01*
X106890904Y-58243776D01*
X106697193Y-58236485D01*
X106609200Y-58230402D01*
X106308201Y-58197351D01*
X105985865Y-58148480D01*
X105660625Y-58087231D01*
X105350910Y-58017044D01*
X105097900Y-57948248D01*
X104994826Y-57917393D01*
X104898113Y-57888498D01*
X104831200Y-57868563D01*
X104644298Y-57805922D01*
X104425577Y-57720763D01*
X104185902Y-57618108D01*
X103936139Y-57502982D01*
X103687155Y-57380407D01*
X103449815Y-57255406D01*
X103234986Y-57133001D01*
X103218300Y-57122990D01*
X102693353Y-56777363D01*
X102198979Y-56392310D01*
X101737446Y-55970339D01*
X101311023Y-55513960D01*
X100921979Y-55025681D01*
X100572585Y-54508010D01*
X100265109Y-53963456D01*
X100151780Y-53733200D01*
X99910443Y-53163029D01*
X99715024Y-52575050D01*
X99565925Y-51973287D01*
X99463551Y-51361767D01*
X99408303Y-50744514D01*
X99402384Y-50269756D01*
X99664310Y-50269756D01*
X99665135Y-50522615D01*
X99670792Y-50767906D01*
X99681288Y-50994000D01*
X99696628Y-51189269D01*
X99708175Y-51286900D01*
X99809252Y-51880223D01*
X99942614Y-52438023D01*
X100109629Y-52965087D01*
X100311663Y-53466200D01*
X100362595Y-53576941D01*
X100406249Y-53670836D01*
X100440212Y-53746069D01*
X100459643Y-53791812D01*
X100462400Y-53800309D01*
X100475074Y-53831491D01*
X100509877Y-53897570D01*
X100561976Y-53990387D01*
X100626538Y-54101782D01*
X100698731Y-54223597D01*
X100773723Y-54347673D01*
X100846681Y-54465850D01*
X100912773Y-54569971D01*
X100964228Y-54647600D01*
X101339407Y-55151005D01*
X101748738Y-55617770D01*
X102190062Y-56046652D01*
X102661216Y-56436406D01*
X103160040Y-56785789D01*
X103684372Y-57093558D01*
X104232051Y-57358469D01*
X104800916Y-57579277D01*
X105388806Y-57754740D01*
X105993560Y-57883614D01*
X106613016Y-57964655D01*
X106747663Y-57975693D01*
X106916657Y-57983828D01*
X107121569Y-57986985D01*
X107347793Y-57985475D01*
X107580723Y-57979607D01*
X107805755Y-57969694D01*
X108008280Y-57956045D01*
X108107800Y-57946740D01*
X108685771Y-57862861D01*
X109254783Y-57734230D01*
X109822496Y-57558935D01*
X110146791Y-57438060D01*
X110692349Y-57195401D01*
X111217065Y-56908218D01*
X111718067Y-56579399D01*
X112192485Y-56211831D01*
X112637447Y-55808403D01*
X113050084Y-55372003D01*
X113427524Y-54905516D01*
X113766898Y-54411833D01*
X114065334Y-53893839D01*
X114319961Y-53354423D01*
X114397968Y-53161700D01*
X114604283Y-52561109D01*
X114760439Y-51954526D01*
X114866479Y-51343715D01*
X114922450Y-50730441D01*
X114928396Y-50116469D01*
X114884361Y-49503563D01*
X114790390Y-48893487D01*
X114646527Y-48288008D01*
X114452819Y-47688888D01*
X114246361Y-47180000D01*
X113987425Y-46659199D01*
X113683763Y-46157392D01*
X113338933Y-45678023D01*
X112956494Y-45224538D01*
X112540003Y-44800381D01*
X112093021Y-44408996D01*
X111619105Y-44053828D01*
X111121813Y-43738323D01*
X110604705Y-43465924D01*
X110246912Y-43308430D01*
X109870722Y-43164101D01*
X109509669Y-43044035D01*
X109149390Y-42944490D01*
X108775525Y-42861723D01*
X108373712Y-42791989D01*
X108133200Y-42757513D01*
X108007771Y-42745290D01*
X107842446Y-42735964D01*
X107648045Y-42729544D01*
X107435389Y-42726037D01*
X107215298Y-42725451D01*
X106998594Y-42727793D01*
X106796098Y-42733073D01*
X106618631Y-42741297D01*
X106477012Y-42752474D01*
X106444100Y-42756281D01*
X105803258Y-42861952D01*
X105185260Y-43012375D01*
X104591132Y-43206945D01*
X104021901Y-43445057D01*
X103478592Y-43726105D01*
X102962232Y-44049485D01*
X102473848Y-44414590D01*
X102014465Y-44820816D01*
X101585110Y-45267557D01*
X101186810Y-45754207D01*
X101053827Y-45935400D01*
X100740710Y-46410585D01*
X100468605Y-46901895D01*
X100235870Y-47413584D01*
X100040858Y-47949910D01*
X99881925Y-48515127D01*
X99757427Y-49113492D01*
X99709203Y-49415200D01*
X99690764Y-49582050D01*
X99677131Y-49787845D01*
X99668311Y-50020957D01*
X99664310Y-50269756D01*
X99402384Y-50269756D01*
X99400586Y-50125555D01*
X99440803Y-49508914D01*
X99529357Y-48898616D01*
X99623939Y-48462700D01*
X99800693Y-47854044D01*
X100022921Y-47266125D01*
X100289102Y-46701108D01*
X100597715Y-46161154D01*
X100947240Y-45648426D01*
X101336157Y-45165090D01*
X101762943Y-44713306D01*
X102226079Y-44295239D01*
X102724044Y-43913052D01*
X102913500Y-43783367D01*
X103461747Y-43448988D01*
X104025219Y-43163047D01*
X104603381Y-42925688D01*
X105195698Y-42737054D01*
X105801634Y-42597289D01*
X106420655Y-42506538D01*
X107052225Y-42464945D01*
X107695809Y-42472653D01*
G37*
X107695809Y-42472653D02*
X107769501Y-42476644D01*
X108106004Y-42501051D01*
X108409889Y-42534139D01*
X108698983Y-42578578D01*
X108991112Y-42637040D01*
X109250233Y-42698523D01*
X109418268Y-42742954D01*
X109596037Y-42793743D01*
X109771912Y-42847236D01*
X109934266Y-42899780D01*
X110071474Y-42947720D01*
X110171908Y-42987402D01*
X110177900Y-42990063D01*
X110222089Y-43009526D01*
X110300297Y-43043617D01*
X110399897Y-43086840D01*
X110470000Y-43117175D01*
X111016081Y-43380378D01*
X111544433Y-43689501D01*
X112050441Y-44041383D01*
X112529491Y-44432864D01*
X112895786Y-44778023D01*
X113127172Y-45017962D01*
X113335616Y-45251461D01*
X113529015Y-45488801D01*
X113715264Y-45740261D01*
X113902260Y-46016121D01*
X114097898Y-46326660D01*
X114145640Y-46405217D01*
X114167686Y-46445214D01*
X114207722Y-46521132D01*
X114260840Y-46623545D01*
X114322133Y-46743025D01*
X114350643Y-46799000D01*
X114573475Y-47273794D01*
X114759644Y-47751817D01*
X114912548Y-48243838D01*
X115035579Y-48760627D01*
X115122102Y-49246198D01*
X115139173Y-49364781D01*
X115152471Y-49477305D01*
X115162463Y-49592772D01*
X115169616Y-49720181D01*
X115174397Y-49868535D01*
X115177272Y-50046835D01*
X115178707Y-50264082D01*
X115178937Y-50342300D01*
X115177913Y-50629445D01*
X115172652Y-50877487D01*
X115162014Y-51098029D01*
X115144862Y-51302674D01*
X115120056Y-51503023D01*
X115086457Y-51710679D01*
X115042927Y-51937245D01*
X115004430Y-52120300D01*
X114881613Y-52595727D01*
X114717606Y-53082607D01*
X114517167Y-53570729D01*
X114285053Y-54049880D01*
X114026021Y-54509845D01*
X113744830Y-54940414D01*
X113596330Y-55142900D01*
X113190194Y-55633485D01*
X112750988Y-56086137D01*
X112280704Y-56499680D01*
X111781335Y-56872938D01*
X111254874Y-57204736D01*
X110703313Y-57493900D01*
X110128645Y-57739253D01*
X109532864Y-57939620D01*
X108917961Y-58093826D01*
X108450700Y-58177693D01*
X108287257Y-58197357D01*
X108084680Y-58214167D01*
X107854573Y-58227790D01*
X107608538Y-58237895D01*
X107358180Y-58244149D01*
X107115101Y-58246220D01*
X106890904Y-58243776D01*
X106697193Y-58236485D01*
X106609200Y-58230402D01*
X106308201Y-58197351D01*
X105985865Y-58148480D01*
X105660625Y-58087231D01*
X105350910Y-58017044D01*
X105097900Y-57948248D01*
X104994826Y-57917393D01*
X104898113Y-57888498D01*
X104831200Y-57868563D01*
X104644298Y-57805922D01*
X104425577Y-57720763D01*
X104185902Y-57618108D01*
X103936139Y-57502982D01*
X103687155Y-57380407D01*
X103449815Y-57255406D01*
X103234986Y-57133001D01*
X103218300Y-57122990D01*
X102693353Y-56777363D01*
X102198979Y-56392310D01*
X101737446Y-55970339D01*
X101311023Y-55513960D01*
X100921979Y-55025681D01*
X100572585Y-54508010D01*
X100265109Y-53963456D01*
X100151780Y-53733200D01*
X99910443Y-53163029D01*
X99715024Y-52575050D01*
X99565925Y-51973287D01*
X99463551Y-51361767D01*
X99408303Y-50744514D01*
X99402384Y-50269756D01*
X99664310Y-50269756D01*
X99665135Y-50522615D01*
X99670792Y-50767906D01*
X99681288Y-50994000D01*
X99696628Y-51189269D01*
X99708175Y-51286900D01*
X99809252Y-51880223D01*
X99942614Y-52438023D01*
X100109629Y-52965087D01*
X100311663Y-53466200D01*
X100362595Y-53576941D01*
X100406249Y-53670836D01*
X100440212Y-53746069D01*
X100459643Y-53791812D01*
X100462400Y-53800309D01*
X100475074Y-53831491D01*
X100509877Y-53897570D01*
X100561976Y-53990387D01*
X100626538Y-54101782D01*
X100698731Y-54223597D01*
X100773723Y-54347673D01*
X100846681Y-54465850D01*
X100912773Y-54569971D01*
X100964228Y-54647600D01*
X101339407Y-55151005D01*
X101748738Y-55617770D01*
X102190062Y-56046652D01*
X102661216Y-56436406D01*
X103160040Y-56785789D01*
X103684372Y-57093558D01*
X104232051Y-57358469D01*
X104800916Y-57579277D01*
X105388806Y-57754740D01*
X105993560Y-57883614D01*
X106613016Y-57964655D01*
X106747663Y-57975693D01*
X106916657Y-57983828D01*
X107121569Y-57986985D01*
X107347793Y-57985475D01*
X107580723Y-57979607D01*
X107805755Y-57969694D01*
X108008280Y-57956045D01*
X108107800Y-57946740D01*
X108685771Y-57862861D01*
X109254783Y-57734230D01*
X109822496Y-57558935D01*
X110146791Y-57438060D01*
X110692349Y-57195401D01*
X111217065Y-56908218D01*
X111718067Y-56579399D01*
X112192485Y-56211831D01*
X112637447Y-55808403D01*
X113050084Y-55372003D01*
X113427524Y-54905516D01*
X113766898Y-54411833D01*
X114065334Y-53893839D01*
X114319961Y-53354423D01*
X114397968Y-53161700D01*
X114604283Y-52561109D01*
X114760439Y-51954526D01*
X114866479Y-51343715D01*
X114922450Y-50730441D01*
X114928396Y-50116469D01*
X114884361Y-49503563D01*
X114790390Y-48893487D01*
X114646527Y-48288008D01*
X114452819Y-47688888D01*
X114246361Y-47180000D01*
X113987425Y-46659199D01*
X113683763Y-46157392D01*
X113338933Y-45678023D01*
X112956494Y-45224538D01*
X112540003Y-44800381D01*
X112093021Y-44408996D01*
X111619105Y-44053828D01*
X111121813Y-43738323D01*
X110604705Y-43465924D01*
X110246912Y-43308430D01*
X109870722Y-43164101D01*
X109509669Y-43044035D01*
X109149390Y-42944490D01*
X108775525Y-42861723D01*
X108373712Y-42791989D01*
X108133200Y-42757513D01*
X108007771Y-42745290D01*
X107842446Y-42735964D01*
X107648045Y-42729544D01*
X107435389Y-42726037D01*
X107215298Y-42725451D01*
X106998594Y-42727793D01*
X106796098Y-42733073D01*
X106618631Y-42741297D01*
X106477012Y-42752474D01*
X106444100Y-42756281D01*
X105803258Y-42861952D01*
X105185260Y-43012375D01*
X104591132Y-43206945D01*
X104021901Y-43445057D01*
X103478592Y-43726105D01*
X102962232Y-44049485D01*
X102473848Y-44414590D01*
X102014465Y-44820816D01*
X101585110Y-45267557D01*
X101186810Y-45754207D01*
X101053827Y-45935400D01*
X100740710Y-46410585D01*
X100468605Y-46901895D01*
X100235870Y-47413584D01*
X100040858Y-47949910D01*
X99881925Y-48515127D01*
X99757427Y-49113492D01*
X99709203Y-49415200D01*
X99690764Y-49582050D01*
X99677131Y-49787845D01*
X99668311Y-50020957D01*
X99664310Y-50269756D01*
X99402384Y-50269756D01*
X99400586Y-50125555D01*
X99440803Y-49508914D01*
X99529357Y-48898616D01*
X99623939Y-48462700D01*
X99800693Y-47854044D01*
X100022921Y-47266125D01*
X100289102Y-46701108D01*
X100597715Y-46161154D01*
X100947240Y-45648426D01*
X101336157Y-45165090D01*
X101762943Y-44713306D01*
X102226079Y-44295239D01*
X102724044Y-43913052D01*
X102913500Y-43783367D01*
X103461747Y-43448988D01*
X104025219Y-43163047D01*
X104603381Y-42925688D01*
X105195698Y-42737054D01*
X105801634Y-42597289D01*
X106420655Y-42506538D01*
X107052225Y-42464945D01*
X107695809Y-42472653D01*
D14*
%TO.C,REF\u002A\u002A*%
X90150000Y-31940000D02*
X36810000Y-31940000D01*
X36810000Y-31940000D02*
X36810000Y-39560000D01*
X36810000Y-39560000D02*
X90150000Y-39560000D01*
X90150000Y-39560000D02*
X90150000Y-31940000D01*
D12*
%TO.C,J8*%
X108640000Y-31940000D02*
X108640000Y-42100000D01*
X108640000Y-31940000D02*
X115840000Y-31940000D01*
X107640000Y-31940000D02*
X108640000Y-31940000D01*
X107640000Y-42100000D02*
X107640000Y-31940000D01*
X108640000Y-42100000D02*
X107640000Y-42100000D01*
X115840000Y-42100000D02*
X108640000Y-42100000D01*
X115840000Y-31940000D02*
X115840000Y-42100000D01*
D14*
%TO.C,R13*%
X108490000Y-69778748D02*
X108490000Y-70301252D01*
X109910000Y-69778748D02*
X109910000Y-70301252D01*
%TO.C,R12*%
X109910000Y-74111252D02*
X109910000Y-73588748D01*
X108490000Y-74111252D02*
X108490000Y-73588748D01*
%TO.C,M1*%
X88340000Y-75701000D02*
X86830000Y-75701000D01*
X88340000Y-72000000D02*
X86830000Y-72000000D01*
X86830000Y-68730000D02*
X86830000Y-78970000D01*
X88340000Y-78970000D02*
X83699000Y-78970000D01*
X88340000Y-68730000D02*
X83699000Y-68730000D01*
X83699000Y-68730000D02*
X83699000Y-78970000D01*
X88340000Y-68730000D02*
X88340000Y-78970000D01*
%TO.C,J6*%
X112435000Y-75805000D02*
X111740000Y-75805000D01*
X112435000Y-75120000D02*
X112435000Y-75805000D01*
X111131724Y-74435000D02*
X111045000Y-74435000D01*
X112435000Y-74435000D02*
X112348276Y-74435000D01*
X111045000Y-74435000D02*
X111045000Y-73560000D01*
X112435000Y-74435000D02*
X112435000Y-73560000D01*
X111345507Y-73560000D02*
X111045000Y-73560000D01*
X112435000Y-73560000D02*
X112134493Y-73560000D01*
D15*
%TO.C,U3*%
X47535000Y-80730000D02*
X47535000Y-80530000D01*
X43385000Y-80730000D02*
X43385000Y-80530000D01*
X43385000Y-75580000D02*
X43385000Y-75780000D01*
X47535000Y-75580000D02*
X47535000Y-75780000D01*
X47535000Y-80730000D02*
X43385000Y-80730000D01*
X47535000Y-75580000D02*
X43385000Y-75580000D01*
X47535000Y-80530000D02*
X48835000Y-80530000D01*
D14*
%TO.C,R11*%
X37908733Y-79690000D02*
X38251267Y-79690000D01*
X37908733Y-80710000D02*
X38251267Y-80710000D01*
%TO.C,R10*%
X34780000Y-77488733D02*
X34780000Y-77831267D01*
X33760000Y-77488733D02*
X33760000Y-77831267D01*
%TO.C,R9*%
X45961252Y-74560000D02*
X45438748Y-74560000D01*
X45961252Y-73140000D02*
X45438748Y-73140000D01*
%TO.C,J5*%
X112435000Y-68750000D02*
X112134493Y-68750000D01*
X111345507Y-68750000D02*
X111045000Y-68750000D01*
X112435000Y-70625000D02*
X112435000Y-68750000D01*
X111045000Y-70625000D02*
X111045000Y-68750000D01*
X112435000Y-70625000D02*
X112348276Y-70625000D01*
X111131724Y-70625000D02*
X111045000Y-70625000D01*
X112435000Y-71310000D02*
X112435000Y-71995000D01*
X112435000Y-71995000D02*
X111740000Y-71995000D01*
%TO.C,D9*%
X51580000Y-68035000D02*
X49120000Y-68035000D01*
X49120000Y-68035000D02*
X49120000Y-69505000D01*
X49120000Y-69505000D02*
X51580000Y-69505000D01*
%TO.C,C12*%
X40100000Y-71310000D02*
G75*
G03*
X40100000Y-71310000I-3270000J0D01*
G01*
X36830000Y-74540000D02*
X36830000Y-68080000D01*
X36790000Y-74540000D02*
X36790000Y-68080000D01*
X36750000Y-74540000D02*
X36750000Y-68080000D01*
X36710000Y-74538000D02*
X36710000Y-68082000D01*
X36670000Y-74537000D02*
X36670000Y-68083000D01*
X36630000Y-74534000D02*
X36630000Y-68086000D01*
X36590000Y-74532000D02*
X36590000Y-72350000D01*
X36590000Y-70270000D02*
X36590000Y-68088000D01*
X36550000Y-74528000D02*
X36550000Y-72350000D01*
X36550000Y-70270000D02*
X36550000Y-68092000D01*
X36510000Y-74525000D02*
X36510000Y-72350000D01*
X36510000Y-70270000D02*
X36510000Y-68095000D01*
X36470000Y-74521000D02*
X36470000Y-72350000D01*
X36470000Y-70270000D02*
X36470000Y-68099000D01*
X36430000Y-74516000D02*
X36430000Y-72350000D01*
X36430000Y-70270000D02*
X36430000Y-68104000D01*
X36390000Y-74511000D02*
X36390000Y-72350000D01*
X36390000Y-70270000D02*
X36390000Y-68109000D01*
X36350000Y-74505000D02*
X36350000Y-72350000D01*
X36350000Y-70270000D02*
X36350000Y-68115000D01*
X36310000Y-74499000D02*
X36310000Y-72350000D01*
X36310000Y-70270000D02*
X36310000Y-68121000D01*
X36270000Y-74492000D02*
X36270000Y-72350000D01*
X36270000Y-70270000D02*
X36270000Y-68128000D01*
X36230000Y-74485000D02*
X36230000Y-72350000D01*
X36230000Y-70270000D02*
X36230000Y-68135000D01*
X36190000Y-74477000D02*
X36190000Y-72350000D01*
X36190000Y-70270000D02*
X36190000Y-68143000D01*
X36150000Y-74469000D02*
X36150000Y-72350000D01*
X36150000Y-70270000D02*
X36150000Y-68151000D01*
X36109000Y-74460000D02*
X36109000Y-72350000D01*
X36109000Y-70270000D02*
X36109000Y-68160000D01*
X36069000Y-74451000D02*
X36069000Y-72350000D01*
X36069000Y-70270000D02*
X36069000Y-68169000D01*
X36029000Y-74441000D02*
X36029000Y-72350000D01*
X36029000Y-70270000D02*
X36029000Y-68179000D01*
X35989000Y-74431000D02*
X35989000Y-72350000D01*
X35989000Y-70270000D02*
X35989000Y-68189000D01*
X35949000Y-74420000D02*
X35949000Y-72350000D01*
X35949000Y-70270000D02*
X35949000Y-68200000D01*
X35909000Y-74408000D02*
X35909000Y-72350000D01*
X35909000Y-70270000D02*
X35909000Y-68212000D01*
X35869000Y-74396000D02*
X35869000Y-72350000D01*
X35869000Y-70270000D02*
X35869000Y-68224000D01*
X35829000Y-74384000D02*
X35829000Y-72350000D01*
X35829000Y-70270000D02*
X35829000Y-68236000D01*
X35789000Y-74371000D02*
X35789000Y-72350000D01*
X35789000Y-70270000D02*
X35789000Y-68249000D01*
X35749000Y-74357000D02*
X35749000Y-72350000D01*
X35749000Y-70270000D02*
X35749000Y-68263000D01*
X35709000Y-74343000D02*
X35709000Y-72350000D01*
X35709000Y-70270000D02*
X35709000Y-68277000D01*
X35669000Y-74328000D02*
X35669000Y-72350000D01*
X35669000Y-70270000D02*
X35669000Y-68292000D01*
X35629000Y-74312000D02*
X35629000Y-72350000D01*
X35629000Y-70270000D02*
X35629000Y-68308000D01*
X35589000Y-74296000D02*
X35589000Y-72350000D01*
X35589000Y-70270000D02*
X35589000Y-68324000D01*
X35549000Y-74280000D02*
X35549000Y-72350000D01*
X35549000Y-70270000D02*
X35549000Y-68340000D01*
X35509000Y-74262000D02*
X35509000Y-72350000D01*
X35509000Y-70270000D02*
X35509000Y-68358000D01*
X35469000Y-74244000D02*
X35469000Y-72350000D01*
X35469000Y-70270000D02*
X35469000Y-68376000D01*
X35429000Y-74226000D02*
X35429000Y-72350000D01*
X35429000Y-70270000D02*
X35429000Y-68394000D01*
X35389000Y-74206000D02*
X35389000Y-72350000D01*
X35389000Y-70270000D02*
X35389000Y-68414000D01*
X35349000Y-74186000D02*
X35349000Y-72350000D01*
X35349000Y-70270000D02*
X35349000Y-68434000D01*
X35309000Y-74166000D02*
X35309000Y-72350000D01*
X35309000Y-70270000D02*
X35309000Y-68454000D01*
X35269000Y-74144000D02*
X35269000Y-72350000D01*
X35269000Y-70270000D02*
X35269000Y-68476000D01*
X35229000Y-74122000D02*
X35229000Y-72350000D01*
X35229000Y-70270000D02*
X35229000Y-68498000D01*
X35189000Y-74100000D02*
X35189000Y-72350000D01*
X35189000Y-70270000D02*
X35189000Y-68520000D01*
X35149000Y-74076000D02*
X35149000Y-72350000D01*
X35149000Y-70270000D02*
X35149000Y-68544000D01*
X35109000Y-74052000D02*
X35109000Y-72350000D01*
X35109000Y-70270000D02*
X35109000Y-68568000D01*
X35069000Y-74026000D02*
X35069000Y-72350000D01*
X35069000Y-70270000D02*
X35069000Y-68594000D01*
X35029000Y-74000000D02*
X35029000Y-72350000D01*
X35029000Y-70270000D02*
X35029000Y-68620000D01*
X34989000Y-73974000D02*
X34989000Y-72350000D01*
X34989000Y-70270000D02*
X34989000Y-68646000D01*
X34949000Y-73946000D02*
X34949000Y-72350000D01*
X34949000Y-70270000D02*
X34949000Y-68674000D01*
X34909000Y-73917000D02*
X34909000Y-72350000D01*
X34909000Y-70270000D02*
X34909000Y-68703000D01*
X34869000Y-73888000D02*
X34869000Y-72350000D01*
X34869000Y-70270000D02*
X34869000Y-68732000D01*
X34829000Y-73858000D02*
X34829000Y-72350000D01*
X34829000Y-70270000D02*
X34829000Y-68762000D01*
X34789000Y-73826000D02*
X34789000Y-72350000D01*
X34789000Y-70270000D02*
X34789000Y-68794000D01*
X34749000Y-73794000D02*
X34749000Y-72350000D01*
X34749000Y-70270000D02*
X34749000Y-68826000D01*
X34709000Y-73760000D02*
X34709000Y-72350000D01*
X34709000Y-70270000D02*
X34709000Y-68860000D01*
X34669000Y-73726000D02*
X34669000Y-72350000D01*
X34669000Y-70270000D02*
X34669000Y-68894000D01*
X34629000Y-73690000D02*
X34629000Y-72350000D01*
X34629000Y-70270000D02*
X34629000Y-68930000D01*
X34589000Y-73653000D02*
X34589000Y-72350000D01*
X34589000Y-70270000D02*
X34589000Y-68967000D01*
X34549000Y-73615000D02*
X34549000Y-72350000D01*
X34549000Y-70270000D02*
X34549000Y-69005000D01*
X34509000Y-73575000D02*
X34509000Y-69045000D01*
X34469000Y-73534000D02*
X34469000Y-69086000D01*
X34429000Y-73492000D02*
X34429000Y-69128000D01*
X34389000Y-73447000D02*
X34389000Y-69173000D01*
X34349000Y-73402000D02*
X34349000Y-69218000D01*
X34309000Y-73354000D02*
X34309000Y-69266000D01*
X34269000Y-73305000D02*
X34269000Y-69315000D01*
X34229000Y-73254000D02*
X34229000Y-69366000D01*
X34189000Y-73200000D02*
X34189000Y-69420000D01*
X34149000Y-73144000D02*
X34149000Y-69476000D01*
X34109000Y-73086000D02*
X34109000Y-69534000D01*
X34069000Y-73024000D02*
X34069000Y-69596000D01*
X34029000Y-72960000D02*
X34029000Y-69660000D01*
X33989000Y-72891000D02*
X33989000Y-69729000D01*
X33949000Y-72819000D02*
X33949000Y-69801000D01*
X33909000Y-72742000D02*
X33909000Y-69878000D01*
X33869000Y-72660000D02*
X33869000Y-69960000D01*
X33829000Y-72572000D02*
X33829000Y-70048000D01*
X33789000Y-72475000D02*
X33789000Y-70145000D01*
X33749000Y-72369000D02*
X33749000Y-70251000D01*
X33709000Y-72250000D02*
X33709000Y-70370000D01*
X33669000Y-72112000D02*
X33669000Y-70508000D01*
X33629000Y-71943000D02*
X33629000Y-70677000D01*
X33589000Y-71712000D02*
X33589000Y-70908000D01*
X40330241Y-73149000D02*
X39700241Y-73149000D01*
X40015241Y-73464000D02*
X40015241Y-72834000D01*
%TO.C,C11*%
X51490000Y-77398748D02*
X51490000Y-77921252D01*
X50070000Y-77398748D02*
X50070000Y-77921252D01*
%TO.C,C10*%
X38341252Y-77100000D02*
X37818748Y-77100000D01*
X38341252Y-75680000D02*
X37818748Y-75680000D01*
%TO.C,C9*%
X46206252Y-72020000D02*
X45683748Y-72020000D01*
X46206252Y-70600000D02*
X45683748Y-70600000D01*
%TO.C,C8*%
X50220000Y-72318748D02*
X50220000Y-72841252D01*
X48800000Y-72318748D02*
X48800000Y-72841252D01*
%TO.C,C7*%
X46206252Y-69480000D02*
X45683748Y-69480000D01*
X46206252Y-68060000D02*
X45683748Y-68060000D01*
%TO.C,D7*%
X87850000Y-40650000D02*
X87850000Y-40400000D01*
X87850000Y-40400000D02*
X86150000Y-40400000D01*
X86150000Y-40400000D02*
X86150000Y-40650000D01*
D16*
G36*
X87000000Y-41650000D02*
G01*
X86700000Y-41650000D01*
X86700000Y-40850000D01*
X87000000Y-40850000D01*
X87000000Y-41650000D01*
G37*
X87000000Y-41650000D02*
X86700000Y-41650000D01*
X86700000Y-40850000D01*
X87000000Y-40850000D01*
X87000000Y-41650000D01*
D14*
%TO.C,D8*%
X92850000Y-40650000D02*
X92850000Y-40400000D01*
X92850000Y-40400000D02*
X91150000Y-40400000D01*
X91150000Y-40400000D02*
X91150000Y-40650000D01*
D16*
G36*
X92000000Y-41650000D02*
G01*
X91700000Y-41650000D01*
X91700000Y-40850000D01*
X92000000Y-40850000D01*
X92000000Y-41650000D01*
G37*
X92000000Y-41650000D02*
X91700000Y-41650000D01*
X91700000Y-40850000D01*
X92000000Y-40850000D01*
X92000000Y-41650000D01*
%TO.C,D2*%
X40174000Y-46876000D02*
X40174000Y-47892000D01*
X50334000Y-49416000D02*
X49318000Y-49416000D01*
X40682000Y-47384000D02*
X39666000Y-47384000D01*
D14*
X49300000Y-48400000D02*
G75*
G03*
X49300000Y-48400000I-4300000J0D01*
G01*
X49445000Y-48527000D02*
X52580000Y-48527000D01*
X53255000Y-47852000D02*
X53255000Y-46281000D01*
X52580000Y-45606000D02*
X48429000Y-45606000D01*
X52580000Y-45606000D02*
G75*
G02*
X53255000Y-46281000I0J-675000D01*
G01*
X53255000Y-47852000D02*
G75*
G02*
X52580000Y-48527000I-675000J0D01*
G01*
D16*
%TO.C,D3*%
X49826000Y-61924000D02*
X49826000Y-60908000D01*
X39666000Y-59384000D02*
X40682000Y-59384000D01*
X49318000Y-61416000D02*
X50334000Y-61416000D01*
D14*
X49300000Y-60400000D02*
G75*
G03*
X49300000Y-60400000I-4300000J0D01*
G01*
X40555000Y-60273000D02*
X37420000Y-60273000D01*
X36745000Y-60948000D02*
X36745000Y-62519000D01*
X37420000Y-63194000D02*
X41571000Y-63194000D01*
X37420000Y-63194000D02*
G75*
G02*
X36745000Y-62519000I0J675000D01*
G01*
X36745000Y-60948000D02*
G75*
G02*
X37420000Y-60273000I675000J0D01*
G01*
D16*
%TO.C,D5*%
X90174000Y-46876000D02*
X90174000Y-47892000D01*
X100334000Y-49416000D02*
X99318000Y-49416000D01*
X90682000Y-47384000D02*
X89666000Y-47384000D01*
D14*
X99300000Y-48400000D02*
G75*
G03*
X99300000Y-48400000I-4300000J0D01*
G01*
X99445000Y-48527000D02*
X102580000Y-48527000D01*
X103255000Y-47852000D02*
X103255000Y-46281000D01*
X102580000Y-45606000D02*
X98429000Y-45606000D01*
X102580000Y-45606000D02*
G75*
G02*
X103255000Y-46281000I0J-675000D01*
G01*
X103255000Y-47852000D02*
G75*
G02*
X102580000Y-48527000I-675000J0D01*
G01*
D16*
%TO.C,D6*%
X99826000Y-61924000D02*
X99826000Y-60908000D01*
X89666000Y-59384000D02*
X90682000Y-59384000D01*
X99318000Y-61416000D02*
X100334000Y-61416000D01*
D14*
X99300000Y-60400000D02*
G75*
G03*
X99300000Y-60400000I-4300000J0D01*
G01*
X90555000Y-60273000D02*
X87420000Y-60273000D01*
X86745000Y-60948000D02*
X86745000Y-62519000D01*
X87420000Y-63194000D02*
X91571000Y-63194000D01*
X87420000Y-63194000D02*
G75*
G02*
X86745000Y-62519000I0J675000D01*
G01*
X86745000Y-60948000D02*
G75*
G02*
X87420000Y-60273000I675000J0D01*
G01*
%TO.C,C1*%
X51260000Y-64987221D02*
X51260000Y-65312779D01*
X50240000Y-64987221D02*
X50240000Y-65312779D01*
%TO.C,C2*%
X87240000Y-64949721D02*
X87240000Y-65275279D01*
X88260000Y-64949721D02*
X88260000Y-65275279D01*
%TO.C,L1*%
X36640000Y-58102064D02*
X36640000Y-56897936D01*
X39360000Y-58102064D02*
X39360000Y-56897936D01*
%TO.C,L2*%
X89360000Y-58102064D02*
X89360000Y-56897936D01*
X86640000Y-58102064D02*
X86640000Y-56897936D01*
%TO.C,U1*%
X38370000Y-55010000D02*
X40800000Y-55010000D01*
X40130000Y-51940000D02*
X38370000Y-51940000D01*
%TO.C,U2*%
X88370000Y-55010000D02*
X90800000Y-55010000D01*
X90130000Y-51940000D02*
X88370000Y-51940000D01*
%TO.C,D1*%
X34000000Y-56750000D02*
X34000000Y-59950000D01*
X36000000Y-59950000D02*
X36000000Y-56750000D01*
X36000000Y-59950000D02*
X34000000Y-59950000D01*
%TO.C,D4*%
X86000000Y-59950000D02*
X84000000Y-59950000D01*
X86000000Y-59950000D02*
X86000000Y-56750000D01*
X84000000Y-56750000D02*
X84000000Y-59950000D01*
%TO.C,R1*%
X35710000Y-53303922D02*
X35710000Y-53821078D01*
X34290000Y-53303922D02*
X34290000Y-53821078D01*
%TO.C,R2*%
X84290000Y-53303922D02*
X84290000Y-53821078D01*
X85710000Y-53303922D02*
X85710000Y-53821078D01*
%TO.C,C5*%
X52760000Y-64987221D02*
X52760000Y-65312779D01*
X51740000Y-64987221D02*
X51740000Y-65312779D01*
%TO.C,C6*%
X89760000Y-64949721D02*
X89760000Y-65275279D01*
X88740000Y-64949721D02*
X88740000Y-65275279D01*
%TD*%
%TO.C,U4*%
D17*
X35523095Y-29737380D02*
X35523095Y-30546904D01*
X35570714Y-30642142D01*
X35618333Y-30689761D01*
X35713571Y-30737380D01*
X35904047Y-30737380D01*
X35999285Y-30689761D01*
X36046904Y-30642142D01*
X36094523Y-30546904D01*
X36094523Y-29737380D01*
X36999285Y-30070714D02*
X36999285Y-30737380D01*
X36761190Y-29689761D02*
X36523095Y-30404047D01*
X37142142Y-30404047D01*
%TO.C,REF\u002A\u002A*%
X34981666Y-30697380D02*
X34648333Y-30221190D01*
X34410238Y-30697380D02*
X34410238Y-29697380D01*
X34791190Y-29697380D01*
X34886428Y-29745000D01*
X34934047Y-29792619D01*
X34981666Y-29887857D01*
X34981666Y-30030714D01*
X34934047Y-30125952D01*
X34886428Y-30173571D01*
X34791190Y-30221190D01*
X34410238Y-30221190D01*
X35410238Y-30173571D02*
X35743571Y-30173571D01*
X35886428Y-30697380D02*
X35410238Y-30697380D01*
X35410238Y-29697380D01*
X35886428Y-29697380D01*
X36648333Y-30173571D02*
X36315000Y-30173571D01*
X36315000Y-30697380D02*
X36315000Y-29697380D01*
X36791190Y-29697380D01*
X37315000Y-29697380D02*
X37315000Y-29935476D01*
X37076904Y-29840238D02*
X37315000Y-29935476D01*
X37553095Y-29840238D01*
X37172142Y-30125952D02*
X37315000Y-29935476D01*
X37457857Y-30125952D01*
X38076904Y-29697380D02*
X38076904Y-29935476D01*
X37838809Y-29840238D02*
X38076904Y-29935476D01*
X38315000Y-29840238D01*
X37934047Y-30125952D02*
X38076904Y-29935476D01*
X38219761Y-30125952D01*
D15*
X33306666Y-80832380D02*
X32973333Y-80356190D01*
X32735238Y-80832380D02*
X32735238Y-79832380D01*
X33116190Y-79832380D01*
X33211428Y-79880000D01*
X33259047Y-79927619D01*
X33306666Y-80022857D01*
X33306666Y-80165714D01*
X33259047Y-80260952D01*
X33211428Y-80308571D01*
X33116190Y-80356190D01*
X32735238Y-80356190D01*
X33735238Y-80308571D02*
X34068571Y-80308571D01*
X34211428Y-80832380D02*
X33735238Y-80832380D01*
X33735238Y-79832380D01*
X34211428Y-79832380D01*
X34973333Y-80308571D02*
X34640000Y-80308571D01*
X34640000Y-80832380D02*
X34640000Y-79832380D01*
X35116190Y-79832380D01*
X35640000Y-79832380D02*
X35640000Y-80070476D01*
X35401904Y-79975238D02*
X35640000Y-80070476D01*
X35878095Y-79975238D01*
X35497142Y-80260952D02*
X35640000Y-80070476D01*
X35782857Y-80260952D01*
X36401904Y-79832380D02*
X36401904Y-80070476D01*
X36163809Y-79975238D02*
X36401904Y-80070476D01*
X36640000Y-79975238D01*
X36259047Y-80260952D02*
X36401904Y-80070476D01*
X36544761Y-80260952D01*
%TO.C,*%
%TO.C,REF\u002A\u002A*%
X91306666Y-31832380D02*
X90973333Y-31356190D01*
X90735238Y-31832380D02*
X90735238Y-30832380D01*
X91116190Y-30832380D01*
X91211428Y-30880000D01*
X91259047Y-30927619D01*
X91306666Y-31022857D01*
X91306666Y-31165714D01*
X91259047Y-31260952D01*
X91211428Y-31308571D01*
X91116190Y-31356190D01*
X90735238Y-31356190D01*
X91735238Y-31308571D02*
X92068571Y-31308571D01*
X92211428Y-31832380D02*
X91735238Y-31832380D01*
X91735238Y-30832380D01*
X92211428Y-30832380D01*
X92973333Y-31308571D02*
X92640000Y-31308571D01*
X92640000Y-31832380D02*
X92640000Y-30832380D01*
X93116190Y-30832380D01*
X93640000Y-30832380D02*
X93640000Y-31070476D01*
X93401904Y-30975238D02*
X93640000Y-31070476D01*
X93878095Y-30975238D01*
X93497142Y-31260952D02*
X93640000Y-31070476D01*
X93782857Y-31260952D01*
X94401904Y-30832380D02*
X94401904Y-31070476D01*
X94163809Y-30975238D02*
X94401904Y-31070476D01*
X94640000Y-30975238D01*
X94259047Y-31260952D02*
X94401904Y-31070476D01*
X94544761Y-31260952D01*
X33306666Y-31832380D02*
X32973333Y-31356190D01*
X32735238Y-31832380D02*
X32735238Y-30832380D01*
X33116190Y-30832380D01*
X33211428Y-30880000D01*
X33259047Y-30927619D01*
X33306666Y-31022857D01*
X33306666Y-31165714D01*
X33259047Y-31260952D01*
X33211428Y-31308571D01*
X33116190Y-31356190D01*
X32735238Y-31356190D01*
X33735238Y-31308571D02*
X34068571Y-31308571D01*
X34211428Y-31832380D02*
X33735238Y-31832380D01*
X33735238Y-30832380D01*
X34211428Y-30832380D01*
X34973333Y-31308571D02*
X34640000Y-31308571D01*
X34640000Y-31832380D02*
X34640000Y-30832380D01*
X35116190Y-30832380D01*
X35640000Y-30832380D02*
X35640000Y-31070476D01*
X35401904Y-30975238D02*
X35640000Y-31070476D01*
X35878095Y-30975238D01*
X35497142Y-31260952D02*
X35640000Y-31070476D01*
X35782857Y-31260952D01*
X36401904Y-30832380D02*
X36401904Y-31070476D01*
X36163809Y-30975238D02*
X36401904Y-31070476D01*
X36640000Y-30975238D01*
X36259047Y-31260952D02*
X36401904Y-31070476D01*
X36544761Y-31260952D01*
%TO.C,J8*%
D17*
X116806209Y-36226758D02*
X117521951Y-36226758D01*
X117665099Y-36274474D01*
X117760532Y-36369906D01*
X117808248Y-36513054D01*
X117808248Y-36608487D01*
X117235654Y-35606448D02*
X117187938Y-35701880D01*
X117140222Y-35749596D01*
X117044790Y-35797312D01*
X116997073Y-35797312D01*
X116901641Y-35749596D01*
X116853925Y-35701880D01*
X116806209Y-35606448D01*
X116806209Y-35415583D01*
X116853925Y-35320151D01*
X116901641Y-35272435D01*
X116997073Y-35224719D01*
X117044790Y-35224719D01*
X117140222Y-35272435D01*
X117187938Y-35320151D01*
X117235654Y-35415583D01*
X117235654Y-35606448D01*
X117283370Y-35701880D01*
X117331086Y-35749596D01*
X117426519Y-35797312D01*
X117617383Y-35797312D01*
X117712816Y-35749596D01*
X117760532Y-35701880D01*
X117808248Y-35606448D01*
X117808248Y-35415583D01*
X117760532Y-35320151D01*
X117712816Y-35272435D01*
X117617383Y-35224719D01*
X117426519Y-35224719D01*
X117331086Y-35272435D01*
X117283370Y-35320151D01*
X117235654Y-35415583D01*
%TO.C,R13*%
D15*
X111302380Y-70682857D02*
X110826190Y-71016190D01*
X111302380Y-71254285D02*
X110302380Y-71254285D01*
X110302380Y-70873333D01*
X110350000Y-70778095D01*
X110397619Y-70730476D01*
X110492857Y-70682857D01*
X110635714Y-70682857D01*
X110730952Y-70730476D01*
X110778571Y-70778095D01*
X110826190Y-70873333D01*
X110826190Y-71254285D01*
X111302380Y-69730476D02*
X111302380Y-70301904D01*
X111302380Y-70016190D02*
X110302380Y-70016190D01*
X110445238Y-70111428D01*
X110540476Y-70206666D01*
X110588095Y-70301904D01*
X110302380Y-69397142D02*
X110302380Y-68778095D01*
X110683333Y-69111428D01*
X110683333Y-68968571D01*
X110730952Y-68873333D01*
X110778571Y-68825714D01*
X110873809Y-68778095D01*
X111111904Y-68778095D01*
X111207142Y-68825714D01*
X111254761Y-68873333D01*
X111302380Y-68968571D01*
X111302380Y-69254285D01*
X111254761Y-69349523D01*
X111207142Y-69397142D01*
%TO.C,R12*%
X108002380Y-74492857D02*
X107526190Y-74826190D01*
X108002380Y-75064285D02*
X107002380Y-75064285D01*
X107002380Y-74683333D01*
X107050000Y-74588095D01*
X107097619Y-74540476D01*
X107192857Y-74492857D01*
X107335714Y-74492857D01*
X107430952Y-74540476D01*
X107478571Y-74588095D01*
X107526190Y-74683333D01*
X107526190Y-75064285D01*
X108002380Y-73540476D02*
X108002380Y-74111904D01*
X108002380Y-73826190D02*
X107002380Y-73826190D01*
X107145238Y-73921428D01*
X107240476Y-74016666D01*
X107288095Y-74111904D01*
X107097619Y-73159523D02*
X107050000Y-73111904D01*
X107002380Y-73016666D01*
X107002380Y-72778571D01*
X107050000Y-72683333D01*
X107097619Y-72635714D01*
X107192857Y-72588095D01*
X107288095Y-72588095D01*
X107430952Y-72635714D01*
X108002380Y-73207142D01*
X108002380Y-72588095D01*
%TO.C,M1*%
X89792380Y-74659523D02*
X88792380Y-74659523D01*
X89506666Y-74326190D01*
X88792380Y-73992857D01*
X89792380Y-73992857D01*
X89792380Y-72992857D02*
X89792380Y-73564285D01*
X89792380Y-73278571D02*
X88792380Y-73278571D01*
X88935238Y-73373809D01*
X89030476Y-73469047D01*
X89078095Y-73564285D01*
%TO.C,J6*%
X111406666Y-76132380D02*
X111406666Y-76846666D01*
X111359047Y-76989523D01*
X111263809Y-77084761D01*
X111120952Y-77132380D01*
X111025714Y-77132380D01*
X112311428Y-76132380D02*
X112120952Y-76132380D01*
X112025714Y-76180000D01*
X111978095Y-76227619D01*
X111882857Y-76370476D01*
X111835238Y-76560952D01*
X111835238Y-76941904D01*
X111882857Y-77037142D01*
X111930476Y-77084761D01*
X112025714Y-77132380D01*
X112216190Y-77132380D01*
X112311428Y-77084761D01*
X112359047Y-77037142D01*
X112406666Y-76941904D01*
X112406666Y-76703809D01*
X112359047Y-76608571D01*
X112311428Y-76560952D01*
X112216190Y-76513333D01*
X112025714Y-76513333D01*
X111930476Y-76560952D01*
X111882857Y-76608571D01*
X111835238Y-76703809D01*
%TO.C,U3*%
X44698095Y-80907380D02*
X44698095Y-81716904D01*
X44745714Y-81812142D01*
X44793333Y-81859761D01*
X44888571Y-81907380D01*
X45079047Y-81907380D01*
X45174285Y-81859761D01*
X45221904Y-81812142D01*
X45269523Y-81716904D01*
X45269523Y-80907380D01*
X45650476Y-80907380D02*
X46269523Y-80907380D01*
X45936190Y-81288333D01*
X46079047Y-81288333D01*
X46174285Y-81335952D01*
X46221904Y-81383571D01*
X46269523Y-81478809D01*
X46269523Y-81716904D01*
X46221904Y-81812142D01*
X46174285Y-81859761D01*
X46079047Y-81907380D01*
X45793333Y-81907380D01*
X45698095Y-81859761D01*
X45650476Y-81812142D01*
%TO.C,R11*%
X37437142Y-79222380D02*
X37103809Y-78746190D01*
X36865714Y-79222380D02*
X36865714Y-78222380D01*
X37246666Y-78222380D01*
X37341904Y-78270000D01*
X37389523Y-78317619D01*
X37437142Y-78412857D01*
X37437142Y-78555714D01*
X37389523Y-78650952D01*
X37341904Y-78698571D01*
X37246666Y-78746190D01*
X36865714Y-78746190D01*
X38389523Y-79222380D02*
X37818095Y-79222380D01*
X38103809Y-79222380D02*
X38103809Y-78222380D01*
X38008571Y-78365238D01*
X37913333Y-78460476D01*
X37818095Y-78508095D01*
X39341904Y-79222380D02*
X38770476Y-79222380D01*
X39056190Y-79222380D02*
X39056190Y-78222380D01*
X38960952Y-78365238D01*
X38865714Y-78460476D01*
X38770476Y-78508095D01*
%TO.C,R10*%
X36152380Y-78302857D02*
X35676190Y-78636190D01*
X36152380Y-78874285D02*
X35152380Y-78874285D01*
X35152380Y-78493333D01*
X35200000Y-78398095D01*
X35247619Y-78350476D01*
X35342857Y-78302857D01*
X35485714Y-78302857D01*
X35580952Y-78350476D01*
X35628571Y-78398095D01*
X35676190Y-78493333D01*
X35676190Y-78874285D01*
X36152380Y-77350476D02*
X36152380Y-77921904D01*
X36152380Y-77636190D02*
X35152380Y-77636190D01*
X35295238Y-77731428D01*
X35390476Y-77826666D01*
X35438095Y-77921904D01*
X35152380Y-76731428D02*
X35152380Y-76636190D01*
X35200000Y-76540952D01*
X35247619Y-76493333D01*
X35342857Y-76445714D01*
X35533333Y-76398095D01*
X35771428Y-76398095D01*
X35961904Y-76445714D01*
X36057142Y-76493333D01*
X36104761Y-76540952D01*
X36152380Y-76636190D01*
X36152380Y-76731428D01*
X36104761Y-76826666D01*
X36057142Y-76874285D01*
X35961904Y-76921904D01*
X35771428Y-76969523D01*
X35533333Y-76969523D01*
X35342857Y-76921904D01*
X35247619Y-76874285D01*
X35200000Y-76826666D01*
X35152380Y-76731428D01*
%TO.C,R9*%
X45533333Y-75952380D02*
X45200000Y-75476190D01*
X44961904Y-75952380D02*
X44961904Y-74952380D01*
X45342857Y-74952380D01*
X45438095Y-75000000D01*
X45485714Y-75047619D01*
X45533333Y-75142857D01*
X45533333Y-75285714D01*
X45485714Y-75380952D01*
X45438095Y-75428571D01*
X45342857Y-75476190D01*
X44961904Y-75476190D01*
X46009523Y-75952380D02*
X46200000Y-75952380D01*
X46295238Y-75904761D01*
X46342857Y-75857142D01*
X46438095Y-75714285D01*
X46485714Y-75523809D01*
X46485714Y-75142857D01*
X46438095Y-75047619D01*
X46390476Y-75000000D01*
X46295238Y-74952380D01*
X46104761Y-74952380D01*
X46009523Y-75000000D01*
X45961904Y-75047619D01*
X45914285Y-75142857D01*
X45914285Y-75380952D01*
X45961904Y-75476190D01*
X46009523Y-75523809D01*
X46104761Y-75571428D01*
X46295238Y-75571428D01*
X46390476Y-75523809D01*
X46438095Y-75476190D01*
X46485714Y-75380952D01*
%TO.C,L3*%
X42122380Y-74336666D02*
X42122380Y-74812857D01*
X41122380Y-74812857D01*
X41122380Y-74098571D02*
X41122380Y-73479523D01*
X41503333Y-73812857D01*
X41503333Y-73670000D01*
X41550952Y-73574761D01*
X41598571Y-73527142D01*
X41693809Y-73479523D01*
X41931904Y-73479523D01*
X42027142Y-73527142D01*
X42074761Y-73574761D01*
X42122380Y-73670000D01*
X42122380Y-73955714D01*
X42074761Y-74050952D01*
X42027142Y-74098571D01*
%TO.C,J5*%
X111406666Y-72322380D02*
X111406666Y-73036666D01*
X111359047Y-73179523D01*
X111263809Y-73274761D01*
X111120952Y-73322380D01*
X111025714Y-73322380D01*
X112359047Y-72322380D02*
X111882857Y-72322380D01*
X111835238Y-72798571D01*
X111882857Y-72750952D01*
X111978095Y-72703333D01*
X112216190Y-72703333D01*
X112311428Y-72750952D01*
X112359047Y-72798571D01*
X112406666Y-72893809D01*
X112406666Y-73131904D01*
X112359047Y-73227142D01*
X112311428Y-73274761D01*
X112216190Y-73322380D01*
X111978095Y-73322380D01*
X111882857Y-73274761D01*
X111835238Y-73227142D01*
%TO.C,D9*%
X50041904Y-67792380D02*
X50041904Y-66792380D01*
X50280000Y-66792380D01*
X50422857Y-66840000D01*
X50518095Y-66935238D01*
X50565714Y-67030476D01*
X50613333Y-67220952D01*
X50613333Y-67363809D01*
X50565714Y-67554285D01*
X50518095Y-67649523D01*
X50422857Y-67744761D01*
X50280000Y-67792380D01*
X50041904Y-67792380D01*
X51089523Y-67792380D02*
X51280000Y-67792380D01*
X51375238Y-67744761D01*
X51422857Y-67697142D01*
X51518095Y-67554285D01*
X51565714Y-67363809D01*
X51565714Y-66982857D01*
X51518095Y-66887619D01*
X51470476Y-66840000D01*
X51375238Y-66792380D01*
X51184761Y-66792380D01*
X51089523Y-66840000D01*
X51041904Y-66887619D01*
X50994285Y-66982857D01*
X50994285Y-67220952D01*
X51041904Y-67316190D01*
X51089523Y-67363809D01*
X51184761Y-67411428D01*
X51375238Y-67411428D01*
X51470476Y-67363809D01*
X51518095Y-67316190D01*
X51565714Y-67220952D01*
%TO.C,C12*%
X36187142Y-76067142D02*
X36139523Y-76114761D01*
X35996666Y-76162380D01*
X35901428Y-76162380D01*
X35758571Y-76114761D01*
X35663333Y-76019523D01*
X35615714Y-75924285D01*
X35568095Y-75733809D01*
X35568095Y-75590952D01*
X35615714Y-75400476D01*
X35663333Y-75305238D01*
X35758571Y-75210000D01*
X35901428Y-75162380D01*
X35996666Y-75162380D01*
X36139523Y-75210000D01*
X36187142Y-75257619D01*
X37139523Y-76162380D02*
X36568095Y-76162380D01*
X36853809Y-76162380D02*
X36853809Y-75162380D01*
X36758571Y-75305238D01*
X36663333Y-75400476D01*
X36568095Y-75448095D01*
X37520476Y-75257619D02*
X37568095Y-75210000D01*
X37663333Y-75162380D01*
X37901428Y-75162380D01*
X37996666Y-75210000D01*
X38044285Y-75257619D01*
X38091904Y-75352857D01*
X38091904Y-75448095D01*
X38044285Y-75590952D01*
X37472857Y-76162380D01*
X38091904Y-76162380D01*
%TO.C,C11*%
X52787142Y-78302857D02*
X52834761Y-78350476D01*
X52882380Y-78493333D01*
X52882380Y-78588571D01*
X52834761Y-78731428D01*
X52739523Y-78826666D01*
X52644285Y-78874285D01*
X52453809Y-78921904D01*
X52310952Y-78921904D01*
X52120476Y-78874285D01*
X52025238Y-78826666D01*
X51930000Y-78731428D01*
X51882380Y-78588571D01*
X51882380Y-78493333D01*
X51930000Y-78350476D01*
X51977619Y-78302857D01*
X52882380Y-77350476D02*
X52882380Y-77921904D01*
X52882380Y-77636190D02*
X51882380Y-77636190D01*
X52025238Y-77731428D01*
X52120476Y-77826666D01*
X52168095Y-77921904D01*
X52882380Y-76398095D02*
X52882380Y-76969523D01*
X52882380Y-76683809D02*
X51882380Y-76683809D01*
X52025238Y-76779047D01*
X52120476Y-76874285D01*
X52168095Y-76969523D01*
%TO.C,C10*%
X37437142Y-78397142D02*
X37389523Y-78444761D01*
X37246666Y-78492380D01*
X37151428Y-78492380D01*
X37008571Y-78444761D01*
X36913333Y-78349523D01*
X36865714Y-78254285D01*
X36818095Y-78063809D01*
X36818095Y-77920952D01*
X36865714Y-77730476D01*
X36913333Y-77635238D01*
X37008571Y-77540000D01*
X37151428Y-77492380D01*
X37246666Y-77492380D01*
X37389523Y-77540000D01*
X37437142Y-77587619D01*
X38389523Y-78492380D02*
X37818095Y-78492380D01*
X38103809Y-78492380D02*
X38103809Y-77492380D01*
X38008571Y-77635238D01*
X37913333Y-77730476D01*
X37818095Y-77778095D01*
X39008571Y-77492380D02*
X39103809Y-77492380D01*
X39199047Y-77540000D01*
X39246666Y-77587619D01*
X39294285Y-77682857D01*
X39341904Y-77873333D01*
X39341904Y-78111428D01*
X39294285Y-78301904D01*
X39246666Y-78397142D01*
X39199047Y-78444761D01*
X39103809Y-78492380D01*
X39008571Y-78492380D01*
X38913333Y-78444761D01*
X38865714Y-78397142D01*
X38818095Y-78301904D01*
X38770476Y-78111428D01*
X38770476Y-77873333D01*
X38818095Y-77682857D01*
X38865714Y-77587619D01*
X38913333Y-77540000D01*
X39008571Y-77492380D01*
%TO.C,C9*%
X45778333Y-73317142D02*
X45730714Y-73364761D01*
X45587857Y-73412380D01*
X45492619Y-73412380D01*
X45349761Y-73364761D01*
X45254523Y-73269523D01*
X45206904Y-73174285D01*
X45159285Y-72983809D01*
X45159285Y-72840952D01*
X45206904Y-72650476D01*
X45254523Y-72555238D01*
X45349761Y-72460000D01*
X45492619Y-72412380D01*
X45587857Y-72412380D01*
X45730714Y-72460000D01*
X45778333Y-72507619D01*
X46254523Y-73412380D02*
X46445000Y-73412380D01*
X46540238Y-73364761D01*
X46587857Y-73317142D01*
X46683095Y-73174285D01*
X46730714Y-72983809D01*
X46730714Y-72602857D01*
X46683095Y-72507619D01*
X46635476Y-72460000D01*
X46540238Y-72412380D01*
X46349761Y-72412380D01*
X46254523Y-72460000D01*
X46206904Y-72507619D01*
X46159285Y-72602857D01*
X46159285Y-72840952D01*
X46206904Y-72936190D01*
X46254523Y-72983809D01*
X46349761Y-73031428D01*
X46540238Y-73031428D01*
X46635476Y-72983809D01*
X46683095Y-72936190D01*
X46730714Y-72840952D01*
%TO.C,C8*%
X51517142Y-72746666D02*
X51564761Y-72794285D01*
X51612380Y-72937142D01*
X51612380Y-73032380D01*
X51564761Y-73175238D01*
X51469523Y-73270476D01*
X51374285Y-73318095D01*
X51183809Y-73365714D01*
X51040952Y-73365714D01*
X50850476Y-73318095D01*
X50755238Y-73270476D01*
X50660000Y-73175238D01*
X50612380Y-73032380D01*
X50612380Y-72937142D01*
X50660000Y-72794285D01*
X50707619Y-72746666D01*
X51040952Y-72175238D02*
X50993333Y-72270476D01*
X50945714Y-72318095D01*
X50850476Y-72365714D01*
X50802857Y-72365714D01*
X50707619Y-72318095D01*
X50660000Y-72270476D01*
X50612380Y-72175238D01*
X50612380Y-71984761D01*
X50660000Y-71889523D01*
X50707619Y-71841904D01*
X50802857Y-71794285D01*
X50850476Y-71794285D01*
X50945714Y-71841904D01*
X50993333Y-71889523D01*
X51040952Y-71984761D01*
X51040952Y-72175238D01*
X51088571Y-72270476D01*
X51136190Y-72318095D01*
X51231428Y-72365714D01*
X51421904Y-72365714D01*
X51517142Y-72318095D01*
X51564761Y-72270476D01*
X51612380Y-72175238D01*
X51612380Y-71984761D01*
X51564761Y-71889523D01*
X51517142Y-71841904D01*
X51421904Y-71794285D01*
X51231428Y-71794285D01*
X51136190Y-71841904D01*
X51088571Y-71889523D01*
X51040952Y-71984761D01*
%TO.C,C7*%
X45778333Y-70777142D02*
X45730714Y-70824761D01*
X45587857Y-70872380D01*
X45492619Y-70872380D01*
X45349761Y-70824761D01*
X45254523Y-70729523D01*
X45206904Y-70634285D01*
X45159285Y-70443809D01*
X45159285Y-70300952D01*
X45206904Y-70110476D01*
X45254523Y-70015238D01*
X45349761Y-69920000D01*
X45492619Y-69872380D01*
X45587857Y-69872380D01*
X45730714Y-69920000D01*
X45778333Y-69967619D01*
X46111666Y-69872380D02*
X46778333Y-69872380D01*
X46349761Y-70872380D01*
%TO.C,D7*%
X86409523Y-42861904D02*
X86409523Y-42061904D01*
X86600000Y-42061904D01*
X86714285Y-42100000D01*
X86790476Y-42176190D01*
X86828571Y-42252380D01*
X86866666Y-42404761D01*
X86866666Y-42519047D01*
X86828571Y-42671428D01*
X86790476Y-42747619D01*
X86714285Y-42823809D01*
X86600000Y-42861904D01*
X86409523Y-42861904D01*
X87133333Y-42061904D02*
X87666666Y-42061904D01*
X87323809Y-42861904D01*
%TO.C,D8*%
X91409523Y-42861904D02*
X91409523Y-42061904D01*
X91600000Y-42061904D01*
X91714285Y-42100000D01*
X91790476Y-42176190D01*
X91828571Y-42252380D01*
X91866666Y-42404761D01*
X91866666Y-42519047D01*
X91828571Y-42671428D01*
X91790476Y-42747619D01*
X91714285Y-42823809D01*
X91600000Y-42861904D01*
X91409523Y-42861904D01*
X92323809Y-42404761D02*
X92247619Y-42366666D01*
X92209523Y-42328571D01*
X92171428Y-42252380D01*
X92171428Y-42214285D01*
X92209523Y-42138095D01*
X92247619Y-42100000D01*
X92323809Y-42061904D01*
X92476190Y-42061904D01*
X92552380Y-42100000D01*
X92590476Y-42138095D01*
X92628571Y-42214285D01*
X92628571Y-42252380D01*
X92590476Y-42328571D01*
X92552380Y-42366666D01*
X92476190Y-42404761D01*
X92323809Y-42404761D01*
X92247619Y-42442857D01*
X92209523Y-42480952D01*
X92171428Y-42557142D01*
X92171428Y-42709523D01*
X92209523Y-42785714D01*
X92247619Y-42823809D01*
X92323809Y-42861904D01*
X92476190Y-42861904D01*
X92552380Y-42823809D01*
X92590476Y-42785714D01*
X92628571Y-42709523D01*
X92628571Y-42557142D01*
X92590476Y-42480952D01*
X92552380Y-42442857D01*
X92476190Y-42404761D01*
%TO.C,D2*%
X50909523Y-44861904D02*
X50909523Y-44061904D01*
X51100000Y-44061904D01*
X51214285Y-44100000D01*
X51290476Y-44176190D01*
X51328571Y-44252380D01*
X51366666Y-44404761D01*
X51366666Y-44519047D01*
X51328571Y-44671428D01*
X51290476Y-44747619D01*
X51214285Y-44823809D01*
X51100000Y-44861904D01*
X50909523Y-44861904D01*
X51671428Y-44138095D02*
X51709523Y-44100000D01*
X51785714Y-44061904D01*
X51976190Y-44061904D01*
X52052380Y-44100000D01*
X52090476Y-44138095D01*
X52128571Y-44214285D01*
X52128571Y-44290476D01*
X52090476Y-44404761D01*
X51633333Y-44861904D01*
X52128571Y-44861904D01*
%TO.C,D3*%
X50659523Y-56861904D02*
X50659523Y-56061904D01*
X50850000Y-56061904D01*
X50964285Y-56100000D01*
X51040476Y-56176190D01*
X51078571Y-56252380D01*
X51116666Y-56404761D01*
X51116666Y-56519047D01*
X51078571Y-56671428D01*
X51040476Y-56747619D01*
X50964285Y-56823809D01*
X50850000Y-56861904D01*
X50659523Y-56861904D01*
X51383333Y-56061904D02*
X51878571Y-56061904D01*
X51611904Y-56366666D01*
X51726190Y-56366666D01*
X51802380Y-56404761D01*
X51840476Y-56442857D01*
X51878571Y-56519047D01*
X51878571Y-56709523D01*
X51840476Y-56785714D01*
X51802380Y-56823809D01*
X51726190Y-56861904D01*
X51497619Y-56861904D01*
X51421428Y-56823809D01*
X51383333Y-56785714D01*
%TO.C,D5*%
X100909523Y-44861904D02*
X100909523Y-44061904D01*
X101100000Y-44061904D01*
X101214285Y-44100000D01*
X101290476Y-44176190D01*
X101328571Y-44252380D01*
X101366666Y-44404761D01*
X101366666Y-44519047D01*
X101328571Y-44671428D01*
X101290476Y-44747619D01*
X101214285Y-44823809D01*
X101100000Y-44861904D01*
X100909523Y-44861904D01*
X102090476Y-44061904D02*
X101709523Y-44061904D01*
X101671428Y-44442857D01*
X101709523Y-44404761D01*
X101785714Y-44366666D01*
X101976190Y-44366666D01*
X102052380Y-44404761D01*
X102090476Y-44442857D01*
X102128571Y-44519047D01*
X102128571Y-44709523D01*
X102090476Y-44785714D01*
X102052380Y-44823809D01*
X101976190Y-44861904D01*
X101785714Y-44861904D01*
X101709523Y-44823809D01*
X101671428Y-44785714D01*
%TO.C,D6*%
X100659523Y-56861904D02*
X100659523Y-56061904D01*
X100850000Y-56061904D01*
X100964285Y-56100000D01*
X101040476Y-56176190D01*
X101078571Y-56252380D01*
X101116666Y-56404761D01*
X101116666Y-56519047D01*
X101078571Y-56671428D01*
X101040476Y-56747619D01*
X100964285Y-56823809D01*
X100850000Y-56861904D01*
X100659523Y-56861904D01*
X101802380Y-56061904D02*
X101650000Y-56061904D01*
X101573809Y-56100000D01*
X101535714Y-56138095D01*
X101459523Y-56252380D01*
X101421428Y-56404761D01*
X101421428Y-56709523D01*
X101459523Y-56785714D01*
X101497619Y-56823809D01*
X101573809Y-56861904D01*
X101726190Y-56861904D01*
X101802380Y-56823809D01*
X101840476Y-56785714D01*
X101878571Y-56709523D01*
X101878571Y-56519047D01*
X101840476Y-56442857D01*
X101802380Y-56404761D01*
X101726190Y-56366666D01*
X101573809Y-56366666D01*
X101497619Y-56404761D01*
X101459523Y-56442857D01*
X101421428Y-56519047D01*
%TO.C,R6*%
X37616666Y-44361904D02*
X37350000Y-43980952D01*
X37159523Y-44361904D02*
X37159523Y-43561904D01*
X37464285Y-43561904D01*
X37540476Y-43600000D01*
X37578571Y-43638095D01*
X37616666Y-43714285D01*
X37616666Y-43828571D01*
X37578571Y-43904761D01*
X37540476Y-43942857D01*
X37464285Y-43980952D01*
X37159523Y-43980952D01*
X38302380Y-43561904D02*
X38150000Y-43561904D01*
X38073809Y-43600000D01*
X38035714Y-43638095D01*
X37959523Y-43752380D01*
X37921428Y-43904761D01*
X37921428Y-44209523D01*
X37959523Y-44285714D01*
X37997619Y-44323809D01*
X38073809Y-44361904D01*
X38226190Y-44361904D01*
X38302380Y-44323809D01*
X38340476Y-44285714D01*
X38378571Y-44209523D01*
X38378571Y-44019047D01*
X38340476Y-43942857D01*
X38302380Y-43904761D01*
X38226190Y-43866666D01*
X38073809Y-43866666D01*
X37997619Y-43904761D01*
X37959523Y-43942857D01*
X37921428Y-44019047D01*
%TO.C,R5*%
X45361904Y-42383333D02*
X44980952Y-42650000D01*
X45361904Y-42840476D02*
X44561904Y-42840476D01*
X44561904Y-42535714D01*
X44600000Y-42459523D01*
X44638095Y-42421428D01*
X44714285Y-42383333D01*
X44828571Y-42383333D01*
X44904761Y-42421428D01*
X44942857Y-42459523D01*
X44980952Y-42535714D01*
X44980952Y-42840476D01*
X44561904Y-41659523D02*
X44561904Y-42040476D01*
X44942857Y-42078571D01*
X44904761Y-42040476D01*
X44866666Y-41964285D01*
X44866666Y-41773809D01*
X44904761Y-41697619D01*
X44942857Y-41659523D01*
X45019047Y-41621428D01*
X45209523Y-41621428D01*
X45285714Y-41659523D01*
X45323809Y-41697619D01*
X45361904Y-41773809D01*
X45361904Y-41964285D01*
X45323809Y-42040476D01*
X45285714Y-42078571D01*
%TO.C,C1*%
X49785714Y-65283333D02*
X49823809Y-65321428D01*
X49861904Y-65435714D01*
X49861904Y-65511904D01*
X49823809Y-65626190D01*
X49747619Y-65702380D01*
X49671428Y-65740476D01*
X49519047Y-65778571D01*
X49404761Y-65778571D01*
X49252380Y-65740476D01*
X49176190Y-65702380D01*
X49100000Y-65626190D01*
X49061904Y-65511904D01*
X49061904Y-65435714D01*
X49100000Y-65321428D01*
X49138095Y-65283333D01*
X49861904Y-64521428D02*
X49861904Y-64978571D01*
X49861904Y-64750000D02*
X49061904Y-64750000D01*
X49176190Y-64826190D01*
X49252380Y-64902380D01*
X49290476Y-64978571D01*
%TO.C,C2*%
X86785714Y-65245833D02*
X86823809Y-65283928D01*
X86861904Y-65398214D01*
X86861904Y-65474404D01*
X86823809Y-65588690D01*
X86747619Y-65664880D01*
X86671428Y-65702976D01*
X86519047Y-65741071D01*
X86404761Y-65741071D01*
X86252380Y-65702976D01*
X86176190Y-65664880D01*
X86100000Y-65588690D01*
X86061904Y-65474404D01*
X86061904Y-65398214D01*
X86100000Y-65283928D01*
X86138095Y-65245833D01*
X86138095Y-64941071D02*
X86100000Y-64902976D01*
X86061904Y-64826785D01*
X86061904Y-64636309D01*
X86100000Y-64560119D01*
X86138095Y-64522023D01*
X86214285Y-64483928D01*
X86290476Y-64483928D01*
X86404761Y-64522023D01*
X86861904Y-64979166D01*
X86861904Y-64483928D01*
%TO.C,L1*%
X40611904Y-57633333D02*
X40611904Y-58014285D01*
X39811904Y-58014285D01*
X40611904Y-56947619D02*
X40611904Y-57404761D01*
X40611904Y-57176190D02*
X39811904Y-57176190D01*
X39926190Y-57252380D01*
X40002380Y-57328571D01*
X40040476Y-57404761D01*
%TO.C,L2*%
X90611904Y-57633333D02*
X90611904Y-58014285D01*
X89811904Y-58014285D01*
X89888095Y-57404761D02*
X89850000Y-57366666D01*
X89811904Y-57290476D01*
X89811904Y-57100000D01*
X89850000Y-57023809D01*
X89888095Y-56985714D01*
X89964285Y-56947619D01*
X90040476Y-56947619D01*
X90154761Y-56985714D01*
X90611904Y-57442857D01*
X90611904Y-56947619D01*
%TO.C,R7*%
X102116666Y-41111904D02*
X101850000Y-40730952D01*
X101659523Y-41111904D02*
X101659523Y-40311904D01*
X101964285Y-40311904D01*
X102040476Y-40350000D01*
X102078571Y-40388095D01*
X102116666Y-40464285D01*
X102116666Y-40578571D01*
X102078571Y-40654761D01*
X102040476Y-40692857D01*
X101964285Y-40730952D01*
X101659523Y-40730952D01*
X102383333Y-40311904D02*
X102916666Y-40311904D01*
X102573809Y-41111904D01*
%TO.C,R8*%
X96116666Y-41111904D02*
X95850000Y-40730952D01*
X95659523Y-41111904D02*
X95659523Y-40311904D01*
X95964285Y-40311904D01*
X96040476Y-40350000D01*
X96078571Y-40388095D01*
X96116666Y-40464285D01*
X96116666Y-40578571D01*
X96078571Y-40654761D01*
X96040476Y-40692857D01*
X95964285Y-40730952D01*
X95659523Y-40730952D01*
X96573809Y-40654761D02*
X96497619Y-40616666D01*
X96459523Y-40578571D01*
X96421428Y-40502380D01*
X96421428Y-40464285D01*
X96459523Y-40388095D01*
X96497619Y-40350000D01*
X96573809Y-40311904D01*
X96726190Y-40311904D01*
X96802380Y-40350000D01*
X96840476Y-40388095D01*
X96878571Y-40464285D01*
X96878571Y-40502380D01*
X96840476Y-40578571D01*
X96802380Y-40616666D01*
X96726190Y-40654761D01*
X96573809Y-40654761D01*
X96497619Y-40692857D01*
X96459523Y-40730952D01*
X96421428Y-40807142D01*
X96421428Y-40959523D01*
X96459523Y-41035714D01*
X96497619Y-41073809D01*
X96573809Y-41111904D01*
X96726190Y-41111904D01*
X96802380Y-41073809D01*
X96840476Y-41035714D01*
X96878571Y-40959523D01*
X96878571Y-40807142D01*
X96840476Y-40730952D01*
X96802380Y-40692857D01*
X96726190Y-40654761D01*
%TO.C,R3*%
X83351666Y-42361904D02*
X83085000Y-41980952D01*
X82894523Y-42361904D02*
X82894523Y-41561904D01*
X83199285Y-41561904D01*
X83275476Y-41600000D01*
X83313571Y-41638095D01*
X83351666Y-41714285D01*
X83351666Y-41828571D01*
X83313571Y-41904761D01*
X83275476Y-41942857D01*
X83199285Y-41980952D01*
X82894523Y-41980952D01*
X83618333Y-41561904D02*
X84113571Y-41561904D01*
X83846904Y-41866666D01*
X83961190Y-41866666D01*
X84037380Y-41904761D01*
X84075476Y-41942857D01*
X84113571Y-42019047D01*
X84113571Y-42209523D01*
X84075476Y-42285714D01*
X84037380Y-42323809D01*
X83961190Y-42361904D01*
X83732619Y-42361904D01*
X83656428Y-42323809D01*
X83618333Y-42285714D01*
%TO.C,R4*%
X94866666Y-43111904D02*
X94600000Y-42730952D01*
X94409523Y-43111904D02*
X94409523Y-42311904D01*
X94714285Y-42311904D01*
X94790476Y-42350000D01*
X94828571Y-42388095D01*
X94866666Y-42464285D01*
X94866666Y-42578571D01*
X94828571Y-42654761D01*
X94790476Y-42692857D01*
X94714285Y-42730952D01*
X94409523Y-42730952D01*
X95552380Y-42578571D02*
X95552380Y-43111904D01*
X95361904Y-42273809D02*
X95171428Y-42845238D01*
X95666666Y-42845238D01*
%TO.C,U1*%
X41561904Y-54109523D02*
X42209523Y-54109523D01*
X42285714Y-54071428D01*
X42323809Y-54033333D01*
X42361904Y-53957142D01*
X42361904Y-53804761D01*
X42323809Y-53728571D01*
X42285714Y-53690476D01*
X42209523Y-53652380D01*
X41561904Y-53652380D01*
X42361904Y-52852380D02*
X42361904Y-53309523D01*
X42361904Y-53080952D02*
X41561904Y-53080952D01*
X41676190Y-53157142D01*
X41752380Y-53233333D01*
X41790476Y-53309523D01*
%TO.C,U2*%
X91811904Y-54109523D02*
X92459523Y-54109523D01*
X92535714Y-54071428D01*
X92573809Y-54033333D01*
X92611904Y-53957142D01*
X92611904Y-53804761D01*
X92573809Y-53728571D01*
X92535714Y-53690476D01*
X92459523Y-53652380D01*
X91811904Y-53652380D01*
X91888095Y-53309523D02*
X91850000Y-53271428D01*
X91811904Y-53195238D01*
X91811904Y-53004761D01*
X91850000Y-52928571D01*
X91888095Y-52890476D01*
X91964285Y-52852380D01*
X92040476Y-52852380D01*
X92154761Y-52890476D01*
X92611904Y-53347619D01*
X92611904Y-52852380D01*
%TO.C,C3*%
X36785714Y-52504880D02*
X36823809Y-52542976D01*
X36861904Y-52657261D01*
X36861904Y-52733452D01*
X36823809Y-52847738D01*
X36747619Y-52923928D01*
X36671428Y-52962023D01*
X36519047Y-53000119D01*
X36404761Y-53000119D01*
X36252380Y-52962023D01*
X36176190Y-52923928D01*
X36100000Y-52847738D01*
X36061904Y-52733452D01*
X36061904Y-52657261D01*
X36100000Y-52542976D01*
X36138095Y-52504880D01*
X36061904Y-52238214D02*
X36061904Y-51742976D01*
X36366666Y-52009642D01*
X36366666Y-51895357D01*
X36404761Y-51819166D01*
X36442857Y-51781071D01*
X36519047Y-51742976D01*
X36709523Y-51742976D01*
X36785714Y-51781071D01*
X36823809Y-51819166D01*
X36861904Y-51895357D01*
X36861904Y-52123928D01*
X36823809Y-52200119D01*
X36785714Y-52238214D01*
%TO.C,C4*%
X86785714Y-52618333D02*
X86823809Y-52656428D01*
X86861904Y-52770714D01*
X86861904Y-52846904D01*
X86823809Y-52961190D01*
X86747619Y-53037380D01*
X86671428Y-53075476D01*
X86519047Y-53113571D01*
X86404761Y-53113571D01*
X86252380Y-53075476D01*
X86176190Y-53037380D01*
X86100000Y-52961190D01*
X86061904Y-52846904D01*
X86061904Y-52770714D01*
X86100000Y-52656428D01*
X86138095Y-52618333D01*
X86328571Y-51932619D02*
X86861904Y-51932619D01*
X86023809Y-52123095D02*
X86595238Y-52313571D01*
X86595238Y-51818333D01*
%TO.C,D1*%
X34409523Y-61361904D02*
X34409523Y-60561904D01*
X34600000Y-60561904D01*
X34714285Y-60600000D01*
X34790476Y-60676190D01*
X34828571Y-60752380D01*
X34866666Y-60904761D01*
X34866666Y-61019047D01*
X34828571Y-61171428D01*
X34790476Y-61247619D01*
X34714285Y-61323809D01*
X34600000Y-61361904D01*
X34409523Y-61361904D01*
X35628571Y-61361904D02*
X35171428Y-61361904D01*
X35400000Y-61361904D02*
X35400000Y-60561904D01*
X35323809Y-60676190D01*
X35247619Y-60752380D01*
X35171428Y-60790476D01*
%TO.C,D4*%
X84409523Y-61361904D02*
X84409523Y-60561904D01*
X84600000Y-60561904D01*
X84714285Y-60600000D01*
X84790476Y-60676190D01*
X84828571Y-60752380D01*
X84866666Y-60904761D01*
X84866666Y-61019047D01*
X84828571Y-61171428D01*
X84790476Y-61247619D01*
X84714285Y-61323809D01*
X84600000Y-61361904D01*
X84409523Y-61361904D01*
X85552380Y-60828571D02*
X85552380Y-61361904D01*
X85361904Y-60523809D02*
X85171428Y-61095238D01*
X85666666Y-61095238D01*
%TO.C,R1*%
X34866666Y-51611904D02*
X34600000Y-51230952D01*
X34409523Y-51611904D02*
X34409523Y-50811904D01*
X34714285Y-50811904D01*
X34790476Y-50850000D01*
X34828571Y-50888095D01*
X34866666Y-50964285D01*
X34866666Y-51078571D01*
X34828571Y-51154761D01*
X34790476Y-51192857D01*
X34714285Y-51230952D01*
X34409523Y-51230952D01*
X35628571Y-51611904D02*
X35171428Y-51611904D01*
X35400000Y-51611904D02*
X35400000Y-50811904D01*
X35323809Y-50926190D01*
X35247619Y-51002380D01*
X35171428Y-51040476D01*
%TO.C,R2*%
X84866666Y-51611904D02*
X84600000Y-51230952D01*
X84409523Y-51611904D02*
X84409523Y-50811904D01*
X84714285Y-50811904D01*
X84790476Y-50850000D01*
X84828571Y-50888095D01*
X84866666Y-50964285D01*
X84866666Y-51078571D01*
X84828571Y-51154761D01*
X84790476Y-51192857D01*
X84714285Y-51230952D01*
X84409523Y-51230952D01*
X85171428Y-50888095D02*
X85209523Y-50850000D01*
X85285714Y-50811904D01*
X85476190Y-50811904D01*
X85552380Y-50850000D01*
X85590476Y-50888095D01*
X85628571Y-50964285D01*
X85628571Y-51040476D01*
X85590476Y-51154761D01*
X85133333Y-51611904D01*
X85628571Y-51611904D01*
%TO.C,C5*%
X53785714Y-65283333D02*
X53823809Y-65321428D01*
X53861904Y-65435714D01*
X53861904Y-65511904D01*
X53823809Y-65626190D01*
X53747619Y-65702380D01*
X53671428Y-65740476D01*
X53519047Y-65778571D01*
X53404761Y-65778571D01*
X53252380Y-65740476D01*
X53176190Y-65702380D01*
X53100000Y-65626190D01*
X53061904Y-65511904D01*
X53061904Y-65435714D01*
X53100000Y-65321428D01*
X53138095Y-65283333D01*
X53061904Y-64559523D02*
X53061904Y-64940476D01*
X53442857Y-64978571D01*
X53404761Y-64940476D01*
X53366666Y-64864285D01*
X53366666Y-64673809D01*
X53404761Y-64597619D01*
X53442857Y-64559523D01*
X53519047Y-64521428D01*
X53709523Y-64521428D01*
X53785714Y-64559523D01*
X53823809Y-64597619D01*
X53861904Y-64673809D01*
X53861904Y-64864285D01*
X53823809Y-64940476D01*
X53785714Y-64978571D01*
%TO.C,C6*%
X90785714Y-65245833D02*
X90823809Y-65283928D01*
X90861904Y-65398214D01*
X90861904Y-65474404D01*
X90823809Y-65588690D01*
X90747619Y-65664880D01*
X90671428Y-65702976D01*
X90519047Y-65741071D01*
X90404761Y-65741071D01*
X90252380Y-65702976D01*
X90176190Y-65664880D01*
X90100000Y-65588690D01*
X90061904Y-65474404D01*
X90061904Y-65398214D01*
X90100000Y-65283928D01*
X90138095Y-65245833D01*
X90061904Y-64560119D02*
X90061904Y-64712500D01*
X90100000Y-64788690D01*
X90138095Y-64826785D01*
X90252380Y-64902976D01*
X90404761Y-64941071D01*
X90709523Y-64941071D01*
X90785714Y-64902976D01*
X90823809Y-64864880D01*
X90861904Y-64788690D01*
X90861904Y-64636309D01*
X90823809Y-64560119D01*
X90785714Y-64522023D01*
X90709523Y-64483928D01*
X90519047Y-64483928D01*
X90442857Y-64522023D01*
X90404761Y-64560119D01*
X90366666Y-64636309D01*
X90366666Y-64788690D01*
X90404761Y-64864880D01*
X90442857Y-64902976D01*
X90519047Y-64941071D01*
%TD*%
M02*
