%TF.GenerationSoftware,KiCad,Pcbnew,(5.1.6)-1*%
%TF.CreationDate,2020-10-25T21:11:49+03:00*%
%TF.ProjectId,ledboard,6c656462-6f61-4726-942e-6b696361645f,v0.4.0*%
%TF.SameCoordinates,Original*%
%TF.FileFunction,Legend,Top*%
%TF.FilePolarity,Positive*%
%FSLAX46Y46*%
G04 Gerber Fmt 4.6, Leading zero omitted, Abs format (unit mm)*
G04 Created by KiCad (PCBNEW (5.1.6)-1) date 2020-10-25 21:11:49*
%MOMM*%
%LPD*%
G01*
G04 APERTURE LIST*
%TA.AperFunction,Profile*%
%ADD10C,0.050000*%
%TD*%
%ADD11C,0.127000*%
%ADD12C,0.200000*%
%ADD13C,0.120000*%
%ADD14C,0.150000*%
%ADD15C,0.100000*%
%ADD16C,0.015000*%
G04 APERTURE END LIST*
D10*
X119360000Y-91630000D02*
X119360000Y-30670000D01*
X30460000Y-91630000D02*
X119360000Y-91630000D01*
X30460000Y-30670000D02*
X30460000Y-91630000D01*
X119360000Y-30670000D02*
X30460000Y-30670000D01*
D11*
%TO.C,J8*%
X115840000Y-31940000D02*
X115840000Y-42100000D01*
X115840000Y-42100000D02*
X108640000Y-42100000D01*
X108640000Y-42100000D02*
X107640000Y-42100000D01*
X107640000Y-42100000D02*
X107640000Y-31940000D01*
X107640000Y-31940000D02*
X108640000Y-31940000D01*
X108640000Y-31940000D02*
X115840000Y-31940000D01*
X108640000Y-31940000D02*
X108640000Y-42100000D01*
%TO.C,U4*%
X31140000Y-34880000D02*
X31140000Y-84880000D01*
X34140000Y-87880000D02*
X113140000Y-87880000D01*
X116140000Y-84880000D02*
X116140000Y-34880000D01*
X113140000Y-31880000D02*
X34140000Y-31880000D01*
D12*
X30340000Y-36880000D02*
G75*
G03*
X30340000Y-36880000I-100000J0D01*
G01*
D11*
X31140000Y-84880000D02*
G75*
G03*
X34140000Y-87880000I3000000J0D01*
G01*
X113140000Y-87880000D02*
G75*
G03*
X116140000Y-84880000I0J3000000D01*
G01*
X116140000Y-34880000D02*
G75*
G03*
X113140000Y-31880000I-3000000J0D01*
G01*
X34140000Y-31880000D02*
G75*
G03*
X31140000Y-34880000I0J-3000000D01*
G01*
D13*
%TO.C,R13*%
X109910000Y-69778748D02*
X109910000Y-70301252D01*
X108490000Y-69778748D02*
X108490000Y-70301252D01*
%TO.C,R12*%
X108490000Y-74111252D02*
X108490000Y-73588748D01*
X109910000Y-74111252D02*
X109910000Y-73588748D01*
%TO.C,M1*%
X88340000Y-68730000D02*
X88340000Y-78970000D01*
X83699000Y-68730000D02*
X83699000Y-78970000D01*
X88340000Y-68730000D02*
X83699000Y-68730000D01*
X88340000Y-78970000D02*
X83699000Y-78970000D01*
X86830000Y-68730000D02*
X86830000Y-78970000D01*
X88340000Y-72000000D02*
X86830000Y-72000000D01*
X88340000Y-75701000D02*
X86830000Y-75701000D01*
%TO.C,J6*%
X112435000Y-73560000D02*
X112134493Y-73560000D01*
X111345507Y-73560000D02*
X111045000Y-73560000D01*
X112435000Y-74435000D02*
X112435000Y-73560000D01*
X111045000Y-74435000D02*
X111045000Y-73560000D01*
X112435000Y-74435000D02*
X112348276Y-74435000D01*
X111131724Y-74435000D02*
X111045000Y-74435000D01*
X112435000Y-75120000D02*
X112435000Y-75805000D01*
X112435000Y-75805000D02*
X111740000Y-75805000D01*
D14*
%TO.C,U3*%
X47535000Y-80530000D02*
X48835000Y-80530000D01*
X47535000Y-75580000D02*
X43385000Y-75580000D01*
X47535000Y-80730000D02*
X43385000Y-80730000D01*
X47535000Y-75580000D02*
X47535000Y-75780000D01*
X43385000Y-75580000D02*
X43385000Y-75780000D01*
X43385000Y-80730000D02*
X43385000Y-80530000D01*
X47535000Y-80730000D02*
X47535000Y-80530000D01*
D13*
%TO.C,R11*%
X37908733Y-80710000D02*
X38251267Y-80710000D01*
X37908733Y-79690000D02*
X38251267Y-79690000D01*
%TO.C,R10*%
X33760000Y-77488733D02*
X33760000Y-77831267D01*
X34780000Y-77488733D02*
X34780000Y-77831267D01*
%TO.C,R9*%
X45961252Y-73140000D02*
X45438748Y-73140000D01*
X45961252Y-74560000D02*
X45438748Y-74560000D01*
%TO.C,J5*%
X112435000Y-71995000D02*
X111740000Y-71995000D01*
X112435000Y-71310000D02*
X112435000Y-71995000D01*
X111131724Y-70625000D02*
X111045000Y-70625000D01*
X112435000Y-70625000D02*
X112348276Y-70625000D01*
X111045000Y-70625000D02*
X111045000Y-68750000D01*
X112435000Y-70625000D02*
X112435000Y-68750000D01*
X111345507Y-68750000D02*
X111045000Y-68750000D01*
X112435000Y-68750000D02*
X112134493Y-68750000D01*
%TO.C,D9*%
X49120000Y-69505000D02*
X51580000Y-69505000D01*
X49120000Y-68035000D02*
X49120000Y-69505000D01*
X51580000Y-68035000D02*
X49120000Y-68035000D01*
%TO.C,C12*%
X40015241Y-73464000D02*
X40015241Y-72834000D01*
X40330241Y-73149000D02*
X39700241Y-73149000D01*
X33589000Y-71712000D02*
X33589000Y-70908000D01*
X33629000Y-71943000D02*
X33629000Y-70677000D01*
X33669000Y-72112000D02*
X33669000Y-70508000D01*
X33709000Y-72250000D02*
X33709000Y-70370000D01*
X33749000Y-72369000D02*
X33749000Y-70251000D01*
X33789000Y-72475000D02*
X33789000Y-70145000D01*
X33829000Y-72572000D02*
X33829000Y-70048000D01*
X33869000Y-72660000D02*
X33869000Y-69960000D01*
X33909000Y-72742000D02*
X33909000Y-69878000D01*
X33949000Y-72819000D02*
X33949000Y-69801000D01*
X33989000Y-72891000D02*
X33989000Y-69729000D01*
X34029000Y-72960000D02*
X34029000Y-69660000D01*
X34069000Y-73024000D02*
X34069000Y-69596000D01*
X34109000Y-73086000D02*
X34109000Y-69534000D01*
X34149000Y-73144000D02*
X34149000Y-69476000D01*
X34189000Y-73200000D02*
X34189000Y-69420000D01*
X34229000Y-73254000D02*
X34229000Y-69366000D01*
X34269000Y-73305000D02*
X34269000Y-69315000D01*
X34309000Y-73354000D02*
X34309000Y-69266000D01*
X34349000Y-73402000D02*
X34349000Y-69218000D01*
X34389000Y-73447000D02*
X34389000Y-69173000D01*
X34429000Y-73492000D02*
X34429000Y-69128000D01*
X34469000Y-73534000D02*
X34469000Y-69086000D01*
X34509000Y-73575000D02*
X34509000Y-69045000D01*
X34549000Y-70270000D02*
X34549000Y-69005000D01*
X34549000Y-73615000D02*
X34549000Y-72350000D01*
X34589000Y-70270000D02*
X34589000Y-68967000D01*
X34589000Y-73653000D02*
X34589000Y-72350000D01*
X34629000Y-70270000D02*
X34629000Y-68930000D01*
X34629000Y-73690000D02*
X34629000Y-72350000D01*
X34669000Y-70270000D02*
X34669000Y-68894000D01*
X34669000Y-73726000D02*
X34669000Y-72350000D01*
X34709000Y-70270000D02*
X34709000Y-68860000D01*
X34709000Y-73760000D02*
X34709000Y-72350000D01*
X34749000Y-70270000D02*
X34749000Y-68826000D01*
X34749000Y-73794000D02*
X34749000Y-72350000D01*
X34789000Y-70270000D02*
X34789000Y-68794000D01*
X34789000Y-73826000D02*
X34789000Y-72350000D01*
X34829000Y-70270000D02*
X34829000Y-68762000D01*
X34829000Y-73858000D02*
X34829000Y-72350000D01*
X34869000Y-70270000D02*
X34869000Y-68732000D01*
X34869000Y-73888000D02*
X34869000Y-72350000D01*
X34909000Y-70270000D02*
X34909000Y-68703000D01*
X34909000Y-73917000D02*
X34909000Y-72350000D01*
X34949000Y-70270000D02*
X34949000Y-68674000D01*
X34949000Y-73946000D02*
X34949000Y-72350000D01*
X34989000Y-70270000D02*
X34989000Y-68646000D01*
X34989000Y-73974000D02*
X34989000Y-72350000D01*
X35029000Y-70270000D02*
X35029000Y-68620000D01*
X35029000Y-74000000D02*
X35029000Y-72350000D01*
X35069000Y-70270000D02*
X35069000Y-68594000D01*
X35069000Y-74026000D02*
X35069000Y-72350000D01*
X35109000Y-70270000D02*
X35109000Y-68568000D01*
X35109000Y-74052000D02*
X35109000Y-72350000D01*
X35149000Y-70270000D02*
X35149000Y-68544000D01*
X35149000Y-74076000D02*
X35149000Y-72350000D01*
X35189000Y-70270000D02*
X35189000Y-68520000D01*
X35189000Y-74100000D02*
X35189000Y-72350000D01*
X35229000Y-70270000D02*
X35229000Y-68498000D01*
X35229000Y-74122000D02*
X35229000Y-72350000D01*
X35269000Y-70270000D02*
X35269000Y-68476000D01*
X35269000Y-74144000D02*
X35269000Y-72350000D01*
X35309000Y-70270000D02*
X35309000Y-68454000D01*
X35309000Y-74166000D02*
X35309000Y-72350000D01*
X35349000Y-70270000D02*
X35349000Y-68434000D01*
X35349000Y-74186000D02*
X35349000Y-72350000D01*
X35389000Y-70270000D02*
X35389000Y-68414000D01*
X35389000Y-74206000D02*
X35389000Y-72350000D01*
X35429000Y-70270000D02*
X35429000Y-68394000D01*
X35429000Y-74226000D02*
X35429000Y-72350000D01*
X35469000Y-70270000D02*
X35469000Y-68376000D01*
X35469000Y-74244000D02*
X35469000Y-72350000D01*
X35509000Y-70270000D02*
X35509000Y-68358000D01*
X35509000Y-74262000D02*
X35509000Y-72350000D01*
X35549000Y-70270000D02*
X35549000Y-68340000D01*
X35549000Y-74280000D02*
X35549000Y-72350000D01*
X35589000Y-70270000D02*
X35589000Y-68324000D01*
X35589000Y-74296000D02*
X35589000Y-72350000D01*
X35629000Y-70270000D02*
X35629000Y-68308000D01*
X35629000Y-74312000D02*
X35629000Y-72350000D01*
X35669000Y-70270000D02*
X35669000Y-68292000D01*
X35669000Y-74328000D02*
X35669000Y-72350000D01*
X35709000Y-70270000D02*
X35709000Y-68277000D01*
X35709000Y-74343000D02*
X35709000Y-72350000D01*
X35749000Y-70270000D02*
X35749000Y-68263000D01*
X35749000Y-74357000D02*
X35749000Y-72350000D01*
X35789000Y-70270000D02*
X35789000Y-68249000D01*
X35789000Y-74371000D02*
X35789000Y-72350000D01*
X35829000Y-70270000D02*
X35829000Y-68236000D01*
X35829000Y-74384000D02*
X35829000Y-72350000D01*
X35869000Y-70270000D02*
X35869000Y-68224000D01*
X35869000Y-74396000D02*
X35869000Y-72350000D01*
X35909000Y-70270000D02*
X35909000Y-68212000D01*
X35909000Y-74408000D02*
X35909000Y-72350000D01*
X35949000Y-70270000D02*
X35949000Y-68200000D01*
X35949000Y-74420000D02*
X35949000Y-72350000D01*
X35989000Y-70270000D02*
X35989000Y-68189000D01*
X35989000Y-74431000D02*
X35989000Y-72350000D01*
X36029000Y-70270000D02*
X36029000Y-68179000D01*
X36029000Y-74441000D02*
X36029000Y-72350000D01*
X36069000Y-70270000D02*
X36069000Y-68169000D01*
X36069000Y-74451000D02*
X36069000Y-72350000D01*
X36109000Y-70270000D02*
X36109000Y-68160000D01*
X36109000Y-74460000D02*
X36109000Y-72350000D01*
X36150000Y-70270000D02*
X36150000Y-68151000D01*
X36150000Y-74469000D02*
X36150000Y-72350000D01*
X36190000Y-70270000D02*
X36190000Y-68143000D01*
X36190000Y-74477000D02*
X36190000Y-72350000D01*
X36230000Y-70270000D02*
X36230000Y-68135000D01*
X36230000Y-74485000D02*
X36230000Y-72350000D01*
X36270000Y-70270000D02*
X36270000Y-68128000D01*
X36270000Y-74492000D02*
X36270000Y-72350000D01*
X36310000Y-70270000D02*
X36310000Y-68121000D01*
X36310000Y-74499000D02*
X36310000Y-72350000D01*
X36350000Y-70270000D02*
X36350000Y-68115000D01*
X36350000Y-74505000D02*
X36350000Y-72350000D01*
X36390000Y-70270000D02*
X36390000Y-68109000D01*
X36390000Y-74511000D02*
X36390000Y-72350000D01*
X36430000Y-70270000D02*
X36430000Y-68104000D01*
X36430000Y-74516000D02*
X36430000Y-72350000D01*
X36470000Y-70270000D02*
X36470000Y-68099000D01*
X36470000Y-74521000D02*
X36470000Y-72350000D01*
X36510000Y-70270000D02*
X36510000Y-68095000D01*
X36510000Y-74525000D02*
X36510000Y-72350000D01*
X36550000Y-70270000D02*
X36550000Y-68092000D01*
X36550000Y-74528000D02*
X36550000Y-72350000D01*
X36590000Y-70270000D02*
X36590000Y-68088000D01*
X36590000Y-74532000D02*
X36590000Y-72350000D01*
X36630000Y-74534000D02*
X36630000Y-68086000D01*
X36670000Y-74537000D02*
X36670000Y-68083000D01*
X36710000Y-74538000D02*
X36710000Y-68082000D01*
X36750000Y-74540000D02*
X36750000Y-68080000D01*
X36790000Y-74540000D02*
X36790000Y-68080000D01*
X36830000Y-74540000D02*
X36830000Y-68080000D01*
X40100000Y-71310000D02*
G75*
G03*
X40100000Y-71310000I-3270000J0D01*
G01*
%TO.C,C11*%
X50070000Y-77398748D02*
X50070000Y-77921252D01*
X51490000Y-77398748D02*
X51490000Y-77921252D01*
%TO.C,C10*%
X38341252Y-75680000D02*
X37818748Y-75680000D01*
X38341252Y-77100000D02*
X37818748Y-77100000D01*
%TO.C,C9*%
X46206252Y-70600000D02*
X45683748Y-70600000D01*
X46206252Y-72020000D02*
X45683748Y-72020000D01*
%TO.C,C8*%
X48800000Y-72318748D02*
X48800000Y-72841252D01*
X50220000Y-72318748D02*
X50220000Y-72841252D01*
%TO.C,C7*%
X46206252Y-68060000D02*
X45683748Y-68060000D01*
X46206252Y-69480000D02*
X45683748Y-69480000D01*
D15*
%TO.C,D7*%
G36*
X87000000Y-41650000D02*
G01*
X86700000Y-41650000D01*
X86700000Y-40850000D01*
X87000000Y-40850000D01*
X87000000Y-41650000D01*
G37*
X87000000Y-41650000D02*
X86700000Y-41650000D01*
X86700000Y-40850000D01*
X87000000Y-40850000D01*
X87000000Y-41650000D01*
D13*
X86150000Y-40400000D02*
X86150000Y-40650000D01*
X87850000Y-40400000D02*
X86150000Y-40400000D01*
X87850000Y-40650000D02*
X87850000Y-40400000D01*
D15*
%TO.C,D8*%
G36*
X92000000Y-41650000D02*
G01*
X91700000Y-41650000D01*
X91700000Y-40850000D01*
X92000000Y-40850000D01*
X92000000Y-41650000D01*
G37*
X92000000Y-41650000D02*
X91700000Y-41650000D01*
X91700000Y-40850000D01*
X92000000Y-40850000D01*
X92000000Y-41650000D01*
D13*
X91150000Y-40400000D02*
X91150000Y-40650000D01*
X92850000Y-40400000D02*
X91150000Y-40400000D01*
X92850000Y-40650000D02*
X92850000Y-40400000D01*
%TO.C,D2*%
X52580000Y-45606000D02*
X48429000Y-45606000D01*
X53255000Y-47852000D02*
X53255000Y-46281000D01*
X49445000Y-48527000D02*
X52580000Y-48527000D01*
X49300000Y-48400000D02*
G75*
G03*
X49300000Y-48400000I-4300000J0D01*
G01*
D15*
X40682000Y-47384000D02*
X39666000Y-47384000D01*
X50334000Y-49416000D02*
X49318000Y-49416000D01*
X40174000Y-46876000D02*
X40174000Y-47892000D01*
D13*
X52580000Y-45606000D02*
G75*
G02*
X53255000Y-46281000I0J-675000D01*
G01*
X53255000Y-47852000D02*
G75*
G02*
X52580000Y-48527000I-675000J0D01*
G01*
%TO.C,D3*%
X37420000Y-63194000D02*
X41571000Y-63194000D01*
X36745000Y-60948000D02*
X36745000Y-62519000D01*
X40555000Y-60273000D02*
X37420000Y-60273000D01*
X49300000Y-60400000D02*
G75*
G03*
X49300000Y-60400000I-4300000J0D01*
G01*
D15*
X49318000Y-61416000D02*
X50334000Y-61416000D01*
X39666000Y-59384000D02*
X40682000Y-59384000D01*
X49826000Y-61924000D02*
X49826000Y-60908000D01*
D13*
X37420000Y-63194000D02*
G75*
G02*
X36745000Y-62519000I0J675000D01*
G01*
X36745000Y-60948000D02*
G75*
G02*
X37420000Y-60273000I675000J0D01*
G01*
%TO.C,D5*%
X102580000Y-45606000D02*
X98429000Y-45606000D01*
X103255000Y-47852000D02*
X103255000Y-46281000D01*
X99445000Y-48527000D02*
X102580000Y-48527000D01*
X99300000Y-48400000D02*
G75*
G03*
X99300000Y-48400000I-4300000J0D01*
G01*
D15*
X90682000Y-47384000D02*
X89666000Y-47384000D01*
X100334000Y-49416000D02*
X99318000Y-49416000D01*
X90174000Y-46876000D02*
X90174000Y-47892000D01*
D13*
X102580000Y-45606000D02*
G75*
G02*
X103255000Y-46281000I0J-675000D01*
G01*
X103255000Y-47852000D02*
G75*
G02*
X102580000Y-48527000I-675000J0D01*
G01*
%TO.C,D6*%
X87420000Y-63194000D02*
X91571000Y-63194000D01*
X86745000Y-60948000D02*
X86745000Y-62519000D01*
X90555000Y-60273000D02*
X87420000Y-60273000D01*
X99300000Y-60400000D02*
G75*
G03*
X99300000Y-60400000I-4300000J0D01*
G01*
D15*
X99318000Y-61416000D02*
X100334000Y-61416000D01*
X89666000Y-59384000D02*
X90682000Y-59384000D01*
X99826000Y-61924000D02*
X99826000Y-60908000D01*
D13*
X87420000Y-63194000D02*
G75*
G02*
X86745000Y-62519000I0J675000D01*
G01*
X86745000Y-60948000D02*
G75*
G02*
X87420000Y-60273000I675000J0D01*
G01*
%TO.C,C1*%
X50240000Y-64987221D02*
X50240000Y-65312779D01*
X51260000Y-64987221D02*
X51260000Y-65312779D01*
%TO.C,C2*%
X88260000Y-64949721D02*
X88260000Y-65275279D01*
X87240000Y-64949721D02*
X87240000Y-65275279D01*
%TO.C,L1*%
X39360000Y-58102064D02*
X39360000Y-56897936D01*
X36640000Y-58102064D02*
X36640000Y-56897936D01*
%TO.C,L2*%
X86640000Y-58102064D02*
X86640000Y-56897936D01*
X89360000Y-58102064D02*
X89360000Y-56897936D01*
%TO.C,U1*%
X40130000Y-51940000D02*
X38370000Y-51940000D01*
X38370000Y-55010000D02*
X40800000Y-55010000D01*
%TO.C,U2*%
X90130000Y-51940000D02*
X88370000Y-51940000D01*
X88370000Y-55010000D02*
X90800000Y-55010000D01*
%TO.C,D1*%
X36000000Y-59950000D02*
X34000000Y-59950000D01*
X36000000Y-59950000D02*
X36000000Y-56750000D01*
X34000000Y-56750000D02*
X34000000Y-59950000D01*
%TO.C,D4*%
X84000000Y-56750000D02*
X84000000Y-59950000D01*
X86000000Y-59950000D02*
X86000000Y-56750000D01*
X86000000Y-59950000D02*
X84000000Y-59950000D01*
%TO.C,R1*%
X34290000Y-53303922D02*
X34290000Y-53821078D01*
X35710000Y-53303922D02*
X35710000Y-53821078D01*
%TO.C,R2*%
X85710000Y-53303922D02*
X85710000Y-53821078D01*
X84290000Y-53303922D02*
X84290000Y-53821078D01*
%TO.C,C5*%
X51740000Y-64987221D02*
X51740000Y-65312779D01*
X52760000Y-64987221D02*
X52760000Y-65312779D01*
%TO.C,C6*%
X88740000Y-64949721D02*
X88740000Y-65275279D01*
X89760000Y-64949721D02*
X89760000Y-65275279D01*
%TD*%
%TO.C,J8*%
D16*
X116806209Y-36226758D02*
X117521951Y-36226758D01*
X117665099Y-36274474D01*
X117760532Y-36369906D01*
X117808248Y-36513054D01*
X117808248Y-36608487D01*
X117235654Y-35606448D02*
X117187938Y-35701880D01*
X117140222Y-35749596D01*
X117044790Y-35797312D01*
X116997073Y-35797312D01*
X116901641Y-35749596D01*
X116853925Y-35701880D01*
X116806209Y-35606448D01*
X116806209Y-35415583D01*
X116853925Y-35320151D01*
X116901641Y-35272435D01*
X116997073Y-35224719D01*
X117044790Y-35224719D01*
X117140222Y-35272435D01*
X117187938Y-35320151D01*
X117235654Y-35415583D01*
X117235654Y-35606448D01*
X117283370Y-35701880D01*
X117331086Y-35749596D01*
X117426519Y-35797312D01*
X117617383Y-35797312D01*
X117712816Y-35749596D01*
X117760532Y-35701880D01*
X117808248Y-35606448D01*
X117808248Y-35415583D01*
X117760532Y-35320151D01*
X117712816Y-35272435D01*
X117617383Y-35224719D01*
X117426519Y-35224719D01*
X117331086Y-35272435D01*
X117283370Y-35320151D01*
X117235654Y-35415583D01*
%TO.C,U4*%
X35553095Y-29697380D02*
X35553095Y-30506904D01*
X35600714Y-30602142D01*
X35648333Y-30649761D01*
X35743571Y-30697380D01*
X35934047Y-30697380D01*
X36029285Y-30649761D01*
X36076904Y-30602142D01*
X36124523Y-30506904D01*
X36124523Y-29697380D01*
X37029285Y-30030714D02*
X37029285Y-30697380D01*
X36791190Y-29649761D02*
X36553095Y-30364047D01*
X37172142Y-30364047D01*
%TO.C,R13*%
D14*
X111302380Y-70682857D02*
X110826190Y-71016190D01*
X111302380Y-71254285D02*
X110302380Y-71254285D01*
X110302380Y-70873333D01*
X110350000Y-70778095D01*
X110397619Y-70730476D01*
X110492857Y-70682857D01*
X110635714Y-70682857D01*
X110730952Y-70730476D01*
X110778571Y-70778095D01*
X110826190Y-70873333D01*
X110826190Y-71254285D01*
X111302380Y-69730476D02*
X111302380Y-70301904D01*
X111302380Y-70016190D02*
X110302380Y-70016190D01*
X110445238Y-70111428D01*
X110540476Y-70206666D01*
X110588095Y-70301904D01*
X110302380Y-69397142D02*
X110302380Y-68778095D01*
X110683333Y-69111428D01*
X110683333Y-68968571D01*
X110730952Y-68873333D01*
X110778571Y-68825714D01*
X110873809Y-68778095D01*
X111111904Y-68778095D01*
X111207142Y-68825714D01*
X111254761Y-68873333D01*
X111302380Y-68968571D01*
X111302380Y-69254285D01*
X111254761Y-69349523D01*
X111207142Y-69397142D01*
%TO.C,R12*%
X108002380Y-74492857D02*
X107526190Y-74826190D01*
X108002380Y-75064285D02*
X107002380Y-75064285D01*
X107002380Y-74683333D01*
X107050000Y-74588095D01*
X107097619Y-74540476D01*
X107192857Y-74492857D01*
X107335714Y-74492857D01*
X107430952Y-74540476D01*
X107478571Y-74588095D01*
X107526190Y-74683333D01*
X107526190Y-75064285D01*
X108002380Y-73540476D02*
X108002380Y-74111904D01*
X108002380Y-73826190D02*
X107002380Y-73826190D01*
X107145238Y-73921428D01*
X107240476Y-74016666D01*
X107288095Y-74111904D01*
X107097619Y-73159523D02*
X107050000Y-73111904D01*
X107002380Y-73016666D01*
X107002380Y-72778571D01*
X107050000Y-72683333D01*
X107097619Y-72635714D01*
X107192857Y-72588095D01*
X107288095Y-72588095D01*
X107430952Y-72635714D01*
X108002380Y-73207142D01*
X108002380Y-72588095D01*
%TO.C,M1*%
X89792380Y-74659523D02*
X88792380Y-74659523D01*
X89506666Y-74326190D01*
X88792380Y-73992857D01*
X89792380Y-73992857D01*
X89792380Y-72992857D02*
X89792380Y-73564285D01*
X89792380Y-73278571D02*
X88792380Y-73278571D01*
X88935238Y-73373809D01*
X89030476Y-73469047D01*
X89078095Y-73564285D01*
%TO.C,J6*%
X111406666Y-76132380D02*
X111406666Y-76846666D01*
X111359047Y-76989523D01*
X111263809Y-77084761D01*
X111120952Y-77132380D01*
X111025714Y-77132380D01*
X112311428Y-76132380D02*
X112120952Y-76132380D01*
X112025714Y-76180000D01*
X111978095Y-76227619D01*
X111882857Y-76370476D01*
X111835238Y-76560952D01*
X111835238Y-76941904D01*
X111882857Y-77037142D01*
X111930476Y-77084761D01*
X112025714Y-77132380D01*
X112216190Y-77132380D01*
X112311428Y-77084761D01*
X112359047Y-77037142D01*
X112406666Y-76941904D01*
X112406666Y-76703809D01*
X112359047Y-76608571D01*
X112311428Y-76560952D01*
X112216190Y-76513333D01*
X112025714Y-76513333D01*
X111930476Y-76560952D01*
X111882857Y-76608571D01*
X111835238Y-76703809D01*
%TO.C,U3*%
X44698095Y-80907380D02*
X44698095Y-81716904D01*
X44745714Y-81812142D01*
X44793333Y-81859761D01*
X44888571Y-81907380D01*
X45079047Y-81907380D01*
X45174285Y-81859761D01*
X45221904Y-81812142D01*
X45269523Y-81716904D01*
X45269523Y-80907380D01*
X45650476Y-80907380D02*
X46269523Y-80907380D01*
X45936190Y-81288333D01*
X46079047Y-81288333D01*
X46174285Y-81335952D01*
X46221904Y-81383571D01*
X46269523Y-81478809D01*
X46269523Y-81716904D01*
X46221904Y-81812142D01*
X46174285Y-81859761D01*
X46079047Y-81907380D01*
X45793333Y-81907380D01*
X45698095Y-81859761D01*
X45650476Y-81812142D01*
%TO.C,R11*%
X37437142Y-79222380D02*
X37103809Y-78746190D01*
X36865714Y-79222380D02*
X36865714Y-78222380D01*
X37246666Y-78222380D01*
X37341904Y-78270000D01*
X37389523Y-78317619D01*
X37437142Y-78412857D01*
X37437142Y-78555714D01*
X37389523Y-78650952D01*
X37341904Y-78698571D01*
X37246666Y-78746190D01*
X36865714Y-78746190D01*
X38389523Y-79222380D02*
X37818095Y-79222380D01*
X38103809Y-79222380D02*
X38103809Y-78222380D01*
X38008571Y-78365238D01*
X37913333Y-78460476D01*
X37818095Y-78508095D01*
X39341904Y-79222380D02*
X38770476Y-79222380D01*
X39056190Y-79222380D02*
X39056190Y-78222380D01*
X38960952Y-78365238D01*
X38865714Y-78460476D01*
X38770476Y-78508095D01*
%TO.C,R10*%
X36152380Y-78302857D02*
X35676190Y-78636190D01*
X36152380Y-78874285D02*
X35152380Y-78874285D01*
X35152380Y-78493333D01*
X35200000Y-78398095D01*
X35247619Y-78350476D01*
X35342857Y-78302857D01*
X35485714Y-78302857D01*
X35580952Y-78350476D01*
X35628571Y-78398095D01*
X35676190Y-78493333D01*
X35676190Y-78874285D01*
X36152380Y-77350476D02*
X36152380Y-77921904D01*
X36152380Y-77636190D02*
X35152380Y-77636190D01*
X35295238Y-77731428D01*
X35390476Y-77826666D01*
X35438095Y-77921904D01*
X35152380Y-76731428D02*
X35152380Y-76636190D01*
X35200000Y-76540952D01*
X35247619Y-76493333D01*
X35342857Y-76445714D01*
X35533333Y-76398095D01*
X35771428Y-76398095D01*
X35961904Y-76445714D01*
X36057142Y-76493333D01*
X36104761Y-76540952D01*
X36152380Y-76636190D01*
X36152380Y-76731428D01*
X36104761Y-76826666D01*
X36057142Y-76874285D01*
X35961904Y-76921904D01*
X35771428Y-76969523D01*
X35533333Y-76969523D01*
X35342857Y-76921904D01*
X35247619Y-76874285D01*
X35200000Y-76826666D01*
X35152380Y-76731428D01*
%TO.C,R9*%
X45533333Y-75952380D02*
X45200000Y-75476190D01*
X44961904Y-75952380D02*
X44961904Y-74952380D01*
X45342857Y-74952380D01*
X45438095Y-75000000D01*
X45485714Y-75047619D01*
X45533333Y-75142857D01*
X45533333Y-75285714D01*
X45485714Y-75380952D01*
X45438095Y-75428571D01*
X45342857Y-75476190D01*
X44961904Y-75476190D01*
X46009523Y-75952380D02*
X46200000Y-75952380D01*
X46295238Y-75904761D01*
X46342857Y-75857142D01*
X46438095Y-75714285D01*
X46485714Y-75523809D01*
X46485714Y-75142857D01*
X46438095Y-75047619D01*
X46390476Y-75000000D01*
X46295238Y-74952380D01*
X46104761Y-74952380D01*
X46009523Y-75000000D01*
X45961904Y-75047619D01*
X45914285Y-75142857D01*
X45914285Y-75380952D01*
X45961904Y-75476190D01*
X46009523Y-75523809D01*
X46104761Y-75571428D01*
X46295238Y-75571428D01*
X46390476Y-75523809D01*
X46438095Y-75476190D01*
X46485714Y-75380952D01*
%TO.C,L3*%
X42122380Y-74336666D02*
X42122380Y-74812857D01*
X41122380Y-74812857D01*
X41122380Y-74098571D02*
X41122380Y-73479523D01*
X41503333Y-73812857D01*
X41503333Y-73670000D01*
X41550952Y-73574761D01*
X41598571Y-73527142D01*
X41693809Y-73479523D01*
X41931904Y-73479523D01*
X42027142Y-73527142D01*
X42074761Y-73574761D01*
X42122380Y-73670000D01*
X42122380Y-73955714D01*
X42074761Y-74050952D01*
X42027142Y-74098571D01*
%TO.C,J5*%
X111406666Y-72322380D02*
X111406666Y-73036666D01*
X111359047Y-73179523D01*
X111263809Y-73274761D01*
X111120952Y-73322380D01*
X111025714Y-73322380D01*
X112359047Y-72322380D02*
X111882857Y-72322380D01*
X111835238Y-72798571D01*
X111882857Y-72750952D01*
X111978095Y-72703333D01*
X112216190Y-72703333D01*
X112311428Y-72750952D01*
X112359047Y-72798571D01*
X112406666Y-72893809D01*
X112406666Y-73131904D01*
X112359047Y-73227142D01*
X112311428Y-73274761D01*
X112216190Y-73322380D01*
X111978095Y-73322380D01*
X111882857Y-73274761D01*
X111835238Y-73227142D01*
%TO.C,D9*%
X50041904Y-67792380D02*
X50041904Y-66792380D01*
X50280000Y-66792380D01*
X50422857Y-66840000D01*
X50518095Y-66935238D01*
X50565714Y-67030476D01*
X50613333Y-67220952D01*
X50613333Y-67363809D01*
X50565714Y-67554285D01*
X50518095Y-67649523D01*
X50422857Y-67744761D01*
X50280000Y-67792380D01*
X50041904Y-67792380D01*
X51089523Y-67792380D02*
X51280000Y-67792380D01*
X51375238Y-67744761D01*
X51422857Y-67697142D01*
X51518095Y-67554285D01*
X51565714Y-67363809D01*
X51565714Y-66982857D01*
X51518095Y-66887619D01*
X51470476Y-66840000D01*
X51375238Y-66792380D01*
X51184761Y-66792380D01*
X51089523Y-66840000D01*
X51041904Y-66887619D01*
X50994285Y-66982857D01*
X50994285Y-67220952D01*
X51041904Y-67316190D01*
X51089523Y-67363809D01*
X51184761Y-67411428D01*
X51375238Y-67411428D01*
X51470476Y-67363809D01*
X51518095Y-67316190D01*
X51565714Y-67220952D01*
%TO.C,C12*%
X36187142Y-76067142D02*
X36139523Y-76114761D01*
X35996666Y-76162380D01*
X35901428Y-76162380D01*
X35758571Y-76114761D01*
X35663333Y-76019523D01*
X35615714Y-75924285D01*
X35568095Y-75733809D01*
X35568095Y-75590952D01*
X35615714Y-75400476D01*
X35663333Y-75305238D01*
X35758571Y-75210000D01*
X35901428Y-75162380D01*
X35996666Y-75162380D01*
X36139523Y-75210000D01*
X36187142Y-75257619D01*
X37139523Y-76162380D02*
X36568095Y-76162380D01*
X36853809Y-76162380D02*
X36853809Y-75162380D01*
X36758571Y-75305238D01*
X36663333Y-75400476D01*
X36568095Y-75448095D01*
X37520476Y-75257619D02*
X37568095Y-75210000D01*
X37663333Y-75162380D01*
X37901428Y-75162380D01*
X37996666Y-75210000D01*
X38044285Y-75257619D01*
X38091904Y-75352857D01*
X38091904Y-75448095D01*
X38044285Y-75590952D01*
X37472857Y-76162380D01*
X38091904Y-76162380D01*
%TO.C,C11*%
X52787142Y-78302857D02*
X52834761Y-78350476D01*
X52882380Y-78493333D01*
X52882380Y-78588571D01*
X52834761Y-78731428D01*
X52739523Y-78826666D01*
X52644285Y-78874285D01*
X52453809Y-78921904D01*
X52310952Y-78921904D01*
X52120476Y-78874285D01*
X52025238Y-78826666D01*
X51930000Y-78731428D01*
X51882380Y-78588571D01*
X51882380Y-78493333D01*
X51930000Y-78350476D01*
X51977619Y-78302857D01*
X52882380Y-77350476D02*
X52882380Y-77921904D01*
X52882380Y-77636190D02*
X51882380Y-77636190D01*
X52025238Y-77731428D01*
X52120476Y-77826666D01*
X52168095Y-77921904D01*
X52882380Y-76398095D02*
X52882380Y-76969523D01*
X52882380Y-76683809D02*
X51882380Y-76683809D01*
X52025238Y-76779047D01*
X52120476Y-76874285D01*
X52168095Y-76969523D01*
%TO.C,C10*%
X37437142Y-78397142D02*
X37389523Y-78444761D01*
X37246666Y-78492380D01*
X37151428Y-78492380D01*
X37008571Y-78444761D01*
X36913333Y-78349523D01*
X36865714Y-78254285D01*
X36818095Y-78063809D01*
X36818095Y-77920952D01*
X36865714Y-77730476D01*
X36913333Y-77635238D01*
X37008571Y-77540000D01*
X37151428Y-77492380D01*
X37246666Y-77492380D01*
X37389523Y-77540000D01*
X37437142Y-77587619D01*
X38389523Y-78492380D02*
X37818095Y-78492380D01*
X38103809Y-78492380D02*
X38103809Y-77492380D01*
X38008571Y-77635238D01*
X37913333Y-77730476D01*
X37818095Y-77778095D01*
X39008571Y-77492380D02*
X39103809Y-77492380D01*
X39199047Y-77540000D01*
X39246666Y-77587619D01*
X39294285Y-77682857D01*
X39341904Y-77873333D01*
X39341904Y-78111428D01*
X39294285Y-78301904D01*
X39246666Y-78397142D01*
X39199047Y-78444761D01*
X39103809Y-78492380D01*
X39008571Y-78492380D01*
X38913333Y-78444761D01*
X38865714Y-78397142D01*
X38818095Y-78301904D01*
X38770476Y-78111428D01*
X38770476Y-77873333D01*
X38818095Y-77682857D01*
X38865714Y-77587619D01*
X38913333Y-77540000D01*
X39008571Y-77492380D01*
%TO.C,C9*%
X45778333Y-73317142D02*
X45730714Y-73364761D01*
X45587857Y-73412380D01*
X45492619Y-73412380D01*
X45349761Y-73364761D01*
X45254523Y-73269523D01*
X45206904Y-73174285D01*
X45159285Y-72983809D01*
X45159285Y-72840952D01*
X45206904Y-72650476D01*
X45254523Y-72555238D01*
X45349761Y-72460000D01*
X45492619Y-72412380D01*
X45587857Y-72412380D01*
X45730714Y-72460000D01*
X45778333Y-72507619D01*
X46254523Y-73412380D02*
X46445000Y-73412380D01*
X46540238Y-73364761D01*
X46587857Y-73317142D01*
X46683095Y-73174285D01*
X46730714Y-72983809D01*
X46730714Y-72602857D01*
X46683095Y-72507619D01*
X46635476Y-72460000D01*
X46540238Y-72412380D01*
X46349761Y-72412380D01*
X46254523Y-72460000D01*
X46206904Y-72507619D01*
X46159285Y-72602857D01*
X46159285Y-72840952D01*
X46206904Y-72936190D01*
X46254523Y-72983809D01*
X46349761Y-73031428D01*
X46540238Y-73031428D01*
X46635476Y-72983809D01*
X46683095Y-72936190D01*
X46730714Y-72840952D01*
%TO.C,C8*%
X51517142Y-72746666D02*
X51564761Y-72794285D01*
X51612380Y-72937142D01*
X51612380Y-73032380D01*
X51564761Y-73175238D01*
X51469523Y-73270476D01*
X51374285Y-73318095D01*
X51183809Y-73365714D01*
X51040952Y-73365714D01*
X50850476Y-73318095D01*
X50755238Y-73270476D01*
X50660000Y-73175238D01*
X50612380Y-73032380D01*
X50612380Y-72937142D01*
X50660000Y-72794285D01*
X50707619Y-72746666D01*
X51040952Y-72175238D02*
X50993333Y-72270476D01*
X50945714Y-72318095D01*
X50850476Y-72365714D01*
X50802857Y-72365714D01*
X50707619Y-72318095D01*
X50660000Y-72270476D01*
X50612380Y-72175238D01*
X50612380Y-71984761D01*
X50660000Y-71889523D01*
X50707619Y-71841904D01*
X50802857Y-71794285D01*
X50850476Y-71794285D01*
X50945714Y-71841904D01*
X50993333Y-71889523D01*
X51040952Y-71984761D01*
X51040952Y-72175238D01*
X51088571Y-72270476D01*
X51136190Y-72318095D01*
X51231428Y-72365714D01*
X51421904Y-72365714D01*
X51517142Y-72318095D01*
X51564761Y-72270476D01*
X51612380Y-72175238D01*
X51612380Y-71984761D01*
X51564761Y-71889523D01*
X51517142Y-71841904D01*
X51421904Y-71794285D01*
X51231428Y-71794285D01*
X51136190Y-71841904D01*
X51088571Y-71889523D01*
X51040952Y-71984761D01*
%TO.C,C7*%
X45778333Y-70777142D02*
X45730714Y-70824761D01*
X45587857Y-70872380D01*
X45492619Y-70872380D01*
X45349761Y-70824761D01*
X45254523Y-70729523D01*
X45206904Y-70634285D01*
X45159285Y-70443809D01*
X45159285Y-70300952D01*
X45206904Y-70110476D01*
X45254523Y-70015238D01*
X45349761Y-69920000D01*
X45492619Y-69872380D01*
X45587857Y-69872380D01*
X45730714Y-69920000D01*
X45778333Y-69967619D01*
X46111666Y-69872380D02*
X46778333Y-69872380D01*
X46349761Y-70872380D01*
%TO.C,D7*%
X86409523Y-42861904D02*
X86409523Y-42061904D01*
X86600000Y-42061904D01*
X86714285Y-42100000D01*
X86790476Y-42176190D01*
X86828571Y-42252380D01*
X86866666Y-42404761D01*
X86866666Y-42519047D01*
X86828571Y-42671428D01*
X86790476Y-42747619D01*
X86714285Y-42823809D01*
X86600000Y-42861904D01*
X86409523Y-42861904D01*
X87133333Y-42061904D02*
X87666666Y-42061904D01*
X87323809Y-42861904D01*
%TO.C,D8*%
X91409523Y-42861904D02*
X91409523Y-42061904D01*
X91600000Y-42061904D01*
X91714285Y-42100000D01*
X91790476Y-42176190D01*
X91828571Y-42252380D01*
X91866666Y-42404761D01*
X91866666Y-42519047D01*
X91828571Y-42671428D01*
X91790476Y-42747619D01*
X91714285Y-42823809D01*
X91600000Y-42861904D01*
X91409523Y-42861904D01*
X92323809Y-42404761D02*
X92247619Y-42366666D01*
X92209523Y-42328571D01*
X92171428Y-42252380D01*
X92171428Y-42214285D01*
X92209523Y-42138095D01*
X92247619Y-42100000D01*
X92323809Y-42061904D01*
X92476190Y-42061904D01*
X92552380Y-42100000D01*
X92590476Y-42138095D01*
X92628571Y-42214285D01*
X92628571Y-42252380D01*
X92590476Y-42328571D01*
X92552380Y-42366666D01*
X92476190Y-42404761D01*
X92323809Y-42404761D01*
X92247619Y-42442857D01*
X92209523Y-42480952D01*
X92171428Y-42557142D01*
X92171428Y-42709523D01*
X92209523Y-42785714D01*
X92247619Y-42823809D01*
X92323809Y-42861904D01*
X92476190Y-42861904D01*
X92552380Y-42823809D01*
X92590476Y-42785714D01*
X92628571Y-42709523D01*
X92628571Y-42557142D01*
X92590476Y-42480952D01*
X92552380Y-42442857D01*
X92476190Y-42404761D01*
%TO.C,D2*%
X50909523Y-44861904D02*
X50909523Y-44061904D01*
X51100000Y-44061904D01*
X51214285Y-44100000D01*
X51290476Y-44176190D01*
X51328571Y-44252380D01*
X51366666Y-44404761D01*
X51366666Y-44519047D01*
X51328571Y-44671428D01*
X51290476Y-44747619D01*
X51214285Y-44823809D01*
X51100000Y-44861904D01*
X50909523Y-44861904D01*
X51671428Y-44138095D02*
X51709523Y-44100000D01*
X51785714Y-44061904D01*
X51976190Y-44061904D01*
X52052380Y-44100000D01*
X52090476Y-44138095D01*
X52128571Y-44214285D01*
X52128571Y-44290476D01*
X52090476Y-44404761D01*
X51633333Y-44861904D01*
X52128571Y-44861904D01*
%TO.C,D3*%
X50659523Y-56861904D02*
X50659523Y-56061904D01*
X50850000Y-56061904D01*
X50964285Y-56100000D01*
X51040476Y-56176190D01*
X51078571Y-56252380D01*
X51116666Y-56404761D01*
X51116666Y-56519047D01*
X51078571Y-56671428D01*
X51040476Y-56747619D01*
X50964285Y-56823809D01*
X50850000Y-56861904D01*
X50659523Y-56861904D01*
X51383333Y-56061904D02*
X51878571Y-56061904D01*
X51611904Y-56366666D01*
X51726190Y-56366666D01*
X51802380Y-56404761D01*
X51840476Y-56442857D01*
X51878571Y-56519047D01*
X51878571Y-56709523D01*
X51840476Y-56785714D01*
X51802380Y-56823809D01*
X51726190Y-56861904D01*
X51497619Y-56861904D01*
X51421428Y-56823809D01*
X51383333Y-56785714D01*
%TO.C,D5*%
X100909523Y-44861904D02*
X100909523Y-44061904D01*
X101100000Y-44061904D01*
X101214285Y-44100000D01*
X101290476Y-44176190D01*
X101328571Y-44252380D01*
X101366666Y-44404761D01*
X101366666Y-44519047D01*
X101328571Y-44671428D01*
X101290476Y-44747619D01*
X101214285Y-44823809D01*
X101100000Y-44861904D01*
X100909523Y-44861904D01*
X102090476Y-44061904D02*
X101709523Y-44061904D01*
X101671428Y-44442857D01*
X101709523Y-44404761D01*
X101785714Y-44366666D01*
X101976190Y-44366666D01*
X102052380Y-44404761D01*
X102090476Y-44442857D01*
X102128571Y-44519047D01*
X102128571Y-44709523D01*
X102090476Y-44785714D01*
X102052380Y-44823809D01*
X101976190Y-44861904D01*
X101785714Y-44861904D01*
X101709523Y-44823809D01*
X101671428Y-44785714D01*
%TO.C,D6*%
X100659523Y-56861904D02*
X100659523Y-56061904D01*
X100850000Y-56061904D01*
X100964285Y-56100000D01*
X101040476Y-56176190D01*
X101078571Y-56252380D01*
X101116666Y-56404761D01*
X101116666Y-56519047D01*
X101078571Y-56671428D01*
X101040476Y-56747619D01*
X100964285Y-56823809D01*
X100850000Y-56861904D01*
X100659523Y-56861904D01*
X101802380Y-56061904D02*
X101650000Y-56061904D01*
X101573809Y-56100000D01*
X101535714Y-56138095D01*
X101459523Y-56252380D01*
X101421428Y-56404761D01*
X101421428Y-56709523D01*
X101459523Y-56785714D01*
X101497619Y-56823809D01*
X101573809Y-56861904D01*
X101726190Y-56861904D01*
X101802380Y-56823809D01*
X101840476Y-56785714D01*
X101878571Y-56709523D01*
X101878571Y-56519047D01*
X101840476Y-56442857D01*
X101802380Y-56404761D01*
X101726190Y-56366666D01*
X101573809Y-56366666D01*
X101497619Y-56404761D01*
X101459523Y-56442857D01*
X101421428Y-56519047D01*
%TO.C,R6*%
X37616666Y-44361904D02*
X37350000Y-43980952D01*
X37159523Y-44361904D02*
X37159523Y-43561904D01*
X37464285Y-43561904D01*
X37540476Y-43600000D01*
X37578571Y-43638095D01*
X37616666Y-43714285D01*
X37616666Y-43828571D01*
X37578571Y-43904761D01*
X37540476Y-43942857D01*
X37464285Y-43980952D01*
X37159523Y-43980952D01*
X38302380Y-43561904D02*
X38150000Y-43561904D01*
X38073809Y-43600000D01*
X38035714Y-43638095D01*
X37959523Y-43752380D01*
X37921428Y-43904761D01*
X37921428Y-44209523D01*
X37959523Y-44285714D01*
X37997619Y-44323809D01*
X38073809Y-44361904D01*
X38226190Y-44361904D01*
X38302380Y-44323809D01*
X38340476Y-44285714D01*
X38378571Y-44209523D01*
X38378571Y-44019047D01*
X38340476Y-43942857D01*
X38302380Y-43904761D01*
X38226190Y-43866666D01*
X38073809Y-43866666D01*
X37997619Y-43904761D01*
X37959523Y-43942857D01*
X37921428Y-44019047D01*
%TO.C,R5*%
X45361904Y-42383333D02*
X44980952Y-42650000D01*
X45361904Y-42840476D02*
X44561904Y-42840476D01*
X44561904Y-42535714D01*
X44600000Y-42459523D01*
X44638095Y-42421428D01*
X44714285Y-42383333D01*
X44828571Y-42383333D01*
X44904761Y-42421428D01*
X44942857Y-42459523D01*
X44980952Y-42535714D01*
X44980952Y-42840476D01*
X44561904Y-41659523D02*
X44561904Y-42040476D01*
X44942857Y-42078571D01*
X44904761Y-42040476D01*
X44866666Y-41964285D01*
X44866666Y-41773809D01*
X44904761Y-41697619D01*
X44942857Y-41659523D01*
X45019047Y-41621428D01*
X45209523Y-41621428D01*
X45285714Y-41659523D01*
X45323809Y-41697619D01*
X45361904Y-41773809D01*
X45361904Y-41964285D01*
X45323809Y-42040476D01*
X45285714Y-42078571D01*
%TO.C,C1*%
X49785714Y-65283333D02*
X49823809Y-65321428D01*
X49861904Y-65435714D01*
X49861904Y-65511904D01*
X49823809Y-65626190D01*
X49747619Y-65702380D01*
X49671428Y-65740476D01*
X49519047Y-65778571D01*
X49404761Y-65778571D01*
X49252380Y-65740476D01*
X49176190Y-65702380D01*
X49100000Y-65626190D01*
X49061904Y-65511904D01*
X49061904Y-65435714D01*
X49100000Y-65321428D01*
X49138095Y-65283333D01*
X49861904Y-64521428D02*
X49861904Y-64978571D01*
X49861904Y-64750000D02*
X49061904Y-64750000D01*
X49176190Y-64826190D01*
X49252380Y-64902380D01*
X49290476Y-64978571D01*
%TO.C,C2*%
X86785714Y-65245833D02*
X86823809Y-65283928D01*
X86861904Y-65398214D01*
X86861904Y-65474404D01*
X86823809Y-65588690D01*
X86747619Y-65664880D01*
X86671428Y-65702976D01*
X86519047Y-65741071D01*
X86404761Y-65741071D01*
X86252380Y-65702976D01*
X86176190Y-65664880D01*
X86100000Y-65588690D01*
X86061904Y-65474404D01*
X86061904Y-65398214D01*
X86100000Y-65283928D01*
X86138095Y-65245833D01*
X86138095Y-64941071D02*
X86100000Y-64902976D01*
X86061904Y-64826785D01*
X86061904Y-64636309D01*
X86100000Y-64560119D01*
X86138095Y-64522023D01*
X86214285Y-64483928D01*
X86290476Y-64483928D01*
X86404761Y-64522023D01*
X86861904Y-64979166D01*
X86861904Y-64483928D01*
%TO.C,L1*%
X40611904Y-57633333D02*
X40611904Y-58014285D01*
X39811904Y-58014285D01*
X40611904Y-56947619D02*
X40611904Y-57404761D01*
X40611904Y-57176190D02*
X39811904Y-57176190D01*
X39926190Y-57252380D01*
X40002380Y-57328571D01*
X40040476Y-57404761D01*
%TO.C,L2*%
X90611904Y-57633333D02*
X90611904Y-58014285D01*
X89811904Y-58014285D01*
X89888095Y-57404761D02*
X89850000Y-57366666D01*
X89811904Y-57290476D01*
X89811904Y-57100000D01*
X89850000Y-57023809D01*
X89888095Y-56985714D01*
X89964285Y-56947619D01*
X90040476Y-56947619D01*
X90154761Y-56985714D01*
X90611904Y-57442857D01*
X90611904Y-56947619D01*
%TO.C,R7*%
X102116666Y-41111904D02*
X101850000Y-40730952D01*
X101659523Y-41111904D02*
X101659523Y-40311904D01*
X101964285Y-40311904D01*
X102040476Y-40350000D01*
X102078571Y-40388095D01*
X102116666Y-40464285D01*
X102116666Y-40578571D01*
X102078571Y-40654761D01*
X102040476Y-40692857D01*
X101964285Y-40730952D01*
X101659523Y-40730952D01*
X102383333Y-40311904D02*
X102916666Y-40311904D01*
X102573809Y-41111904D01*
%TO.C,R8*%
X96116666Y-41111904D02*
X95850000Y-40730952D01*
X95659523Y-41111904D02*
X95659523Y-40311904D01*
X95964285Y-40311904D01*
X96040476Y-40350000D01*
X96078571Y-40388095D01*
X96116666Y-40464285D01*
X96116666Y-40578571D01*
X96078571Y-40654761D01*
X96040476Y-40692857D01*
X95964285Y-40730952D01*
X95659523Y-40730952D01*
X96573809Y-40654761D02*
X96497619Y-40616666D01*
X96459523Y-40578571D01*
X96421428Y-40502380D01*
X96421428Y-40464285D01*
X96459523Y-40388095D01*
X96497619Y-40350000D01*
X96573809Y-40311904D01*
X96726190Y-40311904D01*
X96802380Y-40350000D01*
X96840476Y-40388095D01*
X96878571Y-40464285D01*
X96878571Y-40502380D01*
X96840476Y-40578571D01*
X96802380Y-40616666D01*
X96726190Y-40654761D01*
X96573809Y-40654761D01*
X96497619Y-40692857D01*
X96459523Y-40730952D01*
X96421428Y-40807142D01*
X96421428Y-40959523D01*
X96459523Y-41035714D01*
X96497619Y-41073809D01*
X96573809Y-41111904D01*
X96726190Y-41111904D01*
X96802380Y-41073809D01*
X96840476Y-41035714D01*
X96878571Y-40959523D01*
X96878571Y-40807142D01*
X96840476Y-40730952D01*
X96802380Y-40692857D01*
X96726190Y-40654761D01*
%TO.C,R3*%
X83351666Y-42361904D02*
X83085000Y-41980952D01*
X82894523Y-42361904D02*
X82894523Y-41561904D01*
X83199285Y-41561904D01*
X83275476Y-41600000D01*
X83313571Y-41638095D01*
X83351666Y-41714285D01*
X83351666Y-41828571D01*
X83313571Y-41904761D01*
X83275476Y-41942857D01*
X83199285Y-41980952D01*
X82894523Y-41980952D01*
X83618333Y-41561904D02*
X84113571Y-41561904D01*
X83846904Y-41866666D01*
X83961190Y-41866666D01*
X84037380Y-41904761D01*
X84075476Y-41942857D01*
X84113571Y-42019047D01*
X84113571Y-42209523D01*
X84075476Y-42285714D01*
X84037380Y-42323809D01*
X83961190Y-42361904D01*
X83732619Y-42361904D01*
X83656428Y-42323809D01*
X83618333Y-42285714D01*
%TO.C,R4*%
X94866666Y-43111904D02*
X94600000Y-42730952D01*
X94409523Y-43111904D02*
X94409523Y-42311904D01*
X94714285Y-42311904D01*
X94790476Y-42350000D01*
X94828571Y-42388095D01*
X94866666Y-42464285D01*
X94866666Y-42578571D01*
X94828571Y-42654761D01*
X94790476Y-42692857D01*
X94714285Y-42730952D01*
X94409523Y-42730952D01*
X95552380Y-42578571D02*
X95552380Y-43111904D01*
X95361904Y-42273809D02*
X95171428Y-42845238D01*
X95666666Y-42845238D01*
%TO.C,U1*%
X41561904Y-54109523D02*
X42209523Y-54109523D01*
X42285714Y-54071428D01*
X42323809Y-54033333D01*
X42361904Y-53957142D01*
X42361904Y-53804761D01*
X42323809Y-53728571D01*
X42285714Y-53690476D01*
X42209523Y-53652380D01*
X41561904Y-53652380D01*
X42361904Y-52852380D02*
X42361904Y-53309523D01*
X42361904Y-53080952D02*
X41561904Y-53080952D01*
X41676190Y-53157142D01*
X41752380Y-53233333D01*
X41790476Y-53309523D01*
%TO.C,U2*%
X91811904Y-54109523D02*
X92459523Y-54109523D01*
X92535714Y-54071428D01*
X92573809Y-54033333D01*
X92611904Y-53957142D01*
X92611904Y-53804761D01*
X92573809Y-53728571D01*
X92535714Y-53690476D01*
X92459523Y-53652380D01*
X91811904Y-53652380D01*
X91888095Y-53309523D02*
X91850000Y-53271428D01*
X91811904Y-53195238D01*
X91811904Y-53004761D01*
X91850000Y-52928571D01*
X91888095Y-52890476D01*
X91964285Y-52852380D01*
X92040476Y-52852380D01*
X92154761Y-52890476D01*
X92611904Y-53347619D01*
X92611904Y-52852380D01*
%TO.C,C3*%
X36785714Y-52504880D02*
X36823809Y-52542976D01*
X36861904Y-52657261D01*
X36861904Y-52733452D01*
X36823809Y-52847738D01*
X36747619Y-52923928D01*
X36671428Y-52962023D01*
X36519047Y-53000119D01*
X36404761Y-53000119D01*
X36252380Y-52962023D01*
X36176190Y-52923928D01*
X36100000Y-52847738D01*
X36061904Y-52733452D01*
X36061904Y-52657261D01*
X36100000Y-52542976D01*
X36138095Y-52504880D01*
X36061904Y-52238214D02*
X36061904Y-51742976D01*
X36366666Y-52009642D01*
X36366666Y-51895357D01*
X36404761Y-51819166D01*
X36442857Y-51781071D01*
X36519047Y-51742976D01*
X36709523Y-51742976D01*
X36785714Y-51781071D01*
X36823809Y-51819166D01*
X36861904Y-51895357D01*
X36861904Y-52123928D01*
X36823809Y-52200119D01*
X36785714Y-52238214D01*
%TO.C,C4*%
X86785714Y-52618333D02*
X86823809Y-52656428D01*
X86861904Y-52770714D01*
X86861904Y-52846904D01*
X86823809Y-52961190D01*
X86747619Y-53037380D01*
X86671428Y-53075476D01*
X86519047Y-53113571D01*
X86404761Y-53113571D01*
X86252380Y-53075476D01*
X86176190Y-53037380D01*
X86100000Y-52961190D01*
X86061904Y-52846904D01*
X86061904Y-52770714D01*
X86100000Y-52656428D01*
X86138095Y-52618333D01*
X86328571Y-51932619D02*
X86861904Y-51932619D01*
X86023809Y-52123095D02*
X86595238Y-52313571D01*
X86595238Y-51818333D01*
%TO.C,D1*%
X34409523Y-61361904D02*
X34409523Y-60561904D01*
X34600000Y-60561904D01*
X34714285Y-60600000D01*
X34790476Y-60676190D01*
X34828571Y-60752380D01*
X34866666Y-60904761D01*
X34866666Y-61019047D01*
X34828571Y-61171428D01*
X34790476Y-61247619D01*
X34714285Y-61323809D01*
X34600000Y-61361904D01*
X34409523Y-61361904D01*
X35628571Y-61361904D02*
X35171428Y-61361904D01*
X35400000Y-61361904D02*
X35400000Y-60561904D01*
X35323809Y-60676190D01*
X35247619Y-60752380D01*
X35171428Y-60790476D01*
%TO.C,D4*%
X84409523Y-61361904D02*
X84409523Y-60561904D01*
X84600000Y-60561904D01*
X84714285Y-60600000D01*
X84790476Y-60676190D01*
X84828571Y-60752380D01*
X84866666Y-60904761D01*
X84866666Y-61019047D01*
X84828571Y-61171428D01*
X84790476Y-61247619D01*
X84714285Y-61323809D01*
X84600000Y-61361904D01*
X84409523Y-61361904D01*
X85552380Y-60828571D02*
X85552380Y-61361904D01*
X85361904Y-60523809D02*
X85171428Y-61095238D01*
X85666666Y-61095238D01*
%TO.C,R1*%
X34866666Y-51611904D02*
X34600000Y-51230952D01*
X34409523Y-51611904D02*
X34409523Y-50811904D01*
X34714285Y-50811904D01*
X34790476Y-50850000D01*
X34828571Y-50888095D01*
X34866666Y-50964285D01*
X34866666Y-51078571D01*
X34828571Y-51154761D01*
X34790476Y-51192857D01*
X34714285Y-51230952D01*
X34409523Y-51230952D01*
X35628571Y-51611904D02*
X35171428Y-51611904D01*
X35400000Y-51611904D02*
X35400000Y-50811904D01*
X35323809Y-50926190D01*
X35247619Y-51002380D01*
X35171428Y-51040476D01*
%TO.C,R2*%
X84866666Y-51611904D02*
X84600000Y-51230952D01*
X84409523Y-51611904D02*
X84409523Y-50811904D01*
X84714285Y-50811904D01*
X84790476Y-50850000D01*
X84828571Y-50888095D01*
X84866666Y-50964285D01*
X84866666Y-51078571D01*
X84828571Y-51154761D01*
X84790476Y-51192857D01*
X84714285Y-51230952D01*
X84409523Y-51230952D01*
X85171428Y-50888095D02*
X85209523Y-50850000D01*
X85285714Y-50811904D01*
X85476190Y-50811904D01*
X85552380Y-50850000D01*
X85590476Y-50888095D01*
X85628571Y-50964285D01*
X85628571Y-51040476D01*
X85590476Y-51154761D01*
X85133333Y-51611904D01*
X85628571Y-51611904D01*
%TO.C,C5*%
X53785714Y-65283333D02*
X53823809Y-65321428D01*
X53861904Y-65435714D01*
X53861904Y-65511904D01*
X53823809Y-65626190D01*
X53747619Y-65702380D01*
X53671428Y-65740476D01*
X53519047Y-65778571D01*
X53404761Y-65778571D01*
X53252380Y-65740476D01*
X53176190Y-65702380D01*
X53100000Y-65626190D01*
X53061904Y-65511904D01*
X53061904Y-65435714D01*
X53100000Y-65321428D01*
X53138095Y-65283333D01*
X53061904Y-64559523D02*
X53061904Y-64940476D01*
X53442857Y-64978571D01*
X53404761Y-64940476D01*
X53366666Y-64864285D01*
X53366666Y-64673809D01*
X53404761Y-64597619D01*
X53442857Y-64559523D01*
X53519047Y-64521428D01*
X53709523Y-64521428D01*
X53785714Y-64559523D01*
X53823809Y-64597619D01*
X53861904Y-64673809D01*
X53861904Y-64864285D01*
X53823809Y-64940476D01*
X53785714Y-64978571D01*
%TO.C,C6*%
X90785714Y-65245833D02*
X90823809Y-65283928D01*
X90861904Y-65398214D01*
X90861904Y-65474404D01*
X90823809Y-65588690D01*
X90747619Y-65664880D01*
X90671428Y-65702976D01*
X90519047Y-65741071D01*
X90404761Y-65741071D01*
X90252380Y-65702976D01*
X90176190Y-65664880D01*
X90100000Y-65588690D01*
X90061904Y-65474404D01*
X90061904Y-65398214D01*
X90100000Y-65283928D01*
X90138095Y-65245833D01*
X90061904Y-64560119D02*
X90061904Y-64712500D01*
X90100000Y-64788690D01*
X90138095Y-64826785D01*
X90252380Y-64902976D01*
X90404761Y-64941071D01*
X90709523Y-64941071D01*
X90785714Y-64902976D01*
X90823809Y-64864880D01*
X90861904Y-64788690D01*
X90861904Y-64636309D01*
X90823809Y-64560119D01*
X90785714Y-64522023D01*
X90709523Y-64483928D01*
X90519047Y-64483928D01*
X90442857Y-64522023D01*
X90404761Y-64560119D01*
X90366666Y-64636309D01*
X90366666Y-64788690D01*
X90404761Y-64864880D01*
X90442857Y-64902976D01*
X90519047Y-64941071D01*
%TD*%
M02*
