%TF.GenerationSoftware,KiCad,Pcbnew,(5.1.6)-1*%
%TF.CreationDate,2020-10-25T21:11:49+03:00*%
%TF.ProjectId,ledboard,6c656462-6f61-4726-942e-6b696361645f,v0.4.0*%
%TF.SameCoordinates,Original*%
%TF.FileFunction,Copper,L2,Bot*%
%TF.FilePolarity,Positive*%
%FSLAX46Y46*%
G04 Gerber Fmt 4.6, Leading zero omitted, Abs format (unit mm)*
G04 Created by KiCad (PCBNEW (5.1.6)-1) date 2020-10-25 21:11:49*
%MOMM*%
%LPD*%
G01*
G04 APERTURE LIST*
%TA.AperFunction,Profile*%
%ADD10C,0.050000*%
%TD*%
%TA.AperFunction,ComponentPad*%
%ADD11C,1.650000*%
%TD*%
%TA.AperFunction,ComponentPad*%
%ADD12R,1.650000X1.650000*%
%TD*%
%TA.AperFunction,ComponentPad*%
%ADD13C,6.200000*%
%TD*%
%TA.AperFunction,ComponentPad*%
%ADD14R,1.524000X1.524000*%
%TD*%
%TA.AperFunction,ComponentPad*%
%ADD15C,1.524000*%
%TD*%
%TA.AperFunction,ComponentPad*%
%ADD16O,2.000000X1.905000*%
%TD*%
%TA.AperFunction,ComponentPad*%
%ADD17R,2.000000X1.905000*%
%TD*%
%TA.AperFunction,ComponentPad*%
%ADD18O,0.850000X0.850000*%
%TD*%
%TA.AperFunction,ComponentPad*%
%ADD19R,0.850000X0.850000*%
%TD*%
%TA.AperFunction,ComponentPad*%
%ADD20C,1.600000*%
%TD*%
%TA.AperFunction,ComponentPad*%
%ADD21R,1.600000X1.600000*%
%TD*%
%TA.AperFunction,ViaPad*%
%ADD22C,0.650000*%
%TD*%
%TA.AperFunction,ComponentPad*%
%ADD23O,1.700000X1.700000*%
%TD*%
%TA.AperFunction,ViaPad*%
%ADD24C,0.500000*%
%TD*%
%TA.AperFunction,ViaPad*%
%ADD25C,0.800000*%
%TD*%
%TA.AperFunction,Conductor*%
%ADD26C,0.250000*%
%TD*%
%TA.AperFunction,Conductor*%
%ADD27C,0.200000*%
%TD*%
%TA.AperFunction,Conductor*%
%ADD28C,0.150000*%
%TD*%
%TA.AperFunction,Conductor*%
%ADD29C,0.500000*%
%TD*%
%TA.AperFunction,Conductor*%
%ADD30C,0.254000*%
%TD*%
G04 APERTURE END LIST*
D10*
X119360000Y-91630000D02*
X119360000Y-30670000D01*
X30460000Y-91630000D02*
X119360000Y-91630000D01*
X30460000Y-30670000D02*
X30460000Y-91630000D01*
X119360000Y-30670000D02*
X30460000Y-30670000D01*
D11*
%TO.P,J8,2*%
%TO.N,GND*%
X111740000Y-39560000D03*
D12*
%TO.P,J8,1*%
%TO.N,+12V*%
X111740000Y-34480000D03*
%TD*%
D13*
%TO.P,U4,S4*%
%TO.N,Net-(U4-PadS1)*%
X34640000Y-84380000D03*
%TO.P,U4,S3*%
X92640000Y-84380000D03*
%TO.P,U4,S2*%
X92640000Y-35380000D03*
%TO.P,U4,S1*%
X34640000Y-35380000D03*
D14*
%TO.P,U4,1*%
%TO.N,Net-(U4-Pad1)*%
X39510000Y-36650000D03*
D15*
%TO.P,U4,3*%
%TO.N,N/C*%
X42050000Y-36650000D03*
%TO.P,U4,5*%
X44590000Y-36650000D03*
%TO.P,U4,7*%
%TO.N,/USR_LED_A*%
X47130000Y-36650000D03*
%TO.P,U4,9*%
%TO.N,GND*%
X49670000Y-36650000D03*
%TO.P,U4,11*%
%TO.N,N/C*%
X52210000Y-36650000D03*
%TO.P,U4,2*%
%TO.N,+5V*%
X39510000Y-34110000D03*
%TO.P,U4,4*%
X42050000Y-34110000D03*
%TO.P,U4,6*%
%TO.N,GND*%
X44590000Y-34110000D03*
%TO.P,U4,8*%
%TO.N,N/C*%
X47130000Y-34110000D03*
%TO.P,U4,10*%
X49670000Y-34110000D03*
%TO.P,U4,12*%
%TO.N,/CTRL_L*%
X52210000Y-34110000D03*
%TO.P,U4,13*%
%TO.N,N/C*%
X54750000Y-36650000D03*
%TO.P,U4,14*%
%TO.N,GND*%
X54750000Y-34110000D03*
%TO.P,U4,15*%
%TO.N,/FAN_PIN*%
X57290000Y-36650000D03*
%TO.P,U4,17*%
%TO.N,Net-(U4-Pad1)*%
X59830000Y-36650000D03*
%TO.P,U4,19*%
%TO.N,N/C*%
X62370000Y-36650000D03*
%TO.P,U4,21*%
X64910000Y-36650000D03*
%TO.P,U4,23*%
X67450000Y-36650000D03*
%TO.P,U4,25*%
%TO.N,GND*%
X69990000Y-36650000D03*
%TO.P,U4,16*%
%TO.N,N/C*%
X57290000Y-34110000D03*
%TO.P,U4,18*%
X59830000Y-34110000D03*
%TO.P,U4,20*%
%TO.N,GND*%
X62370000Y-34110000D03*
%TO.P,U4,22*%
%TO.N,N/C*%
X64910000Y-34110000D03*
%TO.P,U4,24*%
X67450000Y-34110000D03*
%TO.P,U4,26*%
X69990000Y-34110000D03*
%TO.P,U4,27*%
X72530000Y-36650000D03*
%TO.P,U4,28*%
X72530000Y-34110000D03*
%TO.P,U4,29*%
%TO.N,/USR_LED_B*%
X75070000Y-36650000D03*
%TO.P,U4,31*%
%TO.N,/PWM_LED*%
X77610000Y-36650000D03*
%TO.P,U4,33*%
%TO.N,/CTRL_R*%
X80150000Y-36650000D03*
%TO.P,U4,35*%
%TO.N,N/C*%
X82690000Y-36650000D03*
%TO.P,U4,37*%
X85230000Y-36650000D03*
%TO.P,U4,39*%
%TO.N,0*%
X87770000Y-36650000D03*
%TO.P,U4,30*%
%TO.N,GND*%
X75070000Y-34110000D03*
%TO.P,U4,32*%
%TO.N,N/C*%
X77610000Y-34110000D03*
%TO.P,U4,34*%
%TO.N,GND*%
X80150000Y-34110000D03*
%TO.P,U4,36*%
%TO.N,N/C*%
X82690000Y-34110000D03*
%TO.P,U4,38*%
X85230000Y-34110000D03*
%TO.P,U4,40*%
X87770000Y-34110000D03*
%TD*%
D16*
%TO.P,M1,3*%
%TO.N,+5V*%
X85070000Y-76390000D03*
%TO.P,M1,2*%
%TO.N,Net-(M1-Pad2)*%
X85070000Y-73850000D03*
D17*
%TO.P,M1,1*%
%TO.N,Net-(J6-Pad1)*%
X85070000Y-71310000D03*
%TD*%
D18*
%TO.P,J6,2*%
%TO.N,GND*%
X111740000Y-74120000D03*
D19*
%TO.P,J6,1*%
%TO.N,Net-(J6-Pad1)*%
X111740000Y-75120000D03*
%TD*%
D18*
%TO.P,J5,3*%
%TO.N,/PWM_LED*%
X111740000Y-69310000D03*
%TO.P,J5,2*%
%TO.N,+5V*%
X111740000Y-70310000D03*
D19*
%TO.P,J5,1*%
%TO.N,GND*%
X111740000Y-71310000D03*
%TD*%
D20*
%TO.P,C12,2*%
%TO.N,GND*%
X35580000Y-71310000D03*
D21*
%TO.P,C12,1*%
%TO.N,+5V*%
X38080000Y-71310000D03*
%TD*%
D22*
%TO.N,GND*%
%TO.C,D2*%
X43750000Y-49650000D03*
X45000000Y-48400000D03*
X45000000Y-49650000D03*
X46250000Y-48400000D03*
X46250000Y-49650000D03*
X46250000Y-47150000D03*
X45000000Y-47150000D03*
X43750000Y-47150000D03*
X43750000Y-48400000D03*
%TD*%
%TO.N,GND*%
%TO.C,D3*%
X46250000Y-59150000D03*
X45000000Y-60400000D03*
X45000000Y-59150000D03*
X43750000Y-60400000D03*
X43750000Y-59150000D03*
X43750000Y-61650000D03*
X45000000Y-61650000D03*
X46250000Y-61650000D03*
X46250000Y-60400000D03*
%TD*%
%TO.N,GND*%
%TO.C,D5*%
X93750000Y-49650000D03*
X95000000Y-48400000D03*
X95000000Y-49650000D03*
X96250000Y-48400000D03*
X96250000Y-49650000D03*
X96250000Y-47150000D03*
X95000000Y-47150000D03*
X93750000Y-47150000D03*
X93750000Y-48400000D03*
%TD*%
%TO.N,GND*%
%TO.C,D6*%
X96250000Y-59150000D03*
X95000000Y-60400000D03*
X95000000Y-59150000D03*
X93750000Y-60400000D03*
X93750000Y-59150000D03*
X93750000Y-61650000D03*
X95000000Y-61650000D03*
X96250000Y-61650000D03*
X96250000Y-60400000D03*
%TD*%
%TO.P,J1,1*%
%TO.N,/USR_LED_A*%
%TA.AperFunction,ComponentPad*%
G36*
G01*
X39075000Y-41400000D02*
X39925000Y-41400000D01*
G75*
G02*
X40350000Y-41825000I0J-425000D01*
G01*
X40350000Y-42675000D01*
G75*
G02*
X39925000Y-43100000I-425000J0D01*
G01*
X39075000Y-43100000D01*
G75*
G02*
X38650000Y-42675000I0J425000D01*
G01*
X38650000Y-41825000D01*
G75*
G02*
X39075000Y-41400000I425000J0D01*
G01*
G37*
%TD.AperFunction*%
D23*
%TO.P,J1,2*%
%TO.N,/CTRL_L*%
X42040000Y-42250000D03*
%TD*%
%TO.P,J2,1*%
%TO.N,+12V*%
%TA.AperFunction,ComponentPad*%
G36*
G01*
X55850000Y-62575000D02*
X55850000Y-63425000D01*
G75*
G02*
X55425000Y-63850000I-425000J0D01*
G01*
X54575000Y-63850000D01*
G75*
G02*
X54150000Y-63425000I0J425000D01*
G01*
X54150000Y-62575000D01*
G75*
G02*
X54575000Y-62150000I425000J0D01*
G01*
X55425000Y-62150000D01*
G75*
G02*
X55850000Y-62575000I0J-425000D01*
G01*
G37*
%TD.AperFunction*%
%TO.P,J2,2*%
%TO.N,GND*%
X55000000Y-65540000D03*
%TD*%
%TO.P,J3,2*%
%TO.N,/CTRL_R*%
X97960000Y-42250000D03*
%TO.P,J3,1*%
%TO.N,/USR_LED_B*%
%TA.AperFunction,ComponentPad*%
G36*
G01*
X100925000Y-43100000D02*
X100075000Y-43100000D01*
G75*
G02*
X99650000Y-42675000I0J425000D01*
G01*
X99650000Y-41825000D01*
G75*
G02*
X100075000Y-41400000I425000J0D01*
G01*
X100925000Y-41400000D01*
G75*
G02*
X101350000Y-41825000I0J-425000D01*
G01*
X101350000Y-42675000D01*
G75*
G02*
X100925000Y-43100000I-425000J0D01*
G01*
G37*
%TD.AperFunction*%
%TD*%
%TO.P,J4,2*%
%TO.N,GND*%
X85000000Y-65540000D03*
%TO.P,J4,1*%
%TO.N,+12V*%
%TA.AperFunction,ComponentPad*%
G36*
G01*
X85850000Y-62575000D02*
X85850000Y-63425000D01*
G75*
G02*
X85425000Y-63850000I-425000J0D01*
G01*
X84575000Y-63850000D01*
G75*
G02*
X84150000Y-63425000I0J425000D01*
G01*
X84150000Y-62575000D01*
G75*
G02*
X84575000Y-62150000I425000J0D01*
G01*
X85425000Y-62150000D01*
G75*
G02*
X85850000Y-62575000I0J-425000D01*
G01*
G37*
%TD.AperFunction*%
%TD*%
D24*
%TO.N,*%
X55250000Y-52250000D03*
X50250000Y-54250000D03*
X44250000Y-52250000D03*
X46970000Y-39560000D03*
D25*
X42250000Y-52500000D03*
D24*
%TO.N,/CTRL_L*%
X40560000Y-51500000D03*
X45866646Y-42044452D03*
X50780000Y-38290000D03*
D25*
%TO.N,/USR_LED_A*%
X42250000Y-54500000D03*
D24*
%TO.N,/USR_LED_B*%
X92690000Y-43370000D03*
%TO.N,/CTRL_R*%
X90560000Y-51500000D03*
%TO.N,Net-(C11-Pad1)*%
X40620000Y-72580000D03*
X48240000Y-70040000D03*
%TO.N,+5V*%
X40620000Y-78930000D03*
X40620000Y-76390000D03*
X106660000Y-76390000D03*
X110470000Y-78930000D03*
X39350000Y-67500000D03*
%TO.N,/PWM_LED*%
X79990000Y-39560000D03*
%TO.N,/FAN_PIN*%
X105390000Y-68770000D03*
X88880000Y-38290000D03*
%TO.N,Net-(U4-Pad1)*%
X55250000Y-54250000D03*
D25*
%TO.N,GND*%
X92500000Y-52500000D03*
X92500000Y-54500000D03*
D24*
X101750000Y-62250000D03*
X103750000Y-62250000D03*
X105750000Y-62250000D03*
X105750000Y-60250000D03*
X97750000Y-66250000D03*
X93750000Y-66250000D03*
X91750000Y-64250000D03*
X91750000Y-66250000D03*
X93750000Y-64250000D03*
X95750000Y-64250000D03*
X97750000Y-64250000D03*
X99750000Y-62250000D03*
X103750000Y-60250000D03*
X103750000Y-58250000D03*
X105750000Y-58250000D03*
X105750000Y-56250000D03*
X103750000Y-56250000D03*
X103750000Y-54250000D03*
X105750000Y-54250000D03*
X105750000Y-52250000D03*
X103750000Y-52250000D03*
X103750000Y-50250000D03*
X105750000Y-50250000D03*
X105750000Y-48250000D03*
X105750000Y-46250000D03*
X103750000Y-46250000D03*
X103750000Y-48250000D03*
X99750000Y-56250000D03*
X97750000Y-56250000D03*
X97750000Y-58250000D03*
X95750000Y-56250000D03*
X93750000Y-56250000D03*
X91750000Y-56250000D03*
X91750000Y-58250000D03*
X91750000Y-62250000D03*
X97750000Y-62250000D03*
X97750000Y-54250000D03*
X95750000Y-54250000D03*
X93750000Y-54250000D03*
X93750000Y-52250000D03*
X95750000Y-52250000D03*
X97750000Y-52250000D03*
X99750000Y-54250000D03*
X99750000Y-52250000D03*
X99750000Y-50250000D03*
X97750000Y-50250000D03*
X91750000Y-50250000D03*
X97750000Y-46250000D03*
X97750000Y-44250000D03*
X99750000Y-44250000D03*
X101750000Y-44250000D03*
X95750000Y-44250000D03*
X93750000Y-44250000D03*
X91750000Y-44250000D03*
X91750000Y-46250000D03*
X89750000Y-44250000D03*
X89750000Y-46250000D03*
X87750000Y-46250000D03*
X87750000Y-44250000D03*
X85750000Y-44250000D03*
X85750000Y-46250000D03*
X85750000Y-48250000D03*
X85750000Y-50250000D03*
X93750000Y-42250000D03*
X91750000Y-42250000D03*
X89750000Y-42250000D03*
X87750000Y-42250000D03*
X38250000Y-66250000D03*
X34250000Y-62250000D03*
X42250000Y-66250000D03*
X44250000Y-66250000D03*
X46250000Y-66250000D03*
X48250000Y-66250000D03*
X48250000Y-64250000D03*
X46250000Y-64250000D03*
X44250000Y-64250000D03*
X42250000Y-64250000D03*
X38250000Y-64250000D03*
X48250000Y-62250000D03*
X48250000Y-58250000D03*
X42250000Y-58250000D03*
X42250000Y-62250000D03*
X40250000Y-58250000D03*
X48250000Y-56250000D03*
X46250000Y-56250000D03*
X44250000Y-56250000D03*
X40250000Y-56250000D03*
X48250000Y-54250000D03*
X46250000Y-54250000D03*
X50250000Y-56250000D03*
X55250000Y-58250000D03*
X55250000Y-56250000D03*
X53250000Y-54250000D03*
X53250000Y-56250000D03*
X53250000Y-52250000D03*
X53250000Y-50250000D03*
X55250000Y-50250000D03*
X50250000Y-52250000D03*
X50250000Y-50250000D03*
X48250000Y-50250000D03*
X48250000Y-52250000D03*
X46250000Y-52250000D03*
X48250000Y-46250000D03*
X55250000Y-48250000D03*
X55250000Y-46250000D03*
X53250000Y-44250000D03*
X55250000Y-44250000D03*
X55250000Y-42250000D03*
X53250000Y-42250000D03*
X51250000Y-42250000D03*
X51250000Y-44250000D03*
X49250000Y-44250000D03*
X47250000Y-44250000D03*
X45250000Y-44250000D03*
X43250000Y-44250000D03*
X34250000Y-50250000D03*
X34250000Y-48250000D03*
X34250000Y-46250000D03*
X36250000Y-46250000D03*
X36250000Y-48250000D03*
X36250000Y-50250000D03*
X38250000Y-46250000D03*
X40250000Y-46250000D03*
X40250000Y-44250000D03*
X38250000Y-44250000D03*
X58000000Y-41900000D03*
X60000000Y-41900000D03*
X62000000Y-41900000D03*
X64000000Y-41900000D03*
X66000000Y-41900000D03*
X68000000Y-41900000D03*
X70000000Y-41900000D03*
X72000000Y-41900000D03*
X74000000Y-41900000D03*
X76000000Y-41900000D03*
X78000000Y-41900000D03*
X80000000Y-41900000D03*
X82000000Y-41900000D03*
X55250000Y-60250000D03*
X50250000Y-62250000D03*
X52250000Y-62250000D03*
X42250000Y-56250000D03*
X44250000Y-54250000D03*
X109200000Y-43370000D03*
X107930000Y-44640000D03*
X50272000Y-39560000D03*
X85750000Y-42500000D03*
X90750000Y-42500000D03*
X102250000Y-43750000D03*
X96250000Y-43750000D03*
D25*
X92500000Y-53500000D03*
D24*
X88880000Y-39560000D03*
X39350000Y-52260000D03*
D25*
%TO.N,+12V*%
X35000000Y-60750000D03*
D24*
X104120000Y-67500000D03*
X110470000Y-47180000D03*
X40620000Y-80200000D03*
X52050000Y-72580000D03*
%TD*%
D26*
%TO.N,*%
X55787001Y-51712999D02*
X55250000Y-52250000D01*
X55787001Y-36618237D02*
X55787001Y-51712999D01*
X56792239Y-35612999D02*
X55787001Y-36618237D01*
X58327001Y-35612999D02*
X56792239Y-35612999D01*
X59830000Y-34110000D02*
X58327001Y-35612999D01*
X49724999Y-54775001D02*
X50250000Y-54250000D01*
X47997999Y-54775001D02*
X49724999Y-54775001D01*
X47724999Y-54502001D02*
X47997999Y-54775001D01*
X47724999Y-48997999D02*
X47724999Y-54502001D01*
X54750000Y-41972998D02*
X47724999Y-48997999D01*
X54750000Y-36650000D02*
X54750000Y-41972998D01*
X45649999Y-50850001D02*
X44250000Y-52250000D01*
X45649999Y-44627003D02*
X45649999Y-50850001D01*
X45775001Y-44502001D02*
X45649999Y-44627003D01*
X45775001Y-43552003D02*
X45775001Y-44502001D01*
X44724999Y-42502001D02*
X45775001Y-43552003D01*
X44724999Y-41805001D02*
X44724999Y-42502001D01*
X46970000Y-39560000D02*
X44724999Y-41805001D01*
X43461999Y-47750001D02*
X43149999Y-48062001D01*
X44038001Y-47750001D02*
X43461999Y-47750001D01*
X44350001Y-47438001D02*
X44038001Y-47750001D01*
X44350001Y-46861999D02*
X44350001Y-47438001D01*
X43149999Y-51600001D02*
X42250000Y-52500000D01*
X44324989Y-46836987D02*
X44350001Y-46861999D01*
X46092999Y-39871303D02*
X44324989Y-41639312D01*
X44324989Y-41639312D02*
X44324989Y-46836987D01*
X46092999Y-35147001D02*
X46092999Y-39871303D01*
X43149999Y-48062001D02*
X43149999Y-51600001D01*
X47130000Y-34110000D02*
X46092999Y-35147001D01*
D27*
%TO.N,/CTRL_L*%
X42040000Y-50020000D02*
X40560000Y-51500000D01*
X42040000Y-42250000D02*
X42040000Y-50020000D01*
D26*
X45866646Y-42044452D02*
X49621098Y-38290000D01*
X49621098Y-38290000D02*
X50780000Y-38290000D01*
%TO.N,/USR_LED_B*%
X92690000Y-42412998D02*
X92690000Y-43370000D01*
X91652001Y-41374999D02*
X92690000Y-42412998D01*
X75070000Y-36650000D02*
X79794999Y-41374999D01*
X79794999Y-41374999D02*
X91652001Y-41374999D01*
D27*
%TO.N,/CTRL_R*%
X97009998Y-42250000D02*
X97960000Y-42250000D01*
X90560000Y-48699998D02*
X90560000Y-51500000D01*
X97009998Y-42250000D02*
X90560000Y-48699998D01*
D26*
X95795001Y-40085001D02*
X97960000Y-42250000D01*
X83585001Y-40085001D02*
X95795001Y-40085001D01*
X80150000Y-36650000D02*
X83585001Y-40085001D01*
%TO.N,Net-(C11-Pad1)*%
X40620000Y-72580000D02*
X43160000Y-70040000D01*
X43160000Y-70040000D02*
X48240000Y-70040000D01*
%TO.N,+5V*%
X40620000Y-78930000D02*
X40620000Y-76390000D01*
D28*
X106660000Y-76390000D02*
X107930000Y-76390000D01*
X107930000Y-76390000D02*
X110470000Y-78930000D01*
D26*
X100111238Y-72580000D02*
X95031238Y-67500000D01*
X111740000Y-70310000D02*
X115550000Y-70310000D01*
X113280000Y-72580000D02*
X100111238Y-72580000D01*
X115550000Y-70310000D02*
X113280000Y-72580000D01*
X38080000Y-71310000D02*
X41890000Y-67500000D01*
X95031238Y-67500000D02*
X41890000Y-67500000D01*
X41890000Y-67500000D02*
X39350000Y-67500000D01*
D28*
%TO.N,/PWM_LED*%
X77610000Y-37180000D02*
X77610000Y-36650000D01*
X79990000Y-39560000D02*
X77610000Y-37180000D01*
%TO.N,Net-(J6-Pad1)*%
X88880000Y-75120000D02*
X111740000Y-75120000D01*
X85070000Y-71310000D02*
X88880000Y-75120000D01*
%TO.N,/FAN_PIN*%
X105390000Y-68770000D02*
X106660000Y-67500000D01*
X106660000Y-67500000D02*
X106660000Y-42100000D01*
X106660000Y-42100000D02*
X103265001Y-38705001D01*
X89295001Y-38705001D02*
X88880000Y-38290000D01*
X103265001Y-38705001D02*
X89295001Y-38705001D01*
D26*
%TO.N,Net-(U4-Pad1)*%
X55250000Y-54250000D02*
X56187011Y-53312989D01*
X56187011Y-53312989D02*
X56187011Y-41772989D01*
X59830000Y-38130000D02*
X59830000Y-36650000D01*
X56187011Y-41772989D02*
X59830000Y-38130000D01*
X56187011Y-52089991D02*
X56187011Y-41772989D01*
X47832310Y-55175011D02*
X53101991Y-55175011D01*
X47324989Y-54667690D02*
X47832310Y-55175011D01*
X46850001Y-45427001D02*
X47324989Y-44952013D01*
X42574001Y-55175001D02*
X46850001Y-50899001D01*
X41925999Y-55175001D02*
X42574001Y-55175001D01*
X46850001Y-50899001D02*
X46850001Y-45427001D01*
X41574999Y-54824001D02*
X41925999Y-55175001D01*
X47324989Y-44952013D02*
X47324989Y-54667690D01*
X41574999Y-52175999D02*
X41574999Y-54824001D01*
X53101991Y-55175011D02*
X56187011Y-52089991D01*
X42749989Y-51001009D02*
X41574999Y-52175999D01*
X42749989Y-47262009D02*
X42749989Y-51001009D01*
X43924979Y-46087019D02*
X42749989Y-47262009D01*
X43924979Y-41064979D02*
X43924979Y-46087019D01*
X39510000Y-36650000D02*
X43924979Y-41064979D01*
%TO.N,GND*%
X104914999Y-68998001D02*
X104914999Y-63085001D01*
X107226998Y-71310000D02*
X104914999Y-68998001D01*
X104914999Y-63085001D02*
X105750000Y-62250000D01*
X111740000Y-71310000D02*
X107226998Y-71310000D01*
X109200000Y-43370000D02*
X107930000Y-44640000D01*
X51250000Y-40538000D02*
X51250000Y-42250000D01*
X50272000Y-39560000D02*
X51250000Y-40538000D01*
D29*
X87770000Y-36650000D02*
X87770000Y-39400000D01*
X88880000Y-39560000D02*
X87930000Y-39560000D01*
X87930000Y-39560000D02*
X87770000Y-39400000D01*
%TO.N,+12V*%
X55000000Y-63000000D02*
X37250000Y-63000000D01*
X37250000Y-63000000D02*
X35000000Y-60750000D01*
X85000000Y-63000000D02*
X84380000Y-63000000D01*
X84380000Y-63000000D02*
X83800000Y-62420000D01*
X83800000Y-44640000D02*
X82530000Y-43370000D01*
X83800000Y-61150000D02*
X83800000Y-44640000D01*
X83800000Y-62420000D02*
X83800000Y-61150000D01*
X57130000Y-61541765D02*
X55868520Y-62803245D01*
X55868520Y-62803245D02*
X55475010Y-62803245D01*
X57130000Y-43370000D02*
X57130000Y-61541765D01*
X55475010Y-62803245D02*
X55335882Y-62664117D01*
X82530000Y-43370000D02*
X57130000Y-43370000D01*
X89353002Y-61150000D02*
X95703002Y-67500000D01*
X95703002Y-67500000D02*
X104120000Y-67500000D01*
X110470000Y-43936998D02*
X109200000Y-42666998D01*
X110470000Y-47180000D02*
X110470000Y-43936998D01*
X109200000Y-37020000D02*
X111740000Y-34480000D01*
X109200000Y-42666998D02*
X109200000Y-37020000D01*
X85070000Y-61150000D02*
X83800000Y-62420000D01*
X89353002Y-61150000D02*
X85070000Y-61150000D01*
D28*
X40620000Y-80200000D02*
X41890000Y-81470000D01*
X41890000Y-81470000D02*
X50780000Y-81470000D01*
X50780000Y-81470000D02*
X53320000Y-78930000D01*
X53320000Y-78930000D02*
X53320000Y-73850000D01*
X53320000Y-73850000D02*
X52050000Y-72580000D01*
%TD*%
D30*
%TO.N,GND*%
G36*
X118708000Y-90978000D02*
G01*
X31112000Y-90978000D01*
X31112000Y-85601774D01*
X31337176Y-86145396D01*
X31745050Y-86755824D01*
X32264176Y-87274950D01*
X32874604Y-87682824D01*
X33552874Y-87963773D01*
X34272923Y-88107000D01*
X35007077Y-88107000D01*
X35727126Y-87963773D01*
X36405396Y-87682824D01*
X37015824Y-87274950D01*
X37534950Y-86755824D01*
X37942824Y-86145396D01*
X38223773Y-85467126D01*
X38367000Y-84747077D01*
X38367000Y-84012923D01*
X88913000Y-84012923D01*
X88913000Y-84747077D01*
X89056227Y-85467126D01*
X89337176Y-86145396D01*
X89745050Y-86755824D01*
X90264176Y-87274950D01*
X90874604Y-87682824D01*
X91552874Y-87963773D01*
X92272923Y-88107000D01*
X93007077Y-88107000D01*
X93727126Y-87963773D01*
X94405396Y-87682824D01*
X95015824Y-87274950D01*
X95534950Y-86755824D01*
X95942824Y-86145396D01*
X96223773Y-85467126D01*
X96367000Y-84747077D01*
X96367000Y-84012923D01*
X96223773Y-83292874D01*
X95942824Y-82614604D01*
X95534950Y-82004176D01*
X95015824Y-81485050D01*
X94405396Y-81077176D01*
X93727126Y-80796227D01*
X93007077Y-80653000D01*
X92272923Y-80653000D01*
X91552874Y-80796227D01*
X90874604Y-81077176D01*
X90264176Y-81485050D01*
X89745050Y-82004176D01*
X89337176Y-82614604D01*
X89056227Y-83292874D01*
X88913000Y-84012923D01*
X38367000Y-84012923D01*
X38223773Y-83292874D01*
X37942824Y-82614604D01*
X37534950Y-82004176D01*
X37015824Y-81485050D01*
X36405396Y-81077176D01*
X35727126Y-80796227D01*
X35007077Y-80653000D01*
X34272923Y-80653000D01*
X33552874Y-80796227D01*
X32874604Y-81077176D01*
X32264176Y-81485050D01*
X31745050Y-82004176D01*
X31337176Y-82614604D01*
X31112000Y-83158226D01*
X31112000Y-76303623D01*
X39743000Y-76303623D01*
X39743000Y-76476377D01*
X39776703Y-76645811D01*
X39842813Y-76805415D01*
X39868001Y-76843111D01*
X39868000Y-78476890D01*
X39842813Y-78514585D01*
X39776703Y-78674189D01*
X39743000Y-78843623D01*
X39743000Y-79016377D01*
X39776703Y-79185811D01*
X39842813Y-79345415D01*
X39938790Y-79489055D01*
X40014735Y-79565000D01*
X39938790Y-79640945D01*
X39842813Y-79784585D01*
X39776703Y-79944189D01*
X39743000Y-80113623D01*
X39743000Y-80286377D01*
X39776703Y-80455811D01*
X39842813Y-80615415D01*
X39938790Y-80759055D01*
X40060945Y-80881210D01*
X40204585Y-80977187D01*
X40364189Y-81043297D01*
X40496922Y-81069700D01*
X41369233Y-81942011D01*
X41391210Y-81968790D01*
X41417989Y-81990767D01*
X41417991Y-81990769D01*
X41498102Y-82056515D01*
X41563288Y-82091357D01*
X41620057Y-82121701D01*
X41752384Y-82161842D01*
X41855520Y-82172000D01*
X41855529Y-82172000D01*
X41889999Y-82175395D01*
X41924469Y-82172000D01*
X50745530Y-82172000D01*
X50780000Y-82175395D01*
X50814470Y-82172000D01*
X50814480Y-82172000D01*
X50917616Y-82161842D01*
X51049943Y-82121701D01*
X51171897Y-82056515D01*
X51278790Y-81968790D01*
X51300772Y-81942006D01*
X53792015Y-79450763D01*
X53818789Y-79428790D01*
X53840763Y-79402015D01*
X53840769Y-79402009D01*
X53906515Y-79321898D01*
X53971700Y-79199944D01*
X53971701Y-79199943D01*
X54011842Y-79067616D01*
X54022000Y-78964480D01*
X54022000Y-78964471D01*
X54025395Y-78930001D01*
X54022000Y-78895531D01*
X54022000Y-73884469D01*
X54025394Y-73850000D01*
X83435358Y-73850000D01*
X83465854Y-74159636D01*
X83556172Y-74457373D01*
X83702840Y-74731769D01*
X83900221Y-74972279D01*
X84080220Y-75120000D01*
X83900221Y-75267721D01*
X83702840Y-75508231D01*
X83556172Y-75782627D01*
X83465854Y-76080364D01*
X83435358Y-76390000D01*
X83465854Y-76699636D01*
X83556172Y-76997373D01*
X83702840Y-77271769D01*
X83900221Y-77512279D01*
X84140731Y-77709660D01*
X84415127Y-77856328D01*
X84712864Y-77946646D01*
X84944908Y-77969500D01*
X85195092Y-77969500D01*
X85427136Y-77946646D01*
X85724873Y-77856328D01*
X85999269Y-77709660D01*
X86239779Y-77512279D01*
X86437160Y-77271769D01*
X86583828Y-76997373D01*
X86674146Y-76699636D01*
X86704642Y-76390000D01*
X86674146Y-76080364D01*
X86583828Y-75782627D01*
X86437160Y-75508231D01*
X86239779Y-75267721D01*
X86059780Y-75120000D01*
X86239779Y-74972279D01*
X86437160Y-74731769D01*
X86583828Y-74457373D01*
X86674146Y-74159636D01*
X86696804Y-73929582D01*
X88359233Y-75592011D01*
X88381210Y-75618790D01*
X88407989Y-75640767D01*
X88407992Y-75640770D01*
X88465542Y-75688000D01*
X88488103Y-75706515D01*
X88610057Y-75771701D01*
X88742384Y-75811842D01*
X88845520Y-75822000D01*
X88845530Y-75822000D01*
X88880000Y-75825395D01*
X88914470Y-75822000D01*
X105987735Y-75822000D01*
X105978790Y-75830945D01*
X105882813Y-75974585D01*
X105816703Y-76134189D01*
X105783000Y-76303623D01*
X105783000Y-76476377D01*
X105816703Y-76645811D01*
X105882813Y-76805415D01*
X105978790Y-76949055D01*
X106100945Y-77071210D01*
X106244585Y-77167187D01*
X106404189Y-77233297D01*
X106573623Y-77267000D01*
X106746377Y-77267000D01*
X106915811Y-77233297D01*
X107075415Y-77167187D01*
X107187941Y-77092000D01*
X107639223Y-77092000D01*
X109600300Y-79053078D01*
X109626703Y-79185811D01*
X109692813Y-79345415D01*
X109788790Y-79489055D01*
X109910945Y-79611210D01*
X110054585Y-79707187D01*
X110214189Y-79773297D01*
X110383623Y-79807000D01*
X110556377Y-79807000D01*
X110725811Y-79773297D01*
X110885415Y-79707187D01*
X111029055Y-79611210D01*
X111151210Y-79489055D01*
X111247187Y-79345415D01*
X111313297Y-79185811D01*
X111347000Y-79016377D01*
X111347000Y-78843623D01*
X111313297Y-78674189D01*
X111247187Y-78514585D01*
X111151210Y-78370945D01*
X111029055Y-78248790D01*
X110885415Y-78152813D01*
X110725811Y-78086703D01*
X110593078Y-78060300D01*
X108450772Y-75917994D01*
X108428790Y-75891210D01*
X108344458Y-75822000D01*
X110752112Y-75822000D01*
X110791147Y-75895028D01*
X110869499Y-75990501D01*
X110964972Y-76068853D01*
X111073897Y-76127075D01*
X111192087Y-76162927D01*
X111315000Y-76175033D01*
X112165000Y-76175033D01*
X112287913Y-76162927D01*
X112406103Y-76127075D01*
X112515028Y-76068853D01*
X112610501Y-75990501D01*
X112688853Y-75895028D01*
X112747075Y-75786103D01*
X112782927Y-75667913D01*
X112795033Y-75545000D01*
X112795033Y-74695000D01*
X112782927Y-74572087D01*
X112747075Y-74453897D01*
X112745993Y-74451873D01*
X112748872Y-74445250D01*
X112759540Y-74410062D01*
X112632257Y-74247000D01*
X112607456Y-74247000D01*
X112515028Y-74171147D01*
X112406103Y-74112925D01*
X112287913Y-74077073D01*
X112165000Y-74064967D01*
X111315000Y-74064967D01*
X111192087Y-74077073D01*
X111073897Y-74112925D01*
X110964972Y-74171147D01*
X110872544Y-74247000D01*
X110847743Y-74247000D01*
X110720460Y-74410062D01*
X110722867Y-74418000D01*
X89170778Y-74418000D01*
X86700033Y-71947256D01*
X86700033Y-70357500D01*
X86687927Y-70234587D01*
X86652075Y-70116397D01*
X86593853Y-70007472D01*
X86515501Y-69911999D01*
X86420028Y-69833647D01*
X86311103Y-69775425D01*
X86192913Y-69739573D01*
X86070000Y-69727467D01*
X84070000Y-69727467D01*
X83947087Y-69739573D01*
X83828897Y-69775425D01*
X83719972Y-69833647D01*
X83624499Y-69911999D01*
X83546147Y-70007472D01*
X83487925Y-70116397D01*
X83452073Y-70234587D01*
X83439967Y-70357500D01*
X83439967Y-72262500D01*
X83452073Y-72385413D01*
X83487925Y-72503603D01*
X83546147Y-72612528D01*
X83624499Y-72708001D01*
X83719972Y-72786353D01*
X83811815Y-72835444D01*
X83702840Y-72968231D01*
X83556172Y-73242627D01*
X83465854Y-73540364D01*
X83435358Y-73850000D01*
X54025394Y-73850000D01*
X54025395Y-73849999D01*
X54022000Y-73815529D01*
X54022000Y-73815520D01*
X54011842Y-73712384D01*
X53971701Y-73580057D01*
X53941357Y-73523288D01*
X53906515Y-73458102D01*
X53840769Y-73377991D01*
X53840767Y-73377989D01*
X53818790Y-73351210D01*
X53792011Y-73329233D01*
X52919700Y-72456922D01*
X52893297Y-72324189D01*
X52827187Y-72164585D01*
X52731210Y-72020945D01*
X52609055Y-71898790D01*
X52465415Y-71802813D01*
X52305811Y-71736703D01*
X52136377Y-71703000D01*
X51963623Y-71703000D01*
X51794189Y-71736703D01*
X51634585Y-71802813D01*
X51490945Y-71898790D01*
X51368790Y-72020945D01*
X51272813Y-72164585D01*
X51206703Y-72324189D01*
X51173000Y-72493623D01*
X51173000Y-72666377D01*
X51206703Y-72835811D01*
X51272813Y-72995415D01*
X51368790Y-73139055D01*
X51490945Y-73261210D01*
X51634585Y-73357187D01*
X51794189Y-73423297D01*
X51926922Y-73449700D01*
X52618001Y-74140779D01*
X52618000Y-78639222D01*
X50489223Y-80768000D01*
X42180778Y-80768000D01*
X41489700Y-80076922D01*
X41463297Y-79944189D01*
X41397187Y-79784585D01*
X41301210Y-79640945D01*
X41225265Y-79565000D01*
X41301210Y-79489055D01*
X41397187Y-79345415D01*
X41463297Y-79185811D01*
X41497000Y-79016377D01*
X41497000Y-78843623D01*
X41463297Y-78674189D01*
X41397187Y-78514585D01*
X41372000Y-78476890D01*
X41372000Y-76843110D01*
X41397187Y-76805415D01*
X41463297Y-76645811D01*
X41497000Y-76476377D01*
X41497000Y-76303623D01*
X41463297Y-76134189D01*
X41397187Y-75974585D01*
X41301210Y-75830945D01*
X41179055Y-75708790D01*
X41035415Y-75612813D01*
X40875811Y-75546703D01*
X40706377Y-75513000D01*
X40533623Y-75513000D01*
X40364189Y-75546703D01*
X40204585Y-75612813D01*
X40060945Y-75708790D01*
X39938790Y-75830945D01*
X39842813Y-75974585D01*
X39776703Y-76134189D01*
X39743000Y-76303623D01*
X31112000Y-76303623D01*
X31112000Y-72302702D01*
X34766903Y-72302702D01*
X34838486Y-72546671D01*
X35093996Y-72667571D01*
X35368184Y-72736300D01*
X35650512Y-72750217D01*
X35930130Y-72708787D01*
X36196292Y-72613603D01*
X36321514Y-72546671D01*
X36393097Y-72302702D01*
X35580000Y-71489605D01*
X34766903Y-72302702D01*
X31112000Y-72302702D01*
X31112000Y-71380512D01*
X34139783Y-71380512D01*
X34181213Y-71660130D01*
X34276397Y-71926292D01*
X34343329Y-72051514D01*
X34587298Y-72123097D01*
X35400395Y-71310000D01*
X34587298Y-70496903D01*
X34343329Y-70568486D01*
X34222429Y-70823996D01*
X34153700Y-71098184D01*
X34139783Y-71380512D01*
X31112000Y-71380512D01*
X31112000Y-70317298D01*
X34766903Y-70317298D01*
X35580000Y-71130395D01*
X36393097Y-70317298D01*
X36321514Y-70073329D01*
X36066004Y-69952429D01*
X35791816Y-69883700D01*
X35509488Y-69869783D01*
X35229870Y-69911213D01*
X34963708Y-70006397D01*
X34838486Y-70073329D01*
X34766903Y-70317298D01*
X31112000Y-70317298D01*
X31112000Y-36601774D01*
X31337176Y-37145396D01*
X31745050Y-37755824D01*
X32264176Y-38274950D01*
X32874604Y-38682824D01*
X33552874Y-38963773D01*
X34272923Y-39107000D01*
X35007077Y-39107000D01*
X35727126Y-38963773D01*
X36405396Y-38682824D01*
X37015824Y-38274950D01*
X37534950Y-37755824D01*
X37942824Y-37145396D01*
X38117967Y-36722564D01*
X38117967Y-37412000D01*
X38130073Y-37534913D01*
X38165925Y-37653103D01*
X38224147Y-37762028D01*
X38302499Y-37857501D01*
X38397972Y-37935853D01*
X38506897Y-37994075D01*
X38625087Y-38029927D01*
X38748000Y-38042033D01*
X39838545Y-38042033D01*
X42736188Y-40939676D01*
X42470825Y-40829760D01*
X42185472Y-40773000D01*
X41894528Y-40773000D01*
X41609175Y-40829760D01*
X41340378Y-40941099D01*
X41098467Y-41102739D01*
X40892739Y-41308467D01*
X40863126Y-41352787D01*
X40802228Y-41238855D01*
X40671021Y-41078979D01*
X40511145Y-40947772D01*
X40328744Y-40850277D01*
X40130827Y-40790239D01*
X39925000Y-40769967D01*
X39075000Y-40769967D01*
X38869173Y-40790239D01*
X38671256Y-40850277D01*
X38488855Y-40947772D01*
X38328979Y-41078979D01*
X38197772Y-41238855D01*
X38100277Y-41421256D01*
X38040239Y-41619173D01*
X38019967Y-41825000D01*
X38019967Y-42675000D01*
X38040239Y-42880827D01*
X38100277Y-43078744D01*
X38197772Y-43261145D01*
X38328979Y-43421021D01*
X38488855Y-43552228D01*
X38671256Y-43649723D01*
X38869173Y-43709761D01*
X39075000Y-43730033D01*
X39925000Y-43730033D01*
X40130827Y-43709761D01*
X40328744Y-43649723D01*
X40511145Y-43552228D01*
X40671021Y-43421021D01*
X40802228Y-43261145D01*
X40863126Y-43147213D01*
X40892739Y-43191533D01*
X41098467Y-43397261D01*
X41313000Y-43540608D01*
X41313001Y-49718866D01*
X40392789Y-50639079D01*
X40304189Y-50656703D01*
X40144585Y-50722813D01*
X40000945Y-50818790D01*
X39878790Y-50940945D01*
X39782813Y-51084585D01*
X39716703Y-51244189D01*
X39683000Y-51413623D01*
X39683000Y-51586377D01*
X39716703Y-51755811D01*
X39782813Y-51915415D01*
X39878790Y-52059055D01*
X40000945Y-52181210D01*
X40144585Y-52277187D01*
X40304189Y-52343297D01*
X40473623Y-52377000D01*
X40646377Y-52377000D01*
X40815811Y-52343297D01*
X40822999Y-52340320D01*
X40823000Y-54787056D01*
X40819361Y-54824001D01*
X40828995Y-54921811D01*
X40833881Y-54971419D01*
X40844865Y-55007626D01*
X40876881Y-55113170D01*
X40946709Y-55243811D01*
X41011229Y-55322428D01*
X41040683Y-55358318D01*
X41069374Y-55381864D01*
X41368132Y-55680622D01*
X41391682Y-55709318D01*
X41506189Y-55803291D01*
X41636829Y-55873119D01*
X41778581Y-55916120D01*
X41889061Y-55927001D01*
X41889063Y-55927001D01*
X41925999Y-55930639D01*
X41962934Y-55927001D01*
X42537066Y-55927001D01*
X42574001Y-55930639D01*
X42610936Y-55927001D01*
X42610939Y-55927001D01*
X42721419Y-55916120D01*
X42863171Y-55873119D01*
X42993811Y-55803291D01*
X43108318Y-55709318D01*
X43131868Y-55680622D01*
X46572990Y-52239501D01*
X46572990Y-54630744D01*
X46569351Y-54667690D01*
X46583871Y-54815107D01*
X46626871Y-54956859D01*
X46696699Y-55087500D01*
X46731817Y-55130291D01*
X46790673Y-55202007D01*
X46819363Y-55225552D01*
X47274447Y-55680637D01*
X47297993Y-55709328D01*
X47326684Y-55732874D01*
X47412499Y-55803301D01*
X47482327Y-55840624D01*
X47543140Y-55873129D01*
X47684892Y-55916130D01*
X47795372Y-55927011D01*
X47795374Y-55927011D01*
X47832309Y-55930649D01*
X47869245Y-55927011D01*
X53065056Y-55927011D01*
X53101991Y-55930649D01*
X53138926Y-55927011D01*
X53138929Y-55927011D01*
X53249409Y-55916130D01*
X53391161Y-55873129D01*
X53521801Y-55803301D01*
X53636308Y-55709328D01*
X53659858Y-55680632D01*
X54553828Y-54786662D01*
X54568790Y-54809055D01*
X54690945Y-54931210D01*
X54834585Y-55027187D01*
X54994189Y-55093297D01*
X55163623Y-55127000D01*
X55336377Y-55127000D01*
X55505811Y-55093297D01*
X55665415Y-55027187D01*
X55809055Y-54931210D01*
X55931210Y-54809055D01*
X56027187Y-54665415D01*
X56093297Y-54505811D01*
X56102142Y-54461346D01*
X56253001Y-54310487D01*
X56253001Y-61178498D01*
X55830359Y-61601140D01*
X55828744Y-61600277D01*
X55630827Y-61540239D01*
X55425000Y-61519967D01*
X54575000Y-61519967D01*
X54369173Y-61540239D01*
X54171256Y-61600277D01*
X53988855Y-61697772D01*
X53828979Y-61828979D01*
X53697772Y-61988855D01*
X53626070Y-62123000D01*
X37613265Y-62123000D01*
X35999162Y-60508897D01*
X35987533Y-60450435D01*
X35910115Y-60263533D01*
X35797723Y-60095326D01*
X35654674Y-59952277D01*
X35486467Y-59839885D01*
X35299565Y-59762467D01*
X35101151Y-59723000D01*
X34898849Y-59723000D01*
X34700435Y-59762467D01*
X34513533Y-59839885D01*
X34345326Y-59952277D01*
X34202277Y-60095326D01*
X34089885Y-60263533D01*
X34012467Y-60450435D01*
X33973000Y-60648849D01*
X33973000Y-60851151D01*
X34012467Y-61049565D01*
X34089885Y-61236467D01*
X34202277Y-61404674D01*
X34345326Y-61547723D01*
X34513533Y-61660115D01*
X34700435Y-61737533D01*
X34758897Y-61749162D01*
X36599403Y-63589668D01*
X36626867Y-63623133D01*
X36760407Y-63732726D01*
X36760408Y-63732727D01*
X36912763Y-63814162D01*
X37078077Y-63864310D01*
X37250000Y-63881243D01*
X37293079Y-63877000D01*
X53626070Y-63877000D01*
X53697772Y-64011145D01*
X53828979Y-64171021D01*
X53988855Y-64302228D01*
X54099995Y-64361633D01*
X53902412Y-64539731D01*
X53728359Y-64773080D01*
X53603175Y-65035901D01*
X53558524Y-65183110D01*
X53679845Y-65413000D01*
X54873000Y-65413000D01*
X54873000Y-65393000D01*
X55127000Y-65393000D01*
X55127000Y-65413000D01*
X56320155Y-65413000D01*
X56441476Y-65183110D01*
X56396825Y-65035901D01*
X56271641Y-64773080D01*
X56097588Y-64539731D01*
X55900005Y-64361633D01*
X56011145Y-64302228D01*
X56171021Y-64171021D01*
X56302228Y-64011145D01*
X56399723Y-63828744D01*
X56459761Y-63630827D01*
X56478864Y-63436874D01*
X56491653Y-63426378D01*
X56519117Y-63392914D01*
X57719674Y-62192357D01*
X57753133Y-62164898D01*
X57820539Y-62082764D01*
X57834019Y-62066338D01*
X57862727Y-62031357D01*
X57944162Y-61879002D01*
X57994310Y-61713687D01*
X58007000Y-61584844D01*
X58007000Y-61584843D01*
X58011243Y-61541766D01*
X58007000Y-61498689D01*
X58007000Y-44247000D01*
X82166735Y-44247000D01*
X82923001Y-45003266D01*
X82923000Y-61193078D01*
X82923001Y-61193088D01*
X82923000Y-62376920D01*
X82918757Y-62420000D01*
X82935690Y-62591922D01*
X82985838Y-62757236D01*
X83067273Y-62909591D01*
X83176867Y-63043133D01*
X83210332Y-63070597D01*
X83519967Y-63380232D01*
X83519967Y-63425000D01*
X83540239Y-63630827D01*
X83600277Y-63828744D01*
X83697772Y-64011145D01*
X83828979Y-64171021D01*
X83988855Y-64302228D01*
X84099995Y-64361633D01*
X83902412Y-64539731D01*
X83728359Y-64773080D01*
X83603175Y-65035901D01*
X83558524Y-65183110D01*
X83679845Y-65413000D01*
X84873000Y-65413000D01*
X84873000Y-65393000D01*
X85127000Y-65393000D01*
X85127000Y-65413000D01*
X86320155Y-65413000D01*
X86441476Y-65183110D01*
X86396825Y-65035901D01*
X86271641Y-64773080D01*
X86097588Y-64539731D01*
X85900005Y-64361633D01*
X86011145Y-64302228D01*
X86171021Y-64171021D01*
X86302228Y-64011145D01*
X86399723Y-63828744D01*
X86459761Y-63630827D01*
X86480033Y-63425000D01*
X86480033Y-62575000D01*
X86459761Y-62369173D01*
X86399723Y-62171256D01*
X86322617Y-62027000D01*
X88989737Y-62027000D01*
X93710736Y-66748000D01*
X85859830Y-66748000D01*
X85881355Y-66735178D01*
X86097588Y-66540269D01*
X86271641Y-66306920D01*
X86396825Y-66044099D01*
X86441476Y-65896890D01*
X86320155Y-65667000D01*
X85127000Y-65667000D01*
X85127000Y-65687000D01*
X84873000Y-65687000D01*
X84873000Y-65667000D01*
X83679845Y-65667000D01*
X83558524Y-65896890D01*
X83603175Y-66044099D01*
X83728359Y-66306920D01*
X83902412Y-66540269D01*
X84118645Y-66735178D01*
X84140170Y-66748000D01*
X55859830Y-66748000D01*
X55881355Y-66735178D01*
X56097588Y-66540269D01*
X56271641Y-66306920D01*
X56396825Y-66044099D01*
X56441476Y-65896890D01*
X56320155Y-65667000D01*
X55127000Y-65667000D01*
X55127000Y-65687000D01*
X54873000Y-65687000D01*
X54873000Y-65667000D01*
X53679845Y-65667000D01*
X53558524Y-65896890D01*
X53603175Y-66044099D01*
X53728359Y-66306920D01*
X53902412Y-66540269D01*
X54118645Y-66735178D01*
X54140170Y-66748000D01*
X41926935Y-66748000D01*
X41890000Y-66744362D01*
X41853064Y-66748000D01*
X39803110Y-66748000D01*
X39765415Y-66722813D01*
X39605811Y-66656703D01*
X39436377Y-66623000D01*
X39263623Y-66623000D01*
X39094189Y-66656703D01*
X38934585Y-66722813D01*
X38790945Y-66818790D01*
X38668790Y-66940945D01*
X38572813Y-67084585D01*
X38506703Y-67244189D01*
X38473000Y-67413623D01*
X38473000Y-67586377D01*
X38506703Y-67755811D01*
X38572813Y-67915415D01*
X38668790Y-68059055D01*
X38790945Y-68181210D01*
X38934585Y-68277187D01*
X39094189Y-68343297D01*
X39263623Y-68377000D01*
X39436377Y-68377000D01*
X39605811Y-68343297D01*
X39765415Y-68277187D01*
X39803110Y-68252000D01*
X40074512Y-68252000D01*
X38446545Y-69879967D01*
X37280000Y-69879967D01*
X37157087Y-69892073D01*
X37038897Y-69927925D01*
X36929972Y-69986147D01*
X36834499Y-70064499D01*
X36756147Y-70159972D01*
X36697925Y-70268897D01*
X36662073Y-70387087D01*
X36649967Y-70510000D01*
X36649967Y-70519573D01*
X36572702Y-70496903D01*
X35759605Y-71310000D01*
X36572702Y-72123097D01*
X36649967Y-72100427D01*
X36649967Y-72110000D01*
X36662073Y-72232913D01*
X36697925Y-72351103D01*
X36756147Y-72460028D01*
X36834499Y-72555501D01*
X36929972Y-72633853D01*
X37038897Y-72692075D01*
X37157087Y-72727927D01*
X37280000Y-72740033D01*
X38880000Y-72740033D01*
X39002913Y-72727927D01*
X39121103Y-72692075D01*
X39230028Y-72633853D01*
X39325501Y-72555501D01*
X39376282Y-72493623D01*
X39743000Y-72493623D01*
X39743000Y-72666377D01*
X39776703Y-72835811D01*
X39842813Y-72995415D01*
X39938790Y-73139055D01*
X40060945Y-73261210D01*
X40204585Y-73357187D01*
X40364189Y-73423297D01*
X40533623Y-73457000D01*
X40706377Y-73457000D01*
X40875811Y-73423297D01*
X41035415Y-73357187D01*
X41179055Y-73261210D01*
X41301210Y-73139055D01*
X41397187Y-72995415D01*
X41463297Y-72835811D01*
X41472142Y-72791346D01*
X43471489Y-70792000D01*
X47786890Y-70792000D01*
X47824585Y-70817187D01*
X47984189Y-70883297D01*
X48153623Y-70917000D01*
X48326377Y-70917000D01*
X48495811Y-70883297D01*
X48655415Y-70817187D01*
X48799055Y-70721210D01*
X48921210Y-70599055D01*
X49017187Y-70455415D01*
X49083297Y-70295811D01*
X49117000Y-70126377D01*
X49117000Y-69953623D01*
X49083297Y-69784189D01*
X49017187Y-69624585D01*
X48921210Y-69480945D01*
X48799055Y-69358790D01*
X48655415Y-69262813D01*
X48495811Y-69196703D01*
X48326377Y-69163000D01*
X48153623Y-69163000D01*
X47984189Y-69196703D01*
X47824585Y-69262813D01*
X47786890Y-69288000D01*
X43196935Y-69288000D01*
X43159999Y-69284362D01*
X43123064Y-69288000D01*
X43123062Y-69288000D01*
X43012582Y-69298881D01*
X42870830Y-69341882D01*
X42810017Y-69374387D01*
X42740189Y-69411710D01*
X42679105Y-69461841D01*
X42625683Y-69505683D01*
X42602137Y-69534374D01*
X40408654Y-71727858D01*
X40364189Y-71736703D01*
X40204585Y-71802813D01*
X40060945Y-71898790D01*
X39938790Y-72020945D01*
X39842813Y-72164585D01*
X39776703Y-72324189D01*
X39743000Y-72493623D01*
X39376282Y-72493623D01*
X39403853Y-72460028D01*
X39462075Y-72351103D01*
X39497927Y-72232913D01*
X39510033Y-72110000D01*
X39510033Y-70943455D01*
X42201488Y-68252000D01*
X94719750Y-68252000D01*
X99553375Y-73085626D01*
X99576921Y-73114317D01*
X99691428Y-73208290D01*
X99822068Y-73278118D01*
X99963820Y-73321119D01*
X100074300Y-73332000D01*
X100074302Y-73332000D01*
X100111238Y-73335638D01*
X100148173Y-73332000D01*
X111037400Y-73332000D01*
X110932391Y-73433429D01*
X110813966Y-73604178D01*
X110731128Y-73794750D01*
X110720460Y-73829938D01*
X110847743Y-73993000D01*
X111613000Y-73993000D01*
X111613000Y-73973000D01*
X111867000Y-73973000D01*
X111867000Y-73993000D01*
X112632257Y-73993000D01*
X112759540Y-73829938D01*
X112748872Y-73794750D01*
X112666034Y-73604178D01*
X112547609Y-73433429D01*
X112442600Y-73332000D01*
X113243065Y-73332000D01*
X113280000Y-73335638D01*
X113316935Y-73332000D01*
X113316938Y-73332000D01*
X113427418Y-73321119D01*
X113569170Y-73278118D01*
X113699810Y-73208290D01*
X113814317Y-73114317D01*
X113837867Y-73085621D01*
X116055626Y-70867863D01*
X116084317Y-70844317D01*
X116178290Y-70729810D01*
X116248118Y-70599170D01*
X116291119Y-70457418D01*
X116305638Y-70310000D01*
X116291119Y-70162582D01*
X116248118Y-70020830D01*
X116178290Y-69890190D01*
X116084317Y-69775683D01*
X115969810Y-69681710D01*
X115839170Y-69611882D01*
X115697418Y-69568881D01*
X115586938Y-69558000D01*
X115586935Y-69558000D01*
X115550000Y-69554362D01*
X115513064Y-69558000D01*
X112763279Y-69558000D01*
X112792000Y-69413613D01*
X112792000Y-69206387D01*
X112751572Y-69003143D01*
X112672270Y-68811691D01*
X112557142Y-68639389D01*
X112410611Y-68492858D01*
X112238309Y-68377730D01*
X112046857Y-68298428D01*
X111843613Y-68258000D01*
X111636387Y-68258000D01*
X111433143Y-68298428D01*
X111241691Y-68377730D01*
X111069389Y-68492858D01*
X110922858Y-68639389D01*
X110807730Y-68811691D01*
X110728428Y-69003143D01*
X110688000Y-69206387D01*
X110688000Y-69413613D01*
X110728428Y-69616857D01*
X110807730Y-69808309D01*
X110808860Y-69810000D01*
X110807730Y-69811691D01*
X110728428Y-70003143D01*
X110688000Y-70206387D01*
X110688000Y-70413613D01*
X110728428Y-70616857D01*
X110732741Y-70627270D01*
X110725498Y-70640820D01*
X110689188Y-70760518D01*
X110676928Y-70885000D01*
X110680000Y-71024250D01*
X110838750Y-71183000D01*
X111152987Y-71183000D01*
X111241691Y-71242270D01*
X111433143Y-71321572D01*
X111636387Y-71362000D01*
X111843613Y-71362000D01*
X112046857Y-71321572D01*
X112238309Y-71242270D01*
X112327013Y-71183000D01*
X112641250Y-71183000D01*
X112762250Y-71062000D01*
X113734512Y-71062000D01*
X112968512Y-71828000D01*
X112793913Y-71828000D01*
X112803072Y-71735000D01*
X112800000Y-71595750D01*
X112641250Y-71437000D01*
X111867000Y-71437000D01*
X111867000Y-71457000D01*
X111613000Y-71457000D01*
X111613000Y-71437000D01*
X110838750Y-71437000D01*
X110680000Y-71595750D01*
X110676928Y-71735000D01*
X110686087Y-71828000D01*
X100422727Y-71828000D01*
X96971726Y-68377000D01*
X104206377Y-68377000D01*
X104248842Y-68368553D01*
X104291922Y-68364310D01*
X104333348Y-68351744D01*
X104375811Y-68343297D01*
X104415811Y-68326729D01*
X104457237Y-68314162D01*
X104495415Y-68293755D01*
X104535415Y-68277187D01*
X104571413Y-68253134D01*
X104609592Y-68232727D01*
X104643057Y-68205263D01*
X104679055Y-68181210D01*
X104709668Y-68150597D01*
X104743133Y-68123133D01*
X104770597Y-68089668D01*
X104801210Y-68059055D01*
X104825263Y-68023057D01*
X104852727Y-67989592D01*
X104873134Y-67951413D01*
X104897187Y-67915415D01*
X104913755Y-67875415D01*
X104934162Y-67837237D01*
X104946729Y-67795811D01*
X104963297Y-67755811D01*
X104971744Y-67713348D01*
X104984310Y-67671922D01*
X104988553Y-67628842D01*
X104997000Y-67586377D01*
X104997000Y-67543079D01*
X105001243Y-67500000D01*
X104997000Y-67456921D01*
X104997000Y-67413623D01*
X104988553Y-67371158D01*
X104984310Y-67328078D01*
X104971744Y-67286652D01*
X104963297Y-67244189D01*
X104946729Y-67204189D01*
X104934162Y-67162763D01*
X104913755Y-67124585D01*
X104897187Y-67084585D01*
X104873134Y-67048587D01*
X104852727Y-67010408D01*
X104825263Y-66976943D01*
X104801210Y-66940945D01*
X104770597Y-66910332D01*
X104743133Y-66876867D01*
X104709668Y-66849403D01*
X104679055Y-66818790D01*
X104643057Y-66794737D01*
X104609592Y-66767273D01*
X104571413Y-66746866D01*
X104535415Y-66722813D01*
X104495415Y-66706245D01*
X104457237Y-66685838D01*
X104415811Y-66673271D01*
X104375811Y-66656703D01*
X104333348Y-66648256D01*
X104291922Y-66635690D01*
X104248842Y-66631447D01*
X104206377Y-66623000D01*
X96066268Y-66623000D01*
X90003599Y-60560332D01*
X89976135Y-60526867D01*
X89842594Y-60417273D01*
X89690239Y-60335838D01*
X89524924Y-60285690D01*
X89396081Y-60273000D01*
X89353002Y-60268757D01*
X89309923Y-60273000D01*
X85113069Y-60273000D01*
X85069999Y-60268758D01*
X85026930Y-60273000D01*
X85026921Y-60273000D01*
X84898078Y-60285690D01*
X84732763Y-60335838D01*
X84677000Y-60365644D01*
X84677000Y-44683069D01*
X84681242Y-44639999D01*
X84677000Y-44596930D01*
X84677000Y-44596921D01*
X84664310Y-44468078D01*
X84614162Y-44302763D01*
X84532727Y-44150408D01*
X84423133Y-44016867D01*
X84389668Y-43989403D01*
X83180597Y-42780332D01*
X83153133Y-42746867D01*
X83019592Y-42637273D01*
X82867237Y-42555838D01*
X82701922Y-42505690D01*
X82573079Y-42493000D01*
X82530000Y-42488757D01*
X82486921Y-42493000D01*
X57173079Y-42493000D01*
X57130000Y-42488757D01*
X57086921Y-42493000D01*
X56958078Y-42505690D01*
X56939011Y-42511474D01*
X56939011Y-42084477D01*
X60335627Y-38687862D01*
X60364317Y-38664317D01*
X60387863Y-38635626D01*
X60458290Y-38549811D01*
X60518364Y-38437418D01*
X60528118Y-38419170D01*
X60571119Y-38277418D01*
X60582000Y-38166938D01*
X60582000Y-38166936D01*
X60585638Y-38130001D01*
X60582000Y-38093065D01*
X60582000Y-37818066D01*
X60715436Y-37728907D01*
X60908907Y-37535436D01*
X61060916Y-37307938D01*
X61100000Y-37213581D01*
X61139084Y-37307938D01*
X61291093Y-37535436D01*
X61484564Y-37728907D01*
X61712062Y-37880916D01*
X61964844Y-37985622D01*
X62233195Y-38039000D01*
X62506805Y-38039000D01*
X62775156Y-37985622D01*
X63027938Y-37880916D01*
X63255436Y-37728907D01*
X63448907Y-37535436D01*
X63600916Y-37307938D01*
X63640000Y-37213581D01*
X63679084Y-37307938D01*
X63831093Y-37535436D01*
X64024564Y-37728907D01*
X64252062Y-37880916D01*
X64504844Y-37985622D01*
X64773195Y-38039000D01*
X65046805Y-38039000D01*
X65315156Y-37985622D01*
X65567938Y-37880916D01*
X65795436Y-37728907D01*
X65988907Y-37535436D01*
X66140916Y-37307938D01*
X66180000Y-37213581D01*
X66219084Y-37307938D01*
X66371093Y-37535436D01*
X66564564Y-37728907D01*
X66792062Y-37880916D01*
X67044844Y-37985622D01*
X67313195Y-38039000D01*
X67586805Y-38039000D01*
X67855156Y-37985622D01*
X68107938Y-37880916D01*
X68335436Y-37728907D01*
X68448778Y-37615565D01*
X69204040Y-37615565D01*
X69271020Y-37855656D01*
X69520048Y-37972756D01*
X69787135Y-38039023D01*
X70062017Y-38051910D01*
X70334133Y-38010922D01*
X70593023Y-37917636D01*
X70708980Y-37855656D01*
X70775960Y-37615565D01*
X69990000Y-36829605D01*
X69204040Y-37615565D01*
X68448778Y-37615565D01*
X68528907Y-37535436D01*
X68680916Y-37307938D01*
X68713664Y-37228878D01*
X68722364Y-37253023D01*
X68784344Y-37368980D01*
X69024435Y-37435960D01*
X69810395Y-36650000D01*
X69024435Y-35864040D01*
X68784344Y-35931020D01*
X68715912Y-36076549D01*
X68680916Y-35992062D01*
X68528907Y-35764564D01*
X68335436Y-35571093D01*
X68107938Y-35419084D01*
X68013581Y-35380000D01*
X68107938Y-35340916D01*
X68335436Y-35188907D01*
X68528907Y-34995436D01*
X68680916Y-34767938D01*
X68720000Y-34673581D01*
X68759084Y-34767938D01*
X68911093Y-34995436D01*
X69104564Y-35188907D01*
X69332062Y-35340916D01*
X69411122Y-35373664D01*
X69386977Y-35382364D01*
X69271020Y-35444344D01*
X69204040Y-35684435D01*
X69990000Y-36470395D01*
X70775960Y-35684435D01*
X70708980Y-35444344D01*
X70563451Y-35375912D01*
X70647938Y-35340916D01*
X70875436Y-35188907D01*
X71068907Y-34995436D01*
X71220916Y-34767938D01*
X71260000Y-34673581D01*
X71299084Y-34767938D01*
X71451093Y-34995436D01*
X71644564Y-35188907D01*
X71872062Y-35340916D01*
X71966419Y-35380000D01*
X71872062Y-35419084D01*
X71644564Y-35571093D01*
X71451093Y-35764564D01*
X71299084Y-35992062D01*
X71266336Y-36071122D01*
X71257636Y-36046977D01*
X71195656Y-35931020D01*
X70955565Y-35864040D01*
X70169605Y-36650000D01*
X70955565Y-37435960D01*
X71195656Y-37368980D01*
X71264088Y-37223451D01*
X71299084Y-37307938D01*
X71451093Y-37535436D01*
X71644564Y-37728907D01*
X71872062Y-37880916D01*
X72124844Y-37985622D01*
X72393195Y-38039000D01*
X72666805Y-38039000D01*
X72935156Y-37985622D01*
X73187938Y-37880916D01*
X73415436Y-37728907D01*
X73608907Y-37535436D01*
X73760916Y-37307938D01*
X73800000Y-37213581D01*
X73839084Y-37307938D01*
X73991093Y-37535436D01*
X74184564Y-37728907D01*
X74412062Y-37880916D01*
X74664844Y-37985622D01*
X74933195Y-38039000D01*
X75206805Y-38039000D01*
X75364204Y-38007692D01*
X79237132Y-41880620D01*
X79260682Y-41909316D01*
X79375189Y-42003289D01*
X79505829Y-42073117D01*
X79647581Y-42116118D01*
X79758061Y-42126999D01*
X79758063Y-42126999D01*
X79794999Y-42130637D01*
X79831934Y-42126999D01*
X91340513Y-42126999D01*
X91938000Y-42724487D01*
X91938001Y-42916889D01*
X91912813Y-42954585D01*
X91846703Y-43114189D01*
X91813000Y-43283623D01*
X91813000Y-43456377D01*
X91846703Y-43625811D01*
X91912813Y-43785415D01*
X92008790Y-43929055D01*
X92130945Y-44051210D01*
X92274585Y-44147187D01*
X92434189Y-44213297D01*
X92603623Y-44247000D01*
X92776377Y-44247000D01*
X92945811Y-44213297D01*
X93105415Y-44147187D01*
X93249055Y-44051210D01*
X93371210Y-43929055D01*
X93467187Y-43785415D01*
X93533297Y-43625811D01*
X93567000Y-43456377D01*
X93567000Y-43283623D01*
X93533297Y-43114189D01*
X93467187Y-42954585D01*
X93442000Y-42916890D01*
X93442000Y-42449933D01*
X93445638Y-42412997D01*
X93442000Y-42376060D01*
X93431119Y-42265580D01*
X93388118Y-42123828D01*
X93327242Y-42009936D01*
X93318290Y-41993187D01*
X93247863Y-41907372D01*
X93224317Y-41878681D01*
X93195627Y-41855136D01*
X92209868Y-40869378D01*
X92186318Y-40840682D01*
X92181833Y-40837001D01*
X95483513Y-40837001D01*
X96439188Y-41792676D01*
X90071189Y-48160677D01*
X90043446Y-48183445D01*
X89960663Y-48284318D01*
X89952598Y-48294145D01*
X89885090Y-48420442D01*
X89843520Y-48557481D01*
X89829483Y-48699998D01*
X89833000Y-48735706D01*
X89833001Y-51009473D01*
X89782813Y-51084585D01*
X89716703Y-51244189D01*
X89683000Y-51413623D01*
X89683000Y-51586377D01*
X89716703Y-51755811D01*
X89782813Y-51915415D01*
X89878790Y-52059055D01*
X90000945Y-52181210D01*
X90144585Y-52277187D01*
X90304189Y-52343297D01*
X90473623Y-52377000D01*
X90646377Y-52377000D01*
X90815811Y-52343297D01*
X90975415Y-52277187D01*
X91119055Y-52181210D01*
X91241210Y-52059055D01*
X91337187Y-51915415D01*
X91403297Y-51755811D01*
X91437000Y-51586377D01*
X91437000Y-51413623D01*
X91403297Y-51244189D01*
X91337187Y-51084585D01*
X91287000Y-51009475D01*
X91287000Y-49001130D01*
X96954669Y-43333463D01*
X97018467Y-43397261D01*
X97260378Y-43558901D01*
X97529175Y-43670240D01*
X97814528Y-43727000D01*
X98105472Y-43727000D01*
X98390825Y-43670240D01*
X98659622Y-43558901D01*
X98901533Y-43397261D01*
X99107261Y-43191533D01*
X99136874Y-43147213D01*
X99197772Y-43261145D01*
X99328979Y-43421021D01*
X99488855Y-43552228D01*
X99671256Y-43649723D01*
X99869173Y-43709761D01*
X100075000Y-43730033D01*
X100925000Y-43730033D01*
X101130827Y-43709761D01*
X101328744Y-43649723D01*
X101511145Y-43552228D01*
X101671021Y-43421021D01*
X101802228Y-43261145D01*
X101899723Y-43078744D01*
X101959761Y-42880827D01*
X101980033Y-42675000D01*
X101980033Y-41825000D01*
X101959761Y-41619173D01*
X101899723Y-41421256D01*
X101802228Y-41238855D01*
X101671021Y-41078979D01*
X101511145Y-40947772D01*
X101328744Y-40850277D01*
X101130827Y-40790239D01*
X100925000Y-40769967D01*
X100075000Y-40769967D01*
X99869173Y-40790239D01*
X99671256Y-40850277D01*
X99488855Y-40947772D01*
X99328979Y-41078979D01*
X99197772Y-41238855D01*
X99136874Y-41352787D01*
X99107261Y-41308467D01*
X98901533Y-41102739D01*
X98659622Y-40941099D01*
X98390825Y-40829760D01*
X98105472Y-40773000D01*
X97814528Y-40773000D01*
X97590959Y-40817470D01*
X96352868Y-39579380D01*
X96329318Y-39550684D01*
X96214811Y-39456711D01*
X96121809Y-39407001D01*
X102974224Y-39407001D01*
X105958001Y-42390779D01*
X105958000Y-67209222D01*
X105266922Y-67900300D01*
X105134189Y-67926703D01*
X104974585Y-67992813D01*
X104830945Y-68088790D01*
X104708790Y-68210945D01*
X104612813Y-68354585D01*
X104546703Y-68514189D01*
X104513000Y-68683623D01*
X104513000Y-68856377D01*
X104546703Y-69025811D01*
X104612813Y-69185415D01*
X104708790Y-69329055D01*
X104830945Y-69451210D01*
X104974585Y-69547187D01*
X105134189Y-69613297D01*
X105303623Y-69647000D01*
X105476377Y-69647000D01*
X105645811Y-69613297D01*
X105805415Y-69547187D01*
X105949055Y-69451210D01*
X106071210Y-69329055D01*
X106167187Y-69185415D01*
X106233297Y-69025811D01*
X106259700Y-68893078D01*
X107132015Y-68020763D01*
X107158789Y-67998790D01*
X107180763Y-67972015D01*
X107180769Y-67972009D01*
X107246515Y-67891898D01*
X107311700Y-67769944D01*
X107311701Y-67769943D01*
X107351842Y-67637616D01*
X107362000Y-67534480D01*
X107362000Y-67534471D01*
X107365395Y-67500001D01*
X107362000Y-67465531D01*
X107362000Y-42134472D01*
X107365395Y-42100000D01*
X107362000Y-42065527D01*
X107362000Y-42065520D01*
X107351842Y-41962384D01*
X107311701Y-41830057D01*
X107246515Y-41708103D01*
X107216787Y-41671879D01*
X107180770Y-41627992D01*
X107180767Y-41627989D01*
X107158790Y-41601210D01*
X107132011Y-41579233D01*
X103785771Y-38232994D01*
X103763791Y-38206211D01*
X103656898Y-38118486D01*
X103534944Y-38053300D01*
X103402617Y-38013159D01*
X103299481Y-38003001D01*
X103299471Y-38003001D01*
X103265001Y-37999606D01*
X103230531Y-38003001D01*
X95287773Y-38003001D01*
X95534950Y-37755824D01*
X95942824Y-37145396D01*
X95994764Y-37020000D01*
X108318757Y-37020000D01*
X108323001Y-37063089D01*
X108323000Y-42623918D01*
X108318757Y-42666998D01*
X108335690Y-42838920D01*
X108370777Y-42954585D01*
X108385838Y-43004234D01*
X108467273Y-43156589D01*
X108576867Y-43290131D01*
X108610332Y-43317595D01*
X109593001Y-44300264D01*
X109593000Y-47093623D01*
X109593000Y-47266377D01*
X109601447Y-47308843D01*
X109605690Y-47351921D01*
X109618256Y-47393345D01*
X109626703Y-47435811D01*
X109643273Y-47475814D01*
X109655838Y-47517236D01*
X109676243Y-47555411D01*
X109692813Y-47595415D01*
X109716869Y-47631417D01*
X109737273Y-47669591D01*
X109764734Y-47703053D01*
X109788790Y-47739055D01*
X109819404Y-47769669D01*
X109846867Y-47803133D01*
X109880332Y-47830597D01*
X109910945Y-47861210D01*
X109946943Y-47885263D01*
X109980408Y-47912727D01*
X110018587Y-47933134D01*
X110054585Y-47957187D01*
X110094585Y-47973755D01*
X110132763Y-47994162D01*
X110174189Y-48006729D01*
X110214189Y-48023297D01*
X110256652Y-48031744D01*
X110298078Y-48044310D01*
X110341158Y-48048553D01*
X110383623Y-48057000D01*
X110426921Y-48057000D01*
X110470000Y-48061243D01*
X110513079Y-48057000D01*
X110556377Y-48057000D01*
X110598843Y-48048553D01*
X110641921Y-48044310D01*
X110683345Y-48031744D01*
X110725811Y-48023297D01*
X110765814Y-48006727D01*
X110807236Y-47994162D01*
X110845411Y-47973757D01*
X110885415Y-47957187D01*
X110921417Y-47933131D01*
X110959591Y-47912727D01*
X110993053Y-47885266D01*
X111029055Y-47861210D01*
X111059669Y-47830596D01*
X111093133Y-47803133D01*
X111120597Y-47769668D01*
X111151210Y-47739055D01*
X111175263Y-47703057D01*
X111202727Y-47669592D01*
X111223134Y-47631413D01*
X111247187Y-47595415D01*
X111263755Y-47555415D01*
X111284162Y-47517237D01*
X111296729Y-47475811D01*
X111313297Y-47435811D01*
X111321744Y-47393348D01*
X111334310Y-47351922D01*
X111338553Y-47308842D01*
X111347000Y-47266377D01*
X111347000Y-43980067D01*
X111351242Y-43936997D01*
X111347000Y-43893928D01*
X111347000Y-43893919D01*
X111334310Y-43765076D01*
X111284162Y-43599761D01*
X111202727Y-43447406D01*
X111093133Y-43313865D01*
X111059668Y-43286401D01*
X110077000Y-42303733D01*
X110077000Y-40570551D01*
X110909054Y-40570551D01*
X110983663Y-40817073D01*
X111243439Y-40940473D01*
X111522297Y-41010823D01*
X111809521Y-41025417D01*
X112094074Y-40983697D01*
X112365020Y-40887265D01*
X112496337Y-40817073D01*
X112570946Y-40570551D01*
X111740000Y-39739605D01*
X110909054Y-40570551D01*
X110077000Y-40570551D01*
X110077000Y-39629521D01*
X110274583Y-39629521D01*
X110316303Y-39914074D01*
X110412735Y-40185020D01*
X110482927Y-40316337D01*
X110729449Y-40390946D01*
X111560395Y-39560000D01*
X111919605Y-39560000D01*
X112750551Y-40390946D01*
X112997073Y-40316337D01*
X113120473Y-40056561D01*
X113190823Y-39777703D01*
X113205417Y-39490479D01*
X113163697Y-39205926D01*
X113067265Y-38934980D01*
X112997073Y-38803663D01*
X112750551Y-38729054D01*
X111919605Y-39560000D01*
X111560395Y-39560000D01*
X110729449Y-38729054D01*
X110482927Y-38803663D01*
X110359527Y-39063439D01*
X110289177Y-39342297D01*
X110274583Y-39629521D01*
X110077000Y-39629521D01*
X110077000Y-38549449D01*
X110909054Y-38549449D01*
X111740000Y-39380395D01*
X112570946Y-38549449D01*
X112496337Y-38302927D01*
X112236561Y-38179527D01*
X111957703Y-38109177D01*
X111670479Y-38094583D01*
X111385926Y-38136303D01*
X111114980Y-38232735D01*
X110983663Y-38302927D01*
X110909054Y-38549449D01*
X110077000Y-38549449D01*
X110077000Y-37383265D01*
X111525232Y-35935033D01*
X112565000Y-35935033D01*
X112687913Y-35922927D01*
X112806103Y-35887075D01*
X112915028Y-35828853D01*
X113010501Y-35750501D01*
X113088853Y-35655028D01*
X113147075Y-35546103D01*
X113182927Y-35427913D01*
X113195033Y-35305000D01*
X113195033Y-33655000D01*
X113182927Y-33532087D01*
X113147075Y-33413897D01*
X113088853Y-33304972D01*
X113010501Y-33209499D01*
X112915028Y-33131147D01*
X112806103Y-33072925D01*
X112687913Y-33037073D01*
X112565000Y-33024967D01*
X110915000Y-33024967D01*
X110792087Y-33037073D01*
X110673897Y-33072925D01*
X110564972Y-33131147D01*
X110469499Y-33209499D01*
X110391147Y-33304972D01*
X110332925Y-33413897D01*
X110297073Y-33532087D01*
X110284967Y-33655000D01*
X110284967Y-34694768D01*
X108610327Y-36369408D01*
X108576868Y-36396867D01*
X108549409Y-36430326D01*
X108549406Y-36430329D01*
X108467274Y-36530408D01*
X108385838Y-36682764D01*
X108335690Y-36848078D01*
X108318757Y-37020000D01*
X95994764Y-37020000D01*
X96223773Y-36467126D01*
X96367000Y-35747077D01*
X96367000Y-35012923D01*
X96223773Y-34292874D01*
X95942824Y-33614604D01*
X95534950Y-33004176D01*
X95015824Y-32485050D01*
X94405396Y-32077176D01*
X93727126Y-31796227D01*
X93007077Y-31653000D01*
X92272923Y-31653000D01*
X91552874Y-31796227D01*
X90874604Y-32077176D01*
X90264176Y-32485050D01*
X89745050Y-33004176D01*
X89337176Y-33614604D01*
X89159000Y-34044758D01*
X89159000Y-33973195D01*
X89105622Y-33704844D01*
X89000916Y-33452062D01*
X88848907Y-33224564D01*
X88655436Y-33031093D01*
X88427938Y-32879084D01*
X88175156Y-32774378D01*
X87906805Y-32721000D01*
X87633195Y-32721000D01*
X87364844Y-32774378D01*
X87112062Y-32879084D01*
X86884564Y-33031093D01*
X86691093Y-33224564D01*
X86539084Y-33452062D01*
X86500000Y-33546419D01*
X86460916Y-33452062D01*
X86308907Y-33224564D01*
X86115436Y-33031093D01*
X85887938Y-32879084D01*
X85635156Y-32774378D01*
X85366805Y-32721000D01*
X85093195Y-32721000D01*
X84824844Y-32774378D01*
X84572062Y-32879084D01*
X84344564Y-33031093D01*
X84151093Y-33224564D01*
X83999084Y-33452062D01*
X83960000Y-33546419D01*
X83920916Y-33452062D01*
X83768907Y-33224564D01*
X83575436Y-33031093D01*
X83347938Y-32879084D01*
X83095156Y-32774378D01*
X82826805Y-32721000D01*
X82553195Y-32721000D01*
X82284844Y-32774378D01*
X82032062Y-32879084D01*
X81804564Y-33031093D01*
X81611093Y-33224564D01*
X81459084Y-33452062D01*
X81426336Y-33531122D01*
X81417636Y-33506977D01*
X81355656Y-33391020D01*
X81115565Y-33324040D01*
X80329605Y-34110000D01*
X81115565Y-34895960D01*
X81355656Y-34828980D01*
X81424088Y-34683451D01*
X81459084Y-34767938D01*
X81611093Y-34995436D01*
X81804564Y-35188907D01*
X82032062Y-35340916D01*
X82126419Y-35380000D01*
X82032062Y-35419084D01*
X81804564Y-35571093D01*
X81611093Y-35764564D01*
X81459084Y-35992062D01*
X81420000Y-36086419D01*
X81380916Y-35992062D01*
X81228907Y-35764564D01*
X81035436Y-35571093D01*
X80807938Y-35419084D01*
X80728878Y-35386336D01*
X80753023Y-35377636D01*
X80868980Y-35315656D01*
X80935960Y-35075565D01*
X80150000Y-34289605D01*
X79364040Y-35075565D01*
X79431020Y-35315656D01*
X79576549Y-35384088D01*
X79492062Y-35419084D01*
X79264564Y-35571093D01*
X79071093Y-35764564D01*
X78919084Y-35992062D01*
X78880000Y-36086419D01*
X78840916Y-35992062D01*
X78688907Y-35764564D01*
X78495436Y-35571093D01*
X78267938Y-35419084D01*
X78173581Y-35380000D01*
X78267938Y-35340916D01*
X78495436Y-35188907D01*
X78688907Y-34995436D01*
X78840916Y-34767938D01*
X78873664Y-34688878D01*
X78882364Y-34713023D01*
X78944344Y-34828980D01*
X79184435Y-34895960D01*
X79970395Y-34110000D01*
X79184435Y-33324040D01*
X78944344Y-33391020D01*
X78875912Y-33536549D01*
X78840916Y-33452062D01*
X78688907Y-33224564D01*
X78608778Y-33144435D01*
X79364040Y-33144435D01*
X80150000Y-33930395D01*
X80935960Y-33144435D01*
X80868980Y-32904344D01*
X80619952Y-32787244D01*
X80352865Y-32720977D01*
X80077983Y-32708090D01*
X79805867Y-32749078D01*
X79546977Y-32842364D01*
X79431020Y-32904344D01*
X79364040Y-33144435D01*
X78608778Y-33144435D01*
X78495436Y-33031093D01*
X78267938Y-32879084D01*
X78015156Y-32774378D01*
X77746805Y-32721000D01*
X77473195Y-32721000D01*
X77204844Y-32774378D01*
X76952062Y-32879084D01*
X76724564Y-33031093D01*
X76531093Y-33224564D01*
X76379084Y-33452062D01*
X76346336Y-33531122D01*
X76337636Y-33506977D01*
X76275656Y-33391020D01*
X76035565Y-33324040D01*
X75249605Y-34110000D01*
X76035565Y-34895960D01*
X76275656Y-34828980D01*
X76344088Y-34683451D01*
X76379084Y-34767938D01*
X76531093Y-34995436D01*
X76724564Y-35188907D01*
X76952062Y-35340916D01*
X77046419Y-35380000D01*
X76952062Y-35419084D01*
X76724564Y-35571093D01*
X76531093Y-35764564D01*
X76379084Y-35992062D01*
X76340000Y-36086419D01*
X76300916Y-35992062D01*
X76148907Y-35764564D01*
X75955436Y-35571093D01*
X75727938Y-35419084D01*
X75648878Y-35386336D01*
X75673023Y-35377636D01*
X75788980Y-35315656D01*
X75855960Y-35075565D01*
X75070000Y-34289605D01*
X74284040Y-35075565D01*
X74351020Y-35315656D01*
X74496549Y-35384088D01*
X74412062Y-35419084D01*
X74184564Y-35571093D01*
X73991093Y-35764564D01*
X73839084Y-35992062D01*
X73800000Y-36086419D01*
X73760916Y-35992062D01*
X73608907Y-35764564D01*
X73415436Y-35571093D01*
X73187938Y-35419084D01*
X73093581Y-35380000D01*
X73187938Y-35340916D01*
X73415436Y-35188907D01*
X73608907Y-34995436D01*
X73760916Y-34767938D01*
X73793664Y-34688878D01*
X73802364Y-34713023D01*
X73864344Y-34828980D01*
X74104435Y-34895960D01*
X74890395Y-34110000D01*
X74104435Y-33324040D01*
X73864344Y-33391020D01*
X73795912Y-33536549D01*
X73760916Y-33452062D01*
X73608907Y-33224564D01*
X73528778Y-33144435D01*
X74284040Y-33144435D01*
X75070000Y-33930395D01*
X75855960Y-33144435D01*
X75788980Y-32904344D01*
X75539952Y-32787244D01*
X75272865Y-32720977D01*
X74997983Y-32708090D01*
X74725867Y-32749078D01*
X74466977Y-32842364D01*
X74351020Y-32904344D01*
X74284040Y-33144435D01*
X73528778Y-33144435D01*
X73415436Y-33031093D01*
X73187938Y-32879084D01*
X72935156Y-32774378D01*
X72666805Y-32721000D01*
X72393195Y-32721000D01*
X72124844Y-32774378D01*
X71872062Y-32879084D01*
X71644564Y-33031093D01*
X71451093Y-33224564D01*
X71299084Y-33452062D01*
X71260000Y-33546419D01*
X71220916Y-33452062D01*
X71068907Y-33224564D01*
X70875436Y-33031093D01*
X70647938Y-32879084D01*
X70395156Y-32774378D01*
X70126805Y-32721000D01*
X69853195Y-32721000D01*
X69584844Y-32774378D01*
X69332062Y-32879084D01*
X69104564Y-33031093D01*
X68911093Y-33224564D01*
X68759084Y-33452062D01*
X68720000Y-33546419D01*
X68680916Y-33452062D01*
X68528907Y-33224564D01*
X68335436Y-33031093D01*
X68107938Y-32879084D01*
X67855156Y-32774378D01*
X67586805Y-32721000D01*
X67313195Y-32721000D01*
X67044844Y-32774378D01*
X66792062Y-32879084D01*
X66564564Y-33031093D01*
X66371093Y-33224564D01*
X66219084Y-33452062D01*
X66180000Y-33546419D01*
X66140916Y-33452062D01*
X65988907Y-33224564D01*
X65795436Y-33031093D01*
X65567938Y-32879084D01*
X65315156Y-32774378D01*
X65046805Y-32721000D01*
X64773195Y-32721000D01*
X64504844Y-32774378D01*
X64252062Y-32879084D01*
X64024564Y-33031093D01*
X63831093Y-33224564D01*
X63679084Y-33452062D01*
X63646336Y-33531122D01*
X63637636Y-33506977D01*
X63575656Y-33391020D01*
X63335565Y-33324040D01*
X62549605Y-34110000D01*
X63335565Y-34895960D01*
X63575656Y-34828980D01*
X63644088Y-34683451D01*
X63679084Y-34767938D01*
X63831093Y-34995436D01*
X64024564Y-35188907D01*
X64252062Y-35340916D01*
X64346419Y-35380000D01*
X64252062Y-35419084D01*
X64024564Y-35571093D01*
X63831093Y-35764564D01*
X63679084Y-35992062D01*
X63640000Y-36086419D01*
X63600916Y-35992062D01*
X63448907Y-35764564D01*
X63255436Y-35571093D01*
X63027938Y-35419084D01*
X62948878Y-35386336D01*
X62973023Y-35377636D01*
X63088980Y-35315656D01*
X63155960Y-35075565D01*
X62370000Y-34289605D01*
X61584040Y-35075565D01*
X61651020Y-35315656D01*
X61796549Y-35384088D01*
X61712062Y-35419084D01*
X61484564Y-35571093D01*
X61291093Y-35764564D01*
X61139084Y-35992062D01*
X61100000Y-36086419D01*
X61060916Y-35992062D01*
X60908907Y-35764564D01*
X60715436Y-35571093D01*
X60487938Y-35419084D01*
X60393581Y-35380000D01*
X60487938Y-35340916D01*
X60715436Y-35188907D01*
X60908907Y-34995436D01*
X61060916Y-34767938D01*
X61093664Y-34688878D01*
X61102364Y-34713023D01*
X61164344Y-34828980D01*
X61404435Y-34895960D01*
X62190395Y-34110000D01*
X61404435Y-33324040D01*
X61164344Y-33391020D01*
X61095912Y-33536549D01*
X61060916Y-33452062D01*
X60908907Y-33224564D01*
X60828778Y-33144435D01*
X61584040Y-33144435D01*
X62370000Y-33930395D01*
X63155960Y-33144435D01*
X63088980Y-32904344D01*
X62839952Y-32787244D01*
X62572865Y-32720977D01*
X62297983Y-32708090D01*
X62025867Y-32749078D01*
X61766977Y-32842364D01*
X61651020Y-32904344D01*
X61584040Y-33144435D01*
X60828778Y-33144435D01*
X60715436Y-33031093D01*
X60487938Y-32879084D01*
X60235156Y-32774378D01*
X59966805Y-32721000D01*
X59693195Y-32721000D01*
X59424844Y-32774378D01*
X59172062Y-32879084D01*
X58944564Y-33031093D01*
X58751093Y-33224564D01*
X58599084Y-33452062D01*
X58560000Y-33546419D01*
X58520916Y-33452062D01*
X58368907Y-33224564D01*
X58175436Y-33031093D01*
X57947938Y-32879084D01*
X57695156Y-32774378D01*
X57426805Y-32721000D01*
X57153195Y-32721000D01*
X56884844Y-32774378D01*
X56632062Y-32879084D01*
X56404564Y-33031093D01*
X56211093Y-33224564D01*
X56059084Y-33452062D01*
X56026336Y-33531122D01*
X56017636Y-33506977D01*
X55955656Y-33391020D01*
X55715565Y-33324040D01*
X54929605Y-34110000D01*
X55715565Y-34895960D01*
X55955656Y-34828980D01*
X56024088Y-34683451D01*
X56059084Y-34767938D01*
X56211093Y-34995436D01*
X56277924Y-35062267D01*
X56257922Y-35078682D01*
X56234376Y-35107373D01*
X55703046Y-35638703D01*
X55635436Y-35571093D01*
X55407938Y-35419084D01*
X55328878Y-35386336D01*
X55353023Y-35377636D01*
X55468980Y-35315656D01*
X55535960Y-35075565D01*
X54750000Y-34289605D01*
X53964040Y-35075565D01*
X54031020Y-35315656D01*
X54176549Y-35384088D01*
X54092062Y-35419084D01*
X53864564Y-35571093D01*
X53671093Y-35764564D01*
X53519084Y-35992062D01*
X53480000Y-36086419D01*
X53440916Y-35992062D01*
X53288907Y-35764564D01*
X53095436Y-35571093D01*
X52867938Y-35419084D01*
X52773581Y-35380000D01*
X52867938Y-35340916D01*
X53095436Y-35188907D01*
X53288907Y-34995436D01*
X53440916Y-34767938D01*
X53473664Y-34688878D01*
X53482364Y-34713023D01*
X53544344Y-34828980D01*
X53784435Y-34895960D01*
X54570395Y-34110000D01*
X53784435Y-33324040D01*
X53544344Y-33391020D01*
X53475912Y-33536549D01*
X53440916Y-33452062D01*
X53288907Y-33224564D01*
X53208778Y-33144435D01*
X53964040Y-33144435D01*
X54750000Y-33930395D01*
X55535960Y-33144435D01*
X55468980Y-32904344D01*
X55219952Y-32787244D01*
X54952865Y-32720977D01*
X54677983Y-32708090D01*
X54405867Y-32749078D01*
X54146977Y-32842364D01*
X54031020Y-32904344D01*
X53964040Y-33144435D01*
X53208778Y-33144435D01*
X53095436Y-33031093D01*
X52867938Y-32879084D01*
X52615156Y-32774378D01*
X52346805Y-32721000D01*
X52073195Y-32721000D01*
X51804844Y-32774378D01*
X51552062Y-32879084D01*
X51324564Y-33031093D01*
X51131093Y-33224564D01*
X50979084Y-33452062D01*
X50940000Y-33546419D01*
X50900916Y-33452062D01*
X50748907Y-33224564D01*
X50555436Y-33031093D01*
X50327938Y-32879084D01*
X50075156Y-32774378D01*
X49806805Y-32721000D01*
X49533195Y-32721000D01*
X49264844Y-32774378D01*
X49012062Y-32879084D01*
X48784564Y-33031093D01*
X48591093Y-33224564D01*
X48439084Y-33452062D01*
X48400000Y-33546419D01*
X48360916Y-33452062D01*
X48208907Y-33224564D01*
X48015436Y-33031093D01*
X47787938Y-32879084D01*
X47535156Y-32774378D01*
X47266805Y-32721000D01*
X46993195Y-32721000D01*
X46724844Y-32774378D01*
X46472062Y-32879084D01*
X46244564Y-33031093D01*
X46051093Y-33224564D01*
X45899084Y-33452062D01*
X45866336Y-33531122D01*
X45857636Y-33506977D01*
X45795656Y-33391020D01*
X45555565Y-33324040D01*
X44769605Y-34110000D01*
X44783748Y-34124143D01*
X44604143Y-34303748D01*
X44590000Y-34289605D01*
X43804040Y-35075565D01*
X43871020Y-35315656D01*
X44016549Y-35384088D01*
X43932062Y-35419084D01*
X43704564Y-35571093D01*
X43511093Y-35764564D01*
X43359084Y-35992062D01*
X43320000Y-36086419D01*
X43280916Y-35992062D01*
X43128907Y-35764564D01*
X42935436Y-35571093D01*
X42707938Y-35419084D01*
X42613581Y-35380000D01*
X42707938Y-35340916D01*
X42935436Y-35188907D01*
X43128907Y-34995436D01*
X43280916Y-34767938D01*
X43313664Y-34688878D01*
X43322364Y-34713023D01*
X43384344Y-34828980D01*
X43624435Y-34895960D01*
X44410395Y-34110000D01*
X43624435Y-33324040D01*
X43384344Y-33391020D01*
X43315912Y-33536549D01*
X43280916Y-33452062D01*
X43128907Y-33224564D01*
X43048778Y-33144435D01*
X43804040Y-33144435D01*
X44590000Y-33930395D01*
X45375960Y-33144435D01*
X45308980Y-32904344D01*
X45059952Y-32787244D01*
X44792865Y-32720977D01*
X44517983Y-32708090D01*
X44245867Y-32749078D01*
X43986977Y-32842364D01*
X43871020Y-32904344D01*
X43804040Y-33144435D01*
X43048778Y-33144435D01*
X42935436Y-33031093D01*
X42707938Y-32879084D01*
X42455156Y-32774378D01*
X42186805Y-32721000D01*
X41913195Y-32721000D01*
X41644844Y-32774378D01*
X41392062Y-32879084D01*
X41164564Y-33031093D01*
X40971093Y-33224564D01*
X40819084Y-33452062D01*
X40780000Y-33546419D01*
X40740916Y-33452062D01*
X40588907Y-33224564D01*
X40395436Y-33031093D01*
X40167938Y-32879084D01*
X39915156Y-32774378D01*
X39646805Y-32721000D01*
X39373195Y-32721000D01*
X39104844Y-32774378D01*
X38852062Y-32879084D01*
X38624564Y-33031093D01*
X38431093Y-33224564D01*
X38279084Y-33452062D01*
X38174378Y-33704844D01*
X38121000Y-33973195D01*
X38121000Y-34044758D01*
X37942824Y-33614604D01*
X37534950Y-33004176D01*
X37015824Y-32485050D01*
X36405396Y-32077176D01*
X35727126Y-31796227D01*
X35007077Y-31653000D01*
X34272923Y-31653000D01*
X33552874Y-31796227D01*
X32874604Y-32077176D01*
X32264176Y-32485050D01*
X31745050Y-33004176D01*
X31337176Y-33614604D01*
X31112000Y-34158226D01*
X31112000Y-31322000D01*
X118708001Y-31322000D01*
X118708000Y-90978000D01*
G37*
X118708000Y-90978000D02*
X31112000Y-90978000D01*
X31112000Y-85601774D01*
X31337176Y-86145396D01*
X31745050Y-86755824D01*
X32264176Y-87274950D01*
X32874604Y-87682824D01*
X33552874Y-87963773D01*
X34272923Y-88107000D01*
X35007077Y-88107000D01*
X35727126Y-87963773D01*
X36405396Y-87682824D01*
X37015824Y-87274950D01*
X37534950Y-86755824D01*
X37942824Y-86145396D01*
X38223773Y-85467126D01*
X38367000Y-84747077D01*
X38367000Y-84012923D01*
X88913000Y-84012923D01*
X88913000Y-84747077D01*
X89056227Y-85467126D01*
X89337176Y-86145396D01*
X89745050Y-86755824D01*
X90264176Y-87274950D01*
X90874604Y-87682824D01*
X91552874Y-87963773D01*
X92272923Y-88107000D01*
X93007077Y-88107000D01*
X93727126Y-87963773D01*
X94405396Y-87682824D01*
X95015824Y-87274950D01*
X95534950Y-86755824D01*
X95942824Y-86145396D01*
X96223773Y-85467126D01*
X96367000Y-84747077D01*
X96367000Y-84012923D01*
X96223773Y-83292874D01*
X95942824Y-82614604D01*
X95534950Y-82004176D01*
X95015824Y-81485050D01*
X94405396Y-81077176D01*
X93727126Y-80796227D01*
X93007077Y-80653000D01*
X92272923Y-80653000D01*
X91552874Y-80796227D01*
X90874604Y-81077176D01*
X90264176Y-81485050D01*
X89745050Y-82004176D01*
X89337176Y-82614604D01*
X89056227Y-83292874D01*
X88913000Y-84012923D01*
X38367000Y-84012923D01*
X38223773Y-83292874D01*
X37942824Y-82614604D01*
X37534950Y-82004176D01*
X37015824Y-81485050D01*
X36405396Y-81077176D01*
X35727126Y-80796227D01*
X35007077Y-80653000D01*
X34272923Y-80653000D01*
X33552874Y-80796227D01*
X32874604Y-81077176D01*
X32264176Y-81485050D01*
X31745050Y-82004176D01*
X31337176Y-82614604D01*
X31112000Y-83158226D01*
X31112000Y-76303623D01*
X39743000Y-76303623D01*
X39743000Y-76476377D01*
X39776703Y-76645811D01*
X39842813Y-76805415D01*
X39868001Y-76843111D01*
X39868000Y-78476890D01*
X39842813Y-78514585D01*
X39776703Y-78674189D01*
X39743000Y-78843623D01*
X39743000Y-79016377D01*
X39776703Y-79185811D01*
X39842813Y-79345415D01*
X39938790Y-79489055D01*
X40014735Y-79565000D01*
X39938790Y-79640945D01*
X39842813Y-79784585D01*
X39776703Y-79944189D01*
X39743000Y-80113623D01*
X39743000Y-80286377D01*
X39776703Y-80455811D01*
X39842813Y-80615415D01*
X39938790Y-80759055D01*
X40060945Y-80881210D01*
X40204585Y-80977187D01*
X40364189Y-81043297D01*
X40496922Y-81069700D01*
X41369233Y-81942011D01*
X41391210Y-81968790D01*
X41417989Y-81990767D01*
X41417991Y-81990769D01*
X41498102Y-82056515D01*
X41563288Y-82091357D01*
X41620057Y-82121701D01*
X41752384Y-82161842D01*
X41855520Y-82172000D01*
X41855529Y-82172000D01*
X41889999Y-82175395D01*
X41924469Y-82172000D01*
X50745530Y-82172000D01*
X50780000Y-82175395D01*
X50814470Y-82172000D01*
X50814480Y-82172000D01*
X50917616Y-82161842D01*
X51049943Y-82121701D01*
X51171897Y-82056515D01*
X51278790Y-81968790D01*
X51300772Y-81942006D01*
X53792015Y-79450763D01*
X53818789Y-79428790D01*
X53840763Y-79402015D01*
X53840769Y-79402009D01*
X53906515Y-79321898D01*
X53971700Y-79199944D01*
X53971701Y-79199943D01*
X54011842Y-79067616D01*
X54022000Y-78964480D01*
X54022000Y-78964471D01*
X54025395Y-78930001D01*
X54022000Y-78895531D01*
X54022000Y-73884469D01*
X54025394Y-73850000D01*
X83435358Y-73850000D01*
X83465854Y-74159636D01*
X83556172Y-74457373D01*
X83702840Y-74731769D01*
X83900221Y-74972279D01*
X84080220Y-75120000D01*
X83900221Y-75267721D01*
X83702840Y-75508231D01*
X83556172Y-75782627D01*
X83465854Y-76080364D01*
X83435358Y-76390000D01*
X83465854Y-76699636D01*
X83556172Y-76997373D01*
X83702840Y-77271769D01*
X83900221Y-77512279D01*
X84140731Y-77709660D01*
X84415127Y-77856328D01*
X84712864Y-77946646D01*
X84944908Y-77969500D01*
X85195092Y-77969500D01*
X85427136Y-77946646D01*
X85724873Y-77856328D01*
X85999269Y-77709660D01*
X86239779Y-77512279D01*
X86437160Y-77271769D01*
X86583828Y-76997373D01*
X86674146Y-76699636D01*
X86704642Y-76390000D01*
X86674146Y-76080364D01*
X86583828Y-75782627D01*
X86437160Y-75508231D01*
X86239779Y-75267721D01*
X86059780Y-75120000D01*
X86239779Y-74972279D01*
X86437160Y-74731769D01*
X86583828Y-74457373D01*
X86674146Y-74159636D01*
X86696804Y-73929582D01*
X88359233Y-75592011D01*
X88381210Y-75618790D01*
X88407989Y-75640767D01*
X88407992Y-75640770D01*
X88465542Y-75688000D01*
X88488103Y-75706515D01*
X88610057Y-75771701D01*
X88742384Y-75811842D01*
X88845520Y-75822000D01*
X88845530Y-75822000D01*
X88880000Y-75825395D01*
X88914470Y-75822000D01*
X105987735Y-75822000D01*
X105978790Y-75830945D01*
X105882813Y-75974585D01*
X105816703Y-76134189D01*
X105783000Y-76303623D01*
X105783000Y-76476377D01*
X105816703Y-76645811D01*
X105882813Y-76805415D01*
X105978790Y-76949055D01*
X106100945Y-77071210D01*
X106244585Y-77167187D01*
X106404189Y-77233297D01*
X106573623Y-77267000D01*
X106746377Y-77267000D01*
X106915811Y-77233297D01*
X107075415Y-77167187D01*
X107187941Y-77092000D01*
X107639223Y-77092000D01*
X109600300Y-79053078D01*
X109626703Y-79185811D01*
X109692813Y-79345415D01*
X109788790Y-79489055D01*
X109910945Y-79611210D01*
X110054585Y-79707187D01*
X110214189Y-79773297D01*
X110383623Y-79807000D01*
X110556377Y-79807000D01*
X110725811Y-79773297D01*
X110885415Y-79707187D01*
X111029055Y-79611210D01*
X111151210Y-79489055D01*
X111247187Y-79345415D01*
X111313297Y-79185811D01*
X111347000Y-79016377D01*
X111347000Y-78843623D01*
X111313297Y-78674189D01*
X111247187Y-78514585D01*
X111151210Y-78370945D01*
X111029055Y-78248790D01*
X110885415Y-78152813D01*
X110725811Y-78086703D01*
X110593078Y-78060300D01*
X108450772Y-75917994D01*
X108428790Y-75891210D01*
X108344458Y-75822000D01*
X110752112Y-75822000D01*
X110791147Y-75895028D01*
X110869499Y-75990501D01*
X110964972Y-76068853D01*
X111073897Y-76127075D01*
X111192087Y-76162927D01*
X111315000Y-76175033D01*
X112165000Y-76175033D01*
X112287913Y-76162927D01*
X112406103Y-76127075D01*
X112515028Y-76068853D01*
X112610501Y-75990501D01*
X112688853Y-75895028D01*
X112747075Y-75786103D01*
X112782927Y-75667913D01*
X112795033Y-75545000D01*
X112795033Y-74695000D01*
X112782927Y-74572087D01*
X112747075Y-74453897D01*
X112745993Y-74451873D01*
X112748872Y-74445250D01*
X112759540Y-74410062D01*
X112632257Y-74247000D01*
X112607456Y-74247000D01*
X112515028Y-74171147D01*
X112406103Y-74112925D01*
X112287913Y-74077073D01*
X112165000Y-74064967D01*
X111315000Y-74064967D01*
X111192087Y-74077073D01*
X111073897Y-74112925D01*
X110964972Y-74171147D01*
X110872544Y-74247000D01*
X110847743Y-74247000D01*
X110720460Y-74410062D01*
X110722867Y-74418000D01*
X89170778Y-74418000D01*
X86700033Y-71947256D01*
X86700033Y-70357500D01*
X86687927Y-70234587D01*
X86652075Y-70116397D01*
X86593853Y-70007472D01*
X86515501Y-69911999D01*
X86420028Y-69833647D01*
X86311103Y-69775425D01*
X86192913Y-69739573D01*
X86070000Y-69727467D01*
X84070000Y-69727467D01*
X83947087Y-69739573D01*
X83828897Y-69775425D01*
X83719972Y-69833647D01*
X83624499Y-69911999D01*
X83546147Y-70007472D01*
X83487925Y-70116397D01*
X83452073Y-70234587D01*
X83439967Y-70357500D01*
X83439967Y-72262500D01*
X83452073Y-72385413D01*
X83487925Y-72503603D01*
X83546147Y-72612528D01*
X83624499Y-72708001D01*
X83719972Y-72786353D01*
X83811815Y-72835444D01*
X83702840Y-72968231D01*
X83556172Y-73242627D01*
X83465854Y-73540364D01*
X83435358Y-73850000D01*
X54025394Y-73850000D01*
X54025395Y-73849999D01*
X54022000Y-73815529D01*
X54022000Y-73815520D01*
X54011842Y-73712384D01*
X53971701Y-73580057D01*
X53941357Y-73523288D01*
X53906515Y-73458102D01*
X53840769Y-73377991D01*
X53840767Y-73377989D01*
X53818790Y-73351210D01*
X53792011Y-73329233D01*
X52919700Y-72456922D01*
X52893297Y-72324189D01*
X52827187Y-72164585D01*
X52731210Y-72020945D01*
X52609055Y-71898790D01*
X52465415Y-71802813D01*
X52305811Y-71736703D01*
X52136377Y-71703000D01*
X51963623Y-71703000D01*
X51794189Y-71736703D01*
X51634585Y-71802813D01*
X51490945Y-71898790D01*
X51368790Y-72020945D01*
X51272813Y-72164585D01*
X51206703Y-72324189D01*
X51173000Y-72493623D01*
X51173000Y-72666377D01*
X51206703Y-72835811D01*
X51272813Y-72995415D01*
X51368790Y-73139055D01*
X51490945Y-73261210D01*
X51634585Y-73357187D01*
X51794189Y-73423297D01*
X51926922Y-73449700D01*
X52618001Y-74140779D01*
X52618000Y-78639222D01*
X50489223Y-80768000D01*
X42180778Y-80768000D01*
X41489700Y-80076922D01*
X41463297Y-79944189D01*
X41397187Y-79784585D01*
X41301210Y-79640945D01*
X41225265Y-79565000D01*
X41301210Y-79489055D01*
X41397187Y-79345415D01*
X41463297Y-79185811D01*
X41497000Y-79016377D01*
X41497000Y-78843623D01*
X41463297Y-78674189D01*
X41397187Y-78514585D01*
X41372000Y-78476890D01*
X41372000Y-76843110D01*
X41397187Y-76805415D01*
X41463297Y-76645811D01*
X41497000Y-76476377D01*
X41497000Y-76303623D01*
X41463297Y-76134189D01*
X41397187Y-75974585D01*
X41301210Y-75830945D01*
X41179055Y-75708790D01*
X41035415Y-75612813D01*
X40875811Y-75546703D01*
X40706377Y-75513000D01*
X40533623Y-75513000D01*
X40364189Y-75546703D01*
X40204585Y-75612813D01*
X40060945Y-75708790D01*
X39938790Y-75830945D01*
X39842813Y-75974585D01*
X39776703Y-76134189D01*
X39743000Y-76303623D01*
X31112000Y-76303623D01*
X31112000Y-72302702D01*
X34766903Y-72302702D01*
X34838486Y-72546671D01*
X35093996Y-72667571D01*
X35368184Y-72736300D01*
X35650512Y-72750217D01*
X35930130Y-72708787D01*
X36196292Y-72613603D01*
X36321514Y-72546671D01*
X36393097Y-72302702D01*
X35580000Y-71489605D01*
X34766903Y-72302702D01*
X31112000Y-72302702D01*
X31112000Y-71380512D01*
X34139783Y-71380512D01*
X34181213Y-71660130D01*
X34276397Y-71926292D01*
X34343329Y-72051514D01*
X34587298Y-72123097D01*
X35400395Y-71310000D01*
X34587298Y-70496903D01*
X34343329Y-70568486D01*
X34222429Y-70823996D01*
X34153700Y-71098184D01*
X34139783Y-71380512D01*
X31112000Y-71380512D01*
X31112000Y-70317298D01*
X34766903Y-70317298D01*
X35580000Y-71130395D01*
X36393097Y-70317298D01*
X36321514Y-70073329D01*
X36066004Y-69952429D01*
X35791816Y-69883700D01*
X35509488Y-69869783D01*
X35229870Y-69911213D01*
X34963708Y-70006397D01*
X34838486Y-70073329D01*
X34766903Y-70317298D01*
X31112000Y-70317298D01*
X31112000Y-36601774D01*
X31337176Y-37145396D01*
X31745050Y-37755824D01*
X32264176Y-38274950D01*
X32874604Y-38682824D01*
X33552874Y-38963773D01*
X34272923Y-39107000D01*
X35007077Y-39107000D01*
X35727126Y-38963773D01*
X36405396Y-38682824D01*
X37015824Y-38274950D01*
X37534950Y-37755824D01*
X37942824Y-37145396D01*
X38117967Y-36722564D01*
X38117967Y-37412000D01*
X38130073Y-37534913D01*
X38165925Y-37653103D01*
X38224147Y-37762028D01*
X38302499Y-37857501D01*
X38397972Y-37935853D01*
X38506897Y-37994075D01*
X38625087Y-38029927D01*
X38748000Y-38042033D01*
X39838545Y-38042033D01*
X42736188Y-40939676D01*
X42470825Y-40829760D01*
X42185472Y-40773000D01*
X41894528Y-40773000D01*
X41609175Y-40829760D01*
X41340378Y-40941099D01*
X41098467Y-41102739D01*
X40892739Y-41308467D01*
X40863126Y-41352787D01*
X40802228Y-41238855D01*
X40671021Y-41078979D01*
X40511145Y-40947772D01*
X40328744Y-40850277D01*
X40130827Y-40790239D01*
X39925000Y-40769967D01*
X39075000Y-40769967D01*
X38869173Y-40790239D01*
X38671256Y-40850277D01*
X38488855Y-40947772D01*
X38328979Y-41078979D01*
X38197772Y-41238855D01*
X38100277Y-41421256D01*
X38040239Y-41619173D01*
X38019967Y-41825000D01*
X38019967Y-42675000D01*
X38040239Y-42880827D01*
X38100277Y-43078744D01*
X38197772Y-43261145D01*
X38328979Y-43421021D01*
X38488855Y-43552228D01*
X38671256Y-43649723D01*
X38869173Y-43709761D01*
X39075000Y-43730033D01*
X39925000Y-43730033D01*
X40130827Y-43709761D01*
X40328744Y-43649723D01*
X40511145Y-43552228D01*
X40671021Y-43421021D01*
X40802228Y-43261145D01*
X40863126Y-43147213D01*
X40892739Y-43191533D01*
X41098467Y-43397261D01*
X41313000Y-43540608D01*
X41313001Y-49718866D01*
X40392789Y-50639079D01*
X40304189Y-50656703D01*
X40144585Y-50722813D01*
X40000945Y-50818790D01*
X39878790Y-50940945D01*
X39782813Y-51084585D01*
X39716703Y-51244189D01*
X39683000Y-51413623D01*
X39683000Y-51586377D01*
X39716703Y-51755811D01*
X39782813Y-51915415D01*
X39878790Y-52059055D01*
X40000945Y-52181210D01*
X40144585Y-52277187D01*
X40304189Y-52343297D01*
X40473623Y-52377000D01*
X40646377Y-52377000D01*
X40815811Y-52343297D01*
X40822999Y-52340320D01*
X40823000Y-54787056D01*
X40819361Y-54824001D01*
X40828995Y-54921811D01*
X40833881Y-54971419D01*
X40844865Y-55007626D01*
X40876881Y-55113170D01*
X40946709Y-55243811D01*
X41011229Y-55322428D01*
X41040683Y-55358318D01*
X41069374Y-55381864D01*
X41368132Y-55680622D01*
X41391682Y-55709318D01*
X41506189Y-55803291D01*
X41636829Y-55873119D01*
X41778581Y-55916120D01*
X41889061Y-55927001D01*
X41889063Y-55927001D01*
X41925999Y-55930639D01*
X41962934Y-55927001D01*
X42537066Y-55927001D01*
X42574001Y-55930639D01*
X42610936Y-55927001D01*
X42610939Y-55927001D01*
X42721419Y-55916120D01*
X42863171Y-55873119D01*
X42993811Y-55803291D01*
X43108318Y-55709318D01*
X43131868Y-55680622D01*
X46572990Y-52239501D01*
X46572990Y-54630744D01*
X46569351Y-54667690D01*
X46583871Y-54815107D01*
X46626871Y-54956859D01*
X46696699Y-55087500D01*
X46731817Y-55130291D01*
X46790673Y-55202007D01*
X46819363Y-55225552D01*
X47274447Y-55680637D01*
X47297993Y-55709328D01*
X47326684Y-55732874D01*
X47412499Y-55803301D01*
X47482327Y-55840624D01*
X47543140Y-55873129D01*
X47684892Y-55916130D01*
X47795372Y-55927011D01*
X47795374Y-55927011D01*
X47832309Y-55930649D01*
X47869245Y-55927011D01*
X53065056Y-55927011D01*
X53101991Y-55930649D01*
X53138926Y-55927011D01*
X53138929Y-55927011D01*
X53249409Y-55916130D01*
X53391161Y-55873129D01*
X53521801Y-55803301D01*
X53636308Y-55709328D01*
X53659858Y-55680632D01*
X54553828Y-54786662D01*
X54568790Y-54809055D01*
X54690945Y-54931210D01*
X54834585Y-55027187D01*
X54994189Y-55093297D01*
X55163623Y-55127000D01*
X55336377Y-55127000D01*
X55505811Y-55093297D01*
X55665415Y-55027187D01*
X55809055Y-54931210D01*
X55931210Y-54809055D01*
X56027187Y-54665415D01*
X56093297Y-54505811D01*
X56102142Y-54461346D01*
X56253001Y-54310487D01*
X56253001Y-61178498D01*
X55830359Y-61601140D01*
X55828744Y-61600277D01*
X55630827Y-61540239D01*
X55425000Y-61519967D01*
X54575000Y-61519967D01*
X54369173Y-61540239D01*
X54171256Y-61600277D01*
X53988855Y-61697772D01*
X53828979Y-61828979D01*
X53697772Y-61988855D01*
X53626070Y-62123000D01*
X37613265Y-62123000D01*
X35999162Y-60508897D01*
X35987533Y-60450435D01*
X35910115Y-60263533D01*
X35797723Y-60095326D01*
X35654674Y-59952277D01*
X35486467Y-59839885D01*
X35299565Y-59762467D01*
X35101151Y-59723000D01*
X34898849Y-59723000D01*
X34700435Y-59762467D01*
X34513533Y-59839885D01*
X34345326Y-59952277D01*
X34202277Y-60095326D01*
X34089885Y-60263533D01*
X34012467Y-60450435D01*
X33973000Y-60648849D01*
X33973000Y-60851151D01*
X34012467Y-61049565D01*
X34089885Y-61236467D01*
X34202277Y-61404674D01*
X34345326Y-61547723D01*
X34513533Y-61660115D01*
X34700435Y-61737533D01*
X34758897Y-61749162D01*
X36599403Y-63589668D01*
X36626867Y-63623133D01*
X36760407Y-63732726D01*
X36760408Y-63732727D01*
X36912763Y-63814162D01*
X37078077Y-63864310D01*
X37250000Y-63881243D01*
X37293079Y-63877000D01*
X53626070Y-63877000D01*
X53697772Y-64011145D01*
X53828979Y-64171021D01*
X53988855Y-64302228D01*
X54099995Y-64361633D01*
X53902412Y-64539731D01*
X53728359Y-64773080D01*
X53603175Y-65035901D01*
X53558524Y-65183110D01*
X53679845Y-65413000D01*
X54873000Y-65413000D01*
X54873000Y-65393000D01*
X55127000Y-65393000D01*
X55127000Y-65413000D01*
X56320155Y-65413000D01*
X56441476Y-65183110D01*
X56396825Y-65035901D01*
X56271641Y-64773080D01*
X56097588Y-64539731D01*
X55900005Y-64361633D01*
X56011145Y-64302228D01*
X56171021Y-64171021D01*
X56302228Y-64011145D01*
X56399723Y-63828744D01*
X56459761Y-63630827D01*
X56478864Y-63436874D01*
X56491653Y-63426378D01*
X56519117Y-63392914D01*
X57719674Y-62192357D01*
X57753133Y-62164898D01*
X57820539Y-62082764D01*
X57834019Y-62066338D01*
X57862727Y-62031357D01*
X57944162Y-61879002D01*
X57994310Y-61713687D01*
X58007000Y-61584844D01*
X58007000Y-61584843D01*
X58011243Y-61541766D01*
X58007000Y-61498689D01*
X58007000Y-44247000D01*
X82166735Y-44247000D01*
X82923001Y-45003266D01*
X82923000Y-61193078D01*
X82923001Y-61193088D01*
X82923000Y-62376920D01*
X82918757Y-62420000D01*
X82935690Y-62591922D01*
X82985838Y-62757236D01*
X83067273Y-62909591D01*
X83176867Y-63043133D01*
X83210332Y-63070597D01*
X83519967Y-63380232D01*
X83519967Y-63425000D01*
X83540239Y-63630827D01*
X83600277Y-63828744D01*
X83697772Y-64011145D01*
X83828979Y-64171021D01*
X83988855Y-64302228D01*
X84099995Y-64361633D01*
X83902412Y-64539731D01*
X83728359Y-64773080D01*
X83603175Y-65035901D01*
X83558524Y-65183110D01*
X83679845Y-65413000D01*
X84873000Y-65413000D01*
X84873000Y-65393000D01*
X85127000Y-65393000D01*
X85127000Y-65413000D01*
X86320155Y-65413000D01*
X86441476Y-65183110D01*
X86396825Y-65035901D01*
X86271641Y-64773080D01*
X86097588Y-64539731D01*
X85900005Y-64361633D01*
X86011145Y-64302228D01*
X86171021Y-64171021D01*
X86302228Y-64011145D01*
X86399723Y-63828744D01*
X86459761Y-63630827D01*
X86480033Y-63425000D01*
X86480033Y-62575000D01*
X86459761Y-62369173D01*
X86399723Y-62171256D01*
X86322617Y-62027000D01*
X88989737Y-62027000D01*
X93710736Y-66748000D01*
X85859830Y-66748000D01*
X85881355Y-66735178D01*
X86097588Y-66540269D01*
X86271641Y-66306920D01*
X86396825Y-66044099D01*
X86441476Y-65896890D01*
X86320155Y-65667000D01*
X85127000Y-65667000D01*
X85127000Y-65687000D01*
X84873000Y-65687000D01*
X84873000Y-65667000D01*
X83679845Y-65667000D01*
X83558524Y-65896890D01*
X83603175Y-66044099D01*
X83728359Y-66306920D01*
X83902412Y-66540269D01*
X84118645Y-66735178D01*
X84140170Y-66748000D01*
X55859830Y-66748000D01*
X55881355Y-66735178D01*
X56097588Y-66540269D01*
X56271641Y-66306920D01*
X56396825Y-66044099D01*
X56441476Y-65896890D01*
X56320155Y-65667000D01*
X55127000Y-65667000D01*
X55127000Y-65687000D01*
X54873000Y-65687000D01*
X54873000Y-65667000D01*
X53679845Y-65667000D01*
X53558524Y-65896890D01*
X53603175Y-66044099D01*
X53728359Y-66306920D01*
X53902412Y-66540269D01*
X54118645Y-66735178D01*
X54140170Y-66748000D01*
X41926935Y-66748000D01*
X41890000Y-66744362D01*
X41853064Y-66748000D01*
X39803110Y-66748000D01*
X39765415Y-66722813D01*
X39605811Y-66656703D01*
X39436377Y-66623000D01*
X39263623Y-66623000D01*
X39094189Y-66656703D01*
X38934585Y-66722813D01*
X38790945Y-66818790D01*
X38668790Y-66940945D01*
X38572813Y-67084585D01*
X38506703Y-67244189D01*
X38473000Y-67413623D01*
X38473000Y-67586377D01*
X38506703Y-67755811D01*
X38572813Y-67915415D01*
X38668790Y-68059055D01*
X38790945Y-68181210D01*
X38934585Y-68277187D01*
X39094189Y-68343297D01*
X39263623Y-68377000D01*
X39436377Y-68377000D01*
X39605811Y-68343297D01*
X39765415Y-68277187D01*
X39803110Y-68252000D01*
X40074512Y-68252000D01*
X38446545Y-69879967D01*
X37280000Y-69879967D01*
X37157087Y-69892073D01*
X37038897Y-69927925D01*
X36929972Y-69986147D01*
X36834499Y-70064499D01*
X36756147Y-70159972D01*
X36697925Y-70268897D01*
X36662073Y-70387087D01*
X36649967Y-70510000D01*
X36649967Y-70519573D01*
X36572702Y-70496903D01*
X35759605Y-71310000D01*
X36572702Y-72123097D01*
X36649967Y-72100427D01*
X36649967Y-72110000D01*
X36662073Y-72232913D01*
X36697925Y-72351103D01*
X36756147Y-72460028D01*
X36834499Y-72555501D01*
X36929972Y-72633853D01*
X37038897Y-72692075D01*
X37157087Y-72727927D01*
X37280000Y-72740033D01*
X38880000Y-72740033D01*
X39002913Y-72727927D01*
X39121103Y-72692075D01*
X39230028Y-72633853D01*
X39325501Y-72555501D01*
X39376282Y-72493623D01*
X39743000Y-72493623D01*
X39743000Y-72666377D01*
X39776703Y-72835811D01*
X39842813Y-72995415D01*
X39938790Y-73139055D01*
X40060945Y-73261210D01*
X40204585Y-73357187D01*
X40364189Y-73423297D01*
X40533623Y-73457000D01*
X40706377Y-73457000D01*
X40875811Y-73423297D01*
X41035415Y-73357187D01*
X41179055Y-73261210D01*
X41301210Y-73139055D01*
X41397187Y-72995415D01*
X41463297Y-72835811D01*
X41472142Y-72791346D01*
X43471489Y-70792000D01*
X47786890Y-70792000D01*
X47824585Y-70817187D01*
X47984189Y-70883297D01*
X48153623Y-70917000D01*
X48326377Y-70917000D01*
X48495811Y-70883297D01*
X48655415Y-70817187D01*
X48799055Y-70721210D01*
X48921210Y-70599055D01*
X49017187Y-70455415D01*
X49083297Y-70295811D01*
X49117000Y-70126377D01*
X49117000Y-69953623D01*
X49083297Y-69784189D01*
X49017187Y-69624585D01*
X48921210Y-69480945D01*
X48799055Y-69358790D01*
X48655415Y-69262813D01*
X48495811Y-69196703D01*
X48326377Y-69163000D01*
X48153623Y-69163000D01*
X47984189Y-69196703D01*
X47824585Y-69262813D01*
X47786890Y-69288000D01*
X43196935Y-69288000D01*
X43159999Y-69284362D01*
X43123064Y-69288000D01*
X43123062Y-69288000D01*
X43012582Y-69298881D01*
X42870830Y-69341882D01*
X42810017Y-69374387D01*
X42740189Y-69411710D01*
X42679105Y-69461841D01*
X42625683Y-69505683D01*
X42602137Y-69534374D01*
X40408654Y-71727858D01*
X40364189Y-71736703D01*
X40204585Y-71802813D01*
X40060945Y-71898790D01*
X39938790Y-72020945D01*
X39842813Y-72164585D01*
X39776703Y-72324189D01*
X39743000Y-72493623D01*
X39376282Y-72493623D01*
X39403853Y-72460028D01*
X39462075Y-72351103D01*
X39497927Y-72232913D01*
X39510033Y-72110000D01*
X39510033Y-70943455D01*
X42201488Y-68252000D01*
X94719750Y-68252000D01*
X99553375Y-73085626D01*
X99576921Y-73114317D01*
X99691428Y-73208290D01*
X99822068Y-73278118D01*
X99963820Y-73321119D01*
X100074300Y-73332000D01*
X100074302Y-73332000D01*
X100111238Y-73335638D01*
X100148173Y-73332000D01*
X111037400Y-73332000D01*
X110932391Y-73433429D01*
X110813966Y-73604178D01*
X110731128Y-73794750D01*
X110720460Y-73829938D01*
X110847743Y-73993000D01*
X111613000Y-73993000D01*
X111613000Y-73973000D01*
X111867000Y-73973000D01*
X111867000Y-73993000D01*
X112632257Y-73993000D01*
X112759540Y-73829938D01*
X112748872Y-73794750D01*
X112666034Y-73604178D01*
X112547609Y-73433429D01*
X112442600Y-73332000D01*
X113243065Y-73332000D01*
X113280000Y-73335638D01*
X113316935Y-73332000D01*
X113316938Y-73332000D01*
X113427418Y-73321119D01*
X113569170Y-73278118D01*
X113699810Y-73208290D01*
X113814317Y-73114317D01*
X113837867Y-73085621D01*
X116055626Y-70867863D01*
X116084317Y-70844317D01*
X116178290Y-70729810D01*
X116248118Y-70599170D01*
X116291119Y-70457418D01*
X116305638Y-70310000D01*
X116291119Y-70162582D01*
X116248118Y-70020830D01*
X116178290Y-69890190D01*
X116084317Y-69775683D01*
X115969810Y-69681710D01*
X115839170Y-69611882D01*
X115697418Y-69568881D01*
X115586938Y-69558000D01*
X115586935Y-69558000D01*
X115550000Y-69554362D01*
X115513064Y-69558000D01*
X112763279Y-69558000D01*
X112792000Y-69413613D01*
X112792000Y-69206387D01*
X112751572Y-69003143D01*
X112672270Y-68811691D01*
X112557142Y-68639389D01*
X112410611Y-68492858D01*
X112238309Y-68377730D01*
X112046857Y-68298428D01*
X111843613Y-68258000D01*
X111636387Y-68258000D01*
X111433143Y-68298428D01*
X111241691Y-68377730D01*
X111069389Y-68492858D01*
X110922858Y-68639389D01*
X110807730Y-68811691D01*
X110728428Y-69003143D01*
X110688000Y-69206387D01*
X110688000Y-69413613D01*
X110728428Y-69616857D01*
X110807730Y-69808309D01*
X110808860Y-69810000D01*
X110807730Y-69811691D01*
X110728428Y-70003143D01*
X110688000Y-70206387D01*
X110688000Y-70413613D01*
X110728428Y-70616857D01*
X110732741Y-70627270D01*
X110725498Y-70640820D01*
X110689188Y-70760518D01*
X110676928Y-70885000D01*
X110680000Y-71024250D01*
X110838750Y-71183000D01*
X111152987Y-71183000D01*
X111241691Y-71242270D01*
X111433143Y-71321572D01*
X111636387Y-71362000D01*
X111843613Y-71362000D01*
X112046857Y-71321572D01*
X112238309Y-71242270D01*
X112327013Y-71183000D01*
X112641250Y-71183000D01*
X112762250Y-71062000D01*
X113734512Y-71062000D01*
X112968512Y-71828000D01*
X112793913Y-71828000D01*
X112803072Y-71735000D01*
X112800000Y-71595750D01*
X112641250Y-71437000D01*
X111867000Y-71437000D01*
X111867000Y-71457000D01*
X111613000Y-71457000D01*
X111613000Y-71437000D01*
X110838750Y-71437000D01*
X110680000Y-71595750D01*
X110676928Y-71735000D01*
X110686087Y-71828000D01*
X100422727Y-71828000D01*
X96971726Y-68377000D01*
X104206377Y-68377000D01*
X104248842Y-68368553D01*
X104291922Y-68364310D01*
X104333348Y-68351744D01*
X104375811Y-68343297D01*
X104415811Y-68326729D01*
X104457237Y-68314162D01*
X104495415Y-68293755D01*
X104535415Y-68277187D01*
X104571413Y-68253134D01*
X104609592Y-68232727D01*
X104643057Y-68205263D01*
X104679055Y-68181210D01*
X104709668Y-68150597D01*
X104743133Y-68123133D01*
X104770597Y-68089668D01*
X104801210Y-68059055D01*
X104825263Y-68023057D01*
X104852727Y-67989592D01*
X104873134Y-67951413D01*
X104897187Y-67915415D01*
X104913755Y-67875415D01*
X104934162Y-67837237D01*
X104946729Y-67795811D01*
X104963297Y-67755811D01*
X104971744Y-67713348D01*
X104984310Y-67671922D01*
X104988553Y-67628842D01*
X104997000Y-67586377D01*
X104997000Y-67543079D01*
X105001243Y-67500000D01*
X104997000Y-67456921D01*
X104997000Y-67413623D01*
X104988553Y-67371158D01*
X104984310Y-67328078D01*
X104971744Y-67286652D01*
X104963297Y-67244189D01*
X104946729Y-67204189D01*
X104934162Y-67162763D01*
X104913755Y-67124585D01*
X104897187Y-67084585D01*
X104873134Y-67048587D01*
X104852727Y-67010408D01*
X104825263Y-66976943D01*
X104801210Y-66940945D01*
X104770597Y-66910332D01*
X104743133Y-66876867D01*
X104709668Y-66849403D01*
X104679055Y-66818790D01*
X104643057Y-66794737D01*
X104609592Y-66767273D01*
X104571413Y-66746866D01*
X104535415Y-66722813D01*
X104495415Y-66706245D01*
X104457237Y-66685838D01*
X104415811Y-66673271D01*
X104375811Y-66656703D01*
X104333348Y-66648256D01*
X104291922Y-66635690D01*
X104248842Y-66631447D01*
X104206377Y-66623000D01*
X96066268Y-66623000D01*
X90003599Y-60560332D01*
X89976135Y-60526867D01*
X89842594Y-60417273D01*
X89690239Y-60335838D01*
X89524924Y-60285690D01*
X89396081Y-60273000D01*
X89353002Y-60268757D01*
X89309923Y-60273000D01*
X85113069Y-60273000D01*
X85069999Y-60268758D01*
X85026930Y-60273000D01*
X85026921Y-60273000D01*
X84898078Y-60285690D01*
X84732763Y-60335838D01*
X84677000Y-60365644D01*
X84677000Y-44683069D01*
X84681242Y-44639999D01*
X84677000Y-44596930D01*
X84677000Y-44596921D01*
X84664310Y-44468078D01*
X84614162Y-44302763D01*
X84532727Y-44150408D01*
X84423133Y-44016867D01*
X84389668Y-43989403D01*
X83180597Y-42780332D01*
X83153133Y-42746867D01*
X83019592Y-42637273D01*
X82867237Y-42555838D01*
X82701922Y-42505690D01*
X82573079Y-42493000D01*
X82530000Y-42488757D01*
X82486921Y-42493000D01*
X57173079Y-42493000D01*
X57130000Y-42488757D01*
X57086921Y-42493000D01*
X56958078Y-42505690D01*
X56939011Y-42511474D01*
X56939011Y-42084477D01*
X60335627Y-38687862D01*
X60364317Y-38664317D01*
X60387863Y-38635626D01*
X60458290Y-38549811D01*
X60518364Y-38437418D01*
X60528118Y-38419170D01*
X60571119Y-38277418D01*
X60582000Y-38166938D01*
X60582000Y-38166936D01*
X60585638Y-38130001D01*
X60582000Y-38093065D01*
X60582000Y-37818066D01*
X60715436Y-37728907D01*
X60908907Y-37535436D01*
X61060916Y-37307938D01*
X61100000Y-37213581D01*
X61139084Y-37307938D01*
X61291093Y-37535436D01*
X61484564Y-37728907D01*
X61712062Y-37880916D01*
X61964844Y-37985622D01*
X62233195Y-38039000D01*
X62506805Y-38039000D01*
X62775156Y-37985622D01*
X63027938Y-37880916D01*
X63255436Y-37728907D01*
X63448907Y-37535436D01*
X63600916Y-37307938D01*
X63640000Y-37213581D01*
X63679084Y-37307938D01*
X63831093Y-37535436D01*
X64024564Y-37728907D01*
X64252062Y-37880916D01*
X64504844Y-37985622D01*
X64773195Y-38039000D01*
X65046805Y-38039000D01*
X65315156Y-37985622D01*
X65567938Y-37880916D01*
X65795436Y-37728907D01*
X65988907Y-37535436D01*
X66140916Y-37307938D01*
X66180000Y-37213581D01*
X66219084Y-37307938D01*
X66371093Y-37535436D01*
X66564564Y-37728907D01*
X66792062Y-37880916D01*
X67044844Y-37985622D01*
X67313195Y-38039000D01*
X67586805Y-38039000D01*
X67855156Y-37985622D01*
X68107938Y-37880916D01*
X68335436Y-37728907D01*
X68448778Y-37615565D01*
X69204040Y-37615565D01*
X69271020Y-37855656D01*
X69520048Y-37972756D01*
X69787135Y-38039023D01*
X70062017Y-38051910D01*
X70334133Y-38010922D01*
X70593023Y-37917636D01*
X70708980Y-37855656D01*
X70775960Y-37615565D01*
X69990000Y-36829605D01*
X69204040Y-37615565D01*
X68448778Y-37615565D01*
X68528907Y-37535436D01*
X68680916Y-37307938D01*
X68713664Y-37228878D01*
X68722364Y-37253023D01*
X68784344Y-37368980D01*
X69024435Y-37435960D01*
X69810395Y-36650000D01*
X69024435Y-35864040D01*
X68784344Y-35931020D01*
X68715912Y-36076549D01*
X68680916Y-35992062D01*
X68528907Y-35764564D01*
X68335436Y-35571093D01*
X68107938Y-35419084D01*
X68013581Y-35380000D01*
X68107938Y-35340916D01*
X68335436Y-35188907D01*
X68528907Y-34995436D01*
X68680916Y-34767938D01*
X68720000Y-34673581D01*
X68759084Y-34767938D01*
X68911093Y-34995436D01*
X69104564Y-35188907D01*
X69332062Y-35340916D01*
X69411122Y-35373664D01*
X69386977Y-35382364D01*
X69271020Y-35444344D01*
X69204040Y-35684435D01*
X69990000Y-36470395D01*
X70775960Y-35684435D01*
X70708980Y-35444344D01*
X70563451Y-35375912D01*
X70647938Y-35340916D01*
X70875436Y-35188907D01*
X71068907Y-34995436D01*
X71220916Y-34767938D01*
X71260000Y-34673581D01*
X71299084Y-34767938D01*
X71451093Y-34995436D01*
X71644564Y-35188907D01*
X71872062Y-35340916D01*
X71966419Y-35380000D01*
X71872062Y-35419084D01*
X71644564Y-35571093D01*
X71451093Y-35764564D01*
X71299084Y-35992062D01*
X71266336Y-36071122D01*
X71257636Y-36046977D01*
X71195656Y-35931020D01*
X70955565Y-35864040D01*
X70169605Y-36650000D01*
X70955565Y-37435960D01*
X71195656Y-37368980D01*
X71264088Y-37223451D01*
X71299084Y-37307938D01*
X71451093Y-37535436D01*
X71644564Y-37728907D01*
X71872062Y-37880916D01*
X72124844Y-37985622D01*
X72393195Y-38039000D01*
X72666805Y-38039000D01*
X72935156Y-37985622D01*
X73187938Y-37880916D01*
X73415436Y-37728907D01*
X73608907Y-37535436D01*
X73760916Y-37307938D01*
X73800000Y-37213581D01*
X73839084Y-37307938D01*
X73991093Y-37535436D01*
X74184564Y-37728907D01*
X74412062Y-37880916D01*
X74664844Y-37985622D01*
X74933195Y-38039000D01*
X75206805Y-38039000D01*
X75364204Y-38007692D01*
X79237132Y-41880620D01*
X79260682Y-41909316D01*
X79375189Y-42003289D01*
X79505829Y-42073117D01*
X79647581Y-42116118D01*
X79758061Y-42126999D01*
X79758063Y-42126999D01*
X79794999Y-42130637D01*
X79831934Y-42126999D01*
X91340513Y-42126999D01*
X91938000Y-42724487D01*
X91938001Y-42916889D01*
X91912813Y-42954585D01*
X91846703Y-43114189D01*
X91813000Y-43283623D01*
X91813000Y-43456377D01*
X91846703Y-43625811D01*
X91912813Y-43785415D01*
X92008790Y-43929055D01*
X92130945Y-44051210D01*
X92274585Y-44147187D01*
X92434189Y-44213297D01*
X92603623Y-44247000D01*
X92776377Y-44247000D01*
X92945811Y-44213297D01*
X93105415Y-44147187D01*
X93249055Y-44051210D01*
X93371210Y-43929055D01*
X93467187Y-43785415D01*
X93533297Y-43625811D01*
X93567000Y-43456377D01*
X93567000Y-43283623D01*
X93533297Y-43114189D01*
X93467187Y-42954585D01*
X93442000Y-42916890D01*
X93442000Y-42449933D01*
X93445638Y-42412997D01*
X93442000Y-42376060D01*
X93431119Y-42265580D01*
X93388118Y-42123828D01*
X93327242Y-42009936D01*
X93318290Y-41993187D01*
X93247863Y-41907372D01*
X93224317Y-41878681D01*
X93195627Y-41855136D01*
X92209868Y-40869378D01*
X92186318Y-40840682D01*
X92181833Y-40837001D01*
X95483513Y-40837001D01*
X96439188Y-41792676D01*
X90071189Y-48160677D01*
X90043446Y-48183445D01*
X89960663Y-48284318D01*
X89952598Y-48294145D01*
X89885090Y-48420442D01*
X89843520Y-48557481D01*
X89829483Y-48699998D01*
X89833000Y-48735706D01*
X89833001Y-51009473D01*
X89782813Y-51084585D01*
X89716703Y-51244189D01*
X89683000Y-51413623D01*
X89683000Y-51586377D01*
X89716703Y-51755811D01*
X89782813Y-51915415D01*
X89878790Y-52059055D01*
X90000945Y-52181210D01*
X90144585Y-52277187D01*
X90304189Y-52343297D01*
X90473623Y-52377000D01*
X90646377Y-52377000D01*
X90815811Y-52343297D01*
X90975415Y-52277187D01*
X91119055Y-52181210D01*
X91241210Y-52059055D01*
X91337187Y-51915415D01*
X91403297Y-51755811D01*
X91437000Y-51586377D01*
X91437000Y-51413623D01*
X91403297Y-51244189D01*
X91337187Y-51084585D01*
X91287000Y-51009475D01*
X91287000Y-49001130D01*
X96954669Y-43333463D01*
X97018467Y-43397261D01*
X97260378Y-43558901D01*
X97529175Y-43670240D01*
X97814528Y-43727000D01*
X98105472Y-43727000D01*
X98390825Y-43670240D01*
X98659622Y-43558901D01*
X98901533Y-43397261D01*
X99107261Y-43191533D01*
X99136874Y-43147213D01*
X99197772Y-43261145D01*
X99328979Y-43421021D01*
X99488855Y-43552228D01*
X99671256Y-43649723D01*
X99869173Y-43709761D01*
X100075000Y-43730033D01*
X100925000Y-43730033D01*
X101130827Y-43709761D01*
X101328744Y-43649723D01*
X101511145Y-43552228D01*
X101671021Y-43421021D01*
X101802228Y-43261145D01*
X101899723Y-43078744D01*
X101959761Y-42880827D01*
X101980033Y-42675000D01*
X101980033Y-41825000D01*
X101959761Y-41619173D01*
X101899723Y-41421256D01*
X101802228Y-41238855D01*
X101671021Y-41078979D01*
X101511145Y-40947772D01*
X101328744Y-40850277D01*
X101130827Y-40790239D01*
X100925000Y-40769967D01*
X100075000Y-40769967D01*
X99869173Y-40790239D01*
X99671256Y-40850277D01*
X99488855Y-40947772D01*
X99328979Y-41078979D01*
X99197772Y-41238855D01*
X99136874Y-41352787D01*
X99107261Y-41308467D01*
X98901533Y-41102739D01*
X98659622Y-40941099D01*
X98390825Y-40829760D01*
X98105472Y-40773000D01*
X97814528Y-40773000D01*
X97590959Y-40817470D01*
X96352868Y-39579380D01*
X96329318Y-39550684D01*
X96214811Y-39456711D01*
X96121809Y-39407001D01*
X102974224Y-39407001D01*
X105958001Y-42390779D01*
X105958000Y-67209222D01*
X105266922Y-67900300D01*
X105134189Y-67926703D01*
X104974585Y-67992813D01*
X104830945Y-68088790D01*
X104708790Y-68210945D01*
X104612813Y-68354585D01*
X104546703Y-68514189D01*
X104513000Y-68683623D01*
X104513000Y-68856377D01*
X104546703Y-69025811D01*
X104612813Y-69185415D01*
X104708790Y-69329055D01*
X104830945Y-69451210D01*
X104974585Y-69547187D01*
X105134189Y-69613297D01*
X105303623Y-69647000D01*
X105476377Y-69647000D01*
X105645811Y-69613297D01*
X105805415Y-69547187D01*
X105949055Y-69451210D01*
X106071210Y-69329055D01*
X106167187Y-69185415D01*
X106233297Y-69025811D01*
X106259700Y-68893078D01*
X107132015Y-68020763D01*
X107158789Y-67998790D01*
X107180763Y-67972015D01*
X107180769Y-67972009D01*
X107246515Y-67891898D01*
X107311700Y-67769944D01*
X107311701Y-67769943D01*
X107351842Y-67637616D01*
X107362000Y-67534480D01*
X107362000Y-67534471D01*
X107365395Y-67500001D01*
X107362000Y-67465531D01*
X107362000Y-42134472D01*
X107365395Y-42100000D01*
X107362000Y-42065527D01*
X107362000Y-42065520D01*
X107351842Y-41962384D01*
X107311701Y-41830057D01*
X107246515Y-41708103D01*
X107216787Y-41671879D01*
X107180770Y-41627992D01*
X107180767Y-41627989D01*
X107158790Y-41601210D01*
X107132011Y-41579233D01*
X103785771Y-38232994D01*
X103763791Y-38206211D01*
X103656898Y-38118486D01*
X103534944Y-38053300D01*
X103402617Y-38013159D01*
X103299481Y-38003001D01*
X103299471Y-38003001D01*
X103265001Y-37999606D01*
X103230531Y-38003001D01*
X95287773Y-38003001D01*
X95534950Y-37755824D01*
X95942824Y-37145396D01*
X95994764Y-37020000D01*
X108318757Y-37020000D01*
X108323001Y-37063089D01*
X108323000Y-42623918D01*
X108318757Y-42666998D01*
X108335690Y-42838920D01*
X108370777Y-42954585D01*
X108385838Y-43004234D01*
X108467273Y-43156589D01*
X108576867Y-43290131D01*
X108610332Y-43317595D01*
X109593001Y-44300264D01*
X109593000Y-47093623D01*
X109593000Y-47266377D01*
X109601447Y-47308843D01*
X109605690Y-47351921D01*
X109618256Y-47393345D01*
X109626703Y-47435811D01*
X109643273Y-47475814D01*
X109655838Y-47517236D01*
X109676243Y-47555411D01*
X109692813Y-47595415D01*
X109716869Y-47631417D01*
X109737273Y-47669591D01*
X109764734Y-47703053D01*
X109788790Y-47739055D01*
X109819404Y-47769669D01*
X109846867Y-47803133D01*
X109880332Y-47830597D01*
X109910945Y-47861210D01*
X109946943Y-47885263D01*
X109980408Y-47912727D01*
X110018587Y-47933134D01*
X110054585Y-47957187D01*
X110094585Y-47973755D01*
X110132763Y-47994162D01*
X110174189Y-48006729D01*
X110214189Y-48023297D01*
X110256652Y-48031744D01*
X110298078Y-48044310D01*
X110341158Y-48048553D01*
X110383623Y-48057000D01*
X110426921Y-48057000D01*
X110470000Y-48061243D01*
X110513079Y-48057000D01*
X110556377Y-48057000D01*
X110598843Y-48048553D01*
X110641921Y-48044310D01*
X110683345Y-48031744D01*
X110725811Y-48023297D01*
X110765814Y-48006727D01*
X110807236Y-47994162D01*
X110845411Y-47973757D01*
X110885415Y-47957187D01*
X110921417Y-47933131D01*
X110959591Y-47912727D01*
X110993053Y-47885266D01*
X111029055Y-47861210D01*
X111059669Y-47830596D01*
X111093133Y-47803133D01*
X111120597Y-47769668D01*
X111151210Y-47739055D01*
X111175263Y-47703057D01*
X111202727Y-47669592D01*
X111223134Y-47631413D01*
X111247187Y-47595415D01*
X111263755Y-47555415D01*
X111284162Y-47517237D01*
X111296729Y-47475811D01*
X111313297Y-47435811D01*
X111321744Y-47393348D01*
X111334310Y-47351922D01*
X111338553Y-47308842D01*
X111347000Y-47266377D01*
X111347000Y-43980067D01*
X111351242Y-43936997D01*
X111347000Y-43893928D01*
X111347000Y-43893919D01*
X111334310Y-43765076D01*
X111284162Y-43599761D01*
X111202727Y-43447406D01*
X111093133Y-43313865D01*
X111059668Y-43286401D01*
X110077000Y-42303733D01*
X110077000Y-40570551D01*
X110909054Y-40570551D01*
X110983663Y-40817073D01*
X111243439Y-40940473D01*
X111522297Y-41010823D01*
X111809521Y-41025417D01*
X112094074Y-40983697D01*
X112365020Y-40887265D01*
X112496337Y-40817073D01*
X112570946Y-40570551D01*
X111740000Y-39739605D01*
X110909054Y-40570551D01*
X110077000Y-40570551D01*
X110077000Y-39629521D01*
X110274583Y-39629521D01*
X110316303Y-39914074D01*
X110412735Y-40185020D01*
X110482927Y-40316337D01*
X110729449Y-40390946D01*
X111560395Y-39560000D01*
X111919605Y-39560000D01*
X112750551Y-40390946D01*
X112997073Y-40316337D01*
X113120473Y-40056561D01*
X113190823Y-39777703D01*
X113205417Y-39490479D01*
X113163697Y-39205926D01*
X113067265Y-38934980D01*
X112997073Y-38803663D01*
X112750551Y-38729054D01*
X111919605Y-39560000D01*
X111560395Y-39560000D01*
X110729449Y-38729054D01*
X110482927Y-38803663D01*
X110359527Y-39063439D01*
X110289177Y-39342297D01*
X110274583Y-39629521D01*
X110077000Y-39629521D01*
X110077000Y-38549449D01*
X110909054Y-38549449D01*
X111740000Y-39380395D01*
X112570946Y-38549449D01*
X112496337Y-38302927D01*
X112236561Y-38179527D01*
X111957703Y-38109177D01*
X111670479Y-38094583D01*
X111385926Y-38136303D01*
X111114980Y-38232735D01*
X110983663Y-38302927D01*
X110909054Y-38549449D01*
X110077000Y-38549449D01*
X110077000Y-37383265D01*
X111525232Y-35935033D01*
X112565000Y-35935033D01*
X112687913Y-35922927D01*
X112806103Y-35887075D01*
X112915028Y-35828853D01*
X113010501Y-35750501D01*
X113088853Y-35655028D01*
X113147075Y-35546103D01*
X113182927Y-35427913D01*
X113195033Y-35305000D01*
X113195033Y-33655000D01*
X113182927Y-33532087D01*
X113147075Y-33413897D01*
X113088853Y-33304972D01*
X113010501Y-33209499D01*
X112915028Y-33131147D01*
X112806103Y-33072925D01*
X112687913Y-33037073D01*
X112565000Y-33024967D01*
X110915000Y-33024967D01*
X110792087Y-33037073D01*
X110673897Y-33072925D01*
X110564972Y-33131147D01*
X110469499Y-33209499D01*
X110391147Y-33304972D01*
X110332925Y-33413897D01*
X110297073Y-33532087D01*
X110284967Y-33655000D01*
X110284967Y-34694768D01*
X108610327Y-36369408D01*
X108576868Y-36396867D01*
X108549409Y-36430326D01*
X108549406Y-36430329D01*
X108467274Y-36530408D01*
X108385838Y-36682764D01*
X108335690Y-36848078D01*
X108318757Y-37020000D01*
X95994764Y-37020000D01*
X96223773Y-36467126D01*
X96367000Y-35747077D01*
X96367000Y-35012923D01*
X96223773Y-34292874D01*
X95942824Y-33614604D01*
X95534950Y-33004176D01*
X95015824Y-32485050D01*
X94405396Y-32077176D01*
X93727126Y-31796227D01*
X93007077Y-31653000D01*
X92272923Y-31653000D01*
X91552874Y-31796227D01*
X90874604Y-32077176D01*
X90264176Y-32485050D01*
X89745050Y-33004176D01*
X89337176Y-33614604D01*
X89159000Y-34044758D01*
X89159000Y-33973195D01*
X89105622Y-33704844D01*
X89000916Y-33452062D01*
X88848907Y-33224564D01*
X88655436Y-33031093D01*
X88427938Y-32879084D01*
X88175156Y-32774378D01*
X87906805Y-32721000D01*
X87633195Y-32721000D01*
X87364844Y-32774378D01*
X87112062Y-32879084D01*
X86884564Y-33031093D01*
X86691093Y-33224564D01*
X86539084Y-33452062D01*
X86500000Y-33546419D01*
X86460916Y-33452062D01*
X86308907Y-33224564D01*
X86115436Y-33031093D01*
X85887938Y-32879084D01*
X85635156Y-32774378D01*
X85366805Y-32721000D01*
X85093195Y-32721000D01*
X84824844Y-32774378D01*
X84572062Y-32879084D01*
X84344564Y-33031093D01*
X84151093Y-33224564D01*
X83999084Y-33452062D01*
X83960000Y-33546419D01*
X83920916Y-33452062D01*
X83768907Y-33224564D01*
X83575436Y-33031093D01*
X83347938Y-32879084D01*
X83095156Y-32774378D01*
X82826805Y-32721000D01*
X82553195Y-32721000D01*
X82284844Y-32774378D01*
X82032062Y-32879084D01*
X81804564Y-33031093D01*
X81611093Y-33224564D01*
X81459084Y-33452062D01*
X81426336Y-33531122D01*
X81417636Y-33506977D01*
X81355656Y-33391020D01*
X81115565Y-33324040D01*
X80329605Y-34110000D01*
X81115565Y-34895960D01*
X81355656Y-34828980D01*
X81424088Y-34683451D01*
X81459084Y-34767938D01*
X81611093Y-34995436D01*
X81804564Y-35188907D01*
X82032062Y-35340916D01*
X82126419Y-35380000D01*
X82032062Y-35419084D01*
X81804564Y-35571093D01*
X81611093Y-35764564D01*
X81459084Y-35992062D01*
X81420000Y-36086419D01*
X81380916Y-35992062D01*
X81228907Y-35764564D01*
X81035436Y-35571093D01*
X80807938Y-35419084D01*
X80728878Y-35386336D01*
X80753023Y-35377636D01*
X80868980Y-35315656D01*
X80935960Y-35075565D01*
X80150000Y-34289605D01*
X79364040Y-35075565D01*
X79431020Y-35315656D01*
X79576549Y-35384088D01*
X79492062Y-35419084D01*
X79264564Y-35571093D01*
X79071093Y-35764564D01*
X78919084Y-35992062D01*
X78880000Y-36086419D01*
X78840916Y-35992062D01*
X78688907Y-35764564D01*
X78495436Y-35571093D01*
X78267938Y-35419084D01*
X78173581Y-35380000D01*
X78267938Y-35340916D01*
X78495436Y-35188907D01*
X78688907Y-34995436D01*
X78840916Y-34767938D01*
X78873664Y-34688878D01*
X78882364Y-34713023D01*
X78944344Y-34828980D01*
X79184435Y-34895960D01*
X79970395Y-34110000D01*
X79184435Y-33324040D01*
X78944344Y-33391020D01*
X78875912Y-33536549D01*
X78840916Y-33452062D01*
X78688907Y-33224564D01*
X78608778Y-33144435D01*
X79364040Y-33144435D01*
X80150000Y-33930395D01*
X80935960Y-33144435D01*
X80868980Y-32904344D01*
X80619952Y-32787244D01*
X80352865Y-32720977D01*
X80077983Y-32708090D01*
X79805867Y-32749078D01*
X79546977Y-32842364D01*
X79431020Y-32904344D01*
X79364040Y-33144435D01*
X78608778Y-33144435D01*
X78495436Y-33031093D01*
X78267938Y-32879084D01*
X78015156Y-32774378D01*
X77746805Y-32721000D01*
X77473195Y-32721000D01*
X77204844Y-32774378D01*
X76952062Y-32879084D01*
X76724564Y-33031093D01*
X76531093Y-33224564D01*
X76379084Y-33452062D01*
X76346336Y-33531122D01*
X76337636Y-33506977D01*
X76275656Y-33391020D01*
X76035565Y-33324040D01*
X75249605Y-34110000D01*
X76035565Y-34895960D01*
X76275656Y-34828980D01*
X76344088Y-34683451D01*
X76379084Y-34767938D01*
X76531093Y-34995436D01*
X76724564Y-35188907D01*
X76952062Y-35340916D01*
X77046419Y-35380000D01*
X76952062Y-35419084D01*
X76724564Y-35571093D01*
X76531093Y-35764564D01*
X76379084Y-35992062D01*
X76340000Y-36086419D01*
X76300916Y-35992062D01*
X76148907Y-35764564D01*
X75955436Y-35571093D01*
X75727938Y-35419084D01*
X75648878Y-35386336D01*
X75673023Y-35377636D01*
X75788980Y-35315656D01*
X75855960Y-35075565D01*
X75070000Y-34289605D01*
X74284040Y-35075565D01*
X74351020Y-35315656D01*
X74496549Y-35384088D01*
X74412062Y-35419084D01*
X74184564Y-35571093D01*
X73991093Y-35764564D01*
X73839084Y-35992062D01*
X73800000Y-36086419D01*
X73760916Y-35992062D01*
X73608907Y-35764564D01*
X73415436Y-35571093D01*
X73187938Y-35419084D01*
X73093581Y-35380000D01*
X73187938Y-35340916D01*
X73415436Y-35188907D01*
X73608907Y-34995436D01*
X73760916Y-34767938D01*
X73793664Y-34688878D01*
X73802364Y-34713023D01*
X73864344Y-34828980D01*
X74104435Y-34895960D01*
X74890395Y-34110000D01*
X74104435Y-33324040D01*
X73864344Y-33391020D01*
X73795912Y-33536549D01*
X73760916Y-33452062D01*
X73608907Y-33224564D01*
X73528778Y-33144435D01*
X74284040Y-33144435D01*
X75070000Y-33930395D01*
X75855960Y-33144435D01*
X75788980Y-32904344D01*
X75539952Y-32787244D01*
X75272865Y-32720977D01*
X74997983Y-32708090D01*
X74725867Y-32749078D01*
X74466977Y-32842364D01*
X74351020Y-32904344D01*
X74284040Y-33144435D01*
X73528778Y-33144435D01*
X73415436Y-33031093D01*
X73187938Y-32879084D01*
X72935156Y-32774378D01*
X72666805Y-32721000D01*
X72393195Y-32721000D01*
X72124844Y-32774378D01*
X71872062Y-32879084D01*
X71644564Y-33031093D01*
X71451093Y-33224564D01*
X71299084Y-33452062D01*
X71260000Y-33546419D01*
X71220916Y-33452062D01*
X71068907Y-33224564D01*
X70875436Y-33031093D01*
X70647938Y-32879084D01*
X70395156Y-32774378D01*
X70126805Y-32721000D01*
X69853195Y-32721000D01*
X69584844Y-32774378D01*
X69332062Y-32879084D01*
X69104564Y-33031093D01*
X68911093Y-33224564D01*
X68759084Y-33452062D01*
X68720000Y-33546419D01*
X68680916Y-33452062D01*
X68528907Y-33224564D01*
X68335436Y-33031093D01*
X68107938Y-32879084D01*
X67855156Y-32774378D01*
X67586805Y-32721000D01*
X67313195Y-32721000D01*
X67044844Y-32774378D01*
X66792062Y-32879084D01*
X66564564Y-33031093D01*
X66371093Y-33224564D01*
X66219084Y-33452062D01*
X66180000Y-33546419D01*
X66140916Y-33452062D01*
X65988907Y-33224564D01*
X65795436Y-33031093D01*
X65567938Y-32879084D01*
X65315156Y-32774378D01*
X65046805Y-32721000D01*
X64773195Y-32721000D01*
X64504844Y-32774378D01*
X64252062Y-32879084D01*
X64024564Y-33031093D01*
X63831093Y-33224564D01*
X63679084Y-33452062D01*
X63646336Y-33531122D01*
X63637636Y-33506977D01*
X63575656Y-33391020D01*
X63335565Y-33324040D01*
X62549605Y-34110000D01*
X63335565Y-34895960D01*
X63575656Y-34828980D01*
X63644088Y-34683451D01*
X63679084Y-34767938D01*
X63831093Y-34995436D01*
X64024564Y-35188907D01*
X64252062Y-35340916D01*
X64346419Y-35380000D01*
X64252062Y-35419084D01*
X64024564Y-35571093D01*
X63831093Y-35764564D01*
X63679084Y-35992062D01*
X63640000Y-36086419D01*
X63600916Y-35992062D01*
X63448907Y-35764564D01*
X63255436Y-35571093D01*
X63027938Y-35419084D01*
X62948878Y-35386336D01*
X62973023Y-35377636D01*
X63088980Y-35315656D01*
X63155960Y-35075565D01*
X62370000Y-34289605D01*
X61584040Y-35075565D01*
X61651020Y-35315656D01*
X61796549Y-35384088D01*
X61712062Y-35419084D01*
X61484564Y-35571093D01*
X61291093Y-35764564D01*
X61139084Y-35992062D01*
X61100000Y-36086419D01*
X61060916Y-35992062D01*
X60908907Y-35764564D01*
X60715436Y-35571093D01*
X60487938Y-35419084D01*
X60393581Y-35380000D01*
X60487938Y-35340916D01*
X60715436Y-35188907D01*
X60908907Y-34995436D01*
X61060916Y-34767938D01*
X61093664Y-34688878D01*
X61102364Y-34713023D01*
X61164344Y-34828980D01*
X61404435Y-34895960D01*
X62190395Y-34110000D01*
X61404435Y-33324040D01*
X61164344Y-33391020D01*
X61095912Y-33536549D01*
X61060916Y-33452062D01*
X60908907Y-33224564D01*
X60828778Y-33144435D01*
X61584040Y-33144435D01*
X62370000Y-33930395D01*
X63155960Y-33144435D01*
X63088980Y-32904344D01*
X62839952Y-32787244D01*
X62572865Y-32720977D01*
X62297983Y-32708090D01*
X62025867Y-32749078D01*
X61766977Y-32842364D01*
X61651020Y-32904344D01*
X61584040Y-33144435D01*
X60828778Y-33144435D01*
X60715436Y-33031093D01*
X60487938Y-32879084D01*
X60235156Y-32774378D01*
X59966805Y-32721000D01*
X59693195Y-32721000D01*
X59424844Y-32774378D01*
X59172062Y-32879084D01*
X58944564Y-33031093D01*
X58751093Y-33224564D01*
X58599084Y-33452062D01*
X58560000Y-33546419D01*
X58520916Y-33452062D01*
X58368907Y-33224564D01*
X58175436Y-33031093D01*
X57947938Y-32879084D01*
X57695156Y-32774378D01*
X57426805Y-32721000D01*
X57153195Y-32721000D01*
X56884844Y-32774378D01*
X56632062Y-32879084D01*
X56404564Y-33031093D01*
X56211093Y-33224564D01*
X56059084Y-33452062D01*
X56026336Y-33531122D01*
X56017636Y-33506977D01*
X55955656Y-33391020D01*
X55715565Y-33324040D01*
X54929605Y-34110000D01*
X55715565Y-34895960D01*
X55955656Y-34828980D01*
X56024088Y-34683451D01*
X56059084Y-34767938D01*
X56211093Y-34995436D01*
X56277924Y-35062267D01*
X56257922Y-35078682D01*
X56234376Y-35107373D01*
X55703046Y-35638703D01*
X55635436Y-35571093D01*
X55407938Y-35419084D01*
X55328878Y-35386336D01*
X55353023Y-35377636D01*
X55468980Y-35315656D01*
X55535960Y-35075565D01*
X54750000Y-34289605D01*
X53964040Y-35075565D01*
X54031020Y-35315656D01*
X54176549Y-35384088D01*
X54092062Y-35419084D01*
X53864564Y-35571093D01*
X53671093Y-35764564D01*
X53519084Y-35992062D01*
X53480000Y-36086419D01*
X53440916Y-35992062D01*
X53288907Y-35764564D01*
X53095436Y-35571093D01*
X52867938Y-35419084D01*
X52773581Y-35380000D01*
X52867938Y-35340916D01*
X53095436Y-35188907D01*
X53288907Y-34995436D01*
X53440916Y-34767938D01*
X53473664Y-34688878D01*
X53482364Y-34713023D01*
X53544344Y-34828980D01*
X53784435Y-34895960D01*
X54570395Y-34110000D01*
X53784435Y-33324040D01*
X53544344Y-33391020D01*
X53475912Y-33536549D01*
X53440916Y-33452062D01*
X53288907Y-33224564D01*
X53208778Y-33144435D01*
X53964040Y-33144435D01*
X54750000Y-33930395D01*
X55535960Y-33144435D01*
X55468980Y-32904344D01*
X55219952Y-32787244D01*
X54952865Y-32720977D01*
X54677983Y-32708090D01*
X54405867Y-32749078D01*
X54146977Y-32842364D01*
X54031020Y-32904344D01*
X53964040Y-33144435D01*
X53208778Y-33144435D01*
X53095436Y-33031093D01*
X52867938Y-32879084D01*
X52615156Y-32774378D01*
X52346805Y-32721000D01*
X52073195Y-32721000D01*
X51804844Y-32774378D01*
X51552062Y-32879084D01*
X51324564Y-33031093D01*
X51131093Y-33224564D01*
X50979084Y-33452062D01*
X50940000Y-33546419D01*
X50900916Y-33452062D01*
X50748907Y-33224564D01*
X50555436Y-33031093D01*
X50327938Y-32879084D01*
X50075156Y-32774378D01*
X49806805Y-32721000D01*
X49533195Y-32721000D01*
X49264844Y-32774378D01*
X49012062Y-32879084D01*
X48784564Y-33031093D01*
X48591093Y-33224564D01*
X48439084Y-33452062D01*
X48400000Y-33546419D01*
X48360916Y-33452062D01*
X48208907Y-33224564D01*
X48015436Y-33031093D01*
X47787938Y-32879084D01*
X47535156Y-32774378D01*
X47266805Y-32721000D01*
X46993195Y-32721000D01*
X46724844Y-32774378D01*
X46472062Y-32879084D01*
X46244564Y-33031093D01*
X46051093Y-33224564D01*
X45899084Y-33452062D01*
X45866336Y-33531122D01*
X45857636Y-33506977D01*
X45795656Y-33391020D01*
X45555565Y-33324040D01*
X44769605Y-34110000D01*
X44783748Y-34124143D01*
X44604143Y-34303748D01*
X44590000Y-34289605D01*
X43804040Y-35075565D01*
X43871020Y-35315656D01*
X44016549Y-35384088D01*
X43932062Y-35419084D01*
X43704564Y-35571093D01*
X43511093Y-35764564D01*
X43359084Y-35992062D01*
X43320000Y-36086419D01*
X43280916Y-35992062D01*
X43128907Y-35764564D01*
X42935436Y-35571093D01*
X42707938Y-35419084D01*
X42613581Y-35380000D01*
X42707938Y-35340916D01*
X42935436Y-35188907D01*
X43128907Y-34995436D01*
X43280916Y-34767938D01*
X43313664Y-34688878D01*
X43322364Y-34713023D01*
X43384344Y-34828980D01*
X43624435Y-34895960D01*
X44410395Y-34110000D01*
X43624435Y-33324040D01*
X43384344Y-33391020D01*
X43315912Y-33536549D01*
X43280916Y-33452062D01*
X43128907Y-33224564D01*
X43048778Y-33144435D01*
X43804040Y-33144435D01*
X44590000Y-33930395D01*
X45375960Y-33144435D01*
X45308980Y-32904344D01*
X45059952Y-32787244D01*
X44792865Y-32720977D01*
X44517983Y-32708090D01*
X44245867Y-32749078D01*
X43986977Y-32842364D01*
X43871020Y-32904344D01*
X43804040Y-33144435D01*
X43048778Y-33144435D01*
X42935436Y-33031093D01*
X42707938Y-32879084D01*
X42455156Y-32774378D01*
X42186805Y-32721000D01*
X41913195Y-32721000D01*
X41644844Y-32774378D01*
X41392062Y-32879084D01*
X41164564Y-33031093D01*
X40971093Y-33224564D01*
X40819084Y-33452062D01*
X40780000Y-33546419D01*
X40740916Y-33452062D01*
X40588907Y-33224564D01*
X40395436Y-33031093D01*
X40167938Y-32879084D01*
X39915156Y-32774378D01*
X39646805Y-32721000D01*
X39373195Y-32721000D01*
X39104844Y-32774378D01*
X38852062Y-32879084D01*
X38624564Y-33031093D01*
X38431093Y-33224564D01*
X38279084Y-33452062D01*
X38174378Y-33704844D01*
X38121000Y-33973195D01*
X38121000Y-34044758D01*
X37942824Y-33614604D01*
X37534950Y-33004176D01*
X37015824Y-32485050D01*
X36405396Y-32077176D01*
X35727126Y-31796227D01*
X35007077Y-31653000D01*
X34272923Y-31653000D01*
X33552874Y-31796227D01*
X32874604Y-32077176D01*
X32264176Y-32485050D01*
X31745050Y-33004176D01*
X31337176Y-33614604D01*
X31112000Y-34158226D01*
X31112000Y-31322000D01*
X118708001Y-31322000D01*
X118708000Y-90978000D01*
G36*
X55035002Y-51398585D02*
G01*
X54994189Y-51406703D01*
X54834585Y-51472813D01*
X54690945Y-51568790D01*
X54568790Y-51690945D01*
X54472813Y-51834585D01*
X54406703Y-51994189D01*
X54373000Y-52163623D01*
X54373000Y-52336377D01*
X54406703Y-52505811D01*
X54472813Y-52665415D01*
X54502968Y-52710545D01*
X52790503Y-54423011D01*
X51109767Y-54423011D01*
X51127000Y-54336377D01*
X51127000Y-54163623D01*
X51093297Y-53994189D01*
X51027187Y-53834585D01*
X50931210Y-53690945D01*
X50809055Y-53568790D01*
X50665415Y-53472813D01*
X50505811Y-53406703D01*
X50336377Y-53373000D01*
X50163623Y-53373000D01*
X49994189Y-53406703D01*
X49834585Y-53472813D01*
X49690945Y-53568790D01*
X49568790Y-53690945D01*
X49472813Y-53834585D01*
X49406703Y-53994189D01*
X49400972Y-54023001D01*
X48476999Y-54023001D01*
X48476999Y-49309487D01*
X55035001Y-42751485D01*
X55035002Y-51398585D01*
G37*
X55035002Y-51398585D02*
X54994189Y-51406703D01*
X54834585Y-51472813D01*
X54690945Y-51568790D01*
X54568790Y-51690945D01*
X54472813Y-51834585D01*
X54406703Y-51994189D01*
X54373000Y-52163623D01*
X54373000Y-52336377D01*
X54406703Y-52505811D01*
X54472813Y-52665415D01*
X54502968Y-52710545D01*
X52790503Y-54423011D01*
X51109767Y-54423011D01*
X51127000Y-54336377D01*
X51127000Y-54163623D01*
X51093297Y-53994189D01*
X51027187Y-53834585D01*
X50931210Y-53690945D01*
X50809055Y-53568790D01*
X50665415Y-53472813D01*
X50505811Y-53406703D01*
X50336377Y-53373000D01*
X50163623Y-53373000D01*
X49994189Y-53406703D01*
X49834585Y-53472813D01*
X49690945Y-53568790D01*
X49568790Y-53690945D01*
X49472813Y-53834585D01*
X49406703Y-53994189D01*
X49400972Y-54023001D01*
X48476999Y-54023001D01*
X48476999Y-49309487D01*
X55035001Y-42751485D01*
X55035002Y-51398585D01*
G36*
X44898000Y-50538512D02*
G01*
X44038654Y-51397858D01*
X43994189Y-51406703D01*
X43901999Y-51444889D01*
X43901999Y-48502001D01*
X44001066Y-48502001D01*
X44038001Y-48505639D01*
X44074936Y-48502001D01*
X44074939Y-48502001D01*
X44185419Y-48491120D01*
X44327171Y-48448119D01*
X44457811Y-48378291D01*
X44572318Y-48284318D01*
X44595869Y-48255621D01*
X44855617Y-47995872D01*
X44884318Y-47972318D01*
X44898000Y-47955647D01*
X44898000Y-50538512D01*
G37*
X44898000Y-50538512D02*
X44038654Y-51397858D01*
X43994189Y-51406703D01*
X43901999Y-51444889D01*
X43901999Y-48502001D01*
X44001066Y-48502001D01*
X44038001Y-48505639D01*
X44074936Y-48502001D01*
X44074939Y-48502001D01*
X44185419Y-48491120D01*
X44327171Y-48448119D01*
X44457811Y-48378291D01*
X44572318Y-48284318D01*
X44595869Y-48255621D01*
X44855617Y-47995872D01*
X44884318Y-47972318D01*
X44898000Y-47955647D01*
X44898000Y-50538512D01*
G36*
X53519084Y-37307938D02*
G01*
X53671093Y-37535436D01*
X53864564Y-37728907D01*
X53998000Y-37818066D01*
X53998001Y-41661509D01*
X48076989Y-47582521D01*
X48076989Y-44988949D01*
X48080627Y-44952014D01*
X48076989Y-44915075D01*
X48066108Y-44804595D01*
X48023107Y-44662843D01*
X47953279Y-44532203D01*
X47859306Y-44417696D01*
X47744798Y-44323723D01*
X47614158Y-44253895D01*
X47472406Y-44210894D01*
X47324989Y-44196375D01*
X47324988Y-44196375D01*
X47311771Y-44197677D01*
X47177571Y-44210894D01*
X47035819Y-44253895D01*
X46997767Y-44274234D01*
X46905178Y-44323723D01*
X46861697Y-44359407D01*
X46790672Y-44417696D01*
X46767123Y-44446391D01*
X46495229Y-44718285D01*
X46516120Y-44649419D01*
X46527001Y-44538939D01*
X46527001Y-44538936D01*
X46530639Y-44502001D01*
X46527001Y-44465066D01*
X46527001Y-43588938D01*
X46530639Y-43552002D01*
X46527001Y-43515065D01*
X46516120Y-43404585D01*
X46473119Y-43262833D01*
X46422770Y-43168636D01*
X46403291Y-43132192D01*
X46332864Y-43046377D01*
X46309318Y-43017686D01*
X46280628Y-42994141D01*
X46159070Y-42872583D01*
X46282061Y-42821639D01*
X46425701Y-42725662D01*
X46547856Y-42603507D01*
X46643833Y-42459867D01*
X46709943Y-42300263D01*
X46718788Y-42255798D01*
X49932587Y-39042000D01*
X50326890Y-39042000D01*
X50364585Y-39067187D01*
X50524189Y-39133297D01*
X50693623Y-39167000D01*
X50866377Y-39167000D01*
X51035811Y-39133297D01*
X51195415Y-39067187D01*
X51339055Y-38971210D01*
X51461210Y-38849055D01*
X51557187Y-38705415D01*
X51623297Y-38545811D01*
X51657000Y-38376377D01*
X51657000Y-38203623D01*
X51623297Y-38034189D01*
X51561414Y-37884790D01*
X51804844Y-37985622D01*
X52073195Y-38039000D01*
X52346805Y-38039000D01*
X52615156Y-37985622D01*
X52867938Y-37880916D01*
X53095436Y-37728907D01*
X53288907Y-37535436D01*
X53440916Y-37307938D01*
X53480000Y-37213581D01*
X53519084Y-37307938D01*
G37*
X53519084Y-37307938D02*
X53671093Y-37535436D01*
X53864564Y-37728907D01*
X53998000Y-37818066D01*
X53998001Y-41661509D01*
X48076989Y-47582521D01*
X48076989Y-44988949D01*
X48080627Y-44952014D01*
X48076989Y-44915075D01*
X48066108Y-44804595D01*
X48023107Y-44662843D01*
X47953279Y-44532203D01*
X47859306Y-44417696D01*
X47744798Y-44323723D01*
X47614158Y-44253895D01*
X47472406Y-44210894D01*
X47324989Y-44196375D01*
X47324988Y-44196375D01*
X47311771Y-44197677D01*
X47177571Y-44210894D01*
X47035819Y-44253895D01*
X46997767Y-44274234D01*
X46905178Y-44323723D01*
X46861697Y-44359407D01*
X46790672Y-44417696D01*
X46767123Y-44446391D01*
X46495229Y-44718285D01*
X46516120Y-44649419D01*
X46527001Y-44538939D01*
X46527001Y-44538936D01*
X46530639Y-44502001D01*
X46527001Y-44465066D01*
X46527001Y-43588938D01*
X46530639Y-43552002D01*
X46527001Y-43515065D01*
X46516120Y-43404585D01*
X46473119Y-43262833D01*
X46422770Y-43168636D01*
X46403291Y-43132192D01*
X46332864Y-43046377D01*
X46309318Y-43017686D01*
X46280628Y-42994141D01*
X46159070Y-42872583D01*
X46282061Y-42821639D01*
X46425701Y-42725662D01*
X46547856Y-42603507D01*
X46643833Y-42459867D01*
X46709943Y-42300263D01*
X46718788Y-42255798D01*
X49932587Y-39042000D01*
X50326890Y-39042000D01*
X50364585Y-39067187D01*
X50524189Y-39133297D01*
X50693623Y-39167000D01*
X50866377Y-39167000D01*
X51035811Y-39133297D01*
X51195415Y-39067187D01*
X51339055Y-38971210D01*
X51461210Y-38849055D01*
X51557187Y-38705415D01*
X51623297Y-38545811D01*
X51657000Y-38376377D01*
X51657000Y-38203623D01*
X51623297Y-38034189D01*
X51561414Y-37884790D01*
X51804844Y-37985622D01*
X52073195Y-38039000D01*
X52346805Y-38039000D01*
X52615156Y-37985622D01*
X52867938Y-37880916D01*
X53095436Y-37728907D01*
X53288907Y-37535436D01*
X53440916Y-37307938D01*
X53480000Y-37213581D01*
X53519084Y-37307938D01*
G36*
X43172980Y-45775529D02*
G01*
X42767000Y-46181510D01*
X42767000Y-43540608D01*
X42981533Y-43397261D01*
X43172979Y-43205815D01*
X43172980Y-45775529D01*
G37*
X43172980Y-45775529D02*
X42767000Y-46181510D01*
X42767000Y-43540608D01*
X42981533Y-43397261D01*
X43172979Y-43205815D01*
X43172980Y-45775529D01*
G36*
X50979084Y-34767938D02*
G01*
X51131093Y-34995436D01*
X51324564Y-35188907D01*
X51552062Y-35340916D01*
X51646419Y-35380000D01*
X51552062Y-35419084D01*
X51324564Y-35571093D01*
X51131093Y-35764564D01*
X50979084Y-35992062D01*
X50946336Y-36071122D01*
X50937636Y-36046977D01*
X50875656Y-35931020D01*
X50635565Y-35864040D01*
X49849605Y-36650000D01*
X49863748Y-36664143D01*
X49684143Y-36843748D01*
X49670000Y-36829605D01*
X48884040Y-37615565D01*
X48951020Y-37855656D01*
X48978861Y-37868748D01*
X47729498Y-39118111D01*
X47651210Y-39000945D01*
X47529055Y-38878790D01*
X47385415Y-38782813D01*
X47225811Y-38716703D01*
X47056377Y-38683000D01*
X46883623Y-38683000D01*
X46844999Y-38690683D01*
X46844999Y-38009522D01*
X46993195Y-38039000D01*
X47266805Y-38039000D01*
X47535156Y-37985622D01*
X47787938Y-37880916D01*
X48015436Y-37728907D01*
X48208907Y-37535436D01*
X48360916Y-37307938D01*
X48393664Y-37228878D01*
X48402364Y-37253023D01*
X48464344Y-37368980D01*
X48704435Y-37435960D01*
X49490395Y-36650000D01*
X48704435Y-35864040D01*
X48464344Y-35931020D01*
X48395912Y-36076549D01*
X48360916Y-35992062D01*
X48208907Y-35764564D01*
X48015436Y-35571093D01*
X47787938Y-35419084D01*
X47693581Y-35380000D01*
X47787938Y-35340916D01*
X48015436Y-35188907D01*
X48208907Y-34995436D01*
X48360916Y-34767938D01*
X48400000Y-34673581D01*
X48439084Y-34767938D01*
X48591093Y-34995436D01*
X48784564Y-35188907D01*
X49012062Y-35340916D01*
X49091122Y-35373664D01*
X49066977Y-35382364D01*
X48951020Y-35444344D01*
X48884040Y-35684435D01*
X49670000Y-36470395D01*
X50455960Y-35684435D01*
X50388980Y-35444344D01*
X50243451Y-35375912D01*
X50327938Y-35340916D01*
X50555436Y-35188907D01*
X50748907Y-34995436D01*
X50900916Y-34767938D01*
X50940000Y-34673581D01*
X50979084Y-34767938D01*
G37*
X50979084Y-34767938D02*
X51131093Y-34995436D01*
X51324564Y-35188907D01*
X51552062Y-35340916D01*
X51646419Y-35380000D01*
X51552062Y-35419084D01*
X51324564Y-35571093D01*
X51131093Y-35764564D01*
X50979084Y-35992062D01*
X50946336Y-36071122D01*
X50937636Y-36046977D01*
X50875656Y-35931020D01*
X50635565Y-35864040D01*
X49849605Y-36650000D01*
X49863748Y-36664143D01*
X49684143Y-36843748D01*
X49670000Y-36829605D01*
X48884040Y-37615565D01*
X48951020Y-37855656D01*
X48978861Y-37868748D01*
X47729498Y-39118111D01*
X47651210Y-39000945D01*
X47529055Y-38878790D01*
X47385415Y-38782813D01*
X47225811Y-38716703D01*
X47056377Y-38683000D01*
X46883623Y-38683000D01*
X46844999Y-38690683D01*
X46844999Y-38009522D01*
X46993195Y-38039000D01*
X47266805Y-38039000D01*
X47535156Y-37985622D01*
X47787938Y-37880916D01*
X48015436Y-37728907D01*
X48208907Y-37535436D01*
X48360916Y-37307938D01*
X48393664Y-37228878D01*
X48402364Y-37253023D01*
X48464344Y-37368980D01*
X48704435Y-37435960D01*
X49490395Y-36650000D01*
X48704435Y-35864040D01*
X48464344Y-35931020D01*
X48395912Y-36076549D01*
X48360916Y-35992062D01*
X48208907Y-35764564D01*
X48015436Y-35571093D01*
X47787938Y-35419084D01*
X47693581Y-35380000D01*
X47787938Y-35340916D01*
X48015436Y-35188907D01*
X48208907Y-34995436D01*
X48360916Y-34767938D01*
X48400000Y-34673581D01*
X48439084Y-34767938D01*
X48591093Y-34995436D01*
X48784564Y-35188907D01*
X49012062Y-35340916D01*
X49091122Y-35373664D01*
X49066977Y-35382364D01*
X48951020Y-35444344D01*
X48884040Y-35684435D01*
X49670000Y-36470395D01*
X50455960Y-35684435D01*
X50388980Y-35444344D01*
X50243451Y-35375912D01*
X50327938Y-35340916D01*
X50555436Y-35188907D01*
X50748907Y-34995436D01*
X50900916Y-34767938D01*
X50940000Y-34673581D01*
X50979084Y-34767938D01*
%TD*%
M02*
