M48
; DRILL file {KiCad (5.1.8)-1} date 12/02/20 22:37:40
; FORMAT={-:-/ absolute / inch / decimal}
; #@! TF.CreationDate,2020-12-02T22:37:40+03:00
; #@! TF.GenerationSoftware,Kicad,Pcbnew,(5.1.8)-1
; #@! TF.FileFunction,Plated,1,2,PTH
FMAT,2
INCH
T1C0.0098
T2C0.0157
T3C0.0197
T4C0.0315
T5C0.0394
T6C0.0400
T7C0.0433
T8C0.1083
T9C0.1181
%
G90
G05
T1
X1.3484Y-1.8209
X1.3484Y-1.8996
X1.3484Y-1.9783
X1.3484Y-2.4508
X1.4272Y-1.8209
X1.4272Y-1.8996
X1.4272Y-1.9783
X1.5059Y-1.7421
X1.5059Y-1.8209
X1.5059Y-2.5295
X1.5059Y-2.6083
X1.5492Y-2.0575
X1.5492Y-2.6575
X1.5846Y-1.7421
X1.5846Y-1.8209
X1.5846Y-2.2146
X1.5846Y-2.2933
X1.5969Y-2.0276
X1.5992Y-2.8575
X1.5992Y-3.0075
X1.5992Y-3.1075
X1.5992Y-3.1575
X1.6209Y-3.0882
X1.622Y-2.9945
X1.6634Y-2.2146
X1.6634Y-2.2933
X1.6634Y-2.4508
X1.6634Y-2.5295
X1.6634Y-2.6083
X1.7028Y-1.7421
X1.7421Y-2.0571
X1.7421Y-2.1358
X1.7421Y-2.2146
X1.7421Y-2.5295
X1.7421Y-2.6083
X1.7815Y-1.7421
X1.8058Y-1.6553
X1.8209Y-2.0571
X1.8209Y-2.1358
X1.8209Y-2.2146
X1.8209Y-2.5295
X1.8209Y-2.6083
X1.8492Y-1.5575
X1.8602Y-1.7421
X1.8992Y-2.7575
X1.8996Y-1.8209
X1.8996Y-1.9783
X1.8996Y-2.0571
X1.8996Y-2.1358
X1.8996Y-2.2146
X1.8996Y-2.2933
X1.8996Y-2.4508
X1.8996Y-2.5295
X1.8996Y-2.6083
X1.939Y-1.7421
X1.9783Y-1.9783
X1.9783Y-2.0571
X1.9783Y-2.1358
X1.9783Y-2.2146
X1.9783Y-2.4508
X1.9792Y-1.5575
X1.9992Y-1.5075
X2.0177Y-1.6634
X2.0177Y-1.7421
X2.0492Y-2.8575
X2.0571Y-2.4508
X2.0965Y-1.6634
X2.0965Y-1.7421
X2.0965Y-1.9783
X2.0965Y-2.0571
X2.0965Y-2.1358
X2.0965Y-2.2146
X2.1752Y-1.6634
X2.1752Y-1.7421
X2.1752Y-1.8209
X2.1752Y-1.8996
X2.1752Y-1.9783
X2.1752Y-2.0571
X2.1752Y-2.1358
X2.1752Y-2.2146
X2.1752Y-2.2933
X2.1752Y-2.372
X2.2461Y-2.6283
X2.2835Y-1.6496
X2.3622Y-1.6496
X2.4409Y-1.6496
X2.5197Y-1.6496
X2.5984Y-1.6496
X2.6772Y-1.6496
X2.7559Y-1.6496
X2.8346Y-1.6496
X2.9134Y-1.6496
X2.9921Y-1.6496
X3.0709Y-1.6496
X3.1492Y-1.5575
X3.1496Y-1.6496
X3.2283Y-1.6496
X3.376Y-1.6732
X3.376Y-1.7421
X3.376Y-1.8209
X3.376Y-1.8996
X3.376Y-1.9783
X3.4547Y-1.6634
X3.4547Y-1.7421
X3.4547Y-1.8209
X3.4992Y-1.5075
X3.4992Y-1.5575
X3.5335Y-1.6634
X3.5335Y-1.7421
X3.5335Y-1.8209
X3.5654Y-2.0276
X3.5728Y-1.6732
X3.6122Y-1.6634
X3.6122Y-1.7421
X3.6122Y-1.8209
X3.6122Y-1.9783
X3.6122Y-2.2146
X3.6122Y-2.2933
X3.6122Y-2.4508
X3.6122Y-2.5295
X3.6122Y-2.6083
X3.6492Y-1.7075
X3.6909Y-1.6634
X3.6909Y-1.7421
X3.6909Y-2.0571
X3.6909Y-2.1358
X3.6909Y-2.2146
X3.6909Y-2.5295
X3.6909Y-2.6083
X3.7697Y-1.7421
X3.7697Y-2.0571
X3.7697Y-2.1358
X3.7697Y-2.2146
X3.7697Y-2.5295
X3.7894Y-1.7224
X3.8484Y-1.7421
X3.8484Y-1.8209
X3.8484Y-1.9783
X3.8484Y-2.0571
X3.8484Y-2.1358
X3.8484Y-2.2146
X3.8484Y-2.2933
X3.8484Y-2.4508
X3.8484Y-2.5295
X3.8484Y-2.6083
X3.9272Y-1.7421
X3.9272Y-1.9783
X3.9272Y-2.0571
X3.9272Y-2.1358
X3.9272Y-2.2146
X3.9272Y-2.4508
X4.0059Y-1.7421
X4.0059Y-2.4508
X4.0256Y-1.7224
X4.0846Y-1.8209
X4.0846Y-1.8996
X4.0846Y-1.9783
X4.0846Y-2.0571
X4.0846Y-2.1358
X4.0846Y-2.2146
X4.0846Y-2.2933
X4.0846Y-2.372
X4.0846Y-2.4508
X4.0992Y-2.6575
X4.1492Y-2.7075
X4.1634Y-1.8209
X4.1634Y-1.8996
X4.1634Y-1.9783
X4.1634Y-2.0571
X4.1634Y-2.1358
X4.1634Y-2.2146
X4.1634Y-2.2933
X4.1634Y-2.372
X4.1634Y-2.4508
X4.1992Y-3.0075
X4.2492Y-1.7575
X4.2992Y-1.7075
X4.3492Y-1.8575
X4.3492Y-3.1075
X1.7224Y-2.3287
X1.7224Y-2.378
X1.7224Y-2.4272
X1.7717Y-2.3287
X1.7717Y-2.378
X1.7717Y-2.4272
X1.8209Y-2.3287
X1.8209Y-2.378
X1.8209Y-2.4272
X3.6909Y-1.8563
X3.6909Y-1.9055
X3.6909Y-1.9547
X3.7402Y-1.8563
X3.7402Y-1.9055
X3.7402Y-1.9547
X3.7894Y-1.8563
X3.7894Y-1.9055
X3.7894Y-1.9547
X1.7224Y-1.8563
X1.7224Y-1.9055
X1.7224Y-1.9547
X1.7717Y-1.8563
X1.7717Y-1.9055
X1.7717Y-1.9547
X1.8209Y-1.8563
X1.8209Y-1.9055
X1.8209Y-1.9547
X3.6909Y-2.3287
X3.6909Y-2.378
X3.6909Y-2.4272
X3.7402Y-2.3287
X3.7402Y-2.378
X3.7402Y-2.4272
X3.7894Y-2.3287
X3.7894Y-2.378
X3.7894Y-2.4272
T2
X1.378Y-2.3917
X1.6634Y-2.0669
X1.6634Y-2.1457
X3.6417Y-2.0669
X3.6417Y-2.1063
X3.6417Y-2.1457
T3
X4.3992Y-2.7287
X4.3992Y-2.7681
X4.3992Y-2.8075
X4.3992Y-2.9181
X4.3992Y-2.9575
T4
X1.4008Y-2.8075
X1.4992Y-2.8075
T5
X1.5551Y-1.6634
X1.6551Y-1.6634
X3.3465Y-2.4803
X3.3465Y-2.5803
X3.8567Y-1.6634
X3.9567Y-1.6634
X2.1654Y-2.4803
X2.1654Y-2.5803
T6
X1.5555Y-1.3429
X1.5555Y-1.4429
X1.6555Y-1.3429
X1.6555Y-1.4429
X1.7555Y-1.3429
X1.7555Y-1.4429
X1.8555Y-1.3429
X1.8555Y-1.4429
X1.9555Y-1.3429
X1.9555Y-1.4429
X2.0555Y-1.3429
X2.0555Y-1.4429
X2.1555Y-1.3429
X2.1555Y-1.4429
X2.2555Y-1.3429
X2.2555Y-1.4429
X2.3555Y-1.3429
X2.3555Y-1.4429
X2.4555Y-1.3429
X2.4555Y-1.4429
X2.5555Y-1.3429
X2.5555Y-1.4429
X2.6555Y-1.3429
X2.6555Y-1.4429
X2.7555Y-1.3429
X2.7555Y-1.4429
X2.8555Y-1.3429
X2.8555Y-1.4429
X2.9555Y-1.3429
X2.9555Y-1.4429
X3.0555Y-1.3429
X3.0555Y-1.4429
X3.1555Y-1.3429
X3.1555Y-1.4429
X3.2555Y-1.3429
X3.2555Y-1.4429
X3.3555Y-1.3429
X3.3555Y-1.4429
X3.4555Y-1.3429
X3.4555Y-1.4429
X1.5543Y-1.3445
X1.5543Y-1.4445
X1.6543Y-1.3445
X1.6543Y-1.4445
X1.7543Y-1.3445
X1.7543Y-1.4445
X1.8543Y-1.3445
X1.8543Y-1.4445
X1.9543Y-1.3445
X1.9543Y-1.4445
X2.0543Y-1.3445
X2.0543Y-1.4445
X2.1543Y-1.3445
X2.1543Y-1.4445
X2.2543Y-1.3445
X2.2543Y-1.4445
X2.3543Y-1.3445
X2.3543Y-1.4445
X2.4543Y-1.3445
X2.4543Y-1.4445
X2.5543Y-1.3445
X2.5543Y-1.4445
X2.6543Y-1.3445
X2.6543Y-1.4445
X2.7543Y-1.3445
X2.7543Y-1.4445
X2.8543Y-1.3445
X2.8543Y-1.4445
X2.9543Y-1.3445
X2.9543Y-1.4445
X3.0543Y-1.3445
X3.0543Y-1.4445
X3.1543Y-1.3445
X3.1543Y-1.4445
X3.2543Y-1.3445
X3.2543Y-1.4445
X3.3543Y-1.3445
X3.3543Y-1.4445
X3.4543Y-1.3445
X3.4543Y-1.4445
T7
X3.3492Y-2.8075
X3.3492Y-2.9075
X3.3492Y-3.0075
X4.3992Y-1.3575
X4.3992Y-1.5575
T8
X1.3626Y-1.3945
X1.3626Y-3.3236
X3.6461Y-1.3945
X3.6461Y-3.3236
T9
X1.3638Y-1.3929
X3.6472Y-1.3929
X3.6472Y-3.322
X1.3638Y-3.322
T0
M30
