%TF.GenerationSoftware,KiCad,Pcbnew,(5.1.8)-1*%
%TF.CreationDate,2020-12-15T20:26:10+03:00*%
%TF.ProjectId,ledboard,6c656462-6f61-4726-942e-6b696361645f,v0.4.0*%
%TF.SameCoordinates,Original*%
%TF.FileFunction,Copper,L2,Bot*%
%TF.FilePolarity,Positive*%
%FSLAX46Y46*%
G04 Gerber Fmt 4.6, Leading zero omitted, Abs format (unit mm)*
G04 Created by KiCad (PCBNEW (5.1.8)-1) date 2020-12-15 20:26:10*
%MOMM*%
%LPD*%
G01*
G04 APERTURE LIST*
%TA.AperFunction,Profile*%
%ADD10C,0.050000*%
%TD*%
%TA.AperFunction,ComponentPad*%
%ADD11O,0.850000X0.850000*%
%TD*%
%TA.AperFunction,ComponentPad*%
%ADD12R,0.850000X0.850000*%
%TD*%
%TA.AperFunction,ComponentPad*%
%ADD13C,5.400000*%
%TD*%
%TA.AperFunction,ComponentPad*%
%ADD14O,1.700000X1.700000*%
%TD*%
%TA.AperFunction,ComponentPad*%
%ADD15R,1.700000X1.700000*%
%TD*%
%TA.AperFunction,ComponentPad*%
%ADD16C,1.650000*%
%TD*%
%TA.AperFunction,ComponentPad*%
%ADD17R,1.650000X1.650000*%
%TD*%
%TA.AperFunction,ComponentPad*%
%ADD18O,2.000000X1.905000*%
%TD*%
%TA.AperFunction,ComponentPad*%
%ADD19R,2.000000X1.905000*%
%TD*%
%TA.AperFunction,ComponentPad*%
%ADD20C,1.600000*%
%TD*%
%TA.AperFunction,ComponentPad*%
%ADD21R,1.600000X1.600000*%
%TD*%
%TA.AperFunction,ComponentPad*%
%ADD22C,0.650000*%
%TD*%
%TA.AperFunction,ViaPad*%
%ADD23C,0.500000*%
%TD*%
%TA.AperFunction,ViaPad*%
%ADD24C,0.800000*%
%TD*%
%TA.AperFunction,Conductor*%
%ADD25C,0.250000*%
%TD*%
%TA.AperFunction,Conductor*%
%ADD26C,0.200000*%
%TD*%
%TA.AperFunction,Conductor*%
%ADD27C,0.300000*%
%TD*%
%TA.AperFunction,Conductor*%
%ADD28C,0.500000*%
%TD*%
%TA.AperFunction,Conductor*%
%ADD29C,0.254000*%
%TD*%
%TA.AperFunction,Conductor*%
%ADD30C,0.100000*%
%TD*%
G04 APERTURE END LIST*
D10*
X81000000Y-45140000D02*
X58920000Y-45130000D01*
X81000000Y-45140000D02*
X80980000Y-88300000D01*
X58920000Y-45130000D02*
X58900000Y-88340000D01*
X33960000Y-88340000D02*
G75*
G02*
X30960000Y-85340000I0J3000000D01*
G01*
X30960000Y-34130000D02*
G75*
G02*
X33960000Y-31130000I3000000J0D01*
G01*
X113929999Y-31100001D02*
G75*
G02*
X116919999Y-34109999I-9999J-2999999D01*
G01*
X116920066Y-85310001D02*
G75*
G02*
X113939999Y-88309999I-3000066J1D01*
G01*
X80980000Y-88300000D02*
X113939999Y-88309999D01*
X116920066Y-85310001D02*
X116919999Y-34109999D01*
X113929999Y-31100001D02*
X33960000Y-31130000D01*
X30960000Y-34130000D02*
X30960000Y-85340000D01*
X33960000Y-88340000D02*
X58900000Y-88340000D01*
D11*
%TO.P,J5,3*%
%TO.N,/PWM_LED*%
X97548000Y-86804000D03*
%TO.P,J5,2*%
%TO.N,+5V*%
X98548000Y-86804000D03*
D12*
%TO.P,J5,1*%
%TO.N,GND*%
X99548000Y-86804000D03*
%TD*%
D11*
%TO.P,J6,2*%
%TO.N,GND*%
X94230000Y-86804000D03*
D12*
%TO.P,J6,1*%
%TO.N,Net-(J6-Pad1)*%
X95230000Y-86804000D03*
%TD*%
D13*
%TO.P,REF\u002A\u002A,1*%
%TO.N,N/C*%
X34610000Y-84420000D03*
%TD*%
%TO.P,REF\u002A\u002A,1*%
%TO.N,N/C*%
X92610000Y-35420000D03*
%TD*%
%TO.P,REF\u002A\u002A,1*%
%TO.N,N/C*%
X34610000Y-35420000D03*
%TD*%
D14*
%TO.P,J7,40*%
%TO.N,N/C*%
X88090000Y-34350000D03*
%TO.P,J7,39*%
X88090000Y-36890000D03*
%TO.P,J7,38*%
X85550000Y-34350000D03*
%TO.P,J7,37*%
X85550000Y-36890000D03*
%TO.P,J7,36*%
X83010000Y-34350000D03*
%TO.P,J7,35*%
X83010000Y-36890000D03*
%TO.P,J7,34*%
X80470000Y-34350000D03*
%TO.P,J7,33*%
%TO.N,/CTRL_R*%
X80470000Y-36890000D03*
%TO.P,J7,32*%
%TO.N,N/C*%
X77930000Y-34350000D03*
%TO.P,J7,31*%
%TO.N,/PWM_LED*%
X77930000Y-36890000D03*
%TO.P,J7,30*%
%TO.N,N/C*%
X75390000Y-34350000D03*
%TO.P,J7,29*%
%TO.N,/USR_LED_B*%
X75390000Y-36890000D03*
%TO.P,J7,28*%
%TO.N,N/C*%
X72850000Y-34350000D03*
%TO.P,J7,27*%
X72850000Y-36890000D03*
%TO.P,J7,26*%
X70310000Y-34350000D03*
%TO.P,J7,25*%
%TO.N,GND*%
X70310000Y-36890000D03*
%TO.P,J7,24*%
%TO.N,N/C*%
X67770000Y-34350000D03*
%TO.P,J7,23*%
X67770000Y-36890000D03*
%TO.P,J7,22*%
X65230000Y-34350000D03*
%TO.P,J7,21*%
X65230000Y-36890000D03*
%TO.P,J7,20*%
X62690000Y-34350000D03*
%TO.P,J7,19*%
X62690000Y-36890000D03*
%TO.P,J7,18*%
X60150000Y-34350000D03*
%TO.P,J7,17*%
X60150000Y-36890000D03*
%TO.P,J7,16*%
X57610000Y-34350000D03*
%TO.P,J7,15*%
%TO.N,/FAN_PIN*%
X57610000Y-36890000D03*
%TO.P,J7,14*%
%TO.N,N/C*%
X55070000Y-34350000D03*
%TO.P,J7,13*%
X55070000Y-36890000D03*
%TO.P,J7,12*%
%TO.N,/CTRL_L*%
X52530000Y-34350000D03*
%TO.P,J7,11*%
%TO.N,N/C*%
X52530000Y-36890000D03*
%TO.P,J7,10*%
X49990000Y-34350000D03*
%TO.P,J7,9*%
X49990000Y-36890000D03*
%TO.P,J7,8*%
X47450000Y-34350000D03*
%TO.P,J7,7*%
%TO.N,/USR_LED_A*%
X47450000Y-36890000D03*
%TO.P,J7,6*%
%TO.N,N/C*%
X44910000Y-34350000D03*
%TO.P,J7,5*%
X44910000Y-36890000D03*
%TO.P,J7,4*%
X42370000Y-34350000D03*
%TO.P,J7,3*%
X42370000Y-36890000D03*
%TO.P,J7,2*%
%TO.N,+5V*%
X39830000Y-34350000D03*
D15*
%TO.P,J7,1*%
%TO.N,N/C*%
X39830000Y-36890000D03*
%TD*%
D16*
%TO.P,J8,2*%
%TO.N,GND*%
X85070000Y-83248000D03*
D17*
%TO.P,J8,1*%
%TO.N,+12V*%
X90150000Y-83248000D03*
%TD*%
D18*
%TO.P,M1,3*%
%TO.N,+5V*%
X84816000Y-70802000D03*
%TO.P,M1,2*%
%TO.N,Net-(M1-Pad2)*%
X84816000Y-73342000D03*
D19*
%TO.P,M1,1*%
%TO.N,Net-(J6-Pad1)*%
X84816000Y-75882000D03*
%TD*%
D20*
%TO.P,C12,2*%
%TO.N,GND*%
X35580000Y-71310000D03*
D21*
%TO.P,C12,1*%
%TO.N,+5V*%
X38080000Y-71310000D03*
%TD*%
D22*
%TO.P,D2,3*%
%TO.N,GND*%
X43750000Y-49650000D03*
X45000000Y-48400000D03*
X45000000Y-49650000D03*
X46250000Y-48400000D03*
X46250000Y-49650000D03*
X46250000Y-47150000D03*
X45000000Y-47150000D03*
X43750000Y-47150000D03*
X43750000Y-48400000D03*
%TD*%
%TO.P,D3,3*%
%TO.N,GND*%
X46250000Y-59150000D03*
X45000000Y-60400000D03*
X45000000Y-59150000D03*
X43750000Y-60400000D03*
X43750000Y-59150000D03*
X43750000Y-61650000D03*
X45000000Y-61650000D03*
X46250000Y-61650000D03*
X46250000Y-60400000D03*
%TD*%
%TO.P,D5,3*%
%TO.N,GND*%
X93750000Y-49650000D03*
X95000000Y-48400000D03*
X95000000Y-49650000D03*
X96250000Y-48400000D03*
X96250000Y-49650000D03*
X96250000Y-47150000D03*
X95000000Y-47150000D03*
X93750000Y-47150000D03*
X93750000Y-48400000D03*
%TD*%
%TO.P,D6,3*%
%TO.N,GND*%
X96250000Y-59150000D03*
X95000000Y-60400000D03*
X95000000Y-59150000D03*
X93750000Y-60400000D03*
X93750000Y-59150000D03*
X93750000Y-61650000D03*
X95000000Y-61650000D03*
X96250000Y-61650000D03*
X96250000Y-60400000D03*
%TD*%
%TO.P,J1,1*%
%TO.N,/USR_LED_A*%
%TA.AperFunction,ComponentPad*%
G36*
G01*
X39075000Y-41400000D02*
X39925000Y-41400000D01*
G75*
G02*
X40350000Y-41825000I0J-425000D01*
G01*
X40350000Y-42675000D01*
G75*
G02*
X39925000Y-43100000I-425000J0D01*
G01*
X39075000Y-43100000D01*
G75*
G02*
X38650000Y-42675000I0J425000D01*
G01*
X38650000Y-41825000D01*
G75*
G02*
X39075000Y-41400000I425000J0D01*
G01*
G37*
%TD.AperFunction*%
D14*
%TO.P,J1,2*%
%TO.N,/CTRL_L*%
X42040000Y-42250000D03*
%TD*%
%TO.P,J3,2*%
%TO.N,/CTRL_R*%
X97960000Y-42250000D03*
%TO.P,J3,1*%
%TO.N,/USR_LED_B*%
%TA.AperFunction,ComponentPad*%
G36*
G01*
X100925000Y-43100000D02*
X100075000Y-43100000D01*
G75*
G02*
X99650000Y-42675000I0J425000D01*
G01*
X99650000Y-41825000D01*
G75*
G02*
X100075000Y-41400000I425000J0D01*
G01*
X100925000Y-41400000D01*
G75*
G02*
X101350000Y-41825000I0J-425000D01*
G01*
X101350000Y-42675000D01*
G75*
G02*
X100925000Y-43100000I-425000J0D01*
G01*
G37*
%TD.AperFunction*%
%TD*%
D23*
%TO.N,*%
X55250000Y-52250000D03*
X50250000Y-54250000D03*
X44250000Y-52250000D03*
X46970000Y-39560000D03*
D24*
X42250000Y-52500000D03*
D23*
X55250000Y-54250000D03*
X51250000Y-42250000D03*
X50272000Y-39560000D03*
X97750000Y-62250000D03*
%TO.N,/CTRL_L*%
X40560000Y-51500000D03*
X45866646Y-42044452D03*
X50780000Y-38290000D03*
D24*
%TO.N,/USR_LED_A*%
X42250000Y-54500000D03*
D23*
%TO.N,/USR_LED_B*%
X92690000Y-43370000D03*
%TO.N,/CTRL_R*%
X90560000Y-51500000D03*
%TO.N,Net-(C11-Pad1)*%
X40620000Y-72580000D03*
X48240000Y-70040000D03*
%TO.N,+5V*%
X40620000Y-78930000D03*
X40620000Y-76390000D03*
X39350000Y-67500000D03*
X57050000Y-66760000D03*
%TO.N,/PWM_LED*%
X79990000Y-39560000D03*
X111740000Y-68170000D03*
%TO.N,/FAN_PIN*%
X88880000Y-38290000D03*
X105220000Y-73170000D03*
%TO.N,GND*%
X99750000Y-62250000D03*
D24*
X92500000Y-52500000D03*
X92500000Y-54500000D03*
D23*
X101750000Y-62250000D03*
X103750000Y-62250000D03*
X97750000Y-66250000D03*
X93750000Y-66250000D03*
X91750000Y-64250000D03*
X91750000Y-66250000D03*
X93750000Y-64250000D03*
X95750000Y-64250000D03*
X97750000Y-64250000D03*
X103750000Y-60250000D03*
X103750000Y-58250000D03*
X105750000Y-58250000D03*
X105750000Y-56250000D03*
X103750000Y-56250000D03*
X103750000Y-54250000D03*
X105750000Y-54250000D03*
X105750000Y-52250000D03*
X103750000Y-52250000D03*
X103750000Y-50250000D03*
X105750000Y-50250000D03*
X105750000Y-48250000D03*
X103750000Y-46250000D03*
X103750000Y-48250000D03*
X99750000Y-56250000D03*
X97750000Y-56250000D03*
X97750000Y-58250000D03*
X95750000Y-56250000D03*
X93750000Y-56250000D03*
X91750000Y-56250000D03*
X91750000Y-58250000D03*
X91750000Y-62250000D03*
X97750000Y-54250000D03*
X95750000Y-54250000D03*
X93750000Y-54250000D03*
X93750000Y-52250000D03*
X95750000Y-52250000D03*
X97750000Y-52250000D03*
X99750000Y-54250000D03*
X99750000Y-52250000D03*
X99750000Y-50250000D03*
X97750000Y-50250000D03*
X91750000Y-50250000D03*
X97750000Y-46250000D03*
X97750000Y-44250000D03*
X99750000Y-44250000D03*
X101750000Y-44250000D03*
X95750000Y-44250000D03*
X93750000Y-44250000D03*
X91750000Y-44250000D03*
X91750000Y-46250000D03*
X89750000Y-44250000D03*
X89750000Y-46250000D03*
X87750000Y-46250000D03*
X87750000Y-44250000D03*
X85750000Y-44250000D03*
X85750000Y-46250000D03*
X85750000Y-48250000D03*
X85750000Y-50250000D03*
X93750000Y-42250000D03*
X91750000Y-42250000D03*
X89750000Y-42250000D03*
X87750000Y-42250000D03*
X38250000Y-66250000D03*
X34250000Y-62250000D03*
X42250000Y-66250000D03*
X44250000Y-66250000D03*
X46250000Y-66250000D03*
X48250000Y-66250000D03*
X48250000Y-64250000D03*
X46250000Y-64250000D03*
X44250000Y-64250000D03*
X42250000Y-64250000D03*
X38250000Y-64250000D03*
X48250000Y-62250000D03*
X48250000Y-58250000D03*
X42250000Y-58250000D03*
X42250000Y-62250000D03*
X40250000Y-58250000D03*
X48250000Y-56250000D03*
X46250000Y-56250000D03*
X44250000Y-56250000D03*
X40250000Y-56250000D03*
X48250000Y-54250000D03*
X46250000Y-54250000D03*
X50250000Y-56250000D03*
X55250000Y-58250000D03*
X55250000Y-56250000D03*
X53250000Y-54250000D03*
X53250000Y-56250000D03*
X53250000Y-52250000D03*
X53250000Y-50250000D03*
X55250000Y-50250000D03*
X50250000Y-52250000D03*
X50250000Y-50250000D03*
X48250000Y-50250000D03*
X48250000Y-52250000D03*
X46250000Y-52250000D03*
X48250000Y-46250000D03*
X55250000Y-48250000D03*
X55250000Y-46250000D03*
X53250000Y-44250000D03*
X55250000Y-44250000D03*
X55250000Y-42250000D03*
X53250000Y-42250000D03*
X51250000Y-44250000D03*
X49250000Y-44250000D03*
X47250000Y-44250000D03*
X45250000Y-44250000D03*
X43250000Y-44250000D03*
X34250000Y-50250000D03*
X34250000Y-48250000D03*
X34250000Y-46250000D03*
X36250000Y-46250000D03*
X36250000Y-48250000D03*
X36250000Y-50250000D03*
X38250000Y-46250000D03*
X40250000Y-46250000D03*
X40250000Y-44250000D03*
X38250000Y-44250000D03*
X62000000Y-41900000D03*
X64000000Y-41900000D03*
X66000000Y-41900000D03*
X68000000Y-41900000D03*
X70000000Y-41900000D03*
X72000000Y-41900000D03*
X74000000Y-41900000D03*
X76000000Y-41900000D03*
X78000000Y-41900000D03*
X80000000Y-41900000D03*
X82000000Y-41900000D03*
X55250000Y-60250000D03*
X50250000Y-62250000D03*
X52250000Y-62250000D03*
X42250000Y-56250000D03*
X44250000Y-54250000D03*
X85750000Y-42500000D03*
X90750000Y-42500000D03*
X102250000Y-43750000D03*
X96250000Y-43750000D03*
D24*
X92500000Y-53500000D03*
D23*
X88880000Y-39560000D03*
X39350000Y-52260000D03*
X41200000Y-76060000D03*
X41170000Y-78440000D03*
%TO.N,Net-(M1-Pad2)*%
X103866000Y-71310000D03*
D24*
%TO.N,+12V*%
X35000000Y-60750000D03*
D23*
X40620000Y-80200000D03*
X52050000Y-72580000D03*
X84562000Y-63690000D03*
X90150000Y-74612000D03*
%TO.N,Net-(J7-Pad28)*%
X60000000Y-41900000D03*
%TO.N,Net-(J7-Pad27)*%
X58000000Y-41900000D03*
%TD*%
D25*
%TO.N,*%
X55787001Y-51712999D02*
X55250000Y-52250000D01*
X55787001Y-36618237D02*
X55787001Y-51712999D01*
X56792239Y-35612999D02*
X55787001Y-36618237D01*
X58327001Y-35612999D02*
X56792239Y-35612999D01*
X59830000Y-34110000D02*
X58327001Y-35612999D01*
X54750000Y-36650000D02*
X54750000Y-41972998D01*
X54750000Y-41972998D02*
X47724999Y-48997999D01*
X47724999Y-48997999D02*
X47724999Y-54502001D01*
X47724999Y-54502001D02*
X47997999Y-54775001D01*
X47997999Y-54775001D02*
X49724999Y-54775001D01*
X49724999Y-54775001D02*
X50250000Y-54250000D01*
X45649999Y-50850001D02*
X44250000Y-52250000D01*
X45649999Y-44627003D02*
X45649999Y-50850001D01*
X45775001Y-44502001D02*
X45649999Y-44627003D01*
X45775001Y-43552003D02*
X45775001Y-44502001D01*
X44724999Y-42502001D02*
X45775001Y-43552003D01*
X44724999Y-41805001D02*
X44724999Y-42502001D01*
X46970000Y-39560000D02*
X44724999Y-41805001D01*
X43461999Y-47750001D02*
X43149999Y-48062001D01*
X44038001Y-47750001D02*
X43461999Y-47750001D01*
X44350001Y-47438001D02*
X44038001Y-47750001D01*
X44350001Y-46861999D02*
X44350001Y-47438001D01*
X43149999Y-51600001D02*
X42250000Y-52500000D01*
X44324989Y-46836987D02*
X44350001Y-46861999D01*
X46092999Y-39871303D02*
X44324989Y-41639312D01*
X44324989Y-41639312D02*
X44324989Y-46836987D01*
X46092999Y-35147001D02*
X46092999Y-39871303D01*
X43149999Y-48062001D02*
X43149999Y-51600001D01*
X47130000Y-34110000D02*
X46092999Y-35147001D01*
X55250000Y-54250000D02*
X56187011Y-53312989D01*
X56187011Y-53312989D02*
X56187011Y-41772989D01*
X59830000Y-38130000D02*
X59830000Y-36650000D01*
X56187011Y-41772989D02*
X59830000Y-38130000D01*
X56187011Y-52089991D02*
X56187011Y-41772989D01*
X47832310Y-55175011D02*
X53101991Y-55175011D01*
X47324989Y-54667690D02*
X47832310Y-55175011D01*
X46850001Y-45427001D02*
X47324989Y-44952013D01*
X42574001Y-55175001D02*
X46850001Y-50899001D01*
X41925999Y-55175001D02*
X42574001Y-55175001D01*
X46850001Y-50899001D02*
X46850001Y-45427001D01*
X41574999Y-54824001D02*
X41925999Y-55175001D01*
X47324989Y-44952013D02*
X47324989Y-54667690D01*
X41574999Y-52175999D02*
X41574999Y-54824001D01*
X53101991Y-55175011D02*
X56187011Y-52089991D01*
X42749989Y-51001009D02*
X41574999Y-52175999D01*
X42749989Y-47262009D02*
X42749989Y-51001009D01*
X43924979Y-46087019D02*
X42749989Y-47262009D01*
X43924979Y-41064979D02*
X43924979Y-46087019D01*
X39510000Y-36650000D02*
X43924979Y-41064979D01*
X51250000Y-40538000D02*
X51250000Y-42250000D01*
X50272000Y-39560000D02*
X51250000Y-40538000D01*
D26*
%TO.N,/CTRL_L*%
X42040000Y-50020000D02*
X40560000Y-51500000D01*
X42040000Y-42250000D02*
X42040000Y-50020000D01*
D25*
X45866646Y-42044452D02*
X49621098Y-38290000D01*
X49621098Y-38290000D02*
X50780000Y-38290000D01*
%TO.N,/USR_LED_B*%
X92690000Y-42412998D02*
X92690000Y-43370000D01*
X91652001Y-41374999D02*
X92690000Y-42412998D01*
X75070000Y-36650000D02*
X79794999Y-41374999D01*
X79794999Y-41374999D02*
X91652001Y-41374999D01*
D26*
%TO.N,/CTRL_R*%
X97009998Y-42250000D02*
X97960000Y-42250000D01*
X90560000Y-48699998D02*
X90560000Y-51500000D01*
X97009998Y-42250000D02*
X90560000Y-48699998D01*
D25*
X95795001Y-40085001D02*
X97960000Y-42250000D01*
X83585001Y-40085001D02*
X95795001Y-40085001D01*
X80150000Y-36650000D02*
X83585001Y-40085001D01*
%TO.N,Net-(C11-Pad1)*%
X40620000Y-72580000D02*
X43160000Y-70040000D01*
X43160000Y-70040000D02*
X48240000Y-70040000D01*
D27*
%TO.N,+5V*%
X40620000Y-78930000D02*
X40620000Y-76390000D01*
D26*
X38080000Y-71310000D02*
X38080000Y-68770000D01*
X38080000Y-68770000D02*
X39350000Y-67500000D01*
D27*
X39350000Y-67500000D02*
X56310000Y-67500000D01*
X56310000Y-67500000D02*
X57050000Y-66760000D01*
%TO.N,/PWM_LED*%
X79990000Y-39560000D02*
X77610000Y-37180000D01*
X77610000Y-37180000D02*
X77610000Y-36650000D01*
X97548000Y-82362000D02*
X97548000Y-86804000D01*
X111740000Y-68170000D02*
X97548000Y-82362000D01*
%TO.N,/FAN_PIN*%
X89295001Y-38705001D02*
X88880000Y-38290000D01*
X103265001Y-38705001D02*
X89295001Y-38705001D01*
X106660000Y-42100000D02*
X103265001Y-38705001D01*
X104890000Y-68870000D02*
X106660000Y-67500000D01*
X106660000Y-67500000D02*
X106660000Y-42100000D01*
X105220000Y-73170000D02*
X104890000Y-68870000D01*
D28*
%TO.N,GND*%
X87770000Y-36650000D02*
X87770000Y-39400000D01*
X88880000Y-39560000D02*
X87930000Y-39560000D01*
X87930000Y-39560000D02*
X87770000Y-39400000D01*
D26*
X41200000Y-78410000D02*
X41170000Y-78440000D01*
X41200000Y-76060000D02*
X41200000Y-78410000D01*
D27*
%TO.N,Net-(M1-Pad2)*%
X101834000Y-73342000D02*
X103866000Y-71310000D01*
X84816000Y-73342000D02*
X101834000Y-73342000D01*
D28*
%TO.N,+12V*%
X83800000Y-61150000D02*
X83800000Y-44640000D01*
X83800000Y-62420000D02*
X83800000Y-61150000D01*
X57130000Y-43370000D02*
X57130000Y-61541765D01*
X82530000Y-43370000D02*
X57130000Y-43370000D01*
D27*
X53320000Y-73850000D02*
X52050000Y-72580000D01*
X53320000Y-78930000D02*
X53320000Y-73850000D01*
X50780000Y-81470000D02*
X53320000Y-78930000D01*
X41890000Y-81470000D02*
X50780000Y-81470000D01*
X40620000Y-80200000D02*
X41890000Y-81470000D01*
D28*
X83800000Y-44640000D02*
X82530000Y-43370000D01*
X55671766Y-63000000D02*
X56944883Y-61726883D01*
X37250000Y-63000000D02*
X55671766Y-63000000D01*
X35000000Y-60750000D02*
X37250000Y-63000000D01*
X56944883Y-61726883D02*
X55868520Y-62803245D01*
X57130000Y-61541765D02*
X56944883Y-61726883D01*
X83800000Y-62928000D02*
X84562000Y-63690000D01*
X83800000Y-62420000D02*
X83800000Y-62928000D01*
D27*
X90150000Y-76390000D02*
X90150000Y-83248000D01*
X90150000Y-74612000D02*
X90150000Y-76390000D01*
%TD*%
D29*
%TO.N,GND*%
X114383123Y-31801301D02*
X114820789Y-31935033D01*
X115224140Y-32151225D01*
X115577826Y-32441653D01*
X115868361Y-32795242D01*
X116084682Y-33198528D01*
X116218554Y-33636154D01*
X116267999Y-34122169D01*
X116268067Y-85278106D01*
X116220280Y-85765469D01*
X116088004Y-86203588D01*
X115873148Y-86607672D01*
X115583899Y-86962325D01*
X115231273Y-87254043D01*
X114828701Y-87471713D01*
X114391514Y-87607045D01*
X113906813Y-87657989D01*
X100445752Y-87653906D01*
X100503537Y-87583494D01*
X100562502Y-87473180D01*
X100598812Y-87353482D01*
X100611072Y-87229000D01*
X100608000Y-87089750D01*
X100449250Y-86931000D01*
X99675000Y-86931000D01*
X99675000Y-86951000D01*
X99591370Y-86951000D01*
X99600000Y-86907613D01*
X99600000Y-86700387D01*
X99559572Y-86497143D01*
X99480270Y-86305691D01*
X99421000Y-86216987D01*
X99421000Y-85902750D01*
X99675000Y-85902750D01*
X99675000Y-86677000D01*
X100449250Y-86677000D01*
X100608000Y-86518250D01*
X100611072Y-86379000D01*
X100598812Y-86254518D01*
X100562502Y-86134820D01*
X100503537Y-86024506D01*
X100424185Y-85927815D01*
X100327494Y-85848463D01*
X100217180Y-85789498D01*
X100097482Y-85753188D01*
X99973000Y-85740928D01*
X99833750Y-85744000D01*
X99675000Y-85902750D01*
X99421000Y-85902750D01*
X99262250Y-85744000D01*
X99123000Y-85740928D01*
X98998518Y-85753188D01*
X98878820Y-85789498D01*
X98865270Y-85796741D01*
X98854857Y-85792428D01*
X98651613Y-85752000D01*
X98444387Y-85752000D01*
X98325000Y-85775748D01*
X98325000Y-82683843D01*
X111995481Y-69013363D01*
X111995811Y-69013297D01*
X112155415Y-68947187D01*
X112299055Y-68851210D01*
X112421210Y-68729055D01*
X112517187Y-68585415D01*
X112583297Y-68425811D01*
X112617000Y-68256377D01*
X112617000Y-68083623D01*
X112583297Y-67914189D01*
X112517187Y-67754585D01*
X112421210Y-67610945D01*
X112299055Y-67488790D01*
X112155415Y-67392813D01*
X111995811Y-67326703D01*
X111826377Y-67293000D01*
X111653623Y-67293000D01*
X111484189Y-67326703D01*
X111324585Y-67392813D01*
X111180945Y-67488790D01*
X111058790Y-67610945D01*
X110962813Y-67754585D01*
X110896703Y-67914189D01*
X110896637Y-67914519D01*
X106014580Y-72796576D01*
X105997187Y-72754585D01*
X105963539Y-72704227D01*
X105696767Y-69228110D01*
X107083915Y-68154442D01*
X107093765Y-68149177D01*
X107144331Y-68107679D01*
X107165769Y-68091086D01*
X107173846Y-68083458D01*
X107212080Y-68052080D01*
X107229360Y-68031025D01*
X107249159Y-68012324D01*
X107277802Y-67971997D01*
X107309177Y-67933766D01*
X107322015Y-67909749D01*
X107337788Y-67887541D01*
X107358011Y-67842405D01*
X107381327Y-67798784D01*
X107389235Y-67772716D01*
X107400369Y-67747865D01*
X107411395Y-67699663D01*
X107425757Y-67652319D01*
X107428427Y-67625205D01*
X107434499Y-67598663D01*
X107435909Y-67549239D01*
X107437000Y-67538166D01*
X107437000Y-67511023D01*
X107438865Y-67445670D01*
X107437000Y-67434661D01*
X107437000Y-42138163D01*
X107440759Y-42100000D01*
X107435288Y-42044452D01*
X107425757Y-41947681D01*
X107381327Y-41801216D01*
X107346495Y-41736051D01*
X107309178Y-41666234D01*
X107236409Y-41577565D01*
X107236408Y-41577564D01*
X107212080Y-41547920D01*
X107182436Y-41523592D01*
X103841414Y-38182571D01*
X103817081Y-38152921D01*
X103698767Y-38055824D01*
X103563785Y-37983674D01*
X103417320Y-37939244D01*
X103303167Y-37928001D01*
X103303164Y-37928001D01*
X103265001Y-37924242D01*
X103226838Y-37928001D01*
X94807088Y-37928001D01*
X95194250Y-37540839D01*
X95558349Y-36995925D01*
X95809145Y-36390450D01*
X95937000Y-35747681D01*
X95937000Y-35092319D01*
X95809145Y-34449550D01*
X95558349Y-33844075D01*
X95194250Y-33299161D01*
X94730839Y-32835750D01*
X94185925Y-32471651D01*
X93580450Y-32220855D01*
X92937681Y-32093000D01*
X92282319Y-32093000D01*
X91639550Y-32220855D01*
X91034075Y-32471651D01*
X90489161Y-32835750D01*
X90025750Y-33299161D01*
X89661651Y-33844075D01*
X89549269Y-34115389D01*
X89510240Y-33919175D01*
X89398901Y-33650378D01*
X89237261Y-33408467D01*
X89031533Y-33202739D01*
X88789622Y-33041099D01*
X88520825Y-32929760D01*
X88235472Y-32873000D01*
X87944528Y-32873000D01*
X87659175Y-32929760D01*
X87390378Y-33041099D01*
X87148467Y-33202739D01*
X86942739Y-33408467D01*
X86820000Y-33592159D01*
X86697261Y-33408467D01*
X86491533Y-33202739D01*
X86249622Y-33041099D01*
X85980825Y-32929760D01*
X85695472Y-32873000D01*
X85404528Y-32873000D01*
X85119175Y-32929760D01*
X84850378Y-33041099D01*
X84608467Y-33202739D01*
X84402739Y-33408467D01*
X84280000Y-33592159D01*
X84157261Y-33408467D01*
X83951533Y-33202739D01*
X83709622Y-33041099D01*
X83440825Y-32929760D01*
X83155472Y-32873000D01*
X82864528Y-32873000D01*
X82579175Y-32929760D01*
X82310378Y-33041099D01*
X82068467Y-33202739D01*
X81862739Y-33408467D01*
X81740000Y-33592159D01*
X81617261Y-33408467D01*
X81411533Y-33202739D01*
X81169622Y-33041099D01*
X80900825Y-32929760D01*
X80615472Y-32873000D01*
X80324528Y-32873000D01*
X80039175Y-32929760D01*
X79770378Y-33041099D01*
X79528467Y-33202739D01*
X79322739Y-33408467D01*
X79200000Y-33592159D01*
X79077261Y-33408467D01*
X78871533Y-33202739D01*
X78629622Y-33041099D01*
X78360825Y-32929760D01*
X78075472Y-32873000D01*
X77784528Y-32873000D01*
X77499175Y-32929760D01*
X77230378Y-33041099D01*
X76988467Y-33202739D01*
X76782739Y-33408467D01*
X76660000Y-33592159D01*
X76537261Y-33408467D01*
X76331533Y-33202739D01*
X76089622Y-33041099D01*
X75820825Y-32929760D01*
X75535472Y-32873000D01*
X75244528Y-32873000D01*
X74959175Y-32929760D01*
X74690378Y-33041099D01*
X74448467Y-33202739D01*
X74242739Y-33408467D01*
X74120000Y-33592159D01*
X73997261Y-33408467D01*
X73791533Y-33202739D01*
X73549622Y-33041099D01*
X73280825Y-32929760D01*
X72995472Y-32873000D01*
X72704528Y-32873000D01*
X72419175Y-32929760D01*
X72150378Y-33041099D01*
X71908467Y-33202739D01*
X71702739Y-33408467D01*
X71580000Y-33592159D01*
X71457261Y-33408467D01*
X71251533Y-33202739D01*
X71009622Y-33041099D01*
X70740825Y-32929760D01*
X70455472Y-32873000D01*
X70164528Y-32873000D01*
X69879175Y-32929760D01*
X69610378Y-33041099D01*
X69368467Y-33202739D01*
X69162739Y-33408467D01*
X69040000Y-33592159D01*
X68917261Y-33408467D01*
X68711533Y-33202739D01*
X68469622Y-33041099D01*
X68200825Y-32929760D01*
X67915472Y-32873000D01*
X67624528Y-32873000D01*
X67339175Y-32929760D01*
X67070378Y-33041099D01*
X66828467Y-33202739D01*
X66622739Y-33408467D01*
X66500000Y-33592159D01*
X66377261Y-33408467D01*
X66171533Y-33202739D01*
X65929622Y-33041099D01*
X65660825Y-32929760D01*
X65375472Y-32873000D01*
X65084528Y-32873000D01*
X64799175Y-32929760D01*
X64530378Y-33041099D01*
X64288467Y-33202739D01*
X64082739Y-33408467D01*
X63960000Y-33592159D01*
X63837261Y-33408467D01*
X63631533Y-33202739D01*
X63389622Y-33041099D01*
X63120825Y-32929760D01*
X62835472Y-32873000D01*
X62544528Y-32873000D01*
X62259175Y-32929760D01*
X61990378Y-33041099D01*
X61748467Y-33202739D01*
X61542739Y-33408467D01*
X61420000Y-33592159D01*
X61297261Y-33408467D01*
X61091533Y-33202739D01*
X60849622Y-33041099D01*
X60580825Y-32929760D01*
X60295472Y-32873000D01*
X60004528Y-32873000D01*
X59719175Y-32929760D01*
X59450378Y-33041099D01*
X59208467Y-33202739D01*
X59002739Y-33408467D01*
X58880000Y-33592159D01*
X58757261Y-33408467D01*
X58551533Y-33202739D01*
X58309622Y-33041099D01*
X58040825Y-32929760D01*
X57755472Y-32873000D01*
X57464528Y-32873000D01*
X57179175Y-32929760D01*
X56910378Y-33041099D01*
X56668467Y-33202739D01*
X56462739Y-33408467D01*
X56340000Y-33592159D01*
X56217261Y-33408467D01*
X56011533Y-33202739D01*
X55769622Y-33041099D01*
X55500825Y-32929760D01*
X55215472Y-32873000D01*
X54924528Y-32873000D01*
X54639175Y-32929760D01*
X54370378Y-33041099D01*
X54128467Y-33202739D01*
X53922739Y-33408467D01*
X53800000Y-33592159D01*
X53677261Y-33408467D01*
X53471533Y-33202739D01*
X53229622Y-33041099D01*
X52960825Y-32929760D01*
X52675472Y-32873000D01*
X52384528Y-32873000D01*
X52099175Y-32929760D01*
X51830378Y-33041099D01*
X51588467Y-33202739D01*
X51382739Y-33408467D01*
X51260000Y-33592159D01*
X51137261Y-33408467D01*
X50931533Y-33202739D01*
X50689622Y-33041099D01*
X50420825Y-32929760D01*
X50135472Y-32873000D01*
X49844528Y-32873000D01*
X49559175Y-32929760D01*
X49290378Y-33041099D01*
X49048467Y-33202739D01*
X48842739Y-33408467D01*
X48720000Y-33592159D01*
X48597261Y-33408467D01*
X48391533Y-33202739D01*
X48149622Y-33041099D01*
X47880825Y-32929760D01*
X47595472Y-32873000D01*
X47304528Y-32873000D01*
X47019175Y-32929760D01*
X46750378Y-33041099D01*
X46508467Y-33202739D01*
X46302739Y-33408467D01*
X46180000Y-33592159D01*
X46057261Y-33408467D01*
X45851533Y-33202739D01*
X45609622Y-33041099D01*
X45340825Y-32929760D01*
X45055472Y-32873000D01*
X44764528Y-32873000D01*
X44479175Y-32929760D01*
X44210378Y-33041099D01*
X43968467Y-33202739D01*
X43762739Y-33408467D01*
X43640000Y-33592159D01*
X43517261Y-33408467D01*
X43311533Y-33202739D01*
X43069622Y-33041099D01*
X42800825Y-32929760D01*
X42515472Y-32873000D01*
X42224528Y-32873000D01*
X41939175Y-32929760D01*
X41670378Y-33041099D01*
X41428467Y-33202739D01*
X41222739Y-33408467D01*
X41100000Y-33592159D01*
X40977261Y-33408467D01*
X40771533Y-33202739D01*
X40529622Y-33041099D01*
X40260825Y-32929760D01*
X39975472Y-32873000D01*
X39684528Y-32873000D01*
X39399175Y-32929760D01*
X39130378Y-33041099D01*
X38888467Y-33202739D01*
X38682739Y-33408467D01*
X38521099Y-33650378D01*
X38409760Y-33919175D01*
X38353000Y-34204528D01*
X38353000Y-34495472D01*
X38409760Y-34780825D01*
X38521099Y-35049622D01*
X38682739Y-35291533D01*
X38823475Y-35432269D01*
X38738897Y-35457925D01*
X38629972Y-35516147D01*
X38534499Y-35594499D01*
X38456147Y-35689972D01*
X38397925Y-35798897D01*
X38362073Y-35917087D01*
X38349967Y-36040000D01*
X38349967Y-37740000D01*
X38362073Y-37862913D01*
X38397925Y-37981103D01*
X38456147Y-38090028D01*
X38534499Y-38185501D01*
X38629972Y-38263853D01*
X38738897Y-38322075D01*
X38857087Y-38357927D01*
X38980000Y-38370033D01*
X40166545Y-38370033D01*
X42736188Y-40939676D01*
X42470825Y-40829760D01*
X42185472Y-40773000D01*
X41894528Y-40773000D01*
X41609175Y-40829760D01*
X41340378Y-40941099D01*
X41098467Y-41102739D01*
X40892739Y-41308467D01*
X40863126Y-41352787D01*
X40802228Y-41238855D01*
X40671021Y-41078979D01*
X40511145Y-40947772D01*
X40328744Y-40850277D01*
X40130827Y-40790239D01*
X39925000Y-40769967D01*
X39075000Y-40769967D01*
X38869173Y-40790239D01*
X38671256Y-40850277D01*
X38488855Y-40947772D01*
X38328979Y-41078979D01*
X38197772Y-41238855D01*
X38100277Y-41421256D01*
X38040239Y-41619173D01*
X38019967Y-41825000D01*
X38019967Y-42675000D01*
X38040239Y-42880827D01*
X38100277Y-43078744D01*
X38197772Y-43261145D01*
X38328979Y-43421021D01*
X38488855Y-43552228D01*
X38671256Y-43649723D01*
X38869173Y-43709761D01*
X39075000Y-43730033D01*
X39925000Y-43730033D01*
X40130827Y-43709761D01*
X40328744Y-43649723D01*
X40511145Y-43552228D01*
X40671021Y-43421021D01*
X40802228Y-43261145D01*
X40863126Y-43147213D01*
X40892739Y-43191533D01*
X41098467Y-43397261D01*
X41313000Y-43540608D01*
X41313001Y-49718866D01*
X40392789Y-50639079D01*
X40304189Y-50656703D01*
X40144585Y-50722813D01*
X40000945Y-50818790D01*
X39878790Y-50940945D01*
X39782813Y-51084585D01*
X39716703Y-51244189D01*
X39683000Y-51413623D01*
X39683000Y-51586377D01*
X39716703Y-51755811D01*
X39782813Y-51915415D01*
X39878790Y-52059055D01*
X40000945Y-52181210D01*
X40144585Y-52277187D01*
X40304189Y-52343297D01*
X40473623Y-52377000D01*
X40646377Y-52377000D01*
X40815811Y-52343297D01*
X40822999Y-52340320D01*
X40823000Y-54787056D01*
X40819361Y-54824001D01*
X40828995Y-54921811D01*
X40833881Y-54971419D01*
X40844865Y-55007626D01*
X40876881Y-55113170D01*
X40946709Y-55243811D01*
X41011229Y-55322428D01*
X41040683Y-55358318D01*
X41069374Y-55381864D01*
X41368132Y-55680622D01*
X41391682Y-55709318D01*
X41506189Y-55803291D01*
X41636829Y-55873119D01*
X41778581Y-55916120D01*
X41889061Y-55927001D01*
X41889063Y-55927001D01*
X41925999Y-55930639D01*
X41962934Y-55927001D01*
X42537066Y-55927001D01*
X42574001Y-55930639D01*
X42610936Y-55927001D01*
X42610939Y-55927001D01*
X42721419Y-55916120D01*
X42863171Y-55873119D01*
X42993811Y-55803291D01*
X43108318Y-55709318D01*
X43131868Y-55680622D01*
X46572990Y-52239501D01*
X46572990Y-54630744D01*
X46569351Y-54667690D01*
X46583871Y-54815107D01*
X46626871Y-54956859D01*
X46696699Y-55087500D01*
X46731817Y-55130291D01*
X46790673Y-55202007D01*
X46819363Y-55225552D01*
X47274447Y-55680637D01*
X47297993Y-55709328D01*
X47326684Y-55732874D01*
X47412499Y-55803301D01*
X47482327Y-55840624D01*
X47543140Y-55873129D01*
X47684892Y-55916130D01*
X47795372Y-55927011D01*
X47795374Y-55927011D01*
X47832309Y-55930649D01*
X47869245Y-55927011D01*
X53065056Y-55927011D01*
X53101991Y-55930649D01*
X53138926Y-55927011D01*
X53138929Y-55927011D01*
X53249409Y-55916130D01*
X53391161Y-55873129D01*
X53521801Y-55803301D01*
X53636308Y-55709328D01*
X53659858Y-55680632D01*
X54553828Y-54786662D01*
X54568790Y-54809055D01*
X54690945Y-54931210D01*
X54834585Y-55027187D01*
X54994189Y-55093297D01*
X55163623Y-55127000D01*
X55336377Y-55127000D01*
X55505811Y-55093297D01*
X55665415Y-55027187D01*
X55809055Y-54931210D01*
X55931210Y-54809055D01*
X56027187Y-54665415D01*
X56093297Y-54505811D01*
X56102142Y-54461346D01*
X56253001Y-54310487D01*
X56253001Y-61178499D01*
X55771386Y-61660115D01*
X55308501Y-62123000D01*
X37613265Y-62123000D01*
X35999162Y-60508897D01*
X35987533Y-60450435D01*
X35910115Y-60263533D01*
X35797723Y-60095326D01*
X35654674Y-59952277D01*
X35486467Y-59839885D01*
X35299565Y-59762467D01*
X35101151Y-59723000D01*
X34898849Y-59723000D01*
X34700435Y-59762467D01*
X34513533Y-59839885D01*
X34345326Y-59952277D01*
X34202277Y-60095326D01*
X34089885Y-60263533D01*
X34012467Y-60450435D01*
X33973000Y-60648849D01*
X33973000Y-60851151D01*
X34012467Y-61049565D01*
X34089885Y-61236467D01*
X34202277Y-61404674D01*
X34345326Y-61547723D01*
X34513533Y-61660115D01*
X34700435Y-61737533D01*
X34758897Y-61749162D01*
X36599403Y-63589668D01*
X36626867Y-63623133D01*
X36708345Y-63690000D01*
X36760408Y-63732727D01*
X36912763Y-63814162D01*
X37078077Y-63864310D01*
X37250000Y-63881243D01*
X37293079Y-63877000D01*
X55628687Y-63877000D01*
X55671766Y-63881243D01*
X55714845Y-63877000D01*
X55843688Y-63864310D01*
X56009003Y-63814162D01*
X56161358Y-63732727D01*
X56294899Y-63623133D01*
X56322363Y-63589668D01*
X57595476Y-62316555D01*
X57595482Y-62316548D01*
X57719664Y-62192365D01*
X57753133Y-62164898D01*
X57862727Y-62031357D01*
X57944162Y-61879002D01*
X57994310Y-61713687D01*
X58007000Y-61584844D01*
X58007000Y-61584842D01*
X58011243Y-61541763D01*
X58007000Y-61498686D01*
X58007000Y-44247000D01*
X82166735Y-44247000D01*
X82923001Y-45003266D01*
X82923000Y-61193078D01*
X82923001Y-61193088D01*
X82923000Y-62376921D01*
X82923000Y-62884921D01*
X82918757Y-62928000D01*
X82923000Y-62971079D01*
X82935690Y-63099922D01*
X82985838Y-63265237D01*
X83005084Y-63301243D01*
X83067274Y-63417592D01*
X83149406Y-63517671D01*
X83149409Y-63517674D01*
X83176868Y-63551133D01*
X83210327Y-63578592D01*
X83972328Y-64340594D01*
X83972334Y-64340599D01*
X84002945Y-64371210D01*
X84038943Y-64395263D01*
X84072407Y-64422726D01*
X84110585Y-64443132D01*
X84146585Y-64467187D01*
X84186586Y-64483756D01*
X84224763Y-64504162D01*
X84266190Y-64516729D01*
X84306189Y-64533297D01*
X84348650Y-64541743D01*
X84390077Y-64554310D01*
X84433159Y-64558553D01*
X84475623Y-64567000D01*
X84518920Y-64567000D01*
X84562000Y-64571243D01*
X84605079Y-64567000D01*
X84648377Y-64567000D01*
X84690842Y-64558553D01*
X84733922Y-64554310D01*
X84775348Y-64541744D01*
X84817811Y-64533297D01*
X84857811Y-64516729D01*
X84899237Y-64504162D01*
X84937413Y-64483756D01*
X84977415Y-64467187D01*
X85013418Y-64443130D01*
X85051592Y-64422726D01*
X85085052Y-64395266D01*
X85121055Y-64371210D01*
X85151671Y-64340594D01*
X85185133Y-64313133D01*
X85212595Y-64279670D01*
X85243210Y-64249055D01*
X85267266Y-64213052D01*
X85294726Y-64179592D01*
X85315130Y-64141418D01*
X85339187Y-64105415D01*
X85355756Y-64065413D01*
X85376162Y-64027237D01*
X85388729Y-63985811D01*
X85405297Y-63945811D01*
X85413744Y-63903348D01*
X85426310Y-63861922D01*
X85430553Y-63818842D01*
X85439000Y-63776377D01*
X85439000Y-63733079D01*
X85443243Y-63690000D01*
X85439000Y-63646920D01*
X85439000Y-63603623D01*
X85430553Y-63561159D01*
X85426310Y-63518077D01*
X85413743Y-63476650D01*
X85405297Y-63434189D01*
X85388729Y-63394190D01*
X85376162Y-63352763D01*
X85355756Y-63314586D01*
X85339187Y-63274585D01*
X85315132Y-63238585D01*
X85294726Y-63200407D01*
X85267263Y-63166943D01*
X85243210Y-63130945D01*
X85212599Y-63100334D01*
X85212594Y-63100328D01*
X84677000Y-62564735D01*
X84677000Y-62163623D01*
X96873000Y-62163623D01*
X96873000Y-62336377D01*
X96906703Y-62505811D01*
X96972813Y-62665415D01*
X97068790Y-62809055D01*
X97190945Y-62931210D01*
X97334585Y-63027187D01*
X97494189Y-63093297D01*
X97663623Y-63127000D01*
X97836377Y-63127000D01*
X98005811Y-63093297D01*
X98165415Y-63027187D01*
X98309055Y-62931210D01*
X98431210Y-62809055D01*
X98527187Y-62665415D01*
X98593297Y-62505811D01*
X98627000Y-62336377D01*
X98627000Y-62163623D01*
X98593297Y-61994189D01*
X98527187Y-61834585D01*
X98431210Y-61690945D01*
X98309055Y-61568790D01*
X98165415Y-61472813D01*
X98005811Y-61406703D01*
X97836377Y-61373000D01*
X97663623Y-61373000D01*
X97494189Y-61406703D01*
X97334585Y-61472813D01*
X97190945Y-61568790D01*
X97068790Y-61690945D01*
X96972813Y-61834585D01*
X96906703Y-61994189D01*
X96873000Y-62163623D01*
X84677000Y-62163623D01*
X84677000Y-44683069D01*
X84681242Y-44639999D01*
X84677000Y-44596930D01*
X84677000Y-44596921D01*
X84664310Y-44468078D01*
X84614162Y-44302763D01*
X84532727Y-44150408D01*
X84423133Y-44016867D01*
X84389668Y-43989403D01*
X83180597Y-42780332D01*
X83153133Y-42746867D01*
X83019592Y-42637273D01*
X82867237Y-42555838D01*
X82701922Y-42505690D01*
X82573079Y-42493000D01*
X82530000Y-42488757D01*
X82486921Y-42493000D01*
X60647265Y-42493000D01*
X60681210Y-42459055D01*
X60777187Y-42315415D01*
X60843297Y-42155811D01*
X60877000Y-41986377D01*
X60877000Y-41813623D01*
X60843297Y-41644189D01*
X60777187Y-41484585D01*
X60681210Y-41340945D01*
X60559055Y-41218790D01*
X60415415Y-41122813D01*
X60255811Y-41056703D01*
X60086377Y-41023000D01*
X59913623Y-41023000D01*
X59744189Y-41056703D01*
X59584585Y-41122813D01*
X59440945Y-41218790D01*
X59318790Y-41340945D01*
X59222813Y-41484585D01*
X59156703Y-41644189D01*
X59123000Y-41813623D01*
X59123000Y-41986377D01*
X59156703Y-42155811D01*
X59222813Y-42315415D01*
X59318790Y-42459055D01*
X59352735Y-42493000D01*
X58647265Y-42493000D01*
X58681210Y-42459055D01*
X58777187Y-42315415D01*
X58843297Y-42155811D01*
X58877000Y-41986377D01*
X58877000Y-41813623D01*
X58843297Y-41644189D01*
X58777187Y-41484585D01*
X58681210Y-41340945D01*
X58559055Y-41218790D01*
X58415415Y-41122813D01*
X58255811Y-41056703D01*
X58086377Y-41023000D01*
X58000488Y-41023000D01*
X60335627Y-38687862D01*
X60364317Y-38664317D01*
X60426306Y-38588783D01*
X60458290Y-38549811D01*
X60528117Y-38419171D01*
X60528118Y-38419170D01*
X60559900Y-38314402D01*
X60580825Y-38310240D01*
X60849622Y-38198901D01*
X61091533Y-38037261D01*
X61297261Y-37831533D01*
X61420000Y-37647841D01*
X61542739Y-37831533D01*
X61748467Y-38037261D01*
X61990378Y-38198901D01*
X62259175Y-38310240D01*
X62544528Y-38367000D01*
X62835472Y-38367000D01*
X63120825Y-38310240D01*
X63389622Y-38198901D01*
X63631533Y-38037261D01*
X63837261Y-37831533D01*
X63960000Y-37647841D01*
X64082739Y-37831533D01*
X64288467Y-38037261D01*
X64530378Y-38198901D01*
X64799175Y-38310240D01*
X65084528Y-38367000D01*
X65375472Y-38367000D01*
X65660825Y-38310240D01*
X65929622Y-38198901D01*
X66171533Y-38037261D01*
X66377261Y-37831533D01*
X66500000Y-37647841D01*
X66622739Y-37831533D01*
X66828467Y-38037261D01*
X67070378Y-38198901D01*
X67339175Y-38310240D01*
X67624528Y-38367000D01*
X67915472Y-38367000D01*
X68200825Y-38310240D01*
X68469622Y-38198901D01*
X68711533Y-38037261D01*
X68917261Y-37831533D01*
X69040660Y-37646853D01*
X69114822Y-37771355D01*
X69309731Y-37987588D01*
X69543080Y-38161641D01*
X69805901Y-38286825D01*
X69953110Y-38331476D01*
X70183000Y-38210155D01*
X70183000Y-37017000D01*
X70163000Y-37017000D01*
X70163000Y-36763000D01*
X70183000Y-36763000D01*
X70183000Y-36743000D01*
X70437000Y-36743000D01*
X70437000Y-36763000D01*
X70457000Y-36763000D01*
X70457000Y-37017000D01*
X70437000Y-37017000D01*
X70437000Y-38210155D01*
X70666890Y-38331476D01*
X70814099Y-38286825D01*
X71076920Y-38161641D01*
X71310269Y-37987588D01*
X71505178Y-37771355D01*
X71579340Y-37646853D01*
X71702739Y-37831533D01*
X71908467Y-38037261D01*
X72150378Y-38198901D01*
X72419175Y-38310240D01*
X72704528Y-38367000D01*
X72995472Y-38367000D01*
X73280825Y-38310240D01*
X73549622Y-38198901D01*
X73791533Y-38037261D01*
X73997261Y-37831533D01*
X74120000Y-37647841D01*
X74242739Y-37831533D01*
X74448467Y-38037261D01*
X74690378Y-38198901D01*
X74959175Y-38310240D01*
X75244528Y-38367000D01*
X75535472Y-38367000D01*
X75692314Y-38335802D01*
X79237132Y-41880620D01*
X79260682Y-41909316D01*
X79375189Y-42003289D01*
X79505829Y-42073117D01*
X79647581Y-42116118D01*
X79758061Y-42126999D01*
X79758063Y-42126999D01*
X79794999Y-42130637D01*
X79831934Y-42126999D01*
X91340513Y-42126999D01*
X91938000Y-42724487D01*
X91938001Y-42916889D01*
X91912813Y-42954585D01*
X91846703Y-43114189D01*
X91813000Y-43283623D01*
X91813000Y-43456377D01*
X91846703Y-43625811D01*
X91912813Y-43785415D01*
X92008790Y-43929055D01*
X92130945Y-44051210D01*
X92274585Y-44147187D01*
X92434189Y-44213297D01*
X92603623Y-44247000D01*
X92776377Y-44247000D01*
X92945811Y-44213297D01*
X93105415Y-44147187D01*
X93249055Y-44051210D01*
X93371210Y-43929055D01*
X93467187Y-43785415D01*
X93533297Y-43625811D01*
X93567000Y-43456377D01*
X93567000Y-43283623D01*
X93533297Y-43114189D01*
X93467187Y-42954585D01*
X93442000Y-42916890D01*
X93442000Y-42449933D01*
X93445638Y-42412997D01*
X93438195Y-42337429D01*
X93431119Y-42265580D01*
X93388118Y-42123828D01*
X93327242Y-42009936D01*
X93318290Y-41993187D01*
X93247863Y-41907372D01*
X93224317Y-41878681D01*
X93195627Y-41855136D01*
X92209868Y-40869378D01*
X92186318Y-40840682D01*
X92181833Y-40837001D01*
X95483513Y-40837001D01*
X96439188Y-41792676D01*
X90071189Y-48160677D01*
X90043446Y-48183445D01*
X89960663Y-48284318D01*
X89952598Y-48294145D01*
X89885090Y-48420442D01*
X89843520Y-48557481D01*
X89829483Y-48699998D01*
X89833000Y-48735706D01*
X89833001Y-51009473D01*
X89782813Y-51084585D01*
X89716703Y-51244189D01*
X89683000Y-51413623D01*
X89683000Y-51586377D01*
X89716703Y-51755811D01*
X89782813Y-51915415D01*
X89878790Y-52059055D01*
X90000945Y-52181210D01*
X90144585Y-52277187D01*
X90304189Y-52343297D01*
X90473623Y-52377000D01*
X90646377Y-52377000D01*
X90815811Y-52343297D01*
X90975415Y-52277187D01*
X91119055Y-52181210D01*
X91241210Y-52059055D01*
X91337187Y-51915415D01*
X91403297Y-51755811D01*
X91437000Y-51586377D01*
X91437000Y-51413623D01*
X91403297Y-51244189D01*
X91337187Y-51084585D01*
X91287000Y-51009475D01*
X91287000Y-49001130D01*
X96954669Y-43333463D01*
X97018467Y-43397261D01*
X97260378Y-43558901D01*
X97529175Y-43670240D01*
X97814528Y-43727000D01*
X98105472Y-43727000D01*
X98390825Y-43670240D01*
X98659622Y-43558901D01*
X98901533Y-43397261D01*
X99107261Y-43191533D01*
X99136874Y-43147213D01*
X99197772Y-43261145D01*
X99328979Y-43421021D01*
X99488855Y-43552228D01*
X99671256Y-43649723D01*
X99869173Y-43709761D01*
X100075000Y-43730033D01*
X100925000Y-43730033D01*
X101130827Y-43709761D01*
X101328744Y-43649723D01*
X101511145Y-43552228D01*
X101671021Y-43421021D01*
X101802228Y-43261145D01*
X101899723Y-43078744D01*
X101959761Y-42880827D01*
X101980033Y-42675000D01*
X101980033Y-41825000D01*
X101959761Y-41619173D01*
X101899723Y-41421256D01*
X101802228Y-41238855D01*
X101671021Y-41078979D01*
X101511145Y-40947772D01*
X101328744Y-40850277D01*
X101130827Y-40790239D01*
X100925000Y-40769967D01*
X100075000Y-40769967D01*
X99869173Y-40790239D01*
X99671256Y-40850277D01*
X99488855Y-40947772D01*
X99328979Y-41078979D01*
X99197772Y-41238855D01*
X99136874Y-41352787D01*
X99107261Y-41308467D01*
X98901533Y-41102739D01*
X98659622Y-40941099D01*
X98390825Y-40829760D01*
X98105472Y-40773000D01*
X97814528Y-40773000D01*
X97590959Y-40817470D01*
X96352868Y-39579380D01*
X96329318Y-39550684D01*
X96245627Y-39482001D01*
X102943158Y-39482001D01*
X105883001Y-42421845D01*
X105883000Y-67118849D01*
X104442454Y-68233850D01*
X104407832Y-68255918D01*
X104354492Y-68307004D01*
X104300841Y-68357677D01*
X104299264Y-68359897D01*
X104297294Y-68361784D01*
X104254967Y-68422264D01*
X104212212Y-68482460D01*
X104211096Y-68484950D01*
X104209535Y-68487181D01*
X104179829Y-68554737D01*
X104149631Y-68622136D01*
X104149023Y-68624793D01*
X104147926Y-68627288D01*
X104131962Y-68699376D01*
X104115500Y-68771338D01*
X104115422Y-68774062D01*
X104114833Y-68776723D01*
X104113239Y-68850601D01*
X104111135Y-68924330D01*
X104117991Y-68964802D01*
X104236912Y-70514379D01*
X104121811Y-70466703D01*
X103952377Y-70433000D01*
X103779623Y-70433000D01*
X103610189Y-70466703D01*
X103450585Y-70532813D01*
X103306945Y-70628790D01*
X103184790Y-70750945D01*
X103088813Y-70894585D01*
X103022703Y-71054189D01*
X103022637Y-71054519D01*
X101512157Y-72565000D01*
X86239160Y-72565000D01*
X86183160Y-72460231D01*
X85985779Y-72219721D01*
X85805780Y-72072000D01*
X85985779Y-71924279D01*
X86183160Y-71683769D01*
X86329828Y-71409373D01*
X86420146Y-71111636D01*
X86450642Y-70802000D01*
X86420146Y-70492364D01*
X86329828Y-70194627D01*
X86183160Y-69920231D01*
X85985779Y-69679721D01*
X85745269Y-69482340D01*
X85470873Y-69335672D01*
X85173136Y-69245354D01*
X84941092Y-69222500D01*
X84690908Y-69222500D01*
X84458864Y-69245354D01*
X84161127Y-69335672D01*
X83886731Y-69482340D01*
X83646221Y-69679721D01*
X83448840Y-69920231D01*
X83302172Y-70194627D01*
X83211854Y-70492364D01*
X83181358Y-70802000D01*
X83211854Y-71111636D01*
X83302172Y-71409373D01*
X83448840Y-71683769D01*
X83646221Y-71924279D01*
X83826220Y-72072000D01*
X83646221Y-72219721D01*
X83448840Y-72460231D01*
X83302172Y-72734627D01*
X83211854Y-73032364D01*
X83181358Y-73342000D01*
X83211854Y-73651636D01*
X83302172Y-73949373D01*
X83448840Y-74223769D01*
X83557815Y-74356556D01*
X83465972Y-74405647D01*
X83370499Y-74483999D01*
X83292147Y-74579472D01*
X83233925Y-74688397D01*
X83198073Y-74806587D01*
X83185967Y-74929500D01*
X83185967Y-76834500D01*
X83198073Y-76957413D01*
X83233925Y-77075603D01*
X83292147Y-77184528D01*
X83370499Y-77280001D01*
X83465972Y-77358353D01*
X83574897Y-77416575D01*
X83693087Y-77452427D01*
X83816000Y-77464533D01*
X85816000Y-77464533D01*
X85938913Y-77452427D01*
X86057103Y-77416575D01*
X86166028Y-77358353D01*
X86261501Y-77280001D01*
X86339853Y-77184528D01*
X86398075Y-77075603D01*
X86433927Y-76957413D01*
X86446033Y-76834500D01*
X86446033Y-74929500D01*
X86433927Y-74806587D01*
X86398075Y-74688397D01*
X86339853Y-74579472D01*
X86261501Y-74483999D01*
X86166028Y-74405647D01*
X86074185Y-74356556D01*
X86183160Y-74223769D01*
X86239160Y-74119000D01*
X89424654Y-74119000D01*
X89372813Y-74196585D01*
X89306703Y-74356189D01*
X89273000Y-74525623D01*
X89273000Y-74698377D01*
X89306703Y-74867811D01*
X89372813Y-75027415D01*
X89373000Y-75027695D01*
X89373001Y-76351825D01*
X89373000Y-76351835D01*
X89373001Y-81792967D01*
X89325000Y-81792967D01*
X89202087Y-81805073D01*
X89083897Y-81840925D01*
X88974972Y-81899147D01*
X88879499Y-81977499D01*
X88801147Y-82072972D01*
X88742925Y-82181897D01*
X88707073Y-82300087D01*
X88694967Y-82423000D01*
X88694967Y-84073000D01*
X88707073Y-84195913D01*
X88742925Y-84314103D01*
X88801147Y-84423028D01*
X88879499Y-84518501D01*
X88974972Y-84596853D01*
X89083897Y-84655075D01*
X89202087Y-84690927D01*
X89325000Y-84703033D01*
X90975000Y-84703033D01*
X91097913Y-84690927D01*
X91216103Y-84655075D01*
X91325028Y-84596853D01*
X91420501Y-84518501D01*
X91498853Y-84423028D01*
X91557075Y-84314103D01*
X91592927Y-84195913D01*
X91605033Y-84073000D01*
X91605033Y-82423000D01*
X91592927Y-82300087D01*
X91557075Y-82181897D01*
X91498853Y-82072972D01*
X91420501Y-81977499D01*
X91325028Y-81899147D01*
X91216103Y-81840925D01*
X91097913Y-81805073D01*
X90975000Y-81792967D01*
X90927000Y-81792967D01*
X90927000Y-75027695D01*
X90927187Y-75027415D01*
X90993297Y-74867811D01*
X91027000Y-74698377D01*
X91027000Y-74525623D01*
X90993297Y-74356189D01*
X90927187Y-74196585D01*
X90875346Y-74119000D01*
X101795837Y-74119000D01*
X101834000Y-74122759D01*
X101872163Y-74119000D01*
X101872166Y-74119000D01*
X101986319Y-74107757D01*
X102132784Y-74063327D01*
X102267766Y-73991177D01*
X102386080Y-73894080D01*
X102410412Y-73864431D01*
X104121481Y-72153363D01*
X104121811Y-72153297D01*
X104281415Y-72087187D01*
X104353899Y-72038755D01*
X104414146Y-72823793D01*
X104376703Y-72914189D01*
X104343000Y-73083623D01*
X104343000Y-73256377D01*
X104376703Y-73425811D01*
X104442813Y-73585415D01*
X104538790Y-73729055D01*
X104660945Y-73851210D01*
X104804585Y-73947187D01*
X104846576Y-73964580D01*
X97025570Y-81785587D01*
X96995920Y-81809920D01*
X96948644Y-81867527D01*
X96898823Y-81928234D01*
X96865313Y-81990927D01*
X96826673Y-82063217D01*
X96782243Y-82209682D01*
X96773339Y-82300087D01*
X96767241Y-82362000D01*
X96771000Y-82400163D01*
X96771001Y-86093246D01*
X96730858Y-86133389D01*
X96615730Y-86305691D01*
X96536428Y-86497143D01*
X96496000Y-86700387D01*
X96496000Y-86907613D01*
X96536428Y-87110857D01*
X96615730Y-87302309D01*
X96730858Y-87474611D01*
X96877389Y-87621142D01*
X96924825Y-87652838D01*
X96118480Y-87652593D01*
X96178853Y-87579028D01*
X96237075Y-87470103D01*
X96272927Y-87351913D01*
X96285033Y-87229000D01*
X96285033Y-86379000D01*
X96272927Y-86256087D01*
X96237075Y-86137897D01*
X96178853Y-86028972D01*
X96100501Y-85933499D01*
X96005028Y-85855147D01*
X95896103Y-85796925D01*
X95777913Y-85761073D01*
X95655000Y-85748967D01*
X94805000Y-85748967D01*
X94682087Y-85761073D01*
X94563897Y-85796925D01*
X94561873Y-85798007D01*
X94555250Y-85795128D01*
X94520062Y-85784460D01*
X94357000Y-85911743D01*
X94357000Y-85936544D01*
X94281147Y-86028972D01*
X94222925Y-86137897D01*
X94187073Y-86256087D01*
X94174967Y-86379000D01*
X94174967Y-86951000D01*
X94103000Y-86951000D01*
X94103000Y-86931000D01*
X93336379Y-86931000D01*
X93210453Y-87094064D01*
X93286632Y-87287394D01*
X93399064Y-87462148D01*
X93543429Y-87611609D01*
X93601420Y-87651829D01*
X81632302Y-87648199D01*
X81632827Y-86513936D01*
X93210453Y-86513936D01*
X93336379Y-86677000D01*
X94103000Y-86677000D01*
X94103000Y-85911743D01*
X93939938Y-85784460D01*
X93904750Y-85795128D01*
X93714178Y-85877966D01*
X93543429Y-85996391D01*
X93399064Y-86145852D01*
X93286632Y-86320606D01*
X93210453Y-86513936D01*
X81632827Y-86513936D01*
X81633872Y-84258551D01*
X84239054Y-84258551D01*
X84313663Y-84505073D01*
X84573439Y-84628473D01*
X84852297Y-84698823D01*
X85139521Y-84713417D01*
X85424074Y-84671697D01*
X85695020Y-84575265D01*
X85826337Y-84505073D01*
X85900946Y-84258551D01*
X85070000Y-83427605D01*
X84239054Y-84258551D01*
X81633872Y-84258551D01*
X81634308Y-83317521D01*
X83604583Y-83317521D01*
X83646303Y-83602074D01*
X83742735Y-83873020D01*
X83812927Y-84004337D01*
X84059449Y-84078946D01*
X84890395Y-83248000D01*
X85249605Y-83248000D01*
X86080551Y-84078946D01*
X86327073Y-84004337D01*
X86450473Y-83744561D01*
X86520823Y-83465703D01*
X86535417Y-83178479D01*
X86493697Y-82893926D01*
X86397265Y-82622980D01*
X86327073Y-82491663D01*
X86080551Y-82417054D01*
X85249605Y-83248000D01*
X84890395Y-83248000D01*
X84059449Y-82417054D01*
X83812927Y-82491663D01*
X83689527Y-82751439D01*
X83619177Y-83030297D01*
X83604583Y-83317521D01*
X81634308Y-83317521D01*
X81634808Y-82237449D01*
X84239054Y-82237449D01*
X85070000Y-83068395D01*
X85900946Y-82237449D01*
X85826337Y-81990927D01*
X85566561Y-81867527D01*
X85287703Y-81797177D01*
X85000479Y-81782583D01*
X84715926Y-81824303D01*
X84444980Y-81920735D01*
X84313663Y-81990927D01*
X84239054Y-82237449D01*
X81634808Y-82237449D01*
X81651984Y-45172318D01*
X81655153Y-45140296D01*
X81650745Y-45095330D01*
X81642624Y-45012484D01*
X81605399Y-44889564D01*
X81605100Y-44889003D01*
X81593086Y-44866503D01*
X81544909Y-44776269D01*
X81544905Y-44776263D01*
X81503766Y-44726088D01*
X81463478Y-44676951D01*
X81463475Y-44676949D01*
X81463473Y-44676946D01*
X81402674Y-44627003D01*
X81364236Y-44595428D01*
X81364230Y-44595424D01*
X81328970Y-44576557D01*
X81250997Y-44534833D01*
X81128111Y-44497494D01*
X81128105Y-44497493D01*
X81128104Y-44497493D01*
X81102984Y-44495007D01*
X81000303Y-44484846D01*
X80968272Y-44487986D01*
X58952326Y-44478015D01*
X58920303Y-44474846D01*
X58792484Y-44487376D01*
X58669564Y-44524601D01*
X58556269Y-44585091D01*
X58556263Y-44585095D01*
X58543661Y-44595428D01*
X58456951Y-44666522D01*
X58456949Y-44666525D01*
X58456946Y-44666527D01*
X58416991Y-44715167D01*
X58375428Y-44765764D01*
X58375424Y-44765770D01*
X58314831Y-44879009D01*
X58277493Y-45001895D01*
X58273049Y-45046813D01*
X58268015Y-45097676D01*
X58268015Y-45097686D01*
X58264847Y-45129704D01*
X58267985Y-45161716D01*
X58248302Y-87688000D01*
X35234293Y-87688000D01*
X35580450Y-87619145D01*
X36185925Y-87368349D01*
X36730839Y-87004250D01*
X37194250Y-86540839D01*
X37558349Y-85995925D01*
X37809145Y-85390450D01*
X37937000Y-84747681D01*
X37937000Y-84092319D01*
X37809145Y-83449550D01*
X37558349Y-82844075D01*
X37194250Y-82299161D01*
X36730839Y-81835750D01*
X36185925Y-81471651D01*
X35580450Y-81220855D01*
X34937681Y-81093000D01*
X34282319Y-81093000D01*
X33639550Y-81220855D01*
X33034075Y-81471651D01*
X32489161Y-81835750D01*
X32025750Y-82299161D01*
X31661651Y-82844075D01*
X31612000Y-82963943D01*
X31612000Y-76303623D01*
X39743000Y-76303623D01*
X39743000Y-76476377D01*
X39776703Y-76645811D01*
X39842813Y-76805415D01*
X39843001Y-76805696D01*
X39843000Y-78514305D01*
X39842813Y-78514585D01*
X39776703Y-78674189D01*
X39743000Y-78843623D01*
X39743000Y-79016377D01*
X39776703Y-79185811D01*
X39842813Y-79345415D01*
X39938790Y-79489055D01*
X40014735Y-79565000D01*
X39938790Y-79640945D01*
X39842813Y-79784585D01*
X39776703Y-79944189D01*
X39743000Y-80113623D01*
X39743000Y-80286377D01*
X39776703Y-80455811D01*
X39842813Y-80615415D01*
X39938790Y-80759055D01*
X40060945Y-80881210D01*
X40204585Y-80977187D01*
X40364189Y-81043297D01*
X40364519Y-81043363D01*
X41313592Y-81992436D01*
X41337920Y-82022080D01*
X41367564Y-82046408D01*
X41367565Y-82046409D01*
X41456233Y-82119177D01*
X41573574Y-82181897D01*
X41591216Y-82191327D01*
X41737681Y-82235757D01*
X41851834Y-82247000D01*
X41851843Y-82247000D01*
X41889999Y-82250758D01*
X41928155Y-82247000D01*
X50741837Y-82247000D01*
X50780000Y-82250759D01*
X50818163Y-82247000D01*
X50818166Y-82247000D01*
X50932319Y-82235757D01*
X51078784Y-82191327D01*
X51213766Y-82119177D01*
X51332080Y-82022080D01*
X51356413Y-81992431D01*
X53842437Y-79506407D01*
X53872080Y-79482080D01*
X53920719Y-79422813D01*
X53969177Y-79363767D01*
X54041327Y-79228784D01*
X54054363Y-79185811D01*
X54085757Y-79082319D01*
X54097000Y-78968166D01*
X54097000Y-78968157D01*
X54100758Y-78930001D01*
X54097000Y-78891845D01*
X54097000Y-73888155D01*
X54100758Y-73849999D01*
X54097000Y-73811843D01*
X54097000Y-73811834D01*
X54085757Y-73697681D01*
X54041327Y-73551216D01*
X53990967Y-73457000D01*
X53969177Y-73416233D01*
X53896409Y-73327565D01*
X53896408Y-73327564D01*
X53872080Y-73297920D01*
X53842436Y-73273592D01*
X52893363Y-72324519D01*
X52893297Y-72324189D01*
X52827187Y-72164585D01*
X52731210Y-72020945D01*
X52609055Y-71898790D01*
X52465415Y-71802813D01*
X52305811Y-71736703D01*
X52136377Y-71703000D01*
X51963623Y-71703000D01*
X51794189Y-71736703D01*
X51634585Y-71802813D01*
X51490945Y-71898790D01*
X51368790Y-72020945D01*
X51272813Y-72164585D01*
X51206703Y-72324189D01*
X51173000Y-72493623D01*
X51173000Y-72666377D01*
X51206703Y-72835811D01*
X51272813Y-72995415D01*
X51368790Y-73139055D01*
X51490945Y-73261210D01*
X51634585Y-73357187D01*
X51794189Y-73423297D01*
X51794519Y-73423363D01*
X52543001Y-74171845D01*
X52543000Y-78608156D01*
X50458157Y-80693000D01*
X42211844Y-80693000D01*
X41463363Y-79944519D01*
X41463297Y-79944189D01*
X41397187Y-79784585D01*
X41301210Y-79640945D01*
X41225265Y-79565000D01*
X41301210Y-79489055D01*
X41397187Y-79345415D01*
X41463297Y-79185811D01*
X41497000Y-79016377D01*
X41497000Y-78843623D01*
X41463297Y-78674189D01*
X41397187Y-78514585D01*
X41397000Y-78514305D01*
X41397000Y-76805695D01*
X41397187Y-76805415D01*
X41463297Y-76645811D01*
X41497000Y-76476377D01*
X41497000Y-76303623D01*
X41463297Y-76134189D01*
X41397187Y-75974585D01*
X41301210Y-75830945D01*
X41179055Y-75708790D01*
X41035415Y-75612813D01*
X40875811Y-75546703D01*
X40706377Y-75513000D01*
X40533623Y-75513000D01*
X40364189Y-75546703D01*
X40204585Y-75612813D01*
X40060945Y-75708790D01*
X39938790Y-75830945D01*
X39842813Y-75974585D01*
X39776703Y-76134189D01*
X39743000Y-76303623D01*
X31612000Y-76303623D01*
X31612000Y-72302702D01*
X34766903Y-72302702D01*
X34838486Y-72546671D01*
X35093996Y-72667571D01*
X35368184Y-72736300D01*
X35650512Y-72750217D01*
X35930130Y-72708787D01*
X36196292Y-72613603D01*
X36321514Y-72546671D01*
X36393097Y-72302702D01*
X35580000Y-71489605D01*
X34766903Y-72302702D01*
X31612000Y-72302702D01*
X31612000Y-71380512D01*
X34139783Y-71380512D01*
X34181213Y-71660130D01*
X34276397Y-71926292D01*
X34343329Y-72051514D01*
X34587298Y-72123097D01*
X35400395Y-71310000D01*
X35759605Y-71310000D01*
X36572702Y-72123097D01*
X36649967Y-72100427D01*
X36649967Y-72110000D01*
X36662073Y-72232913D01*
X36697925Y-72351103D01*
X36756147Y-72460028D01*
X36834499Y-72555501D01*
X36929972Y-72633853D01*
X37038897Y-72692075D01*
X37157087Y-72727927D01*
X37280000Y-72740033D01*
X38880000Y-72740033D01*
X39002913Y-72727927D01*
X39121103Y-72692075D01*
X39230028Y-72633853D01*
X39325501Y-72555501D01*
X39376282Y-72493623D01*
X39743000Y-72493623D01*
X39743000Y-72666377D01*
X39776703Y-72835811D01*
X39842813Y-72995415D01*
X39938790Y-73139055D01*
X40060945Y-73261210D01*
X40204585Y-73357187D01*
X40364189Y-73423297D01*
X40533623Y-73457000D01*
X40706377Y-73457000D01*
X40875811Y-73423297D01*
X41035415Y-73357187D01*
X41179055Y-73261210D01*
X41301210Y-73139055D01*
X41397187Y-72995415D01*
X41463297Y-72835811D01*
X41472142Y-72791346D01*
X43471489Y-70792000D01*
X47786890Y-70792000D01*
X47824585Y-70817187D01*
X47984189Y-70883297D01*
X48153623Y-70917000D01*
X48326377Y-70917000D01*
X48495811Y-70883297D01*
X48655415Y-70817187D01*
X48799055Y-70721210D01*
X48921210Y-70599055D01*
X49017187Y-70455415D01*
X49083297Y-70295811D01*
X49117000Y-70126377D01*
X49117000Y-69953623D01*
X49083297Y-69784189D01*
X49017187Y-69624585D01*
X48921210Y-69480945D01*
X48799055Y-69358790D01*
X48655415Y-69262813D01*
X48495811Y-69196703D01*
X48326377Y-69163000D01*
X48153623Y-69163000D01*
X47984189Y-69196703D01*
X47824585Y-69262813D01*
X47786890Y-69288000D01*
X43196935Y-69288000D01*
X43159999Y-69284362D01*
X43123064Y-69288000D01*
X43123062Y-69288000D01*
X43012582Y-69298881D01*
X42870830Y-69341882D01*
X42810017Y-69374387D01*
X42740189Y-69411710D01*
X42699735Y-69444910D01*
X42625683Y-69505683D01*
X42602137Y-69534374D01*
X40408654Y-71727858D01*
X40364189Y-71736703D01*
X40204585Y-71802813D01*
X40060945Y-71898790D01*
X39938790Y-72020945D01*
X39842813Y-72164585D01*
X39776703Y-72324189D01*
X39743000Y-72493623D01*
X39376282Y-72493623D01*
X39403853Y-72460028D01*
X39462075Y-72351103D01*
X39497927Y-72232913D01*
X39510033Y-72110000D01*
X39510033Y-70510000D01*
X39497927Y-70387087D01*
X39462075Y-70268897D01*
X39403853Y-70159972D01*
X39325501Y-70064499D01*
X39230028Y-69986147D01*
X39121103Y-69927925D01*
X39002913Y-69892073D01*
X38880000Y-69879967D01*
X38807000Y-69879967D01*
X38807000Y-69071132D01*
X39517212Y-68360921D01*
X39605811Y-68343297D01*
X39765415Y-68277187D01*
X39765695Y-68277000D01*
X56271837Y-68277000D01*
X56310000Y-68280759D01*
X56348163Y-68277000D01*
X56348166Y-68277000D01*
X56462319Y-68265757D01*
X56608784Y-68221327D01*
X56743766Y-68149177D01*
X56862080Y-68052080D01*
X56886412Y-68022431D01*
X57305481Y-67603363D01*
X57305811Y-67603297D01*
X57465415Y-67537187D01*
X57609055Y-67441210D01*
X57731210Y-67319055D01*
X57827187Y-67175415D01*
X57893297Y-67015811D01*
X57927000Y-66846377D01*
X57927000Y-66673623D01*
X57893297Y-66504189D01*
X57827187Y-66344585D01*
X57731210Y-66200945D01*
X57609055Y-66078790D01*
X57465415Y-65982813D01*
X57305811Y-65916703D01*
X57136377Y-65883000D01*
X56963623Y-65883000D01*
X56794189Y-65916703D01*
X56634585Y-65982813D01*
X56490945Y-66078790D01*
X56368790Y-66200945D01*
X56272813Y-66344585D01*
X56206703Y-66504189D01*
X56206637Y-66504519D01*
X55988157Y-66723000D01*
X39765695Y-66723000D01*
X39765415Y-66722813D01*
X39605811Y-66656703D01*
X39436377Y-66623000D01*
X39263623Y-66623000D01*
X39094189Y-66656703D01*
X38934585Y-66722813D01*
X38790945Y-66818790D01*
X38668790Y-66940945D01*
X38572813Y-67084585D01*
X38506703Y-67244189D01*
X38489079Y-67332788D01*
X37591189Y-68230679D01*
X37563447Y-68253446D01*
X37506925Y-68322319D01*
X37472598Y-68364147D01*
X37405090Y-68490444D01*
X37363520Y-68627483D01*
X37349483Y-68770000D01*
X37353001Y-68805718D01*
X37353001Y-69879967D01*
X37280000Y-69879967D01*
X37157087Y-69892073D01*
X37038897Y-69927925D01*
X36929972Y-69986147D01*
X36834499Y-70064499D01*
X36756147Y-70159972D01*
X36697925Y-70268897D01*
X36662073Y-70387087D01*
X36649967Y-70510000D01*
X36649967Y-70519573D01*
X36572702Y-70496903D01*
X35759605Y-71310000D01*
X35400395Y-71310000D01*
X34587298Y-70496903D01*
X34343329Y-70568486D01*
X34222429Y-70823996D01*
X34153700Y-71098184D01*
X34139783Y-71380512D01*
X31612000Y-71380512D01*
X31612000Y-70317298D01*
X34766903Y-70317298D01*
X35580000Y-71130395D01*
X36393097Y-70317298D01*
X36321514Y-70073329D01*
X36066004Y-69952429D01*
X35791816Y-69883700D01*
X35509488Y-69869783D01*
X35229870Y-69911213D01*
X34963708Y-70006397D01*
X34838486Y-70073329D01*
X34766903Y-70317298D01*
X31612000Y-70317298D01*
X31612000Y-36876057D01*
X31661651Y-36995925D01*
X32025750Y-37540839D01*
X32489161Y-38004250D01*
X33034075Y-38368349D01*
X33639550Y-38619145D01*
X34282319Y-38747000D01*
X34937681Y-38747000D01*
X35580450Y-38619145D01*
X36185925Y-38368349D01*
X36730839Y-38004250D01*
X37194250Y-37540839D01*
X37558349Y-36995925D01*
X37809145Y-36390450D01*
X37937000Y-35747681D01*
X37937000Y-35092319D01*
X37809145Y-34449550D01*
X37558349Y-33844075D01*
X37194250Y-33299161D01*
X36730839Y-32835750D01*
X36185925Y-32471651D01*
X35580450Y-32220855D01*
X34937681Y-32093000D01*
X34282319Y-32093000D01*
X33639550Y-32220855D01*
X33034075Y-32471651D01*
X32489161Y-32835750D01*
X32025750Y-33299161D01*
X31661651Y-33844075D01*
X31637428Y-33902555D01*
X31659785Y-33674544D01*
X31792056Y-33236439D01*
X32006905Y-32832367D01*
X32296147Y-32477721D01*
X32648764Y-32186011D01*
X33051325Y-31968348D01*
X33488499Y-31833019D01*
X33973976Y-31781994D01*
X113897130Y-31752012D01*
X114383123Y-31801301D01*
%TA.AperFunction,Conductor*%
D30*
G36*
X114383123Y-31801301D02*
G01*
X114820789Y-31935033D01*
X115224140Y-32151225D01*
X115577826Y-32441653D01*
X115868361Y-32795242D01*
X116084682Y-33198528D01*
X116218554Y-33636154D01*
X116267999Y-34122169D01*
X116268067Y-85278106D01*
X116220280Y-85765469D01*
X116088004Y-86203588D01*
X115873148Y-86607672D01*
X115583899Y-86962325D01*
X115231273Y-87254043D01*
X114828701Y-87471713D01*
X114391514Y-87607045D01*
X113906813Y-87657989D01*
X100445752Y-87653906D01*
X100503537Y-87583494D01*
X100562502Y-87473180D01*
X100598812Y-87353482D01*
X100611072Y-87229000D01*
X100608000Y-87089750D01*
X100449250Y-86931000D01*
X99675000Y-86931000D01*
X99675000Y-86951000D01*
X99591370Y-86951000D01*
X99600000Y-86907613D01*
X99600000Y-86700387D01*
X99559572Y-86497143D01*
X99480270Y-86305691D01*
X99421000Y-86216987D01*
X99421000Y-85902750D01*
X99675000Y-85902750D01*
X99675000Y-86677000D01*
X100449250Y-86677000D01*
X100608000Y-86518250D01*
X100611072Y-86379000D01*
X100598812Y-86254518D01*
X100562502Y-86134820D01*
X100503537Y-86024506D01*
X100424185Y-85927815D01*
X100327494Y-85848463D01*
X100217180Y-85789498D01*
X100097482Y-85753188D01*
X99973000Y-85740928D01*
X99833750Y-85744000D01*
X99675000Y-85902750D01*
X99421000Y-85902750D01*
X99262250Y-85744000D01*
X99123000Y-85740928D01*
X98998518Y-85753188D01*
X98878820Y-85789498D01*
X98865270Y-85796741D01*
X98854857Y-85792428D01*
X98651613Y-85752000D01*
X98444387Y-85752000D01*
X98325000Y-85775748D01*
X98325000Y-82683843D01*
X111995481Y-69013363D01*
X111995811Y-69013297D01*
X112155415Y-68947187D01*
X112299055Y-68851210D01*
X112421210Y-68729055D01*
X112517187Y-68585415D01*
X112583297Y-68425811D01*
X112617000Y-68256377D01*
X112617000Y-68083623D01*
X112583297Y-67914189D01*
X112517187Y-67754585D01*
X112421210Y-67610945D01*
X112299055Y-67488790D01*
X112155415Y-67392813D01*
X111995811Y-67326703D01*
X111826377Y-67293000D01*
X111653623Y-67293000D01*
X111484189Y-67326703D01*
X111324585Y-67392813D01*
X111180945Y-67488790D01*
X111058790Y-67610945D01*
X110962813Y-67754585D01*
X110896703Y-67914189D01*
X110896637Y-67914519D01*
X106014580Y-72796576D01*
X105997187Y-72754585D01*
X105963539Y-72704227D01*
X105696767Y-69228110D01*
X107083915Y-68154442D01*
X107093765Y-68149177D01*
X107144331Y-68107679D01*
X107165769Y-68091086D01*
X107173846Y-68083458D01*
X107212080Y-68052080D01*
X107229360Y-68031025D01*
X107249159Y-68012324D01*
X107277802Y-67971997D01*
X107309177Y-67933766D01*
X107322015Y-67909749D01*
X107337788Y-67887541D01*
X107358011Y-67842405D01*
X107381327Y-67798784D01*
X107389235Y-67772716D01*
X107400369Y-67747865D01*
X107411395Y-67699663D01*
X107425757Y-67652319D01*
X107428427Y-67625205D01*
X107434499Y-67598663D01*
X107435909Y-67549239D01*
X107437000Y-67538166D01*
X107437000Y-67511023D01*
X107438865Y-67445670D01*
X107437000Y-67434661D01*
X107437000Y-42138163D01*
X107440759Y-42100000D01*
X107435288Y-42044452D01*
X107425757Y-41947681D01*
X107381327Y-41801216D01*
X107346495Y-41736051D01*
X107309178Y-41666234D01*
X107236409Y-41577565D01*
X107236408Y-41577564D01*
X107212080Y-41547920D01*
X107182436Y-41523592D01*
X103841414Y-38182571D01*
X103817081Y-38152921D01*
X103698767Y-38055824D01*
X103563785Y-37983674D01*
X103417320Y-37939244D01*
X103303167Y-37928001D01*
X103303164Y-37928001D01*
X103265001Y-37924242D01*
X103226838Y-37928001D01*
X94807088Y-37928001D01*
X95194250Y-37540839D01*
X95558349Y-36995925D01*
X95809145Y-36390450D01*
X95937000Y-35747681D01*
X95937000Y-35092319D01*
X95809145Y-34449550D01*
X95558349Y-33844075D01*
X95194250Y-33299161D01*
X94730839Y-32835750D01*
X94185925Y-32471651D01*
X93580450Y-32220855D01*
X92937681Y-32093000D01*
X92282319Y-32093000D01*
X91639550Y-32220855D01*
X91034075Y-32471651D01*
X90489161Y-32835750D01*
X90025750Y-33299161D01*
X89661651Y-33844075D01*
X89549269Y-34115389D01*
X89510240Y-33919175D01*
X89398901Y-33650378D01*
X89237261Y-33408467D01*
X89031533Y-33202739D01*
X88789622Y-33041099D01*
X88520825Y-32929760D01*
X88235472Y-32873000D01*
X87944528Y-32873000D01*
X87659175Y-32929760D01*
X87390378Y-33041099D01*
X87148467Y-33202739D01*
X86942739Y-33408467D01*
X86820000Y-33592159D01*
X86697261Y-33408467D01*
X86491533Y-33202739D01*
X86249622Y-33041099D01*
X85980825Y-32929760D01*
X85695472Y-32873000D01*
X85404528Y-32873000D01*
X85119175Y-32929760D01*
X84850378Y-33041099D01*
X84608467Y-33202739D01*
X84402739Y-33408467D01*
X84280000Y-33592159D01*
X84157261Y-33408467D01*
X83951533Y-33202739D01*
X83709622Y-33041099D01*
X83440825Y-32929760D01*
X83155472Y-32873000D01*
X82864528Y-32873000D01*
X82579175Y-32929760D01*
X82310378Y-33041099D01*
X82068467Y-33202739D01*
X81862739Y-33408467D01*
X81740000Y-33592159D01*
X81617261Y-33408467D01*
X81411533Y-33202739D01*
X81169622Y-33041099D01*
X80900825Y-32929760D01*
X80615472Y-32873000D01*
X80324528Y-32873000D01*
X80039175Y-32929760D01*
X79770378Y-33041099D01*
X79528467Y-33202739D01*
X79322739Y-33408467D01*
X79200000Y-33592159D01*
X79077261Y-33408467D01*
X78871533Y-33202739D01*
X78629622Y-33041099D01*
X78360825Y-32929760D01*
X78075472Y-32873000D01*
X77784528Y-32873000D01*
X77499175Y-32929760D01*
X77230378Y-33041099D01*
X76988467Y-33202739D01*
X76782739Y-33408467D01*
X76660000Y-33592159D01*
X76537261Y-33408467D01*
X76331533Y-33202739D01*
X76089622Y-33041099D01*
X75820825Y-32929760D01*
X75535472Y-32873000D01*
X75244528Y-32873000D01*
X74959175Y-32929760D01*
X74690378Y-33041099D01*
X74448467Y-33202739D01*
X74242739Y-33408467D01*
X74120000Y-33592159D01*
X73997261Y-33408467D01*
X73791533Y-33202739D01*
X73549622Y-33041099D01*
X73280825Y-32929760D01*
X72995472Y-32873000D01*
X72704528Y-32873000D01*
X72419175Y-32929760D01*
X72150378Y-33041099D01*
X71908467Y-33202739D01*
X71702739Y-33408467D01*
X71580000Y-33592159D01*
X71457261Y-33408467D01*
X71251533Y-33202739D01*
X71009622Y-33041099D01*
X70740825Y-32929760D01*
X70455472Y-32873000D01*
X70164528Y-32873000D01*
X69879175Y-32929760D01*
X69610378Y-33041099D01*
X69368467Y-33202739D01*
X69162739Y-33408467D01*
X69040000Y-33592159D01*
X68917261Y-33408467D01*
X68711533Y-33202739D01*
X68469622Y-33041099D01*
X68200825Y-32929760D01*
X67915472Y-32873000D01*
X67624528Y-32873000D01*
X67339175Y-32929760D01*
X67070378Y-33041099D01*
X66828467Y-33202739D01*
X66622739Y-33408467D01*
X66500000Y-33592159D01*
X66377261Y-33408467D01*
X66171533Y-33202739D01*
X65929622Y-33041099D01*
X65660825Y-32929760D01*
X65375472Y-32873000D01*
X65084528Y-32873000D01*
X64799175Y-32929760D01*
X64530378Y-33041099D01*
X64288467Y-33202739D01*
X64082739Y-33408467D01*
X63960000Y-33592159D01*
X63837261Y-33408467D01*
X63631533Y-33202739D01*
X63389622Y-33041099D01*
X63120825Y-32929760D01*
X62835472Y-32873000D01*
X62544528Y-32873000D01*
X62259175Y-32929760D01*
X61990378Y-33041099D01*
X61748467Y-33202739D01*
X61542739Y-33408467D01*
X61420000Y-33592159D01*
X61297261Y-33408467D01*
X61091533Y-33202739D01*
X60849622Y-33041099D01*
X60580825Y-32929760D01*
X60295472Y-32873000D01*
X60004528Y-32873000D01*
X59719175Y-32929760D01*
X59450378Y-33041099D01*
X59208467Y-33202739D01*
X59002739Y-33408467D01*
X58880000Y-33592159D01*
X58757261Y-33408467D01*
X58551533Y-33202739D01*
X58309622Y-33041099D01*
X58040825Y-32929760D01*
X57755472Y-32873000D01*
X57464528Y-32873000D01*
X57179175Y-32929760D01*
X56910378Y-33041099D01*
X56668467Y-33202739D01*
X56462739Y-33408467D01*
X56340000Y-33592159D01*
X56217261Y-33408467D01*
X56011533Y-33202739D01*
X55769622Y-33041099D01*
X55500825Y-32929760D01*
X55215472Y-32873000D01*
X54924528Y-32873000D01*
X54639175Y-32929760D01*
X54370378Y-33041099D01*
X54128467Y-33202739D01*
X53922739Y-33408467D01*
X53800000Y-33592159D01*
X53677261Y-33408467D01*
X53471533Y-33202739D01*
X53229622Y-33041099D01*
X52960825Y-32929760D01*
X52675472Y-32873000D01*
X52384528Y-32873000D01*
X52099175Y-32929760D01*
X51830378Y-33041099D01*
X51588467Y-33202739D01*
X51382739Y-33408467D01*
X51260000Y-33592159D01*
X51137261Y-33408467D01*
X50931533Y-33202739D01*
X50689622Y-33041099D01*
X50420825Y-32929760D01*
X50135472Y-32873000D01*
X49844528Y-32873000D01*
X49559175Y-32929760D01*
X49290378Y-33041099D01*
X49048467Y-33202739D01*
X48842739Y-33408467D01*
X48720000Y-33592159D01*
X48597261Y-33408467D01*
X48391533Y-33202739D01*
X48149622Y-33041099D01*
X47880825Y-32929760D01*
X47595472Y-32873000D01*
X47304528Y-32873000D01*
X47019175Y-32929760D01*
X46750378Y-33041099D01*
X46508467Y-33202739D01*
X46302739Y-33408467D01*
X46180000Y-33592159D01*
X46057261Y-33408467D01*
X45851533Y-33202739D01*
X45609622Y-33041099D01*
X45340825Y-32929760D01*
X45055472Y-32873000D01*
X44764528Y-32873000D01*
X44479175Y-32929760D01*
X44210378Y-33041099D01*
X43968467Y-33202739D01*
X43762739Y-33408467D01*
X43640000Y-33592159D01*
X43517261Y-33408467D01*
X43311533Y-33202739D01*
X43069622Y-33041099D01*
X42800825Y-32929760D01*
X42515472Y-32873000D01*
X42224528Y-32873000D01*
X41939175Y-32929760D01*
X41670378Y-33041099D01*
X41428467Y-33202739D01*
X41222739Y-33408467D01*
X41100000Y-33592159D01*
X40977261Y-33408467D01*
X40771533Y-33202739D01*
X40529622Y-33041099D01*
X40260825Y-32929760D01*
X39975472Y-32873000D01*
X39684528Y-32873000D01*
X39399175Y-32929760D01*
X39130378Y-33041099D01*
X38888467Y-33202739D01*
X38682739Y-33408467D01*
X38521099Y-33650378D01*
X38409760Y-33919175D01*
X38353000Y-34204528D01*
X38353000Y-34495472D01*
X38409760Y-34780825D01*
X38521099Y-35049622D01*
X38682739Y-35291533D01*
X38823475Y-35432269D01*
X38738897Y-35457925D01*
X38629972Y-35516147D01*
X38534499Y-35594499D01*
X38456147Y-35689972D01*
X38397925Y-35798897D01*
X38362073Y-35917087D01*
X38349967Y-36040000D01*
X38349967Y-37740000D01*
X38362073Y-37862913D01*
X38397925Y-37981103D01*
X38456147Y-38090028D01*
X38534499Y-38185501D01*
X38629972Y-38263853D01*
X38738897Y-38322075D01*
X38857087Y-38357927D01*
X38980000Y-38370033D01*
X40166545Y-38370033D01*
X42736188Y-40939676D01*
X42470825Y-40829760D01*
X42185472Y-40773000D01*
X41894528Y-40773000D01*
X41609175Y-40829760D01*
X41340378Y-40941099D01*
X41098467Y-41102739D01*
X40892739Y-41308467D01*
X40863126Y-41352787D01*
X40802228Y-41238855D01*
X40671021Y-41078979D01*
X40511145Y-40947772D01*
X40328744Y-40850277D01*
X40130827Y-40790239D01*
X39925000Y-40769967D01*
X39075000Y-40769967D01*
X38869173Y-40790239D01*
X38671256Y-40850277D01*
X38488855Y-40947772D01*
X38328979Y-41078979D01*
X38197772Y-41238855D01*
X38100277Y-41421256D01*
X38040239Y-41619173D01*
X38019967Y-41825000D01*
X38019967Y-42675000D01*
X38040239Y-42880827D01*
X38100277Y-43078744D01*
X38197772Y-43261145D01*
X38328979Y-43421021D01*
X38488855Y-43552228D01*
X38671256Y-43649723D01*
X38869173Y-43709761D01*
X39075000Y-43730033D01*
X39925000Y-43730033D01*
X40130827Y-43709761D01*
X40328744Y-43649723D01*
X40511145Y-43552228D01*
X40671021Y-43421021D01*
X40802228Y-43261145D01*
X40863126Y-43147213D01*
X40892739Y-43191533D01*
X41098467Y-43397261D01*
X41313000Y-43540608D01*
X41313001Y-49718866D01*
X40392789Y-50639079D01*
X40304189Y-50656703D01*
X40144585Y-50722813D01*
X40000945Y-50818790D01*
X39878790Y-50940945D01*
X39782813Y-51084585D01*
X39716703Y-51244189D01*
X39683000Y-51413623D01*
X39683000Y-51586377D01*
X39716703Y-51755811D01*
X39782813Y-51915415D01*
X39878790Y-52059055D01*
X40000945Y-52181210D01*
X40144585Y-52277187D01*
X40304189Y-52343297D01*
X40473623Y-52377000D01*
X40646377Y-52377000D01*
X40815811Y-52343297D01*
X40822999Y-52340320D01*
X40823000Y-54787056D01*
X40819361Y-54824001D01*
X40828995Y-54921811D01*
X40833881Y-54971419D01*
X40844865Y-55007626D01*
X40876881Y-55113170D01*
X40946709Y-55243811D01*
X41011229Y-55322428D01*
X41040683Y-55358318D01*
X41069374Y-55381864D01*
X41368132Y-55680622D01*
X41391682Y-55709318D01*
X41506189Y-55803291D01*
X41636829Y-55873119D01*
X41778581Y-55916120D01*
X41889061Y-55927001D01*
X41889063Y-55927001D01*
X41925999Y-55930639D01*
X41962934Y-55927001D01*
X42537066Y-55927001D01*
X42574001Y-55930639D01*
X42610936Y-55927001D01*
X42610939Y-55927001D01*
X42721419Y-55916120D01*
X42863171Y-55873119D01*
X42993811Y-55803291D01*
X43108318Y-55709318D01*
X43131868Y-55680622D01*
X46572990Y-52239501D01*
X46572990Y-54630744D01*
X46569351Y-54667690D01*
X46583871Y-54815107D01*
X46626871Y-54956859D01*
X46696699Y-55087500D01*
X46731817Y-55130291D01*
X46790673Y-55202007D01*
X46819363Y-55225552D01*
X47274447Y-55680637D01*
X47297993Y-55709328D01*
X47326684Y-55732874D01*
X47412499Y-55803301D01*
X47482327Y-55840624D01*
X47543140Y-55873129D01*
X47684892Y-55916130D01*
X47795372Y-55927011D01*
X47795374Y-55927011D01*
X47832309Y-55930649D01*
X47869245Y-55927011D01*
X53065056Y-55927011D01*
X53101991Y-55930649D01*
X53138926Y-55927011D01*
X53138929Y-55927011D01*
X53249409Y-55916130D01*
X53391161Y-55873129D01*
X53521801Y-55803301D01*
X53636308Y-55709328D01*
X53659858Y-55680632D01*
X54553828Y-54786662D01*
X54568790Y-54809055D01*
X54690945Y-54931210D01*
X54834585Y-55027187D01*
X54994189Y-55093297D01*
X55163623Y-55127000D01*
X55336377Y-55127000D01*
X55505811Y-55093297D01*
X55665415Y-55027187D01*
X55809055Y-54931210D01*
X55931210Y-54809055D01*
X56027187Y-54665415D01*
X56093297Y-54505811D01*
X56102142Y-54461346D01*
X56253001Y-54310487D01*
X56253001Y-61178499D01*
X55771386Y-61660115D01*
X55308501Y-62123000D01*
X37613265Y-62123000D01*
X35999162Y-60508897D01*
X35987533Y-60450435D01*
X35910115Y-60263533D01*
X35797723Y-60095326D01*
X35654674Y-59952277D01*
X35486467Y-59839885D01*
X35299565Y-59762467D01*
X35101151Y-59723000D01*
X34898849Y-59723000D01*
X34700435Y-59762467D01*
X34513533Y-59839885D01*
X34345326Y-59952277D01*
X34202277Y-60095326D01*
X34089885Y-60263533D01*
X34012467Y-60450435D01*
X33973000Y-60648849D01*
X33973000Y-60851151D01*
X34012467Y-61049565D01*
X34089885Y-61236467D01*
X34202277Y-61404674D01*
X34345326Y-61547723D01*
X34513533Y-61660115D01*
X34700435Y-61737533D01*
X34758897Y-61749162D01*
X36599403Y-63589668D01*
X36626867Y-63623133D01*
X36708345Y-63690000D01*
X36760408Y-63732727D01*
X36912763Y-63814162D01*
X37078077Y-63864310D01*
X37250000Y-63881243D01*
X37293079Y-63877000D01*
X55628687Y-63877000D01*
X55671766Y-63881243D01*
X55714845Y-63877000D01*
X55843688Y-63864310D01*
X56009003Y-63814162D01*
X56161358Y-63732727D01*
X56294899Y-63623133D01*
X56322363Y-63589668D01*
X57595476Y-62316555D01*
X57595482Y-62316548D01*
X57719664Y-62192365D01*
X57753133Y-62164898D01*
X57862727Y-62031357D01*
X57944162Y-61879002D01*
X57994310Y-61713687D01*
X58007000Y-61584844D01*
X58007000Y-61584842D01*
X58011243Y-61541763D01*
X58007000Y-61498686D01*
X58007000Y-44247000D01*
X82166735Y-44247000D01*
X82923001Y-45003266D01*
X82923000Y-61193078D01*
X82923001Y-61193088D01*
X82923000Y-62376921D01*
X82923000Y-62884921D01*
X82918757Y-62928000D01*
X82923000Y-62971079D01*
X82935690Y-63099922D01*
X82985838Y-63265237D01*
X83005084Y-63301243D01*
X83067274Y-63417592D01*
X83149406Y-63517671D01*
X83149409Y-63517674D01*
X83176868Y-63551133D01*
X83210327Y-63578592D01*
X83972328Y-64340594D01*
X83972334Y-64340599D01*
X84002945Y-64371210D01*
X84038943Y-64395263D01*
X84072407Y-64422726D01*
X84110585Y-64443132D01*
X84146585Y-64467187D01*
X84186586Y-64483756D01*
X84224763Y-64504162D01*
X84266190Y-64516729D01*
X84306189Y-64533297D01*
X84348650Y-64541743D01*
X84390077Y-64554310D01*
X84433159Y-64558553D01*
X84475623Y-64567000D01*
X84518920Y-64567000D01*
X84562000Y-64571243D01*
X84605079Y-64567000D01*
X84648377Y-64567000D01*
X84690842Y-64558553D01*
X84733922Y-64554310D01*
X84775348Y-64541744D01*
X84817811Y-64533297D01*
X84857811Y-64516729D01*
X84899237Y-64504162D01*
X84937413Y-64483756D01*
X84977415Y-64467187D01*
X85013418Y-64443130D01*
X85051592Y-64422726D01*
X85085052Y-64395266D01*
X85121055Y-64371210D01*
X85151671Y-64340594D01*
X85185133Y-64313133D01*
X85212595Y-64279670D01*
X85243210Y-64249055D01*
X85267266Y-64213052D01*
X85294726Y-64179592D01*
X85315130Y-64141418D01*
X85339187Y-64105415D01*
X85355756Y-64065413D01*
X85376162Y-64027237D01*
X85388729Y-63985811D01*
X85405297Y-63945811D01*
X85413744Y-63903348D01*
X85426310Y-63861922D01*
X85430553Y-63818842D01*
X85439000Y-63776377D01*
X85439000Y-63733079D01*
X85443243Y-63690000D01*
X85439000Y-63646920D01*
X85439000Y-63603623D01*
X85430553Y-63561159D01*
X85426310Y-63518077D01*
X85413743Y-63476650D01*
X85405297Y-63434189D01*
X85388729Y-63394190D01*
X85376162Y-63352763D01*
X85355756Y-63314586D01*
X85339187Y-63274585D01*
X85315132Y-63238585D01*
X85294726Y-63200407D01*
X85267263Y-63166943D01*
X85243210Y-63130945D01*
X85212599Y-63100334D01*
X85212594Y-63100328D01*
X84677000Y-62564735D01*
X84677000Y-62163623D01*
X96873000Y-62163623D01*
X96873000Y-62336377D01*
X96906703Y-62505811D01*
X96972813Y-62665415D01*
X97068790Y-62809055D01*
X97190945Y-62931210D01*
X97334585Y-63027187D01*
X97494189Y-63093297D01*
X97663623Y-63127000D01*
X97836377Y-63127000D01*
X98005811Y-63093297D01*
X98165415Y-63027187D01*
X98309055Y-62931210D01*
X98431210Y-62809055D01*
X98527187Y-62665415D01*
X98593297Y-62505811D01*
X98627000Y-62336377D01*
X98627000Y-62163623D01*
X98593297Y-61994189D01*
X98527187Y-61834585D01*
X98431210Y-61690945D01*
X98309055Y-61568790D01*
X98165415Y-61472813D01*
X98005811Y-61406703D01*
X97836377Y-61373000D01*
X97663623Y-61373000D01*
X97494189Y-61406703D01*
X97334585Y-61472813D01*
X97190945Y-61568790D01*
X97068790Y-61690945D01*
X96972813Y-61834585D01*
X96906703Y-61994189D01*
X96873000Y-62163623D01*
X84677000Y-62163623D01*
X84677000Y-44683069D01*
X84681242Y-44639999D01*
X84677000Y-44596930D01*
X84677000Y-44596921D01*
X84664310Y-44468078D01*
X84614162Y-44302763D01*
X84532727Y-44150408D01*
X84423133Y-44016867D01*
X84389668Y-43989403D01*
X83180597Y-42780332D01*
X83153133Y-42746867D01*
X83019592Y-42637273D01*
X82867237Y-42555838D01*
X82701922Y-42505690D01*
X82573079Y-42493000D01*
X82530000Y-42488757D01*
X82486921Y-42493000D01*
X60647265Y-42493000D01*
X60681210Y-42459055D01*
X60777187Y-42315415D01*
X60843297Y-42155811D01*
X60877000Y-41986377D01*
X60877000Y-41813623D01*
X60843297Y-41644189D01*
X60777187Y-41484585D01*
X60681210Y-41340945D01*
X60559055Y-41218790D01*
X60415415Y-41122813D01*
X60255811Y-41056703D01*
X60086377Y-41023000D01*
X59913623Y-41023000D01*
X59744189Y-41056703D01*
X59584585Y-41122813D01*
X59440945Y-41218790D01*
X59318790Y-41340945D01*
X59222813Y-41484585D01*
X59156703Y-41644189D01*
X59123000Y-41813623D01*
X59123000Y-41986377D01*
X59156703Y-42155811D01*
X59222813Y-42315415D01*
X59318790Y-42459055D01*
X59352735Y-42493000D01*
X58647265Y-42493000D01*
X58681210Y-42459055D01*
X58777187Y-42315415D01*
X58843297Y-42155811D01*
X58877000Y-41986377D01*
X58877000Y-41813623D01*
X58843297Y-41644189D01*
X58777187Y-41484585D01*
X58681210Y-41340945D01*
X58559055Y-41218790D01*
X58415415Y-41122813D01*
X58255811Y-41056703D01*
X58086377Y-41023000D01*
X58000488Y-41023000D01*
X60335627Y-38687862D01*
X60364317Y-38664317D01*
X60426306Y-38588783D01*
X60458290Y-38549811D01*
X60528117Y-38419171D01*
X60528118Y-38419170D01*
X60559900Y-38314402D01*
X60580825Y-38310240D01*
X60849622Y-38198901D01*
X61091533Y-38037261D01*
X61297261Y-37831533D01*
X61420000Y-37647841D01*
X61542739Y-37831533D01*
X61748467Y-38037261D01*
X61990378Y-38198901D01*
X62259175Y-38310240D01*
X62544528Y-38367000D01*
X62835472Y-38367000D01*
X63120825Y-38310240D01*
X63389622Y-38198901D01*
X63631533Y-38037261D01*
X63837261Y-37831533D01*
X63960000Y-37647841D01*
X64082739Y-37831533D01*
X64288467Y-38037261D01*
X64530378Y-38198901D01*
X64799175Y-38310240D01*
X65084528Y-38367000D01*
X65375472Y-38367000D01*
X65660825Y-38310240D01*
X65929622Y-38198901D01*
X66171533Y-38037261D01*
X66377261Y-37831533D01*
X66500000Y-37647841D01*
X66622739Y-37831533D01*
X66828467Y-38037261D01*
X67070378Y-38198901D01*
X67339175Y-38310240D01*
X67624528Y-38367000D01*
X67915472Y-38367000D01*
X68200825Y-38310240D01*
X68469622Y-38198901D01*
X68711533Y-38037261D01*
X68917261Y-37831533D01*
X69040660Y-37646853D01*
X69114822Y-37771355D01*
X69309731Y-37987588D01*
X69543080Y-38161641D01*
X69805901Y-38286825D01*
X69953110Y-38331476D01*
X70183000Y-38210155D01*
X70183000Y-37017000D01*
X70163000Y-37017000D01*
X70163000Y-36763000D01*
X70183000Y-36763000D01*
X70183000Y-36743000D01*
X70437000Y-36743000D01*
X70437000Y-36763000D01*
X70457000Y-36763000D01*
X70457000Y-37017000D01*
X70437000Y-37017000D01*
X70437000Y-38210155D01*
X70666890Y-38331476D01*
X70814099Y-38286825D01*
X71076920Y-38161641D01*
X71310269Y-37987588D01*
X71505178Y-37771355D01*
X71579340Y-37646853D01*
X71702739Y-37831533D01*
X71908467Y-38037261D01*
X72150378Y-38198901D01*
X72419175Y-38310240D01*
X72704528Y-38367000D01*
X72995472Y-38367000D01*
X73280825Y-38310240D01*
X73549622Y-38198901D01*
X73791533Y-38037261D01*
X73997261Y-37831533D01*
X74120000Y-37647841D01*
X74242739Y-37831533D01*
X74448467Y-38037261D01*
X74690378Y-38198901D01*
X74959175Y-38310240D01*
X75244528Y-38367000D01*
X75535472Y-38367000D01*
X75692314Y-38335802D01*
X79237132Y-41880620D01*
X79260682Y-41909316D01*
X79375189Y-42003289D01*
X79505829Y-42073117D01*
X79647581Y-42116118D01*
X79758061Y-42126999D01*
X79758063Y-42126999D01*
X79794999Y-42130637D01*
X79831934Y-42126999D01*
X91340513Y-42126999D01*
X91938000Y-42724487D01*
X91938001Y-42916889D01*
X91912813Y-42954585D01*
X91846703Y-43114189D01*
X91813000Y-43283623D01*
X91813000Y-43456377D01*
X91846703Y-43625811D01*
X91912813Y-43785415D01*
X92008790Y-43929055D01*
X92130945Y-44051210D01*
X92274585Y-44147187D01*
X92434189Y-44213297D01*
X92603623Y-44247000D01*
X92776377Y-44247000D01*
X92945811Y-44213297D01*
X93105415Y-44147187D01*
X93249055Y-44051210D01*
X93371210Y-43929055D01*
X93467187Y-43785415D01*
X93533297Y-43625811D01*
X93567000Y-43456377D01*
X93567000Y-43283623D01*
X93533297Y-43114189D01*
X93467187Y-42954585D01*
X93442000Y-42916890D01*
X93442000Y-42449933D01*
X93445638Y-42412997D01*
X93438195Y-42337429D01*
X93431119Y-42265580D01*
X93388118Y-42123828D01*
X93327242Y-42009936D01*
X93318290Y-41993187D01*
X93247863Y-41907372D01*
X93224317Y-41878681D01*
X93195627Y-41855136D01*
X92209868Y-40869378D01*
X92186318Y-40840682D01*
X92181833Y-40837001D01*
X95483513Y-40837001D01*
X96439188Y-41792676D01*
X90071189Y-48160677D01*
X90043446Y-48183445D01*
X89960663Y-48284318D01*
X89952598Y-48294145D01*
X89885090Y-48420442D01*
X89843520Y-48557481D01*
X89829483Y-48699998D01*
X89833000Y-48735706D01*
X89833001Y-51009473D01*
X89782813Y-51084585D01*
X89716703Y-51244189D01*
X89683000Y-51413623D01*
X89683000Y-51586377D01*
X89716703Y-51755811D01*
X89782813Y-51915415D01*
X89878790Y-52059055D01*
X90000945Y-52181210D01*
X90144585Y-52277187D01*
X90304189Y-52343297D01*
X90473623Y-52377000D01*
X90646377Y-52377000D01*
X90815811Y-52343297D01*
X90975415Y-52277187D01*
X91119055Y-52181210D01*
X91241210Y-52059055D01*
X91337187Y-51915415D01*
X91403297Y-51755811D01*
X91437000Y-51586377D01*
X91437000Y-51413623D01*
X91403297Y-51244189D01*
X91337187Y-51084585D01*
X91287000Y-51009475D01*
X91287000Y-49001130D01*
X96954669Y-43333463D01*
X97018467Y-43397261D01*
X97260378Y-43558901D01*
X97529175Y-43670240D01*
X97814528Y-43727000D01*
X98105472Y-43727000D01*
X98390825Y-43670240D01*
X98659622Y-43558901D01*
X98901533Y-43397261D01*
X99107261Y-43191533D01*
X99136874Y-43147213D01*
X99197772Y-43261145D01*
X99328979Y-43421021D01*
X99488855Y-43552228D01*
X99671256Y-43649723D01*
X99869173Y-43709761D01*
X100075000Y-43730033D01*
X100925000Y-43730033D01*
X101130827Y-43709761D01*
X101328744Y-43649723D01*
X101511145Y-43552228D01*
X101671021Y-43421021D01*
X101802228Y-43261145D01*
X101899723Y-43078744D01*
X101959761Y-42880827D01*
X101980033Y-42675000D01*
X101980033Y-41825000D01*
X101959761Y-41619173D01*
X101899723Y-41421256D01*
X101802228Y-41238855D01*
X101671021Y-41078979D01*
X101511145Y-40947772D01*
X101328744Y-40850277D01*
X101130827Y-40790239D01*
X100925000Y-40769967D01*
X100075000Y-40769967D01*
X99869173Y-40790239D01*
X99671256Y-40850277D01*
X99488855Y-40947772D01*
X99328979Y-41078979D01*
X99197772Y-41238855D01*
X99136874Y-41352787D01*
X99107261Y-41308467D01*
X98901533Y-41102739D01*
X98659622Y-40941099D01*
X98390825Y-40829760D01*
X98105472Y-40773000D01*
X97814528Y-40773000D01*
X97590959Y-40817470D01*
X96352868Y-39579380D01*
X96329318Y-39550684D01*
X96245627Y-39482001D01*
X102943158Y-39482001D01*
X105883001Y-42421845D01*
X105883000Y-67118849D01*
X104442454Y-68233850D01*
X104407832Y-68255918D01*
X104354492Y-68307004D01*
X104300841Y-68357677D01*
X104299264Y-68359897D01*
X104297294Y-68361784D01*
X104254967Y-68422264D01*
X104212212Y-68482460D01*
X104211096Y-68484950D01*
X104209535Y-68487181D01*
X104179829Y-68554737D01*
X104149631Y-68622136D01*
X104149023Y-68624793D01*
X104147926Y-68627288D01*
X104131962Y-68699376D01*
X104115500Y-68771338D01*
X104115422Y-68774062D01*
X104114833Y-68776723D01*
X104113239Y-68850601D01*
X104111135Y-68924330D01*
X104117991Y-68964802D01*
X104236912Y-70514379D01*
X104121811Y-70466703D01*
X103952377Y-70433000D01*
X103779623Y-70433000D01*
X103610189Y-70466703D01*
X103450585Y-70532813D01*
X103306945Y-70628790D01*
X103184790Y-70750945D01*
X103088813Y-70894585D01*
X103022703Y-71054189D01*
X103022637Y-71054519D01*
X101512157Y-72565000D01*
X86239160Y-72565000D01*
X86183160Y-72460231D01*
X85985779Y-72219721D01*
X85805780Y-72072000D01*
X85985779Y-71924279D01*
X86183160Y-71683769D01*
X86329828Y-71409373D01*
X86420146Y-71111636D01*
X86450642Y-70802000D01*
X86420146Y-70492364D01*
X86329828Y-70194627D01*
X86183160Y-69920231D01*
X85985779Y-69679721D01*
X85745269Y-69482340D01*
X85470873Y-69335672D01*
X85173136Y-69245354D01*
X84941092Y-69222500D01*
X84690908Y-69222500D01*
X84458864Y-69245354D01*
X84161127Y-69335672D01*
X83886731Y-69482340D01*
X83646221Y-69679721D01*
X83448840Y-69920231D01*
X83302172Y-70194627D01*
X83211854Y-70492364D01*
X83181358Y-70802000D01*
X83211854Y-71111636D01*
X83302172Y-71409373D01*
X83448840Y-71683769D01*
X83646221Y-71924279D01*
X83826220Y-72072000D01*
X83646221Y-72219721D01*
X83448840Y-72460231D01*
X83302172Y-72734627D01*
X83211854Y-73032364D01*
X83181358Y-73342000D01*
X83211854Y-73651636D01*
X83302172Y-73949373D01*
X83448840Y-74223769D01*
X83557815Y-74356556D01*
X83465972Y-74405647D01*
X83370499Y-74483999D01*
X83292147Y-74579472D01*
X83233925Y-74688397D01*
X83198073Y-74806587D01*
X83185967Y-74929500D01*
X83185967Y-76834500D01*
X83198073Y-76957413D01*
X83233925Y-77075603D01*
X83292147Y-77184528D01*
X83370499Y-77280001D01*
X83465972Y-77358353D01*
X83574897Y-77416575D01*
X83693087Y-77452427D01*
X83816000Y-77464533D01*
X85816000Y-77464533D01*
X85938913Y-77452427D01*
X86057103Y-77416575D01*
X86166028Y-77358353D01*
X86261501Y-77280001D01*
X86339853Y-77184528D01*
X86398075Y-77075603D01*
X86433927Y-76957413D01*
X86446033Y-76834500D01*
X86446033Y-74929500D01*
X86433927Y-74806587D01*
X86398075Y-74688397D01*
X86339853Y-74579472D01*
X86261501Y-74483999D01*
X86166028Y-74405647D01*
X86074185Y-74356556D01*
X86183160Y-74223769D01*
X86239160Y-74119000D01*
X89424654Y-74119000D01*
X89372813Y-74196585D01*
X89306703Y-74356189D01*
X89273000Y-74525623D01*
X89273000Y-74698377D01*
X89306703Y-74867811D01*
X89372813Y-75027415D01*
X89373000Y-75027695D01*
X89373001Y-76351825D01*
X89373000Y-76351835D01*
X89373001Y-81792967D01*
X89325000Y-81792967D01*
X89202087Y-81805073D01*
X89083897Y-81840925D01*
X88974972Y-81899147D01*
X88879499Y-81977499D01*
X88801147Y-82072972D01*
X88742925Y-82181897D01*
X88707073Y-82300087D01*
X88694967Y-82423000D01*
X88694967Y-84073000D01*
X88707073Y-84195913D01*
X88742925Y-84314103D01*
X88801147Y-84423028D01*
X88879499Y-84518501D01*
X88974972Y-84596853D01*
X89083897Y-84655075D01*
X89202087Y-84690927D01*
X89325000Y-84703033D01*
X90975000Y-84703033D01*
X91097913Y-84690927D01*
X91216103Y-84655075D01*
X91325028Y-84596853D01*
X91420501Y-84518501D01*
X91498853Y-84423028D01*
X91557075Y-84314103D01*
X91592927Y-84195913D01*
X91605033Y-84073000D01*
X91605033Y-82423000D01*
X91592927Y-82300087D01*
X91557075Y-82181897D01*
X91498853Y-82072972D01*
X91420501Y-81977499D01*
X91325028Y-81899147D01*
X91216103Y-81840925D01*
X91097913Y-81805073D01*
X90975000Y-81792967D01*
X90927000Y-81792967D01*
X90927000Y-75027695D01*
X90927187Y-75027415D01*
X90993297Y-74867811D01*
X91027000Y-74698377D01*
X91027000Y-74525623D01*
X90993297Y-74356189D01*
X90927187Y-74196585D01*
X90875346Y-74119000D01*
X101795837Y-74119000D01*
X101834000Y-74122759D01*
X101872163Y-74119000D01*
X101872166Y-74119000D01*
X101986319Y-74107757D01*
X102132784Y-74063327D01*
X102267766Y-73991177D01*
X102386080Y-73894080D01*
X102410412Y-73864431D01*
X104121481Y-72153363D01*
X104121811Y-72153297D01*
X104281415Y-72087187D01*
X104353899Y-72038755D01*
X104414146Y-72823793D01*
X104376703Y-72914189D01*
X104343000Y-73083623D01*
X104343000Y-73256377D01*
X104376703Y-73425811D01*
X104442813Y-73585415D01*
X104538790Y-73729055D01*
X104660945Y-73851210D01*
X104804585Y-73947187D01*
X104846576Y-73964580D01*
X97025570Y-81785587D01*
X96995920Y-81809920D01*
X96948644Y-81867527D01*
X96898823Y-81928234D01*
X96865313Y-81990927D01*
X96826673Y-82063217D01*
X96782243Y-82209682D01*
X96773339Y-82300087D01*
X96767241Y-82362000D01*
X96771000Y-82400163D01*
X96771001Y-86093246D01*
X96730858Y-86133389D01*
X96615730Y-86305691D01*
X96536428Y-86497143D01*
X96496000Y-86700387D01*
X96496000Y-86907613D01*
X96536428Y-87110857D01*
X96615730Y-87302309D01*
X96730858Y-87474611D01*
X96877389Y-87621142D01*
X96924825Y-87652838D01*
X96118480Y-87652593D01*
X96178853Y-87579028D01*
X96237075Y-87470103D01*
X96272927Y-87351913D01*
X96285033Y-87229000D01*
X96285033Y-86379000D01*
X96272927Y-86256087D01*
X96237075Y-86137897D01*
X96178853Y-86028972D01*
X96100501Y-85933499D01*
X96005028Y-85855147D01*
X95896103Y-85796925D01*
X95777913Y-85761073D01*
X95655000Y-85748967D01*
X94805000Y-85748967D01*
X94682087Y-85761073D01*
X94563897Y-85796925D01*
X94561873Y-85798007D01*
X94555250Y-85795128D01*
X94520062Y-85784460D01*
X94357000Y-85911743D01*
X94357000Y-85936544D01*
X94281147Y-86028972D01*
X94222925Y-86137897D01*
X94187073Y-86256087D01*
X94174967Y-86379000D01*
X94174967Y-86951000D01*
X94103000Y-86951000D01*
X94103000Y-86931000D01*
X93336379Y-86931000D01*
X93210453Y-87094064D01*
X93286632Y-87287394D01*
X93399064Y-87462148D01*
X93543429Y-87611609D01*
X93601420Y-87651829D01*
X81632302Y-87648199D01*
X81632827Y-86513936D01*
X93210453Y-86513936D01*
X93336379Y-86677000D01*
X94103000Y-86677000D01*
X94103000Y-85911743D01*
X93939938Y-85784460D01*
X93904750Y-85795128D01*
X93714178Y-85877966D01*
X93543429Y-85996391D01*
X93399064Y-86145852D01*
X93286632Y-86320606D01*
X93210453Y-86513936D01*
X81632827Y-86513936D01*
X81633872Y-84258551D01*
X84239054Y-84258551D01*
X84313663Y-84505073D01*
X84573439Y-84628473D01*
X84852297Y-84698823D01*
X85139521Y-84713417D01*
X85424074Y-84671697D01*
X85695020Y-84575265D01*
X85826337Y-84505073D01*
X85900946Y-84258551D01*
X85070000Y-83427605D01*
X84239054Y-84258551D01*
X81633872Y-84258551D01*
X81634308Y-83317521D01*
X83604583Y-83317521D01*
X83646303Y-83602074D01*
X83742735Y-83873020D01*
X83812927Y-84004337D01*
X84059449Y-84078946D01*
X84890395Y-83248000D01*
X85249605Y-83248000D01*
X86080551Y-84078946D01*
X86327073Y-84004337D01*
X86450473Y-83744561D01*
X86520823Y-83465703D01*
X86535417Y-83178479D01*
X86493697Y-82893926D01*
X86397265Y-82622980D01*
X86327073Y-82491663D01*
X86080551Y-82417054D01*
X85249605Y-83248000D01*
X84890395Y-83248000D01*
X84059449Y-82417054D01*
X83812927Y-82491663D01*
X83689527Y-82751439D01*
X83619177Y-83030297D01*
X83604583Y-83317521D01*
X81634308Y-83317521D01*
X81634808Y-82237449D01*
X84239054Y-82237449D01*
X85070000Y-83068395D01*
X85900946Y-82237449D01*
X85826337Y-81990927D01*
X85566561Y-81867527D01*
X85287703Y-81797177D01*
X85000479Y-81782583D01*
X84715926Y-81824303D01*
X84444980Y-81920735D01*
X84313663Y-81990927D01*
X84239054Y-82237449D01*
X81634808Y-82237449D01*
X81651984Y-45172318D01*
X81655153Y-45140296D01*
X81650745Y-45095330D01*
X81642624Y-45012484D01*
X81605399Y-44889564D01*
X81605100Y-44889003D01*
X81593086Y-44866503D01*
X81544909Y-44776269D01*
X81544905Y-44776263D01*
X81503766Y-44726088D01*
X81463478Y-44676951D01*
X81463475Y-44676949D01*
X81463473Y-44676946D01*
X81402674Y-44627003D01*
X81364236Y-44595428D01*
X81364230Y-44595424D01*
X81328970Y-44576557D01*
X81250997Y-44534833D01*
X81128111Y-44497494D01*
X81128105Y-44497493D01*
X81128104Y-44497493D01*
X81102984Y-44495007D01*
X81000303Y-44484846D01*
X80968272Y-44487986D01*
X58952326Y-44478015D01*
X58920303Y-44474846D01*
X58792484Y-44487376D01*
X58669564Y-44524601D01*
X58556269Y-44585091D01*
X58556263Y-44585095D01*
X58543661Y-44595428D01*
X58456951Y-44666522D01*
X58456949Y-44666525D01*
X58456946Y-44666527D01*
X58416991Y-44715167D01*
X58375428Y-44765764D01*
X58375424Y-44765770D01*
X58314831Y-44879009D01*
X58277493Y-45001895D01*
X58273049Y-45046813D01*
X58268015Y-45097676D01*
X58268015Y-45097686D01*
X58264847Y-45129704D01*
X58267985Y-45161716D01*
X58248302Y-87688000D01*
X35234293Y-87688000D01*
X35580450Y-87619145D01*
X36185925Y-87368349D01*
X36730839Y-87004250D01*
X37194250Y-86540839D01*
X37558349Y-85995925D01*
X37809145Y-85390450D01*
X37937000Y-84747681D01*
X37937000Y-84092319D01*
X37809145Y-83449550D01*
X37558349Y-82844075D01*
X37194250Y-82299161D01*
X36730839Y-81835750D01*
X36185925Y-81471651D01*
X35580450Y-81220855D01*
X34937681Y-81093000D01*
X34282319Y-81093000D01*
X33639550Y-81220855D01*
X33034075Y-81471651D01*
X32489161Y-81835750D01*
X32025750Y-82299161D01*
X31661651Y-82844075D01*
X31612000Y-82963943D01*
X31612000Y-76303623D01*
X39743000Y-76303623D01*
X39743000Y-76476377D01*
X39776703Y-76645811D01*
X39842813Y-76805415D01*
X39843001Y-76805696D01*
X39843000Y-78514305D01*
X39842813Y-78514585D01*
X39776703Y-78674189D01*
X39743000Y-78843623D01*
X39743000Y-79016377D01*
X39776703Y-79185811D01*
X39842813Y-79345415D01*
X39938790Y-79489055D01*
X40014735Y-79565000D01*
X39938790Y-79640945D01*
X39842813Y-79784585D01*
X39776703Y-79944189D01*
X39743000Y-80113623D01*
X39743000Y-80286377D01*
X39776703Y-80455811D01*
X39842813Y-80615415D01*
X39938790Y-80759055D01*
X40060945Y-80881210D01*
X40204585Y-80977187D01*
X40364189Y-81043297D01*
X40364519Y-81043363D01*
X41313592Y-81992436D01*
X41337920Y-82022080D01*
X41367564Y-82046408D01*
X41367565Y-82046409D01*
X41456233Y-82119177D01*
X41573574Y-82181897D01*
X41591216Y-82191327D01*
X41737681Y-82235757D01*
X41851834Y-82247000D01*
X41851843Y-82247000D01*
X41889999Y-82250758D01*
X41928155Y-82247000D01*
X50741837Y-82247000D01*
X50780000Y-82250759D01*
X50818163Y-82247000D01*
X50818166Y-82247000D01*
X50932319Y-82235757D01*
X51078784Y-82191327D01*
X51213766Y-82119177D01*
X51332080Y-82022080D01*
X51356413Y-81992431D01*
X53842437Y-79506407D01*
X53872080Y-79482080D01*
X53920719Y-79422813D01*
X53969177Y-79363767D01*
X54041327Y-79228784D01*
X54054363Y-79185811D01*
X54085757Y-79082319D01*
X54097000Y-78968166D01*
X54097000Y-78968157D01*
X54100758Y-78930001D01*
X54097000Y-78891845D01*
X54097000Y-73888155D01*
X54100758Y-73849999D01*
X54097000Y-73811843D01*
X54097000Y-73811834D01*
X54085757Y-73697681D01*
X54041327Y-73551216D01*
X53990967Y-73457000D01*
X53969177Y-73416233D01*
X53896409Y-73327565D01*
X53896408Y-73327564D01*
X53872080Y-73297920D01*
X53842436Y-73273592D01*
X52893363Y-72324519D01*
X52893297Y-72324189D01*
X52827187Y-72164585D01*
X52731210Y-72020945D01*
X52609055Y-71898790D01*
X52465415Y-71802813D01*
X52305811Y-71736703D01*
X52136377Y-71703000D01*
X51963623Y-71703000D01*
X51794189Y-71736703D01*
X51634585Y-71802813D01*
X51490945Y-71898790D01*
X51368790Y-72020945D01*
X51272813Y-72164585D01*
X51206703Y-72324189D01*
X51173000Y-72493623D01*
X51173000Y-72666377D01*
X51206703Y-72835811D01*
X51272813Y-72995415D01*
X51368790Y-73139055D01*
X51490945Y-73261210D01*
X51634585Y-73357187D01*
X51794189Y-73423297D01*
X51794519Y-73423363D01*
X52543001Y-74171845D01*
X52543000Y-78608156D01*
X50458157Y-80693000D01*
X42211844Y-80693000D01*
X41463363Y-79944519D01*
X41463297Y-79944189D01*
X41397187Y-79784585D01*
X41301210Y-79640945D01*
X41225265Y-79565000D01*
X41301210Y-79489055D01*
X41397187Y-79345415D01*
X41463297Y-79185811D01*
X41497000Y-79016377D01*
X41497000Y-78843623D01*
X41463297Y-78674189D01*
X41397187Y-78514585D01*
X41397000Y-78514305D01*
X41397000Y-76805695D01*
X41397187Y-76805415D01*
X41463297Y-76645811D01*
X41497000Y-76476377D01*
X41497000Y-76303623D01*
X41463297Y-76134189D01*
X41397187Y-75974585D01*
X41301210Y-75830945D01*
X41179055Y-75708790D01*
X41035415Y-75612813D01*
X40875811Y-75546703D01*
X40706377Y-75513000D01*
X40533623Y-75513000D01*
X40364189Y-75546703D01*
X40204585Y-75612813D01*
X40060945Y-75708790D01*
X39938790Y-75830945D01*
X39842813Y-75974585D01*
X39776703Y-76134189D01*
X39743000Y-76303623D01*
X31612000Y-76303623D01*
X31612000Y-72302702D01*
X34766903Y-72302702D01*
X34838486Y-72546671D01*
X35093996Y-72667571D01*
X35368184Y-72736300D01*
X35650512Y-72750217D01*
X35930130Y-72708787D01*
X36196292Y-72613603D01*
X36321514Y-72546671D01*
X36393097Y-72302702D01*
X35580000Y-71489605D01*
X34766903Y-72302702D01*
X31612000Y-72302702D01*
X31612000Y-71380512D01*
X34139783Y-71380512D01*
X34181213Y-71660130D01*
X34276397Y-71926292D01*
X34343329Y-72051514D01*
X34587298Y-72123097D01*
X35400395Y-71310000D01*
X35759605Y-71310000D01*
X36572702Y-72123097D01*
X36649967Y-72100427D01*
X36649967Y-72110000D01*
X36662073Y-72232913D01*
X36697925Y-72351103D01*
X36756147Y-72460028D01*
X36834499Y-72555501D01*
X36929972Y-72633853D01*
X37038897Y-72692075D01*
X37157087Y-72727927D01*
X37280000Y-72740033D01*
X38880000Y-72740033D01*
X39002913Y-72727927D01*
X39121103Y-72692075D01*
X39230028Y-72633853D01*
X39325501Y-72555501D01*
X39376282Y-72493623D01*
X39743000Y-72493623D01*
X39743000Y-72666377D01*
X39776703Y-72835811D01*
X39842813Y-72995415D01*
X39938790Y-73139055D01*
X40060945Y-73261210D01*
X40204585Y-73357187D01*
X40364189Y-73423297D01*
X40533623Y-73457000D01*
X40706377Y-73457000D01*
X40875811Y-73423297D01*
X41035415Y-73357187D01*
X41179055Y-73261210D01*
X41301210Y-73139055D01*
X41397187Y-72995415D01*
X41463297Y-72835811D01*
X41472142Y-72791346D01*
X43471489Y-70792000D01*
X47786890Y-70792000D01*
X47824585Y-70817187D01*
X47984189Y-70883297D01*
X48153623Y-70917000D01*
X48326377Y-70917000D01*
X48495811Y-70883297D01*
X48655415Y-70817187D01*
X48799055Y-70721210D01*
X48921210Y-70599055D01*
X49017187Y-70455415D01*
X49083297Y-70295811D01*
X49117000Y-70126377D01*
X49117000Y-69953623D01*
X49083297Y-69784189D01*
X49017187Y-69624585D01*
X48921210Y-69480945D01*
X48799055Y-69358790D01*
X48655415Y-69262813D01*
X48495811Y-69196703D01*
X48326377Y-69163000D01*
X48153623Y-69163000D01*
X47984189Y-69196703D01*
X47824585Y-69262813D01*
X47786890Y-69288000D01*
X43196935Y-69288000D01*
X43159999Y-69284362D01*
X43123064Y-69288000D01*
X43123062Y-69288000D01*
X43012582Y-69298881D01*
X42870830Y-69341882D01*
X42810017Y-69374387D01*
X42740189Y-69411710D01*
X42699735Y-69444910D01*
X42625683Y-69505683D01*
X42602137Y-69534374D01*
X40408654Y-71727858D01*
X40364189Y-71736703D01*
X40204585Y-71802813D01*
X40060945Y-71898790D01*
X39938790Y-72020945D01*
X39842813Y-72164585D01*
X39776703Y-72324189D01*
X39743000Y-72493623D01*
X39376282Y-72493623D01*
X39403853Y-72460028D01*
X39462075Y-72351103D01*
X39497927Y-72232913D01*
X39510033Y-72110000D01*
X39510033Y-70510000D01*
X39497927Y-70387087D01*
X39462075Y-70268897D01*
X39403853Y-70159972D01*
X39325501Y-70064499D01*
X39230028Y-69986147D01*
X39121103Y-69927925D01*
X39002913Y-69892073D01*
X38880000Y-69879967D01*
X38807000Y-69879967D01*
X38807000Y-69071132D01*
X39517212Y-68360921D01*
X39605811Y-68343297D01*
X39765415Y-68277187D01*
X39765695Y-68277000D01*
X56271837Y-68277000D01*
X56310000Y-68280759D01*
X56348163Y-68277000D01*
X56348166Y-68277000D01*
X56462319Y-68265757D01*
X56608784Y-68221327D01*
X56743766Y-68149177D01*
X56862080Y-68052080D01*
X56886412Y-68022431D01*
X57305481Y-67603363D01*
X57305811Y-67603297D01*
X57465415Y-67537187D01*
X57609055Y-67441210D01*
X57731210Y-67319055D01*
X57827187Y-67175415D01*
X57893297Y-67015811D01*
X57927000Y-66846377D01*
X57927000Y-66673623D01*
X57893297Y-66504189D01*
X57827187Y-66344585D01*
X57731210Y-66200945D01*
X57609055Y-66078790D01*
X57465415Y-65982813D01*
X57305811Y-65916703D01*
X57136377Y-65883000D01*
X56963623Y-65883000D01*
X56794189Y-65916703D01*
X56634585Y-65982813D01*
X56490945Y-66078790D01*
X56368790Y-66200945D01*
X56272813Y-66344585D01*
X56206703Y-66504189D01*
X56206637Y-66504519D01*
X55988157Y-66723000D01*
X39765695Y-66723000D01*
X39765415Y-66722813D01*
X39605811Y-66656703D01*
X39436377Y-66623000D01*
X39263623Y-66623000D01*
X39094189Y-66656703D01*
X38934585Y-66722813D01*
X38790945Y-66818790D01*
X38668790Y-66940945D01*
X38572813Y-67084585D01*
X38506703Y-67244189D01*
X38489079Y-67332788D01*
X37591189Y-68230679D01*
X37563447Y-68253446D01*
X37506925Y-68322319D01*
X37472598Y-68364147D01*
X37405090Y-68490444D01*
X37363520Y-68627483D01*
X37349483Y-68770000D01*
X37353001Y-68805718D01*
X37353001Y-69879967D01*
X37280000Y-69879967D01*
X37157087Y-69892073D01*
X37038897Y-69927925D01*
X36929972Y-69986147D01*
X36834499Y-70064499D01*
X36756147Y-70159972D01*
X36697925Y-70268897D01*
X36662073Y-70387087D01*
X36649967Y-70510000D01*
X36649967Y-70519573D01*
X36572702Y-70496903D01*
X35759605Y-71310000D01*
X35400395Y-71310000D01*
X34587298Y-70496903D01*
X34343329Y-70568486D01*
X34222429Y-70823996D01*
X34153700Y-71098184D01*
X34139783Y-71380512D01*
X31612000Y-71380512D01*
X31612000Y-70317298D01*
X34766903Y-70317298D01*
X35580000Y-71130395D01*
X36393097Y-70317298D01*
X36321514Y-70073329D01*
X36066004Y-69952429D01*
X35791816Y-69883700D01*
X35509488Y-69869783D01*
X35229870Y-69911213D01*
X34963708Y-70006397D01*
X34838486Y-70073329D01*
X34766903Y-70317298D01*
X31612000Y-70317298D01*
X31612000Y-36876057D01*
X31661651Y-36995925D01*
X32025750Y-37540839D01*
X32489161Y-38004250D01*
X33034075Y-38368349D01*
X33639550Y-38619145D01*
X34282319Y-38747000D01*
X34937681Y-38747000D01*
X35580450Y-38619145D01*
X36185925Y-38368349D01*
X36730839Y-38004250D01*
X37194250Y-37540839D01*
X37558349Y-36995925D01*
X37809145Y-36390450D01*
X37937000Y-35747681D01*
X37937000Y-35092319D01*
X37809145Y-34449550D01*
X37558349Y-33844075D01*
X37194250Y-33299161D01*
X36730839Y-32835750D01*
X36185925Y-32471651D01*
X35580450Y-32220855D01*
X34937681Y-32093000D01*
X34282319Y-32093000D01*
X33639550Y-32220855D01*
X33034075Y-32471651D01*
X32489161Y-32835750D01*
X32025750Y-33299161D01*
X31661651Y-33844075D01*
X31637428Y-33902555D01*
X31659785Y-33674544D01*
X31792056Y-33236439D01*
X32006905Y-32832367D01*
X32296147Y-32477721D01*
X32648764Y-32186011D01*
X33051325Y-31968348D01*
X33488499Y-31833019D01*
X33973976Y-31781994D01*
X113897130Y-31752012D01*
X114383123Y-31801301D01*
G37*
%TD.AperFunction*%
D29*
X55035002Y-51398585D02*
X54994189Y-51406703D01*
X54834585Y-51472813D01*
X54690945Y-51568790D01*
X54568790Y-51690945D01*
X54472813Y-51834585D01*
X54406703Y-51994189D01*
X54373000Y-52163623D01*
X54373000Y-52336377D01*
X54406703Y-52505811D01*
X54472813Y-52665415D01*
X54502968Y-52710545D01*
X52790503Y-54423011D01*
X51109767Y-54423011D01*
X51127000Y-54336377D01*
X51127000Y-54163623D01*
X51093297Y-53994189D01*
X51027187Y-53834585D01*
X50931210Y-53690945D01*
X50809055Y-53568790D01*
X50665415Y-53472813D01*
X50505811Y-53406703D01*
X50336377Y-53373000D01*
X50163623Y-53373000D01*
X49994189Y-53406703D01*
X49834585Y-53472813D01*
X49690945Y-53568790D01*
X49568790Y-53690945D01*
X49472813Y-53834585D01*
X49406703Y-53994189D01*
X49400972Y-54023001D01*
X48476999Y-54023001D01*
X48476999Y-49309487D01*
X55035001Y-42751485D01*
X55035002Y-51398585D01*
%TA.AperFunction,Conductor*%
D30*
G36*
X55035002Y-51398585D02*
G01*
X54994189Y-51406703D01*
X54834585Y-51472813D01*
X54690945Y-51568790D01*
X54568790Y-51690945D01*
X54472813Y-51834585D01*
X54406703Y-51994189D01*
X54373000Y-52163623D01*
X54373000Y-52336377D01*
X54406703Y-52505811D01*
X54472813Y-52665415D01*
X54502968Y-52710545D01*
X52790503Y-54423011D01*
X51109767Y-54423011D01*
X51127000Y-54336377D01*
X51127000Y-54163623D01*
X51093297Y-53994189D01*
X51027187Y-53834585D01*
X50931210Y-53690945D01*
X50809055Y-53568790D01*
X50665415Y-53472813D01*
X50505811Y-53406703D01*
X50336377Y-53373000D01*
X50163623Y-53373000D01*
X49994189Y-53406703D01*
X49834585Y-53472813D01*
X49690945Y-53568790D01*
X49568790Y-53690945D01*
X49472813Y-53834585D01*
X49406703Y-53994189D01*
X49400972Y-54023001D01*
X48476999Y-54023001D01*
X48476999Y-49309487D01*
X55035001Y-42751485D01*
X55035002Y-51398585D01*
G37*
%TD.AperFunction*%
D29*
X44898000Y-50538512D02*
X44038654Y-51397858D01*
X43994189Y-51406703D01*
X43901999Y-51444889D01*
X43901999Y-48502001D01*
X44001066Y-48502001D01*
X44038001Y-48505639D01*
X44074936Y-48502001D01*
X44074939Y-48502001D01*
X44185419Y-48491120D01*
X44327171Y-48448119D01*
X44457811Y-48378291D01*
X44572318Y-48284318D01*
X44595869Y-48255621D01*
X44855617Y-47995872D01*
X44884318Y-47972318D01*
X44898000Y-47955647D01*
X44898000Y-50538512D01*
%TA.AperFunction,Conductor*%
D30*
G36*
X44898000Y-50538512D02*
G01*
X44038654Y-51397858D01*
X43994189Y-51406703D01*
X43901999Y-51444889D01*
X43901999Y-48502001D01*
X44001066Y-48502001D01*
X44038001Y-48505639D01*
X44074936Y-48502001D01*
X44074939Y-48502001D01*
X44185419Y-48491120D01*
X44327171Y-48448119D01*
X44457811Y-48378291D01*
X44572318Y-48284318D01*
X44595869Y-48255621D01*
X44855617Y-47995872D01*
X44884318Y-47972318D01*
X44898000Y-47955647D01*
X44898000Y-50538512D01*
G37*
%TD.AperFunction*%
D29*
X53922739Y-37831533D02*
X53998000Y-37906794D01*
X53998001Y-41661509D01*
X48076989Y-47582521D01*
X48076989Y-44988949D01*
X48080627Y-44952014D01*
X48076989Y-44915075D01*
X48066108Y-44804595D01*
X48023107Y-44662843D01*
X47953279Y-44532203D01*
X47859306Y-44417696D01*
X47744798Y-44323723D01*
X47614158Y-44253895D01*
X47472406Y-44210894D01*
X47324989Y-44196375D01*
X47324988Y-44196375D01*
X47311771Y-44197677D01*
X47177571Y-44210894D01*
X47035819Y-44253895D01*
X46975006Y-44286400D01*
X46905178Y-44323723D01*
X46861697Y-44359407D01*
X46790672Y-44417696D01*
X46767123Y-44446391D01*
X46495229Y-44718285D01*
X46516120Y-44649419D01*
X46527001Y-44538939D01*
X46527001Y-44538936D01*
X46530639Y-44502001D01*
X46527001Y-44465066D01*
X46527001Y-43588938D01*
X46530639Y-43552002D01*
X46527001Y-43515065D01*
X46516120Y-43404585D01*
X46473119Y-43262833D01*
X46403292Y-43132194D01*
X46403291Y-43132192D01*
X46332864Y-43046377D01*
X46309318Y-43017686D01*
X46280628Y-42994141D01*
X46159070Y-42872583D01*
X46282061Y-42821639D01*
X46425701Y-42725662D01*
X46547856Y-42603507D01*
X46643833Y-42459867D01*
X46709943Y-42300263D01*
X46718788Y-42255798D01*
X49395000Y-39579587D01*
X49395000Y-39646377D01*
X49428703Y-39815811D01*
X49494813Y-39975415D01*
X49590790Y-40119055D01*
X49712945Y-40241210D01*
X49856585Y-40337187D01*
X50016189Y-40403297D01*
X50060653Y-40412142D01*
X50498000Y-40849489D01*
X50498001Y-41796889D01*
X50472813Y-41834585D01*
X50406703Y-41994189D01*
X50373000Y-42163623D01*
X50373000Y-42336377D01*
X50406703Y-42505811D01*
X50472813Y-42665415D01*
X50568790Y-42809055D01*
X50690945Y-42931210D01*
X50834585Y-43027187D01*
X50994189Y-43093297D01*
X51163623Y-43127000D01*
X51336377Y-43127000D01*
X51505811Y-43093297D01*
X51665415Y-43027187D01*
X51809055Y-42931210D01*
X51931210Y-42809055D01*
X52027187Y-42665415D01*
X52093297Y-42505811D01*
X52127000Y-42336377D01*
X52127000Y-42163623D01*
X52093297Y-41994189D01*
X52027187Y-41834585D01*
X52002000Y-41796890D01*
X52002000Y-40574935D01*
X52005638Y-40538000D01*
X52001855Y-40499593D01*
X51991119Y-40390582D01*
X51948118Y-40248830D01*
X51878290Y-40118190D01*
X51784317Y-40003683D01*
X51755627Y-39980138D01*
X51124142Y-39348653D01*
X51115297Y-39304189D01*
X51049187Y-39144585D01*
X51040380Y-39131404D01*
X51195415Y-39067187D01*
X51339055Y-38971210D01*
X51461210Y-38849055D01*
X51557187Y-38705415D01*
X51623297Y-38545811D01*
X51657000Y-38376377D01*
X51657000Y-38203623D01*
X51629341Y-38064572D01*
X51830378Y-38198901D01*
X52099175Y-38310240D01*
X52384528Y-38367000D01*
X52675472Y-38367000D01*
X52960825Y-38310240D01*
X53229622Y-38198901D01*
X53471533Y-38037261D01*
X53677261Y-37831533D01*
X53800000Y-37647841D01*
X53922739Y-37831533D01*
%TA.AperFunction,Conductor*%
D30*
G36*
X53922739Y-37831533D02*
G01*
X53998000Y-37906794D01*
X53998001Y-41661509D01*
X48076989Y-47582521D01*
X48076989Y-44988949D01*
X48080627Y-44952014D01*
X48076989Y-44915075D01*
X48066108Y-44804595D01*
X48023107Y-44662843D01*
X47953279Y-44532203D01*
X47859306Y-44417696D01*
X47744798Y-44323723D01*
X47614158Y-44253895D01*
X47472406Y-44210894D01*
X47324989Y-44196375D01*
X47324988Y-44196375D01*
X47311771Y-44197677D01*
X47177571Y-44210894D01*
X47035819Y-44253895D01*
X46975006Y-44286400D01*
X46905178Y-44323723D01*
X46861697Y-44359407D01*
X46790672Y-44417696D01*
X46767123Y-44446391D01*
X46495229Y-44718285D01*
X46516120Y-44649419D01*
X46527001Y-44538939D01*
X46527001Y-44538936D01*
X46530639Y-44502001D01*
X46527001Y-44465066D01*
X46527001Y-43588938D01*
X46530639Y-43552002D01*
X46527001Y-43515065D01*
X46516120Y-43404585D01*
X46473119Y-43262833D01*
X46403292Y-43132194D01*
X46403291Y-43132192D01*
X46332864Y-43046377D01*
X46309318Y-43017686D01*
X46280628Y-42994141D01*
X46159070Y-42872583D01*
X46282061Y-42821639D01*
X46425701Y-42725662D01*
X46547856Y-42603507D01*
X46643833Y-42459867D01*
X46709943Y-42300263D01*
X46718788Y-42255798D01*
X49395000Y-39579587D01*
X49395000Y-39646377D01*
X49428703Y-39815811D01*
X49494813Y-39975415D01*
X49590790Y-40119055D01*
X49712945Y-40241210D01*
X49856585Y-40337187D01*
X50016189Y-40403297D01*
X50060653Y-40412142D01*
X50498000Y-40849489D01*
X50498001Y-41796889D01*
X50472813Y-41834585D01*
X50406703Y-41994189D01*
X50373000Y-42163623D01*
X50373000Y-42336377D01*
X50406703Y-42505811D01*
X50472813Y-42665415D01*
X50568790Y-42809055D01*
X50690945Y-42931210D01*
X50834585Y-43027187D01*
X50994189Y-43093297D01*
X51163623Y-43127000D01*
X51336377Y-43127000D01*
X51505811Y-43093297D01*
X51665415Y-43027187D01*
X51809055Y-42931210D01*
X51931210Y-42809055D01*
X52027187Y-42665415D01*
X52093297Y-42505811D01*
X52127000Y-42336377D01*
X52127000Y-42163623D01*
X52093297Y-41994189D01*
X52027187Y-41834585D01*
X52002000Y-41796890D01*
X52002000Y-40574935D01*
X52005638Y-40538000D01*
X52001855Y-40499593D01*
X51991119Y-40390582D01*
X51948118Y-40248830D01*
X51878290Y-40118190D01*
X51784317Y-40003683D01*
X51755627Y-39980138D01*
X51124142Y-39348653D01*
X51115297Y-39304189D01*
X51049187Y-39144585D01*
X51040380Y-39131404D01*
X51195415Y-39067187D01*
X51339055Y-38971210D01*
X51461210Y-38849055D01*
X51557187Y-38705415D01*
X51623297Y-38545811D01*
X51657000Y-38376377D01*
X51657000Y-38203623D01*
X51629341Y-38064572D01*
X51830378Y-38198901D01*
X52099175Y-38310240D01*
X52384528Y-38367000D01*
X52675472Y-38367000D01*
X52960825Y-38310240D01*
X53229622Y-38198901D01*
X53471533Y-38037261D01*
X53677261Y-37831533D01*
X53800000Y-37647841D01*
X53922739Y-37831533D01*
G37*
%TD.AperFunction*%
D29*
X43172980Y-45775529D02*
X42767000Y-46181510D01*
X42767000Y-43540608D01*
X42981533Y-43397261D01*
X43172979Y-43205815D01*
X43172980Y-45775529D01*
%TA.AperFunction,Conductor*%
D30*
G36*
X43172980Y-45775529D02*
G01*
X42767000Y-46181510D01*
X42767000Y-43540608D01*
X42981533Y-43397261D01*
X43172979Y-43205815D01*
X43172980Y-45775529D01*
G37*
%TD.AperFunction*%
%TD*%
M02*
