%TF.GenerationSoftware,KiCad,Pcbnew,(5.1.6)-1*%
%TF.CreationDate,2020-10-25T21:11:49+03:00*%
%TF.ProjectId,ledboard,6c656462-6f61-4726-942e-6b696361645f,v0.4.0*%
%TF.SameCoordinates,Original*%
%TF.FileFunction,Paste,Top*%
%TF.FilePolarity,Positive*%
%FSLAX46Y46*%
G04 Gerber Fmt 4.6, Leading zero omitted, Abs format (unit mm)*
G04 Created by KiCad (PCBNEW (5.1.6)-1) date 2020-10-25 21:11:49*
%MOMM*%
%LPD*%
G01*
G04 APERTURE LIST*
%TA.AperFunction,Profile*%
%ADD10C,0.050000*%
%TD*%
%ADD11R,0.723000X0.930000*%
%ADD12R,1.910000X0.610000*%
%ADD13C,5.700000*%
%ADD14R,1.500000X2.400000*%
%ADD15R,1.500000X1.050000*%
G04 APERTURE END LIST*
D10*
X119360000Y-91630000D02*
X119360000Y-30670000D01*
X30460000Y-91630000D02*
X119360000Y-91630000D01*
X30460000Y-30670000D02*
X30460000Y-91630000D01*
X119360000Y-30670000D02*
X30460000Y-30670000D01*
%TO.C,R13*%
G36*
G01*
X108749999Y-70490000D02*
X109650001Y-70490000D01*
G75*
G02*
X109900000Y-70739999I0J-249999D01*
G01*
X109900000Y-71390001D01*
G75*
G02*
X109650001Y-71640000I-249999J0D01*
G01*
X108749999Y-71640000D01*
G75*
G02*
X108500000Y-71390001I0J249999D01*
G01*
X108500000Y-70739999D01*
G75*
G02*
X108749999Y-70490000I249999J0D01*
G01*
G37*
G36*
G01*
X108749999Y-68440000D02*
X109650001Y-68440000D01*
G75*
G02*
X109900000Y-68689999I0J-249999D01*
G01*
X109900000Y-69340001D01*
G75*
G02*
X109650001Y-69590000I-249999J0D01*
G01*
X108749999Y-69590000D01*
G75*
G02*
X108500000Y-69340001I0J249999D01*
G01*
X108500000Y-68689999D01*
G75*
G02*
X108749999Y-68440000I249999J0D01*
G01*
G37*
%TD*%
%TO.C,R12*%
G36*
G01*
X109650001Y-73400000D02*
X108749999Y-73400000D01*
G75*
G02*
X108500000Y-73150001I0J249999D01*
G01*
X108500000Y-72499999D01*
G75*
G02*
X108749999Y-72250000I249999J0D01*
G01*
X109650001Y-72250000D01*
G75*
G02*
X109900000Y-72499999I0J-249999D01*
G01*
X109900000Y-73150001D01*
G75*
G02*
X109650001Y-73400000I-249999J0D01*
G01*
G37*
G36*
G01*
X109650001Y-75450000D02*
X108749999Y-75450000D01*
G75*
G02*
X108500000Y-75200001I0J249999D01*
G01*
X108500000Y-74549999D01*
G75*
G02*
X108749999Y-74300000I249999J0D01*
G01*
X109650001Y-74300000D01*
G75*
G02*
X109900000Y-74549999I0J-249999D01*
G01*
X109900000Y-75200001D01*
G75*
G02*
X109650001Y-75450000I-249999J0D01*
G01*
G37*
%TD*%
D11*
%TO.C,U3*%
X46062500Y-78930000D03*
X46062500Y-77380000D03*
X44857500Y-78930000D03*
X44857500Y-77380000D03*
D12*
X42680000Y-80060000D03*
X42680000Y-78790000D03*
X42680000Y-77520000D03*
X42680000Y-76250000D03*
X48240000Y-76250000D03*
X48240000Y-77520000D03*
X48240000Y-78790000D03*
X48240000Y-80060000D03*
%TD*%
%TO.C,R11*%
G36*
G01*
X38430000Y-80437500D02*
X38430000Y-79962500D01*
G75*
G02*
X38667500Y-79725000I237500J0D01*
G01*
X39242500Y-79725000D01*
G75*
G02*
X39480000Y-79962500I0J-237500D01*
G01*
X39480000Y-80437500D01*
G75*
G02*
X39242500Y-80675000I-237500J0D01*
G01*
X38667500Y-80675000D01*
G75*
G02*
X38430000Y-80437500I0J237500D01*
G01*
G37*
G36*
G01*
X36680000Y-80437500D02*
X36680000Y-79962500D01*
G75*
G02*
X36917500Y-79725000I237500J0D01*
G01*
X37492500Y-79725000D01*
G75*
G02*
X37730000Y-79962500I0J-237500D01*
G01*
X37730000Y-80437500D01*
G75*
G02*
X37492500Y-80675000I-237500J0D01*
G01*
X36917500Y-80675000D01*
G75*
G02*
X36680000Y-80437500I0J237500D01*
G01*
G37*
%TD*%
%TO.C,R10*%
G36*
G01*
X34032500Y-78010000D02*
X34507500Y-78010000D01*
G75*
G02*
X34745000Y-78247500I0J-237500D01*
G01*
X34745000Y-78822500D01*
G75*
G02*
X34507500Y-79060000I-237500J0D01*
G01*
X34032500Y-79060000D01*
G75*
G02*
X33795000Y-78822500I0J237500D01*
G01*
X33795000Y-78247500D01*
G75*
G02*
X34032500Y-78010000I237500J0D01*
G01*
G37*
G36*
G01*
X34032500Y-76260000D02*
X34507500Y-76260000D01*
G75*
G02*
X34745000Y-76497500I0J-237500D01*
G01*
X34745000Y-77072500D01*
G75*
G02*
X34507500Y-77310000I-237500J0D01*
G01*
X34032500Y-77310000D01*
G75*
G02*
X33795000Y-77072500I0J237500D01*
G01*
X33795000Y-76497500D01*
G75*
G02*
X34032500Y-76260000I237500J0D01*
G01*
G37*
%TD*%
%TO.C,R9*%
G36*
G01*
X45250000Y-73399999D02*
X45250000Y-74300001D01*
G75*
G02*
X45000001Y-74550000I-249999J0D01*
G01*
X44349999Y-74550000D01*
G75*
G02*
X44100000Y-74300001I0J249999D01*
G01*
X44100000Y-73399999D01*
G75*
G02*
X44349999Y-73150000I249999J0D01*
G01*
X45000001Y-73150000D01*
G75*
G02*
X45250000Y-73399999I0J-249999D01*
G01*
G37*
G36*
G01*
X47300000Y-73399999D02*
X47300000Y-74300001D01*
G75*
G02*
X47050001Y-74550000I-249999J0D01*
G01*
X46399999Y-74550000D01*
G75*
G02*
X46150000Y-74300001I0J249999D01*
G01*
X46150000Y-73399999D01*
G75*
G02*
X46399999Y-73150000I249999J0D01*
G01*
X47050001Y-73150000D01*
G75*
G02*
X47300000Y-73399999I0J-249999D01*
G01*
G37*
%TD*%
%TO.C,L3*%
G36*
G01*
X40519500Y-74356000D02*
X40720500Y-74356000D01*
G75*
G02*
X40800000Y-74435500I0J-79500D01*
G01*
X40800000Y-74594500D01*
G75*
G02*
X40720500Y-74674000I-79500J0D01*
G01*
X40519500Y-74674000D01*
G75*
G02*
X40440000Y-74594500I0J79500D01*
G01*
X40440000Y-74435500D01*
G75*
G02*
X40519500Y-74356000I79500J0D01*
G01*
G37*
G36*
G01*
X40519500Y-73666000D02*
X40720500Y-73666000D01*
G75*
G02*
X40800000Y-73745500I0J-79500D01*
G01*
X40800000Y-73904500D01*
G75*
G02*
X40720500Y-73984000I-79500J0D01*
G01*
X40519500Y-73984000D01*
G75*
G02*
X40440000Y-73904500I0J79500D01*
G01*
X40440000Y-73745500D01*
G75*
G02*
X40519500Y-73666000I79500J0D01*
G01*
G37*
%TD*%
%TO.C,D9*%
G36*
G01*
X51130000Y-69007500D02*
X51130000Y-68532500D01*
G75*
G02*
X51367500Y-68295000I237500J0D01*
G01*
X51942500Y-68295000D01*
G75*
G02*
X52180000Y-68532500I0J-237500D01*
G01*
X52180000Y-69007500D01*
G75*
G02*
X51942500Y-69245000I-237500J0D01*
G01*
X51367500Y-69245000D01*
G75*
G02*
X51130000Y-69007500I0J237500D01*
G01*
G37*
G36*
G01*
X49380000Y-69007500D02*
X49380000Y-68532500D01*
G75*
G02*
X49617500Y-68295000I237500J0D01*
G01*
X50192500Y-68295000D01*
G75*
G02*
X50430000Y-68532500I0J-237500D01*
G01*
X50430000Y-69007500D01*
G75*
G02*
X50192500Y-69245000I-237500J0D01*
G01*
X49617500Y-69245000D01*
G75*
G02*
X49380000Y-69007500I0J237500D01*
G01*
G37*
%TD*%
%TO.C,C11*%
G36*
G01*
X50329999Y-78110000D02*
X51230001Y-78110000D01*
G75*
G02*
X51480000Y-78359999I0J-249999D01*
G01*
X51480000Y-79010001D01*
G75*
G02*
X51230001Y-79260000I-249999J0D01*
G01*
X50329999Y-79260000D01*
G75*
G02*
X50080000Y-79010001I0J249999D01*
G01*
X50080000Y-78359999D01*
G75*
G02*
X50329999Y-78110000I249999J0D01*
G01*
G37*
G36*
G01*
X50329999Y-76060000D02*
X51230001Y-76060000D01*
G75*
G02*
X51480000Y-76309999I0J-249999D01*
G01*
X51480000Y-76960001D01*
G75*
G02*
X51230001Y-77210000I-249999J0D01*
G01*
X50329999Y-77210000D01*
G75*
G02*
X50080000Y-76960001I0J249999D01*
G01*
X50080000Y-76309999D01*
G75*
G02*
X50329999Y-76060000I249999J0D01*
G01*
G37*
%TD*%
%TO.C,C10*%
G36*
G01*
X37630000Y-75939999D02*
X37630000Y-76840001D01*
G75*
G02*
X37380001Y-77090000I-249999J0D01*
G01*
X36729999Y-77090000D01*
G75*
G02*
X36480000Y-76840001I0J249999D01*
G01*
X36480000Y-75939999D01*
G75*
G02*
X36729999Y-75690000I249999J0D01*
G01*
X37380001Y-75690000D01*
G75*
G02*
X37630000Y-75939999I0J-249999D01*
G01*
G37*
G36*
G01*
X39680000Y-75939999D02*
X39680000Y-76840001D01*
G75*
G02*
X39430001Y-77090000I-249999J0D01*
G01*
X38779999Y-77090000D01*
G75*
G02*
X38530000Y-76840001I0J249999D01*
G01*
X38530000Y-75939999D01*
G75*
G02*
X38779999Y-75690000I249999J0D01*
G01*
X39430001Y-75690000D01*
G75*
G02*
X39680000Y-75939999I0J-249999D01*
G01*
G37*
%TD*%
%TO.C,C9*%
G36*
G01*
X45495000Y-70859999D02*
X45495000Y-71760001D01*
G75*
G02*
X45245001Y-72010000I-249999J0D01*
G01*
X44594999Y-72010000D01*
G75*
G02*
X44345000Y-71760001I0J249999D01*
G01*
X44345000Y-70859999D01*
G75*
G02*
X44594999Y-70610000I249999J0D01*
G01*
X45245001Y-70610000D01*
G75*
G02*
X45495000Y-70859999I0J-249999D01*
G01*
G37*
G36*
G01*
X47545000Y-70859999D02*
X47545000Y-71760001D01*
G75*
G02*
X47295001Y-72010000I-249999J0D01*
G01*
X46644999Y-72010000D01*
G75*
G02*
X46395000Y-71760001I0J249999D01*
G01*
X46395000Y-70859999D01*
G75*
G02*
X46644999Y-70610000I249999J0D01*
G01*
X47295001Y-70610000D01*
G75*
G02*
X47545000Y-70859999I0J-249999D01*
G01*
G37*
%TD*%
%TO.C,C8*%
G36*
G01*
X49059999Y-73030000D02*
X49960001Y-73030000D01*
G75*
G02*
X50210000Y-73279999I0J-249999D01*
G01*
X50210000Y-73930001D01*
G75*
G02*
X49960001Y-74180000I-249999J0D01*
G01*
X49059999Y-74180000D01*
G75*
G02*
X48810000Y-73930001I0J249999D01*
G01*
X48810000Y-73279999D01*
G75*
G02*
X49059999Y-73030000I249999J0D01*
G01*
G37*
G36*
G01*
X49059999Y-70980000D02*
X49960001Y-70980000D01*
G75*
G02*
X50210000Y-71229999I0J-249999D01*
G01*
X50210000Y-71880001D01*
G75*
G02*
X49960001Y-72130000I-249999J0D01*
G01*
X49059999Y-72130000D01*
G75*
G02*
X48810000Y-71880001I0J249999D01*
G01*
X48810000Y-71229999D01*
G75*
G02*
X49059999Y-70980000I249999J0D01*
G01*
G37*
%TD*%
%TO.C,C7*%
G36*
G01*
X45495000Y-68319999D02*
X45495000Y-69220001D01*
G75*
G02*
X45245001Y-69470000I-249999J0D01*
G01*
X44594999Y-69470000D01*
G75*
G02*
X44345000Y-69220001I0J249999D01*
G01*
X44345000Y-68319999D01*
G75*
G02*
X44594999Y-68070000I249999J0D01*
G01*
X45245001Y-68070000D01*
G75*
G02*
X45495000Y-68319999I0J-249999D01*
G01*
G37*
G36*
G01*
X47545000Y-68319999D02*
X47545000Y-69220001D01*
G75*
G02*
X47295001Y-69470000I-249999J0D01*
G01*
X46644999Y-69470000D01*
G75*
G02*
X46395000Y-69220001I0J249999D01*
G01*
X46395000Y-68319999D01*
G75*
G02*
X46644999Y-68070000I249999J0D01*
G01*
X47295001Y-68070000D01*
G75*
G02*
X47545000Y-68319999I0J-249999D01*
G01*
G37*
%TD*%
%TO.C,D7*%
G36*
G01*
X87500000Y-41500000D02*
X87500000Y-41000000D01*
G75*
G02*
X87750000Y-40750000I250000J0D01*
G01*
X88750000Y-40750000D01*
G75*
G02*
X89000000Y-41000000I0J-250000D01*
G01*
X89000000Y-41500000D01*
G75*
G02*
X88750000Y-41750000I-250000J0D01*
G01*
X87750000Y-41750000D01*
G75*
G02*
X87500000Y-41500000I0J250000D01*
G01*
G37*
G36*
G01*
X85000000Y-41500000D02*
X85000000Y-41000000D01*
G75*
G02*
X85250000Y-40750000I250000J0D01*
G01*
X86250000Y-40750000D01*
G75*
G02*
X86500000Y-41000000I0J-250000D01*
G01*
X86500000Y-41500000D01*
G75*
G02*
X86250000Y-41750000I-250000J0D01*
G01*
X85250000Y-41750000D01*
G75*
G02*
X85000000Y-41500000I0J250000D01*
G01*
G37*
%TD*%
%TO.C,D8*%
G36*
G01*
X92500000Y-41500000D02*
X92500000Y-41000000D01*
G75*
G02*
X92750000Y-40750000I250000J0D01*
G01*
X93750000Y-40750000D01*
G75*
G02*
X94000000Y-41000000I0J-250000D01*
G01*
X94000000Y-41500000D01*
G75*
G02*
X93750000Y-41750000I-250000J0D01*
G01*
X92750000Y-41750000D01*
G75*
G02*
X92500000Y-41500000I0J250000D01*
G01*
G37*
G36*
G01*
X90000000Y-41500000D02*
X90000000Y-41000000D01*
G75*
G02*
X90250000Y-40750000I250000J0D01*
G01*
X91250000Y-40750000D01*
G75*
G02*
X91500000Y-41000000I0J-250000D01*
G01*
X91500000Y-41500000D01*
G75*
G02*
X91250000Y-41750000I-250000J0D01*
G01*
X90250000Y-41750000D01*
G75*
G02*
X90000000Y-41500000I0J250000D01*
G01*
G37*
%TD*%
%TO.C,D2*%
G36*
G01*
X40400000Y-49075000D02*
X40400000Y-50425000D01*
G75*
G02*
X39725000Y-51100000I-675000J0D01*
G01*
X37575000Y-51100000D01*
G75*
G02*
X36900000Y-50425000I0J675000D01*
G01*
X36900000Y-49075000D01*
G75*
G02*
X37575000Y-48400000I675000J0D01*
G01*
X39725000Y-48400000D01*
G75*
G02*
X40400000Y-49075000I0J-675000D01*
G01*
G37*
G36*
G01*
X53100000Y-46375000D02*
X53100000Y-47725000D01*
G75*
G02*
X52425000Y-48400000I-675000J0D01*
G01*
X50275000Y-48400000D01*
G75*
G02*
X49600000Y-47725000I0J675000D01*
G01*
X49600000Y-46375000D01*
G75*
G02*
X50275000Y-45700000I675000J0D01*
G01*
X52425000Y-45700000D01*
G75*
G02*
X53100000Y-46375000I0J-675000D01*
G01*
G37*
D13*
X45000000Y-48400000D03*
%TD*%
%TO.C,D3*%
G36*
G01*
X49600000Y-59725000D02*
X49600000Y-58375000D01*
G75*
G02*
X50275000Y-57700000I675000J0D01*
G01*
X52425000Y-57700000D01*
G75*
G02*
X53100000Y-58375000I0J-675000D01*
G01*
X53100000Y-59725000D01*
G75*
G02*
X52425000Y-60400000I-675000J0D01*
G01*
X50275000Y-60400000D01*
G75*
G02*
X49600000Y-59725000I0J675000D01*
G01*
G37*
G36*
G01*
X36900000Y-62425000D02*
X36900000Y-61075000D01*
G75*
G02*
X37575000Y-60400000I675000J0D01*
G01*
X39725000Y-60400000D01*
G75*
G02*
X40400000Y-61075000I0J-675000D01*
G01*
X40400000Y-62425000D01*
G75*
G02*
X39725000Y-63100000I-675000J0D01*
G01*
X37575000Y-63100000D01*
G75*
G02*
X36900000Y-62425000I0J675000D01*
G01*
G37*
X45000000Y-60400000D03*
%TD*%
%TO.C,D5*%
G36*
G01*
X90400000Y-49075000D02*
X90400000Y-50425000D01*
G75*
G02*
X89725000Y-51100000I-675000J0D01*
G01*
X87575000Y-51100000D01*
G75*
G02*
X86900000Y-50425000I0J675000D01*
G01*
X86900000Y-49075000D01*
G75*
G02*
X87575000Y-48400000I675000J0D01*
G01*
X89725000Y-48400000D01*
G75*
G02*
X90400000Y-49075000I0J-675000D01*
G01*
G37*
G36*
G01*
X103100000Y-46375000D02*
X103100000Y-47725000D01*
G75*
G02*
X102425000Y-48400000I-675000J0D01*
G01*
X100275000Y-48400000D01*
G75*
G02*
X99600000Y-47725000I0J675000D01*
G01*
X99600000Y-46375000D01*
G75*
G02*
X100275000Y-45700000I675000J0D01*
G01*
X102425000Y-45700000D01*
G75*
G02*
X103100000Y-46375000I0J-675000D01*
G01*
G37*
X95000000Y-48400000D03*
%TD*%
%TO.C,D6*%
G36*
G01*
X99600000Y-59725000D02*
X99600000Y-58375000D01*
G75*
G02*
X100275000Y-57700000I675000J0D01*
G01*
X102425000Y-57700000D01*
G75*
G02*
X103100000Y-58375000I0J-675000D01*
G01*
X103100000Y-59725000D01*
G75*
G02*
X102425000Y-60400000I-675000J0D01*
G01*
X100275000Y-60400000D01*
G75*
G02*
X99600000Y-59725000I0J675000D01*
G01*
G37*
G36*
G01*
X86900000Y-62425000D02*
X86900000Y-61075000D01*
G75*
G02*
X87575000Y-60400000I675000J0D01*
G01*
X89725000Y-60400000D01*
G75*
G02*
X90400000Y-61075000I0J-675000D01*
G01*
X90400000Y-62425000D01*
G75*
G02*
X89725000Y-63100000I-675000J0D01*
G01*
X87575000Y-63100000D01*
G75*
G02*
X86900000Y-62425000I0J675000D01*
G01*
G37*
X95000000Y-60400000D03*
%TD*%
%TO.C,R6*%
G36*
G01*
X37577500Y-41485000D02*
X37922500Y-41485000D01*
G75*
G02*
X38070000Y-41632500I0J-147500D01*
G01*
X38070000Y-41927500D01*
G75*
G02*
X37922500Y-42075000I-147500J0D01*
G01*
X37577500Y-42075000D01*
G75*
G02*
X37430000Y-41927500I0J147500D01*
G01*
X37430000Y-41632500D01*
G75*
G02*
X37577500Y-41485000I147500J0D01*
G01*
G37*
G36*
G01*
X37577500Y-42455000D02*
X37922500Y-42455000D01*
G75*
G02*
X38070000Y-42602500I0J-147500D01*
G01*
X38070000Y-42897500D01*
G75*
G02*
X37922500Y-43045000I-147500J0D01*
G01*
X37577500Y-43045000D01*
G75*
G02*
X37430000Y-42897500I0J147500D01*
G01*
X37430000Y-42602500D01*
G75*
G02*
X37577500Y-42455000I147500J0D01*
G01*
G37*
%TD*%
%TO.C,R5*%
G36*
G01*
X43577500Y-42455000D02*
X43922500Y-42455000D01*
G75*
G02*
X44070000Y-42602500I0J-147500D01*
G01*
X44070000Y-42897500D01*
G75*
G02*
X43922500Y-43045000I-147500J0D01*
G01*
X43577500Y-43045000D01*
G75*
G02*
X43430000Y-42897500I0J147500D01*
G01*
X43430000Y-42602500D01*
G75*
G02*
X43577500Y-42455000I147500J0D01*
G01*
G37*
G36*
G01*
X43577500Y-41485000D02*
X43922500Y-41485000D01*
G75*
G02*
X44070000Y-41632500I0J-147500D01*
G01*
X44070000Y-41927500D01*
G75*
G02*
X43922500Y-42075000I-147500J0D01*
G01*
X43577500Y-42075000D01*
G75*
G02*
X43430000Y-41927500I0J147500D01*
G01*
X43430000Y-41632500D01*
G75*
G02*
X43577500Y-41485000I147500J0D01*
G01*
G37*
%TD*%
%TO.C,C1*%
G36*
G01*
X50493750Y-63925000D02*
X51006250Y-63925000D01*
G75*
G02*
X51225000Y-64143750I0J-218750D01*
G01*
X51225000Y-64581250D01*
G75*
G02*
X51006250Y-64800000I-218750J0D01*
G01*
X50493750Y-64800000D01*
G75*
G02*
X50275000Y-64581250I0J218750D01*
G01*
X50275000Y-64143750D01*
G75*
G02*
X50493750Y-63925000I218750J0D01*
G01*
G37*
G36*
G01*
X50493750Y-65500000D02*
X51006250Y-65500000D01*
G75*
G02*
X51225000Y-65718750I0J-218750D01*
G01*
X51225000Y-66156250D01*
G75*
G02*
X51006250Y-66375000I-218750J0D01*
G01*
X50493750Y-66375000D01*
G75*
G02*
X50275000Y-66156250I0J218750D01*
G01*
X50275000Y-65718750D01*
G75*
G02*
X50493750Y-65500000I218750J0D01*
G01*
G37*
%TD*%
%TO.C,C2*%
G36*
G01*
X87493750Y-65462500D02*
X88006250Y-65462500D01*
G75*
G02*
X88225000Y-65681250I0J-218750D01*
G01*
X88225000Y-66118750D01*
G75*
G02*
X88006250Y-66337500I-218750J0D01*
G01*
X87493750Y-66337500D01*
G75*
G02*
X87275000Y-66118750I0J218750D01*
G01*
X87275000Y-65681250D01*
G75*
G02*
X87493750Y-65462500I218750J0D01*
G01*
G37*
G36*
G01*
X87493750Y-63887500D02*
X88006250Y-63887500D01*
G75*
G02*
X88225000Y-64106250I0J-218750D01*
G01*
X88225000Y-64543750D01*
G75*
G02*
X88006250Y-64762500I-218750J0D01*
G01*
X87493750Y-64762500D01*
G75*
G02*
X87275000Y-64543750I0J218750D01*
G01*
X87275000Y-64106250D01*
G75*
G02*
X87493750Y-63887500I218750J0D01*
G01*
G37*
%TD*%
%TO.C,L1*%
G36*
G01*
X39075000Y-59525000D02*
X36925000Y-59525000D01*
G75*
G02*
X36675000Y-59275000I0J250000D01*
G01*
X36675000Y-58525000D01*
G75*
G02*
X36925000Y-58275000I250000J0D01*
G01*
X39075000Y-58275000D01*
G75*
G02*
X39325000Y-58525000I0J-250000D01*
G01*
X39325000Y-59275000D01*
G75*
G02*
X39075000Y-59525000I-250000J0D01*
G01*
G37*
G36*
G01*
X39075000Y-56725000D02*
X36925000Y-56725000D01*
G75*
G02*
X36675000Y-56475000I0J250000D01*
G01*
X36675000Y-55725000D01*
G75*
G02*
X36925000Y-55475000I250000J0D01*
G01*
X39075000Y-55475000D01*
G75*
G02*
X39325000Y-55725000I0J-250000D01*
G01*
X39325000Y-56475000D01*
G75*
G02*
X39075000Y-56725000I-250000J0D01*
G01*
G37*
%TD*%
%TO.C,L2*%
G36*
G01*
X89075000Y-56725000D02*
X86925000Y-56725000D01*
G75*
G02*
X86675000Y-56475000I0J250000D01*
G01*
X86675000Y-55725000D01*
G75*
G02*
X86925000Y-55475000I250000J0D01*
G01*
X89075000Y-55475000D01*
G75*
G02*
X89325000Y-55725000I0J-250000D01*
G01*
X89325000Y-56475000D01*
G75*
G02*
X89075000Y-56725000I-250000J0D01*
G01*
G37*
G36*
G01*
X89075000Y-59525000D02*
X86925000Y-59525000D01*
G75*
G02*
X86675000Y-59275000I0J250000D01*
G01*
X86675000Y-58525000D01*
G75*
G02*
X86925000Y-58275000I250000J0D01*
G01*
X89075000Y-58275000D01*
G75*
G02*
X89325000Y-58525000I0J-250000D01*
G01*
X89325000Y-59275000D01*
G75*
G02*
X89075000Y-59525000I-250000J0D01*
G01*
G37*
%TD*%
%TO.C,R7*%
G36*
G01*
X102077500Y-41455000D02*
X102422500Y-41455000D01*
G75*
G02*
X102570000Y-41602500I0J-147500D01*
G01*
X102570000Y-41897500D01*
G75*
G02*
X102422500Y-42045000I-147500J0D01*
G01*
X102077500Y-42045000D01*
G75*
G02*
X101930000Y-41897500I0J147500D01*
G01*
X101930000Y-41602500D01*
G75*
G02*
X102077500Y-41455000I147500J0D01*
G01*
G37*
G36*
G01*
X102077500Y-42425000D02*
X102422500Y-42425000D01*
G75*
G02*
X102570000Y-42572500I0J-147500D01*
G01*
X102570000Y-42867500D01*
G75*
G02*
X102422500Y-43015000I-147500J0D01*
G01*
X102077500Y-43015000D01*
G75*
G02*
X101930000Y-42867500I0J147500D01*
G01*
X101930000Y-42572500D01*
G75*
G02*
X102077500Y-42425000I147500J0D01*
G01*
G37*
%TD*%
%TO.C,R8*%
G36*
G01*
X96077500Y-41485000D02*
X96422500Y-41485000D01*
G75*
G02*
X96570000Y-41632500I0J-147500D01*
G01*
X96570000Y-41927500D01*
G75*
G02*
X96422500Y-42075000I-147500J0D01*
G01*
X96077500Y-42075000D01*
G75*
G02*
X95930000Y-41927500I0J147500D01*
G01*
X95930000Y-41632500D01*
G75*
G02*
X96077500Y-41485000I147500J0D01*
G01*
G37*
G36*
G01*
X96077500Y-42455000D02*
X96422500Y-42455000D01*
G75*
G02*
X96570000Y-42602500I0J-147500D01*
G01*
X96570000Y-42897500D01*
G75*
G02*
X96422500Y-43045000I-147500J0D01*
G01*
X96077500Y-43045000D01*
G75*
G02*
X95930000Y-42897500I0J147500D01*
G01*
X95930000Y-42602500D01*
G75*
G02*
X96077500Y-42455000I147500J0D01*
G01*
G37*
%TD*%
%TO.C,R3*%
G36*
G01*
X83675000Y-40922500D02*
X83675000Y-40577500D01*
G75*
G02*
X83822500Y-40430000I147500J0D01*
G01*
X84117500Y-40430000D01*
G75*
G02*
X84265000Y-40577500I0J-147500D01*
G01*
X84265000Y-40922500D01*
G75*
G02*
X84117500Y-41070000I-147500J0D01*
G01*
X83822500Y-41070000D01*
G75*
G02*
X83675000Y-40922500I0J147500D01*
G01*
G37*
G36*
G01*
X82705000Y-40922500D02*
X82705000Y-40577500D01*
G75*
G02*
X82852500Y-40430000I147500J0D01*
G01*
X83147500Y-40430000D01*
G75*
G02*
X83295000Y-40577500I0J-147500D01*
G01*
X83295000Y-40922500D01*
G75*
G02*
X83147500Y-41070000I-147500J0D01*
G01*
X82852500Y-41070000D01*
G75*
G02*
X82705000Y-40922500I0J147500D01*
G01*
G37*
%TD*%
%TO.C,R4*%
G36*
G01*
X94827500Y-40455000D02*
X95172500Y-40455000D01*
G75*
G02*
X95320000Y-40602500I0J-147500D01*
G01*
X95320000Y-40897500D01*
G75*
G02*
X95172500Y-41045000I-147500J0D01*
G01*
X94827500Y-41045000D01*
G75*
G02*
X94680000Y-40897500I0J147500D01*
G01*
X94680000Y-40602500D01*
G75*
G02*
X94827500Y-40455000I147500J0D01*
G01*
G37*
G36*
G01*
X94827500Y-41425000D02*
X95172500Y-41425000D01*
G75*
G02*
X95320000Y-41572500I0J-147500D01*
G01*
X95320000Y-41867500D01*
G75*
G02*
X95172500Y-42015000I-147500J0D01*
G01*
X94827500Y-42015000D01*
G75*
G02*
X94680000Y-41867500I0J147500D01*
G01*
X94680000Y-41572500D01*
G75*
G02*
X94827500Y-41425000I147500J0D01*
G01*
G37*
%TD*%
%TO.C,U1*%
G36*
G01*
X38550000Y-54287500D02*
X38550000Y-54612500D01*
G75*
G02*
X38387500Y-54775000I-162500J0D01*
G01*
X37492500Y-54775000D01*
G75*
G02*
X37330000Y-54612500I0J162500D01*
G01*
X37330000Y-54287500D01*
G75*
G02*
X37492500Y-54125000I162500J0D01*
G01*
X38387500Y-54125000D01*
G75*
G02*
X38550000Y-54287500I0J-162500D01*
G01*
G37*
G36*
G01*
X38550000Y-52387500D02*
X38550000Y-52712500D01*
G75*
G02*
X38387500Y-52875000I-162500J0D01*
G01*
X37492500Y-52875000D01*
G75*
G02*
X37330000Y-52712500I0J162500D01*
G01*
X37330000Y-52387500D01*
G75*
G02*
X37492500Y-52225000I162500J0D01*
G01*
X38387500Y-52225000D01*
G75*
G02*
X38550000Y-52387500I0J-162500D01*
G01*
G37*
G36*
G01*
X41170000Y-52387500D02*
X41170000Y-52712500D01*
G75*
G02*
X41007500Y-52875000I-162500J0D01*
G01*
X40112500Y-52875000D01*
G75*
G02*
X39950000Y-52712500I0J162500D01*
G01*
X39950000Y-52387500D01*
G75*
G02*
X40112500Y-52225000I162500J0D01*
G01*
X41007500Y-52225000D01*
G75*
G02*
X41170000Y-52387500I0J-162500D01*
G01*
G37*
G36*
G01*
X41170000Y-53337500D02*
X41170000Y-53662500D01*
G75*
G02*
X41007500Y-53825000I-162500J0D01*
G01*
X40112500Y-53825000D01*
G75*
G02*
X39950000Y-53662500I0J162500D01*
G01*
X39950000Y-53337500D01*
G75*
G02*
X40112500Y-53175000I162500J0D01*
G01*
X41007500Y-53175000D01*
G75*
G02*
X41170000Y-53337500I0J-162500D01*
G01*
G37*
G36*
G01*
X41170000Y-54287500D02*
X41170000Y-54612500D01*
G75*
G02*
X41007500Y-54775000I-162500J0D01*
G01*
X40112500Y-54775000D01*
G75*
G02*
X39950000Y-54612500I0J162500D01*
G01*
X39950000Y-54287500D01*
G75*
G02*
X40112500Y-54125000I162500J0D01*
G01*
X41007500Y-54125000D01*
G75*
G02*
X41170000Y-54287500I0J-162500D01*
G01*
G37*
%TD*%
%TO.C,U2*%
G36*
G01*
X88550000Y-54287500D02*
X88550000Y-54612500D01*
G75*
G02*
X88387500Y-54775000I-162500J0D01*
G01*
X87492500Y-54775000D01*
G75*
G02*
X87330000Y-54612500I0J162500D01*
G01*
X87330000Y-54287500D01*
G75*
G02*
X87492500Y-54125000I162500J0D01*
G01*
X88387500Y-54125000D01*
G75*
G02*
X88550000Y-54287500I0J-162500D01*
G01*
G37*
G36*
G01*
X88550000Y-52387500D02*
X88550000Y-52712500D01*
G75*
G02*
X88387500Y-52875000I-162500J0D01*
G01*
X87492500Y-52875000D01*
G75*
G02*
X87330000Y-52712500I0J162500D01*
G01*
X87330000Y-52387500D01*
G75*
G02*
X87492500Y-52225000I162500J0D01*
G01*
X88387500Y-52225000D01*
G75*
G02*
X88550000Y-52387500I0J-162500D01*
G01*
G37*
G36*
G01*
X91170000Y-52387500D02*
X91170000Y-52712500D01*
G75*
G02*
X91007500Y-52875000I-162500J0D01*
G01*
X90112500Y-52875000D01*
G75*
G02*
X89950000Y-52712500I0J162500D01*
G01*
X89950000Y-52387500D01*
G75*
G02*
X90112500Y-52225000I162500J0D01*
G01*
X91007500Y-52225000D01*
G75*
G02*
X91170000Y-52387500I0J-162500D01*
G01*
G37*
G36*
G01*
X91170000Y-53337500D02*
X91170000Y-53662500D01*
G75*
G02*
X91007500Y-53825000I-162500J0D01*
G01*
X90112500Y-53825000D01*
G75*
G02*
X89950000Y-53662500I0J162500D01*
G01*
X89950000Y-53337500D01*
G75*
G02*
X90112500Y-53175000I162500J0D01*
G01*
X91007500Y-53175000D01*
G75*
G02*
X91170000Y-53337500I0J-162500D01*
G01*
G37*
G36*
G01*
X91170000Y-54287500D02*
X91170000Y-54612500D01*
G75*
G02*
X91007500Y-54775000I-162500J0D01*
G01*
X90112500Y-54775000D01*
G75*
G02*
X89950000Y-54612500I0J162500D01*
G01*
X89950000Y-54287500D01*
G75*
G02*
X90112500Y-54125000I162500J0D01*
G01*
X91007500Y-54125000D01*
G75*
G02*
X91170000Y-54287500I0J-162500D01*
G01*
G37*
%TD*%
%TO.C,C3*%
G36*
G01*
X36672500Y-54060000D02*
X36327500Y-54060000D01*
G75*
G02*
X36180000Y-53912500I0J147500D01*
G01*
X36180000Y-53617500D01*
G75*
G02*
X36327500Y-53470000I147500J0D01*
G01*
X36672500Y-53470000D01*
G75*
G02*
X36820000Y-53617500I0J-147500D01*
G01*
X36820000Y-53912500D01*
G75*
G02*
X36672500Y-54060000I-147500J0D01*
G01*
G37*
G36*
G01*
X36672500Y-55030000D02*
X36327500Y-55030000D01*
G75*
G02*
X36180000Y-54882500I0J147500D01*
G01*
X36180000Y-54587500D01*
G75*
G02*
X36327500Y-54440000I147500J0D01*
G01*
X36672500Y-54440000D01*
G75*
G02*
X36820000Y-54587500I0J-147500D01*
G01*
X36820000Y-54882500D01*
G75*
G02*
X36672500Y-55030000I-147500J0D01*
G01*
G37*
%TD*%
%TO.C,C4*%
G36*
G01*
X86672500Y-55015000D02*
X86327500Y-55015000D01*
G75*
G02*
X86180000Y-54867500I0J147500D01*
G01*
X86180000Y-54572500D01*
G75*
G02*
X86327500Y-54425000I147500J0D01*
G01*
X86672500Y-54425000D01*
G75*
G02*
X86820000Y-54572500I0J-147500D01*
G01*
X86820000Y-54867500D01*
G75*
G02*
X86672500Y-55015000I-147500J0D01*
G01*
G37*
G36*
G01*
X86672500Y-54045000D02*
X86327500Y-54045000D01*
G75*
G02*
X86180000Y-53897500I0J147500D01*
G01*
X86180000Y-53602500D01*
G75*
G02*
X86327500Y-53455000I147500J0D01*
G01*
X86672500Y-53455000D01*
G75*
G02*
X86820000Y-53602500I0J-147500D01*
G01*
X86820000Y-53897500D01*
G75*
G02*
X86672500Y-54045000I-147500J0D01*
G01*
G37*
%TD*%
D14*
%TO.C,D1*%
X35000000Y-58600000D03*
D15*
X35000000Y-56225000D03*
%TD*%
%TO.C,D4*%
X85000000Y-56225000D03*
D14*
X85000000Y-58600000D03*
%TD*%
%TO.C,R1*%
G36*
G01*
X34543750Y-52137500D02*
X35456250Y-52137500D01*
G75*
G02*
X35700000Y-52381250I0J-243750D01*
G01*
X35700000Y-52868750D01*
G75*
G02*
X35456250Y-53112500I-243750J0D01*
G01*
X34543750Y-53112500D01*
G75*
G02*
X34300000Y-52868750I0J243750D01*
G01*
X34300000Y-52381250D01*
G75*
G02*
X34543750Y-52137500I243750J0D01*
G01*
G37*
G36*
G01*
X34543750Y-54012500D02*
X35456250Y-54012500D01*
G75*
G02*
X35700000Y-54256250I0J-243750D01*
G01*
X35700000Y-54743750D01*
G75*
G02*
X35456250Y-54987500I-243750J0D01*
G01*
X34543750Y-54987500D01*
G75*
G02*
X34300000Y-54743750I0J243750D01*
G01*
X34300000Y-54256250D01*
G75*
G02*
X34543750Y-54012500I243750J0D01*
G01*
G37*
%TD*%
%TO.C,R2*%
G36*
G01*
X84543750Y-54012500D02*
X85456250Y-54012500D01*
G75*
G02*
X85700000Y-54256250I0J-243750D01*
G01*
X85700000Y-54743750D01*
G75*
G02*
X85456250Y-54987500I-243750J0D01*
G01*
X84543750Y-54987500D01*
G75*
G02*
X84300000Y-54743750I0J243750D01*
G01*
X84300000Y-54256250D01*
G75*
G02*
X84543750Y-54012500I243750J0D01*
G01*
G37*
G36*
G01*
X84543750Y-52137500D02*
X85456250Y-52137500D01*
G75*
G02*
X85700000Y-52381250I0J-243750D01*
G01*
X85700000Y-52868750D01*
G75*
G02*
X85456250Y-53112500I-243750J0D01*
G01*
X84543750Y-53112500D01*
G75*
G02*
X84300000Y-52868750I0J243750D01*
G01*
X84300000Y-52381250D01*
G75*
G02*
X84543750Y-52137500I243750J0D01*
G01*
G37*
%TD*%
%TO.C,C5*%
G36*
G01*
X51993750Y-65500000D02*
X52506250Y-65500000D01*
G75*
G02*
X52725000Y-65718750I0J-218750D01*
G01*
X52725000Y-66156250D01*
G75*
G02*
X52506250Y-66375000I-218750J0D01*
G01*
X51993750Y-66375000D01*
G75*
G02*
X51775000Y-66156250I0J218750D01*
G01*
X51775000Y-65718750D01*
G75*
G02*
X51993750Y-65500000I218750J0D01*
G01*
G37*
G36*
G01*
X51993750Y-63925000D02*
X52506250Y-63925000D01*
G75*
G02*
X52725000Y-64143750I0J-218750D01*
G01*
X52725000Y-64581250D01*
G75*
G02*
X52506250Y-64800000I-218750J0D01*
G01*
X51993750Y-64800000D01*
G75*
G02*
X51775000Y-64581250I0J218750D01*
G01*
X51775000Y-64143750D01*
G75*
G02*
X51993750Y-63925000I218750J0D01*
G01*
G37*
%TD*%
%TO.C,C6*%
G36*
G01*
X88993750Y-65462500D02*
X89506250Y-65462500D01*
G75*
G02*
X89725000Y-65681250I0J-218750D01*
G01*
X89725000Y-66118750D01*
G75*
G02*
X89506250Y-66337500I-218750J0D01*
G01*
X88993750Y-66337500D01*
G75*
G02*
X88775000Y-66118750I0J218750D01*
G01*
X88775000Y-65681250D01*
G75*
G02*
X88993750Y-65462500I218750J0D01*
G01*
G37*
G36*
G01*
X88993750Y-63887500D02*
X89506250Y-63887500D01*
G75*
G02*
X89725000Y-64106250I0J-218750D01*
G01*
X89725000Y-64543750D01*
G75*
G02*
X89506250Y-64762500I-218750J0D01*
G01*
X88993750Y-64762500D01*
G75*
G02*
X88775000Y-64543750I0J218750D01*
G01*
X88775000Y-64106250D01*
G75*
G02*
X88993750Y-63887500I218750J0D01*
G01*
G37*
%TD*%
M02*
