%TF.GenerationSoftware,KiCad,Pcbnew,(5.1.8)-1*%
%TF.CreationDate,2020-12-11T20:24:20+03:00*%
%TF.ProjectId,ledboard,6c656462-6f61-4726-942e-6b696361645f,v0.4.0*%
%TF.SameCoordinates,Original*%
%TF.FileFunction,Copper,L2,Bot*%
%TF.FilePolarity,Positive*%
%FSLAX46Y46*%
G04 Gerber Fmt 4.6, Leading zero omitted, Abs format (unit mm)*
G04 Created by KiCad (PCBNEW (5.1.8)-1) date 2020-12-11 20:24:20*
%MOMM*%
%LPD*%
G01*
G04 APERTURE LIST*
%TA.AperFunction,Profile*%
%ADD10C,0.050000*%
%TD*%
%TA.AperFunction,ComponentPad*%
%ADD11C,5.400000*%
%TD*%
%TA.AperFunction,ComponentPad*%
%ADD12O,1.700000X1.700000*%
%TD*%
%TA.AperFunction,ComponentPad*%
%ADD13R,1.700000X1.700000*%
%TD*%
%TA.AperFunction,ComponentPad*%
%ADD14C,1.650000*%
%TD*%
%TA.AperFunction,ComponentPad*%
%ADD15R,1.650000X1.650000*%
%TD*%
%TA.AperFunction,ComponentPad*%
%ADD16O,2.000000X1.905000*%
%TD*%
%TA.AperFunction,ComponentPad*%
%ADD17R,2.000000X1.905000*%
%TD*%
%TA.AperFunction,ComponentPad*%
%ADD18O,0.850000X0.850000*%
%TD*%
%TA.AperFunction,ComponentPad*%
%ADD19R,0.850000X0.850000*%
%TD*%
%TA.AperFunction,ComponentPad*%
%ADD20C,1.600000*%
%TD*%
%TA.AperFunction,ComponentPad*%
%ADD21R,1.600000X1.600000*%
%TD*%
%TA.AperFunction,ComponentPad*%
%ADD22C,0.650000*%
%TD*%
%TA.AperFunction,ViaPad*%
%ADD23C,0.500000*%
%TD*%
%TA.AperFunction,ViaPad*%
%ADD24C,0.800000*%
%TD*%
%TA.AperFunction,Conductor*%
%ADD25C,0.250000*%
%TD*%
%TA.AperFunction,Conductor*%
%ADD26C,0.200000*%
%TD*%
%TA.AperFunction,Conductor*%
%ADD27C,0.300000*%
%TD*%
%TA.AperFunction,Conductor*%
%ADD28C,0.500000*%
%TD*%
%TA.AperFunction,Conductor*%
%ADD29C,0.254000*%
%TD*%
%TA.AperFunction,Conductor*%
%ADD30C,0.100000*%
%TD*%
G04 APERTURE END LIST*
D10*
X31040000Y-88340000D02*
G75*
G02*
X30960000Y-88260000I0J80000D01*
G01*
X30960000Y-31210000D02*
G75*
G02*
X31040000Y-31130000I80000J0D01*
G01*
X116850000Y-31100000D02*
G75*
G02*
X116920000Y-31170000I0J-70000D01*
G01*
X116920000Y-88250000D02*
G75*
G02*
X116860000Y-88310000I-60000J0D01*
G01*
X81780000Y-88290000D02*
X116860000Y-88310000D01*
X116920000Y-88250000D02*
X116920000Y-31170000D01*
X116850000Y-31100000D02*
X31040000Y-31130000D01*
X30960000Y-31210000D02*
X30960000Y-88260000D01*
X31040000Y-88340000D02*
X58850000Y-88310000D01*
X58850000Y-88310000D02*
X58860000Y-44800000D01*
X81790000Y-44800000D02*
X81780000Y-88290000D01*
X58860000Y-44800000D02*
X81790000Y-44800000D01*
D11*
%TO.P,REF\u002A\u002A,1*%
%TO.N,N/C*%
X34610000Y-84420000D03*
%TD*%
%TO.P,REF\u002A\u002A,1*%
%TO.N,N/C*%
X92610000Y-84420000D03*
%TD*%
%TO.P,REF\u002A\u002A,1*%
%TO.N,N/C*%
X92610000Y-35420000D03*
%TD*%
%TO.P,REF\u002A\u002A,1*%
%TO.N,N/C*%
X34610000Y-35420000D03*
%TD*%
D12*
%TO.P,J7,40*%
%TO.N,N/C*%
X88090000Y-34350000D03*
%TO.P,J7,39*%
X88090000Y-36890000D03*
%TO.P,J7,38*%
X85550000Y-34350000D03*
%TO.P,J7,37*%
X85550000Y-36890000D03*
%TO.P,J7,36*%
X83010000Y-34350000D03*
%TO.P,J7,35*%
X83010000Y-36890000D03*
%TO.P,J7,34*%
X80470000Y-34350000D03*
%TO.P,J7,33*%
%TO.N,/CTRL_R*%
X80470000Y-36890000D03*
%TO.P,J7,32*%
%TO.N,N/C*%
X77930000Y-34350000D03*
%TO.P,J7,31*%
%TO.N,/PWM_LED*%
X77930000Y-36890000D03*
%TO.P,J7,30*%
%TO.N,N/C*%
X75390000Y-34350000D03*
%TO.P,J7,29*%
%TO.N,/USR_LED_B*%
X75390000Y-36890000D03*
%TO.P,J7,28*%
%TO.N,N/C*%
X72850000Y-34350000D03*
%TO.P,J7,27*%
X72850000Y-36890000D03*
%TO.P,J7,26*%
X70310000Y-34350000D03*
%TO.P,J7,25*%
%TO.N,GND*%
X70310000Y-36890000D03*
%TO.P,J7,24*%
%TO.N,N/C*%
X67770000Y-34350000D03*
%TO.P,J7,23*%
X67770000Y-36890000D03*
%TO.P,J7,22*%
X65230000Y-34350000D03*
%TO.P,J7,21*%
X65230000Y-36890000D03*
%TO.P,J7,20*%
X62690000Y-34350000D03*
%TO.P,J7,19*%
X62690000Y-36890000D03*
%TO.P,J7,18*%
X60150000Y-34350000D03*
%TO.P,J7,17*%
X60150000Y-36890000D03*
%TO.P,J7,16*%
X57610000Y-34350000D03*
%TO.P,J7,15*%
%TO.N,/FAN_PIN*%
X57610000Y-36890000D03*
%TO.P,J7,14*%
%TO.N,N/C*%
X55070000Y-34350000D03*
%TO.P,J7,13*%
X55070000Y-36890000D03*
%TO.P,J7,12*%
%TO.N,/CTRL_L*%
X52530000Y-34350000D03*
%TO.P,J7,11*%
%TO.N,N/C*%
X52530000Y-36890000D03*
%TO.P,J7,10*%
X49990000Y-34350000D03*
%TO.P,J7,9*%
X49990000Y-36890000D03*
%TO.P,J7,8*%
X47450000Y-34350000D03*
%TO.P,J7,7*%
%TO.N,/USR_LED_A*%
X47450000Y-36890000D03*
%TO.P,J7,6*%
%TO.N,N/C*%
X44910000Y-34350000D03*
%TO.P,J7,5*%
X44910000Y-36890000D03*
%TO.P,J7,4*%
%TO.N,+5V*%
X42370000Y-34350000D03*
%TO.P,J7,3*%
%TO.N,N/C*%
X42370000Y-36890000D03*
%TO.P,J7,2*%
%TO.N,+5V*%
X39830000Y-34350000D03*
D13*
%TO.P,J7,1*%
%TO.N,N/C*%
X39830000Y-36890000D03*
%TD*%
D14*
%TO.P,J8,2*%
%TO.N,GND*%
X111740000Y-39560000D03*
D15*
%TO.P,J8,1*%
%TO.N,+12V*%
X111740000Y-34480000D03*
%TD*%
D16*
%TO.P,M1,3*%
%TO.N,+5V*%
X85070000Y-76390000D03*
%TO.P,M1,2*%
%TO.N,Net-(M1-Pad2)*%
X85070000Y-73850000D03*
D17*
%TO.P,M1,1*%
%TO.N,Net-(J6-Pad1)*%
X85070000Y-71310000D03*
%TD*%
D18*
%TO.P,J6,2*%
%TO.N,GND*%
X109450000Y-75270000D03*
D19*
%TO.P,J6,1*%
%TO.N,Net-(J6-Pad1)*%
X109450000Y-76270000D03*
%TD*%
D18*
%TO.P,J5,3*%
%TO.N,/PWM_LED*%
X109450000Y-70460000D03*
%TO.P,J5,2*%
%TO.N,+5V*%
X109450000Y-71460000D03*
D19*
%TO.P,J5,1*%
%TO.N,GND*%
X109450000Y-72460000D03*
%TD*%
D20*
%TO.P,C12,2*%
%TO.N,GND*%
X35580000Y-71310000D03*
D21*
%TO.P,C12,1*%
%TO.N,+5V*%
X38080000Y-71310000D03*
%TD*%
D22*
%TO.P,D2,3*%
%TO.N,GND*%
X43750000Y-49650000D03*
X45000000Y-48400000D03*
X45000000Y-49650000D03*
X46250000Y-48400000D03*
X46250000Y-49650000D03*
X46250000Y-47150000D03*
X45000000Y-47150000D03*
X43750000Y-47150000D03*
X43750000Y-48400000D03*
%TD*%
%TO.P,D3,3*%
%TO.N,GND*%
X46250000Y-59150000D03*
X45000000Y-60400000D03*
X45000000Y-59150000D03*
X43750000Y-60400000D03*
X43750000Y-59150000D03*
X43750000Y-61650000D03*
X45000000Y-61650000D03*
X46250000Y-61650000D03*
X46250000Y-60400000D03*
%TD*%
%TO.P,D5,3*%
%TO.N,GND*%
X93750000Y-49650000D03*
X95000000Y-48400000D03*
X95000000Y-49650000D03*
X96250000Y-48400000D03*
X96250000Y-49650000D03*
X96250000Y-47150000D03*
X95000000Y-47150000D03*
X93750000Y-47150000D03*
X93750000Y-48400000D03*
%TD*%
%TO.P,D6,3*%
%TO.N,GND*%
X96250000Y-59150000D03*
X95000000Y-60400000D03*
X95000000Y-59150000D03*
X93750000Y-60400000D03*
X93750000Y-59150000D03*
X93750000Y-61650000D03*
X95000000Y-61650000D03*
X96250000Y-61650000D03*
X96250000Y-60400000D03*
%TD*%
%TO.P,J1,1*%
%TO.N,/USR_LED_A*%
%TA.AperFunction,ComponentPad*%
G36*
G01*
X39075000Y-41400000D02*
X39925000Y-41400000D01*
G75*
G02*
X40350000Y-41825000I0J-425000D01*
G01*
X40350000Y-42675000D01*
G75*
G02*
X39925000Y-43100000I-425000J0D01*
G01*
X39075000Y-43100000D01*
G75*
G02*
X38650000Y-42675000I0J425000D01*
G01*
X38650000Y-41825000D01*
G75*
G02*
X39075000Y-41400000I425000J0D01*
G01*
G37*
%TD.AperFunction*%
D12*
%TO.P,J1,2*%
%TO.N,/CTRL_L*%
X42040000Y-42250000D03*
%TD*%
%TO.P,J2,1*%
%TO.N,+12V*%
%TA.AperFunction,ComponentPad*%
G36*
G01*
X55850000Y-62575000D02*
X55850000Y-63425000D01*
G75*
G02*
X55425000Y-63850000I-425000J0D01*
G01*
X54575000Y-63850000D01*
G75*
G02*
X54150000Y-63425000I0J425000D01*
G01*
X54150000Y-62575000D01*
G75*
G02*
X54575000Y-62150000I425000J0D01*
G01*
X55425000Y-62150000D01*
G75*
G02*
X55850000Y-62575000I0J-425000D01*
G01*
G37*
%TD.AperFunction*%
%TO.P,J2,2*%
%TO.N,GND*%
X55000000Y-65540000D03*
%TD*%
%TO.P,J3,2*%
%TO.N,/CTRL_R*%
X97960000Y-42250000D03*
%TO.P,J3,1*%
%TO.N,/USR_LED_B*%
%TA.AperFunction,ComponentPad*%
G36*
G01*
X100925000Y-43100000D02*
X100075000Y-43100000D01*
G75*
G02*
X99650000Y-42675000I0J425000D01*
G01*
X99650000Y-41825000D01*
G75*
G02*
X100075000Y-41400000I425000J0D01*
G01*
X100925000Y-41400000D01*
G75*
G02*
X101350000Y-41825000I0J-425000D01*
G01*
X101350000Y-42675000D01*
G75*
G02*
X100925000Y-43100000I-425000J0D01*
G01*
G37*
%TD.AperFunction*%
%TD*%
%TO.P,J4,2*%
%TO.N,GND*%
X85000000Y-65540000D03*
%TO.P,J4,1*%
%TO.N,+12V*%
%TA.AperFunction,ComponentPad*%
G36*
G01*
X85850000Y-62575000D02*
X85850000Y-63425000D01*
G75*
G02*
X85425000Y-63850000I-425000J0D01*
G01*
X84575000Y-63850000D01*
G75*
G02*
X84150000Y-63425000I0J425000D01*
G01*
X84150000Y-62575000D01*
G75*
G02*
X84575000Y-62150000I425000J0D01*
G01*
X85425000Y-62150000D01*
G75*
G02*
X85850000Y-62575000I0J-425000D01*
G01*
G37*
%TD.AperFunction*%
%TD*%
D23*
%TO.N,*%
X55250000Y-52250000D03*
X50250000Y-54250000D03*
X44250000Y-52250000D03*
X46970000Y-39560000D03*
D24*
X42250000Y-52500000D03*
D23*
X55250000Y-54250000D03*
X51250000Y-42250000D03*
X50272000Y-39560000D03*
X97750000Y-62250000D03*
%TO.N,/CTRL_L*%
X40560000Y-51500000D03*
X45866646Y-42044452D03*
X50780000Y-38290000D03*
D24*
%TO.N,/USR_LED_A*%
X42250000Y-54500000D03*
D23*
%TO.N,/USR_LED_B*%
X92690000Y-43370000D03*
%TO.N,/CTRL_R*%
X90560000Y-51500000D03*
%TO.N,Net-(C11-Pad1)*%
X40620000Y-72580000D03*
X48240000Y-70040000D03*
%TO.N,+5V*%
X40620000Y-78930000D03*
X40620000Y-76390000D03*
X39350000Y-67500000D03*
X57050000Y-66760000D03*
%TO.N,/PWM_LED*%
X79990000Y-39560000D03*
%TO.N,/FAN_PIN*%
X88880000Y-38290000D03*
X105220000Y-73170000D03*
%TO.N,GND*%
X99750000Y-62250000D03*
D24*
X92500000Y-52500000D03*
X92500000Y-54500000D03*
D23*
X101750000Y-62250000D03*
X103750000Y-62250000D03*
X105750000Y-60250000D03*
X107950000Y-61940000D03*
X97750000Y-66250000D03*
X93750000Y-66250000D03*
X91750000Y-64250000D03*
X91750000Y-66250000D03*
X93750000Y-64250000D03*
X95750000Y-64250000D03*
X97750000Y-64250000D03*
X103750000Y-60250000D03*
X103750000Y-58250000D03*
X105750000Y-58250000D03*
X105750000Y-56250000D03*
X103750000Y-56250000D03*
X103750000Y-54250000D03*
X105750000Y-54250000D03*
X105750000Y-52250000D03*
X103750000Y-52250000D03*
X103750000Y-50250000D03*
X105750000Y-50250000D03*
X105750000Y-48250000D03*
X105750000Y-46250000D03*
X103750000Y-46250000D03*
X103750000Y-48250000D03*
X99750000Y-56250000D03*
X97750000Y-56250000D03*
X97750000Y-58250000D03*
X95750000Y-56250000D03*
X93750000Y-56250000D03*
X91750000Y-56250000D03*
X91750000Y-58250000D03*
X91750000Y-62250000D03*
X97750000Y-54250000D03*
X95750000Y-54250000D03*
X93750000Y-54250000D03*
X93750000Y-52250000D03*
X95750000Y-52250000D03*
X97750000Y-52250000D03*
X99750000Y-54250000D03*
X99750000Y-52250000D03*
X99750000Y-50250000D03*
X97750000Y-50250000D03*
X91750000Y-50250000D03*
X97750000Y-46250000D03*
X97750000Y-44250000D03*
X99750000Y-44250000D03*
X101750000Y-44250000D03*
X95750000Y-44250000D03*
X93750000Y-44250000D03*
X91750000Y-44250000D03*
X91750000Y-46250000D03*
X89750000Y-44250000D03*
X89750000Y-46250000D03*
X87750000Y-46250000D03*
X87750000Y-44250000D03*
X85750000Y-44250000D03*
X85750000Y-46250000D03*
X85750000Y-48250000D03*
X85750000Y-50250000D03*
X93750000Y-42250000D03*
X91750000Y-42250000D03*
X89750000Y-42250000D03*
X87750000Y-42250000D03*
X38250000Y-66250000D03*
X34250000Y-62250000D03*
X42250000Y-66250000D03*
X44250000Y-66250000D03*
X46250000Y-66250000D03*
X48250000Y-66250000D03*
X48250000Y-64250000D03*
X46250000Y-64250000D03*
X44250000Y-64250000D03*
X42250000Y-64250000D03*
X38250000Y-64250000D03*
X48250000Y-62250000D03*
X48250000Y-58250000D03*
X42250000Y-58250000D03*
X42250000Y-62250000D03*
X40250000Y-58250000D03*
X48250000Y-56250000D03*
X46250000Y-56250000D03*
X44250000Y-56250000D03*
X40250000Y-56250000D03*
X48250000Y-54250000D03*
X46250000Y-54250000D03*
X50250000Y-56250000D03*
X55250000Y-58250000D03*
X55250000Y-56250000D03*
X53250000Y-54250000D03*
X53250000Y-56250000D03*
X53250000Y-52250000D03*
X53250000Y-50250000D03*
X55250000Y-50250000D03*
X50250000Y-52250000D03*
X50250000Y-50250000D03*
X48250000Y-50250000D03*
X48250000Y-52250000D03*
X46250000Y-52250000D03*
X48250000Y-46250000D03*
X55250000Y-48250000D03*
X55250000Y-46250000D03*
X53250000Y-44250000D03*
X55250000Y-44250000D03*
X55250000Y-42250000D03*
X53250000Y-42250000D03*
X51250000Y-44250000D03*
X49250000Y-44250000D03*
X47250000Y-44250000D03*
X45250000Y-44250000D03*
X43250000Y-44250000D03*
X34250000Y-50250000D03*
X34250000Y-48250000D03*
X34250000Y-46250000D03*
X36250000Y-46250000D03*
X36250000Y-48250000D03*
X36250000Y-50250000D03*
X38250000Y-46250000D03*
X40250000Y-46250000D03*
X40250000Y-44250000D03*
X38250000Y-44250000D03*
X62000000Y-41900000D03*
X64000000Y-41900000D03*
X66000000Y-41900000D03*
X68000000Y-41900000D03*
X70000000Y-41900000D03*
X72000000Y-41900000D03*
X74000000Y-41900000D03*
X76000000Y-41900000D03*
X78000000Y-41900000D03*
X80000000Y-41900000D03*
X82000000Y-41900000D03*
X55250000Y-60250000D03*
X50250000Y-62250000D03*
X52250000Y-62250000D03*
X42250000Y-56250000D03*
X44250000Y-54250000D03*
X109200000Y-43370000D03*
X107930000Y-44640000D03*
X85750000Y-42500000D03*
X90750000Y-42500000D03*
X102250000Y-43750000D03*
X96250000Y-43750000D03*
D24*
X92500000Y-53500000D03*
D23*
X88880000Y-39560000D03*
X39350000Y-52260000D03*
X41200000Y-76060000D03*
X41170000Y-78440000D03*
D24*
%TO.N,+12V*%
X35000000Y-60750000D03*
D23*
X104120000Y-67500000D03*
X110470000Y-47180000D03*
X40620000Y-80200000D03*
X52050000Y-72580000D03*
%TO.N,Net-(J7-Pad28)*%
X60000000Y-41900000D03*
%TO.N,Net-(J7-Pad27)*%
X58000000Y-41900000D03*
%TD*%
D25*
%TO.N,*%
X55787001Y-51712999D02*
X55250000Y-52250000D01*
X55787001Y-36618237D02*
X55787001Y-51712999D01*
X56792239Y-35612999D02*
X55787001Y-36618237D01*
X58327001Y-35612999D02*
X56792239Y-35612999D01*
X59830000Y-34110000D02*
X58327001Y-35612999D01*
X54750000Y-36650000D02*
X54750000Y-41972998D01*
X54750000Y-41972998D02*
X47724999Y-48997999D01*
X47724999Y-48997999D02*
X47724999Y-54502001D01*
X47724999Y-54502001D02*
X47997999Y-54775001D01*
X47997999Y-54775001D02*
X49724999Y-54775001D01*
X49724999Y-54775001D02*
X50250000Y-54250000D01*
X45649999Y-50850001D02*
X44250000Y-52250000D01*
X45649999Y-44627003D02*
X45649999Y-50850001D01*
X45775001Y-44502001D02*
X45649999Y-44627003D01*
X45775001Y-43552003D02*
X45775001Y-44502001D01*
X44724999Y-42502001D02*
X45775001Y-43552003D01*
X44724999Y-41805001D02*
X44724999Y-42502001D01*
X46970000Y-39560000D02*
X44724999Y-41805001D01*
X43461999Y-47750001D02*
X43149999Y-48062001D01*
X44038001Y-47750001D02*
X43461999Y-47750001D01*
X44350001Y-47438001D02*
X44038001Y-47750001D01*
X44350001Y-46861999D02*
X44350001Y-47438001D01*
X43149999Y-51600001D02*
X42250000Y-52500000D01*
X44324989Y-46836987D02*
X44350001Y-46861999D01*
X46092999Y-39871303D02*
X44324989Y-41639312D01*
X44324989Y-41639312D02*
X44324989Y-46836987D01*
X46092999Y-35147001D02*
X46092999Y-39871303D01*
X43149999Y-48062001D02*
X43149999Y-51600001D01*
X47130000Y-34110000D02*
X46092999Y-35147001D01*
X55250000Y-54250000D02*
X56187011Y-53312989D01*
X56187011Y-53312989D02*
X56187011Y-41772989D01*
X59830000Y-38130000D02*
X59830000Y-36650000D01*
X56187011Y-41772989D02*
X59830000Y-38130000D01*
X56187011Y-52089991D02*
X56187011Y-41772989D01*
X47832310Y-55175011D02*
X53101991Y-55175011D01*
X47324989Y-54667690D02*
X47832310Y-55175011D01*
X46850001Y-45427001D02*
X47324989Y-44952013D01*
X42574001Y-55175001D02*
X46850001Y-50899001D01*
X41925999Y-55175001D02*
X42574001Y-55175001D01*
X46850001Y-50899001D02*
X46850001Y-45427001D01*
X41574999Y-54824001D02*
X41925999Y-55175001D01*
X47324989Y-44952013D02*
X47324989Y-54667690D01*
X41574999Y-52175999D02*
X41574999Y-54824001D01*
X53101991Y-55175011D02*
X56187011Y-52089991D01*
X42749989Y-51001009D02*
X41574999Y-52175999D01*
X42749989Y-47262009D02*
X42749989Y-51001009D01*
X43924979Y-46087019D02*
X42749989Y-47262009D01*
X43924979Y-41064979D02*
X43924979Y-46087019D01*
X39510000Y-36650000D02*
X43924979Y-41064979D01*
X51250000Y-40538000D02*
X51250000Y-42250000D01*
X50272000Y-39560000D02*
X51250000Y-40538000D01*
D26*
%TO.N,/CTRL_L*%
X42040000Y-50020000D02*
X40560000Y-51500000D01*
X42040000Y-42250000D02*
X42040000Y-50020000D01*
D25*
X45866646Y-42044452D02*
X49621098Y-38290000D01*
X49621098Y-38290000D02*
X50780000Y-38290000D01*
%TO.N,/USR_LED_B*%
X92690000Y-42412998D02*
X92690000Y-43370000D01*
X91652001Y-41374999D02*
X92690000Y-42412998D01*
X75070000Y-36650000D02*
X79794999Y-41374999D01*
X79794999Y-41374999D02*
X91652001Y-41374999D01*
D26*
%TO.N,/CTRL_R*%
X97009998Y-42250000D02*
X97960000Y-42250000D01*
X90560000Y-48699998D02*
X90560000Y-51500000D01*
X97009998Y-42250000D02*
X90560000Y-48699998D01*
D25*
X95795001Y-40085001D02*
X97960000Y-42250000D01*
X83585001Y-40085001D02*
X95795001Y-40085001D01*
X80150000Y-36650000D02*
X83585001Y-40085001D01*
%TO.N,Net-(C11-Pad1)*%
X40620000Y-72580000D02*
X43160000Y-70040000D01*
X43160000Y-70040000D02*
X48240000Y-70040000D01*
D27*
%TO.N,+5V*%
X40620000Y-78930000D02*
X40620000Y-76390000D01*
D26*
X38080000Y-71310000D02*
X38080000Y-68770000D01*
X38080000Y-68770000D02*
X39350000Y-67500000D01*
D27*
X56310000Y-67500000D02*
X57050000Y-66760000D01*
X39350000Y-67500000D02*
X56310000Y-67500000D01*
%TO.N,/PWM_LED*%
X79990000Y-39560000D02*
X77610000Y-37180000D01*
X77610000Y-37180000D02*
X77610000Y-36650000D01*
%TO.N,Net-(J6-Pad1)*%
X85070000Y-71310000D02*
X101100000Y-71310000D01*
X101100000Y-71310000D02*
X106060000Y-76270000D01*
X106060000Y-76270000D02*
X109450000Y-76270000D01*
%TO.N,/FAN_PIN*%
X89295001Y-38705001D02*
X88880000Y-38290000D01*
X103265001Y-38705001D02*
X89295001Y-38705001D01*
X106660000Y-42100000D02*
X103265001Y-38705001D01*
X104890000Y-68870000D02*
X106660000Y-67500000D01*
X106660000Y-67500000D02*
X106660000Y-42100000D01*
X105220000Y-73170000D02*
X104890000Y-68870000D01*
%TO.N,GND*%
X107950000Y-61940000D02*
X107950000Y-70960000D01*
X107950000Y-70960000D02*
X109450000Y-72460000D01*
D25*
X109200000Y-43370000D02*
X107930000Y-44640000D01*
D28*
X87770000Y-36650000D02*
X87770000Y-39400000D01*
X88880000Y-39560000D02*
X87930000Y-39560000D01*
X87930000Y-39560000D02*
X87770000Y-39400000D01*
D26*
X41200000Y-78410000D02*
X41170000Y-78440000D01*
X41200000Y-76060000D02*
X41200000Y-78410000D01*
D28*
%TO.N,+12V*%
X55000000Y-63000000D02*
X37250000Y-63000000D01*
X37250000Y-63000000D02*
X35000000Y-60750000D01*
X85000000Y-63000000D02*
X84380000Y-63000000D01*
X84380000Y-63000000D02*
X83800000Y-62420000D01*
X83800000Y-61150000D02*
X83800000Y-44640000D01*
X83800000Y-62420000D02*
X83800000Y-61150000D01*
X57130000Y-61541765D02*
X55868520Y-62803245D01*
X55868520Y-62803245D02*
X55475010Y-62803245D01*
X57130000Y-43370000D02*
X57130000Y-61541765D01*
X55475010Y-62803245D02*
X55335882Y-62664117D01*
X82530000Y-43370000D02*
X57130000Y-43370000D01*
X89353002Y-61150000D02*
X95703002Y-67500000D01*
X95703002Y-67500000D02*
X104120000Y-67500000D01*
X110470000Y-43936998D02*
X109200000Y-42666998D01*
X110470000Y-47180000D02*
X110470000Y-43936998D01*
X109200000Y-37020000D02*
X111740000Y-34480000D01*
X109200000Y-42666998D02*
X109200000Y-37020000D01*
X85070000Y-61150000D02*
X83800000Y-62420000D01*
X89353002Y-61150000D02*
X85070000Y-61150000D01*
D27*
X53320000Y-73850000D02*
X52050000Y-72580000D01*
X53320000Y-78930000D02*
X53320000Y-73850000D01*
X50780000Y-81470000D02*
X53320000Y-78930000D01*
X41890000Y-81470000D02*
X50780000Y-81470000D01*
X40620000Y-80200000D02*
X41890000Y-81470000D01*
D28*
X83800000Y-44640000D02*
X82530000Y-43370000D01*
%TD*%
D29*
%TO.N,GND*%
X116268000Y-87657663D02*
X93452204Y-87644655D01*
X93580450Y-87619145D01*
X94185925Y-87368349D01*
X94730839Y-87004250D01*
X95194250Y-86540839D01*
X95558349Y-85995925D01*
X95809145Y-85390450D01*
X95937000Y-84747681D01*
X95937000Y-84092319D01*
X95809145Y-83449550D01*
X95558349Y-82844075D01*
X95194250Y-82299161D01*
X94730839Y-81835750D01*
X94185925Y-81471651D01*
X93580450Y-81220855D01*
X92937681Y-81093000D01*
X92282319Y-81093000D01*
X91639550Y-81220855D01*
X91034075Y-81471651D01*
X90489161Y-81835750D01*
X90025750Y-82299161D01*
X89661651Y-82844075D01*
X89410855Y-83449550D01*
X89283000Y-84092319D01*
X89283000Y-84747681D01*
X89410855Y-85390450D01*
X89661651Y-85995925D01*
X90025750Y-86540839D01*
X90489161Y-87004250D01*
X91034075Y-87368349D01*
X91639550Y-87619145D01*
X91762954Y-87643692D01*
X82432149Y-87638372D01*
X82437148Y-65896890D01*
X83558524Y-65896890D01*
X83603175Y-66044099D01*
X83728359Y-66306920D01*
X83902412Y-66540269D01*
X84118645Y-66735178D01*
X84368748Y-66884157D01*
X84643109Y-66981481D01*
X84873000Y-66860814D01*
X84873000Y-65667000D01*
X85127000Y-65667000D01*
X85127000Y-66860814D01*
X85356891Y-66981481D01*
X85631252Y-66884157D01*
X85881355Y-66735178D01*
X86097588Y-66540269D01*
X86271641Y-66306920D01*
X86396825Y-66044099D01*
X86441476Y-65896890D01*
X86320155Y-65667000D01*
X85127000Y-65667000D01*
X84873000Y-65667000D01*
X83679845Y-65667000D01*
X83558524Y-65896890D01*
X82437148Y-65896890D01*
X82441992Y-44832100D01*
X82445154Y-44800000D01*
X82438682Y-44734294D01*
X82432594Y-44672334D01*
X82432573Y-44672264D01*
X82432565Y-44672186D01*
X82413132Y-44608125D01*
X82395340Y-44549423D01*
X82395306Y-44549360D01*
X82395283Y-44549283D01*
X82363113Y-44489097D01*
X82334824Y-44436142D01*
X82334779Y-44436087D01*
X82334741Y-44436016D01*
X82291756Y-44383639D01*
X82253370Y-44336843D01*
X82253314Y-44336797D01*
X82253264Y-44336736D01*
X82201909Y-44294590D01*
X82154109Y-44255343D01*
X82154044Y-44255308D01*
X82153984Y-44255259D01*
X82138532Y-44247000D01*
X82166735Y-44247000D01*
X82923001Y-45003266D01*
X82923000Y-61193078D01*
X82923001Y-61193088D01*
X82923000Y-62376920D01*
X82918757Y-62420000D01*
X82935690Y-62591922D01*
X82957984Y-62665415D01*
X82985838Y-62757236D01*
X83067273Y-62909591D01*
X83176867Y-63043133D01*
X83210332Y-63070597D01*
X83519967Y-63380232D01*
X83519967Y-63425000D01*
X83540239Y-63630827D01*
X83600277Y-63828744D01*
X83697772Y-64011145D01*
X83828979Y-64171021D01*
X83988855Y-64302228D01*
X84099995Y-64361633D01*
X83902412Y-64539731D01*
X83728359Y-64773080D01*
X83603175Y-65035901D01*
X83558524Y-65183110D01*
X83679845Y-65413000D01*
X84873000Y-65413000D01*
X84873000Y-65393000D01*
X85127000Y-65393000D01*
X85127000Y-65413000D01*
X86320155Y-65413000D01*
X86441476Y-65183110D01*
X86396825Y-65035901D01*
X86271641Y-64773080D01*
X86097588Y-64539731D01*
X85900005Y-64361633D01*
X86011145Y-64302228D01*
X86171021Y-64171021D01*
X86302228Y-64011145D01*
X86399723Y-63828744D01*
X86459761Y-63630827D01*
X86480033Y-63425000D01*
X86480033Y-62575000D01*
X86459761Y-62369173D01*
X86399723Y-62171256D01*
X86322617Y-62027000D01*
X88989737Y-62027000D01*
X95052410Y-68089674D01*
X95079869Y-68123133D01*
X95113328Y-68150592D01*
X95113330Y-68150594D01*
X95150636Y-68181210D01*
X95213410Y-68232727D01*
X95365765Y-68314162D01*
X95531080Y-68364310D01*
X95659923Y-68377000D01*
X95659924Y-68377000D01*
X95703001Y-68381243D01*
X95746078Y-68377000D01*
X104206377Y-68377000D01*
X104248842Y-68368553D01*
X104291922Y-68364310D01*
X104296498Y-68362922D01*
X104254967Y-68422264D01*
X104212212Y-68482460D01*
X104211096Y-68484950D01*
X104209535Y-68487181D01*
X104179829Y-68554737D01*
X104149631Y-68622136D01*
X104149023Y-68624793D01*
X104147926Y-68627288D01*
X104131962Y-68699376D01*
X104115500Y-68771338D01*
X104115422Y-68774062D01*
X104114833Y-68776723D01*
X104113239Y-68850601D01*
X104111135Y-68924330D01*
X104117991Y-68964802D01*
X104414146Y-72823793D01*
X104376703Y-72914189D01*
X104343000Y-73083623D01*
X104343000Y-73256377D01*
X104376703Y-73425811D01*
X104420578Y-73531734D01*
X101676413Y-70787570D01*
X101652080Y-70757920D01*
X101533766Y-70660823D01*
X101398784Y-70588673D01*
X101252319Y-70544243D01*
X101138166Y-70533000D01*
X101138163Y-70533000D01*
X101100000Y-70529241D01*
X101061837Y-70533000D01*
X86700033Y-70533000D01*
X86700033Y-70357500D01*
X86687927Y-70234587D01*
X86652075Y-70116397D01*
X86593853Y-70007472D01*
X86515501Y-69911999D01*
X86420028Y-69833647D01*
X86311103Y-69775425D01*
X86192913Y-69739573D01*
X86070000Y-69727467D01*
X84070000Y-69727467D01*
X83947087Y-69739573D01*
X83828897Y-69775425D01*
X83719972Y-69833647D01*
X83624499Y-69911999D01*
X83546147Y-70007472D01*
X83487925Y-70116397D01*
X83452073Y-70234587D01*
X83439967Y-70357500D01*
X83439967Y-72262500D01*
X83452073Y-72385413D01*
X83487925Y-72503603D01*
X83546147Y-72612528D01*
X83624499Y-72708001D01*
X83719972Y-72786353D01*
X83811815Y-72835444D01*
X83702840Y-72968231D01*
X83556172Y-73242627D01*
X83465854Y-73540364D01*
X83435358Y-73850000D01*
X83465854Y-74159636D01*
X83556172Y-74457373D01*
X83702840Y-74731769D01*
X83900221Y-74972279D01*
X84080220Y-75120000D01*
X83900221Y-75267721D01*
X83702840Y-75508231D01*
X83556172Y-75782627D01*
X83465854Y-76080364D01*
X83435358Y-76390000D01*
X83465854Y-76699636D01*
X83556172Y-76997373D01*
X83702840Y-77271769D01*
X83900221Y-77512279D01*
X84140731Y-77709660D01*
X84415127Y-77856328D01*
X84712864Y-77946646D01*
X84944908Y-77969500D01*
X85195092Y-77969500D01*
X85427136Y-77946646D01*
X85724873Y-77856328D01*
X85999269Y-77709660D01*
X86239779Y-77512279D01*
X86437160Y-77271769D01*
X86583828Y-76997373D01*
X86674146Y-76699636D01*
X86704642Y-76390000D01*
X86674146Y-76080364D01*
X86583828Y-75782627D01*
X86437160Y-75508231D01*
X86239779Y-75267721D01*
X86059780Y-75120000D01*
X86239779Y-74972279D01*
X86437160Y-74731769D01*
X86583828Y-74457373D01*
X86674146Y-74159636D01*
X86704642Y-73850000D01*
X86674146Y-73540364D01*
X86583828Y-73242627D01*
X86437160Y-72968231D01*
X86328185Y-72835444D01*
X86420028Y-72786353D01*
X86515501Y-72708001D01*
X86593853Y-72612528D01*
X86652075Y-72503603D01*
X86687927Y-72385413D01*
X86700033Y-72262500D01*
X86700033Y-72087000D01*
X100778157Y-72087000D01*
X105483592Y-76792436D01*
X105507920Y-76822080D01*
X105537564Y-76846408D01*
X105537565Y-76846409D01*
X105626233Y-76919177D01*
X105682131Y-76949055D01*
X105761216Y-76991327D01*
X105907681Y-77035757D01*
X106021834Y-77047000D01*
X106021843Y-77047000D01*
X106059999Y-77050758D01*
X106098155Y-77047000D01*
X108502765Y-77047000D01*
X108579499Y-77140501D01*
X108674972Y-77218853D01*
X108783897Y-77277075D01*
X108902087Y-77312927D01*
X109025000Y-77325033D01*
X109875000Y-77325033D01*
X109997913Y-77312927D01*
X110116103Y-77277075D01*
X110225028Y-77218853D01*
X110320501Y-77140501D01*
X110398853Y-77045028D01*
X110457075Y-76936103D01*
X110492927Y-76817913D01*
X110505033Y-76695000D01*
X110505033Y-75845000D01*
X110492927Y-75722087D01*
X110457075Y-75603897D01*
X110455993Y-75601873D01*
X110458872Y-75595250D01*
X110469540Y-75560062D01*
X110342257Y-75397000D01*
X110317456Y-75397000D01*
X110225028Y-75321147D01*
X110116103Y-75262925D01*
X109997913Y-75227073D01*
X109875000Y-75214967D01*
X109025000Y-75214967D01*
X108902087Y-75227073D01*
X108783897Y-75262925D01*
X108674972Y-75321147D01*
X108582544Y-75397000D01*
X108557743Y-75397000D01*
X108482807Y-75493000D01*
X106381844Y-75493000D01*
X105868782Y-74979938D01*
X108430460Y-74979938D01*
X108557743Y-75143000D01*
X109323000Y-75143000D01*
X109323000Y-74376379D01*
X109577000Y-74376379D01*
X109577000Y-75143000D01*
X110342257Y-75143000D01*
X110469540Y-74979938D01*
X110458872Y-74944750D01*
X110376034Y-74754178D01*
X110257609Y-74583429D01*
X110108148Y-74439064D01*
X109933394Y-74326632D01*
X109740064Y-74250453D01*
X109577000Y-74376379D01*
X109323000Y-74376379D01*
X109159936Y-74250453D01*
X108966606Y-74326632D01*
X108791852Y-74439064D01*
X108642391Y-74583429D01*
X108523966Y-74754178D01*
X108441128Y-74944750D01*
X108430460Y-74979938D01*
X105868782Y-74979938D01*
X104858266Y-73969422D01*
X104964189Y-74013297D01*
X105133623Y-74047000D01*
X105306377Y-74047000D01*
X105475811Y-74013297D01*
X105635415Y-73947187D01*
X105779055Y-73851210D01*
X105901210Y-73729055D01*
X105997187Y-73585415D01*
X106063297Y-73425811D01*
X106097000Y-73256377D01*
X106097000Y-73083623D01*
X106063297Y-72914189D01*
X106051207Y-72885000D01*
X108386928Y-72885000D01*
X108399188Y-73009482D01*
X108435498Y-73129180D01*
X108494463Y-73239494D01*
X108573815Y-73336185D01*
X108670506Y-73415537D01*
X108780820Y-73474502D01*
X108900518Y-73510812D01*
X109025000Y-73523072D01*
X109164250Y-73520000D01*
X109323000Y-73361250D01*
X109323000Y-72587000D01*
X109577000Y-72587000D01*
X109577000Y-73361250D01*
X109735750Y-73520000D01*
X109875000Y-73523072D01*
X109999482Y-73510812D01*
X110119180Y-73474502D01*
X110229494Y-73415537D01*
X110326185Y-73336185D01*
X110405537Y-73239494D01*
X110464502Y-73129180D01*
X110500812Y-73009482D01*
X110513072Y-72885000D01*
X110510000Y-72745750D01*
X110351250Y-72587000D01*
X109577000Y-72587000D01*
X109323000Y-72587000D01*
X108548750Y-72587000D01*
X108390000Y-72745750D01*
X108386928Y-72885000D01*
X106051207Y-72885000D01*
X105997187Y-72754585D01*
X105963539Y-72704227D01*
X105912180Y-72035000D01*
X108386928Y-72035000D01*
X108390000Y-72174250D01*
X108548750Y-72333000D01*
X108862987Y-72333000D01*
X108951691Y-72392270D01*
X109143143Y-72471572D01*
X109346387Y-72512000D01*
X109553613Y-72512000D01*
X109756857Y-72471572D01*
X109948309Y-72392270D01*
X110037013Y-72333000D01*
X110351250Y-72333000D01*
X110510000Y-72174250D01*
X110513072Y-72035000D01*
X110500812Y-71910518D01*
X110464502Y-71790820D01*
X110457259Y-71777270D01*
X110461572Y-71766857D01*
X110502000Y-71563613D01*
X110502000Y-71356387D01*
X110461572Y-71153143D01*
X110382270Y-70961691D01*
X110381140Y-70960000D01*
X110382270Y-70958309D01*
X110461572Y-70766857D01*
X110502000Y-70563613D01*
X110502000Y-70356387D01*
X110461572Y-70153143D01*
X110382270Y-69961691D01*
X110267142Y-69789389D01*
X110120611Y-69642858D01*
X109948309Y-69527730D01*
X109756857Y-69448428D01*
X109553613Y-69408000D01*
X109346387Y-69408000D01*
X109143143Y-69448428D01*
X108951691Y-69527730D01*
X108779389Y-69642858D01*
X108632858Y-69789389D01*
X108517730Y-69961691D01*
X108438428Y-70153143D01*
X108398000Y-70356387D01*
X108398000Y-70563613D01*
X108438428Y-70766857D01*
X108517730Y-70958309D01*
X108518860Y-70960000D01*
X108517730Y-70961691D01*
X108438428Y-71153143D01*
X108398000Y-71356387D01*
X108398000Y-71563613D01*
X108438428Y-71766857D01*
X108442741Y-71777270D01*
X108435498Y-71790820D01*
X108399188Y-71910518D01*
X108386928Y-72035000D01*
X105912180Y-72035000D01*
X105696767Y-69228110D01*
X107083915Y-68154442D01*
X107093765Y-68149177D01*
X107144331Y-68107679D01*
X107165769Y-68091086D01*
X107173846Y-68083458D01*
X107212080Y-68052080D01*
X107229360Y-68031025D01*
X107249159Y-68012324D01*
X107277802Y-67971997D01*
X107309177Y-67933766D01*
X107322015Y-67909749D01*
X107337788Y-67887541D01*
X107358011Y-67842405D01*
X107381327Y-67798784D01*
X107389235Y-67772716D01*
X107400369Y-67747865D01*
X107411395Y-67699663D01*
X107425757Y-67652319D01*
X107428427Y-67625205D01*
X107434499Y-67598663D01*
X107435909Y-67549239D01*
X107437000Y-67538166D01*
X107437000Y-67511023D01*
X107438865Y-67445670D01*
X107437000Y-67434661D01*
X107437000Y-42138163D01*
X107440759Y-42100000D01*
X107435230Y-42043866D01*
X107425757Y-41947681D01*
X107381327Y-41801216D01*
X107346495Y-41736051D01*
X107309178Y-41666234D01*
X107236409Y-41577565D01*
X107236408Y-41577564D01*
X107212080Y-41547920D01*
X107182436Y-41523592D01*
X103841414Y-38182571D01*
X103817081Y-38152921D01*
X103698767Y-38055824D01*
X103563785Y-37983674D01*
X103417320Y-37939244D01*
X103303167Y-37928001D01*
X103303164Y-37928001D01*
X103265001Y-37924242D01*
X103226838Y-37928001D01*
X94807088Y-37928001D01*
X95194250Y-37540839D01*
X95542262Y-37020000D01*
X108318757Y-37020000D01*
X108323001Y-37063089D01*
X108323000Y-42623918D01*
X108318757Y-42666998D01*
X108335690Y-42838920D01*
X108370777Y-42954585D01*
X108385838Y-43004234D01*
X108467273Y-43156589D01*
X108576867Y-43290131D01*
X108610332Y-43317595D01*
X109593001Y-44300264D01*
X109593000Y-47093623D01*
X109593000Y-47266377D01*
X109601447Y-47308843D01*
X109605690Y-47351921D01*
X109618256Y-47393345D01*
X109626703Y-47435811D01*
X109643273Y-47475814D01*
X109655838Y-47517236D01*
X109676243Y-47555411D01*
X109692813Y-47595415D01*
X109716869Y-47631417D01*
X109737273Y-47669591D01*
X109764734Y-47703053D01*
X109788790Y-47739055D01*
X109819404Y-47769669D01*
X109846867Y-47803133D01*
X109880332Y-47830597D01*
X109910945Y-47861210D01*
X109946943Y-47885263D01*
X109980408Y-47912727D01*
X110018587Y-47933134D01*
X110054585Y-47957187D01*
X110094585Y-47973755D01*
X110132763Y-47994162D01*
X110174189Y-48006729D01*
X110214189Y-48023297D01*
X110256652Y-48031744D01*
X110298078Y-48044310D01*
X110341158Y-48048553D01*
X110383623Y-48057000D01*
X110426921Y-48057000D01*
X110470000Y-48061243D01*
X110513079Y-48057000D01*
X110556377Y-48057000D01*
X110598843Y-48048553D01*
X110641921Y-48044310D01*
X110683345Y-48031744D01*
X110725811Y-48023297D01*
X110765814Y-48006727D01*
X110807236Y-47994162D01*
X110845411Y-47973757D01*
X110885415Y-47957187D01*
X110921417Y-47933131D01*
X110959591Y-47912727D01*
X110993053Y-47885266D01*
X111029055Y-47861210D01*
X111059669Y-47830596D01*
X111093133Y-47803133D01*
X111120597Y-47769668D01*
X111151210Y-47739055D01*
X111175263Y-47703057D01*
X111202727Y-47669592D01*
X111223134Y-47631413D01*
X111247187Y-47595415D01*
X111263755Y-47555415D01*
X111284162Y-47517237D01*
X111296729Y-47475811D01*
X111313297Y-47435811D01*
X111321744Y-47393348D01*
X111334310Y-47351922D01*
X111338553Y-47308842D01*
X111347000Y-47266377D01*
X111347000Y-43980067D01*
X111351242Y-43936997D01*
X111347000Y-43893928D01*
X111347000Y-43893919D01*
X111334310Y-43765076D01*
X111284162Y-43599761D01*
X111202727Y-43447406D01*
X111093133Y-43313865D01*
X111059668Y-43286401D01*
X110077000Y-42303733D01*
X110077000Y-40570551D01*
X110909054Y-40570551D01*
X110983663Y-40817073D01*
X111243439Y-40940473D01*
X111522297Y-41010823D01*
X111809521Y-41025417D01*
X112094074Y-40983697D01*
X112365020Y-40887265D01*
X112496337Y-40817073D01*
X112570946Y-40570551D01*
X111740000Y-39739605D01*
X110909054Y-40570551D01*
X110077000Y-40570551D01*
X110077000Y-39629521D01*
X110274583Y-39629521D01*
X110316303Y-39914074D01*
X110412735Y-40185020D01*
X110482927Y-40316337D01*
X110729449Y-40390946D01*
X111560395Y-39560000D01*
X111919605Y-39560000D01*
X112750551Y-40390946D01*
X112997073Y-40316337D01*
X113120473Y-40056561D01*
X113190823Y-39777703D01*
X113205417Y-39490479D01*
X113163697Y-39205926D01*
X113067265Y-38934980D01*
X112997073Y-38803663D01*
X112750551Y-38729054D01*
X111919605Y-39560000D01*
X111560395Y-39560000D01*
X110729449Y-38729054D01*
X110482927Y-38803663D01*
X110359527Y-39063439D01*
X110289177Y-39342297D01*
X110274583Y-39629521D01*
X110077000Y-39629521D01*
X110077000Y-38549449D01*
X110909054Y-38549449D01*
X111740000Y-39380395D01*
X112570946Y-38549449D01*
X112496337Y-38302927D01*
X112236561Y-38179527D01*
X111957703Y-38109177D01*
X111670479Y-38094583D01*
X111385926Y-38136303D01*
X111114980Y-38232735D01*
X110983663Y-38302927D01*
X110909054Y-38549449D01*
X110077000Y-38549449D01*
X110077000Y-37383265D01*
X111525232Y-35935033D01*
X112565000Y-35935033D01*
X112687913Y-35922927D01*
X112806103Y-35887075D01*
X112915028Y-35828853D01*
X113010501Y-35750501D01*
X113088853Y-35655028D01*
X113147075Y-35546103D01*
X113182927Y-35427913D01*
X113195033Y-35305000D01*
X113195033Y-33655000D01*
X113182927Y-33532087D01*
X113147075Y-33413897D01*
X113088853Y-33304972D01*
X113010501Y-33209499D01*
X112915028Y-33131147D01*
X112806103Y-33072925D01*
X112687913Y-33037073D01*
X112565000Y-33024967D01*
X110915000Y-33024967D01*
X110792087Y-33037073D01*
X110673897Y-33072925D01*
X110564972Y-33131147D01*
X110469499Y-33209499D01*
X110391147Y-33304972D01*
X110332925Y-33413897D01*
X110297073Y-33532087D01*
X110284967Y-33655000D01*
X110284967Y-34694768D01*
X108610327Y-36369408D01*
X108576868Y-36396867D01*
X108549409Y-36430326D01*
X108549406Y-36430329D01*
X108467274Y-36530408D01*
X108385838Y-36682764D01*
X108335690Y-36848078D01*
X108318757Y-37020000D01*
X95542262Y-37020000D01*
X95558349Y-36995925D01*
X95809145Y-36390450D01*
X95937000Y-35747681D01*
X95937000Y-35092319D01*
X95809145Y-34449550D01*
X95558349Y-33844075D01*
X95194250Y-33299161D01*
X94730839Y-32835750D01*
X94185925Y-32471651D01*
X93580450Y-32220855D01*
X92937681Y-32093000D01*
X92282319Y-32093000D01*
X91639550Y-32220855D01*
X91034075Y-32471651D01*
X90489161Y-32835750D01*
X90025750Y-33299161D01*
X89661651Y-33844075D01*
X89549269Y-34115389D01*
X89510240Y-33919175D01*
X89398901Y-33650378D01*
X89237261Y-33408467D01*
X89031533Y-33202739D01*
X88789622Y-33041099D01*
X88520825Y-32929760D01*
X88235472Y-32873000D01*
X87944528Y-32873000D01*
X87659175Y-32929760D01*
X87390378Y-33041099D01*
X87148467Y-33202739D01*
X86942739Y-33408467D01*
X86820000Y-33592159D01*
X86697261Y-33408467D01*
X86491533Y-33202739D01*
X86249622Y-33041099D01*
X85980825Y-32929760D01*
X85695472Y-32873000D01*
X85404528Y-32873000D01*
X85119175Y-32929760D01*
X84850378Y-33041099D01*
X84608467Y-33202739D01*
X84402739Y-33408467D01*
X84280000Y-33592159D01*
X84157261Y-33408467D01*
X83951533Y-33202739D01*
X83709622Y-33041099D01*
X83440825Y-32929760D01*
X83155472Y-32873000D01*
X82864528Y-32873000D01*
X82579175Y-32929760D01*
X82310378Y-33041099D01*
X82068467Y-33202739D01*
X81862739Y-33408467D01*
X81740000Y-33592159D01*
X81617261Y-33408467D01*
X81411533Y-33202739D01*
X81169622Y-33041099D01*
X80900825Y-32929760D01*
X80615472Y-32873000D01*
X80324528Y-32873000D01*
X80039175Y-32929760D01*
X79770378Y-33041099D01*
X79528467Y-33202739D01*
X79322739Y-33408467D01*
X79200000Y-33592159D01*
X79077261Y-33408467D01*
X78871533Y-33202739D01*
X78629622Y-33041099D01*
X78360825Y-32929760D01*
X78075472Y-32873000D01*
X77784528Y-32873000D01*
X77499175Y-32929760D01*
X77230378Y-33041099D01*
X76988467Y-33202739D01*
X76782739Y-33408467D01*
X76660000Y-33592159D01*
X76537261Y-33408467D01*
X76331533Y-33202739D01*
X76089622Y-33041099D01*
X75820825Y-32929760D01*
X75535472Y-32873000D01*
X75244528Y-32873000D01*
X74959175Y-32929760D01*
X74690378Y-33041099D01*
X74448467Y-33202739D01*
X74242739Y-33408467D01*
X74120000Y-33592159D01*
X73997261Y-33408467D01*
X73791533Y-33202739D01*
X73549622Y-33041099D01*
X73280825Y-32929760D01*
X72995472Y-32873000D01*
X72704528Y-32873000D01*
X72419175Y-32929760D01*
X72150378Y-33041099D01*
X71908467Y-33202739D01*
X71702739Y-33408467D01*
X71580000Y-33592159D01*
X71457261Y-33408467D01*
X71251533Y-33202739D01*
X71009622Y-33041099D01*
X70740825Y-32929760D01*
X70455472Y-32873000D01*
X70164528Y-32873000D01*
X69879175Y-32929760D01*
X69610378Y-33041099D01*
X69368467Y-33202739D01*
X69162739Y-33408467D01*
X69040000Y-33592159D01*
X68917261Y-33408467D01*
X68711533Y-33202739D01*
X68469622Y-33041099D01*
X68200825Y-32929760D01*
X67915472Y-32873000D01*
X67624528Y-32873000D01*
X67339175Y-32929760D01*
X67070378Y-33041099D01*
X66828467Y-33202739D01*
X66622739Y-33408467D01*
X66500000Y-33592159D01*
X66377261Y-33408467D01*
X66171533Y-33202739D01*
X65929622Y-33041099D01*
X65660825Y-32929760D01*
X65375472Y-32873000D01*
X65084528Y-32873000D01*
X64799175Y-32929760D01*
X64530378Y-33041099D01*
X64288467Y-33202739D01*
X64082739Y-33408467D01*
X63960000Y-33592159D01*
X63837261Y-33408467D01*
X63631533Y-33202739D01*
X63389622Y-33041099D01*
X63120825Y-32929760D01*
X62835472Y-32873000D01*
X62544528Y-32873000D01*
X62259175Y-32929760D01*
X61990378Y-33041099D01*
X61748467Y-33202739D01*
X61542739Y-33408467D01*
X61420000Y-33592159D01*
X61297261Y-33408467D01*
X61091533Y-33202739D01*
X60849622Y-33041099D01*
X60580825Y-32929760D01*
X60295472Y-32873000D01*
X60004528Y-32873000D01*
X59719175Y-32929760D01*
X59450378Y-33041099D01*
X59208467Y-33202739D01*
X59002739Y-33408467D01*
X58880000Y-33592159D01*
X58757261Y-33408467D01*
X58551533Y-33202739D01*
X58309622Y-33041099D01*
X58040825Y-32929760D01*
X57755472Y-32873000D01*
X57464528Y-32873000D01*
X57179175Y-32929760D01*
X56910378Y-33041099D01*
X56668467Y-33202739D01*
X56462739Y-33408467D01*
X56340000Y-33592159D01*
X56217261Y-33408467D01*
X56011533Y-33202739D01*
X55769622Y-33041099D01*
X55500825Y-32929760D01*
X55215472Y-32873000D01*
X54924528Y-32873000D01*
X54639175Y-32929760D01*
X54370378Y-33041099D01*
X54128467Y-33202739D01*
X53922739Y-33408467D01*
X53800000Y-33592159D01*
X53677261Y-33408467D01*
X53471533Y-33202739D01*
X53229622Y-33041099D01*
X52960825Y-32929760D01*
X52675472Y-32873000D01*
X52384528Y-32873000D01*
X52099175Y-32929760D01*
X51830378Y-33041099D01*
X51588467Y-33202739D01*
X51382739Y-33408467D01*
X51260000Y-33592159D01*
X51137261Y-33408467D01*
X50931533Y-33202739D01*
X50689622Y-33041099D01*
X50420825Y-32929760D01*
X50135472Y-32873000D01*
X49844528Y-32873000D01*
X49559175Y-32929760D01*
X49290378Y-33041099D01*
X49048467Y-33202739D01*
X48842739Y-33408467D01*
X48720000Y-33592159D01*
X48597261Y-33408467D01*
X48391533Y-33202739D01*
X48149622Y-33041099D01*
X47880825Y-32929760D01*
X47595472Y-32873000D01*
X47304528Y-32873000D01*
X47019175Y-32929760D01*
X46750378Y-33041099D01*
X46508467Y-33202739D01*
X46302739Y-33408467D01*
X46180000Y-33592159D01*
X46057261Y-33408467D01*
X45851533Y-33202739D01*
X45609622Y-33041099D01*
X45340825Y-32929760D01*
X45055472Y-32873000D01*
X44764528Y-32873000D01*
X44479175Y-32929760D01*
X44210378Y-33041099D01*
X43968467Y-33202739D01*
X43762739Y-33408467D01*
X43640000Y-33592159D01*
X43517261Y-33408467D01*
X43311533Y-33202739D01*
X43069622Y-33041099D01*
X42800825Y-32929760D01*
X42515472Y-32873000D01*
X42224528Y-32873000D01*
X41939175Y-32929760D01*
X41670378Y-33041099D01*
X41428467Y-33202739D01*
X41222739Y-33408467D01*
X41100000Y-33592159D01*
X40977261Y-33408467D01*
X40771533Y-33202739D01*
X40529622Y-33041099D01*
X40260825Y-32929760D01*
X39975472Y-32873000D01*
X39684528Y-32873000D01*
X39399175Y-32929760D01*
X39130378Y-33041099D01*
X38888467Y-33202739D01*
X38682739Y-33408467D01*
X38521099Y-33650378D01*
X38409760Y-33919175D01*
X38353000Y-34204528D01*
X38353000Y-34495472D01*
X38409760Y-34780825D01*
X38521099Y-35049622D01*
X38682739Y-35291533D01*
X38823475Y-35432269D01*
X38738897Y-35457925D01*
X38629972Y-35516147D01*
X38534499Y-35594499D01*
X38456147Y-35689972D01*
X38397925Y-35798897D01*
X38362073Y-35917087D01*
X38349967Y-36040000D01*
X38349967Y-37740000D01*
X38362073Y-37862913D01*
X38397925Y-37981103D01*
X38456147Y-38090028D01*
X38534499Y-38185501D01*
X38629972Y-38263853D01*
X38738897Y-38322075D01*
X38857087Y-38357927D01*
X38980000Y-38370033D01*
X40166545Y-38370033D01*
X42736188Y-40939676D01*
X42470825Y-40829760D01*
X42185472Y-40773000D01*
X41894528Y-40773000D01*
X41609175Y-40829760D01*
X41340378Y-40941099D01*
X41098467Y-41102739D01*
X40892739Y-41308467D01*
X40863126Y-41352787D01*
X40802228Y-41238855D01*
X40671021Y-41078979D01*
X40511145Y-40947772D01*
X40328744Y-40850277D01*
X40130827Y-40790239D01*
X39925000Y-40769967D01*
X39075000Y-40769967D01*
X38869173Y-40790239D01*
X38671256Y-40850277D01*
X38488855Y-40947772D01*
X38328979Y-41078979D01*
X38197772Y-41238855D01*
X38100277Y-41421256D01*
X38040239Y-41619173D01*
X38019967Y-41825000D01*
X38019967Y-42675000D01*
X38040239Y-42880827D01*
X38100277Y-43078744D01*
X38197772Y-43261145D01*
X38328979Y-43421021D01*
X38488855Y-43552228D01*
X38671256Y-43649723D01*
X38869173Y-43709761D01*
X39075000Y-43730033D01*
X39925000Y-43730033D01*
X40130827Y-43709761D01*
X40328744Y-43649723D01*
X40511145Y-43552228D01*
X40671021Y-43421021D01*
X40802228Y-43261145D01*
X40863126Y-43147213D01*
X40892739Y-43191533D01*
X41098467Y-43397261D01*
X41313000Y-43540608D01*
X41313001Y-49718866D01*
X40392789Y-50639079D01*
X40304189Y-50656703D01*
X40144585Y-50722813D01*
X40000945Y-50818790D01*
X39878790Y-50940945D01*
X39782813Y-51084585D01*
X39716703Y-51244189D01*
X39683000Y-51413623D01*
X39683000Y-51586377D01*
X39716703Y-51755811D01*
X39782813Y-51915415D01*
X39878790Y-52059055D01*
X40000945Y-52181210D01*
X40144585Y-52277187D01*
X40304189Y-52343297D01*
X40473623Y-52377000D01*
X40646377Y-52377000D01*
X40815811Y-52343297D01*
X40822999Y-52340320D01*
X40823000Y-54787056D01*
X40819361Y-54824001D01*
X40828995Y-54921811D01*
X40833881Y-54971419D01*
X40844865Y-55007626D01*
X40876881Y-55113170D01*
X40946709Y-55243811D01*
X41011229Y-55322428D01*
X41040683Y-55358318D01*
X41069374Y-55381864D01*
X41368132Y-55680622D01*
X41391682Y-55709318D01*
X41506189Y-55803291D01*
X41636829Y-55873119D01*
X41778581Y-55916120D01*
X41889061Y-55927001D01*
X41889063Y-55927001D01*
X41925999Y-55930639D01*
X41962934Y-55927001D01*
X42537066Y-55927001D01*
X42574001Y-55930639D01*
X42610936Y-55927001D01*
X42610939Y-55927001D01*
X42721419Y-55916120D01*
X42863171Y-55873119D01*
X42993811Y-55803291D01*
X43108318Y-55709318D01*
X43131868Y-55680622D01*
X46572990Y-52239501D01*
X46572990Y-54630744D01*
X46569351Y-54667690D01*
X46583871Y-54815107D01*
X46626871Y-54956859D01*
X46696699Y-55087500D01*
X46731817Y-55130291D01*
X46790673Y-55202007D01*
X46819363Y-55225552D01*
X47274447Y-55680637D01*
X47297993Y-55709328D01*
X47326684Y-55732874D01*
X47412499Y-55803301D01*
X47482327Y-55840624D01*
X47543140Y-55873129D01*
X47684892Y-55916130D01*
X47795372Y-55927011D01*
X47795374Y-55927011D01*
X47832309Y-55930649D01*
X47869245Y-55927011D01*
X53065056Y-55927011D01*
X53101991Y-55930649D01*
X53138926Y-55927011D01*
X53138929Y-55927011D01*
X53249409Y-55916130D01*
X53391161Y-55873129D01*
X53521801Y-55803301D01*
X53636308Y-55709328D01*
X53659858Y-55680632D01*
X54553828Y-54786662D01*
X54568790Y-54809055D01*
X54690945Y-54931210D01*
X54834585Y-55027187D01*
X54994189Y-55093297D01*
X55163623Y-55127000D01*
X55336377Y-55127000D01*
X55505811Y-55093297D01*
X55665415Y-55027187D01*
X55809055Y-54931210D01*
X55931210Y-54809055D01*
X56027187Y-54665415D01*
X56093297Y-54505811D01*
X56102142Y-54461346D01*
X56253001Y-54310487D01*
X56253001Y-61178498D01*
X55830359Y-61601140D01*
X55828744Y-61600277D01*
X55630827Y-61540239D01*
X55425000Y-61519967D01*
X54575000Y-61519967D01*
X54369173Y-61540239D01*
X54171256Y-61600277D01*
X53988855Y-61697772D01*
X53828979Y-61828979D01*
X53697772Y-61988855D01*
X53626070Y-62123000D01*
X37613265Y-62123000D01*
X35999162Y-60508897D01*
X35987533Y-60450435D01*
X35910115Y-60263533D01*
X35797723Y-60095326D01*
X35654674Y-59952277D01*
X35486467Y-59839885D01*
X35299565Y-59762467D01*
X35101151Y-59723000D01*
X34898849Y-59723000D01*
X34700435Y-59762467D01*
X34513533Y-59839885D01*
X34345326Y-59952277D01*
X34202277Y-60095326D01*
X34089885Y-60263533D01*
X34012467Y-60450435D01*
X33973000Y-60648849D01*
X33973000Y-60851151D01*
X34012467Y-61049565D01*
X34089885Y-61236467D01*
X34202277Y-61404674D01*
X34345326Y-61547723D01*
X34513533Y-61660115D01*
X34700435Y-61737533D01*
X34758897Y-61749162D01*
X36599403Y-63589668D01*
X36626867Y-63623133D01*
X36760407Y-63732726D01*
X36760408Y-63732727D01*
X36912763Y-63814162D01*
X37078077Y-63864310D01*
X37250000Y-63881243D01*
X37293079Y-63877000D01*
X53626070Y-63877000D01*
X53697772Y-64011145D01*
X53828979Y-64171021D01*
X53988855Y-64302228D01*
X54099995Y-64361633D01*
X53902412Y-64539731D01*
X53728359Y-64773080D01*
X53603175Y-65035901D01*
X53558524Y-65183110D01*
X53679845Y-65413000D01*
X54873000Y-65413000D01*
X54873000Y-65393000D01*
X55127000Y-65393000D01*
X55127000Y-65413000D01*
X56320155Y-65413000D01*
X56441476Y-65183110D01*
X56396825Y-65035901D01*
X56271641Y-64773080D01*
X56097588Y-64539731D01*
X55900005Y-64361633D01*
X56011145Y-64302228D01*
X56171021Y-64171021D01*
X56302228Y-64011145D01*
X56399723Y-63828744D01*
X56459761Y-63630827D01*
X56478864Y-63436874D01*
X56491653Y-63426378D01*
X56519117Y-63392914D01*
X57719674Y-62192357D01*
X57753133Y-62164898D01*
X57820539Y-62082764D01*
X57834019Y-62066338D01*
X57862727Y-62031357D01*
X57944162Y-61879002D01*
X57994310Y-61713687D01*
X58007000Y-61584844D01*
X58007000Y-61584843D01*
X58011243Y-61541766D01*
X58007000Y-61498689D01*
X58007000Y-44247000D01*
X58511447Y-44247000D01*
X58496142Y-44255176D01*
X58496087Y-44255221D01*
X58496016Y-44255259D01*
X58443639Y-44298244D01*
X58396843Y-44336630D01*
X58396797Y-44336686D01*
X58396736Y-44336736D01*
X58354590Y-44388091D01*
X58315343Y-44435891D01*
X58315308Y-44435956D01*
X58315259Y-44436016D01*
X58283750Y-44494967D01*
X58254775Y-44549145D01*
X58254754Y-44549213D01*
X58254717Y-44549283D01*
X58235181Y-44613685D01*
X58217465Y-44672039D01*
X58217458Y-44672110D01*
X58217435Y-44672186D01*
X58210851Y-44739030D01*
X58208008Y-44767829D01*
X58208008Y-44767897D01*
X58204846Y-44800000D01*
X58207993Y-44831954D01*
X58198150Y-87658703D01*
X35257165Y-87683450D01*
X35580450Y-87619145D01*
X36185925Y-87368349D01*
X36730839Y-87004250D01*
X37194250Y-86540839D01*
X37558349Y-85995925D01*
X37809145Y-85390450D01*
X37937000Y-84747681D01*
X37937000Y-84092319D01*
X37809145Y-83449550D01*
X37558349Y-82844075D01*
X37194250Y-82299161D01*
X36730839Y-81835750D01*
X36185925Y-81471651D01*
X35580450Y-81220855D01*
X34937681Y-81093000D01*
X34282319Y-81093000D01*
X33639550Y-81220855D01*
X33034075Y-81471651D01*
X32489161Y-81835750D01*
X32025750Y-82299161D01*
X31661651Y-82844075D01*
X31612000Y-82963943D01*
X31612000Y-76303623D01*
X39743000Y-76303623D01*
X39743000Y-76476377D01*
X39776703Y-76645811D01*
X39842813Y-76805415D01*
X39843001Y-76805696D01*
X39843000Y-78514305D01*
X39842813Y-78514585D01*
X39776703Y-78674189D01*
X39743000Y-78843623D01*
X39743000Y-79016377D01*
X39776703Y-79185811D01*
X39842813Y-79345415D01*
X39938790Y-79489055D01*
X40014735Y-79565000D01*
X39938790Y-79640945D01*
X39842813Y-79784585D01*
X39776703Y-79944189D01*
X39743000Y-80113623D01*
X39743000Y-80286377D01*
X39776703Y-80455811D01*
X39842813Y-80615415D01*
X39938790Y-80759055D01*
X40060945Y-80881210D01*
X40204585Y-80977187D01*
X40364189Y-81043297D01*
X40364519Y-81043363D01*
X41313592Y-81992436D01*
X41337920Y-82022080D01*
X41367564Y-82046408D01*
X41367565Y-82046409D01*
X41456233Y-82119177D01*
X41591216Y-82191327D01*
X41737681Y-82235757D01*
X41851834Y-82247000D01*
X41851843Y-82247000D01*
X41889999Y-82250758D01*
X41928155Y-82247000D01*
X50741837Y-82247000D01*
X50780000Y-82250759D01*
X50818163Y-82247000D01*
X50818166Y-82247000D01*
X50932319Y-82235757D01*
X51078784Y-82191327D01*
X51213766Y-82119177D01*
X51332080Y-82022080D01*
X51356413Y-81992431D01*
X53842437Y-79506407D01*
X53872080Y-79482080D01*
X53920719Y-79422813D01*
X53969177Y-79363767D01*
X54041327Y-79228784D01*
X54054363Y-79185811D01*
X54085757Y-79082319D01*
X54097000Y-78968166D01*
X54097000Y-78968157D01*
X54100758Y-78930001D01*
X54097000Y-78891845D01*
X54097000Y-73888155D01*
X54100758Y-73849999D01*
X54097000Y-73811843D01*
X54097000Y-73811834D01*
X54085757Y-73697681D01*
X54041327Y-73551216D01*
X54024642Y-73520000D01*
X53969177Y-73416233D01*
X53896409Y-73327565D01*
X53896408Y-73327564D01*
X53872080Y-73297920D01*
X53842436Y-73273592D01*
X52893363Y-72324519D01*
X52893297Y-72324189D01*
X52827187Y-72164585D01*
X52731210Y-72020945D01*
X52609055Y-71898790D01*
X52465415Y-71802813D01*
X52305811Y-71736703D01*
X52136377Y-71703000D01*
X51963623Y-71703000D01*
X51794189Y-71736703D01*
X51634585Y-71802813D01*
X51490945Y-71898790D01*
X51368790Y-72020945D01*
X51272813Y-72164585D01*
X51206703Y-72324189D01*
X51173000Y-72493623D01*
X51173000Y-72666377D01*
X51206703Y-72835811D01*
X51272813Y-72995415D01*
X51368790Y-73139055D01*
X51490945Y-73261210D01*
X51634585Y-73357187D01*
X51794189Y-73423297D01*
X51794519Y-73423363D01*
X52543001Y-74171845D01*
X52543000Y-78608156D01*
X50458157Y-80693000D01*
X42211844Y-80693000D01*
X41463363Y-79944519D01*
X41463297Y-79944189D01*
X41397187Y-79784585D01*
X41301210Y-79640945D01*
X41225265Y-79565000D01*
X41301210Y-79489055D01*
X41397187Y-79345415D01*
X41463297Y-79185811D01*
X41497000Y-79016377D01*
X41497000Y-78843623D01*
X41463297Y-78674189D01*
X41397187Y-78514585D01*
X41397000Y-78514305D01*
X41397000Y-76805695D01*
X41397187Y-76805415D01*
X41463297Y-76645811D01*
X41497000Y-76476377D01*
X41497000Y-76303623D01*
X41463297Y-76134189D01*
X41397187Y-75974585D01*
X41301210Y-75830945D01*
X41179055Y-75708790D01*
X41035415Y-75612813D01*
X40875811Y-75546703D01*
X40706377Y-75513000D01*
X40533623Y-75513000D01*
X40364189Y-75546703D01*
X40204585Y-75612813D01*
X40060945Y-75708790D01*
X39938790Y-75830945D01*
X39842813Y-75974585D01*
X39776703Y-76134189D01*
X39743000Y-76303623D01*
X31612000Y-76303623D01*
X31612000Y-72302702D01*
X34766903Y-72302702D01*
X34838486Y-72546671D01*
X35093996Y-72667571D01*
X35368184Y-72736300D01*
X35650512Y-72750217D01*
X35930130Y-72708787D01*
X36196292Y-72613603D01*
X36321514Y-72546671D01*
X36393097Y-72302702D01*
X35580000Y-71489605D01*
X34766903Y-72302702D01*
X31612000Y-72302702D01*
X31612000Y-71380512D01*
X34139783Y-71380512D01*
X34181213Y-71660130D01*
X34276397Y-71926292D01*
X34343329Y-72051514D01*
X34587298Y-72123097D01*
X35400395Y-71310000D01*
X35759605Y-71310000D01*
X36572702Y-72123097D01*
X36649967Y-72100427D01*
X36649967Y-72110000D01*
X36662073Y-72232913D01*
X36697925Y-72351103D01*
X36756147Y-72460028D01*
X36834499Y-72555501D01*
X36929972Y-72633853D01*
X37038897Y-72692075D01*
X37157087Y-72727927D01*
X37280000Y-72740033D01*
X38880000Y-72740033D01*
X39002913Y-72727927D01*
X39121103Y-72692075D01*
X39230028Y-72633853D01*
X39325501Y-72555501D01*
X39376282Y-72493623D01*
X39743000Y-72493623D01*
X39743000Y-72666377D01*
X39776703Y-72835811D01*
X39842813Y-72995415D01*
X39938790Y-73139055D01*
X40060945Y-73261210D01*
X40204585Y-73357187D01*
X40364189Y-73423297D01*
X40533623Y-73457000D01*
X40706377Y-73457000D01*
X40875811Y-73423297D01*
X41035415Y-73357187D01*
X41179055Y-73261210D01*
X41301210Y-73139055D01*
X41397187Y-72995415D01*
X41463297Y-72835811D01*
X41472142Y-72791346D01*
X43471489Y-70792000D01*
X47786890Y-70792000D01*
X47824585Y-70817187D01*
X47984189Y-70883297D01*
X48153623Y-70917000D01*
X48326377Y-70917000D01*
X48495811Y-70883297D01*
X48655415Y-70817187D01*
X48799055Y-70721210D01*
X48921210Y-70599055D01*
X49017187Y-70455415D01*
X49083297Y-70295811D01*
X49117000Y-70126377D01*
X49117000Y-69953623D01*
X49083297Y-69784189D01*
X49017187Y-69624585D01*
X48921210Y-69480945D01*
X48799055Y-69358790D01*
X48655415Y-69262813D01*
X48495811Y-69196703D01*
X48326377Y-69163000D01*
X48153623Y-69163000D01*
X47984189Y-69196703D01*
X47824585Y-69262813D01*
X47786890Y-69288000D01*
X43196935Y-69288000D01*
X43159999Y-69284362D01*
X43123064Y-69288000D01*
X43123062Y-69288000D01*
X43012582Y-69298881D01*
X42870830Y-69341882D01*
X42810017Y-69374387D01*
X42740189Y-69411710D01*
X42682373Y-69459159D01*
X42625683Y-69505683D01*
X42602137Y-69534374D01*
X40408654Y-71727858D01*
X40364189Y-71736703D01*
X40204585Y-71802813D01*
X40060945Y-71898790D01*
X39938790Y-72020945D01*
X39842813Y-72164585D01*
X39776703Y-72324189D01*
X39743000Y-72493623D01*
X39376282Y-72493623D01*
X39403853Y-72460028D01*
X39462075Y-72351103D01*
X39497927Y-72232913D01*
X39510033Y-72110000D01*
X39510033Y-70510000D01*
X39497927Y-70387087D01*
X39462075Y-70268897D01*
X39403853Y-70159972D01*
X39325501Y-70064499D01*
X39230028Y-69986147D01*
X39121103Y-69927925D01*
X39002913Y-69892073D01*
X38880000Y-69879967D01*
X38807000Y-69879967D01*
X38807000Y-69071132D01*
X39517212Y-68360921D01*
X39605811Y-68343297D01*
X39765415Y-68277187D01*
X39765695Y-68277000D01*
X56271837Y-68277000D01*
X56310000Y-68280759D01*
X56348163Y-68277000D01*
X56348166Y-68277000D01*
X56462319Y-68265757D01*
X56608784Y-68221327D01*
X56743766Y-68149177D01*
X56862080Y-68052080D01*
X56886412Y-68022431D01*
X57305481Y-67603363D01*
X57305811Y-67603297D01*
X57465415Y-67537187D01*
X57609055Y-67441210D01*
X57731210Y-67319055D01*
X57827187Y-67175415D01*
X57893297Y-67015811D01*
X57927000Y-66846377D01*
X57927000Y-66673623D01*
X57893297Y-66504189D01*
X57827187Y-66344585D01*
X57731210Y-66200945D01*
X57609055Y-66078790D01*
X57465415Y-65982813D01*
X57305811Y-65916703D01*
X57136377Y-65883000D01*
X56963623Y-65883000D01*
X56794189Y-65916703D01*
X56634585Y-65982813D01*
X56490945Y-66078790D01*
X56368790Y-66200945D01*
X56272813Y-66344585D01*
X56206703Y-66504189D01*
X56206637Y-66504519D01*
X55988157Y-66723000D01*
X55894865Y-66723000D01*
X56097588Y-66540269D01*
X56271641Y-66306920D01*
X56396825Y-66044099D01*
X56441476Y-65896890D01*
X56320155Y-65667000D01*
X55127000Y-65667000D01*
X55127000Y-65687000D01*
X54873000Y-65687000D01*
X54873000Y-65667000D01*
X53679845Y-65667000D01*
X53558524Y-65896890D01*
X53603175Y-66044099D01*
X53728359Y-66306920D01*
X53902412Y-66540269D01*
X54105135Y-66723000D01*
X39765695Y-66723000D01*
X39765415Y-66722813D01*
X39605811Y-66656703D01*
X39436377Y-66623000D01*
X39263623Y-66623000D01*
X39094189Y-66656703D01*
X38934585Y-66722813D01*
X38790945Y-66818790D01*
X38668790Y-66940945D01*
X38572813Y-67084585D01*
X38506703Y-67244189D01*
X38489079Y-67332788D01*
X37591189Y-68230679D01*
X37563447Y-68253446D01*
X37489709Y-68343297D01*
X37472598Y-68364147D01*
X37405090Y-68490444D01*
X37363520Y-68627483D01*
X37349483Y-68770000D01*
X37353001Y-68805718D01*
X37353001Y-69879967D01*
X37280000Y-69879967D01*
X37157087Y-69892073D01*
X37038897Y-69927925D01*
X36929972Y-69986147D01*
X36834499Y-70064499D01*
X36756147Y-70159972D01*
X36697925Y-70268897D01*
X36662073Y-70387087D01*
X36649967Y-70510000D01*
X36649967Y-70519573D01*
X36572702Y-70496903D01*
X35759605Y-71310000D01*
X35400395Y-71310000D01*
X34587298Y-70496903D01*
X34343329Y-70568486D01*
X34222429Y-70823996D01*
X34153700Y-71098184D01*
X34139783Y-71380512D01*
X31612000Y-71380512D01*
X31612000Y-70317298D01*
X34766903Y-70317298D01*
X35580000Y-71130395D01*
X36393097Y-70317298D01*
X36321514Y-70073329D01*
X36066004Y-69952429D01*
X35791816Y-69883700D01*
X35509488Y-69869783D01*
X35229870Y-69911213D01*
X34963708Y-70006397D01*
X34838486Y-70073329D01*
X34766903Y-70317298D01*
X31612000Y-70317298D01*
X31612000Y-36876057D01*
X31661651Y-36995925D01*
X32025750Y-37540839D01*
X32489161Y-38004250D01*
X33034075Y-38368349D01*
X33639550Y-38619145D01*
X34282319Y-38747000D01*
X34937681Y-38747000D01*
X35580450Y-38619145D01*
X36185925Y-38368349D01*
X36730839Y-38004250D01*
X37194250Y-37540839D01*
X37558349Y-36995925D01*
X37809145Y-36390450D01*
X37937000Y-35747681D01*
X37937000Y-35092319D01*
X37809145Y-34449550D01*
X37558349Y-33844075D01*
X37194250Y-33299161D01*
X36730839Y-32835750D01*
X36185925Y-32471651D01*
X35580450Y-32220855D01*
X34937681Y-32093000D01*
X34282319Y-32093000D01*
X33639550Y-32220855D01*
X33034075Y-32471651D01*
X32489161Y-32835750D01*
X32025750Y-33299161D01*
X31661651Y-33844075D01*
X31612000Y-33963943D01*
X31612000Y-31781800D01*
X116268001Y-31752203D01*
X116268000Y-87657663D01*
%TA.AperFunction,Conductor*%
D30*
G36*
X116268000Y-87657663D02*
G01*
X93452204Y-87644655D01*
X93580450Y-87619145D01*
X94185925Y-87368349D01*
X94730839Y-87004250D01*
X95194250Y-86540839D01*
X95558349Y-85995925D01*
X95809145Y-85390450D01*
X95937000Y-84747681D01*
X95937000Y-84092319D01*
X95809145Y-83449550D01*
X95558349Y-82844075D01*
X95194250Y-82299161D01*
X94730839Y-81835750D01*
X94185925Y-81471651D01*
X93580450Y-81220855D01*
X92937681Y-81093000D01*
X92282319Y-81093000D01*
X91639550Y-81220855D01*
X91034075Y-81471651D01*
X90489161Y-81835750D01*
X90025750Y-82299161D01*
X89661651Y-82844075D01*
X89410855Y-83449550D01*
X89283000Y-84092319D01*
X89283000Y-84747681D01*
X89410855Y-85390450D01*
X89661651Y-85995925D01*
X90025750Y-86540839D01*
X90489161Y-87004250D01*
X91034075Y-87368349D01*
X91639550Y-87619145D01*
X91762954Y-87643692D01*
X82432149Y-87638372D01*
X82437148Y-65896890D01*
X83558524Y-65896890D01*
X83603175Y-66044099D01*
X83728359Y-66306920D01*
X83902412Y-66540269D01*
X84118645Y-66735178D01*
X84368748Y-66884157D01*
X84643109Y-66981481D01*
X84873000Y-66860814D01*
X84873000Y-65667000D01*
X85127000Y-65667000D01*
X85127000Y-66860814D01*
X85356891Y-66981481D01*
X85631252Y-66884157D01*
X85881355Y-66735178D01*
X86097588Y-66540269D01*
X86271641Y-66306920D01*
X86396825Y-66044099D01*
X86441476Y-65896890D01*
X86320155Y-65667000D01*
X85127000Y-65667000D01*
X84873000Y-65667000D01*
X83679845Y-65667000D01*
X83558524Y-65896890D01*
X82437148Y-65896890D01*
X82441992Y-44832100D01*
X82445154Y-44800000D01*
X82438682Y-44734294D01*
X82432594Y-44672334D01*
X82432573Y-44672264D01*
X82432565Y-44672186D01*
X82413132Y-44608125D01*
X82395340Y-44549423D01*
X82395306Y-44549360D01*
X82395283Y-44549283D01*
X82363113Y-44489097D01*
X82334824Y-44436142D01*
X82334779Y-44436087D01*
X82334741Y-44436016D01*
X82291756Y-44383639D01*
X82253370Y-44336843D01*
X82253314Y-44336797D01*
X82253264Y-44336736D01*
X82201909Y-44294590D01*
X82154109Y-44255343D01*
X82154044Y-44255308D01*
X82153984Y-44255259D01*
X82138532Y-44247000D01*
X82166735Y-44247000D01*
X82923001Y-45003266D01*
X82923000Y-61193078D01*
X82923001Y-61193088D01*
X82923000Y-62376920D01*
X82918757Y-62420000D01*
X82935690Y-62591922D01*
X82957984Y-62665415D01*
X82985838Y-62757236D01*
X83067273Y-62909591D01*
X83176867Y-63043133D01*
X83210332Y-63070597D01*
X83519967Y-63380232D01*
X83519967Y-63425000D01*
X83540239Y-63630827D01*
X83600277Y-63828744D01*
X83697772Y-64011145D01*
X83828979Y-64171021D01*
X83988855Y-64302228D01*
X84099995Y-64361633D01*
X83902412Y-64539731D01*
X83728359Y-64773080D01*
X83603175Y-65035901D01*
X83558524Y-65183110D01*
X83679845Y-65413000D01*
X84873000Y-65413000D01*
X84873000Y-65393000D01*
X85127000Y-65393000D01*
X85127000Y-65413000D01*
X86320155Y-65413000D01*
X86441476Y-65183110D01*
X86396825Y-65035901D01*
X86271641Y-64773080D01*
X86097588Y-64539731D01*
X85900005Y-64361633D01*
X86011145Y-64302228D01*
X86171021Y-64171021D01*
X86302228Y-64011145D01*
X86399723Y-63828744D01*
X86459761Y-63630827D01*
X86480033Y-63425000D01*
X86480033Y-62575000D01*
X86459761Y-62369173D01*
X86399723Y-62171256D01*
X86322617Y-62027000D01*
X88989737Y-62027000D01*
X95052410Y-68089674D01*
X95079869Y-68123133D01*
X95113328Y-68150592D01*
X95113330Y-68150594D01*
X95150636Y-68181210D01*
X95213410Y-68232727D01*
X95365765Y-68314162D01*
X95531080Y-68364310D01*
X95659923Y-68377000D01*
X95659924Y-68377000D01*
X95703001Y-68381243D01*
X95746078Y-68377000D01*
X104206377Y-68377000D01*
X104248842Y-68368553D01*
X104291922Y-68364310D01*
X104296498Y-68362922D01*
X104254967Y-68422264D01*
X104212212Y-68482460D01*
X104211096Y-68484950D01*
X104209535Y-68487181D01*
X104179829Y-68554737D01*
X104149631Y-68622136D01*
X104149023Y-68624793D01*
X104147926Y-68627288D01*
X104131962Y-68699376D01*
X104115500Y-68771338D01*
X104115422Y-68774062D01*
X104114833Y-68776723D01*
X104113239Y-68850601D01*
X104111135Y-68924330D01*
X104117991Y-68964802D01*
X104414146Y-72823793D01*
X104376703Y-72914189D01*
X104343000Y-73083623D01*
X104343000Y-73256377D01*
X104376703Y-73425811D01*
X104420578Y-73531734D01*
X101676413Y-70787570D01*
X101652080Y-70757920D01*
X101533766Y-70660823D01*
X101398784Y-70588673D01*
X101252319Y-70544243D01*
X101138166Y-70533000D01*
X101138163Y-70533000D01*
X101100000Y-70529241D01*
X101061837Y-70533000D01*
X86700033Y-70533000D01*
X86700033Y-70357500D01*
X86687927Y-70234587D01*
X86652075Y-70116397D01*
X86593853Y-70007472D01*
X86515501Y-69911999D01*
X86420028Y-69833647D01*
X86311103Y-69775425D01*
X86192913Y-69739573D01*
X86070000Y-69727467D01*
X84070000Y-69727467D01*
X83947087Y-69739573D01*
X83828897Y-69775425D01*
X83719972Y-69833647D01*
X83624499Y-69911999D01*
X83546147Y-70007472D01*
X83487925Y-70116397D01*
X83452073Y-70234587D01*
X83439967Y-70357500D01*
X83439967Y-72262500D01*
X83452073Y-72385413D01*
X83487925Y-72503603D01*
X83546147Y-72612528D01*
X83624499Y-72708001D01*
X83719972Y-72786353D01*
X83811815Y-72835444D01*
X83702840Y-72968231D01*
X83556172Y-73242627D01*
X83465854Y-73540364D01*
X83435358Y-73850000D01*
X83465854Y-74159636D01*
X83556172Y-74457373D01*
X83702840Y-74731769D01*
X83900221Y-74972279D01*
X84080220Y-75120000D01*
X83900221Y-75267721D01*
X83702840Y-75508231D01*
X83556172Y-75782627D01*
X83465854Y-76080364D01*
X83435358Y-76390000D01*
X83465854Y-76699636D01*
X83556172Y-76997373D01*
X83702840Y-77271769D01*
X83900221Y-77512279D01*
X84140731Y-77709660D01*
X84415127Y-77856328D01*
X84712864Y-77946646D01*
X84944908Y-77969500D01*
X85195092Y-77969500D01*
X85427136Y-77946646D01*
X85724873Y-77856328D01*
X85999269Y-77709660D01*
X86239779Y-77512279D01*
X86437160Y-77271769D01*
X86583828Y-76997373D01*
X86674146Y-76699636D01*
X86704642Y-76390000D01*
X86674146Y-76080364D01*
X86583828Y-75782627D01*
X86437160Y-75508231D01*
X86239779Y-75267721D01*
X86059780Y-75120000D01*
X86239779Y-74972279D01*
X86437160Y-74731769D01*
X86583828Y-74457373D01*
X86674146Y-74159636D01*
X86704642Y-73850000D01*
X86674146Y-73540364D01*
X86583828Y-73242627D01*
X86437160Y-72968231D01*
X86328185Y-72835444D01*
X86420028Y-72786353D01*
X86515501Y-72708001D01*
X86593853Y-72612528D01*
X86652075Y-72503603D01*
X86687927Y-72385413D01*
X86700033Y-72262500D01*
X86700033Y-72087000D01*
X100778157Y-72087000D01*
X105483592Y-76792436D01*
X105507920Y-76822080D01*
X105537564Y-76846408D01*
X105537565Y-76846409D01*
X105626233Y-76919177D01*
X105682131Y-76949055D01*
X105761216Y-76991327D01*
X105907681Y-77035757D01*
X106021834Y-77047000D01*
X106021843Y-77047000D01*
X106059999Y-77050758D01*
X106098155Y-77047000D01*
X108502765Y-77047000D01*
X108579499Y-77140501D01*
X108674972Y-77218853D01*
X108783897Y-77277075D01*
X108902087Y-77312927D01*
X109025000Y-77325033D01*
X109875000Y-77325033D01*
X109997913Y-77312927D01*
X110116103Y-77277075D01*
X110225028Y-77218853D01*
X110320501Y-77140501D01*
X110398853Y-77045028D01*
X110457075Y-76936103D01*
X110492927Y-76817913D01*
X110505033Y-76695000D01*
X110505033Y-75845000D01*
X110492927Y-75722087D01*
X110457075Y-75603897D01*
X110455993Y-75601873D01*
X110458872Y-75595250D01*
X110469540Y-75560062D01*
X110342257Y-75397000D01*
X110317456Y-75397000D01*
X110225028Y-75321147D01*
X110116103Y-75262925D01*
X109997913Y-75227073D01*
X109875000Y-75214967D01*
X109025000Y-75214967D01*
X108902087Y-75227073D01*
X108783897Y-75262925D01*
X108674972Y-75321147D01*
X108582544Y-75397000D01*
X108557743Y-75397000D01*
X108482807Y-75493000D01*
X106381844Y-75493000D01*
X105868782Y-74979938D01*
X108430460Y-74979938D01*
X108557743Y-75143000D01*
X109323000Y-75143000D01*
X109323000Y-74376379D01*
X109577000Y-74376379D01*
X109577000Y-75143000D01*
X110342257Y-75143000D01*
X110469540Y-74979938D01*
X110458872Y-74944750D01*
X110376034Y-74754178D01*
X110257609Y-74583429D01*
X110108148Y-74439064D01*
X109933394Y-74326632D01*
X109740064Y-74250453D01*
X109577000Y-74376379D01*
X109323000Y-74376379D01*
X109159936Y-74250453D01*
X108966606Y-74326632D01*
X108791852Y-74439064D01*
X108642391Y-74583429D01*
X108523966Y-74754178D01*
X108441128Y-74944750D01*
X108430460Y-74979938D01*
X105868782Y-74979938D01*
X104858266Y-73969422D01*
X104964189Y-74013297D01*
X105133623Y-74047000D01*
X105306377Y-74047000D01*
X105475811Y-74013297D01*
X105635415Y-73947187D01*
X105779055Y-73851210D01*
X105901210Y-73729055D01*
X105997187Y-73585415D01*
X106063297Y-73425811D01*
X106097000Y-73256377D01*
X106097000Y-73083623D01*
X106063297Y-72914189D01*
X106051207Y-72885000D01*
X108386928Y-72885000D01*
X108399188Y-73009482D01*
X108435498Y-73129180D01*
X108494463Y-73239494D01*
X108573815Y-73336185D01*
X108670506Y-73415537D01*
X108780820Y-73474502D01*
X108900518Y-73510812D01*
X109025000Y-73523072D01*
X109164250Y-73520000D01*
X109323000Y-73361250D01*
X109323000Y-72587000D01*
X109577000Y-72587000D01*
X109577000Y-73361250D01*
X109735750Y-73520000D01*
X109875000Y-73523072D01*
X109999482Y-73510812D01*
X110119180Y-73474502D01*
X110229494Y-73415537D01*
X110326185Y-73336185D01*
X110405537Y-73239494D01*
X110464502Y-73129180D01*
X110500812Y-73009482D01*
X110513072Y-72885000D01*
X110510000Y-72745750D01*
X110351250Y-72587000D01*
X109577000Y-72587000D01*
X109323000Y-72587000D01*
X108548750Y-72587000D01*
X108390000Y-72745750D01*
X108386928Y-72885000D01*
X106051207Y-72885000D01*
X105997187Y-72754585D01*
X105963539Y-72704227D01*
X105912180Y-72035000D01*
X108386928Y-72035000D01*
X108390000Y-72174250D01*
X108548750Y-72333000D01*
X108862987Y-72333000D01*
X108951691Y-72392270D01*
X109143143Y-72471572D01*
X109346387Y-72512000D01*
X109553613Y-72512000D01*
X109756857Y-72471572D01*
X109948309Y-72392270D01*
X110037013Y-72333000D01*
X110351250Y-72333000D01*
X110510000Y-72174250D01*
X110513072Y-72035000D01*
X110500812Y-71910518D01*
X110464502Y-71790820D01*
X110457259Y-71777270D01*
X110461572Y-71766857D01*
X110502000Y-71563613D01*
X110502000Y-71356387D01*
X110461572Y-71153143D01*
X110382270Y-70961691D01*
X110381140Y-70960000D01*
X110382270Y-70958309D01*
X110461572Y-70766857D01*
X110502000Y-70563613D01*
X110502000Y-70356387D01*
X110461572Y-70153143D01*
X110382270Y-69961691D01*
X110267142Y-69789389D01*
X110120611Y-69642858D01*
X109948309Y-69527730D01*
X109756857Y-69448428D01*
X109553613Y-69408000D01*
X109346387Y-69408000D01*
X109143143Y-69448428D01*
X108951691Y-69527730D01*
X108779389Y-69642858D01*
X108632858Y-69789389D01*
X108517730Y-69961691D01*
X108438428Y-70153143D01*
X108398000Y-70356387D01*
X108398000Y-70563613D01*
X108438428Y-70766857D01*
X108517730Y-70958309D01*
X108518860Y-70960000D01*
X108517730Y-70961691D01*
X108438428Y-71153143D01*
X108398000Y-71356387D01*
X108398000Y-71563613D01*
X108438428Y-71766857D01*
X108442741Y-71777270D01*
X108435498Y-71790820D01*
X108399188Y-71910518D01*
X108386928Y-72035000D01*
X105912180Y-72035000D01*
X105696767Y-69228110D01*
X107083915Y-68154442D01*
X107093765Y-68149177D01*
X107144331Y-68107679D01*
X107165769Y-68091086D01*
X107173846Y-68083458D01*
X107212080Y-68052080D01*
X107229360Y-68031025D01*
X107249159Y-68012324D01*
X107277802Y-67971997D01*
X107309177Y-67933766D01*
X107322015Y-67909749D01*
X107337788Y-67887541D01*
X107358011Y-67842405D01*
X107381327Y-67798784D01*
X107389235Y-67772716D01*
X107400369Y-67747865D01*
X107411395Y-67699663D01*
X107425757Y-67652319D01*
X107428427Y-67625205D01*
X107434499Y-67598663D01*
X107435909Y-67549239D01*
X107437000Y-67538166D01*
X107437000Y-67511023D01*
X107438865Y-67445670D01*
X107437000Y-67434661D01*
X107437000Y-42138163D01*
X107440759Y-42100000D01*
X107435230Y-42043866D01*
X107425757Y-41947681D01*
X107381327Y-41801216D01*
X107346495Y-41736051D01*
X107309178Y-41666234D01*
X107236409Y-41577565D01*
X107236408Y-41577564D01*
X107212080Y-41547920D01*
X107182436Y-41523592D01*
X103841414Y-38182571D01*
X103817081Y-38152921D01*
X103698767Y-38055824D01*
X103563785Y-37983674D01*
X103417320Y-37939244D01*
X103303167Y-37928001D01*
X103303164Y-37928001D01*
X103265001Y-37924242D01*
X103226838Y-37928001D01*
X94807088Y-37928001D01*
X95194250Y-37540839D01*
X95542262Y-37020000D01*
X108318757Y-37020000D01*
X108323001Y-37063089D01*
X108323000Y-42623918D01*
X108318757Y-42666998D01*
X108335690Y-42838920D01*
X108370777Y-42954585D01*
X108385838Y-43004234D01*
X108467273Y-43156589D01*
X108576867Y-43290131D01*
X108610332Y-43317595D01*
X109593001Y-44300264D01*
X109593000Y-47093623D01*
X109593000Y-47266377D01*
X109601447Y-47308843D01*
X109605690Y-47351921D01*
X109618256Y-47393345D01*
X109626703Y-47435811D01*
X109643273Y-47475814D01*
X109655838Y-47517236D01*
X109676243Y-47555411D01*
X109692813Y-47595415D01*
X109716869Y-47631417D01*
X109737273Y-47669591D01*
X109764734Y-47703053D01*
X109788790Y-47739055D01*
X109819404Y-47769669D01*
X109846867Y-47803133D01*
X109880332Y-47830597D01*
X109910945Y-47861210D01*
X109946943Y-47885263D01*
X109980408Y-47912727D01*
X110018587Y-47933134D01*
X110054585Y-47957187D01*
X110094585Y-47973755D01*
X110132763Y-47994162D01*
X110174189Y-48006729D01*
X110214189Y-48023297D01*
X110256652Y-48031744D01*
X110298078Y-48044310D01*
X110341158Y-48048553D01*
X110383623Y-48057000D01*
X110426921Y-48057000D01*
X110470000Y-48061243D01*
X110513079Y-48057000D01*
X110556377Y-48057000D01*
X110598843Y-48048553D01*
X110641921Y-48044310D01*
X110683345Y-48031744D01*
X110725811Y-48023297D01*
X110765814Y-48006727D01*
X110807236Y-47994162D01*
X110845411Y-47973757D01*
X110885415Y-47957187D01*
X110921417Y-47933131D01*
X110959591Y-47912727D01*
X110993053Y-47885266D01*
X111029055Y-47861210D01*
X111059669Y-47830596D01*
X111093133Y-47803133D01*
X111120597Y-47769668D01*
X111151210Y-47739055D01*
X111175263Y-47703057D01*
X111202727Y-47669592D01*
X111223134Y-47631413D01*
X111247187Y-47595415D01*
X111263755Y-47555415D01*
X111284162Y-47517237D01*
X111296729Y-47475811D01*
X111313297Y-47435811D01*
X111321744Y-47393348D01*
X111334310Y-47351922D01*
X111338553Y-47308842D01*
X111347000Y-47266377D01*
X111347000Y-43980067D01*
X111351242Y-43936997D01*
X111347000Y-43893928D01*
X111347000Y-43893919D01*
X111334310Y-43765076D01*
X111284162Y-43599761D01*
X111202727Y-43447406D01*
X111093133Y-43313865D01*
X111059668Y-43286401D01*
X110077000Y-42303733D01*
X110077000Y-40570551D01*
X110909054Y-40570551D01*
X110983663Y-40817073D01*
X111243439Y-40940473D01*
X111522297Y-41010823D01*
X111809521Y-41025417D01*
X112094074Y-40983697D01*
X112365020Y-40887265D01*
X112496337Y-40817073D01*
X112570946Y-40570551D01*
X111740000Y-39739605D01*
X110909054Y-40570551D01*
X110077000Y-40570551D01*
X110077000Y-39629521D01*
X110274583Y-39629521D01*
X110316303Y-39914074D01*
X110412735Y-40185020D01*
X110482927Y-40316337D01*
X110729449Y-40390946D01*
X111560395Y-39560000D01*
X111919605Y-39560000D01*
X112750551Y-40390946D01*
X112997073Y-40316337D01*
X113120473Y-40056561D01*
X113190823Y-39777703D01*
X113205417Y-39490479D01*
X113163697Y-39205926D01*
X113067265Y-38934980D01*
X112997073Y-38803663D01*
X112750551Y-38729054D01*
X111919605Y-39560000D01*
X111560395Y-39560000D01*
X110729449Y-38729054D01*
X110482927Y-38803663D01*
X110359527Y-39063439D01*
X110289177Y-39342297D01*
X110274583Y-39629521D01*
X110077000Y-39629521D01*
X110077000Y-38549449D01*
X110909054Y-38549449D01*
X111740000Y-39380395D01*
X112570946Y-38549449D01*
X112496337Y-38302927D01*
X112236561Y-38179527D01*
X111957703Y-38109177D01*
X111670479Y-38094583D01*
X111385926Y-38136303D01*
X111114980Y-38232735D01*
X110983663Y-38302927D01*
X110909054Y-38549449D01*
X110077000Y-38549449D01*
X110077000Y-37383265D01*
X111525232Y-35935033D01*
X112565000Y-35935033D01*
X112687913Y-35922927D01*
X112806103Y-35887075D01*
X112915028Y-35828853D01*
X113010501Y-35750501D01*
X113088853Y-35655028D01*
X113147075Y-35546103D01*
X113182927Y-35427913D01*
X113195033Y-35305000D01*
X113195033Y-33655000D01*
X113182927Y-33532087D01*
X113147075Y-33413897D01*
X113088853Y-33304972D01*
X113010501Y-33209499D01*
X112915028Y-33131147D01*
X112806103Y-33072925D01*
X112687913Y-33037073D01*
X112565000Y-33024967D01*
X110915000Y-33024967D01*
X110792087Y-33037073D01*
X110673897Y-33072925D01*
X110564972Y-33131147D01*
X110469499Y-33209499D01*
X110391147Y-33304972D01*
X110332925Y-33413897D01*
X110297073Y-33532087D01*
X110284967Y-33655000D01*
X110284967Y-34694768D01*
X108610327Y-36369408D01*
X108576868Y-36396867D01*
X108549409Y-36430326D01*
X108549406Y-36430329D01*
X108467274Y-36530408D01*
X108385838Y-36682764D01*
X108335690Y-36848078D01*
X108318757Y-37020000D01*
X95542262Y-37020000D01*
X95558349Y-36995925D01*
X95809145Y-36390450D01*
X95937000Y-35747681D01*
X95937000Y-35092319D01*
X95809145Y-34449550D01*
X95558349Y-33844075D01*
X95194250Y-33299161D01*
X94730839Y-32835750D01*
X94185925Y-32471651D01*
X93580450Y-32220855D01*
X92937681Y-32093000D01*
X92282319Y-32093000D01*
X91639550Y-32220855D01*
X91034075Y-32471651D01*
X90489161Y-32835750D01*
X90025750Y-33299161D01*
X89661651Y-33844075D01*
X89549269Y-34115389D01*
X89510240Y-33919175D01*
X89398901Y-33650378D01*
X89237261Y-33408467D01*
X89031533Y-33202739D01*
X88789622Y-33041099D01*
X88520825Y-32929760D01*
X88235472Y-32873000D01*
X87944528Y-32873000D01*
X87659175Y-32929760D01*
X87390378Y-33041099D01*
X87148467Y-33202739D01*
X86942739Y-33408467D01*
X86820000Y-33592159D01*
X86697261Y-33408467D01*
X86491533Y-33202739D01*
X86249622Y-33041099D01*
X85980825Y-32929760D01*
X85695472Y-32873000D01*
X85404528Y-32873000D01*
X85119175Y-32929760D01*
X84850378Y-33041099D01*
X84608467Y-33202739D01*
X84402739Y-33408467D01*
X84280000Y-33592159D01*
X84157261Y-33408467D01*
X83951533Y-33202739D01*
X83709622Y-33041099D01*
X83440825Y-32929760D01*
X83155472Y-32873000D01*
X82864528Y-32873000D01*
X82579175Y-32929760D01*
X82310378Y-33041099D01*
X82068467Y-33202739D01*
X81862739Y-33408467D01*
X81740000Y-33592159D01*
X81617261Y-33408467D01*
X81411533Y-33202739D01*
X81169622Y-33041099D01*
X80900825Y-32929760D01*
X80615472Y-32873000D01*
X80324528Y-32873000D01*
X80039175Y-32929760D01*
X79770378Y-33041099D01*
X79528467Y-33202739D01*
X79322739Y-33408467D01*
X79200000Y-33592159D01*
X79077261Y-33408467D01*
X78871533Y-33202739D01*
X78629622Y-33041099D01*
X78360825Y-32929760D01*
X78075472Y-32873000D01*
X77784528Y-32873000D01*
X77499175Y-32929760D01*
X77230378Y-33041099D01*
X76988467Y-33202739D01*
X76782739Y-33408467D01*
X76660000Y-33592159D01*
X76537261Y-33408467D01*
X76331533Y-33202739D01*
X76089622Y-33041099D01*
X75820825Y-32929760D01*
X75535472Y-32873000D01*
X75244528Y-32873000D01*
X74959175Y-32929760D01*
X74690378Y-33041099D01*
X74448467Y-33202739D01*
X74242739Y-33408467D01*
X74120000Y-33592159D01*
X73997261Y-33408467D01*
X73791533Y-33202739D01*
X73549622Y-33041099D01*
X73280825Y-32929760D01*
X72995472Y-32873000D01*
X72704528Y-32873000D01*
X72419175Y-32929760D01*
X72150378Y-33041099D01*
X71908467Y-33202739D01*
X71702739Y-33408467D01*
X71580000Y-33592159D01*
X71457261Y-33408467D01*
X71251533Y-33202739D01*
X71009622Y-33041099D01*
X70740825Y-32929760D01*
X70455472Y-32873000D01*
X70164528Y-32873000D01*
X69879175Y-32929760D01*
X69610378Y-33041099D01*
X69368467Y-33202739D01*
X69162739Y-33408467D01*
X69040000Y-33592159D01*
X68917261Y-33408467D01*
X68711533Y-33202739D01*
X68469622Y-33041099D01*
X68200825Y-32929760D01*
X67915472Y-32873000D01*
X67624528Y-32873000D01*
X67339175Y-32929760D01*
X67070378Y-33041099D01*
X66828467Y-33202739D01*
X66622739Y-33408467D01*
X66500000Y-33592159D01*
X66377261Y-33408467D01*
X66171533Y-33202739D01*
X65929622Y-33041099D01*
X65660825Y-32929760D01*
X65375472Y-32873000D01*
X65084528Y-32873000D01*
X64799175Y-32929760D01*
X64530378Y-33041099D01*
X64288467Y-33202739D01*
X64082739Y-33408467D01*
X63960000Y-33592159D01*
X63837261Y-33408467D01*
X63631533Y-33202739D01*
X63389622Y-33041099D01*
X63120825Y-32929760D01*
X62835472Y-32873000D01*
X62544528Y-32873000D01*
X62259175Y-32929760D01*
X61990378Y-33041099D01*
X61748467Y-33202739D01*
X61542739Y-33408467D01*
X61420000Y-33592159D01*
X61297261Y-33408467D01*
X61091533Y-33202739D01*
X60849622Y-33041099D01*
X60580825Y-32929760D01*
X60295472Y-32873000D01*
X60004528Y-32873000D01*
X59719175Y-32929760D01*
X59450378Y-33041099D01*
X59208467Y-33202739D01*
X59002739Y-33408467D01*
X58880000Y-33592159D01*
X58757261Y-33408467D01*
X58551533Y-33202739D01*
X58309622Y-33041099D01*
X58040825Y-32929760D01*
X57755472Y-32873000D01*
X57464528Y-32873000D01*
X57179175Y-32929760D01*
X56910378Y-33041099D01*
X56668467Y-33202739D01*
X56462739Y-33408467D01*
X56340000Y-33592159D01*
X56217261Y-33408467D01*
X56011533Y-33202739D01*
X55769622Y-33041099D01*
X55500825Y-32929760D01*
X55215472Y-32873000D01*
X54924528Y-32873000D01*
X54639175Y-32929760D01*
X54370378Y-33041099D01*
X54128467Y-33202739D01*
X53922739Y-33408467D01*
X53800000Y-33592159D01*
X53677261Y-33408467D01*
X53471533Y-33202739D01*
X53229622Y-33041099D01*
X52960825Y-32929760D01*
X52675472Y-32873000D01*
X52384528Y-32873000D01*
X52099175Y-32929760D01*
X51830378Y-33041099D01*
X51588467Y-33202739D01*
X51382739Y-33408467D01*
X51260000Y-33592159D01*
X51137261Y-33408467D01*
X50931533Y-33202739D01*
X50689622Y-33041099D01*
X50420825Y-32929760D01*
X50135472Y-32873000D01*
X49844528Y-32873000D01*
X49559175Y-32929760D01*
X49290378Y-33041099D01*
X49048467Y-33202739D01*
X48842739Y-33408467D01*
X48720000Y-33592159D01*
X48597261Y-33408467D01*
X48391533Y-33202739D01*
X48149622Y-33041099D01*
X47880825Y-32929760D01*
X47595472Y-32873000D01*
X47304528Y-32873000D01*
X47019175Y-32929760D01*
X46750378Y-33041099D01*
X46508467Y-33202739D01*
X46302739Y-33408467D01*
X46180000Y-33592159D01*
X46057261Y-33408467D01*
X45851533Y-33202739D01*
X45609622Y-33041099D01*
X45340825Y-32929760D01*
X45055472Y-32873000D01*
X44764528Y-32873000D01*
X44479175Y-32929760D01*
X44210378Y-33041099D01*
X43968467Y-33202739D01*
X43762739Y-33408467D01*
X43640000Y-33592159D01*
X43517261Y-33408467D01*
X43311533Y-33202739D01*
X43069622Y-33041099D01*
X42800825Y-32929760D01*
X42515472Y-32873000D01*
X42224528Y-32873000D01*
X41939175Y-32929760D01*
X41670378Y-33041099D01*
X41428467Y-33202739D01*
X41222739Y-33408467D01*
X41100000Y-33592159D01*
X40977261Y-33408467D01*
X40771533Y-33202739D01*
X40529622Y-33041099D01*
X40260825Y-32929760D01*
X39975472Y-32873000D01*
X39684528Y-32873000D01*
X39399175Y-32929760D01*
X39130378Y-33041099D01*
X38888467Y-33202739D01*
X38682739Y-33408467D01*
X38521099Y-33650378D01*
X38409760Y-33919175D01*
X38353000Y-34204528D01*
X38353000Y-34495472D01*
X38409760Y-34780825D01*
X38521099Y-35049622D01*
X38682739Y-35291533D01*
X38823475Y-35432269D01*
X38738897Y-35457925D01*
X38629972Y-35516147D01*
X38534499Y-35594499D01*
X38456147Y-35689972D01*
X38397925Y-35798897D01*
X38362073Y-35917087D01*
X38349967Y-36040000D01*
X38349967Y-37740000D01*
X38362073Y-37862913D01*
X38397925Y-37981103D01*
X38456147Y-38090028D01*
X38534499Y-38185501D01*
X38629972Y-38263853D01*
X38738897Y-38322075D01*
X38857087Y-38357927D01*
X38980000Y-38370033D01*
X40166545Y-38370033D01*
X42736188Y-40939676D01*
X42470825Y-40829760D01*
X42185472Y-40773000D01*
X41894528Y-40773000D01*
X41609175Y-40829760D01*
X41340378Y-40941099D01*
X41098467Y-41102739D01*
X40892739Y-41308467D01*
X40863126Y-41352787D01*
X40802228Y-41238855D01*
X40671021Y-41078979D01*
X40511145Y-40947772D01*
X40328744Y-40850277D01*
X40130827Y-40790239D01*
X39925000Y-40769967D01*
X39075000Y-40769967D01*
X38869173Y-40790239D01*
X38671256Y-40850277D01*
X38488855Y-40947772D01*
X38328979Y-41078979D01*
X38197772Y-41238855D01*
X38100277Y-41421256D01*
X38040239Y-41619173D01*
X38019967Y-41825000D01*
X38019967Y-42675000D01*
X38040239Y-42880827D01*
X38100277Y-43078744D01*
X38197772Y-43261145D01*
X38328979Y-43421021D01*
X38488855Y-43552228D01*
X38671256Y-43649723D01*
X38869173Y-43709761D01*
X39075000Y-43730033D01*
X39925000Y-43730033D01*
X40130827Y-43709761D01*
X40328744Y-43649723D01*
X40511145Y-43552228D01*
X40671021Y-43421021D01*
X40802228Y-43261145D01*
X40863126Y-43147213D01*
X40892739Y-43191533D01*
X41098467Y-43397261D01*
X41313000Y-43540608D01*
X41313001Y-49718866D01*
X40392789Y-50639079D01*
X40304189Y-50656703D01*
X40144585Y-50722813D01*
X40000945Y-50818790D01*
X39878790Y-50940945D01*
X39782813Y-51084585D01*
X39716703Y-51244189D01*
X39683000Y-51413623D01*
X39683000Y-51586377D01*
X39716703Y-51755811D01*
X39782813Y-51915415D01*
X39878790Y-52059055D01*
X40000945Y-52181210D01*
X40144585Y-52277187D01*
X40304189Y-52343297D01*
X40473623Y-52377000D01*
X40646377Y-52377000D01*
X40815811Y-52343297D01*
X40822999Y-52340320D01*
X40823000Y-54787056D01*
X40819361Y-54824001D01*
X40828995Y-54921811D01*
X40833881Y-54971419D01*
X40844865Y-55007626D01*
X40876881Y-55113170D01*
X40946709Y-55243811D01*
X41011229Y-55322428D01*
X41040683Y-55358318D01*
X41069374Y-55381864D01*
X41368132Y-55680622D01*
X41391682Y-55709318D01*
X41506189Y-55803291D01*
X41636829Y-55873119D01*
X41778581Y-55916120D01*
X41889061Y-55927001D01*
X41889063Y-55927001D01*
X41925999Y-55930639D01*
X41962934Y-55927001D01*
X42537066Y-55927001D01*
X42574001Y-55930639D01*
X42610936Y-55927001D01*
X42610939Y-55927001D01*
X42721419Y-55916120D01*
X42863171Y-55873119D01*
X42993811Y-55803291D01*
X43108318Y-55709318D01*
X43131868Y-55680622D01*
X46572990Y-52239501D01*
X46572990Y-54630744D01*
X46569351Y-54667690D01*
X46583871Y-54815107D01*
X46626871Y-54956859D01*
X46696699Y-55087500D01*
X46731817Y-55130291D01*
X46790673Y-55202007D01*
X46819363Y-55225552D01*
X47274447Y-55680637D01*
X47297993Y-55709328D01*
X47326684Y-55732874D01*
X47412499Y-55803301D01*
X47482327Y-55840624D01*
X47543140Y-55873129D01*
X47684892Y-55916130D01*
X47795372Y-55927011D01*
X47795374Y-55927011D01*
X47832309Y-55930649D01*
X47869245Y-55927011D01*
X53065056Y-55927011D01*
X53101991Y-55930649D01*
X53138926Y-55927011D01*
X53138929Y-55927011D01*
X53249409Y-55916130D01*
X53391161Y-55873129D01*
X53521801Y-55803301D01*
X53636308Y-55709328D01*
X53659858Y-55680632D01*
X54553828Y-54786662D01*
X54568790Y-54809055D01*
X54690945Y-54931210D01*
X54834585Y-55027187D01*
X54994189Y-55093297D01*
X55163623Y-55127000D01*
X55336377Y-55127000D01*
X55505811Y-55093297D01*
X55665415Y-55027187D01*
X55809055Y-54931210D01*
X55931210Y-54809055D01*
X56027187Y-54665415D01*
X56093297Y-54505811D01*
X56102142Y-54461346D01*
X56253001Y-54310487D01*
X56253001Y-61178498D01*
X55830359Y-61601140D01*
X55828744Y-61600277D01*
X55630827Y-61540239D01*
X55425000Y-61519967D01*
X54575000Y-61519967D01*
X54369173Y-61540239D01*
X54171256Y-61600277D01*
X53988855Y-61697772D01*
X53828979Y-61828979D01*
X53697772Y-61988855D01*
X53626070Y-62123000D01*
X37613265Y-62123000D01*
X35999162Y-60508897D01*
X35987533Y-60450435D01*
X35910115Y-60263533D01*
X35797723Y-60095326D01*
X35654674Y-59952277D01*
X35486467Y-59839885D01*
X35299565Y-59762467D01*
X35101151Y-59723000D01*
X34898849Y-59723000D01*
X34700435Y-59762467D01*
X34513533Y-59839885D01*
X34345326Y-59952277D01*
X34202277Y-60095326D01*
X34089885Y-60263533D01*
X34012467Y-60450435D01*
X33973000Y-60648849D01*
X33973000Y-60851151D01*
X34012467Y-61049565D01*
X34089885Y-61236467D01*
X34202277Y-61404674D01*
X34345326Y-61547723D01*
X34513533Y-61660115D01*
X34700435Y-61737533D01*
X34758897Y-61749162D01*
X36599403Y-63589668D01*
X36626867Y-63623133D01*
X36760407Y-63732726D01*
X36760408Y-63732727D01*
X36912763Y-63814162D01*
X37078077Y-63864310D01*
X37250000Y-63881243D01*
X37293079Y-63877000D01*
X53626070Y-63877000D01*
X53697772Y-64011145D01*
X53828979Y-64171021D01*
X53988855Y-64302228D01*
X54099995Y-64361633D01*
X53902412Y-64539731D01*
X53728359Y-64773080D01*
X53603175Y-65035901D01*
X53558524Y-65183110D01*
X53679845Y-65413000D01*
X54873000Y-65413000D01*
X54873000Y-65393000D01*
X55127000Y-65393000D01*
X55127000Y-65413000D01*
X56320155Y-65413000D01*
X56441476Y-65183110D01*
X56396825Y-65035901D01*
X56271641Y-64773080D01*
X56097588Y-64539731D01*
X55900005Y-64361633D01*
X56011145Y-64302228D01*
X56171021Y-64171021D01*
X56302228Y-64011145D01*
X56399723Y-63828744D01*
X56459761Y-63630827D01*
X56478864Y-63436874D01*
X56491653Y-63426378D01*
X56519117Y-63392914D01*
X57719674Y-62192357D01*
X57753133Y-62164898D01*
X57820539Y-62082764D01*
X57834019Y-62066338D01*
X57862727Y-62031357D01*
X57944162Y-61879002D01*
X57994310Y-61713687D01*
X58007000Y-61584844D01*
X58007000Y-61584843D01*
X58011243Y-61541766D01*
X58007000Y-61498689D01*
X58007000Y-44247000D01*
X58511447Y-44247000D01*
X58496142Y-44255176D01*
X58496087Y-44255221D01*
X58496016Y-44255259D01*
X58443639Y-44298244D01*
X58396843Y-44336630D01*
X58396797Y-44336686D01*
X58396736Y-44336736D01*
X58354590Y-44388091D01*
X58315343Y-44435891D01*
X58315308Y-44435956D01*
X58315259Y-44436016D01*
X58283750Y-44494967D01*
X58254775Y-44549145D01*
X58254754Y-44549213D01*
X58254717Y-44549283D01*
X58235181Y-44613685D01*
X58217465Y-44672039D01*
X58217458Y-44672110D01*
X58217435Y-44672186D01*
X58210851Y-44739030D01*
X58208008Y-44767829D01*
X58208008Y-44767897D01*
X58204846Y-44800000D01*
X58207993Y-44831954D01*
X58198150Y-87658703D01*
X35257165Y-87683450D01*
X35580450Y-87619145D01*
X36185925Y-87368349D01*
X36730839Y-87004250D01*
X37194250Y-86540839D01*
X37558349Y-85995925D01*
X37809145Y-85390450D01*
X37937000Y-84747681D01*
X37937000Y-84092319D01*
X37809145Y-83449550D01*
X37558349Y-82844075D01*
X37194250Y-82299161D01*
X36730839Y-81835750D01*
X36185925Y-81471651D01*
X35580450Y-81220855D01*
X34937681Y-81093000D01*
X34282319Y-81093000D01*
X33639550Y-81220855D01*
X33034075Y-81471651D01*
X32489161Y-81835750D01*
X32025750Y-82299161D01*
X31661651Y-82844075D01*
X31612000Y-82963943D01*
X31612000Y-76303623D01*
X39743000Y-76303623D01*
X39743000Y-76476377D01*
X39776703Y-76645811D01*
X39842813Y-76805415D01*
X39843001Y-76805696D01*
X39843000Y-78514305D01*
X39842813Y-78514585D01*
X39776703Y-78674189D01*
X39743000Y-78843623D01*
X39743000Y-79016377D01*
X39776703Y-79185811D01*
X39842813Y-79345415D01*
X39938790Y-79489055D01*
X40014735Y-79565000D01*
X39938790Y-79640945D01*
X39842813Y-79784585D01*
X39776703Y-79944189D01*
X39743000Y-80113623D01*
X39743000Y-80286377D01*
X39776703Y-80455811D01*
X39842813Y-80615415D01*
X39938790Y-80759055D01*
X40060945Y-80881210D01*
X40204585Y-80977187D01*
X40364189Y-81043297D01*
X40364519Y-81043363D01*
X41313592Y-81992436D01*
X41337920Y-82022080D01*
X41367564Y-82046408D01*
X41367565Y-82046409D01*
X41456233Y-82119177D01*
X41591216Y-82191327D01*
X41737681Y-82235757D01*
X41851834Y-82247000D01*
X41851843Y-82247000D01*
X41889999Y-82250758D01*
X41928155Y-82247000D01*
X50741837Y-82247000D01*
X50780000Y-82250759D01*
X50818163Y-82247000D01*
X50818166Y-82247000D01*
X50932319Y-82235757D01*
X51078784Y-82191327D01*
X51213766Y-82119177D01*
X51332080Y-82022080D01*
X51356413Y-81992431D01*
X53842437Y-79506407D01*
X53872080Y-79482080D01*
X53920719Y-79422813D01*
X53969177Y-79363767D01*
X54041327Y-79228784D01*
X54054363Y-79185811D01*
X54085757Y-79082319D01*
X54097000Y-78968166D01*
X54097000Y-78968157D01*
X54100758Y-78930001D01*
X54097000Y-78891845D01*
X54097000Y-73888155D01*
X54100758Y-73849999D01*
X54097000Y-73811843D01*
X54097000Y-73811834D01*
X54085757Y-73697681D01*
X54041327Y-73551216D01*
X54024642Y-73520000D01*
X53969177Y-73416233D01*
X53896409Y-73327565D01*
X53896408Y-73327564D01*
X53872080Y-73297920D01*
X53842436Y-73273592D01*
X52893363Y-72324519D01*
X52893297Y-72324189D01*
X52827187Y-72164585D01*
X52731210Y-72020945D01*
X52609055Y-71898790D01*
X52465415Y-71802813D01*
X52305811Y-71736703D01*
X52136377Y-71703000D01*
X51963623Y-71703000D01*
X51794189Y-71736703D01*
X51634585Y-71802813D01*
X51490945Y-71898790D01*
X51368790Y-72020945D01*
X51272813Y-72164585D01*
X51206703Y-72324189D01*
X51173000Y-72493623D01*
X51173000Y-72666377D01*
X51206703Y-72835811D01*
X51272813Y-72995415D01*
X51368790Y-73139055D01*
X51490945Y-73261210D01*
X51634585Y-73357187D01*
X51794189Y-73423297D01*
X51794519Y-73423363D01*
X52543001Y-74171845D01*
X52543000Y-78608156D01*
X50458157Y-80693000D01*
X42211844Y-80693000D01*
X41463363Y-79944519D01*
X41463297Y-79944189D01*
X41397187Y-79784585D01*
X41301210Y-79640945D01*
X41225265Y-79565000D01*
X41301210Y-79489055D01*
X41397187Y-79345415D01*
X41463297Y-79185811D01*
X41497000Y-79016377D01*
X41497000Y-78843623D01*
X41463297Y-78674189D01*
X41397187Y-78514585D01*
X41397000Y-78514305D01*
X41397000Y-76805695D01*
X41397187Y-76805415D01*
X41463297Y-76645811D01*
X41497000Y-76476377D01*
X41497000Y-76303623D01*
X41463297Y-76134189D01*
X41397187Y-75974585D01*
X41301210Y-75830945D01*
X41179055Y-75708790D01*
X41035415Y-75612813D01*
X40875811Y-75546703D01*
X40706377Y-75513000D01*
X40533623Y-75513000D01*
X40364189Y-75546703D01*
X40204585Y-75612813D01*
X40060945Y-75708790D01*
X39938790Y-75830945D01*
X39842813Y-75974585D01*
X39776703Y-76134189D01*
X39743000Y-76303623D01*
X31612000Y-76303623D01*
X31612000Y-72302702D01*
X34766903Y-72302702D01*
X34838486Y-72546671D01*
X35093996Y-72667571D01*
X35368184Y-72736300D01*
X35650512Y-72750217D01*
X35930130Y-72708787D01*
X36196292Y-72613603D01*
X36321514Y-72546671D01*
X36393097Y-72302702D01*
X35580000Y-71489605D01*
X34766903Y-72302702D01*
X31612000Y-72302702D01*
X31612000Y-71380512D01*
X34139783Y-71380512D01*
X34181213Y-71660130D01*
X34276397Y-71926292D01*
X34343329Y-72051514D01*
X34587298Y-72123097D01*
X35400395Y-71310000D01*
X35759605Y-71310000D01*
X36572702Y-72123097D01*
X36649967Y-72100427D01*
X36649967Y-72110000D01*
X36662073Y-72232913D01*
X36697925Y-72351103D01*
X36756147Y-72460028D01*
X36834499Y-72555501D01*
X36929972Y-72633853D01*
X37038897Y-72692075D01*
X37157087Y-72727927D01*
X37280000Y-72740033D01*
X38880000Y-72740033D01*
X39002913Y-72727927D01*
X39121103Y-72692075D01*
X39230028Y-72633853D01*
X39325501Y-72555501D01*
X39376282Y-72493623D01*
X39743000Y-72493623D01*
X39743000Y-72666377D01*
X39776703Y-72835811D01*
X39842813Y-72995415D01*
X39938790Y-73139055D01*
X40060945Y-73261210D01*
X40204585Y-73357187D01*
X40364189Y-73423297D01*
X40533623Y-73457000D01*
X40706377Y-73457000D01*
X40875811Y-73423297D01*
X41035415Y-73357187D01*
X41179055Y-73261210D01*
X41301210Y-73139055D01*
X41397187Y-72995415D01*
X41463297Y-72835811D01*
X41472142Y-72791346D01*
X43471489Y-70792000D01*
X47786890Y-70792000D01*
X47824585Y-70817187D01*
X47984189Y-70883297D01*
X48153623Y-70917000D01*
X48326377Y-70917000D01*
X48495811Y-70883297D01*
X48655415Y-70817187D01*
X48799055Y-70721210D01*
X48921210Y-70599055D01*
X49017187Y-70455415D01*
X49083297Y-70295811D01*
X49117000Y-70126377D01*
X49117000Y-69953623D01*
X49083297Y-69784189D01*
X49017187Y-69624585D01*
X48921210Y-69480945D01*
X48799055Y-69358790D01*
X48655415Y-69262813D01*
X48495811Y-69196703D01*
X48326377Y-69163000D01*
X48153623Y-69163000D01*
X47984189Y-69196703D01*
X47824585Y-69262813D01*
X47786890Y-69288000D01*
X43196935Y-69288000D01*
X43159999Y-69284362D01*
X43123064Y-69288000D01*
X43123062Y-69288000D01*
X43012582Y-69298881D01*
X42870830Y-69341882D01*
X42810017Y-69374387D01*
X42740189Y-69411710D01*
X42682373Y-69459159D01*
X42625683Y-69505683D01*
X42602137Y-69534374D01*
X40408654Y-71727858D01*
X40364189Y-71736703D01*
X40204585Y-71802813D01*
X40060945Y-71898790D01*
X39938790Y-72020945D01*
X39842813Y-72164585D01*
X39776703Y-72324189D01*
X39743000Y-72493623D01*
X39376282Y-72493623D01*
X39403853Y-72460028D01*
X39462075Y-72351103D01*
X39497927Y-72232913D01*
X39510033Y-72110000D01*
X39510033Y-70510000D01*
X39497927Y-70387087D01*
X39462075Y-70268897D01*
X39403853Y-70159972D01*
X39325501Y-70064499D01*
X39230028Y-69986147D01*
X39121103Y-69927925D01*
X39002913Y-69892073D01*
X38880000Y-69879967D01*
X38807000Y-69879967D01*
X38807000Y-69071132D01*
X39517212Y-68360921D01*
X39605811Y-68343297D01*
X39765415Y-68277187D01*
X39765695Y-68277000D01*
X56271837Y-68277000D01*
X56310000Y-68280759D01*
X56348163Y-68277000D01*
X56348166Y-68277000D01*
X56462319Y-68265757D01*
X56608784Y-68221327D01*
X56743766Y-68149177D01*
X56862080Y-68052080D01*
X56886412Y-68022431D01*
X57305481Y-67603363D01*
X57305811Y-67603297D01*
X57465415Y-67537187D01*
X57609055Y-67441210D01*
X57731210Y-67319055D01*
X57827187Y-67175415D01*
X57893297Y-67015811D01*
X57927000Y-66846377D01*
X57927000Y-66673623D01*
X57893297Y-66504189D01*
X57827187Y-66344585D01*
X57731210Y-66200945D01*
X57609055Y-66078790D01*
X57465415Y-65982813D01*
X57305811Y-65916703D01*
X57136377Y-65883000D01*
X56963623Y-65883000D01*
X56794189Y-65916703D01*
X56634585Y-65982813D01*
X56490945Y-66078790D01*
X56368790Y-66200945D01*
X56272813Y-66344585D01*
X56206703Y-66504189D01*
X56206637Y-66504519D01*
X55988157Y-66723000D01*
X55894865Y-66723000D01*
X56097588Y-66540269D01*
X56271641Y-66306920D01*
X56396825Y-66044099D01*
X56441476Y-65896890D01*
X56320155Y-65667000D01*
X55127000Y-65667000D01*
X55127000Y-65687000D01*
X54873000Y-65687000D01*
X54873000Y-65667000D01*
X53679845Y-65667000D01*
X53558524Y-65896890D01*
X53603175Y-66044099D01*
X53728359Y-66306920D01*
X53902412Y-66540269D01*
X54105135Y-66723000D01*
X39765695Y-66723000D01*
X39765415Y-66722813D01*
X39605811Y-66656703D01*
X39436377Y-66623000D01*
X39263623Y-66623000D01*
X39094189Y-66656703D01*
X38934585Y-66722813D01*
X38790945Y-66818790D01*
X38668790Y-66940945D01*
X38572813Y-67084585D01*
X38506703Y-67244189D01*
X38489079Y-67332788D01*
X37591189Y-68230679D01*
X37563447Y-68253446D01*
X37489709Y-68343297D01*
X37472598Y-68364147D01*
X37405090Y-68490444D01*
X37363520Y-68627483D01*
X37349483Y-68770000D01*
X37353001Y-68805718D01*
X37353001Y-69879967D01*
X37280000Y-69879967D01*
X37157087Y-69892073D01*
X37038897Y-69927925D01*
X36929972Y-69986147D01*
X36834499Y-70064499D01*
X36756147Y-70159972D01*
X36697925Y-70268897D01*
X36662073Y-70387087D01*
X36649967Y-70510000D01*
X36649967Y-70519573D01*
X36572702Y-70496903D01*
X35759605Y-71310000D01*
X35400395Y-71310000D01*
X34587298Y-70496903D01*
X34343329Y-70568486D01*
X34222429Y-70823996D01*
X34153700Y-71098184D01*
X34139783Y-71380512D01*
X31612000Y-71380512D01*
X31612000Y-70317298D01*
X34766903Y-70317298D01*
X35580000Y-71130395D01*
X36393097Y-70317298D01*
X36321514Y-70073329D01*
X36066004Y-69952429D01*
X35791816Y-69883700D01*
X35509488Y-69869783D01*
X35229870Y-69911213D01*
X34963708Y-70006397D01*
X34838486Y-70073329D01*
X34766903Y-70317298D01*
X31612000Y-70317298D01*
X31612000Y-36876057D01*
X31661651Y-36995925D01*
X32025750Y-37540839D01*
X32489161Y-38004250D01*
X33034075Y-38368349D01*
X33639550Y-38619145D01*
X34282319Y-38747000D01*
X34937681Y-38747000D01*
X35580450Y-38619145D01*
X36185925Y-38368349D01*
X36730839Y-38004250D01*
X37194250Y-37540839D01*
X37558349Y-36995925D01*
X37809145Y-36390450D01*
X37937000Y-35747681D01*
X37937000Y-35092319D01*
X37809145Y-34449550D01*
X37558349Y-33844075D01*
X37194250Y-33299161D01*
X36730839Y-32835750D01*
X36185925Y-32471651D01*
X35580450Y-32220855D01*
X34937681Y-32093000D01*
X34282319Y-32093000D01*
X33639550Y-32220855D01*
X33034075Y-32471651D01*
X32489161Y-32835750D01*
X32025750Y-33299161D01*
X31661651Y-33844075D01*
X31612000Y-33963943D01*
X31612000Y-31781800D01*
X116268001Y-31752203D01*
X116268000Y-87657663D01*
G37*
%TD.AperFunction*%
D29*
X70437000Y-36763000D02*
X70457000Y-36763000D01*
X70457000Y-37017000D01*
X70437000Y-37017000D01*
X70437000Y-38210155D01*
X70666890Y-38331476D01*
X70814099Y-38286825D01*
X71076920Y-38161641D01*
X71310269Y-37987588D01*
X71505178Y-37771355D01*
X71579340Y-37646853D01*
X71702739Y-37831533D01*
X71908467Y-38037261D01*
X72150378Y-38198901D01*
X72419175Y-38310240D01*
X72704528Y-38367000D01*
X72995472Y-38367000D01*
X73280825Y-38310240D01*
X73549622Y-38198901D01*
X73791533Y-38037261D01*
X73997261Y-37831533D01*
X74120000Y-37647841D01*
X74242739Y-37831533D01*
X74448467Y-38037261D01*
X74690378Y-38198901D01*
X74959175Y-38310240D01*
X75244528Y-38367000D01*
X75535472Y-38367000D01*
X75692314Y-38335802D01*
X79237132Y-41880620D01*
X79260682Y-41909316D01*
X79375189Y-42003289D01*
X79505829Y-42073117D01*
X79647581Y-42116118D01*
X79758061Y-42126999D01*
X79758063Y-42126999D01*
X79794999Y-42130637D01*
X79831934Y-42126999D01*
X91340513Y-42126999D01*
X91938000Y-42724487D01*
X91938001Y-42916889D01*
X91912813Y-42954585D01*
X91846703Y-43114189D01*
X91813000Y-43283623D01*
X91813000Y-43456377D01*
X91846703Y-43625811D01*
X91912813Y-43785415D01*
X92008790Y-43929055D01*
X92130945Y-44051210D01*
X92274585Y-44147187D01*
X92434189Y-44213297D01*
X92603623Y-44247000D01*
X92776377Y-44247000D01*
X92945811Y-44213297D01*
X93105415Y-44147187D01*
X93249055Y-44051210D01*
X93371210Y-43929055D01*
X93467187Y-43785415D01*
X93533297Y-43625811D01*
X93567000Y-43456377D01*
X93567000Y-43283623D01*
X93533297Y-43114189D01*
X93467187Y-42954585D01*
X93442000Y-42916890D01*
X93442000Y-42449933D01*
X93445638Y-42412997D01*
X93438195Y-42337429D01*
X93431119Y-42265580D01*
X93388118Y-42123828D01*
X93327242Y-42009936D01*
X93318290Y-41993187D01*
X93247863Y-41907372D01*
X93224317Y-41878681D01*
X93195627Y-41855136D01*
X92209868Y-40869378D01*
X92186318Y-40840682D01*
X92181833Y-40837001D01*
X95483513Y-40837001D01*
X96439188Y-41792676D01*
X90071189Y-48160677D01*
X90043446Y-48183445D01*
X89960663Y-48284318D01*
X89952598Y-48294145D01*
X89885090Y-48420442D01*
X89843520Y-48557481D01*
X89829483Y-48699998D01*
X89833000Y-48735706D01*
X89833001Y-51009473D01*
X89782813Y-51084585D01*
X89716703Y-51244189D01*
X89683000Y-51413623D01*
X89683000Y-51586377D01*
X89716703Y-51755811D01*
X89782813Y-51915415D01*
X89878790Y-52059055D01*
X90000945Y-52181210D01*
X90144585Y-52277187D01*
X90304189Y-52343297D01*
X90473623Y-52377000D01*
X90646377Y-52377000D01*
X90815811Y-52343297D01*
X90975415Y-52277187D01*
X91119055Y-52181210D01*
X91241210Y-52059055D01*
X91337187Y-51915415D01*
X91403297Y-51755811D01*
X91437000Y-51586377D01*
X91437000Y-51413623D01*
X91403297Y-51244189D01*
X91337187Y-51084585D01*
X91287000Y-51009475D01*
X91287000Y-49001130D01*
X96954669Y-43333463D01*
X97018467Y-43397261D01*
X97260378Y-43558901D01*
X97529175Y-43670240D01*
X97814528Y-43727000D01*
X98105472Y-43727000D01*
X98390825Y-43670240D01*
X98659622Y-43558901D01*
X98901533Y-43397261D01*
X99107261Y-43191533D01*
X99136874Y-43147213D01*
X99197772Y-43261145D01*
X99328979Y-43421021D01*
X99488855Y-43552228D01*
X99671256Y-43649723D01*
X99869173Y-43709761D01*
X100075000Y-43730033D01*
X100925000Y-43730033D01*
X101130827Y-43709761D01*
X101328744Y-43649723D01*
X101511145Y-43552228D01*
X101671021Y-43421021D01*
X101802228Y-43261145D01*
X101899723Y-43078744D01*
X101959761Y-42880827D01*
X101980033Y-42675000D01*
X101980033Y-41825000D01*
X101959761Y-41619173D01*
X101899723Y-41421256D01*
X101802228Y-41238855D01*
X101671021Y-41078979D01*
X101511145Y-40947772D01*
X101328744Y-40850277D01*
X101130827Y-40790239D01*
X100925000Y-40769967D01*
X100075000Y-40769967D01*
X99869173Y-40790239D01*
X99671256Y-40850277D01*
X99488855Y-40947772D01*
X99328979Y-41078979D01*
X99197772Y-41238855D01*
X99136874Y-41352787D01*
X99107261Y-41308467D01*
X98901533Y-41102739D01*
X98659622Y-40941099D01*
X98390825Y-40829760D01*
X98105472Y-40773000D01*
X97814528Y-40773000D01*
X97590959Y-40817470D01*
X96352868Y-39579380D01*
X96329318Y-39550684D01*
X96245627Y-39482001D01*
X102943158Y-39482001D01*
X105883001Y-42421845D01*
X105883000Y-67118849D01*
X104919553Y-67864570D01*
X104934162Y-67837237D01*
X104946729Y-67795811D01*
X104963297Y-67755811D01*
X104971744Y-67713348D01*
X104984310Y-67671922D01*
X104988553Y-67628842D01*
X104997000Y-67586377D01*
X104997000Y-67543079D01*
X105001243Y-67500000D01*
X104997000Y-67456921D01*
X104997000Y-67413623D01*
X104988553Y-67371158D01*
X104984310Y-67328078D01*
X104971744Y-67286652D01*
X104963297Y-67244189D01*
X104946729Y-67204189D01*
X104934162Y-67162763D01*
X104913755Y-67124585D01*
X104897187Y-67084585D01*
X104873134Y-67048587D01*
X104852727Y-67010408D01*
X104825263Y-66976943D01*
X104801210Y-66940945D01*
X104770597Y-66910332D01*
X104743133Y-66876867D01*
X104709668Y-66849403D01*
X104679055Y-66818790D01*
X104643057Y-66794737D01*
X104609592Y-66767273D01*
X104571413Y-66746866D01*
X104535415Y-66722813D01*
X104495415Y-66706245D01*
X104457237Y-66685838D01*
X104415811Y-66673271D01*
X104375811Y-66656703D01*
X104333348Y-66648256D01*
X104291922Y-66635690D01*
X104248842Y-66631447D01*
X104206377Y-66623000D01*
X96066268Y-66623000D01*
X91606891Y-62163623D01*
X96873000Y-62163623D01*
X96873000Y-62336377D01*
X96906703Y-62505811D01*
X96972813Y-62665415D01*
X97068790Y-62809055D01*
X97190945Y-62931210D01*
X97334585Y-63027187D01*
X97494189Y-63093297D01*
X97663623Y-63127000D01*
X97836377Y-63127000D01*
X98005811Y-63093297D01*
X98165415Y-63027187D01*
X98309055Y-62931210D01*
X98431210Y-62809055D01*
X98527187Y-62665415D01*
X98593297Y-62505811D01*
X98627000Y-62336377D01*
X98627000Y-62163623D01*
X98593297Y-61994189D01*
X98527187Y-61834585D01*
X98431210Y-61690945D01*
X98309055Y-61568790D01*
X98165415Y-61472813D01*
X98005811Y-61406703D01*
X97836377Y-61373000D01*
X97663623Y-61373000D01*
X97494189Y-61406703D01*
X97334585Y-61472813D01*
X97190945Y-61568790D01*
X97068790Y-61690945D01*
X96972813Y-61834585D01*
X96906703Y-61994189D01*
X96873000Y-62163623D01*
X91606891Y-62163623D01*
X90003599Y-60560332D01*
X89976135Y-60526867D01*
X89842594Y-60417273D01*
X89690239Y-60335838D01*
X89524924Y-60285690D01*
X89396081Y-60273000D01*
X89353002Y-60268757D01*
X89309923Y-60273000D01*
X85113069Y-60273000D01*
X85069999Y-60268758D01*
X85026930Y-60273000D01*
X85026921Y-60273000D01*
X84898078Y-60285690D01*
X84732763Y-60335838D01*
X84677000Y-60365644D01*
X84677000Y-44683069D01*
X84681242Y-44639999D01*
X84677000Y-44596930D01*
X84677000Y-44596921D01*
X84664310Y-44468078D01*
X84614162Y-44302763D01*
X84532727Y-44150408D01*
X84423133Y-44016867D01*
X84389668Y-43989403D01*
X83180597Y-42780332D01*
X83153133Y-42746867D01*
X83019592Y-42637273D01*
X82867237Y-42555838D01*
X82701922Y-42505690D01*
X82573079Y-42493000D01*
X82530000Y-42488757D01*
X82486921Y-42493000D01*
X60647265Y-42493000D01*
X60681210Y-42459055D01*
X60777187Y-42315415D01*
X60843297Y-42155811D01*
X60877000Y-41986377D01*
X60877000Y-41813623D01*
X60843297Y-41644189D01*
X60777187Y-41484585D01*
X60681210Y-41340945D01*
X60559055Y-41218790D01*
X60415415Y-41122813D01*
X60255811Y-41056703D01*
X60086377Y-41023000D01*
X59913623Y-41023000D01*
X59744189Y-41056703D01*
X59584585Y-41122813D01*
X59440945Y-41218790D01*
X59318790Y-41340945D01*
X59222813Y-41484585D01*
X59156703Y-41644189D01*
X59123000Y-41813623D01*
X59123000Y-41986377D01*
X59156703Y-42155811D01*
X59222813Y-42315415D01*
X59318790Y-42459055D01*
X59352735Y-42493000D01*
X58647265Y-42493000D01*
X58681210Y-42459055D01*
X58777187Y-42315415D01*
X58843297Y-42155811D01*
X58877000Y-41986377D01*
X58877000Y-41813623D01*
X58843297Y-41644189D01*
X58777187Y-41484585D01*
X58681210Y-41340945D01*
X58559055Y-41218790D01*
X58415415Y-41122813D01*
X58255811Y-41056703D01*
X58086377Y-41023000D01*
X58000488Y-41023000D01*
X60335627Y-38687862D01*
X60364317Y-38664317D01*
X60426306Y-38588783D01*
X60458290Y-38549811D01*
X60528117Y-38419171D01*
X60528118Y-38419170D01*
X60559900Y-38314402D01*
X60580825Y-38310240D01*
X60849622Y-38198901D01*
X61091533Y-38037261D01*
X61297261Y-37831533D01*
X61420000Y-37647841D01*
X61542739Y-37831533D01*
X61748467Y-38037261D01*
X61990378Y-38198901D01*
X62259175Y-38310240D01*
X62544528Y-38367000D01*
X62835472Y-38367000D01*
X63120825Y-38310240D01*
X63389622Y-38198901D01*
X63631533Y-38037261D01*
X63837261Y-37831533D01*
X63960000Y-37647841D01*
X64082739Y-37831533D01*
X64288467Y-38037261D01*
X64530378Y-38198901D01*
X64799175Y-38310240D01*
X65084528Y-38367000D01*
X65375472Y-38367000D01*
X65660825Y-38310240D01*
X65929622Y-38198901D01*
X66171533Y-38037261D01*
X66377261Y-37831533D01*
X66500000Y-37647841D01*
X66622739Y-37831533D01*
X66828467Y-38037261D01*
X67070378Y-38198901D01*
X67339175Y-38310240D01*
X67624528Y-38367000D01*
X67915472Y-38367000D01*
X68200825Y-38310240D01*
X68469622Y-38198901D01*
X68711533Y-38037261D01*
X68917261Y-37831533D01*
X69040660Y-37646853D01*
X69114822Y-37771355D01*
X69309731Y-37987588D01*
X69543080Y-38161641D01*
X69805901Y-38286825D01*
X69953110Y-38331476D01*
X70183000Y-38210155D01*
X70183000Y-37017000D01*
X70163000Y-37017000D01*
X70163000Y-36763000D01*
X70183000Y-36763000D01*
X70183000Y-36743000D01*
X70437000Y-36743000D01*
X70437000Y-36763000D01*
%TA.AperFunction,Conductor*%
D30*
G36*
X70437000Y-36763000D02*
G01*
X70457000Y-36763000D01*
X70457000Y-37017000D01*
X70437000Y-37017000D01*
X70437000Y-38210155D01*
X70666890Y-38331476D01*
X70814099Y-38286825D01*
X71076920Y-38161641D01*
X71310269Y-37987588D01*
X71505178Y-37771355D01*
X71579340Y-37646853D01*
X71702739Y-37831533D01*
X71908467Y-38037261D01*
X72150378Y-38198901D01*
X72419175Y-38310240D01*
X72704528Y-38367000D01*
X72995472Y-38367000D01*
X73280825Y-38310240D01*
X73549622Y-38198901D01*
X73791533Y-38037261D01*
X73997261Y-37831533D01*
X74120000Y-37647841D01*
X74242739Y-37831533D01*
X74448467Y-38037261D01*
X74690378Y-38198901D01*
X74959175Y-38310240D01*
X75244528Y-38367000D01*
X75535472Y-38367000D01*
X75692314Y-38335802D01*
X79237132Y-41880620D01*
X79260682Y-41909316D01*
X79375189Y-42003289D01*
X79505829Y-42073117D01*
X79647581Y-42116118D01*
X79758061Y-42126999D01*
X79758063Y-42126999D01*
X79794999Y-42130637D01*
X79831934Y-42126999D01*
X91340513Y-42126999D01*
X91938000Y-42724487D01*
X91938001Y-42916889D01*
X91912813Y-42954585D01*
X91846703Y-43114189D01*
X91813000Y-43283623D01*
X91813000Y-43456377D01*
X91846703Y-43625811D01*
X91912813Y-43785415D01*
X92008790Y-43929055D01*
X92130945Y-44051210D01*
X92274585Y-44147187D01*
X92434189Y-44213297D01*
X92603623Y-44247000D01*
X92776377Y-44247000D01*
X92945811Y-44213297D01*
X93105415Y-44147187D01*
X93249055Y-44051210D01*
X93371210Y-43929055D01*
X93467187Y-43785415D01*
X93533297Y-43625811D01*
X93567000Y-43456377D01*
X93567000Y-43283623D01*
X93533297Y-43114189D01*
X93467187Y-42954585D01*
X93442000Y-42916890D01*
X93442000Y-42449933D01*
X93445638Y-42412997D01*
X93438195Y-42337429D01*
X93431119Y-42265580D01*
X93388118Y-42123828D01*
X93327242Y-42009936D01*
X93318290Y-41993187D01*
X93247863Y-41907372D01*
X93224317Y-41878681D01*
X93195627Y-41855136D01*
X92209868Y-40869378D01*
X92186318Y-40840682D01*
X92181833Y-40837001D01*
X95483513Y-40837001D01*
X96439188Y-41792676D01*
X90071189Y-48160677D01*
X90043446Y-48183445D01*
X89960663Y-48284318D01*
X89952598Y-48294145D01*
X89885090Y-48420442D01*
X89843520Y-48557481D01*
X89829483Y-48699998D01*
X89833000Y-48735706D01*
X89833001Y-51009473D01*
X89782813Y-51084585D01*
X89716703Y-51244189D01*
X89683000Y-51413623D01*
X89683000Y-51586377D01*
X89716703Y-51755811D01*
X89782813Y-51915415D01*
X89878790Y-52059055D01*
X90000945Y-52181210D01*
X90144585Y-52277187D01*
X90304189Y-52343297D01*
X90473623Y-52377000D01*
X90646377Y-52377000D01*
X90815811Y-52343297D01*
X90975415Y-52277187D01*
X91119055Y-52181210D01*
X91241210Y-52059055D01*
X91337187Y-51915415D01*
X91403297Y-51755811D01*
X91437000Y-51586377D01*
X91437000Y-51413623D01*
X91403297Y-51244189D01*
X91337187Y-51084585D01*
X91287000Y-51009475D01*
X91287000Y-49001130D01*
X96954669Y-43333463D01*
X97018467Y-43397261D01*
X97260378Y-43558901D01*
X97529175Y-43670240D01*
X97814528Y-43727000D01*
X98105472Y-43727000D01*
X98390825Y-43670240D01*
X98659622Y-43558901D01*
X98901533Y-43397261D01*
X99107261Y-43191533D01*
X99136874Y-43147213D01*
X99197772Y-43261145D01*
X99328979Y-43421021D01*
X99488855Y-43552228D01*
X99671256Y-43649723D01*
X99869173Y-43709761D01*
X100075000Y-43730033D01*
X100925000Y-43730033D01*
X101130827Y-43709761D01*
X101328744Y-43649723D01*
X101511145Y-43552228D01*
X101671021Y-43421021D01*
X101802228Y-43261145D01*
X101899723Y-43078744D01*
X101959761Y-42880827D01*
X101980033Y-42675000D01*
X101980033Y-41825000D01*
X101959761Y-41619173D01*
X101899723Y-41421256D01*
X101802228Y-41238855D01*
X101671021Y-41078979D01*
X101511145Y-40947772D01*
X101328744Y-40850277D01*
X101130827Y-40790239D01*
X100925000Y-40769967D01*
X100075000Y-40769967D01*
X99869173Y-40790239D01*
X99671256Y-40850277D01*
X99488855Y-40947772D01*
X99328979Y-41078979D01*
X99197772Y-41238855D01*
X99136874Y-41352787D01*
X99107261Y-41308467D01*
X98901533Y-41102739D01*
X98659622Y-40941099D01*
X98390825Y-40829760D01*
X98105472Y-40773000D01*
X97814528Y-40773000D01*
X97590959Y-40817470D01*
X96352868Y-39579380D01*
X96329318Y-39550684D01*
X96245627Y-39482001D01*
X102943158Y-39482001D01*
X105883001Y-42421845D01*
X105883000Y-67118849D01*
X104919553Y-67864570D01*
X104934162Y-67837237D01*
X104946729Y-67795811D01*
X104963297Y-67755811D01*
X104971744Y-67713348D01*
X104984310Y-67671922D01*
X104988553Y-67628842D01*
X104997000Y-67586377D01*
X104997000Y-67543079D01*
X105001243Y-67500000D01*
X104997000Y-67456921D01*
X104997000Y-67413623D01*
X104988553Y-67371158D01*
X104984310Y-67328078D01*
X104971744Y-67286652D01*
X104963297Y-67244189D01*
X104946729Y-67204189D01*
X104934162Y-67162763D01*
X104913755Y-67124585D01*
X104897187Y-67084585D01*
X104873134Y-67048587D01*
X104852727Y-67010408D01*
X104825263Y-66976943D01*
X104801210Y-66940945D01*
X104770597Y-66910332D01*
X104743133Y-66876867D01*
X104709668Y-66849403D01*
X104679055Y-66818790D01*
X104643057Y-66794737D01*
X104609592Y-66767273D01*
X104571413Y-66746866D01*
X104535415Y-66722813D01*
X104495415Y-66706245D01*
X104457237Y-66685838D01*
X104415811Y-66673271D01*
X104375811Y-66656703D01*
X104333348Y-66648256D01*
X104291922Y-66635690D01*
X104248842Y-66631447D01*
X104206377Y-66623000D01*
X96066268Y-66623000D01*
X91606891Y-62163623D01*
X96873000Y-62163623D01*
X96873000Y-62336377D01*
X96906703Y-62505811D01*
X96972813Y-62665415D01*
X97068790Y-62809055D01*
X97190945Y-62931210D01*
X97334585Y-63027187D01*
X97494189Y-63093297D01*
X97663623Y-63127000D01*
X97836377Y-63127000D01*
X98005811Y-63093297D01*
X98165415Y-63027187D01*
X98309055Y-62931210D01*
X98431210Y-62809055D01*
X98527187Y-62665415D01*
X98593297Y-62505811D01*
X98627000Y-62336377D01*
X98627000Y-62163623D01*
X98593297Y-61994189D01*
X98527187Y-61834585D01*
X98431210Y-61690945D01*
X98309055Y-61568790D01*
X98165415Y-61472813D01*
X98005811Y-61406703D01*
X97836377Y-61373000D01*
X97663623Y-61373000D01*
X97494189Y-61406703D01*
X97334585Y-61472813D01*
X97190945Y-61568790D01*
X97068790Y-61690945D01*
X96972813Y-61834585D01*
X96906703Y-61994189D01*
X96873000Y-62163623D01*
X91606891Y-62163623D01*
X90003599Y-60560332D01*
X89976135Y-60526867D01*
X89842594Y-60417273D01*
X89690239Y-60335838D01*
X89524924Y-60285690D01*
X89396081Y-60273000D01*
X89353002Y-60268757D01*
X89309923Y-60273000D01*
X85113069Y-60273000D01*
X85069999Y-60268758D01*
X85026930Y-60273000D01*
X85026921Y-60273000D01*
X84898078Y-60285690D01*
X84732763Y-60335838D01*
X84677000Y-60365644D01*
X84677000Y-44683069D01*
X84681242Y-44639999D01*
X84677000Y-44596930D01*
X84677000Y-44596921D01*
X84664310Y-44468078D01*
X84614162Y-44302763D01*
X84532727Y-44150408D01*
X84423133Y-44016867D01*
X84389668Y-43989403D01*
X83180597Y-42780332D01*
X83153133Y-42746867D01*
X83019592Y-42637273D01*
X82867237Y-42555838D01*
X82701922Y-42505690D01*
X82573079Y-42493000D01*
X82530000Y-42488757D01*
X82486921Y-42493000D01*
X60647265Y-42493000D01*
X60681210Y-42459055D01*
X60777187Y-42315415D01*
X60843297Y-42155811D01*
X60877000Y-41986377D01*
X60877000Y-41813623D01*
X60843297Y-41644189D01*
X60777187Y-41484585D01*
X60681210Y-41340945D01*
X60559055Y-41218790D01*
X60415415Y-41122813D01*
X60255811Y-41056703D01*
X60086377Y-41023000D01*
X59913623Y-41023000D01*
X59744189Y-41056703D01*
X59584585Y-41122813D01*
X59440945Y-41218790D01*
X59318790Y-41340945D01*
X59222813Y-41484585D01*
X59156703Y-41644189D01*
X59123000Y-41813623D01*
X59123000Y-41986377D01*
X59156703Y-42155811D01*
X59222813Y-42315415D01*
X59318790Y-42459055D01*
X59352735Y-42493000D01*
X58647265Y-42493000D01*
X58681210Y-42459055D01*
X58777187Y-42315415D01*
X58843297Y-42155811D01*
X58877000Y-41986377D01*
X58877000Y-41813623D01*
X58843297Y-41644189D01*
X58777187Y-41484585D01*
X58681210Y-41340945D01*
X58559055Y-41218790D01*
X58415415Y-41122813D01*
X58255811Y-41056703D01*
X58086377Y-41023000D01*
X58000488Y-41023000D01*
X60335627Y-38687862D01*
X60364317Y-38664317D01*
X60426306Y-38588783D01*
X60458290Y-38549811D01*
X60528117Y-38419171D01*
X60528118Y-38419170D01*
X60559900Y-38314402D01*
X60580825Y-38310240D01*
X60849622Y-38198901D01*
X61091533Y-38037261D01*
X61297261Y-37831533D01*
X61420000Y-37647841D01*
X61542739Y-37831533D01*
X61748467Y-38037261D01*
X61990378Y-38198901D01*
X62259175Y-38310240D01*
X62544528Y-38367000D01*
X62835472Y-38367000D01*
X63120825Y-38310240D01*
X63389622Y-38198901D01*
X63631533Y-38037261D01*
X63837261Y-37831533D01*
X63960000Y-37647841D01*
X64082739Y-37831533D01*
X64288467Y-38037261D01*
X64530378Y-38198901D01*
X64799175Y-38310240D01*
X65084528Y-38367000D01*
X65375472Y-38367000D01*
X65660825Y-38310240D01*
X65929622Y-38198901D01*
X66171533Y-38037261D01*
X66377261Y-37831533D01*
X66500000Y-37647841D01*
X66622739Y-37831533D01*
X66828467Y-38037261D01*
X67070378Y-38198901D01*
X67339175Y-38310240D01*
X67624528Y-38367000D01*
X67915472Y-38367000D01*
X68200825Y-38310240D01*
X68469622Y-38198901D01*
X68711533Y-38037261D01*
X68917261Y-37831533D01*
X69040660Y-37646853D01*
X69114822Y-37771355D01*
X69309731Y-37987588D01*
X69543080Y-38161641D01*
X69805901Y-38286825D01*
X69953110Y-38331476D01*
X70183000Y-38210155D01*
X70183000Y-37017000D01*
X70163000Y-37017000D01*
X70163000Y-36763000D01*
X70183000Y-36763000D01*
X70183000Y-36743000D01*
X70437000Y-36743000D01*
X70437000Y-36763000D01*
G37*
%TD.AperFunction*%
D29*
X55035002Y-51398585D02*
X54994189Y-51406703D01*
X54834585Y-51472813D01*
X54690945Y-51568790D01*
X54568790Y-51690945D01*
X54472813Y-51834585D01*
X54406703Y-51994189D01*
X54373000Y-52163623D01*
X54373000Y-52336377D01*
X54406703Y-52505811D01*
X54472813Y-52665415D01*
X54502968Y-52710545D01*
X52790503Y-54423011D01*
X51109767Y-54423011D01*
X51127000Y-54336377D01*
X51127000Y-54163623D01*
X51093297Y-53994189D01*
X51027187Y-53834585D01*
X50931210Y-53690945D01*
X50809055Y-53568790D01*
X50665415Y-53472813D01*
X50505811Y-53406703D01*
X50336377Y-53373000D01*
X50163623Y-53373000D01*
X49994189Y-53406703D01*
X49834585Y-53472813D01*
X49690945Y-53568790D01*
X49568790Y-53690945D01*
X49472813Y-53834585D01*
X49406703Y-53994189D01*
X49400972Y-54023001D01*
X48476999Y-54023001D01*
X48476999Y-49309487D01*
X55035001Y-42751485D01*
X55035002Y-51398585D01*
%TA.AperFunction,Conductor*%
D30*
G36*
X55035002Y-51398585D02*
G01*
X54994189Y-51406703D01*
X54834585Y-51472813D01*
X54690945Y-51568790D01*
X54568790Y-51690945D01*
X54472813Y-51834585D01*
X54406703Y-51994189D01*
X54373000Y-52163623D01*
X54373000Y-52336377D01*
X54406703Y-52505811D01*
X54472813Y-52665415D01*
X54502968Y-52710545D01*
X52790503Y-54423011D01*
X51109767Y-54423011D01*
X51127000Y-54336377D01*
X51127000Y-54163623D01*
X51093297Y-53994189D01*
X51027187Y-53834585D01*
X50931210Y-53690945D01*
X50809055Y-53568790D01*
X50665415Y-53472813D01*
X50505811Y-53406703D01*
X50336377Y-53373000D01*
X50163623Y-53373000D01*
X49994189Y-53406703D01*
X49834585Y-53472813D01*
X49690945Y-53568790D01*
X49568790Y-53690945D01*
X49472813Y-53834585D01*
X49406703Y-53994189D01*
X49400972Y-54023001D01*
X48476999Y-54023001D01*
X48476999Y-49309487D01*
X55035001Y-42751485D01*
X55035002Y-51398585D01*
G37*
%TD.AperFunction*%
D29*
X44898000Y-50538512D02*
X44038654Y-51397858D01*
X43994189Y-51406703D01*
X43901999Y-51444889D01*
X43901999Y-48502001D01*
X44001066Y-48502001D01*
X44038001Y-48505639D01*
X44074936Y-48502001D01*
X44074939Y-48502001D01*
X44185419Y-48491120D01*
X44327171Y-48448119D01*
X44457811Y-48378291D01*
X44572318Y-48284318D01*
X44595869Y-48255621D01*
X44855617Y-47995872D01*
X44884318Y-47972318D01*
X44898000Y-47955647D01*
X44898000Y-50538512D01*
%TA.AperFunction,Conductor*%
D30*
G36*
X44898000Y-50538512D02*
G01*
X44038654Y-51397858D01*
X43994189Y-51406703D01*
X43901999Y-51444889D01*
X43901999Y-48502001D01*
X44001066Y-48502001D01*
X44038001Y-48505639D01*
X44074936Y-48502001D01*
X44074939Y-48502001D01*
X44185419Y-48491120D01*
X44327171Y-48448119D01*
X44457811Y-48378291D01*
X44572318Y-48284318D01*
X44595869Y-48255621D01*
X44855617Y-47995872D01*
X44884318Y-47972318D01*
X44898000Y-47955647D01*
X44898000Y-50538512D01*
G37*
%TD.AperFunction*%
D29*
X53922739Y-37831533D02*
X53998000Y-37906794D01*
X53998001Y-41661509D01*
X48076989Y-47582521D01*
X48076989Y-44988949D01*
X48080627Y-44952014D01*
X48076989Y-44915075D01*
X48066108Y-44804595D01*
X48023107Y-44662843D01*
X47953279Y-44532203D01*
X47859306Y-44417696D01*
X47744798Y-44323723D01*
X47614158Y-44253895D01*
X47472406Y-44210894D01*
X47324989Y-44196375D01*
X47324988Y-44196375D01*
X47311771Y-44197677D01*
X47177571Y-44210894D01*
X47035819Y-44253895D01*
X46997767Y-44274234D01*
X46905178Y-44323723D01*
X46861697Y-44359407D01*
X46790672Y-44417696D01*
X46767123Y-44446391D01*
X46495229Y-44718285D01*
X46516120Y-44649419D01*
X46527001Y-44538939D01*
X46527001Y-44538936D01*
X46530639Y-44502001D01*
X46527001Y-44465066D01*
X46527001Y-43588938D01*
X46530639Y-43552002D01*
X46527001Y-43515065D01*
X46516120Y-43404585D01*
X46473119Y-43262833D01*
X46422770Y-43168636D01*
X46403291Y-43132192D01*
X46332864Y-43046377D01*
X46309318Y-43017686D01*
X46280628Y-42994141D01*
X46159070Y-42872583D01*
X46282061Y-42821639D01*
X46425701Y-42725662D01*
X46547856Y-42603507D01*
X46643833Y-42459867D01*
X46709943Y-42300263D01*
X46718788Y-42255798D01*
X49395000Y-39579587D01*
X49395000Y-39646377D01*
X49428703Y-39815811D01*
X49494813Y-39975415D01*
X49590790Y-40119055D01*
X49712945Y-40241210D01*
X49856585Y-40337187D01*
X50016189Y-40403297D01*
X50060653Y-40412142D01*
X50498000Y-40849489D01*
X50498001Y-41796889D01*
X50472813Y-41834585D01*
X50406703Y-41994189D01*
X50373000Y-42163623D01*
X50373000Y-42336377D01*
X50406703Y-42505811D01*
X50472813Y-42665415D01*
X50568790Y-42809055D01*
X50690945Y-42931210D01*
X50834585Y-43027187D01*
X50994189Y-43093297D01*
X51163623Y-43127000D01*
X51336377Y-43127000D01*
X51505811Y-43093297D01*
X51665415Y-43027187D01*
X51809055Y-42931210D01*
X51931210Y-42809055D01*
X52027187Y-42665415D01*
X52093297Y-42505811D01*
X52127000Y-42336377D01*
X52127000Y-42163623D01*
X52093297Y-41994189D01*
X52027187Y-41834585D01*
X52002000Y-41796890D01*
X52002000Y-40574935D01*
X52005638Y-40538000D01*
X52001855Y-40499593D01*
X51991119Y-40390582D01*
X51948118Y-40248830D01*
X51878290Y-40118190D01*
X51784317Y-40003683D01*
X51755627Y-39980138D01*
X51124142Y-39348653D01*
X51115297Y-39304189D01*
X51049187Y-39144585D01*
X51040380Y-39131404D01*
X51195415Y-39067187D01*
X51339055Y-38971210D01*
X51461210Y-38849055D01*
X51557187Y-38705415D01*
X51623297Y-38545811D01*
X51657000Y-38376377D01*
X51657000Y-38203623D01*
X51629341Y-38064572D01*
X51830378Y-38198901D01*
X52099175Y-38310240D01*
X52384528Y-38367000D01*
X52675472Y-38367000D01*
X52960825Y-38310240D01*
X53229622Y-38198901D01*
X53471533Y-38037261D01*
X53677261Y-37831533D01*
X53800000Y-37647841D01*
X53922739Y-37831533D01*
%TA.AperFunction,Conductor*%
D30*
G36*
X53922739Y-37831533D02*
G01*
X53998000Y-37906794D01*
X53998001Y-41661509D01*
X48076989Y-47582521D01*
X48076989Y-44988949D01*
X48080627Y-44952014D01*
X48076989Y-44915075D01*
X48066108Y-44804595D01*
X48023107Y-44662843D01*
X47953279Y-44532203D01*
X47859306Y-44417696D01*
X47744798Y-44323723D01*
X47614158Y-44253895D01*
X47472406Y-44210894D01*
X47324989Y-44196375D01*
X47324988Y-44196375D01*
X47311771Y-44197677D01*
X47177571Y-44210894D01*
X47035819Y-44253895D01*
X46997767Y-44274234D01*
X46905178Y-44323723D01*
X46861697Y-44359407D01*
X46790672Y-44417696D01*
X46767123Y-44446391D01*
X46495229Y-44718285D01*
X46516120Y-44649419D01*
X46527001Y-44538939D01*
X46527001Y-44538936D01*
X46530639Y-44502001D01*
X46527001Y-44465066D01*
X46527001Y-43588938D01*
X46530639Y-43552002D01*
X46527001Y-43515065D01*
X46516120Y-43404585D01*
X46473119Y-43262833D01*
X46422770Y-43168636D01*
X46403291Y-43132192D01*
X46332864Y-43046377D01*
X46309318Y-43017686D01*
X46280628Y-42994141D01*
X46159070Y-42872583D01*
X46282061Y-42821639D01*
X46425701Y-42725662D01*
X46547856Y-42603507D01*
X46643833Y-42459867D01*
X46709943Y-42300263D01*
X46718788Y-42255798D01*
X49395000Y-39579587D01*
X49395000Y-39646377D01*
X49428703Y-39815811D01*
X49494813Y-39975415D01*
X49590790Y-40119055D01*
X49712945Y-40241210D01*
X49856585Y-40337187D01*
X50016189Y-40403297D01*
X50060653Y-40412142D01*
X50498000Y-40849489D01*
X50498001Y-41796889D01*
X50472813Y-41834585D01*
X50406703Y-41994189D01*
X50373000Y-42163623D01*
X50373000Y-42336377D01*
X50406703Y-42505811D01*
X50472813Y-42665415D01*
X50568790Y-42809055D01*
X50690945Y-42931210D01*
X50834585Y-43027187D01*
X50994189Y-43093297D01*
X51163623Y-43127000D01*
X51336377Y-43127000D01*
X51505811Y-43093297D01*
X51665415Y-43027187D01*
X51809055Y-42931210D01*
X51931210Y-42809055D01*
X52027187Y-42665415D01*
X52093297Y-42505811D01*
X52127000Y-42336377D01*
X52127000Y-42163623D01*
X52093297Y-41994189D01*
X52027187Y-41834585D01*
X52002000Y-41796890D01*
X52002000Y-40574935D01*
X52005638Y-40538000D01*
X52001855Y-40499593D01*
X51991119Y-40390582D01*
X51948118Y-40248830D01*
X51878290Y-40118190D01*
X51784317Y-40003683D01*
X51755627Y-39980138D01*
X51124142Y-39348653D01*
X51115297Y-39304189D01*
X51049187Y-39144585D01*
X51040380Y-39131404D01*
X51195415Y-39067187D01*
X51339055Y-38971210D01*
X51461210Y-38849055D01*
X51557187Y-38705415D01*
X51623297Y-38545811D01*
X51657000Y-38376377D01*
X51657000Y-38203623D01*
X51629341Y-38064572D01*
X51830378Y-38198901D01*
X52099175Y-38310240D01*
X52384528Y-38367000D01*
X52675472Y-38367000D01*
X52960825Y-38310240D01*
X53229622Y-38198901D01*
X53471533Y-38037261D01*
X53677261Y-37831533D01*
X53800000Y-37647841D01*
X53922739Y-37831533D01*
G37*
%TD.AperFunction*%
D29*
X43172980Y-45775529D02*
X42767000Y-46181510D01*
X42767000Y-43540608D01*
X42981533Y-43397261D01*
X43172979Y-43205815D01*
X43172980Y-45775529D01*
%TA.AperFunction,Conductor*%
D30*
G36*
X43172980Y-45775529D02*
G01*
X42767000Y-46181510D01*
X42767000Y-43540608D01*
X42981533Y-43397261D01*
X43172979Y-43205815D01*
X43172980Y-45775529D01*
G37*
%TD.AperFunction*%
%TD*%
M02*
